M48
; DRILL file {KiCad 9.0.9-9.0.9~ubuntu24.04.1} date 2026-10-02T11:48:44-0400
; FORMAT={-:-/ absolute / metric / decimal}
; #@! TF.CreationDate,2026-10-02T11:48:44-04:00
; #@! TF.GenerationSoftware,Kicad,Pcbnew,9.0.9-9.0.9~ubuntu24.04.1
; #@! TF.FileFunction,Plated,1,2,PTH
FMAT,2
METRIC
; #@! TA.AperFunction,Plated,PTH,ViaDrill
T1C0.300
; #@! TA.AperFunction,Plated,PTH,ComponentDrill
T2C0.700
; #@! TA.AperFunction,Plated,PTH,ComponentDrill
T3C0.800
; #@! TA.AperFunction,Plated,PTH,ComponentDrill
T4C0.900
; #@! TA.AperFunction,Plated,PTH,ComponentDrill
T5C1.000
; #@! TA.AperFunction,Plated,PTH,ComponentDrill
T6C1.100
; #@! TA.AperFunction,Plated,PTH,ComponentDrill
T7C1.500
%
G90
G05
T1
X146.25Y-85.5
T2
X127.64Y-97.45
X127.64Y-102.53
X130.803Y-97.45
X130.803Y-102.53
X133.966Y-97.45
X133.966Y-102.53
X137.129Y-97.45
X137.129Y-102.53
X140.291Y-97.45
X140.291Y-102.53
X143.454Y-97.45
X143.454Y-102.53
X146.617Y-97.45
X146.617Y-102.53
X149.78Y-97.45
X149.78Y-102.53
X152.04Y-78.92
X152.04Y-84.0
X164.88Y-88.79
X164.88Y-93.87
X176.03Y-94.0
X176.03Y-99.08
X180.75Y-88.92
X180.75Y-94.0
X181.54Y-77.61
X181.54Y-82.69
T3
X128.74Y-81.25
X128.74Y-88.87
X131.28Y-81.25
X131.28Y-88.87
X133.82Y-81.25
X133.82Y-88.87
X136.36Y-81.25
X136.36Y-88.87
X138.9Y-81.25
X138.9Y-88.87
X141.44Y-81.25
X141.44Y-88.87
X143.98Y-81.25
X143.98Y-88.87
X146.52Y-81.25
X146.52Y-88.87
X154.38Y-89.13
X154.38Y-91.67
X154.38Y-94.21
X154.38Y-96.75
X154.38Y-99.29
X154.38Y-101.83
X154.38Y-104.37
X162.0Y-89.13
X162.0Y-91.67
X162.0Y-94.21
X162.0Y-96.75
X162.0Y-99.29
X162.0Y-101.83
X162.0Y-104.37
X169.88Y-89.79
X171.88Y-89.79
X173.88Y-89.79
X180.25Y-98.75
X180.25Y-103.75
X185.0Y-77.75
X185.0Y-82.75
T4
X127.534Y-110.43
X127.534Y-112.97
X135.426Y-110.43
X135.426Y-112.97
X143.318Y-110.43
X143.318Y-112.97
X151.211Y-110.43
X151.211Y-112.97
X159.103Y-110.43
X159.103Y-112.97
X166.995Y-110.43
X166.995Y-112.97
X169.78Y-95.5
X169.78Y-98.04
X174.888Y-110.43
X174.888Y-112.97
X182.78Y-110.43
X182.78Y-112.97
T5
X129.03Y-93.27
X131.57Y-93.27
X134.11Y-93.27
X136.65Y-93.27
X139.19Y-93.27
X141.73Y-93.27
X144.27Y-93.27
X146.81Y-93.27
X184.75Y-88.0
X184.75Y-90.54
X184.75Y-93.08
T6
X155.67Y-78.28
X155.67Y-84.78
X160.17Y-78.28
X160.17Y-84.78
X164.575Y-78.28
X164.575Y-84.78
X169.075Y-78.28
X169.075Y-84.78
X173.48Y-78.28
X173.48Y-84.78
X177.98Y-78.28
X177.98Y-84.78
X184.25Y-98.54
X184.25Y-101.08
X184.25Y-103.62
T7
X167.78Y-89.79
X175.98Y-89.79
M30
