%TF.GenerationSoftware,KiCad,Pcbnew,9.0.9-9.0.9~ubuntu24.04.1*%
%TF.CreationDate,2026-09-19T22:35:40-04:00*%
%TF.ProjectId,shift-register-control-panel,73686966-742d-4726-9567-69737465722d,rev?*%
%TF.SameCoordinates,Original*%
%TF.FileFunction,Copper,L1,Top*%
%TF.FilePolarity,Positive*%
%FSLAX46Y46*%
G04 Gerber Fmt 4.6, Leading zero omitted, Abs format (unit mm)*
G04 Created by KiCad (PCBNEW 9.0.9-9.0.9~ubuntu24.04.1) date 2026-09-19 22:35:40*
%MOMM*%
%LPD*%
G01*
G04 APERTURE LIST*
G04 Aperture macros list*
%AMRoundRect*
0 Rectangle with rounded corners*
0 $1 Rounding radius*
0 $2 $3 $4 $5 $6 $7 $8 $9 X,Y pos of 4 corners*
0 Add a 4 corners polygon primitive as box body*
4,1,4,$2,$3,$4,$5,$6,$7,$8,$9,$2,$3,0*
0 Add four circle primitives for the rounded corners*
1,1,$1+$1,$2,$3*
1,1,$1+$1,$4,$5*
1,1,$1+$1,$6,$7*
1,1,$1+$1,$8,$9*
0 Add four rect primitives between the rounded corners*
20,1,$1+$1,$2,$3,$4,$5,0*
20,1,$1+$1,$4,$5,$6,$7,0*
20,1,$1+$1,$6,$7,$8,$9,0*
20,1,$1+$1,$8,$9,$2,$3,0*%
G04 Aperture macros list end*
%TA.AperFunction,ComponentPad*%
%ADD10R,1.500000X1.600000*%
%TD*%
%TA.AperFunction,ComponentPad*%
%ADD11C,1.600000*%
%TD*%
%TA.AperFunction,ComponentPad*%
%ADD12C,3.000000*%
%TD*%
%TA.AperFunction,ComponentPad*%
%ADD13R,1.700000X1.700000*%
%TD*%
%TA.AperFunction,ComponentPad*%
%ADD14C,1.700000*%
%TD*%
%TA.AperFunction,ComponentPad*%
%ADD15C,1.200000*%
%TD*%
%TA.AperFunction,ComponentPad*%
%ADD16C,1.400000*%
%TD*%
%TA.AperFunction,ComponentPad*%
%ADD17R,1.800000X1.800000*%
%TD*%
%TA.AperFunction,ComponentPad*%
%ADD18C,1.800000*%
%TD*%
%TA.AperFunction,ComponentPad*%
%ADD19R,2.000000X1.905000*%
%TD*%
%TA.AperFunction,ComponentPad*%
%ADD20O,2.000000X1.905000*%
%TD*%
%TA.AperFunction,ComponentPad*%
%ADD21O,2.200000X3.500000*%
%TD*%
%TA.AperFunction,ComponentPad*%
%ADD22R,1.500000X2.500000*%
%TD*%
%TA.AperFunction,ComponentPad*%
%ADD23O,1.500000X2.500000*%
%TD*%
%TA.AperFunction,ComponentPad*%
%ADD24RoundRect,0.250000X0.550000X-0.550000X0.550000X0.550000X-0.550000X0.550000X-0.550000X-0.550000X0*%
%TD*%
%TA.AperFunction,ComponentPad*%
%ADD25C,2.000000*%
%TD*%
%TA.AperFunction,Conductor*%
%ADD26C,0.200000*%
%TD*%
G04 APERTURE END LIST*
D10*
%TO.P,J2,1,VBUS*%
%TO.N,VCC*%
X180950000Y-97320000D03*
D11*
%TO.P,J2,2,D-*%
%TO.N,unconnected-(J2-D--Pad2)*%
X180950000Y-94820000D03*
%TO.P,J2,3,D+*%
%TO.N,unconnected-(J2-D+-Pad3)*%
X180950000Y-92820000D03*
%TO.P,J2,4,GND*%
%TO.N,GND*%
X180950000Y-90320000D03*
D12*
%TO.P,J2,5,Shield*%
X183660000Y-100390000D03*
X183660000Y-87250000D03*
%TD*%
D13*
%TO.P,J1,1,Pin_1*%
%TO.N,/OUT1*%
X129800000Y-90500000D03*
D14*
%TO.P,J1,2,Pin_2*%
%TO.N,/OUT2*%
X132340000Y-90500000D03*
%TO.P,J1,3,Pin_3*%
%TO.N,/OUT3*%
X134880000Y-90500000D03*
%TO.P,J1,4,Pin_4*%
%TO.N,/OUT4*%
X137420000Y-90500000D03*
%TO.P,J1,5,Pin_5*%
%TO.N,/OUT5*%
X139960000Y-90500000D03*
%TO.P,J1,6,Pin_6*%
%TO.N,/OUT6*%
X142500000Y-90500000D03*
%TO.P,J1,7,Pin_7*%
%TO.N,/OUT7*%
X145040000Y-90500000D03*
%TO.P,J1,8,Pin_8*%
%TO.N,/OUT8*%
X147580000Y-90500000D03*
%TD*%
D15*
%TO.P,C1,1*%
%TO.N,GND*%
X165500000Y-100750000D03*
%TO.P,C1,2*%
%TO.N,+5V*%
X167500000Y-100750000D03*
%TD*%
D16*
%TO.P,R1,1*%
%TO.N,/OUT1*%
X127600000Y-94710000D03*
%TO.P,R1,2*%
%TO.N,Net-(D1-A)*%
X127600000Y-99790000D03*
%TD*%
D17*
%TO.P,D4,1,K*%
%TO.N,GND*%
X152183713Y-113204061D03*
D18*
%TO.P,D4,2,A*%
%TO.N,Net-(D4-A)*%
X152183713Y-110664061D03*
%TD*%
D19*
%TO.P,U2,1,VI*%
%TO.N,VCC*%
X172300000Y-98710000D03*
D20*
%TO.P,U2,2,GND*%
%TO.N,GND*%
X172300000Y-101250000D03*
%TO.P,U2,3,VO*%
%TO.N,+5V*%
X172300000Y-103790000D03*
%TD*%
D16*
%TO.P,R5,1*%
%TO.N,/OUT5*%
X140200000Y-94710000D03*
%TO.P,R5,2*%
%TO.N,Net-(D5-A)*%
X140200000Y-99790000D03*
%TD*%
D17*
%TO.P,D6,1,K*%
%TO.N,GND*%
X168183713Y-113179061D03*
D18*
%TO.P,D6,2,A*%
%TO.N,Net-(D6-A)*%
X168183713Y-110639061D03*
%TD*%
D17*
%TO.P,D1,1,K*%
%TO.N,GND*%
X127183713Y-113204061D03*
D18*
%TO.P,D1,2,A*%
%TO.N,Net-(D1-A)*%
X127183713Y-110664061D03*
%TD*%
D16*
%TO.P,R10,1*%
%TO.N,Net-(U1-SRCLK)*%
X173500000Y-88710000D03*
%TO.P,R10,2*%
%TO.N,GND*%
X173500000Y-93790000D03*
%TD*%
D21*
%TO.P,SW1,*%
%TO.N,*%
X164350000Y-89952500D03*
X156150000Y-89952500D03*
D22*
%TO.P,SW1,1,A*%
%TO.N,+5V*%
X162250000Y-89952500D03*
D23*
%TO.P,SW1,2,B*%
%TO.N,Net-(SW1-B)*%
X160250000Y-89952500D03*
%TO.P,SW1,3,C*%
%TO.N,GND*%
X158250000Y-89952500D03*
%TD*%
D17*
%TO.P,D9,1,K*%
%TO.N,GND*%
X157500000Y-99210000D03*
D18*
%TO.P,D9,2,A*%
%TO.N,Net-(D9-A)*%
X157500000Y-101750000D03*
%TD*%
D17*
%TO.P,D8,1,K*%
%TO.N,GND*%
X183433713Y-113179061D03*
D18*
%TO.P,D8,2,A*%
%TO.N,Net-(D8-A)*%
X183433713Y-110639061D03*
%TD*%
D16*
%TO.P,R8,1*%
%TO.N,/OUT8*%
X150450000Y-94500000D03*
%TO.P,R8,2*%
%TO.N,Net-(D8-A)*%
X150450000Y-99580000D03*
%TD*%
D17*
%TO.P,D5,1,K*%
%TO.N,GND*%
X160683713Y-113219061D03*
D18*
%TO.P,D5,2,A*%
%TO.N,Net-(D5-A)*%
X160683713Y-110679061D03*
%TD*%
D16*
%TO.P,R7,1*%
%TO.N,/OUT7*%
X146500000Y-94710000D03*
%TO.P,R7,2*%
%TO.N,Net-(D7-A)*%
X146500000Y-99790000D03*
%TD*%
D24*
%TO.P,U1,1,QB*%
%TO.N,/OUT2*%
X129510000Y-86500000D03*
D11*
%TO.P,U1,2,QC*%
%TO.N,/OUT3*%
X132050000Y-86500000D03*
%TO.P,U1,3,QD*%
%TO.N,/OUT4*%
X134590000Y-86500000D03*
%TO.P,U1,4,QE*%
%TO.N,/OUT5*%
X137130000Y-86500000D03*
%TO.P,U1,5,QF*%
%TO.N,/OUT6*%
X139670000Y-86500000D03*
%TO.P,U1,6,QG*%
%TO.N,/OUT7*%
X142210000Y-86500000D03*
%TO.P,U1,7,QH*%
%TO.N,/OUT8*%
X144750000Y-86500000D03*
%TO.P,U1,8,GND*%
%TO.N,GND*%
X147290000Y-86500000D03*
%TO.P,U1,9,QH'*%
%TO.N,unconnected-(U1-QH'-Pad9)*%
X147290000Y-78880000D03*
%TO.P,U1,10,~{SRCLR}*%
%TO.N,Net-(U1-~{SRCLR})*%
X144750000Y-78880000D03*
%TO.P,U1,11,SRCLK*%
%TO.N,Net-(U1-SRCLK)*%
X142210000Y-78880000D03*
%TO.P,U1,12,RCLK*%
%TO.N,Net-(U1-RCLK)*%
X139670000Y-78880000D03*
%TO.P,U1,13,~{OE}*%
%TO.N,+5V*%
X137130000Y-78880000D03*
%TO.P,U1,14,SER*%
%TO.N,Net-(SW1-B)*%
X134590000Y-78880000D03*
%TO.P,U1,15,QA*%
%TO.N,/OUT1*%
X132050000Y-78880000D03*
%TO.P,U1,16,VCC*%
%TO.N,+5V*%
X129510000Y-78880000D03*
%TD*%
D16*
%TO.P,R6,1*%
%TO.N,/OUT6*%
X143350000Y-94710000D03*
%TO.P,R6,2*%
%TO.N,Net-(D6-A)*%
X143350000Y-99790000D03*
%TD*%
D17*
%TO.P,D2,1,K*%
%TO.N,GND*%
X135433713Y-113204061D03*
D18*
%TO.P,D2,2,A*%
%TO.N,Net-(D2-A)*%
X135433713Y-110664061D03*
%TD*%
D16*
%TO.P,R12,1*%
%TO.N,Net-(U1-RCLK)*%
X152500000Y-78210000D03*
%TO.P,R12,2*%
%TO.N,GND*%
X152500000Y-83290000D03*
%TD*%
%TO.P,R3,1*%
%TO.N,/OUT3*%
X133900000Y-94710000D03*
%TO.P,R3,2*%
%TO.N,Net-(D3-A)*%
X133900000Y-99790000D03*
%TD*%
%TO.P,R9,1*%
%TO.N,Net-(SW1-B)*%
X160750000Y-94500000D03*
%TO.P,R9,2*%
%TO.N,Net-(D9-A)*%
X155670000Y-94500000D03*
%TD*%
%TO.P,R2,1*%
%TO.N,/OUT2*%
X130750000Y-94710000D03*
%TO.P,R2,2*%
%TO.N,Net-(D2-A)*%
X130750000Y-99790000D03*
%TD*%
%TO.P,R4,1*%
%TO.N,/OUT4*%
X137050000Y-94710000D03*
%TO.P,R4,2*%
%TO.N,Net-(D4-A)*%
X137050000Y-99790000D03*
%TD*%
D25*
%TO.P,SW4,1,1*%
%TO.N,+5V*%
X160000000Y-78500000D03*
X160000000Y-85000000D03*
%TO.P,SW4,2,2*%
%TO.N,Net-(U1-RCLK)*%
X155500000Y-78500000D03*
X155500000Y-85000000D03*
%TD*%
D17*
%TO.P,D3,1,K*%
%TO.N,GND*%
X144183713Y-112954061D03*
D18*
%TO.P,D3,2,A*%
%TO.N,Net-(D3-A)*%
X144183713Y-110414061D03*
%TD*%
D25*
%TO.P,SW2,1,1*%
%TO.N,+5V*%
X178000000Y-78500000D03*
X178000000Y-85000000D03*
%TO.P,SW2,2,2*%
%TO.N,Net-(U1-SRCLK)*%
X173500000Y-78500000D03*
X173500000Y-85000000D03*
%TD*%
D17*
%TO.P,D7,1,K*%
%TO.N,GND*%
X175683713Y-113179061D03*
D18*
%TO.P,D7,2,A*%
%TO.N,Net-(D7-A)*%
X175683713Y-110639061D03*
%TD*%
D25*
%TO.P,SW3,1,1*%
%TO.N,GND*%
X169250000Y-78500000D03*
X169250000Y-85000000D03*
%TO.P,SW3,2,2*%
%TO.N,Net-(U1-~{SRCLR})*%
X164750000Y-78500000D03*
X164750000Y-85000000D03*
%TD*%
D16*
%TO.P,R11,1*%
%TO.N,+5V*%
X169000000Y-93790000D03*
%TO.P,R11,2*%
%TO.N,Net-(U1-~{SRCLR})*%
X169000000Y-88710000D03*
%TD*%
D26*
%TO.N,VCC*%
X180950000Y-97320000D02*
X173690000Y-97320000D01*
X173690000Y-97320000D02*
X172300000Y-98710000D01*
%TO.N,/OUT8*%
X150450000Y-94500000D02*
X150450000Y-93370000D01*
X150450000Y-93370000D02*
X147580000Y-90500000D01*
%TO.N,/OUT7*%
X146500000Y-94710000D02*
X145040000Y-93250000D01*
X145040000Y-93250000D02*
X145040000Y-90500000D01*
%TO.N,/OUT6*%
X143350000Y-94710000D02*
X142500000Y-93860000D01*
X142500000Y-93860000D02*
X142500000Y-90500000D01*
%TO.N,/OUT5*%
X140200000Y-94710000D02*
X140200000Y-90740000D01*
X140200000Y-90740000D02*
X139960000Y-90500000D01*
%TO.N,/OUT4*%
X137050000Y-94710000D02*
X137050000Y-90870000D01*
X137050000Y-90870000D02*
X137420000Y-90500000D01*
%TO.N,/OUT3*%
X133900000Y-94710000D02*
X133900000Y-91480000D01*
X133900000Y-91480000D02*
X134880000Y-90500000D01*
%TO.N,/OUT2*%
X130750000Y-94710000D02*
X132340000Y-93120000D01*
X132340000Y-93120000D02*
X132340000Y-90500000D01*
%TO.N,/OUT1*%
X129800000Y-90500000D02*
X129800000Y-92510000D01*
X129800000Y-92510000D02*
X127600000Y-94710000D01*
%TO.N,/OUT8*%
X147580000Y-90500000D02*
X144750000Y-87670000D01*
X144750000Y-87670000D02*
X144750000Y-86500000D01*
%TO.N,/OUT7*%
X145040000Y-90500000D02*
X142210000Y-87670000D01*
X142210000Y-87670000D02*
X142210000Y-86500000D01*
%TO.N,/OUT6*%
X142500000Y-90500000D02*
X139670000Y-87670000D01*
X139670000Y-87670000D02*
X139670000Y-86500000D01*
%TO.N,/OUT5*%
X139960000Y-90500000D02*
X137130000Y-87670000D01*
X137130000Y-87670000D02*
X137130000Y-86500000D01*
%TO.N,/OUT4*%
X137420000Y-90500000D02*
X134590000Y-87670000D01*
X134590000Y-87670000D02*
X134590000Y-86500000D01*
%TO.N,/OUT3*%
X134880000Y-90500000D02*
X132050000Y-87670000D01*
X132050000Y-87670000D02*
X132050000Y-86500000D01*
%TO.N,/OUT2*%
X132340000Y-90500000D02*
X132340000Y-89340000D01*
X132340000Y-89340000D02*
X129510000Y-86510000D01*
X129510000Y-86510000D02*
X129510000Y-86500000D01*
%TO.N,Net-(D1-A)*%
X127600000Y-99790000D02*
X127600000Y-110247774D01*
X127600000Y-110247774D02*
X127183713Y-110664061D01*
%TO.N,Net-(D2-A)*%
X130750000Y-99790000D02*
X135433713Y-104473713D01*
X135433713Y-104473713D02*
X135433713Y-110664061D01*
%TO.N,Net-(D3-A)*%
X144183713Y-110073713D02*
X144183713Y-110414061D01*
X133900000Y-99790000D02*
X144183713Y-110073713D01*
%TO.N,Net-(D4-A)*%
X137050000Y-99790000D02*
X147924061Y-110664061D01*
X147924061Y-110664061D02*
X152183713Y-110664061D01*
%TO.N,Net-(D5-A)*%
X140200000Y-99790000D02*
X147910000Y-107500000D01*
X157504652Y-107500000D02*
X160683713Y-110679061D01*
X147910000Y-107500000D02*
X157504652Y-107500000D01*
%TO.N,Net-(D6-A)*%
X149560000Y-106000000D02*
X163544652Y-106000000D01*
X163544652Y-106000000D02*
X168183713Y-110639061D01*
X143350000Y-99790000D02*
X149560000Y-106000000D01*
%TO.N,Net-(D7-A)*%
X146500000Y-99790000D02*
X151710000Y-105000000D01*
X151710000Y-105000000D02*
X167750000Y-105000000D01*
X167750000Y-105000000D02*
X173389061Y-110639061D01*
X173389061Y-110639061D02*
X175683713Y-110639061D01*
%TO.N,Net-(D8-A)*%
X168250000Y-104250000D02*
X171000000Y-107000000D01*
X150450000Y-99580000D02*
X150450000Y-100700000D01*
X150450000Y-100700000D02*
X154000000Y-104250000D01*
X171000000Y-107000000D02*
X179794652Y-107000000D01*
X179794652Y-107000000D02*
X183433713Y-110639061D01*
X154000000Y-104250000D02*
X168250000Y-104250000D01*
%TO.N,Net-(D9-A)*%
X156000000Y-101750000D02*
X154750000Y-100500000D01*
X154750000Y-95420000D02*
X155670000Y-94500000D01*
X154750000Y-100500000D02*
X154750000Y-95420000D01*
X157500000Y-101750000D02*
X156000000Y-101750000D01*
%TO.N,Net-(SW1-B)*%
X160750000Y-90452500D02*
X160250000Y-89952500D01*
X160250000Y-88250000D02*
X160250000Y-89952500D01*
X160750000Y-94500000D02*
X160750000Y-90452500D01*
X151500000Y-87250000D02*
X159250000Y-87250000D01*
X134590000Y-78880000D02*
X140171522Y-84461522D01*
X140171522Y-84461522D02*
X148711522Y-84461522D01*
X159250000Y-87250000D02*
X160250000Y-88250000D01*
X148711522Y-84461522D02*
X151500000Y-87250000D01*
%TO.N,Net-(U1-SRCLK)*%
X173500000Y-78500000D02*
X173500000Y-85000000D01*
X173500000Y-85000000D02*
X173500000Y-88710000D01*
%TO.N,Net-(U1-~{SRCLR})*%
X168460000Y-88710000D02*
X169000000Y-88710000D01*
X164750000Y-85000000D02*
X168460000Y-88710000D01*
X164750000Y-85000000D02*
X164750000Y-78500000D01*
%TO.N,Net-(U1-RCLK)*%
X155500000Y-85000000D02*
X155500000Y-78500000D01*
X151790000Y-77500000D02*
X152500000Y-78210000D01*
X152500000Y-78210000D02*
X155210000Y-78210000D01*
X155210000Y-78210000D02*
X155500000Y-78500000D01*
X139670000Y-78880000D02*
X141050000Y-77500000D01*
X141050000Y-77500000D02*
X151790000Y-77500000D01*
%TD*%
%TA.AperFunction,Conductor*%
%TO.N,+5V*%
G36*
X151242539Y-78120185D02*
G01*
X151288294Y-78172989D01*
X151299500Y-78224500D01*
X151299500Y-78304486D01*
X151329059Y-78491118D01*
X151387454Y-78670836D01*
X151458617Y-78810500D01*
X151473240Y-78839199D01*
X151584310Y-78992073D01*
X151717927Y-79125690D01*
X151870801Y-79236760D01*
X151902166Y-79252741D01*
X152039163Y-79322545D01*
X152039165Y-79322545D01*
X152039168Y-79322547D01*
X152135497Y-79353846D01*
X152218881Y-79380940D01*
X152405514Y-79410500D01*
X152405519Y-79410500D01*
X152594486Y-79410500D01*
X152781118Y-79380940D01*
X152817545Y-79369104D01*
X152960832Y-79322547D01*
X153129199Y-79236760D01*
X153282073Y-79125690D01*
X153415690Y-78992073D01*
X153510475Y-78861613D01*
X153565804Y-78818949D01*
X153610792Y-78810500D01*
X153933077Y-78810500D01*
X154000116Y-78830185D01*
X154045871Y-78882989D01*
X154051007Y-78896181D01*
X154109432Y-79075992D01*
X154216657Y-79286433D01*
X154355483Y-79477510D01*
X154522490Y-79644517D01*
X154630042Y-79722658D01*
X154713568Y-79783344D01*
X154788177Y-79821358D01*
X154831794Y-79843582D01*
X154882590Y-79891556D01*
X154899500Y-79954067D01*
X154899500Y-83545931D01*
X154879815Y-83612970D01*
X154831796Y-83656415D01*
X154713568Y-83716655D01*
X154630044Y-83777340D01*
X154522490Y-83855483D01*
X154522488Y-83855485D01*
X154522487Y-83855485D01*
X154355485Y-84022487D01*
X154355485Y-84022488D01*
X154355483Y-84022490D01*
X154319459Y-84072073D01*
X154216657Y-84213566D01*
X154109433Y-84424003D01*
X154036446Y-84648631D01*
X153999500Y-84881902D01*
X153999500Y-85118097D01*
X154036446Y-85351368D01*
X154109433Y-85575996D01*
X154179022Y-85712570D01*
X154216657Y-85786433D01*
X154355483Y-85977510D01*
X154522490Y-86144517D01*
X154713567Y-86283343D01*
X154812991Y-86334002D01*
X154924003Y-86390566D01*
X154924005Y-86390566D01*
X154924008Y-86390568D01*
X154976334Y-86407569D01*
X155034008Y-86447007D01*
X155061206Y-86511366D01*
X155049291Y-86580212D01*
X155002047Y-86631688D01*
X154938014Y-86649500D01*
X151800097Y-86649500D01*
X151733058Y-86629815D01*
X151712416Y-86613181D01*
X149199112Y-84099877D01*
X149199110Y-84099874D01*
X149080239Y-83981003D01*
X149080238Y-83981002D01*
X148973192Y-83919199D01*
X148973190Y-83919198D01*
X148943307Y-83901945D01*
X148943306Y-83901944D01*
X148943305Y-83901944D01*
X148887403Y-83886965D01*
X148790579Y-83861021D01*
X148632465Y-83861021D01*
X148624869Y-83861021D01*
X148624853Y-83861022D01*
X140471619Y-83861022D01*
X140404580Y-83841337D01*
X140383938Y-83824703D01*
X139754748Y-83195513D01*
X151299500Y-83195513D01*
X151299500Y-83384486D01*
X151329059Y-83571118D01*
X151387454Y-83750836D01*
X151433567Y-83841337D01*
X151473240Y-83919199D01*
X151584310Y-84072073D01*
X151717927Y-84205690D01*
X151870801Y-84316760D01*
X151950347Y-84357290D01*
X152039163Y-84402545D01*
X152039165Y-84402545D01*
X152039168Y-84402547D01*
X152135497Y-84433846D01*
X152218881Y-84460940D01*
X152405514Y-84490500D01*
X152405519Y-84490500D01*
X152594486Y-84490500D01*
X152781118Y-84460940D01*
X152960832Y-84402547D01*
X153129199Y-84316760D01*
X153282073Y-84205690D01*
X153415690Y-84072073D01*
X153526760Y-83919199D01*
X153612547Y-83750832D01*
X153670940Y-83571118D01*
X153676431Y-83536447D01*
X153700500Y-83384486D01*
X153700500Y-83195513D01*
X153670940Y-83008881D01*
X153612545Y-82829163D01*
X153526759Y-82660800D01*
X153415690Y-82507927D01*
X153282073Y-82374310D01*
X153129199Y-82263240D01*
X152960836Y-82177454D01*
X152781118Y-82119059D01*
X152594486Y-82089500D01*
X152594481Y-82089500D01*
X152405519Y-82089500D01*
X152405514Y-82089500D01*
X152218881Y-82119059D01*
X152039163Y-82177454D01*
X151870800Y-82263240D01*
X151783579Y-82326610D01*
X151717927Y-82374310D01*
X151717925Y-82374312D01*
X151717924Y-82374312D01*
X151584312Y-82507924D01*
X151584312Y-82507925D01*
X151584310Y-82507927D01*
X151536610Y-82573579D01*
X151473240Y-82660800D01*
X151387454Y-82829163D01*
X151329059Y-83008881D01*
X151299500Y-83195513D01*
X139754748Y-83195513D01*
X136950916Y-80391681D01*
X136917431Y-80330358D01*
X136922415Y-80260666D01*
X136964287Y-80204733D01*
X137029751Y-80180316D01*
X137038597Y-80180000D01*
X137232317Y-80180000D01*
X137434417Y-80147990D01*
X137629031Y-80084755D01*
X137811349Y-79991859D01*
X137855921Y-79959474D01*
X137176446Y-79280000D01*
X137182661Y-79280000D01*
X137284394Y-79252741D01*
X137375606Y-79200080D01*
X137450080Y-79125606D01*
X137502741Y-79034394D01*
X137530000Y-78932661D01*
X137530000Y-78926447D01*
X138209474Y-79605921D01*
X138241861Y-79561347D01*
X138241861Y-79561346D01*
X138289234Y-79468371D01*
X138337208Y-79417575D01*
X138405028Y-79400779D01*
X138471164Y-79423316D01*
X138510203Y-79468369D01*
X138557713Y-79561611D01*
X138678028Y-79727213D01*
X138822786Y-79871971D01*
X138977749Y-79984556D01*
X138988390Y-79992287D01*
X139104607Y-80051503D01*
X139170776Y-80085218D01*
X139170778Y-80085218D01*
X139170781Y-80085220D01*
X139275137Y-80119127D01*
X139365465Y-80148477D01*
X139466557Y-80164488D01*
X139567648Y-80180500D01*
X139567649Y-80180500D01*
X139772351Y-80180500D01*
X139772352Y-80180500D01*
X139974534Y-80148477D01*
X140169219Y-80085220D01*
X140351610Y-79992287D01*
X140444590Y-79924732D01*
X140517213Y-79871971D01*
X140517215Y-79871968D01*
X140517219Y-79871966D01*
X140661966Y-79727219D01*
X140661968Y-79727215D01*
X140661971Y-79727213D01*
X140782284Y-79561614D01*
X140782286Y-79561611D01*
X140782287Y-79561610D01*
X140829516Y-79468917D01*
X140877489Y-79418123D01*
X140945310Y-79401328D01*
X141011445Y-79423865D01*
X141050483Y-79468917D01*
X141054863Y-79477512D01*
X141097715Y-79561614D01*
X141218028Y-79727213D01*
X141362786Y-79871971D01*
X141517749Y-79984556D01*
X141528390Y-79992287D01*
X141644607Y-80051503D01*
X141710776Y-80085218D01*
X141710778Y-80085218D01*
X141710781Y-80085220D01*
X141815137Y-80119127D01*
X141905465Y-80148477D01*
X142006557Y-80164488D01*
X142107648Y-80180500D01*
X142107649Y-80180500D01*
X142312351Y-80180500D01*
X142312352Y-80180500D01*
X142514534Y-80148477D01*
X142709219Y-80085220D01*
X142891610Y-79992287D01*
X142984590Y-79924732D01*
X143057213Y-79871971D01*
X143057215Y-79871968D01*
X143057219Y-79871966D01*
X143201966Y-79727219D01*
X143201968Y-79727215D01*
X143201971Y-79727213D01*
X143322284Y-79561614D01*
X143322286Y-79561611D01*
X143322287Y-79561610D01*
X143369516Y-79468917D01*
X143417489Y-79418123D01*
X143485310Y-79401328D01*
X143551445Y-79423865D01*
X143590483Y-79468917D01*
X143594863Y-79477512D01*
X143637715Y-79561614D01*
X143758028Y-79727213D01*
X143902786Y-79871971D01*
X144057749Y-79984556D01*
X144068390Y-79992287D01*
X144184607Y-80051503D01*
X144250776Y-80085218D01*
X144250778Y-80085218D01*
X144250781Y-80085220D01*
X144355137Y-80119127D01*
X144445465Y-80148477D01*
X144546557Y-80164488D01*
X144647648Y-80180500D01*
X144647649Y-80180500D01*
X144852351Y-80180500D01*
X144852352Y-80180500D01*
X145054534Y-80148477D01*
X145249219Y-80085220D01*
X145431610Y-79992287D01*
X145524590Y-79924732D01*
X145597213Y-79871971D01*
X145597215Y-79871968D01*
X145597219Y-79871966D01*
X145741966Y-79727219D01*
X145741968Y-79727215D01*
X145741971Y-79727213D01*
X145862284Y-79561614D01*
X145862286Y-79561611D01*
X145862287Y-79561610D01*
X145909516Y-79468917D01*
X145957489Y-79418123D01*
X146025310Y-79401328D01*
X146091445Y-79423865D01*
X146130483Y-79468917D01*
X146134863Y-79477512D01*
X146177715Y-79561614D01*
X146298028Y-79727213D01*
X146442786Y-79871971D01*
X146597749Y-79984556D01*
X146608390Y-79992287D01*
X146724607Y-80051503D01*
X146790776Y-80085218D01*
X146790778Y-80085218D01*
X146790781Y-80085220D01*
X146895137Y-80119127D01*
X146985465Y-80148477D01*
X147086557Y-80164488D01*
X147187648Y-80180500D01*
X147187649Y-80180500D01*
X147392351Y-80180500D01*
X147392352Y-80180500D01*
X147594534Y-80148477D01*
X147789219Y-80085220D01*
X147971610Y-79992287D01*
X148064590Y-79924732D01*
X148137213Y-79871971D01*
X148137215Y-79871968D01*
X148137219Y-79871966D01*
X148281966Y-79727219D01*
X148281968Y-79727215D01*
X148281971Y-79727213D01*
X148342054Y-79644514D01*
X148402287Y-79561610D01*
X148495220Y-79379219D01*
X148558477Y-79184534D01*
X148590500Y-78982352D01*
X148590500Y-78777648D01*
X148582257Y-78725606D01*
X148558477Y-78575465D01*
X148510429Y-78427591D01*
X148495220Y-78380781D01*
X148495217Y-78380776D01*
X148495216Y-78380771D01*
X148444275Y-78280795D01*
X148431378Y-78212126D01*
X148457654Y-78147386D01*
X148514760Y-78107128D01*
X148554759Y-78100500D01*
X151175500Y-78100500D01*
X151242539Y-78120185D01*
G37*
%TD.AperFunction*%
%TA.AperFunction,Conductor*%
G36*
X187192539Y-75270185D02*
G01*
X187238294Y-75322989D01*
X187249500Y-75374500D01*
X187249500Y-115875500D01*
X187229815Y-115942539D01*
X187177011Y-115988294D01*
X187125500Y-115999500D01*
X123124500Y-115999500D01*
X123057461Y-115979815D01*
X123011706Y-115927011D01*
X123000500Y-115875500D01*
X123000500Y-110553839D01*
X125783213Y-110553839D01*
X125783213Y-110774282D01*
X125817698Y-110992013D01*
X125885816Y-111201664D01*
X125885817Y-111201667D01*
X125952362Y-111332265D01*
X125974949Y-111376595D01*
X125985900Y-111398086D01*
X126115465Y-111576419D01*
X126115469Y-111576424D01*
X126165641Y-111626596D01*
X126199126Y-111687919D01*
X126194142Y-111757611D01*
X126152270Y-111813544D01*
X126121294Y-111830459D01*
X126041382Y-111860264D01*
X126041377Y-111860267D01*
X125926168Y-111946513D01*
X125926165Y-111946516D01*
X125839919Y-112061725D01*
X125839915Y-112061732D01*
X125789621Y-112196578D01*
X125785900Y-112231196D01*
X125783214Y-112256184D01*
X125783213Y-112256196D01*
X125783213Y-114151931D01*
X125783214Y-114151937D01*
X125789621Y-114211544D01*
X125839915Y-114346389D01*
X125839919Y-114346396D01*
X125926165Y-114461605D01*
X125926168Y-114461608D01*
X126041377Y-114547854D01*
X126041384Y-114547858D01*
X126176230Y-114598152D01*
X126176229Y-114598152D01*
X126183157Y-114598896D01*
X126235840Y-114604561D01*
X128131585Y-114604560D01*
X128191196Y-114598152D01*
X128326044Y-114547857D01*
X128441259Y-114461607D01*
X128527509Y-114346392D01*
X128577804Y-114211544D01*
X128584213Y-114151934D01*
X128584212Y-112256189D01*
X128577804Y-112196578D01*
X128568479Y-112171577D01*
X128527510Y-112061732D01*
X128527506Y-112061725D01*
X128441260Y-111946516D01*
X128441257Y-111946513D01*
X128326048Y-111860267D01*
X128326041Y-111860263D01*
X128246132Y-111830459D01*
X128190198Y-111788588D01*
X128165781Y-111723123D01*
X128180633Y-111654850D01*
X128201782Y-111626598D01*
X128251955Y-111576426D01*
X128381528Y-111398083D01*
X128481608Y-111201667D01*
X128482593Y-111198637D01*
X128500157Y-111144579D01*
X128549728Y-110992012D01*
X128584213Y-110774283D01*
X128584213Y-110553839D01*
X128549728Y-110336110D01*
X128508294Y-110208588D01*
X128481609Y-110126457D01*
X128481608Y-110126454D01*
X128431056Y-110027242D01*
X128381528Y-109930039D01*
X128342597Y-109876455D01*
X128251960Y-109751702D01*
X128251956Y-109751697D01*
X128236819Y-109736560D01*
X128203334Y-109675237D01*
X128200500Y-109648879D01*
X128200500Y-100900791D01*
X128220185Y-100833752D01*
X128251612Y-100800475D01*
X128382073Y-100705690D01*
X128515690Y-100572073D01*
X128626760Y-100419199D01*
X128712547Y-100250832D01*
X128770940Y-100071118D01*
X128779029Y-100020044D01*
X128800500Y-99884486D01*
X128800500Y-99695513D01*
X129549500Y-99695513D01*
X129549500Y-99884486D01*
X129579059Y-100071118D01*
X129637454Y-100250836D01*
X129689169Y-100352331D01*
X129723240Y-100419199D01*
X129834310Y-100572073D01*
X129967927Y-100705690D01*
X130120801Y-100816760D01*
X130197427Y-100855803D01*
X130289163Y-100902545D01*
X130289165Y-100902545D01*
X130289168Y-100902547D01*
X130379150Y-100931784D01*
X130468881Y-100960940D01*
X130655514Y-100990500D01*
X130655519Y-100990500D01*
X130844486Y-100990500D01*
X130961017Y-100972042D01*
X131003753Y-100965274D01*
X131073045Y-100974228D01*
X131110831Y-101000066D01*
X134796894Y-104686129D01*
X134830379Y-104747452D01*
X134833213Y-104773810D01*
X134833213Y-109322225D01*
X134813528Y-109389264D01*
X134765509Y-109432709D01*
X134699689Y-109466246D01*
X134521354Y-109595813D01*
X134521349Y-109595817D01*
X134365469Y-109751697D01*
X134365465Y-109751702D01*
X134235900Y-109930035D01*
X134135817Y-110126454D01*
X134135816Y-110126457D01*
X134067698Y-110336108D01*
X134033213Y-110553839D01*
X134033213Y-110774282D01*
X134067698Y-110992013D01*
X134135816Y-111201664D01*
X134135817Y-111201667D01*
X134202362Y-111332265D01*
X134224949Y-111376595D01*
X134235900Y-111398086D01*
X134365465Y-111576419D01*
X134365469Y-111576424D01*
X134415641Y-111626596D01*
X134449126Y-111687919D01*
X134444142Y-111757611D01*
X134402270Y-111813544D01*
X134371294Y-111830459D01*
X134291382Y-111860264D01*
X134291377Y-111860267D01*
X134176168Y-111946513D01*
X134176165Y-111946516D01*
X134089919Y-112061725D01*
X134089915Y-112061732D01*
X134039621Y-112196578D01*
X134035900Y-112231196D01*
X134033214Y-112256184D01*
X134033213Y-112256196D01*
X134033213Y-114151931D01*
X134033214Y-114151937D01*
X134039621Y-114211544D01*
X134089915Y-114346389D01*
X134089919Y-114346396D01*
X134176165Y-114461605D01*
X134176168Y-114461608D01*
X134291377Y-114547854D01*
X134291384Y-114547858D01*
X134426230Y-114598152D01*
X134426229Y-114598152D01*
X134433157Y-114598896D01*
X134485840Y-114604561D01*
X136381585Y-114604560D01*
X136441196Y-114598152D01*
X136576044Y-114547857D01*
X136691259Y-114461607D01*
X136777509Y-114346392D01*
X136827804Y-114211544D01*
X136834213Y-114151934D01*
X136834212Y-112256189D01*
X136827804Y-112196578D01*
X136818479Y-112171577D01*
X136777510Y-112061732D01*
X136777506Y-112061725D01*
X136691260Y-111946516D01*
X136691257Y-111946513D01*
X136576048Y-111860267D01*
X136576041Y-111860263D01*
X136496132Y-111830459D01*
X136440198Y-111788588D01*
X136415781Y-111723123D01*
X136430633Y-111654850D01*
X136451782Y-111626598D01*
X136501955Y-111576426D01*
X136631528Y-111398083D01*
X136731608Y-111201667D01*
X136732593Y-111198637D01*
X136750157Y-111144579D01*
X136799728Y-110992012D01*
X136834213Y-110774283D01*
X136834213Y-110553839D01*
X136799728Y-110336110D01*
X136758294Y-110208588D01*
X136731609Y-110126457D01*
X136731608Y-110126454D01*
X136681056Y-110027242D01*
X136631528Y-109930039D01*
X136592597Y-109876455D01*
X136501960Y-109751702D01*
X136501956Y-109751697D01*
X136346076Y-109595817D01*
X136346071Y-109595813D01*
X136167736Y-109466246D01*
X136101917Y-109432709D01*
X136051122Y-109384735D01*
X136034213Y-109322225D01*
X136034213Y-104394658D01*
X136034213Y-104394656D01*
X135993290Y-104241929D01*
X135962050Y-104187819D01*
X135914237Y-104105003D01*
X135914234Y-104104999D01*
X135914233Y-104104997D01*
X135802429Y-103993193D01*
X135802428Y-103993192D01*
X135798098Y-103988862D01*
X135798087Y-103988852D01*
X131960066Y-100150831D01*
X131926581Y-100089508D01*
X131925274Y-100043752D01*
X131925737Y-100040832D01*
X131940859Y-99945352D01*
X131950500Y-99884486D01*
X131950500Y-99695513D01*
X132699500Y-99695513D01*
X132699500Y-99884486D01*
X132729059Y-100071118D01*
X132787454Y-100250836D01*
X132839169Y-100352331D01*
X132873240Y-100419199D01*
X132984310Y-100572073D01*
X133117927Y-100705690D01*
X133270801Y-100816760D01*
X133347427Y-100855803D01*
X133439163Y-100902545D01*
X133439165Y-100902545D01*
X133439168Y-100902547D01*
X133529150Y-100931784D01*
X133618881Y-100960940D01*
X133805514Y-100990500D01*
X133805519Y-100990500D01*
X133994486Y-100990500D01*
X134111017Y-100972042D01*
X134153753Y-100965274D01*
X134223045Y-100974228D01*
X134260831Y-101000066D01*
X142906971Y-109646206D01*
X142940456Y-109707529D01*
X142935472Y-109777221D01*
X142929775Y-109790181D01*
X142885820Y-109876448D01*
X142885816Y-109876457D01*
X142817698Y-110086108D01*
X142783213Y-110303839D01*
X142783213Y-110524282D01*
X142817698Y-110742013D01*
X142885816Y-110951664D01*
X142885817Y-110951667D01*
X142914018Y-111007013D01*
X142971377Y-111119585D01*
X142985900Y-111148086D01*
X143115465Y-111326419D01*
X143115469Y-111326424D01*
X143165641Y-111376596D01*
X143199126Y-111437919D01*
X143194142Y-111507611D01*
X143152270Y-111563544D01*
X143121294Y-111580459D01*
X143041382Y-111610264D01*
X143041377Y-111610267D01*
X142926168Y-111696513D01*
X142926165Y-111696516D01*
X142839919Y-111811725D01*
X142839915Y-111811732D01*
X142789621Y-111946578D01*
X142783214Y-112006177D01*
X142783214Y-112006184D01*
X142783213Y-112006196D01*
X142783213Y-113901931D01*
X142783214Y-113901937D01*
X142789621Y-113961544D01*
X142839915Y-114096389D01*
X142839919Y-114096396D01*
X142926165Y-114211605D01*
X142926168Y-114211608D01*
X143041377Y-114297854D01*
X143041384Y-114297858D01*
X143176230Y-114348152D01*
X143176229Y-114348152D01*
X143183157Y-114348896D01*
X143235840Y-114354561D01*
X145131585Y-114354560D01*
X145191196Y-114348152D01*
X145326044Y-114297857D01*
X145441259Y-114211607D01*
X145527509Y-114096392D01*
X145577804Y-113961544D01*
X145584213Y-113901934D01*
X145584212Y-112006189D01*
X145577804Y-111946578D01*
X145568456Y-111921516D01*
X145527510Y-111811732D01*
X145527506Y-111811725D01*
X145441260Y-111696516D01*
X145441257Y-111696513D01*
X145326048Y-111610267D01*
X145326041Y-111610263D01*
X145246132Y-111580459D01*
X145190198Y-111538588D01*
X145165781Y-111473123D01*
X145180633Y-111404850D01*
X145201782Y-111376598D01*
X145251955Y-111326426D01*
X145381528Y-111148083D01*
X145481608Y-110951667D01*
X145549728Y-110742012D01*
X145584213Y-110524283D01*
X145584213Y-110303839D01*
X145549728Y-110086110D01*
X145499017Y-109930035D01*
X145481609Y-109876457D01*
X145481608Y-109876454D01*
X145425682Y-109766696D01*
X145381528Y-109680039D01*
X145320335Y-109595813D01*
X145251960Y-109501702D01*
X145251956Y-109501697D01*
X145096076Y-109345817D01*
X145096071Y-109345813D01*
X144917738Y-109216248D01*
X144917737Y-109216247D01*
X144917735Y-109216246D01*
X144854809Y-109184183D01*
X144721319Y-109116165D01*
X144721316Y-109116164D01*
X144511665Y-109048046D01*
X144380856Y-109027328D01*
X144293935Y-109013561D01*
X144073491Y-109013561D01*
X144073489Y-109013561D01*
X144048963Y-109017445D01*
X143979670Y-109008488D01*
X143941887Y-108982652D01*
X135110066Y-100150831D01*
X135076581Y-100089508D01*
X135075274Y-100043752D01*
X135075737Y-100040832D01*
X135090859Y-99945352D01*
X135100500Y-99884486D01*
X135100500Y-99695513D01*
X135849500Y-99695513D01*
X135849500Y-99884486D01*
X135879059Y-100071118D01*
X135937454Y-100250836D01*
X135989169Y-100352331D01*
X136023240Y-100419199D01*
X136134310Y-100572073D01*
X136267927Y-100705690D01*
X136420801Y-100816760D01*
X136497427Y-100855803D01*
X136589163Y-100902545D01*
X136589165Y-100902545D01*
X136589168Y-100902547D01*
X136679150Y-100931784D01*
X136768881Y-100960940D01*
X136955514Y-100990500D01*
X136955519Y-100990500D01*
X137144486Y-100990500D01*
X137261017Y-100972042D01*
X137303753Y-100965274D01*
X137373045Y-100974228D01*
X137410830Y-101000065D01*
X147555345Y-111144581D01*
X147555347Y-111144582D01*
X147555351Y-111144585D01*
X147680203Y-111216667D01*
X147692277Y-111223638D01*
X147845004Y-111264562D01*
X147845006Y-111264562D01*
X148010715Y-111264562D01*
X148010731Y-111264561D01*
X150841877Y-111264561D01*
X150908916Y-111284246D01*
X150952361Y-111332265D01*
X150985898Y-111398084D01*
X151115465Y-111576419D01*
X151115469Y-111576424D01*
X151165641Y-111626596D01*
X151199126Y-111687919D01*
X151194142Y-111757611D01*
X151152270Y-111813544D01*
X151121294Y-111830459D01*
X151041382Y-111860264D01*
X151041377Y-111860267D01*
X150926168Y-111946513D01*
X150926165Y-111946516D01*
X150839919Y-112061725D01*
X150839915Y-112061732D01*
X150789621Y-112196578D01*
X150785900Y-112231196D01*
X150783214Y-112256184D01*
X150783213Y-112256196D01*
X150783213Y-114151931D01*
X150783214Y-114151937D01*
X150789621Y-114211544D01*
X150839915Y-114346389D01*
X150839919Y-114346396D01*
X150926165Y-114461605D01*
X150926168Y-114461608D01*
X151041377Y-114547854D01*
X151041384Y-114547858D01*
X151176230Y-114598152D01*
X151176229Y-114598152D01*
X151183157Y-114598896D01*
X151235840Y-114604561D01*
X153131585Y-114604560D01*
X153191196Y-114598152D01*
X153326044Y-114547857D01*
X153441259Y-114461607D01*
X153527509Y-114346392D01*
X153577804Y-114211544D01*
X153584213Y-114151934D01*
X153584212Y-112256189D01*
X153577804Y-112196578D01*
X153568479Y-112171577D01*
X153527510Y-112061732D01*
X153527506Y-112061725D01*
X153441260Y-111946516D01*
X153441257Y-111946513D01*
X153326048Y-111860267D01*
X153326041Y-111860263D01*
X153246132Y-111830459D01*
X153190198Y-111788588D01*
X153165781Y-111723123D01*
X153180633Y-111654850D01*
X153201782Y-111626598D01*
X153251955Y-111576426D01*
X153381528Y-111398083D01*
X153481608Y-111201667D01*
X153482593Y-111198637D01*
X153500157Y-111144579D01*
X153549728Y-110992012D01*
X153584213Y-110774283D01*
X153584213Y-110553839D01*
X153549728Y-110336110D01*
X153508294Y-110208588D01*
X153481609Y-110126457D01*
X153481608Y-110126454D01*
X153431056Y-110027242D01*
X153381528Y-109930039D01*
X153342597Y-109876455D01*
X153251960Y-109751702D01*
X153251956Y-109751697D01*
X153096076Y-109595817D01*
X153096071Y-109595813D01*
X152917738Y-109466248D01*
X152917737Y-109466247D01*
X152917735Y-109466246D01*
X152851916Y-109432709D01*
X152721319Y-109366165D01*
X152721316Y-109366164D01*
X152511665Y-109298046D01*
X152388641Y-109278561D01*
X152293935Y-109263561D01*
X152073491Y-109263561D01*
X152013605Y-109273046D01*
X151855760Y-109298046D01*
X151646109Y-109366164D01*
X151646106Y-109366165D01*
X151449687Y-109466248D01*
X151271354Y-109595813D01*
X151271349Y-109595817D01*
X151115469Y-109751697D01*
X151115465Y-109751702D01*
X150985898Y-109930037D01*
X150952361Y-109995857D01*
X150904387Y-110046652D01*
X150841877Y-110063561D01*
X148224159Y-110063561D01*
X148157120Y-110043876D01*
X148136478Y-110027242D01*
X138260066Y-100150831D01*
X138226581Y-100089508D01*
X138225274Y-100043752D01*
X138225737Y-100040832D01*
X138240859Y-99945352D01*
X138250500Y-99884486D01*
X138250500Y-99695513D01*
X138999500Y-99695513D01*
X138999500Y-99884486D01*
X139029059Y-100071118D01*
X139087454Y-100250836D01*
X139139169Y-100352331D01*
X139173240Y-100419199D01*
X139284310Y-100572073D01*
X139417927Y-100705690D01*
X139570801Y-100816760D01*
X139647427Y-100855803D01*
X139739163Y-100902545D01*
X139739165Y-100902545D01*
X139739168Y-100902547D01*
X139829150Y-100931784D01*
X139918881Y-100960940D01*
X140105514Y-100990500D01*
X140105519Y-100990500D01*
X140294486Y-100990500D01*
X140411017Y-100972042D01*
X140453753Y-100965274D01*
X140523045Y-100974228D01*
X140560830Y-101000065D01*
X147541284Y-107980520D01*
X147541286Y-107980521D01*
X147541290Y-107980524D01*
X147678209Y-108059573D01*
X147678216Y-108059577D01*
X147830943Y-108100501D01*
X147830945Y-108100501D01*
X147996654Y-108100501D01*
X147996670Y-108100500D01*
X157204555Y-108100500D01*
X157271594Y-108120185D01*
X157292236Y-108136819D01*
X159310274Y-110154857D01*
X159343759Y-110216180D01*
X159340524Y-110280855D01*
X159317698Y-110351106D01*
X159283213Y-110568839D01*
X159283213Y-110789282D01*
X159317698Y-111007013D01*
X159385816Y-111216664D01*
X159385817Y-111216667D01*
X159485900Y-111413086D01*
X159615465Y-111591419D01*
X159615469Y-111591424D01*
X159665641Y-111641596D01*
X159699126Y-111702919D01*
X159694142Y-111772611D01*
X159652270Y-111828544D01*
X159621294Y-111845459D01*
X159541382Y-111875264D01*
X159541377Y-111875267D01*
X159426168Y-111961513D01*
X159426165Y-111961516D01*
X159339919Y-112076725D01*
X159339915Y-112076732D01*
X159289621Y-112211578D01*
X159283214Y-112271177D01*
X159283214Y-112271184D01*
X159283213Y-112271196D01*
X159283213Y-114166931D01*
X159283214Y-114166937D01*
X159289621Y-114226544D01*
X159339915Y-114361389D01*
X159339919Y-114361396D01*
X159426165Y-114476605D01*
X159426168Y-114476608D01*
X159541377Y-114562854D01*
X159541384Y-114562858D01*
X159676230Y-114613152D01*
X159676229Y-114613152D01*
X159683157Y-114613896D01*
X159735840Y-114619561D01*
X161631585Y-114619560D01*
X161691196Y-114613152D01*
X161826044Y-114562857D01*
X161941259Y-114476607D01*
X162027509Y-114361392D01*
X162077804Y-114226544D01*
X162084213Y-114166934D01*
X162084212Y-112271189D01*
X162077804Y-112211578D01*
X162072209Y-112196578D01*
X162027510Y-112076732D01*
X162027506Y-112076725D01*
X161941260Y-111961516D01*
X161941257Y-111961513D01*
X161826048Y-111875267D01*
X161826041Y-111875263D01*
X161746132Y-111845459D01*
X161690198Y-111803588D01*
X161665781Y-111738123D01*
X161680633Y-111669850D01*
X161701782Y-111641598D01*
X161751955Y-111591426D01*
X161881528Y-111413083D01*
X161981608Y-111216667D01*
X162049728Y-111007012D01*
X162084213Y-110789283D01*
X162084213Y-110568839D01*
X162049728Y-110351110D01*
X161981608Y-110141455D01*
X161981608Y-110141454D01*
X161923413Y-110027242D01*
X161881528Y-109945039D01*
X161864973Y-109922253D01*
X161751960Y-109766702D01*
X161751956Y-109766697D01*
X161596076Y-109610817D01*
X161596071Y-109610813D01*
X161417738Y-109481248D01*
X161417737Y-109481247D01*
X161417735Y-109481246D01*
X161354809Y-109449183D01*
X161221319Y-109381165D01*
X161221316Y-109381164D01*
X161011665Y-109313046D01*
X160877819Y-109291847D01*
X160793935Y-109278561D01*
X160573491Y-109278561D01*
X160529945Y-109285458D01*
X160355758Y-109313046D01*
X160285507Y-109335872D01*
X160215666Y-109337867D01*
X160159509Y-109305622D01*
X157992242Y-107138355D01*
X157992240Y-107138352D01*
X157873369Y-107019481D01*
X157873368Y-107019480D01*
X157786556Y-106969360D01*
X157786556Y-106969359D01*
X157786552Y-106969358D01*
X157736437Y-106940423D01*
X157583709Y-106899499D01*
X157425595Y-106899499D01*
X157417999Y-106899499D01*
X157417983Y-106899500D01*
X148210098Y-106899500D01*
X148143059Y-106879815D01*
X148122417Y-106863181D01*
X141410066Y-100150831D01*
X141376581Y-100089508D01*
X141375274Y-100043752D01*
X141375737Y-100040832D01*
X141390859Y-99945352D01*
X141400500Y-99884486D01*
X141400500Y-99695513D01*
X142149500Y-99695513D01*
X142149500Y-99884486D01*
X142179059Y-100071118D01*
X142237454Y-100250836D01*
X142289169Y-100352331D01*
X142323240Y-100419199D01*
X142434310Y-100572073D01*
X142567927Y-100705690D01*
X142720801Y-100816760D01*
X142797427Y-100855803D01*
X142889163Y-100902545D01*
X142889165Y-100902545D01*
X142889168Y-100902547D01*
X142979150Y-100931784D01*
X143068881Y-100960940D01*
X143255514Y-100990500D01*
X143255519Y-100990500D01*
X143444486Y-100990500D01*
X143561017Y-100972042D01*
X143603753Y-100965274D01*
X143673045Y-100974228D01*
X143710831Y-101000066D01*
X149075139Y-106364374D01*
X149075149Y-106364385D01*
X149079479Y-106368715D01*
X149079480Y-106368716D01*
X149191284Y-106480520D01*
X149258767Y-106519481D01*
X149328215Y-106559577D01*
X149480942Y-106600500D01*
X149480943Y-106600500D01*
X163244555Y-106600500D01*
X163311594Y-106620185D01*
X163332236Y-106636819D01*
X166810274Y-110114857D01*
X166843759Y-110176180D01*
X166840524Y-110240855D01*
X166817698Y-110311106D01*
X166783935Y-110524282D01*
X166783213Y-110528839D01*
X166783213Y-110749283D01*
X166787173Y-110774283D01*
X166817698Y-110967013D01*
X166885816Y-111176664D01*
X166885817Y-111176667D01*
X166985900Y-111373086D01*
X167115465Y-111551419D01*
X167115469Y-111551424D01*
X167165641Y-111601596D01*
X167199126Y-111662919D01*
X167194142Y-111732611D01*
X167152270Y-111788544D01*
X167121294Y-111805459D01*
X167041382Y-111835264D01*
X167041377Y-111835267D01*
X166926168Y-111921513D01*
X166926165Y-111921516D01*
X166839919Y-112036725D01*
X166839915Y-112036732D01*
X166789621Y-112171578D01*
X166785321Y-112211577D01*
X166783214Y-112231184D01*
X166783213Y-112231196D01*
X166783213Y-114126931D01*
X166783214Y-114126937D01*
X166789621Y-114186544D01*
X166839915Y-114321389D01*
X166839919Y-114321396D01*
X166926165Y-114436605D01*
X166926168Y-114436608D01*
X167041377Y-114522854D01*
X167041384Y-114522858D01*
X167176230Y-114573152D01*
X167176229Y-114573152D01*
X167183157Y-114573896D01*
X167235840Y-114579561D01*
X169131585Y-114579560D01*
X169191196Y-114573152D01*
X169326044Y-114522857D01*
X169441259Y-114436607D01*
X169527509Y-114321392D01*
X169577804Y-114186544D01*
X169584213Y-114126934D01*
X169584212Y-112231189D01*
X169577804Y-112171578D01*
X169536833Y-112061730D01*
X169527510Y-112036732D01*
X169527506Y-112036725D01*
X169441260Y-111921516D01*
X169441257Y-111921513D01*
X169326048Y-111835267D01*
X169326041Y-111835263D01*
X169246132Y-111805459D01*
X169190198Y-111763588D01*
X169165781Y-111698123D01*
X169180633Y-111629850D01*
X169201782Y-111601598D01*
X169251955Y-111551426D01*
X169381528Y-111373083D01*
X169481608Y-111176667D01*
X169549728Y-110967012D01*
X169584213Y-110749283D01*
X169584213Y-110528839D01*
X169549728Y-110311110D01*
X169481608Y-110101455D01*
X169481608Y-110101454D01*
X169431056Y-110002242D01*
X169381528Y-109905039D01*
X169360756Y-109876448D01*
X169251960Y-109726702D01*
X169251956Y-109726697D01*
X169096076Y-109570817D01*
X169096071Y-109570813D01*
X168917738Y-109441248D01*
X168917737Y-109441247D01*
X168917735Y-109441246D01*
X168815716Y-109389264D01*
X168721319Y-109341165D01*
X168721316Y-109341164D01*
X168511665Y-109273046D01*
X168402799Y-109255803D01*
X168293935Y-109238561D01*
X168073491Y-109238561D01*
X168029945Y-109245458D01*
X167855758Y-109273046D01*
X167785507Y-109295872D01*
X167715666Y-109297867D01*
X167659509Y-109265622D01*
X164206068Y-105812181D01*
X164172583Y-105750858D01*
X164177567Y-105681166D01*
X164219439Y-105625233D01*
X164284903Y-105600816D01*
X164293749Y-105600500D01*
X167449903Y-105600500D01*
X167516942Y-105620185D01*
X167537583Y-105636818D01*
X173020345Y-111119581D01*
X173020347Y-111119582D01*
X173020351Y-111119585D01*
X173157270Y-111198634D01*
X173157277Y-111198638D01*
X173310004Y-111239562D01*
X173310006Y-111239562D01*
X173475715Y-111239562D01*
X173475731Y-111239561D01*
X174341877Y-111239561D01*
X174408916Y-111259246D01*
X174452361Y-111307265D01*
X174485898Y-111373084D01*
X174615465Y-111551419D01*
X174615469Y-111551424D01*
X174665641Y-111601596D01*
X174699126Y-111662919D01*
X174694142Y-111732611D01*
X174652270Y-111788544D01*
X174621294Y-111805459D01*
X174541382Y-111835264D01*
X174541377Y-111835267D01*
X174426168Y-111921513D01*
X174426165Y-111921516D01*
X174339919Y-112036725D01*
X174339915Y-112036732D01*
X174289621Y-112171578D01*
X174285321Y-112211577D01*
X174283214Y-112231184D01*
X174283213Y-112231196D01*
X174283213Y-114126931D01*
X174283214Y-114126937D01*
X174289621Y-114186544D01*
X174339915Y-114321389D01*
X174339919Y-114321396D01*
X174426165Y-114436605D01*
X174426168Y-114436608D01*
X174541377Y-114522854D01*
X174541384Y-114522858D01*
X174676230Y-114573152D01*
X174676229Y-114573152D01*
X174683157Y-114573896D01*
X174735840Y-114579561D01*
X176631585Y-114579560D01*
X176691196Y-114573152D01*
X176826044Y-114522857D01*
X176941259Y-114436607D01*
X177027509Y-114321392D01*
X177077804Y-114186544D01*
X177084213Y-114126934D01*
X177084212Y-112231189D01*
X177077804Y-112171578D01*
X177036833Y-112061730D01*
X177027510Y-112036732D01*
X177027506Y-112036725D01*
X176941260Y-111921516D01*
X176941257Y-111921513D01*
X176826048Y-111835267D01*
X176826041Y-111835263D01*
X176746132Y-111805459D01*
X176690198Y-111763588D01*
X176665781Y-111698123D01*
X176680633Y-111629850D01*
X176701782Y-111601598D01*
X176751955Y-111551426D01*
X176881528Y-111373083D01*
X176981608Y-111176667D01*
X177049728Y-110967012D01*
X177084213Y-110749283D01*
X177084213Y-110528839D01*
X177049728Y-110311110D01*
X176981608Y-110101455D01*
X176981608Y-110101454D01*
X176931056Y-110002242D01*
X176881528Y-109905039D01*
X176860756Y-109876448D01*
X176751960Y-109726702D01*
X176751956Y-109726697D01*
X176596076Y-109570817D01*
X176596071Y-109570813D01*
X176417738Y-109441248D01*
X176417737Y-109441247D01*
X176417735Y-109441246D01*
X176315716Y-109389264D01*
X176221319Y-109341165D01*
X176221316Y-109341164D01*
X176011665Y-109273046D01*
X175902799Y-109255803D01*
X175793935Y-109238561D01*
X175573491Y-109238561D01*
X175500914Y-109250056D01*
X175355760Y-109273046D01*
X175146109Y-109341164D01*
X175146106Y-109341165D01*
X174949687Y-109441248D01*
X174771354Y-109570813D01*
X174771349Y-109570817D01*
X174615469Y-109726697D01*
X174615465Y-109726702D01*
X174485898Y-109905037D01*
X174452361Y-109970857D01*
X174404387Y-110021652D01*
X174341877Y-110038561D01*
X173689159Y-110038561D01*
X173622120Y-110018876D01*
X173601478Y-110002242D01*
X171411417Y-107812181D01*
X171377932Y-107750858D01*
X171382916Y-107681166D01*
X171424788Y-107625233D01*
X171490252Y-107600816D01*
X171499098Y-107600500D01*
X179494555Y-107600500D01*
X179561594Y-107620185D01*
X179582236Y-107636819D01*
X182060274Y-110114857D01*
X182093759Y-110176180D01*
X182090524Y-110240855D01*
X182067698Y-110311106D01*
X182033935Y-110524282D01*
X182033213Y-110528839D01*
X182033213Y-110749283D01*
X182037173Y-110774283D01*
X182067698Y-110967013D01*
X182135816Y-111176664D01*
X182135817Y-111176667D01*
X182235900Y-111373086D01*
X182365465Y-111551419D01*
X182365469Y-111551424D01*
X182415641Y-111601596D01*
X182449126Y-111662919D01*
X182444142Y-111732611D01*
X182402270Y-111788544D01*
X182371294Y-111805459D01*
X182291382Y-111835264D01*
X182291377Y-111835267D01*
X182176168Y-111921513D01*
X182176165Y-111921516D01*
X182089919Y-112036725D01*
X182089915Y-112036732D01*
X182039621Y-112171578D01*
X182035321Y-112211577D01*
X182033214Y-112231184D01*
X182033213Y-112231196D01*
X182033213Y-114126931D01*
X182033214Y-114126937D01*
X182039621Y-114186544D01*
X182089915Y-114321389D01*
X182089919Y-114321396D01*
X182176165Y-114436605D01*
X182176168Y-114436608D01*
X182291377Y-114522854D01*
X182291384Y-114522858D01*
X182426230Y-114573152D01*
X182426229Y-114573152D01*
X182433157Y-114573896D01*
X182485840Y-114579561D01*
X184381585Y-114579560D01*
X184441196Y-114573152D01*
X184576044Y-114522857D01*
X184691259Y-114436607D01*
X184777509Y-114321392D01*
X184827804Y-114186544D01*
X184834213Y-114126934D01*
X184834212Y-112231189D01*
X184827804Y-112171578D01*
X184786833Y-112061730D01*
X184777510Y-112036732D01*
X184777506Y-112036725D01*
X184691260Y-111921516D01*
X184691257Y-111921513D01*
X184576048Y-111835267D01*
X184576041Y-111835263D01*
X184496132Y-111805459D01*
X184440198Y-111763588D01*
X184415781Y-111698123D01*
X184430633Y-111629850D01*
X184451782Y-111601598D01*
X184501955Y-111551426D01*
X184631528Y-111373083D01*
X184731608Y-111176667D01*
X184799728Y-110967012D01*
X184834213Y-110749283D01*
X184834213Y-110528839D01*
X184799728Y-110311110D01*
X184731608Y-110101455D01*
X184731608Y-110101454D01*
X184681056Y-110002242D01*
X184631528Y-109905039D01*
X184610756Y-109876448D01*
X184501960Y-109726702D01*
X184501956Y-109726697D01*
X184346076Y-109570817D01*
X184346071Y-109570813D01*
X184167738Y-109441248D01*
X184167737Y-109441247D01*
X184167735Y-109441246D01*
X184065716Y-109389264D01*
X183971319Y-109341165D01*
X183971316Y-109341164D01*
X183761665Y-109273046D01*
X183652799Y-109255803D01*
X183543935Y-109238561D01*
X183323491Y-109238561D01*
X183279945Y-109245458D01*
X183105758Y-109273046D01*
X183035507Y-109295872D01*
X182965666Y-109297867D01*
X182909509Y-109265622D01*
X180282242Y-106638355D01*
X180282240Y-106638352D01*
X180163368Y-106519480D01*
X180163366Y-106519479D01*
X180076556Y-106469360D01*
X180076556Y-106469359D01*
X180076552Y-106469358D01*
X180026437Y-106440423D01*
X179873709Y-106399499D01*
X179715595Y-106399499D01*
X179707999Y-106399499D01*
X179707983Y-106399500D01*
X171300097Y-106399500D01*
X171233058Y-106379815D01*
X171212416Y-106363181D01*
X168737590Y-103888355D01*
X168737588Y-103888352D01*
X168618717Y-103769481D01*
X168618716Y-103769480D01*
X168531904Y-103719360D01*
X168531904Y-103719359D01*
X168531900Y-103719358D01*
X168481785Y-103690423D01*
X168329057Y-103649499D01*
X168170943Y-103649499D01*
X168163347Y-103649499D01*
X168163331Y-103649500D01*
X154300097Y-103649500D01*
X154233058Y-103629815D01*
X154212416Y-103613181D01*
X151251180Y-100651945D01*
X151217695Y-100590622D01*
X151218522Y-100579054D01*
X154149498Y-100579054D01*
X154189247Y-100727399D01*
X154190423Y-100731785D01*
X154217716Y-100779057D01*
X154251536Y-100837635D01*
X154269479Y-100868714D01*
X154269481Y-100868717D01*
X154388349Y-100987585D01*
X154388355Y-100987590D01*
X155515139Y-102114374D01*
X155515149Y-102114385D01*
X155519479Y-102118715D01*
X155519480Y-102118716D01*
X155631284Y-102230520D01*
X155718095Y-102280639D01*
X155718097Y-102280641D01*
X155756151Y-102302611D01*
X155768215Y-102309577D01*
X155920943Y-102350501D01*
X155920946Y-102350501D01*
X156086653Y-102350501D01*
X156086669Y-102350500D01*
X156158164Y-102350500D01*
X156225203Y-102370185D01*
X156268648Y-102418204D01*
X156302185Y-102484023D01*
X156431752Y-102662358D01*
X156431756Y-102662363D01*
X156587636Y-102818243D01*
X156587641Y-102818247D01*
X156743192Y-102931260D01*
X156765978Y-102947815D01*
X156894375Y-103013237D01*
X156962393Y-103047895D01*
X156962396Y-103047896D01*
X157067221Y-103081955D01*
X157172049Y-103116015D01*
X157389778Y-103150500D01*
X157389779Y-103150500D01*
X157610221Y-103150500D01*
X157610222Y-103150500D01*
X157827951Y-103116015D01*
X158037606Y-103047895D01*
X158234022Y-102947815D01*
X158412365Y-102818242D01*
X158568242Y-102662365D01*
X158697815Y-102484022D01*
X158797895Y-102287606D01*
X158866015Y-102077951D01*
X158900500Y-101860222D01*
X158900500Y-101639778D01*
X158866015Y-101422049D01*
X158797895Y-101212394D01*
X158797895Y-101212393D01*
X158760926Y-101139839D01*
X158697815Y-101015978D01*
X158620640Y-100909755D01*
X158568247Y-100837641D01*
X158568243Y-100837636D01*
X158518071Y-100787464D01*
X158501969Y-100757975D01*
X158485203Y-100728833D01*
X158485273Y-100727399D01*
X158484586Y-100726141D01*
X158486983Y-100692611D01*
X158488420Y-100663389D01*
X164399500Y-100663389D01*
X164399500Y-100836611D01*
X164404585Y-100868714D01*
X164425388Y-101000066D01*
X164426598Y-101007701D01*
X164480127Y-101172445D01*
X164558768Y-101326788D01*
X164660586Y-101466928D01*
X164783072Y-101589414D01*
X164923212Y-101691232D01*
X165077555Y-101769873D01*
X165242299Y-101823402D01*
X165413389Y-101850500D01*
X165413390Y-101850500D01*
X165586610Y-101850500D01*
X165586611Y-101850500D01*
X165757701Y-101823402D01*
X165922445Y-101769873D01*
X166076788Y-101691232D01*
X166083591Y-101686289D01*
X166917261Y-101686289D01*
X166917262Y-101686290D01*
X166923471Y-101690801D01*
X167077742Y-101769408D01*
X167242415Y-101822914D01*
X167413429Y-101850000D01*
X167586571Y-101850000D01*
X167757584Y-101822914D01*
X167922257Y-101769408D01*
X168076525Y-101690803D01*
X168082736Y-101686289D01*
X168082737Y-101686289D01*
X167500001Y-101103553D01*
X167500000Y-101103553D01*
X166917261Y-101686289D01*
X166083591Y-101686289D01*
X166216928Y-101589414D01*
X166339414Y-101466928D01*
X166405948Y-101375351D01*
X166409268Y-101371493D01*
X166434489Y-101355157D01*
X166458280Y-101336812D01*
X166464149Y-101335946D01*
X166467912Y-101333510D01*
X166480991Y-101333463D01*
X166512999Y-101328745D01*
X166563710Y-101332736D01*
X167146446Y-100750001D01*
X167146446Y-100749999D01*
X167106951Y-100710504D01*
X167200000Y-100710504D01*
X167200000Y-100789496D01*
X167220444Y-100865796D01*
X167259940Y-100934205D01*
X167315795Y-100990060D01*
X167384204Y-101029556D01*
X167460504Y-101050000D01*
X167539496Y-101050000D01*
X167615796Y-101029556D01*
X167684205Y-100990060D01*
X167740060Y-100934205D01*
X167779556Y-100865796D01*
X167800000Y-100789496D01*
X167800000Y-100749999D01*
X167853553Y-100749999D01*
X167853553Y-100750000D01*
X168436289Y-101332736D01*
X168440803Y-101326525D01*
X168519408Y-101172257D01*
X168572914Y-101007584D01*
X168600000Y-100836571D01*
X168600000Y-100663428D01*
X168572914Y-100492415D01*
X168519408Y-100327742D01*
X168440801Y-100173471D01*
X168436290Y-100167262D01*
X168436289Y-100167261D01*
X167853553Y-100749999D01*
X167800000Y-100749999D01*
X167800000Y-100710504D01*
X167779556Y-100634204D01*
X167740060Y-100565795D01*
X167684205Y-100509940D01*
X167615796Y-100470444D01*
X167539496Y-100450000D01*
X167460504Y-100450000D01*
X167384204Y-100470444D01*
X167315795Y-100509940D01*
X167259940Y-100565795D01*
X167220444Y-100634204D01*
X167200000Y-100710504D01*
X167106951Y-100710504D01*
X166563708Y-100167261D01*
X166513004Y-100171254D01*
X166507869Y-100170175D01*
X166502830Y-100171636D01*
X166474024Y-100163067D01*
X166444626Y-100156893D01*
X166439538Y-100152809D01*
X166435861Y-100151715D01*
X166423041Y-100139564D01*
X166409269Y-100128508D01*
X166405947Y-100124647D01*
X166339414Y-100033072D01*
X166216928Y-99910586D01*
X166083587Y-99813708D01*
X166917261Y-99813708D01*
X166917261Y-99813709D01*
X167500000Y-100396446D01*
X167500001Y-100396446D01*
X168082737Y-99813709D01*
X168076525Y-99809196D01*
X167922259Y-99730592D01*
X167757584Y-99677085D01*
X167586571Y-99650000D01*
X167413429Y-99650000D01*
X167242415Y-99677085D01*
X167077740Y-99730592D01*
X166923480Y-99809193D01*
X166923463Y-99809203D01*
X166917261Y-99813708D01*
X166083587Y-99813708D01*
X166076788Y-99808768D01*
X165922447Y-99730128D01*
X165922446Y-99730127D01*
X165922445Y-99730127D01*
X165757701Y-99676598D01*
X165757699Y-99676597D01*
X165757698Y-99676597D01*
X165626271Y-99655781D01*
X165586611Y-99649500D01*
X165413389Y-99649500D01*
X165373728Y-99655781D01*
X165242302Y-99676597D01*
X165077552Y-99730128D01*
X164923211Y-99808768D01*
X164851159Y-99861118D01*
X164783072Y-99910586D01*
X164783070Y-99910588D01*
X164783069Y-99910588D01*
X164660588Y-100033069D01*
X164660588Y-100033070D01*
X164660586Y-100033072D01*
X164652827Y-100043752D01*
X164558768Y-100173211D01*
X164480128Y-100327552D01*
X164426597Y-100492302D01*
X164412857Y-100579054D01*
X164399500Y-100663389D01*
X158488420Y-100663389D01*
X158488634Y-100659048D01*
X158489467Y-100657881D01*
X158489570Y-100656449D01*
X158509717Y-100629536D01*
X158529249Y-100602196D01*
X158530860Y-100601292D01*
X158531442Y-100600516D01*
X158559842Y-100584595D01*
X158561116Y-100584087D01*
X158642331Y-100553796D01*
X158648270Y-100549349D01*
X158648272Y-100549349D01*
X158700915Y-100509940D01*
X158757546Y-100467546D01*
X158843796Y-100352331D01*
X158894091Y-100217483D01*
X158900500Y-100157873D01*
X158900499Y-98262128D01*
X158894091Y-98202517D01*
X158881173Y-98167883D01*
X158843797Y-98067671D01*
X158843793Y-98067664D01*
X158757547Y-97952455D01*
X158757544Y-97952452D01*
X158642335Y-97866206D01*
X158642328Y-97866202D01*
X158525123Y-97822488D01*
X158507482Y-97815908D01*
X158507483Y-97815908D01*
X158447883Y-97809501D01*
X158447881Y-97809500D01*
X158447873Y-97809500D01*
X158447864Y-97809500D01*
X156552129Y-97809500D01*
X156552123Y-97809501D01*
X156492516Y-97815908D01*
X156357671Y-97866202D01*
X156357664Y-97866206D01*
X156242455Y-97952452D01*
X156242452Y-97952455D01*
X156156206Y-98067664D01*
X156156202Y-98067671D01*
X156105908Y-98202517D01*
X156099501Y-98262116D01*
X156099501Y-98262123D01*
X156099500Y-98262135D01*
X156099500Y-100157870D01*
X156099501Y-100157876D01*
X156105908Y-100217483D01*
X156156202Y-100352328D01*
X156156206Y-100352335D01*
X156242452Y-100467544D01*
X156242455Y-100467547D01*
X156357664Y-100553793D01*
X156357671Y-100553797D01*
X156437580Y-100583601D01*
X156493514Y-100625472D01*
X156517931Y-100690936D01*
X156503080Y-100759209D01*
X156481929Y-100787463D01*
X156431757Y-100837635D01*
X156308842Y-101006813D01*
X156253512Y-101049478D01*
X156183898Y-101055457D01*
X156122104Y-101022851D01*
X156120843Y-101021608D01*
X155386819Y-100287584D01*
X155353334Y-100226261D01*
X155350500Y-100199903D01*
X155350500Y-97709635D01*
X170799500Y-97709635D01*
X170799500Y-99710370D01*
X170799501Y-99710376D01*
X170805908Y-99769983D01*
X170856202Y-99904828D01*
X170856206Y-99904835D01*
X170942452Y-100020044D01*
X170942455Y-100020047D01*
X171057664Y-100106293D01*
X171057669Y-100106296D01*
X171085539Y-100116690D01*
X171141473Y-100158561D01*
X171165891Y-100224024D01*
X171151040Y-100292298D01*
X171142525Y-100305759D01*
X171009783Y-100488461D01*
X170905950Y-100692244D01*
X170835278Y-100909750D01*
X170835278Y-100909753D01*
X170799500Y-101135646D01*
X170799500Y-101364353D01*
X170835278Y-101590246D01*
X170835278Y-101590249D01*
X170905950Y-101807755D01*
X171009783Y-102011538D01*
X171144214Y-102196566D01*
X171305934Y-102358286D01*
X171390864Y-102419991D01*
X171433529Y-102475321D01*
X171439508Y-102544935D01*
X171406902Y-102606730D01*
X171390864Y-102620627D01*
X171306257Y-102682097D01*
X171144597Y-102843757D01*
X171010211Y-103028723D01*
X170906417Y-103232429D01*
X170835765Y-103449871D01*
X170821491Y-103540000D01*
X171809252Y-103540000D01*
X171787482Y-103577708D01*
X171750000Y-103717591D01*
X171750000Y-103862409D01*
X171787482Y-104002292D01*
X171809252Y-104040000D01*
X170821491Y-104040000D01*
X170835765Y-104130128D01*
X170906417Y-104347570D01*
X171010211Y-104551276D01*
X171144597Y-104736242D01*
X171306257Y-104897902D01*
X171491223Y-105032288D01*
X171694929Y-105136082D01*
X171912371Y-105206734D01*
X172050000Y-105228532D01*
X172050000Y-104280747D01*
X172087708Y-104302518D01*
X172227591Y-104340000D01*
X172372409Y-104340000D01*
X172512292Y-104302518D01*
X172550000Y-104280747D01*
X172550000Y-105228531D01*
X172687628Y-105206734D01*
X172905070Y-105136082D01*
X173108776Y-105032288D01*
X173293742Y-104897902D01*
X173455402Y-104736242D01*
X173589788Y-104551276D01*
X173693582Y-104347570D01*
X173764234Y-104130128D01*
X173778509Y-104040000D01*
X172790748Y-104040000D01*
X172812518Y-104002292D01*
X172850000Y-103862409D01*
X172850000Y-103717591D01*
X172812518Y-103577708D01*
X172790748Y-103540000D01*
X173778509Y-103540000D01*
X173764234Y-103449871D01*
X173693582Y-103232429D01*
X173589788Y-103028723D01*
X173455402Y-102843757D01*
X173293742Y-102682097D01*
X173209135Y-102620626D01*
X173166470Y-102565296D01*
X173160491Y-102495682D01*
X173193097Y-102433887D01*
X173209125Y-102419999D01*
X173294066Y-102358286D01*
X173455786Y-102196566D01*
X173590217Y-102011538D01*
X173694048Y-101807758D01*
X173725210Y-101711851D01*
X173764721Y-101590249D01*
X173764721Y-101590248D01*
X173764722Y-101590245D01*
X173800500Y-101364354D01*
X173800500Y-101135646D01*
X173764722Y-100909755D01*
X173764721Y-100909751D01*
X173764721Y-100909750D01*
X173694049Y-100692244D01*
X173688706Y-100681758D01*
X173590217Y-100488462D01*
X173457473Y-100305756D01*
X173440745Y-100258872D01*
X181659500Y-100258872D01*
X181659500Y-100521127D01*
X181686123Y-100723339D01*
X181693730Y-100781116D01*
X181760299Y-101029556D01*
X181761602Y-101034418D01*
X181761605Y-101034428D01*
X181861953Y-101276690D01*
X181861958Y-101276700D01*
X181993075Y-101503803D01*
X182152718Y-101711851D01*
X182152726Y-101711860D01*
X182338140Y-101897274D01*
X182338148Y-101897281D01*
X182546196Y-102056924D01*
X182773299Y-102188041D01*
X182773309Y-102188046D01*
X183013669Y-102287606D01*
X183015581Y-102288398D01*
X183268884Y-102356270D01*
X183528880Y-102390500D01*
X183528887Y-102390500D01*
X183791113Y-102390500D01*
X183791120Y-102390500D01*
X184051116Y-102356270D01*
X184304419Y-102288398D01*
X184546697Y-102188043D01*
X184773803Y-102056924D01*
X184981851Y-101897282D01*
X184981855Y-101897277D01*
X184981860Y-101897274D01*
X185167274Y-101711860D01*
X185167277Y-101711855D01*
X185167282Y-101711851D01*
X185326924Y-101503803D01*
X185458043Y-101276697D01*
X185558398Y-101034419D01*
X185626270Y-100781116D01*
X185660500Y-100521120D01*
X185660500Y-100258880D01*
X185626270Y-99998884D01*
X185558398Y-99745581D01*
X185558394Y-99745571D01*
X185458046Y-99503309D01*
X185458041Y-99503299D01*
X185326924Y-99276196D01*
X185167281Y-99068148D01*
X185167274Y-99068140D01*
X184981860Y-98882726D01*
X184981851Y-98882718D01*
X184773803Y-98723075D01*
X184546700Y-98591958D01*
X184546690Y-98591953D01*
X184304428Y-98491605D01*
X184304421Y-98491603D01*
X184304419Y-98491602D01*
X184051116Y-98423730D01*
X183993339Y-98416123D01*
X183791127Y-98389500D01*
X183791120Y-98389500D01*
X183528880Y-98389500D01*
X183528872Y-98389500D01*
X183297772Y-98419926D01*
X183268884Y-98423730D01*
X183068039Y-98477546D01*
X183015581Y-98491602D01*
X183015571Y-98491605D01*
X182773309Y-98591953D01*
X182773299Y-98591958D01*
X182546196Y-98723075D01*
X182338148Y-98882718D01*
X182152718Y-99068148D01*
X181993075Y-99276196D01*
X181861958Y-99503299D01*
X181861953Y-99503309D01*
X181761605Y-99745571D01*
X181761602Y-99745581D01*
X181744557Y-99809196D01*
X181693730Y-99998885D01*
X181659500Y-100258872D01*
X173440745Y-100258872D01*
X173433994Y-100239951D01*
X173449820Y-100171898D01*
X173499926Y-100123203D01*
X173514455Y-100116692D01*
X173542331Y-100106296D01*
X173657546Y-100020046D01*
X173743796Y-99904831D01*
X173794091Y-99769983D01*
X173800500Y-99710373D01*
X173800499Y-98110097D01*
X173809143Y-98080660D01*
X173815667Y-98050670D01*
X173819422Y-98045653D01*
X173820184Y-98043059D01*
X173836818Y-98022416D01*
X173902417Y-97956818D01*
X173963741Y-97923334D01*
X173990098Y-97920500D01*
X179575501Y-97920500D01*
X179642540Y-97940185D01*
X179688295Y-97992989D01*
X179699501Y-98044500D01*
X179699501Y-98167876D01*
X179705908Y-98227483D01*
X179756202Y-98362328D01*
X179756206Y-98362335D01*
X179842452Y-98477544D01*
X179842455Y-98477547D01*
X179957664Y-98563793D01*
X179957671Y-98563797D01*
X180092517Y-98614091D01*
X180092516Y-98614091D01*
X180099444Y-98614835D01*
X180152127Y-98620500D01*
X181747872Y-98620499D01*
X181807483Y-98614091D01*
X181942331Y-98563796D01*
X182057546Y-98477546D01*
X182143796Y-98362331D01*
X182194091Y-98227483D01*
X182200500Y-98167873D01*
X182200499Y-96472128D01*
X182194091Y-96412517D01*
X182143796Y-96277669D01*
X182143795Y-96277668D01*
X182143793Y-96277664D01*
X182057547Y-96162455D01*
X182057544Y-96162452D01*
X181942335Y-96076206D01*
X181942328Y-96076202D01*
X181822554Y-96031530D01*
X181766620Y-95989659D01*
X181742203Y-95924195D01*
X181757054Y-95855922D01*
X181793009Y-95815025D01*
X181797215Y-95811969D01*
X181797215Y-95811968D01*
X181797219Y-95811966D01*
X181941966Y-95667219D01*
X181941968Y-95667215D01*
X181941971Y-95667213D01*
X181994732Y-95594590D01*
X182062287Y-95501610D01*
X182155220Y-95319219D01*
X182218477Y-95124534D01*
X182250500Y-94922352D01*
X182250500Y-94717648D01*
X182218477Y-94515466D01*
X182155220Y-94320781D01*
X182155218Y-94320778D01*
X182155218Y-94320776D01*
X182108309Y-94228714D01*
X182062287Y-94138390D01*
X182028427Y-94091785D01*
X181941971Y-93972786D01*
X181876866Y-93907681D01*
X181843381Y-93846358D01*
X181848365Y-93776666D01*
X181876866Y-93732319D01*
X181891261Y-93717924D01*
X181941966Y-93667219D01*
X181941968Y-93667215D01*
X181941971Y-93667213D01*
X182008897Y-93575095D01*
X182062287Y-93501610D01*
X182155220Y-93319219D01*
X182218477Y-93124534D01*
X182250500Y-92922352D01*
X182250500Y-92717648D01*
X182218477Y-92515466D01*
X182155220Y-92320781D01*
X182155218Y-92320778D01*
X182155218Y-92320776D01*
X182095207Y-92203000D01*
X182062287Y-92138390D01*
X182024034Y-92085739D01*
X181941971Y-91972786D01*
X181797213Y-91828028D01*
X181631613Y-91707715D01*
X181631612Y-91707714D01*
X181631610Y-91707713D01*
X181578171Y-91680484D01*
X181527376Y-91632510D01*
X181510581Y-91564689D01*
X181533118Y-91498554D01*
X181578172Y-91459515D01*
X181631610Y-91432287D01*
X181724590Y-91364732D01*
X181797213Y-91311971D01*
X181797215Y-91311968D01*
X181797219Y-91311966D01*
X181941966Y-91167219D01*
X181941968Y-91167215D01*
X181941971Y-91167213D01*
X181994732Y-91094590D01*
X182062287Y-91001610D01*
X182155220Y-90819219D01*
X182218477Y-90624534D01*
X182250500Y-90422352D01*
X182250500Y-90217648D01*
X182218477Y-90015466D01*
X182207469Y-89981588D01*
X182184371Y-89910500D01*
X182155220Y-89820781D01*
X182155218Y-89820778D01*
X182155218Y-89820776D01*
X182112409Y-89736760D01*
X182062287Y-89638390D01*
X182043064Y-89611931D01*
X181941971Y-89472786D01*
X181797213Y-89328028D01*
X181631613Y-89207715D01*
X181631612Y-89207714D01*
X181631610Y-89207713D01*
X181550217Y-89166241D01*
X181449223Y-89114781D01*
X181254534Y-89051522D01*
X181079995Y-89023878D01*
X181052352Y-89019500D01*
X180847648Y-89019500D01*
X180823329Y-89023351D01*
X180645465Y-89051522D01*
X180450776Y-89114781D01*
X180268386Y-89207715D01*
X180102786Y-89328028D01*
X179958028Y-89472786D01*
X179837715Y-89638386D01*
X179744781Y-89820776D01*
X179681522Y-90015465D01*
X179649500Y-90217648D01*
X179649500Y-90422351D01*
X179681522Y-90624534D01*
X179744781Y-90819223D01*
X179801629Y-90930791D01*
X179829006Y-90984522D01*
X179837715Y-91001613D01*
X179958028Y-91167213D01*
X180102786Y-91311971D01*
X180268388Y-91432286D01*
X180321828Y-91459516D01*
X180372623Y-91507490D01*
X180389418Y-91575312D01*
X180366880Y-91641446D01*
X180321828Y-91680484D01*
X180268388Y-91707713D01*
X180102786Y-91828028D01*
X179958028Y-91972786D01*
X179837715Y-92138386D01*
X179744781Y-92320776D01*
X179681522Y-92515465D01*
X179649500Y-92717648D01*
X179649500Y-92922351D01*
X179681522Y-93124534D01*
X179744781Y-93319223D01*
X179803363Y-93434194D01*
X179831555Y-93489525D01*
X179837715Y-93501613D01*
X179958028Y-93667213D01*
X180023134Y-93732319D01*
X180056619Y-93793642D01*
X180051635Y-93863334D01*
X180023134Y-93907681D01*
X179958032Y-93972782D01*
X179958028Y-93972786D01*
X179837715Y-94138386D01*
X179744781Y-94320776D01*
X179681522Y-94515465D01*
X179649500Y-94717648D01*
X179649500Y-94922351D01*
X179681522Y-95124534D01*
X179744781Y-95319223D01*
X179808691Y-95444653D01*
X179836412Y-95499057D01*
X179837715Y-95501613D01*
X179958028Y-95667213D01*
X180102784Y-95811969D01*
X180106996Y-95815029D01*
X180149663Y-95870359D01*
X180155643Y-95939972D01*
X180123037Y-96001767D01*
X180077445Y-96031530D01*
X179957671Y-96076202D01*
X179957664Y-96076206D01*
X179842455Y-96162452D01*
X179842452Y-96162455D01*
X179756206Y-96277664D01*
X179756202Y-96277671D01*
X179705908Y-96412517D01*
X179699501Y-96472116D01*
X179699501Y-96472123D01*
X179699500Y-96472135D01*
X179699500Y-96595500D01*
X179679815Y-96662539D01*
X179627011Y-96708294D01*
X179575500Y-96719500D01*
X173776669Y-96719500D01*
X173776653Y-96719499D01*
X173769057Y-96719499D01*
X173610943Y-96719499D01*
X173503587Y-96748265D01*
X173458210Y-96760424D01*
X173458209Y-96760425D01*
X173408096Y-96789359D01*
X173408095Y-96789360D01*
X173364689Y-96814420D01*
X173321285Y-96839479D01*
X173321282Y-96839481D01*
X173209478Y-96951286D01*
X172940082Y-97220681D01*
X172878759Y-97254166D01*
X172852401Y-97257000D01*
X171252129Y-97257000D01*
X171252123Y-97257001D01*
X171192516Y-97263408D01*
X171057671Y-97313702D01*
X171057664Y-97313706D01*
X170942455Y-97399952D01*
X170942452Y-97399955D01*
X170856206Y-97515164D01*
X170856202Y-97515171D01*
X170805908Y-97650017D01*
X170799501Y-97709616D01*
X170799500Y-97709635D01*
X155350500Y-97709635D01*
X155350500Y-95810046D01*
X155370185Y-95743007D01*
X155422989Y-95697252D01*
X155492147Y-95687308D01*
X155493898Y-95687573D01*
X155575514Y-95700500D01*
X155575519Y-95700500D01*
X155764486Y-95700500D01*
X155951118Y-95670940D01*
X155981753Y-95660986D01*
X156130832Y-95612547D01*
X156299199Y-95526760D01*
X156452073Y-95415690D01*
X156585690Y-95282073D01*
X156696760Y-95129199D01*
X156782547Y-94960832D01*
X156840940Y-94781118D01*
X156844415Y-94759175D01*
X156870500Y-94594486D01*
X156870500Y-94405513D01*
X156840940Y-94218881D01*
X156808974Y-94120501D01*
X156782547Y-94039168D01*
X156782545Y-94039165D01*
X156782545Y-94039163D01*
X156731538Y-93939057D01*
X156696760Y-93870801D01*
X156585690Y-93717927D01*
X156452073Y-93584310D01*
X156299199Y-93473240D01*
X156268080Y-93457384D01*
X156130836Y-93387454D01*
X155951118Y-93329059D01*
X155764486Y-93299500D01*
X155764481Y-93299500D01*
X155575519Y-93299500D01*
X155575514Y-93299500D01*
X155388881Y-93329059D01*
X155209163Y-93387454D01*
X155040800Y-93473240D01*
X154973155Y-93522388D01*
X154887927Y-93584310D01*
X154887925Y-93584312D01*
X154887924Y-93584312D01*
X154754312Y-93717924D01*
X154754312Y-93717925D01*
X154754310Y-93717927D01*
X154721149Y-93763569D01*
X154643240Y-93870800D01*
X154557454Y-94039163D01*
X154499059Y-94218881D01*
X154469500Y-94405513D01*
X154469500Y-94594486D01*
X154494725Y-94753751D01*
X154494023Y-94759175D01*
X154495936Y-94764302D01*
X154489593Y-94793461D01*
X154485770Y-94823045D01*
X154481939Y-94828647D01*
X154481085Y-94832575D01*
X154459934Y-94860830D01*
X154381286Y-94939478D01*
X154381285Y-94939478D01*
X154381284Y-94939479D01*
X154269481Y-95051282D01*
X154269475Y-95051290D01*
X154224496Y-95129198D01*
X154224496Y-95129199D01*
X154190423Y-95188215D01*
X154149499Y-95340943D01*
X154149499Y-95499057D01*
X154149499Y-95499059D01*
X154149500Y-95509053D01*
X154149500Y-100413330D01*
X154149499Y-100413348D01*
X154149499Y-100579054D01*
X154149498Y-100579054D01*
X151218522Y-100579054D01*
X151222679Y-100520930D01*
X151251180Y-100476583D01*
X151306824Y-100420939D01*
X151365690Y-100362073D01*
X151476760Y-100209199D01*
X151562547Y-100040832D01*
X151620940Y-99861118D01*
X151628449Y-99813708D01*
X151650500Y-99674486D01*
X151650500Y-99485513D01*
X151620940Y-99298881D01*
X151562545Y-99119163D01*
X151505866Y-99007925D01*
X151476760Y-98950801D01*
X151365690Y-98797927D01*
X151232073Y-98664310D01*
X151079199Y-98553240D01*
X150910836Y-98467454D01*
X150731118Y-98409059D01*
X150544486Y-98379500D01*
X150544481Y-98379500D01*
X150355519Y-98379500D01*
X150355514Y-98379500D01*
X150168881Y-98409059D01*
X149989163Y-98467454D01*
X149820800Y-98553240D01*
X149737047Y-98614091D01*
X149667927Y-98664310D01*
X149667925Y-98664312D01*
X149667924Y-98664312D01*
X149534312Y-98797924D01*
X149534312Y-98797925D01*
X149534310Y-98797927D01*
X149486610Y-98863579D01*
X149423240Y-98950800D01*
X149337454Y-99119163D01*
X149279059Y-99298881D01*
X149249500Y-99485513D01*
X149249500Y-99674486D01*
X149279059Y-99861118D01*
X149337454Y-100040836D01*
X149401872Y-100167262D01*
X149423240Y-100209199D01*
X149534310Y-100362073D01*
X149667927Y-100495690D01*
X149798386Y-100590474D01*
X149841050Y-100645803D01*
X149849499Y-100690791D01*
X149849499Y-100779054D01*
X149849498Y-100779054D01*
X149849499Y-100779057D01*
X149884519Y-100909753D01*
X149890423Y-100931784D01*
X149890423Y-100931785D01*
X149897231Y-100943578D01*
X149897233Y-100943580D01*
X149969477Y-101068712D01*
X149969481Y-101068717D01*
X150088349Y-101187585D01*
X150088355Y-101187590D01*
X153088584Y-104187819D01*
X153122069Y-104249142D01*
X153117085Y-104318834D01*
X153075213Y-104374767D01*
X153009749Y-104399184D01*
X153000903Y-104399500D01*
X152010098Y-104399500D01*
X151943059Y-104379815D01*
X151922417Y-104363181D01*
X147710066Y-100150831D01*
X147676581Y-100089508D01*
X147675274Y-100043752D01*
X147675737Y-100040832D01*
X147690859Y-99945352D01*
X147700500Y-99884486D01*
X147700500Y-99695513D01*
X147670940Y-99508881D01*
X147612545Y-99329163D01*
X147526759Y-99160800D01*
X147415690Y-99007927D01*
X147282073Y-98874310D01*
X147129199Y-98763240D01*
X146960836Y-98677454D01*
X146781118Y-98619059D01*
X146594486Y-98589500D01*
X146594481Y-98589500D01*
X146405519Y-98589500D01*
X146405514Y-98589500D01*
X146218881Y-98619059D01*
X146039163Y-98677454D01*
X145870800Y-98763240D01*
X145783579Y-98826610D01*
X145717927Y-98874310D01*
X145717925Y-98874312D01*
X145717924Y-98874312D01*
X145584312Y-99007924D01*
X145584312Y-99007925D01*
X145584310Y-99007927D01*
X145540557Y-99068148D01*
X145473240Y-99160800D01*
X145387454Y-99329163D01*
X145329059Y-99508881D01*
X145299500Y-99695513D01*
X145299500Y-99884486D01*
X145329059Y-100071118D01*
X145387454Y-100250836D01*
X145439169Y-100352331D01*
X145473240Y-100419199D01*
X145584310Y-100572073D01*
X145717927Y-100705690D01*
X145870801Y-100816760D01*
X145947427Y-100855803D01*
X146039163Y-100902545D01*
X146039165Y-100902545D01*
X146039168Y-100902547D01*
X146129150Y-100931784D01*
X146218881Y-100960940D01*
X146405514Y-100990500D01*
X146405519Y-100990500D01*
X146594486Y-100990500D01*
X146711017Y-100972042D01*
X146753753Y-100965274D01*
X146823045Y-100974228D01*
X146860831Y-101000066D01*
X151048583Y-105187819D01*
X151082068Y-105249142D01*
X151077084Y-105318834D01*
X151035212Y-105374767D01*
X150969748Y-105399184D01*
X150960902Y-105399500D01*
X149860097Y-105399500D01*
X149793058Y-105379815D01*
X149772416Y-105363181D01*
X144560066Y-100150831D01*
X144526581Y-100089508D01*
X144525274Y-100043752D01*
X144525737Y-100040832D01*
X144540859Y-99945352D01*
X144550500Y-99884486D01*
X144550500Y-99695513D01*
X144520940Y-99508881D01*
X144462545Y-99329163D01*
X144376759Y-99160800D01*
X144265690Y-99007927D01*
X144132073Y-98874310D01*
X143979199Y-98763240D01*
X143810836Y-98677454D01*
X143631118Y-98619059D01*
X143444486Y-98589500D01*
X143444481Y-98589500D01*
X143255519Y-98589500D01*
X143255514Y-98589500D01*
X143068881Y-98619059D01*
X142889163Y-98677454D01*
X142720800Y-98763240D01*
X142633579Y-98826610D01*
X142567927Y-98874310D01*
X142567925Y-98874312D01*
X142567924Y-98874312D01*
X142434312Y-99007924D01*
X142434312Y-99007925D01*
X142434310Y-99007927D01*
X142390557Y-99068148D01*
X142323240Y-99160800D01*
X142237454Y-99329163D01*
X142179059Y-99508881D01*
X142149500Y-99695513D01*
X141400500Y-99695513D01*
X141370940Y-99508881D01*
X141312545Y-99329163D01*
X141226759Y-99160800D01*
X141115690Y-99007927D01*
X140982073Y-98874310D01*
X140829199Y-98763240D01*
X140660836Y-98677454D01*
X140481118Y-98619059D01*
X140294486Y-98589500D01*
X140294481Y-98589500D01*
X140105519Y-98589500D01*
X140105514Y-98589500D01*
X139918881Y-98619059D01*
X139739163Y-98677454D01*
X139570800Y-98763240D01*
X139483579Y-98826610D01*
X139417927Y-98874310D01*
X139417925Y-98874312D01*
X139417924Y-98874312D01*
X139284312Y-99007924D01*
X139284312Y-99007925D01*
X139284310Y-99007927D01*
X139240557Y-99068148D01*
X139173240Y-99160800D01*
X139087454Y-99329163D01*
X139029059Y-99508881D01*
X138999500Y-99695513D01*
X138250500Y-99695513D01*
X138220940Y-99508881D01*
X138162545Y-99329163D01*
X138076759Y-99160800D01*
X137965690Y-99007927D01*
X137832073Y-98874310D01*
X137679199Y-98763240D01*
X137510836Y-98677454D01*
X137331118Y-98619059D01*
X137144486Y-98589500D01*
X137144481Y-98589500D01*
X136955519Y-98589500D01*
X136955514Y-98589500D01*
X136768881Y-98619059D01*
X136589163Y-98677454D01*
X136420800Y-98763240D01*
X136333579Y-98826610D01*
X136267927Y-98874310D01*
X136267925Y-98874312D01*
X136267924Y-98874312D01*
X136134312Y-99007924D01*
X136134312Y-99007925D01*
X136134310Y-99007927D01*
X136090557Y-99068148D01*
X136023240Y-99160800D01*
X135937454Y-99329163D01*
X135879059Y-99508881D01*
X135849500Y-99695513D01*
X135100500Y-99695513D01*
X135070940Y-99508881D01*
X135012545Y-99329163D01*
X134926759Y-99160800D01*
X134815690Y-99007927D01*
X134682073Y-98874310D01*
X134529199Y-98763240D01*
X134360836Y-98677454D01*
X134181118Y-98619059D01*
X133994486Y-98589500D01*
X133994481Y-98589500D01*
X133805519Y-98589500D01*
X133805514Y-98589500D01*
X133618881Y-98619059D01*
X133439163Y-98677454D01*
X133270800Y-98763240D01*
X133183579Y-98826610D01*
X133117927Y-98874310D01*
X133117925Y-98874312D01*
X133117924Y-98874312D01*
X132984312Y-99007924D01*
X132984312Y-99007925D01*
X132984310Y-99007927D01*
X132940557Y-99068148D01*
X132873240Y-99160800D01*
X132787454Y-99329163D01*
X132729059Y-99508881D01*
X132699500Y-99695513D01*
X131950500Y-99695513D01*
X131920940Y-99508881D01*
X131862545Y-99329163D01*
X131776759Y-99160800D01*
X131665690Y-99007927D01*
X131532073Y-98874310D01*
X131379199Y-98763240D01*
X131210836Y-98677454D01*
X131031118Y-98619059D01*
X130844486Y-98589500D01*
X130844481Y-98589500D01*
X130655519Y-98589500D01*
X130655514Y-98589500D01*
X130468881Y-98619059D01*
X130289163Y-98677454D01*
X130120800Y-98763240D01*
X130033579Y-98826610D01*
X129967927Y-98874310D01*
X129967925Y-98874312D01*
X129967924Y-98874312D01*
X129834312Y-99007924D01*
X129834312Y-99007925D01*
X129834310Y-99007927D01*
X129790557Y-99068148D01*
X129723240Y-99160800D01*
X129637454Y-99329163D01*
X129579059Y-99508881D01*
X129549500Y-99695513D01*
X128800500Y-99695513D01*
X128770940Y-99508881D01*
X128712545Y-99329163D01*
X128626759Y-99160800D01*
X128515690Y-99007927D01*
X128382073Y-98874310D01*
X128229199Y-98763240D01*
X128060836Y-98677454D01*
X127881118Y-98619059D01*
X127694486Y-98589500D01*
X127694481Y-98589500D01*
X127505519Y-98589500D01*
X127505514Y-98589500D01*
X127318881Y-98619059D01*
X127139163Y-98677454D01*
X126970800Y-98763240D01*
X126883579Y-98826610D01*
X126817927Y-98874310D01*
X126817925Y-98874312D01*
X126817924Y-98874312D01*
X126684312Y-99007924D01*
X126684312Y-99007925D01*
X126684310Y-99007927D01*
X126640557Y-99068148D01*
X126573240Y-99160800D01*
X126487454Y-99329163D01*
X126429059Y-99508881D01*
X126399500Y-99695513D01*
X126399500Y-99884486D01*
X126429059Y-100071118D01*
X126487454Y-100250836D01*
X126539169Y-100352331D01*
X126573240Y-100419199D01*
X126684310Y-100572073D01*
X126817927Y-100705690D01*
X126948386Y-100800474D01*
X126991051Y-100855803D01*
X126999500Y-100900791D01*
X126999500Y-109169374D01*
X126979815Y-109236413D01*
X126927011Y-109282168D01*
X126894899Y-109291847D01*
X126855760Y-109298046D01*
X126646109Y-109366164D01*
X126646106Y-109366165D01*
X126449687Y-109466248D01*
X126271354Y-109595813D01*
X126271349Y-109595817D01*
X126115469Y-109751697D01*
X126115465Y-109751702D01*
X125985900Y-109930035D01*
X125885817Y-110126454D01*
X125885816Y-110126457D01*
X125817698Y-110336108D01*
X125783213Y-110553839D01*
X123000500Y-110553839D01*
X123000500Y-94615513D01*
X126399500Y-94615513D01*
X126399500Y-94804486D01*
X126429059Y-94991118D01*
X126487454Y-95170836D01*
X126532850Y-95259929D01*
X126573240Y-95339199D01*
X126684310Y-95492073D01*
X126817927Y-95625690D01*
X126970801Y-95736760D01*
X127050347Y-95777290D01*
X127139163Y-95822545D01*
X127139165Y-95822545D01*
X127139168Y-95822547D01*
X127235497Y-95853846D01*
X127318881Y-95880940D01*
X127505514Y-95910500D01*
X127505519Y-95910500D01*
X127694486Y-95910500D01*
X127881118Y-95880940D01*
X128060832Y-95822547D01*
X128229199Y-95736760D01*
X128382073Y-95625690D01*
X128515690Y-95492073D01*
X128626760Y-95339199D01*
X128712547Y-95170832D01*
X128770940Y-94991118D01*
X128779119Y-94939478D01*
X128800500Y-94804486D01*
X128800500Y-94615513D01*
X128775274Y-94456246D01*
X128784228Y-94386953D01*
X128810063Y-94349170D01*
X130168713Y-92990521D01*
X130168716Y-92990520D01*
X130280520Y-92878716D01*
X130330639Y-92791904D01*
X130359577Y-92741785D01*
X130400501Y-92589057D01*
X130400501Y-92430943D01*
X130400501Y-92423348D01*
X130400500Y-92423330D01*
X130400500Y-91974499D01*
X130420185Y-91907460D01*
X130472989Y-91861705D01*
X130524500Y-91850499D01*
X130697871Y-91850499D01*
X130697872Y-91850499D01*
X130757483Y-91844091D01*
X130892331Y-91793796D01*
X131007546Y-91707546D01*
X131093796Y-91592331D01*
X131142810Y-91460916D01*
X131184681Y-91404984D01*
X131250145Y-91380566D01*
X131318418Y-91395417D01*
X131346673Y-91416569D01*
X131460213Y-91530109D01*
X131632184Y-91655051D01*
X131632184Y-91655052D01*
X131671793Y-91675233D01*
X131722590Y-91723206D01*
X131739500Y-91785718D01*
X131739500Y-92819902D01*
X131719815Y-92886941D01*
X131703181Y-92907583D01*
X131110830Y-93499933D01*
X131049507Y-93533418D01*
X131003751Y-93534725D01*
X130844486Y-93509500D01*
X130844481Y-93509500D01*
X130655519Y-93509500D01*
X130655514Y-93509500D01*
X130468881Y-93539059D01*
X130289163Y-93597454D01*
X130120800Y-93683240D01*
X130053250Y-93732319D01*
X129967927Y-93794310D01*
X129967925Y-93794312D01*
X129967924Y-93794312D01*
X129834312Y-93927924D01*
X129834312Y-93927925D01*
X129834310Y-93927927D01*
X129826226Y-93939054D01*
X129723240Y-94080800D01*
X129637454Y-94249163D01*
X129579059Y-94428881D01*
X129549500Y-94615513D01*
X129549500Y-94804486D01*
X129579059Y-94991118D01*
X129637454Y-95170836D01*
X129682850Y-95259929D01*
X129723240Y-95339199D01*
X129834310Y-95492073D01*
X129967927Y-95625690D01*
X130120801Y-95736760D01*
X130200347Y-95777290D01*
X130289163Y-95822545D01*
X130289165Y-95822545D01*
X130289168Y-95822547D01*
X130385497Y-95853846D01*
X130468881Y-95880940D01*
X130655514Y-95910500D01*
X130655519Y-95910500D01*
X130844486Y-95910500D01*
X131031118Y-95880940D01*
X131210832Y-95822547D01*
X131379199Y-95736760D01*
X131532073Y-95625690D01*
X131665690Y-95492073D01*
X131776760Y-95339199D01*
X131862547Y-95170832D01*
X131920940Y-94991118D01*
X131929119Y-94939478D01*
X131950500Y-94804486D01*
X131950500Y-94615513D01*
X131925274Y-94456246D01*
X131934228Y-94386953D01*
X131960063Y-94349170D01*
X132820520Y-93488716D01*
X132899577Y-93351784D01*
X132940501Y-93199057D01*
X132940501Y-93040942D01*
X132940501Y-93033347D01*
X132940500Y-93033329D01*
X132940500Y-91785718D01*
X132943182Y-91776583D01*
X132941898Y-91767149D01*
X132952867Y-91743599D01*
X132960185Y-91718679D01*
X132968164Y-91710759D01*
X132971400Y-91703813D01*
X132988689Y-91690388D01*
X132998247Y-91680902D01*
X133003096Y-91677836D01*
X133047816Y-91655051D01*
X133105849Y-91612887D01*
X133109247Y-91610740D01*
X133139133Y-91602208D01*
X133168421Y-91591758D01*
X133172453Y-91592695D01*
X133176432Y-91591560D01*
X133206196Y-91600542D01*
X133236475Y-91607584D01*
X133239358Y-91610550D01*
X133243322Y-91611747D01*
X133263503Y-91635394D01*
X133285170Y-91657689D01*
X133286249Y-91662048D01*
X133288678Y-91664894D01*
X133290782Y-91680352D01*
X133299500Y-91715556D01*
X133299500Y-93599207D01*
X133279815Y-93666246D01*
X133248386Y-93699525D01*
X133117925Y-93794311D01*
X132984312Y-93927924D01*
X132984312Y-93927925D01*
X132984310Y-93927927D01*
X132976226Y-93939054D01*
X132873240Y-94080800D01*
X132787454Y-94249163D01*
X132729059Y-94428881D01*
X132699500Y-94615513D01*
X132699500Y-94804486D01*
X132729059Y-94991118D01*
X132787454Y-95170836D01*
X132832850Y-95259929D01*
X132873240Y-95339199D01*
X132984310Y-95492073D01*
X133117927Y-95625690D01*
X133270801Y-95736760D01*
X133350347Y-95777290D01*
X133439163Y-95822545D01*
X133439165Y-95822545D01*
X133439168Y-95822547D01*
X133535497Y-95853846D01*
X133618881Y-95880940D01*
X133805514Y-95910500D01*
X133805519Y-95910500D01*
X133994486Y-95910500D01*
X134181118Y-95880940D01*
X134360832Y-95822547D01*
X134529199Y-95736760D01*
X134682073Y-95625690D01*
X134815690Y-95492073D01*
X134926760Y-95339199D01*
X135012547Y-95170832D01*
X135070940Y-94991118D01*
X135079119Y-94939478D01*
X135100500Y-94804486D01*
X135100500Y-94615513D01*
X135070940Y-94428881D01*
X135013089Y-94250836D01*
X135012547Y-94249168D01*
X135012545Y-94249165D01*
X135012545Y-94249163D01*
X134946988Y-94120501D01*
X134926760Y-94080801D01*
X134815690Y-93927927D01*
X134682073Y-93794310D01*
X134596750Y-93732319D01*
X134551614Y-93699525D01*
X134508948Y-93644194D01*
X134500500Y-93599207D01*
X134500500Y-91952412D01*
X134520185Y-91885373D01*
X134572989Y-91839618D01*
X134642147Y-91829674D01*
X134643872Y-91829935D01*
X134773713Y-91850500D01*
X134773714Y-91850500D01*
X134986286Y-91850500D01*
X134986287Y-91850500D01*
X135196243Y-91817246D01*
X135398412Y-91751557D01*
X135587816Y-91655051D01*
X135647922Y-91611382D01*
X135759786Y-91530109D01*
X135759788Y-91530106D01*
X135759792Y-91530104D01*
X135910104Y-91379792D01*
X135910106Y-91379788D01*
X135910109Y-91379786D01*
X136035048Y-91207820D01*
X136035047Y-91207820D01*
X136035051Y-91207816D01*
X136039514Y-91199054D01*
X136087488Y-91148259D01*
X136155308Y-91131463D01*
X136221444Y-91153999D01*
X136260486Y-91199056D01*
X136264951Y-91207820D01*
X136389890Y-91379786D01*
X136413181Y-91403077D01*
X136446666Y-91464400D01*
X136449500Y-91490758D01*
X136449500Y-93599207D01*
X136429815Y-93666246D01*
X136398386Y-93699525D01*
X136267925Y-93794311D01*
X136134312Y-93927924D01*
X136134312Y-93927925D01*
X136134310Y-93927927D01*
X136126226Y-93939054D01*
X136023240Y-94080800D01*
X135937454Y-94249163D01*
X135879059Y-94428881D01*
X135849500Y-94615513D01*
X135849500Y-94804486D01*
X135879059Y-94991118D01*
X135937454Y-95170836D01*
X135982850Y-95259929D01*
X136023240Y-95339199D01*
X136134310Y-95492073D01*
X136267927Y-95625690D01*
X136420801Y-95736760D01*
X136500347Y-95777290D01*
X136589163Y-95822545D01*
X136589165Y-95822545D01*
X136589168Y-95822547D01*
X136685497Y-95853846D01*
X136768881Y-95880940D01*
X136955514Y-95910500D01*
X136955519Y-95910500D01*
X137144486Y-95910500D01*
X137331118Y-95880940D01*
X137510832Y-95822547D01*
X137679199Y-95736760D01*
X137832073Y-95625690D01*
X137965690Y-95492073D01*
X138076760Y-95339199D01*
X138162547Y-95170832D01*
X138220940Y-94991118D01*
X138229119Y-94939478D01*
X138250500Y-94804486D01*
X138250500Y-94615513D01*
X138220940Y-94428881D01*
X138163089Y-94250836D01*
X138162547Y-94249168D01*
X138162545Y-94249165D01*
X138162545Y-94249163D01*
X138096988Y-94120501D01*
X138076760Y-94080801D01*
X137965690Y-93927927D01*
X137832073Y-93794310D01*
X137746750Y-93732319D01*
X137701614Y-93699525D01*
X137658948Y-93644194D01*
X137650500Y-93599207D01*
X137650500Y-91935197D01*
X137670185Y-91868158D01*
X137722989Y-91822403D01*
X137736181Y-91817266D01*
X137762929Y-91808575D01*
X137938412Y-91751557D01*
X138127816Y-91655051D01*
X138187922Y-91611382D01*
X138299786Y-91530109D01*
X138299788Y-91530106D01*
X138299792Y-91530104D01*
X138450104Y-91379792D01*
X138450106Y-91379788D01*
X138450109Y-91379786D01*
X138575048Y-91207820D01*
X138575047Y-91207820D01*
X138575051Y-91207816D01*
X138579514Y-91199054D01*
X138627488Y-91148259D01*
X138695308Y-91131463D01*
X138761444Y-91153999D01*
X138800486Y-91199056D01*
X138804951Y-91207820D01*
X138929890Y-91379786D01*
X139080213Y-91530109D01*
X139252179Y-91655048D01*
X139252181Y-91655049D01*
X139252184Y-91655051D01*
X139441588Y-91751557D01*
X139513818Y-91775025D01*
X139571492Y-91814461D01*
X139598692Y-91878819D01*
X139599500Y-91892956D01*
X139599500Y-93599207D01*
X139579815Y-93666246D01*
X139548386Y-93699525D01*
X139417925Y-93794311D01*
X139284312Y-93927924D01*
X139284312Y-93927925D01*
X139284310Y-93927927D01*
X139276226Y-93939054D01*
X139173240Y-94080800D01*
X139087454Y-94249163D01*
X139029059Y-94428881D01*
X138999500Y-94615513D01*
X138999500Y-94804486D01*
X139029059Y-94991118D01*
X139087454Y-95170836D01*
X139132850Y-95259929D01*
X139173240Y-95339199D01*
X139284310Y-95492073D01*
X139417927Y-95625690D01*
X139570801Y-95736760D01*
X139650347Y-95777290D01*
X139739163Y-95822545D01*
X139739165Y-95822545D01*
X139739168Y-95822547D01*
X139835497Y-95853846D01*
X139918881Y-95880940D01*
X140105514Y-95910500D01*
X140105519Y-95910500D01*
X140294486Y-95910500D01*
X140481118Y-95880940D01*
X140660832Y-95822547D01*
X140829199Y-95736760D01*
X140982073Y-95625690D01*
X141115690Y-95492073D01*
X141226760Y-95339199D01*
X141312547Y-95170832D01*
X141370940Y-94991118D01*
X141379119Y-94939478D01*
X141400500Y-94804486D01*
X141400500Y-94615513D01*
X141370940Y-94428881D01*
X141313089Y-94250836D01*
X141312547Y-94249168D01*
X141312545Y-94249165D01*
X141312545Y-94249163D01*
X141246988Y-94120501D01*
X141226760Y-94080801D01*
X141115690Y-93927927D01*
X140982073Y-93794310D01*
X140896750Y-93732319D01*
X140851614Y-93699525D01*
X140808948Y-93644194D01*
X140800500Y-93599207D01*
X140800500Y-91620758D01*
X140820185Y-91553719D01*
X140836819Y-91533077D01*
X140912413Y-91457483D01*
X140990104Y-91379792D01*
X140990106Y-91379788D01*
X140990109Y-91379786D01*
X141115048Y-91207820D01*
X141115047Y-91207820D01*
X141115051Y-91207816D01*
X141119514Y-91199054D01*
X141167488Y-91148259D01*
X141235308Y-91131463D01*
X141301444Y-91153999D01*
X141340486Y-91199056D01*
X141344951Y-91207820D01*
X141469890Y-91379786D01*
X141620213Y-91530109D01*
X141792184Y-91655051D01*
X141792184Y-91655052D01*
X141831793Y-91675233D01*
X141882590Y-91723206D01*
X141899500Y-91785718D01*
X141899500Y-93773330D01*
X141899499Y-93773348D01*
X141899499Y-93939054D01*
X141899498Y-93939054D01*
X141937479Y-94080801D01*
X141940423Y-94091785D01*
X141957002Y-94120500D01*
X142019479Y-94228714D01*
X142019481Y-94228717D01*
X142138349Y-94347585D01*
X142138355Y-94347590D01*
X142139933Y-94349168D01*
X142173418Y-94410491D01*
X142174725Y-94456247D01*
X142149500Y-94615513D01*
X142149500Y-94804486D01*
X142179059Y-94991118D01*
X142237454Y-95170836D01*
X142282850Y-95259929D01*
X142323240Y-95339199D01*
X142434310Y-95492073D01*
X142567927Y-95625690D01*
X142720801Y-95736760D01*
X142800347Y-95777290D01*
X142889163Y-95822545D01*
X142889165Y-95822545D01*
X142889168Y-95822547D01*
X142985497Y-95853846D01*
X143068881Y-95880940D01*
X143255514Y-95910500D01*
X143255519Y-95910500D01*
X143444486Y-95910500D01*
X143631118Y-95880940D01*
X143810832Y-95822547D01*
X143979199Y-95736760D01*
X144132073Y-95625690D01*
X144265690Y-95492073D01*
X144376760Y-95339199D01*
X144462547Y-95170832D01*
X144520940Y-94991118D01*
X144529119Y-94939478D01*
X144550500Y-94804486D01*
X144550500Y-94615513D01*
X144520940Y-94428881D01*
X144463089Y-94250836D01*
X144462547Y-94249168D01*
X144462545Y-94249165D01*
X144462545Y-94249163D01*
X144396988Y-94120501D01*
X144376760Y-94080801D01*
X144265690Y-93927927D01*
X144132073Y-93794310D01*
X143979199Y-93683240D01*
X143947752Y-93667217D01*
X143810836Y-93597454D01*
X143631118Y-93539059D01*
X143444486Y-93509500D01*
X143444481Y-93509500D01*
X143255519Y-93509500D01*
X143255514Y-93509500D01*
X143243893Y-93511340D01*
X143174600Y-93502382D01*
X143121150Y-93457384D01*
X143100513Y-93390631D01*
X143100500Y-93388866D01*
X143100500Y-91785718D01*
X143120185Y-91718679D01*
X143168207Y-91675233D01*
X143207815Y-91655052D01*
X143207815Y-91655051D01*
X143207816Y-91655051D01*
X143317568Y-91575312D01*
X143379786Y-91530109D01*
X143379788Y-91530106D01*
X143379792Y-91530104D01*
X143530104Y-91379792D01*
X143530106Y-91379788D01*
X143530109Y-91379786D01*
X143655048Y-91207820D01*
X143655047Y-91207820D01*
X143655051Y-91207816D01*
X143659514Y-91199054D01*
X143707488Y-91148259D01*
X143775308Y-91131463D01*
X143841444Y-91153999D01*
X143880486Y-91199056D01*
X143884951Y-91207820D01*
X144009890Y-91379786D01*
X144160213Y-91530109D01*
X144332184Y-91655051D01*
X144332184Y-91655052D01*
X144371793Y-91675233D01*
X144422590Y-91723206D01*
X144439500Y-91785718D01*
X144439500Y-93163330D01*
X144439499Y-93163348D01*
X144439499Y-93329054D01*
X144439498Y-93329054D01*
X144480423Y-93481787D01*
X144480424Y-93481788D01*
X144502198Y-93519501D01*
X144559475Y-93618709D01*
X144559481Y-93618717D01*
X144678349Y-93737585D01*
X144678355Y-93737590D01*
X145289933Y-94349168D01*
X145323418Y-94410491D01*
X145324725Y-94456247D01*
X145299500Y-94615513D01*
X145299500Y-94804486D01*
X145329059Y-94991118D01*
X145387454Y-95170836D01*
X145432850Y-95259929D01*
X145473240Y-95339199D01*
X145584310Y-95492073D01*
X145717927Y-95625690D01*
X145870801Y-95736760D01*
X145950347Y-95777290D01*
X146039163Y-95822545D01*
X146039165Y-95822545D01*
X146039168Y-95822547D01*
X146135497Y-95853846D01*
X146218881Y-95880940D01*
X146405514Y-95910500D01*
X146405519Y-95910500D01*
X146594486Y-95910500D01*
X146781118Y-95880940D01*
X146960832Y-95822547D01*
X147129199Y-95736760D01*
X147282073Y-95625690D01*
X147415690Y-95492073D01*
X147526760Y-95339199D01*
X147612547Y-95170832D01*
X147670940Y-94991118D01*
X147679119Y-94939478D01*
X147700500Y-94804486D01*
X147700500Y-94615513D01*
X147670940Y-94428881D01*
X147613089Y-94250836D01*
X147612547Y-94249168D01*
X147612545Y-94249165D01*
X147612545Y-94249163D01*
X147546988Y-94120501D01*
X147526760Y-94080801D01*
X147415690Y-93927927D01*
X147282073Y-93794310D01*
X147129199Y-93683240D01*
X147097752Y-93667217D01*
X146960836Y-93597454D01*
X146781118Y-93539059D01*
X146594486Y-93509500D01*
X146594481Y-93509500D01*
X146405519Y-93509500D01*
X146405514Y-93509500D01*
X146246247Y-93534725D01*
X146176953Y-93525770D01*
X146139168Y-93499933D01*
X145676819Y-93037583D01*
X145643334Y-92976260D01*
X145640500Y-92949902D01*
X145640500Y-91785718D01*
X145660185Y-91718679D01*
X145708207Y-91675233D01*
X145747815Y-91655052D01*
X145747815Y-91655051D01*
X145747816Y-91655051D01*
X145857568Y-91575312D01*
X145919786Y-91530109D01*
X145919788Y-91530106D01*
X145919792Y-91530104D01*
X146070104Y-91379792D01*
X146070106Y-91379788D01*
X146070109Y-91379786D01*
X146195048Y-91207820D01*
X146195047Y-91207820D01*
X146195051Y-91207816D01*
X146199514Y-91199054D01*
X146247488Y-91148259D01*
X146315308Y-91131463D01*
X146381444Y-91153999D01*
X146420486Y-91199056D01*
X146424951Y-91207820D01*
X146549890Y-91379786D01*
X146700213Y-91530109D01*
X146872179Y-91655048D01*
X146872181Y-91655049D01*
X146872184Y-91655051D01*
X147061588Y-91751557D01*
X147263757Y-91817246D01*
X147473713Y-91850500D01*
X147473714Y-91850500D01*
X147686286Y-91850500D01*
X147686287Y-91850500D01*
X147896243Y-91817246D01*
X147938523Y-91803507D01*
X148008362Y-91801511D01*
X148064522Y-91833757D01*
X149653819Y-93423054D01*
X149687304Y-93484377D01*
X149682320Y-93554069D01*
X149653820Y-93598416D01*
X149534309Y-93717928D01*
X149423240Y-93870800D01*
X149337454Y-94039163D01*
X149279059Y-94218881D01*
X149249500Y-94405513D01*
X149249500Y-94594486D01*
X149279059Y-94781118D01*
X149337454Y-94960836D01*
X149420863Y-95124534D01*
X149423240Y-95129199D01*
X149534310Y-95282073D01*
X149667927Y-95415690D01*
X149820801Y-95526760D01*
X149900347Y-95567290D01*
X149989163Y-95612545D01*
X149989165Y-95612545D01*
X149989168Y-95612547D01*
X150029618Y-95625690D01*
X150168881Y-95670940D01*
X150355514Y-95700500D01*
X150355519Y-95700500D01*
X150544486Y-95700500D01*
X150731118Y-95670940D01*
X150761753Y-95660986D01*
X150910832Y-95612547D01*
X151079199Y-95526760D01*
X151232073Y-95415690D01*
X151365690Y-95282073D01*
X151476760Y-95129199D01*
X151562547Y-94960832D01*
X151620940Y-94781118D01*
X151624415Y-94759175D01*
X151650500Y-94594486D01*
X151650500Y-94405513D01*
X151620940Y-94218881D01*
X151588974Y-94120501D01*
X151562547Y-94039168D01*
X151562545Y-94039165D01*
X151562545Y-94039163D01*
X151511538Y-93939057D01*
X151476760Y-93870801D01*
X151365690Y-93717927D01*
X151232073Y-93584310D01*
X151146845Y-93522388D01*
X151101615Y-93489526D01*
X151058950Y-93434195D01*
X151050501Y-93389208D01*
X151050501Y-93290945D01*
X151050501Y-93290943D01*
X151009577Y-93138215D01*
X150980639Y-93088095D01*
X150930520Y-93001284D01*
X150818716Y-92889480D01*
X150818715Y-92889479D01*
X150814385Y-92885149D01*
X150814374Y-92885139D01*
X148913757Y-90984522D01*
X148880272Y-90923199D01*
X148883507Y-90858523D01*
X148897246Y-90816243D01*
X148930500Y-90606287D01*
X148930500Y-90393713D01*
X148897246Y-90183757D01*
X148831557Y-89981588D01*
X148735051Y-89792184D01*
X148735049Y-89792181D01*
X148735048Y-89792179D01*
X148610109Y-89620213D01*
X148459786Y-89469890D01*
X148287820Y-89344951D01*
X148098414Y-89248444D01*
X148098413Y-89248443D01*
X148098412Y-89248443D01*
X147896243Y-89182754D01*
X147896241Y-89182753D01*
X147896240Y-89182753D01*
X147734957Y-89157208D01*
X147686287Y-89149500D01*
X147473713Y-89149500D01*
X147445006Y-89154046D01*
X147263757Y-89182753D01*
X147221473Y-89196492D01*
X147151632Y-89198486D01*
X147095476Y-89166241D01*
X145596891Y-87667656D01*
X145563406Y-87606333D01*
X145568390Y-87536641D01*
X145596891Y-87492294D01*
X145597219Y-87491966D01*
X145741966Y-87347219D01*
X145741968Y-87347215D01*
X145741971Y-87347213D01*
X145862284Y-87181614D01*
X145862285Y-87181613D01*
X145862287Y-87181610D01*
X145909516Y-87088917D01*
X145957489Y-87038123D01*
X146025310Y-87021328D01*
X146091445Y-87043865D01*
X146130483Y-87088917D01*
X146174348Y-87175006D01*
X146177715Y-87181614D01*
X146298028Y-87347213D01*
X146442786Y-87491971D01*
X146587974Y-87597454D01*
X146608390Y-87612287D01*
X146715943Y-87667088D01*
X146790776Y-87705218D01*
X146790778Y-87705218D01*
X146790781Y-87705220D01*
X146868659Y-87730524D01*
X146985465Y-87768477D01*
X147086557Y-87784488D01*
X147187648Y-87800500D01*
X147187649Y-87800500D01*
X147392351Y-87800500D01*
X147392352Y-87800500D01*
X147594534Y-87768477D01*
X147789219Y-87705220D01*
X147971610Y-87612287D01*
X148100482Y-87518657D01*
X148137213Y-87491971D01*
X148137215Y-87491968D01*
X148137219Y-87491966D01*
X148281966Y-87347219D01*
X148281968Y-87347215D01*
X148281971Y-87347213D01*
X148386892Y-87202799D01*
X148402287Y-87181610D01*
X148495220Y-86999219D01*
X148558477Y-86804534D01*
X148590500Y-86602352D01*
X148590500Y-86397648D01*
X148572396Y-86283343D01*
X148558477Y-86195465D01*
X148529127Y-86105137D01*
X148495220Y-86000781D01*
X148495218Y-86000778D01*
X148495218Y-86000776D01*
X148458212Y-85928148D01*
X148402287Y-85818390D01*
X148350021Y-85746451D01*
X148281971Y-85652786D01*
X148137213Y-85508028D01*
X147971613Y-85387715D01*
X147971612Y-85387714D01*
X147971610Y-85387713D01*
X147861356Y-85331536D01*
X147792609Y-85296507D01*
X147741813Y-85248532D01*
X147725018Y-85180711D01*
X147747556Y-85114576D01*
X147802271Y-85071125D01*
X147848904Y-85062022D01*
X148411425Y-85062022D01*
X148478464Y-85081707D01*
X148499106Y-85098341D01*
X151015139Y-87614374D01*
X151015149Y-87614385D01*
X151019479Y-87618715D01*
X151019480Y-87618716D01*
X151131284Y-87730520D01*
X151131286Y-87730521D01*
X151131290Y-87730524D01*
X151241774Y-87794311D01*
X151268216Y-87809577D01*
X151380019Y-87839534D01*
X151420942Y-87850500D01*
X151420943Y-87850500D01*
X155043940Y-87850500D01*
X155110979Y-87870185D01*
X155156734Y-87922989D01*
X155166678Y-87992147D01*
X155137653Y-88055703D01*
X155116824Y-88074819D01*
X155107347Y-88081704D01*
X155107345Y-88081705D01*
X154929205Y-88259845D01*
X154929201Y-88259850D01*
X154781132Y-88463651D01*
X154666760Y-88688116D01*
X154588910Y-88927714D01*
X154569852Y-89048041D01*
X154549500Y-89176538D01*
X154549500Y-90728462D01*
X154580344Y-90923199D01*
X154588910Y-90977285D01*
X154666760Y-91216883D01*
X154745413Y-91371247D01*
X154776514Y-91432286D01*
X154781132Y-91441348D01*
X154929201Y-91645149D01*
X154929205Y-91645154D01*
X155107345Y-91823294D01*
X155107350Y-91823298D01*
X155192790Y-91885373D01*
X155311155Y-91971370D01*
X155454184Y-92044247D01*
X155535616Y-92085739D01*
X155535618Y-92085739D01*
X155535621Y-92085741D01*
X155775215Y-92163590D01*
X156024038Y-92203000D01*
X156024039Y-92203000D01*
X156275961Y-92203000D01*
X156275962Y-92203000D01*
X156524785Y-92163590D01*
X156764379Y-92085741D01*
X156988845Y-91971370D01*
X157192656Y-91823293D01*
X157370793Y-91645156D01*
X157373489Y-91641446D01*
X157434298Y-91557748D01*
X157489628Y-91515081D01*
X157559241Y-91509102D01*
X157590912Y-91520147D01*
X157594593Y-91522022D01*
X157594595Y-91522024D01*
X157610463Y-91530109D01*
X157769970Y-91611382D01*
X157769972Y-91611382D01*
X157769975Y-91611384D01*
X157834994Y-91632510D01*
X157957173Y-91672209D01*
X158151578Y-91703000D01*
X158151583Y-91703000D01*
X158348422Y-91703000D01*
X158542826Y-91672209D01*
X158574098Y-91662048D01*
X158730025Y-91611384D01*
X158905405Y-91522024D01*
X159064646Y-91406328D01*
X159162319Y-91308655D01*
X159223642Y-91275170D01*
X159293334Y-91280154D01*
X159337681Y-91308655D01*
X159435354Y-91406328D01*
X159594595Y-91522024D01*
X159664708Y-91557748D01*
X159769970Y-91611382D01*
X159769972Y-91611382D01*
X159769975Y-91611384D01*
X159957174Y-91672209D01*
X160044901Y-91686103D01*
X160108031Y-91716030D01*
X160144963Y-91775341D01*
X160149500Y-91808575D01*
X160149500Y-93389207D01*
X160129815Y-93456246D01*
X160098386Y-93489525D01*
X159967925Y-93584311D01*
X159834312Y-93717924D01*
X159834312Y-93717925D01*
X159834310Y-93717927D01*
X159801149Y-93763569D01*
X159723240Y-93870800D01*
X159637454Y-94039163D01*
X159579059Y-94218881D01*
X159549500Y-94405513D01*
X159549500Y-94594486D01*
X159579059Y-94781118D01*
X159637454Y-94960836D01*
X159720863Y-95124534D01*
X159723240Y-95129199D01*
X159834310Y-95282073D01*
X159967927Y-95415690D01*
X160120801Y-95526760D01*
X160200347Y-95567290D01*
X160289163Y-95612545D01*
X160289165Y-95612545D01*
X160289168Y-95612547D01*
X160329618Y-95625690D01*
X160468881Y-95670940D01*
X160655514Y-95700500D01*
X160655519Y-95700500D01*
X160844486Y-95700500D01*
X161031118Y-95670940D01*
X161061753Y-95660986D01*
X161210832Y-95612547D01*
X161379199Y-95526760D01*
X161532073Y-95415690D01*
X161665690Y-95282073D01*
X161776760Y-95129199D01*
X161862547Y-94960832D01*
X161915493Y-94797882D01*
X168345669Y-94797882D01*
X168345670Y-94797883D01*
X168371059Y-94816329D01*
X168539362Y-94902085D01*
X168718997Y-94960451D01*
X168905553Y-94990000D01*
X169094447Y-94990000D01*
X169281002Y-94960451D01*
X169460637Y-94902085D01*
X169628937Y-94816331D01*
X169654328Y-94797883D01*
X169654328Y-94797882D01*
X169000001Y-94143554D01*
X169000000Y-94143554D01*
X168345669Y-94797882D01*
X161915493Y-94797882D01*
X161920940Y-94781118D01*
X161925331Y-94753390D01*
X161928843Y-94731224D01*
X161928843Y-94731223D01*
X161950500Y-94594486D01*
X161950500Y-94405513D01*
X161920940Y-94218881D01*
X161888974Y-94120501D01*
X161862547Y-94039168D01*
X161862545Y-94039165D01*
X161862545Y-94039163D01*
X161811538Y-93939057D01*
X161776760Y-93870801D01*
X161698852Y-93763571D01*
X161698852Y-93763569D01*
X161665694Y-93717933D01*
X161665690Y-93717927D01*
X161643315Y-93695552D01*
X167800000Y-93695552D01*
X167800000Y-93884447D01*
X167829548Y-94071002D01*
X167887914Y-94250637D01*
X167973666Y-94418933D01*
X167992116Y-94444328D01*
X168646446Y-93790000D01*
X168646446Y-93789999D01*
X168600369Y-93743922D01*
X168650000Y-93743922D01*
X168650000Y-93836078D01*
X168673852Y-93925095D01*
X168719930Y-94004905D01*
X168785095Y-94070070D01*
X168864905Y-94116148D01*
X168953922Y-94140000D01*
X169046078Y-94140000D01*
X169135095Y-94116148D01*
X169214905Y-94070070D01*
X169280070Y-94004905D01*
X169326148Y-93925095D01*
X169350000Y-93836078D01*
X169350000Y-93789999D01*
X169353554Y-93789999D01*
X169353554Y-93790000D01*
X170007882Y-94444328D01*
X170007883Y-94444328D01*
X170026331Y-94418937D01*
X170112085Y-94250637D01*
X170170451Y-94071002D01*
X170200000Y-93884447D01*
X170200000Y-93695552D01*
X170199994Y-93695513D01*
X172299500Y-93695513D01*
X172299500Y-93884486D01*
X172329059Y-94071118D01*
X172387454Y-94250836D01*
X172456810Y-94386953D01*
X172473240Y-94419199D01*
X172584310Y-94572073D01*
X172717927Y-94705690D01*
X172870801Y-94816760D01*
X172894131Y-94828647D01*
X173039163Y-94902545D01*
X173039165Y-94902545D01*
X173039168Y-94902547D01*
X173135497Y-94933846D01*
X173218881Y-94960940D01*
X173405514Y-94990500D01*
X173405519Y-94990500D01*
X173594486Y-94990500D01*
X173781118Y-94960940D01*
X173782623Y-94960451D01*
X173960832Y-94902547D01*
X174129199Y-94816760D01*
X174282073Y-94705690D01*
X174415690Y-94572073D01*
X174526760Y-94419199D01*
X174612547Y-94250832D01*
X174670940Y-94071118D01*
X174686515Y-93972781D01*
X174700500Y-93884486D01*
X174700500Y-93695513D01*
X174670940Y-93508881D01*
X174619897Y-93351790D01*
X174612547Y-93329168D01*
X174612545Y-93329165D01*
X174612545Y-93329163D01*
X174546251Y-93199055D01*
X174526760Y-93160801D01*
X174415690Y-93007927D01*
X174282073Y-92874310D01*
X174129199Y-92763240D01*
X173960836Y-92677454D01*
X173781118Y-92619059D01*
X173594486Y-92589500D01*
X173594481Y-92589500D01*
X173405519Y-92589500D01*
X173405514Y-92589500D01*
X173218881Y-92619059D01*
X173039163Y-92677454D01*
X172870800Y-92763240D01*
X172831333Y-92791915D01*
X172717927Y-92874310D01*
X172717925Y-92874312D01*
X172717924Y-92874312D01*
X172584312Y-93007924D01*
X172584312Y-93007925D01*
X172584310Y-93007927D01*
X172562764Y-93037583D01*
X172473240Y-93160800D01*
X172387454Y-93329163D01*
X172329059Y-93508881D01*
X172299500Y-93695513D01*
X170199994Y-93695513D01*
X170170451Y-93508997D01*
X170112085Y-93329362D01*
X170026329Y-93161059D01*
X170007883Y-93135670D01*
X170007882Y-93135669D01*
X169353554Y-93789999D01*
X169350000Y-93789999D01*
X169350000Y-93743922D01*
X169326148Y-93654905D01*
X169280070Y-93575095D01*
X169214905Y-93509930D01*
X169135095Y-93463852D01*
X169046078Y-93440000D01*
X168953922Y-93440000D01*
X168864905Y-93463852D01*
X168785095Y-93509930D01*
X168719930Y-93575095D01*
X168673852Y-93654905D01*
X168650000Y-93743922D01*
X168600369Y-93743922D01*
X167992116Y-93135669D01*
X167992116Y-93135670D01*
X167973669Y-93161060D01*
X167887914Y-93329362D01*
X167829548Y-93508997D01*
X167800000Y-93695552D01*
X161643315Y-93695552D01*
X161532073Y-93584310D01*
X161469791Y-93539059D01*
X161401614Y-93489525D01*
X161358948Y-93434194D01*
X161350500Y-93389207D01*
X161350500Y-92782116D01*
X168345669Y-92782116D01*
X169000000Y-93436446D01*
X169000001Y-93436446D01*
X169654328Y-92782116D01*
X169628933Y-92763666D01*
X169460637Y-92677914D01*
X169281002Y-92619548D01*
X169094447Y-92590000D01*
X168905553Y-92590000D01*
X168718997Y-92619548D01*
X168539362Y-92677914D01*
X168371060Y-92763669D01*
X168345670Y-92782116D01*
X168345669Y-92782116D01*
X161350500Y-92782116D01*
X161350500Y-91826500D01*
X161370185Y-91759461D01*
X161422989Y-91713706D01*
X161474500Y-91702500D01*
X162000000Y-91702500D01*
X162000000Y-90268186D01*
X162004394Y-90272580D01*
X162095606Y-90325241D01*
X162197339Y-90352500D01*
X162302661Y-90352500D01*
X162404394Y-90325241D01*
X162495606Y-90272580D01*
X162500000Y-90268186D01*
X162500000Y-91702500D01*
X163047828Y-91702500D01*
X163047841Y-91702499D01*
X163114096Y-91695375D01*
X163182856Y-91707779D01*
X163215034Y-91730983D01*
X163307345Y-91823294D01*
X163307350Y-91823298D01*
X163392790Y-91885373D01*
X163511155Y-91971370D01*
X163654184Y-92044247D01*
X163735616Y-92085739D01*
X163735618Y-92085739D01*
X163735621Y-92085741D01*
X163975215Y-92163590D01*
X164224038Y-92203000D01*
X164224039Y-92203000D01*
X164475961Y-92203000D01*
X164475962Y-92203000D01*
X164724785Y-92163590D01*
X164964379Y-92085741D01*
X165188845Y-91971370D01*
X165392656Y-91823293D01*
X165570793Y-91645156D01*
X165718870Y-91441345D01*
X165833241Y-91216879D01*
X165911090Y-90977285D01*
X165950500Y-90728462D01*
X165950500Y-89176538D01*
X165911090Y-88927715D01*
X165833241Y-88688121D01*
X165833239Y-88688118D01*
X165833239Y-88688116D01*
X165774003Y-88571860D01*
X165718870Y-88463655D01*
X165681040Y-88411586D01*
X165570798Y-88259850D01*
X165570794Y-88259845D01*
X165392654Y-88081705D01*
X165392649Y-88081701D01*
X165188847Y-87933631D01*
X164964383Y-87819260D01*
X164724785Y-87741410D01*
X164650226Y-87729601D01*
X164475962Y-87702000D01*
X164224038Y-87702000D01*
X164107815Y-87720408D01*
X163975214Y-87741410D01*
X163735616Y-87819260D01*
X163511153Y-87933631D01*
X163307350Y-88081701D01*
X163307345Y-88081705D01*
X163215032Y-88174017D01*
X163153709Y-88207501D01*
X163114096Y-88209624D01*
X163047844Y-88202500D01*
X162500000Y-88202500D01*
X162500000Y-89636814D01*
X162495606Y-89632420D01*
X162404394Y-89579759D01*
X162302661Y-89552500D01*
X162197339Y-89552500D01*
X162095606Y-89579759D01*
X162004394Y-89632420D01*
X162000000Y-89636814D01*
X162000000Y-88202500D01*
X161452155Y-88202500D01*
X161392627Y-88208901D01*
X161392620Y-88208903D01*
X161257913Y-88259145D01*
X161257906Y-88259149D01*
X161142812Y-88345309D01*
X161114169Y-88383571D01*
X161107635Y-88388461D01*
X161103826Y-88395681D01*
X161080072Y-88409094D01*
X161058234Y-88425442D01*
X161050092Y-88426024D01*
X161042986Y-88430037D01*
X161015754Y-88428479D01*
X160988542Y-88430425D01*
X160979582Y-88426410D01*
X160973231Y-88426047D01*
X160942018Y-88409577D01*
X160922892Y-88395681D01*
X160901614Y-88380221D01*
X160858949Y-88324890D01*
X160850501Y-88279904D01*
X160850501Y-88170944D01*
X160846923Y-88157590D01*
X160809577Y-88018216D01*
X160770122Y-87949877D01*
X160730524Y-87881290D01*
X160730518Y-87881282D01*
X159737590Y-86888355D01*
X159737588Y-86888352D01*
X159618717Y-86769481D01*
X159618716Y-86769480D01*
X159531904Y-86719360D01*
X159531904Y-86719359D01*
X159531900Y-86719358D01*
X159481785Y-86690423D01*
X159329057Y-86649499D01*
X159170943Y-86649499D01*
X159163347Y-86649499D01*
X159163331Y-86649500D01*
X156061986Y-86649500D01*
X155994947Y-86629815D01*
X155949192Y-86577011D01*
X155939248Y-86507853D01*
X155968273Y-86444297D01*
X156023665Y-86407569D01*
X156075992Y-86390568D01*
X156286433Y-86283343D01*
X156477510Y-86144517D01*
X156644517Y-85977510D01*
X156783343Y-85786433D01*
X156890568Y-85575992D01*
X156963553Y-85351368D01*
X156972242Y-85296507D01*
X157000500Y-85118097D01*
X157000500Y-84881947D01*
X158500000Y-84881947D01*
X158500000Y-85118052D01*
X158536934Y-85351247D01*
X158609897Y-85575802D01*
X158717087Y-85786174D01*
X158777338Y-85869104D01*
X158777340Y-85869105D01*
X159476212Y-85170233D01*
X159487482Y-85212292D01*
X159559890Y-85337708D01*
X159662292Y-85440110D01*
X159787708Y-85512518D01*
X159829765Y-85523787D01*
X159130893Y-86222658D01*
X159213828Y-86282914D01*
X159424197Y-86390102D01*
X159648752Y-86463065D01*
X159648751Y-86463065D01*
X159881948Y-86500000D01*
X160118052Y-86500000D01*
X160351247Y-86463065D01*
X160575802Y-86390102D01*
X160786163Y-86282918D01*
X160786169Y-86282914D01*
X160869104Y-86222658D01*
X160869105Y-86222658D01*
X160170233Y-85523787D01*
X160212292Y-85512518D01*
X160337708Y-85440110D01*
X160440110Y-85337708D01*
X160512518Y-85212292D01*
X160523787Y-85170234D01*
X161222658Y-85869105D01*
X161222658Y-85869104D01*
X161282914Y-85786169D01*
X161282918Y-85786163D01*
X161390102Y-85575802D01*
X161463065Y-85351247D01*
X161500000Y-85118052D01*
X161500000Y-84881947D01*
X161463065Y-84648752D01*
X161390102Y-84424197D01*
X161282914Y-84213828D01*
X161222658Y-84130894D01*
X161222658Y-84130893D01*
X160523787Y-84829765D01*
X160512518Y-84787708D01*
X160440110Y-84662292D01*
X160337708Y-84559890D01*
X160212292Y-84487482D01*
X160170234Y-84476212D01*
X160869105Y-83777340D01*
X160869104Y-83777338D01*
X160786174Y-83717087D01*
X160575802Y-83609897D01*
X160351247Y-83536934D01*
X160351248Y-83536934D01*
X160118052Y-83500000D01*
X159881948Y-83500000D01*
X159648752Y-83536934D01*
X159424197Y-83609897D01*
X159213830Y-83717084D01*
X159130894Y-83777340D01*
X159829766Y-84476212D01*
X159787708Y-84487482D01*
X159662292Y-84559890D01*
X159559890Y-84662292D01*
X159487482Y-84787708D01*
X159476212Y-84829766D01*
X158777340Y-84130894D01*
X158717084Y-84213830D01*
X158609897Y-84424197D01*
X158536934Y-84648752D01*
X158500000Y-84881947D01*
X157000500Y-84881947D01*
X157000500Y-84881902D01*
X156963553Y-84648631D01*
X156929689Y-84544412D01*
X156890568Y-84424008D01*
X156890566Y-84424005D01*
X156890566Y-84424003D01*
X156783477Y-84213830D01*
X156783343Y-84213567D01*
X156644517Y-84022490D01*
X156477510Y-83855483D01*
X156369953Y-83777338D01*
X156286431Y-83716655D01*
X156168204Y-83656415D01*
X156117409Y-83608441D01*
X156100500Y-83545931D01*
X156100500Y-79954067D01*
X156120185Y-79887028D01*
X156168205Y-79843582D01*
X156286433Y-79783343D01*
X156477510Y-79644517D01*
X156644517Y-79477510D01*
X156783343Y-79286433D01*
X156890568Y-79075992D01*
X156963553Y-78851368D01*
X156983472Y-78725606D01*
X157000500Y-78618097D01*
X157000500Y-78381947D01*
X158500000Y-78381947D01*
X158500000Y-78618052D01*
X158536934Y-78851247D01*
X158609897Y-79075802D01*
X158717087Y-79286174D01*
X158777338Y-79369104D01*
X158777340Y-79369105D01*
X159476212Y-78670233D01*
X159487482Y-78712292D01*
X159559890Y-78837708D01*
X159662292Y-78940110D01*
X159787708Y-79012518D01*
X159829765Y-79023787D01*
X159130893Y-79722658D01*
X159213828Y-79782914D01*
X159424197Y-79890102D01*
X159648752Y-79963065D01*
X159648751Y-79963065D01*
X159881948Y-80000000D01*
X160118052Y-80000000D01*
X160351247Y-79963065D01*
X160575802Y-79890102D01*
X160786163Y-79782918D01*
X160786169Y-79782914D01*
X160869104Y-79722658D01*
X160869105Y-79722658D01*
X160170233Y-79023787D01*
X160212292Y-79012518D01*
X160337708Y-78940110D01*
X160440110Y-78837708D01*
X160512518Y-78712292D01*
X160523787Y-78670234D01*
X161222658Y-79369105D01*
X161222658Y-79369104D01*
X161282914Y-79286169D01*
X161282918Y-79286163D01*
X161390102Y-79075802D01*
X161463065Y-78851247D01*
X161500000Y-78618052D01*
X161500000Y-78381947D01*
X161499993Y-78381902D01*
X163249500Y-78381902D01*
X163249500Y-78618097D01*
X163286446Y-78851368D01*
X163359433Y-79075996D01*
X163422658Y-79200080D01*
X163466657Y-79286433D01*
X163605483Y-79477510D01*
X163772490Y-79644517D01*
X163880042Y-79722658D01*
X163963568Y-79783344D01*
X164038177Y-79821358D01*
X164081794Y-79843582D01*
X164132590Y-79891556D01*
X164149500Y-79954067D01*
X164149500Y-83545931D01*
X164129815Y-83612970D01*
X164081796Y-83656415D01*
X163963568Y-83716655D01*
X163880044Y-83777340D01*
X163772490Y-83855483D01*
X163772488Y-83855485D01*
X163772487Y-83855485D01*
X163605485Y-84022487D01*
X163605485Y-84022488D01*
X163605483Y-84022490D01*
X163569459Y-84072073D01*
X163466657Y-84213566D01*
X163359433Y-84424003D01*
X163286446Y-84648631D01*
X163249500Y-84881902D01*
X163249500Y-85118097D01*
X163286446Y-85351368D01*
X163359433Y-85575996D01*
X163429022Y-85712570D01*
X163466657Y-85786433D01*
X163605483Y-85977510D01*
X163772490Y-86144517D01*
X163963567Y-86283343D01*
X164062991Y-86334002D01*
X164174003Y-86390566D01*
X164174005Y-86390566D01*
X164174008Y-86390568D01*
X164226332Y-86407569D01*
X164398631Y-86463553D01*
X164631903Y-86500500D01*
X164631908Y-86500500D01*
X164868097Y-86500500D01*
X164974126Y-86483705D01*
X165101368Y-86463553D01*
X165227566Y-86422547D01*
X165297404Y-86420553D01*
X165353563Y-86452798D01*
X167788747Y-88887982D01*
X167822232Y-88949305D01*
X167823539Y-88956263D01*
X167829059Y-88991116D01*
X167848687Y-89051523D01*
X167885961Y-89166241D01*
X167887454Y-89170834D01*
X167926998Y-89248443D01*
X167973240Y-89339199D01*
X168084310Y-89492073D01*
X168217927Y-89625690D01*
X168370801Y-89736760D01*
X168450347Y-89777290D01*
X168539163Y-89822545D01*
X168539165Y-89822545D01*
X168539168Y-89822547D01*
X168635497Y-89853846D01*
X168718881Y-89880940D01*
X168905514Y-89910500D01*
X168905519Y-89910500D01*
X169094486Y-89910500D01*
X169281118Y-89880940D01*
X169460832Y-89822547D01*
X169629199Y-89736760D01*
X169782073Y-89625690D01*
X169915690Y-89492073D01*
X170026760Y-89339199D01*
X170112547Y-89170832D01*
X170170940Y-88991118D01*
X170173893Y-88972475D01*
X170200500Y-88804486D01*
X170200500Y-88615513D01*
X170170940Y-88428881D01*
X170122534Y-88279904D01*
X170112547Y-88249168D01*
X170112545Y-88249165D01*
X170112545Y-88249163D01*
X170055237Y-88136690D01*
X170026760Y-88080801D01*
X169915690Y-87927927D01*
X169782073Y-87794310D01*
X169629199Y-87683240D01*
X169460836Y-87597454D01*
X169281118Y-87539059D01*
X169094486Y-87509500D01*
X169094481Y-87509500D01*
X168905519Y-87509500D01*
X168905514Y-87509500D01*
X168718881Y-87539059D01*
X168539163Y-87597454D01*
X168392560Y-87672153D01*
X168323890Y-87685049D01*
X168259150Y-87658772D01*
X168248584Y-87649349D01*
X166202798Y-85603563D01*
X166169313Y-85542240D01*
X166172547Y-85477566D01*
X166213553Y-85351368D01*
X166237606Y-85199501D01*
X166250500Y-85118097D01*
X166250500Y-84881902D01*
X167749500Y-84881902D01*
X167749500Y-85118097D01*
X167786446Y-85351368D01*
X167859433Y-85575996D01*
X167929022Y-85712570D01*
X167966657Y-85786433D01*
X168105483Y-85977510D01*
X168272490Y-86144517D01*
X168463567Y-86283343D01*
X168562991Y-86334002D01*
X168674003Y-86390566D01*
X168674005Y-86390566D01*
X168674008Y-86390568D01*
X168726332Y-86407569D01*
X168898631Y-86463553D01*
X169131903Y-86500500D01*
X169131908Y-86500500D01*
X169368097Y-86500500D01*
X169601368Y-86463553D01*
X169652291Y-86447007D01*
X169825992Y-86390568D01*
X170036433Y-86283343D01*
X170227510Y-86144517D01*
X170394517Y-85977510D01*
X170533343Y-85786433D01*
X170640568Y-85575992D01*
X170713553Y-85351368D01*
X170722242Y-85296507D01*
X170750500Y-85118097D01*
X170750500Y-84881902D01*
X170713553Y-84648631D01*
X170679689Y-84544412D01*
X170640568Y-84424008D01*
X170640566Y-84424005D01*
X170640566Y-84424003D01*
X170533477Y-84213830D01*
X170533343Y-84213567D01*
X170394517Y-84022490D01*
X170227510Y-83855483D01*
X170036433Y-83716657D01*
X170036429Y-83716655D01*
X169825996Y-83609433D01*
X169601368Y-83536446D01*
X169368097Y-83499500D01*
X169368092Y-83499500D01*
X169131908Y-83499500D01*
X169131903Y-83499500D01*
X168898631Y-83536446D01*
X168674003Y-83609433D01*
X168463566Y-83716657D01*
X168380047Y-83777338D01*
X168272490Y-83855483D01*
X168272488Y-83855485D01*
X168272487Y-83855485D01*
X168105485Y-84022487D01*
X168105485Y-84022488D01*
X168105483Y-84022490D01*
X168069459Y-84072073D01*
X167966657Y-84213566D01*
X167859433Y-84424003D01*
X167786446Y-84648631D01*
X167749500Y-84881902D01*
X166250500Y-84881902D01*
X166213553Y-84648631D01*
X166179689Y-84544412D01*
X166140568Y-84424008D01*
X166140566Y-84424005D01*
X166140566Y-84424003D01*
X166033477Y-84213830D01*
X166033343Y-84213567D01*
X165894517Y-84022490D01*
X165727510Y-83855483D01*
X165619953Y-83777338D01*
X165536431Y-83716655D01*
X165418204Y-83656415D01*
X165367409Y-83608441D01*
X165350500Y-83545931D01*
X165350500Y-79954067D01*
X165370185Y-79887028D01*
X165418205Y-79843582D01*
X165536433Y-79783343D01*
X165727510Y-79644517D01*
X165894517Y-79477510D01*
X166033343Y-79286433D01*
X166140568Y-79075992D01*
X166213553Y-78851368D01*
X166233472Y-78725606D01*
X166250500Y-78618097D01*
X166250500Y-78381902D01*
X167749500Y-78381902D01*
X167749500Y-78618097D01*
X167786446Y-78851368D01*
X167859433Y-79075996D01*
X167922658Y-79200080D01*
X167966657Y-79286433D01*
X168105483Y-79477510D01*
X168272490Y-79644517D01*
X168463567Y-79783343D01*
X168562991Y-79834002D01*
X168674003Y-79890566D01*
X168674005Y-79890566D01*
X168674008Y-79890568D01*
X168794412Y-79929689D01*
X168898631Y-79963553D01*
X169131903Y-80000500D01*
X169131908Y-80000500D01*
X169368097Y-80000500D01*
X169601368Y-79963553D01*
X169630563Y-79954067D01*
X169825992Y-79890568D01*
X170036433Y-79783343D01*
X170227510Y-79644517D01*
X170394517Y-79477510D01*
X170533343Y-79286433D01*
X170640568Y-79075992D01*
X170713553Y-78851368D01*
X170733472Y-78725606D01*
X170750500Y-78618097D01*
X170750500Y-78381902D01*
X171999500Y-78381902D01*
X171999500Y-78618097D01*
X172036446Y-78851368D01*
X172109433Y-79075996D01*
X172172658Y-79200080D01*
X172216657Y-79286433D01*
X172355483Y-79477510D01*
X172522490Y-79644517D01*
X172630042Y-79722658D01*
X172713568Y-79783344D01*
X172788177Y-79821358D01*
X172831794Y-79843582D01*
X172882590Y-79891556D01*
X172899500Y-79954067D01*
X172899500Y-83545931D01*
X172879815Y-83612970D01*
X172831796Y-83656415D01*
X172713568Y-83716655D01*
X172630044Y-83777340D01*
X172522490Y-83855483D01*
X172522488Y-83855485D01*
X172522487Y-83855485D01*
X172355485Y-84022487D01*
X172355485Y-84022488D01*
X172355483Y-84022490D01*
X172319459Y-84072073D01*
X172216657Y-84213566D01*
X172109433Y-84424003D01*
X172036446Y-84648631D01*
X171999500Y-84881902D01*
X171999500Y-85118097D01*
X172036446Y-85351368D01*
X172109433Y-85575996D01*
X172179022Y-85712570D01*
X172216657Y-85786433D01*
X172355483Y-85977510D01*
X172522490Y-86144517D01*
X172605849Y-86205081D01*
X172713568Y-86283344D01*
X172788177Y-86321358D01*
X172831794Y-86343582D01*
X172882590Y-86391556D01*
X172899500Y-86454067D01*
X172899500Y-87599207D01*
X172879815Y-87666246D01*
X172848386Y-87699525D01*
X172717925Y-87794311D01*
X172584312Y-87927924D01*
X172584312Y-87927925D01*
X172584310Y-87927927D01*
X172537651Y-87992147D01*
X172473240Y-88080800D01*
X172387454Y-88249163D01*
X172329059Y-88428881D01*
X172299500Y-88615513D01*
X172299500Y-88804486D01*
X172329059Y-88991118D01*
X172387454Y-89170836D01*
X172449421Y-89292452D01*
X172473240Y-89339199D01*
X172584310Y-89492073D01*
X172717927Y-89625690D01*
X172870801Y-89736760D01*
X172950347Y-89777290D01*
X173039163Y-89822545D01*
X173039165Y-89822545D01*
X173039168Y-89822547D01*
X173135497Y-89853846D01*
X173218881Y-89880940D01*
X173405514Y-89910500D01*
X173405519Y-89910500D01*
X173594486Y-89910500D01*
X173781118Y-89880940D01*
X173960832Y-89822547D01*
X174129199Y-89736760D01*
X174282073Y-89625690D01*
X174415690Y-89492073D01*
X174526760Y-89339199D01*
X174612547Y-89170832D01*
X174670940Y-88991118D01*
X174673893Y-88972475D01*
X174700500Y-88804486D01*
X174700500Y-88615513D01*
X174670940Y-88428881D01*
X174622534Y-88279904D01*
X174612547Y-88249168D01*
X174612545Y-88249165D01*
X174612545Y-88249163D01*
X174555237Y-88136690D01*
X174526760Y-88080801D01*
X174415690Y-87927927D01*
X174282073Y-87794310D01*
X174200184Y-87734814D01*
X174151614Y-87699525D01*
X174108948Y-87644194D01*
X174100500Y-87599207D01*
X174100500Y-87118872D01*
X181659500Y-87118872D01*
X181659500Y-87381127D01*
X181680294Y-87539060D01*
X181693730Y-87641116D01*
X181746896Y-87839534D01*
X181761602Y-87894418D01*
X181761605Y-87894428D01*
X181861953Y-88136690D01*
X181861958Y-88136700D01*
X181993075Y-88363803D01*
X182152718Y-88571851D01*
X182152726Y-88571860D01*
X182338140Y-88757274D01*
X182338148Y-88757281D01*
X182546196Y-88916924D01*
X182773299Y-89048041D01*
X182773309Y-89048046D01*
X183015571Y-89148394D01*
X183015581Y-89148398D01*
X183268884Y-89216270D01*
X183528880Y-89250500D01*
X183528887Y-89250500D01*
X183791113Y-89250500D01*
X183791120Y-89250500D01*
X184051116Y-89216270D01*
X184304419Y-89148398D01*
X184546697Y-89048043D01*
X184773803Y-88916924D01*
X184981851Y-88757282D01*
X184981855Y-88757277D01*
X184981860Y-88757274D01*
X185167274Y-88571860D01*
X185167277Y-88571855D01*
X185167282Y-88571851D01*
X185326924Y-88363803D01*
X185458043Y-88136697D01*
X185558398Y-87894419D01*
X185626270Y-87641116D01*
X185660500Y-87381120D01*
X185660500Y-87118880D01*
X185626270Y-86858884D01*
X185558398Y-86605581D01*
X185495113Y-86452798D01*
X185458046Y-86363309D01*
X185458041Y-86363299D01*
X185326924Y-86136196D01*
X185167281Y-85928148D01*
X185167274Y-85928140D01*
X184981860Y-85742726D01*
X184981851Y-85742718D01*
X184773803Y-85583075D01*
X184546700Y-85451958D01*
X184546690Y-85451953D01*
X184304428Y-85351605D01*
X184304421Y-85351603D01*
X184304419Y-85351602D01*
X184051116Y-85283730D01*
X183993339Y-85276123D01*
X183791127Y-85249500D01*
X183791120Y-85249500D01*
X183528880Y-85249500D01*
X183528872Y-85249500D01*
X183297772Y-85279926D01*
X183268884Y-85283730D01*
X183016906Y-85351247D01*
X183015581Y-85351602D01*
X183015571Y-85351605D01*
X182773309Y-85451953D01*
X182773299Y-85451958D01*
X182546196Y-85583075D01*
X182338148Y-85742718D01*
X182152718Y-85928148D01*
X181993075Y-86136196D01*
X181861958Y-86363299D01*
X181861953Y-86363309D01*
X181761605Y-86605571D01*
X181761602Y-86605581D01*
X181717686Y-86769481D01*
X181693730Y-86858885D01*
X181659500Y-87118872D01*
X174100500Y-87118872D01*
X174100500Y-86454067D01*
X174120185Y-86387028D01*
X174168205Y-86343582D01*
X174286433Y-86283343D01*
X174477510Y-86144517D01*
X174644517Y-85977510D01*
X174783343Y-85786433D01*
X174890568Y-85575992D01*
X174963553Y-85351368D01*
X174972242Y-85296507D01*
X175000500Y-85118097D01*
X175000500Y-84881947D01*
X176500000Y-84881947D01*
X176500000Y-85118052D01*
X176536934Y-85351247D01*
X176609897Y-85575802D01*
X176717087Y-85786174D01*
X176777338Y-85869104D01*
X176777340Y-85869105D01*
X177476212Y-85170233D01*
X177487482Y-85212292D01*
X177559890Y-85337708D01*
X177662292Y-85440110D01*
X177787708Y-85512518D01*
X177829765Y-85523787D01*
X177130893Y-86222658D01*
X177213828Y-86282914D01*
X177424197Y-86390102D01*
X177648752Y-86463065D01*
X177648751Y-86463065D01*
X177881948Y-86500000D01*
X178118052Y-86500000D01*
X178351247Y-86463065D01*
X178575802Y-86390102D01*
X178786163Y-86282918D01*
X178786169Y-86282914D01*
X178869104Y-86222658D01*
X178869105Y-86222658D01*
X178170233Y-85523787D01*
X178212292Y-85512518D01*
X178337708Y-85440110D01*
X178440110Y-85337708D01*
X178512518Y-85212292D01*
X178523787Y-85170234D01*
X179222658Y-85869105D01*
X179222658Y-85869104D01*
X179282914Y-85786169D01*
X179282918Y-85786163D01*
X179390102Y-85575802D01*
X179463065Y-85351247D01*
X179500000Y-85118052D01*
X179500000Y-84881947D01*
X179463065Y-84648752D01*
X179390102Y-84424197D01*
X179282914Y-84213828D01*
X179222658Y-84130894D01*
X179222658Y-84130893D01*
X178523787Y-84829765D01*
X178512518Y-84787708D01*
X178440110Y-84662292D01*
X178337708Y-84559890D01*
X178212292Y-84487482D01*
X178170234Y-84476212D01*
X178869105Y-83777340D01*
X178869104Y-83777338D01*
X178786174Y-83717087D01*
X178575802Y-83609897D01*
X178351247Y-83536934D01*
X178351248Y-83536934D01*
X178118052Y-83500000D01*
X177881948Y-83500000D01*
X177648752Y-83536934D01*
X177424197Y-83609897D01*
X177213830Y-83717084D01*
X177130894Y-83777340D01*
X177829766Y-84476212D01*
X177787708Y-84487482D01*
X177662292Y-84559890D01*
X177559890Y-84662292D01*
X177487482Y-84787708D01*
X177476212Y-84829766D01*
X176777340Y-84130894D01*
X176717084Y-84213830D01*
X176609897Y-84424197D01*
X176536934Y-84648752D01*
X176500000Y-84881947D01*
X175000500Y-84881947D01*
X175000500Y-84881902D01*
X174963553Y-84648631D01*
X174929689Y-84544412D01*
X174890568Y-84424008D01*
X174890566Y-84424005D01*
X174890566Y-84424003D01*
X174783477Y-84213830D01*
X174783343Y-84213567D01*
X174644517Y-84022490D01*
X174477510Y-83855483D01*
X174369953Y-83777338D01*
X174286431Y-83716655D01*
X174168204Y-83656415D01*
X174117409Y-83608441D01*
X174100500Y-83545931D01*
X174100500Y-79954067D01*
X174120185Y-79887028D01*
X174168205Y-79843582D01*
X174286433Y-79783343D01*
X174477510Y-79644517D01*
X174644517Y-79477510D01*
X174783343Y-79286433D01*
X174890568Y-79075992D01*
X174963553Y-78851368D01*
X174983472Y-78725606D01*
X175000500Y-78618097D01*
X175000500Y-78381947D01*
X176500000Y-78381947D01*
X176500000Y-78618052D01*
X176536934Y-78851247D01*
X176609897Y-79075802D01*
X176717087Y-79286174D01*
X176777338Y-79369104D01*
X176777340Y-79369105D01*
X177476212Y-78670233D01*
X177487482Y-78712292D01*
X177559890Y-78837708D01*
X177662292Y-78940110D01*
X177787708Y-79012518D01*
X177829765Y-79023787D01*
X177130893Y-79722658D01*
X177213828Y-79782914D01*
X177424197Y-79890102D01*
X177648752Y-79963065D01*
X177648751Y-79963065D01*
X177881948Y-80000000D01*
X178118052Y-80000000D01*
X178351247Y-79963065D01*
X178575802Y-79890102D01*
X178786163Y-79782918D01*
X178786169Y-79782914D01*
X178869104Y-79722658D01*
X178869105Y-79722658D01*
X178170233Y-79023787D01*
X178212292Y-79012518D01*
X178337708Y-78940110D01*
X178440110Y-78837708D01*
X178512518Y-78712292D01*
X178523787Y-78670234D01*
X179222658Y-79369105D01*
X179222658Y-79369104D01*
X179282914Y-79286169D01*
X179282918Y-79286163D01*
X179390102Y-79075802D01*
X179463065Y-78851247D01*
X179500000Y-78618052D01*
X179500000Y-78381947D01*
X179463065Y-78148752D01*
X179390102Y-77924197D01*
X179282914Y-77713828D01*
X179222658Y-77630894D01*
X179222658Y-77630893D01*
X178523787Y-78329765D01*
X178512518Y-78287708D01*
X178440110Y-78162292D01*
X178337708Y-78059890D01*
X178212292Y-77987482D01*
X178170234Y-77976212D01*
X178869105Y-77277340D01*
X178869104Y-77277338D01*
X178786174Y-77217087D01*
X178575802Y-77109897D01*
X178351247Y-77036934D01*
X178351248Y-77036934D01*
X178118052Y-77000000D01*
X177881948Y-77000000D01*
X177648752Y-77036934D01*
X177424197Y-77109897D01*
X177213830Y-77217084D01*
X177130894Y-77277340D01*
X177829766Y-77976212D01*
X177787708Y-77987482D01*
X177662292Y-78059890D01*
X177559890Y-78162292D01*
X177487482Y-78287708D01*
X177476212Y-78329766D01*
X176777340Y-77630894D01*
X176717084Y-77713830D01*
X176609897Y-77924197D01*
X176536934Y-78148752D01*
X176500000Y-78381947D01*
X175000500Y-78381947D01*
X175000500Y-78381902D01*
X174963553Y-78148631D01*
X174890566Y-77924003D01*
X174783477Y-77713830D01*
X174783343Y-77713567D01*
X174644517Y-77522490D01*
X174477510Y-77355483D01*
X174286433Y-77216657D01*
X174075996Y-77109433D01*
X173851368Y-77036446D01*
X173618097Y-76999500D01*
X173618092Y-76999500D01*
X173381908Y-76999500D01*
X173381903Y-76999500D01*
X173148631Y-77036446D01*
X172924003Y-77109433D01*
X172713566Y-77216657D01*
X172630047Y-77277338D01*
X172522490Y-77355483D01*
X172522488Y-77355485D01*
X172522487Y-77355485D01*
X172355485Y-77522487D01*
X172355485Y-77522488D01*
X172355483Y-77522490D01*
X172309398Y-77585921D01*
X172216657Y-77713566D01*
X172109433Y-77924003D01*
X172036446Y-78148631D01*
X171999500Y-78381902D01*
X170750500Y-78381902D01*
X170713553Y-78148631D01*
X170640566Y-77924003D01*
X170533477Y-77713830D01*
X170533343Y-77713567D01*
X170394517Y-77522490D01*
X170227510Y-77355483D01*
X170036433Y-77216657D01*
X169825996Y-77109433D01*
X169601368Y-77036446D01*
X169368097Y-76999500D01*
X169368092Y-76999500D01*
X169131908Y-76999500D01*
X169131903Y-76999500D01*
X168898631Y-77036446D01*
X168674003Y-77109433D01*
X168463566Y-77216657D01*
X168380047Y-77277338D01*
X168272490Y-77355483D01*
X168272488Y-77355485D01*
X168272487Y-77355485D01*
X168105485Y-77522487D01*
X168105485Y-77522488D01*
X168105483Y-77522490D01*
X168059398Y-77585921D01*
X167966657Y-77713566D01*
X167859433Y-77924003D01*
X167786446Y-78148631D01*
X167749500Y-78381902D01*
X166250500Y-78381902D01*
X166213553Y-78148631D01*
X166140566Y-77924003D01*
X166033477Y-77713830D01*
X166033343Y-77713567D01*
X165894517Y-77522490D01*
X165727510Y-77355483D01*
X165536433Y-77216657D01*
X165325996Y-77109433D01*
X165101368Y-77036446D01*
X164868097Y-76999500D01*
X164868092Y-76999500D01*
X164631908Y-76999500D01*
X164631903Y-76999500D01*
X164398631Y-77036446D01*
X164174003Y-77109433D01*
X163963566Y-77216657D01*
X163880047Y-77277338D01*
X163772490Y-77355483D01*
X163772488Y-77355485D01*
X163772487Y-77355485D01*
X163605485Y-77522487D01*
X163605485Y-77522488D01*
X163605483Y-77522490D01*
X163559398Y-77585921D01*
X163466657Y-77713566D01*
X163359433Y-77924003D01*
X163286446Y-78148631D01*
X163249500Y-78381902D01*
X161499993Y-78381902D01*
X161463065Y-78148752D01*
X161390102Y-77924197D01*
X161282914Y-77713828D01*
X161222658Y-77630894D01*
X161222658Y-77630893D01*
X160523787Y-78329765D01*
X160512518Y-78287708D01*
X160440110Y-78162292D01*
X160337708Y-78059890D01*
X160212292Y-77987482D01*
X160170234Y-77976212D01*
X160869105Y-77277340D01*
X160869104Y-77277338D01*
X160786174Y-77217087D01*
X160575802Y-77109897D01*
X160351247Y-77036934D01*
X160351248Y-77036934D01*
X160118052Y-77000000D01*
X159881948Y-77000000D01*
X159648752Y-77036934D01*
X159424197Y-77109897D01*
X159213830Y-77217084D01*
X159130894Y-77277340D01*
X159829766Y-77976212D01*
X159787708Y-77987482D01*
X159662292Y-78059890D01*
X159559890Y-78162292D01*
X159487482Y-78287708D01*
X159476212Y-78329766D01*
X158777340Y-77630894D01*
X158717084Y-77713830D01*
X158609897Y-77924197D01*
X158536934Y-78148752D01*
X158500000Y-78381947D01*
X157000500Y-78381947D01*
X157000500Y-78381902D01*
X156963553Y-78148631D01*
X156890566Y-77924003D01*
X156783477Y-77713830D01*
X156783343Y-77713567D01*
X156644517Y-77522490D01*
X156477510Y-77355483D01*
X156286433Y-77216657D01*
X156075996Y-77109433D01*
X155851368Y-77036446D01*
X155618097Y-76999500D01*
X155618092Y-76999500D01*
X155381908Y-76999500D01*
X155381903Y-76999500D01*
X155148631Y-77036446D01*
X154924003Y-77109433D01*
X154713566Y-77216657D01*
X154630047Y-77277338D01*
X154522490Y-77355483D01*
X154522488Y-77355485D01*
X154522487Y-77355485D01*
X154355482Y-77522490D01*
X154329402Y-77558387D01*
X154274072Y-77601052D01*
X154229085Y-77609500D01*
X153610792Y-77609500D01*
X153543753Y-77589815D01*
X153510474Y-77558386D01*
X153484394Y-77522490D01*
X153415690Y-77427927D01*
X153282073Y-77294310D01*
X153129199Y-77183240D01*
X152960836Y-77097454D01*
X152781118Y-77039059D01*
X152594486Y-77009500D01*
X152594481Y-77009500D01*
X152405519Y-77009500D01*
X152405514Y-77009500D01*
X152241651Y-77035453D01*
X152217425Y-77032322D01*
X152193020Y-77033485D01*
X152177096Y-77027110D01*
X152172357Y-77026498D01*
X152160254Y-77020368D01*
X152124109Y-76999500D01*
X152071904Y-76969360D01*
X152021785Y-76940423D01*
X151869057Y-76899499D01*
X151710943Y-76899499D01*
X151703347Y-76899499D01*
X151703331Y-76899500D01*
X141136670Y-76899500D01*
X141136654Y-76899499D01*
X141129058Y-76899499D01*
X140970943Y-76899499D01*
X140894579Y-76919961D01*
X140818214Y-76940423D01*
X140818209Y-76940426D01*
X140681290Y-77019475D01*
X140681282Y-77019481D01*
X140114841Y-77585921D01*
X140053518Y-77619406D01*
X139988845Y-77616172D01*
X139974535Y-77611523D01*
X139837477Y-77589815D01*
X139772352Y-77579500D01*
X139567648Y-77579500D01*
X139543329Y-77583351D01*
X139365465Y-77611522D01*
X139170776Y-77674781D01*
X138988386Y-77767715D01*
X138822786Y-77888028D01*
X138678028Y-78032786D01*
X138557713Y-78198388D01*
X138510203Y-78291630D01*
X138462228Y-78342426D01*
X138394407Y-78359220D01*
X138328272Y-78336682D01*
X138289234Y-78291628D01*
X138241861Y-78198652D01*
X138209474Y-78154077D01*
X138209474Y-78154076D01*
X137530000Y-78833551D01*
X137530000Y-78827339D01*
X137502741Y-78725606D01*
X137450080Y-78634394D01*
X137375606Y-78559920D01*
X137284394Y-78507259D01*
X137182661Y-78480000D01*
X137176446Y-78480000D01*
X137855922Y-77800524D01*
X137855921Y-77800523D01*
X137811359Y-77768147D01*
X137811350Y-77768141D01*
X137629031Y-77675244D01*
X137434417Y-77612009D01*
X137232317Y-77580000D01*
X137027683Y-77580000D01*
X136825582Y-77612009D01*
X136630968Y-77675244D01*
X136448644Y-77768143D01*
X136404077Y-77800523D01*
X136404077Y-77800524D01*
X137083554Y-78480000D01*
X137077339Y-78480000D01*
X136975606Y-78507259D01*
X136884394Y-78559920D01*
X136809920Y-78634394D01*
X136757259Y-78725606D01*
X136730000Y-78827339D01*
X136730000Y-78833553D01*
X136050524Y-78154077D01*
X136050523Y-78154077D01*
X136018143Y-78198644D01*
X135970765Y-78291630D01*
X135922790Y-78342426D01*
X135854969Y-78359221D01*
X135788834Y-78336683D01*
X135749795Y-78291630D01*
X135747797Y-78287708D01*
X135702287Y-78198390D01*
X135702285Y-78198387D01*
X135702284Y-78198385D01*
X135581971Y-78032786D01*
X135437213Y-77888028D01*
X135271613Y-77767715D01*
X135271612Y-77767714D01*
X135271610Y-77767713D01*
X135214653Y-77738691D01*
X135089223Y-77674781D01*
X134894534Y-77611522D01*
X134719995Y-77583878D01*
X134692352Y-77579500D01*
X134487648Y-77579500D01*
X134463329Y-77583351D01*
X134285465Y-77611522D01*
X134090776Y-77674781D01*
X133908386Y-77767715D01*
X133742786Y-77888028D01*
X133598028Y-78032786D01*
X133477715Y-78198386D01*
X133430485Y-78291080D01*
X133382510Y-78341876D01*
X133314689Y-78358671D01*
X133248554Y-78336134D01*
X133209515Y-78291080D01*
X133207797Y-78287708D01*
X133162287Y-78198390D01*
X133143832Y-78172989D01*
X133041971Y-78032786D01*
X132897213Y-77888028D01*
X132731613Y-77767715D01*
X132731612Y-77767714D01*
X132731610Y-77767713D01*
X132674653Y-77738691D01*
X132549223Y-77674781D01*
X132354534Y-77611522D01*
X132179995Y-77583878D01*
X132152352Y-77579500D01*
X131947648Y-77579500D01*
X131923329Y-77583351D01*
X131745465Y-77611522D01*
X131550776Y-77674781D01*
X131368386Y-77767715D01*
X131202786Y-77888028D01*
X131058028Y-78032786D01*
X130937713Y-78198388D01*
X130890203Y-78291630D01*
X130842228Y-78342426D01*
X130774407Y-78359220D01*
X130708272Y-78336682D01*
X130669234Y-78291628D01*
X130621861Y-78198652D01*
X130589474Y-78154077D01*
X130589474Y-78154076D01*
X129910000Y-78833551D01*
X129910000Y-78827339D01*
X129882741Y-78725606D01*
X129830080Y-78634394D01*
X129755606Y-78559920D01*
X129664394Y-78507259D01*
X129562661Y-78480000D01*
X129556446Y-78480000D01*
X130235922Y-77800524D01*
X130235921Y-77800523D01*
X130191359Y-77768147D01*
X130191350Y-77768141D01*
X130009031Y-77675244D01*
X129814417Y-77612009D01*
X129612317Y-77580000D01*
X129407683Y-77580000D01*
X129205582Y-77612009D01*
X129010968Y-77675244D01*
X128828644Y-77768143D01*
X128784077Y-77800523D01*
X128784077Y-77800524D01*
X129463554Y-78480000D01*
X129457339Y-78480000D01*
X129355606Y-78507259D01*
X129264394Y-78559920D01*
X129189920Y-78634394D01*
X129137259Y-78725606D01*
X129110000Y-78827339D01*
X129110000Y-78833553D01*
X128430524Y-78154077D01*
X128430523Y-78154077D01*
X128398143Y-78198644D01*
X128305244Y-78380968D01*
X128242009Y-78575582D01*
X128210000Y-78777682D01*
X128210000Y-78982317D01*
X128242009Y-79184417D01*
X128305244Y-79379031D01*
X128398141Y-79561350D01*
X128398147Y-79561359D01*
X128430523Y-79605921D01*
X128430524Y-79605922D01*
X129110000Y-78926446D01*
X129110000Y-78932661D01*
X129137259Y-79034394D01*
X129189920Y-79125606D01*
X129264394Y-79200080D01*
X129355606Y-79252741D01*
X129457339Y-79280000D01*
X129463553Y-79280000D01*
X128784076Y-79959474D01*
X128828650Y-79991859D01*
X129010968Y-80084755D01*
X129205582Y-80147990D01*
X129407683Y-80180000D01*
X129612317Y-80180000D01*
X129814417Y-80147990D01*
X130009031Y-80084755D01*
X130191349Y-79991859D01*
X130235921Y-79959474D01*
X129556447Y-79280000D01*
X129562661Y-79280000D01*
X129664394Y-79252741D01*
X129755606Y-79200080D01*
X129830080Y-79125606D01*
X129882741Y-79034394D01*
X129910000Y-78932661D01*
X129910000Y-78926447D01*
X130589474Y-79605921D01*
X130621861Y-79561347D01*
X130621861Y-79561346D01*
X130669234Y-79468371D01*
X130717208Y-79417575D01*
X130785028Y-79400779D01*
X130851164Y-79423316D01*
X130890203Y-79468369D01*
X130937713Y-79561611D01*
X131058028Y-79727213D01*
X131202786Y-79871971D01*
X131357749Y-79984556D01*
X131368390Y-79992287D01*
X131484607Y-80051503D01*
X131550776Y-80085218D01*
X131550778Y-80085218D01*
X131550781Y-80085220D01*
X131655137Y-80119127D01*
X131745465Y-80148477D01*
X131846557Y-80164488D01*
X131947648Y-80180500D01*
X131947649Y-80180500D01*
X132152351Y-80180500D01*
X132152352Y-80180500D01*
X132354534Y-80148477D01*
X132549219Y-80085220D01*
X132731610Y-79992287D01*
X132824590Y-79924732D01*
X132897213Y-79871971D01*
X132897215Y-79871968D01*
X132897219Y-79871966D01*
X133041966Y-79727219D01*
X133041968Y-79727215D01*
X133041971Y-79727213D01*
X133162284Y-79561614D01*
X133162286Y-79561611D01*
X133162287Y-79561610D01*
X133209516Y-79468917D01*
X133257489Y-79418123D01*
X133325310Y-79401328D01*
X133391445Y-79423865D01*
X133430483Y-79468917D01*
X133434863Y-79477512D01*
X133477715Y-79561614D01*
X133598028Y-79727213D01*
X133742786Y-79871971D01*
X133897749Y-79984556D01*
X133908390Y-79992287D01*
X134024607Y-80051503D01*
X134090776Y-80085218D01*
X134090778Y-80085218D01*
X134090781Y-80085220D01*
X134195137Y-80119127D01*
X134285465Y-80148477D01*
X134386557Y-80164488D01*
X134487648Y-80180500D01*
X134487649Y-80180500D01*
X134692351Y-80180500D01*
X134692352Y-80180500D01*
X134894534Y-80148477D01*
X134908842Y-80143827D01*
X134978682Y-80141831D01*
X135034842Y-80174077D01*
X139691000Y-84830235D01*
X139691002Y-84830238D01*
X139802806Y-84942042D01*
X139859589Y-84974824D01*
X139868475Y-84982500D01*
X139881301Y-85002389D01*
X139897635Y-85019519D01*
X139899888Y-85031211D01*
X139906342Y-85041218D01*
X139906379Y-85064884D01*
X139910859Y-85088126D01*
X139906433Y-85099181D01*
X139906452Y-85111088D01*
X139893688Y-85131018D01*
X139884892Y-85152991D01*
X139875193Y-85159897D01*
X139868771Y-85169926D01*
X139847256Y-85179792D01*
X139827978Y-85193521D01*
X139814765Y-85194692D01*
X139805261Y-85199051D01*
X139790025Y-85196885D01*
X139777350Y-85198008D01*
X139777203Y-85199882D01*
X139772352Y-85199500D01*
X139567648Y-85199500D01*
X139543329Y-85203351D01*
X139365465Y-85231522D01*
X139170776Y-85294781D01*
X138988386Y-85387715D01*
X138822786Y-85508028D01*
X138678028Y-85652786D01*
X138557715Y-85818386D01*
X138510485Y-85911080D01*
X138462510Y-85961876D01*
X138394689Y-85978671D01*
X138328554Y-85956134D01*
X138289515Y-85911080D01*
X138283861Y-85899983D01*
X138242287Y-85818390D01*
X138190021Y-85746451D01*
X138121971Y-85652786D01*
X137977213Y-85508028D01*
X137811613Y-85387715D01*
X137811612Y-85387714D01*
X137811610Y-85387713D01*
X137740744Y-85351605D01*
X137629223Y-85294781D01*
X137434534Y-85231522D01*
X137258674Y-85203669D01*
X137232352Y-85199500D01*
X137027648Y-85199500D01*
X137003329Y-85203351D01*
X136825465Y-85231522D01*
X136630776Y-85294781D01*
X136448386Y-85387715D01*
X136282786Y-85508028D01*
X136138028Y-85652786D01*
X136017715Y-85818386D01*
X135970485Y-85911080D01*
X135922510Y-85961876D01*
X135854689Y-85978671D01*
X135788554Y-85956134D01*
X135749515Y-85911080D01*
X135743861Y-85899983D01*
X135702287Y-85818390D01*
X135650021Y-85746451D01*
X135581971Y-85652786D01*
X135437213Y-85508028D01*
X135271613Y-85387715D01*
X135271612Y-85387714D01*
X135271610Y-85387713D01*
X135200744Y-85351605D01*
X135089223Y-85294781D01*
X134894534Y-85231522D01*
X134718674Y-85203669D01*
X134692352Y-85199500D01*
X134487648Y-85199500D01*
X134463329Y-85203351D01*
X134285465Y-85231522D01*
X134090776Y-85294781D01*
X133908386Y-85387715D01*
X133742786Y-85508028D01*
X133598028Y-85652786D01*
X133477715Y-85818386D01*
X133430485Y-85911080D01*
X133382510Y-85961876D01*
X133314689Y-85978671D01*
X133248554Y-85956134D01*
X133209515Y-85911080D01*
X133203861Y-85899983D01*
X133162287Y-85818390D01*
X133110021Y-85746451D01*
X133041971Y-85652786D01*
X132897213Y-85508028D01*
X132731613Y-85387715D01*
X132731612Y-85387714D01*
X132731610Y-85387713D01*
X132660744Y-85351605D01*
X132549223Y-85294781D01*
X132354534Y-85231522D01*
X132178674Y-85203669D01*
X132152352Y-85199500D01*
X131947648Y-85199500D01*
X131923329Y-85203351D01*
X131745465Y-85231522D01*
X131550776Y-85294781D01*
X131368386Y-85387715D01*
X131202786Y-85508028D01*
X131058032Y-85652782D01*
X131058028Y-85652787D01*
X130989978Y-85746451D01*
X130934648Y-85789117D01*
X130865035Y-85795096D01*
X130803240Y-85762490D01*
X130771954Y-85712570D01*
X130752144Y-85652787D01*
X130744814Y-85630666D01*
X130652712Y-85481344D01*
X130528656Y-85357288D01*
X130379334Y-85265186D01*
X130212797Y-85210001D01*
X130212795Y-85210000D01*
X130110010Y-85199500D01*
X128909998Y-85199500D01*
X128909981Y-85199501D01*
X128807203Y-85210000D01*
X128807200Y-85210001D01*
X128640668Y-85265185D01*
X128640663Y-85265187D01*
X128491342Y-85357289D01*
X128367289Y-85481342D01*
X128275187Y-85630663D01*
X128275186Y-85630666D01*
X128220001Y-85797203D01*
X128220001Y-85797204D01*
X128220000Y-85797204D01*
X128209500Y-85899983D01*
X128209500Y-87100001D01*
X128209501Y-87100018D01*
X128220000Y-87202796D01*
X128220001Y-87202799D01*
X128275185Y-87369331D01*
X128275187Y-87369336D01*
X128282460Y-87381127D01*
X128367288Y-87518656D01*
X128491344Y-87642712D01*
X128640666Y-87734814D01*
X128807203Y-87789999D01*
X128909991Y-87800500D01*
X129899902Y-87800499D01*
X129966941Y-87820183D01*
X129987583Y-87836818D01*
X131452753Y-89301988D01*
X131486238Y-89363311D01*
X131481254Y-89433003D01*
X131452753Y-89477350D01*
X131346673Y-89583430D01*
X131285350Y-89616915D01*
X131215658Y-89611931D01*
X131159725Y-89570059D01*
X131142810Y-89539082D01*
X131093797Y-89407671D01*
X131093793Y-89407664D01*
X131007547Y-89292455D01*
X131007544Y-89292452D01*
X130892335Y-89206206D01*
X130892328Y-89206202D01*
X130757482Y-89155908D01*
X130757483Y-89155908D01*
X130697883Y-89149501D01*
X130697881Y-89149500D01*
X130697873Y-89149500D01*
X130697864Y-89149500D01*
X128902129Y-89149500D01*
X128902123Y-89149501D01*
X128842516Y-89155908D01*
X128707671Y-89206202D01*
X128707664Y-89206206D01*
X128592455Y-89292452D01*
X128592452Y-89292455D01*
X128506206Y-89407664D01*
X128506202Y-89407671D01*
X128455908Y-89542517D01*
X128449501Y-89602116D01*
X128449500Y-89602135D01*
X128449500Y-91397870D01*
X128449501Y-91397876D01*
X128455908Y-91457483D01*
X128506202Y-91592328D01*
X128506206Y-91592335D01*
X128592452Y-91707544D01*
X128592455Y-91707547D01*
X128707664Y-91793793D01*
X128707671Y-91793797D01*
X128728354Y-91801511D01*
X128842517Y-91844091D01*
X128902127Y-91850500D01*
X129075500Y-91850499D01*
X129084185Y-91853049D01*
X129093147Y-91851761D01*
X129117184Y-91862738D01*
X129142539Y-91870183D01*
X129148467Y-91877025D01*
X129156703Y-91880786D01*
X129170989Y-91903017D01*
X129188294Y-91922987D01*
X129190581Y-91933502D01*
X129194477Y-91939564D01*
X129199500Y-91974499D01*
X129199500Y-92209902D01*
X129179815Y-92276941D01*
X129163181Y-92297583D01*
X127960830Y-93499933D01*
X127899507Y-93533418D01*
X127853751Y-93534725D01*
X127694486Y-93509500D01*
X127694481Y-93509500D01*
X127505519Y-93509500D01*
X127505514Y-93509500D01*
X127318881Y-93539059D01*
X127139163Y-93597454D01*
X126970800Y-93683240D01*
X126903250Y-93732319D01*
X126817927Y-93794310D01*
X126817925Y-93794312D01*
X126817924Y-93794312D01*
X126684312Y-93927924D01*
X126684312Y-93927925D01*
X126684310Y-93927927D01*
X126676226Y-93939054D01*
X126573240Y-94080800D01*
X126487454Y-94249163D01*
X126429059Y-94428881D01*
X126399500Y-94615513D01*
X123000500Y-94615513D01*
X123000500Y-75374500D01*
X123020185Y-75307461D01*
X123072989Y-75261706D01*
X123124500Y-75250500D01*
X187125500Y-75250500D01*
X187192539Y-75270185D01*
G37*
%TD.AperFunction*%
%TD*%
M02*
