%TF.GenerationSoftware,KiCad,Pcbnew,9.0.9-9.0.9~ubuntu24.04.1*%
%TF.CreationDate,2026-09-20T21:50:11-04:00*%
%TF.ProjectId,shift-register-control-panel,73686966-742d-4726-9567-69737465722d,rev?*%
%TF.SameCoordinates,Original*%
%TF.FileFunction,Copper,L1,Top*%
%TF.FilePolarity,Positive*%
%FSLAX46Y46*%
G04 Gerber Fmt 4.6, Leading zero omitted, Abs format (unit mm)*
G04 Created by KiCad (PCBNEW 9.0.9-9.0.9~ubuntu24.04.1) date 2026-09-20 21:50:11*
%MOMM*%
%LPD*%
G01*
G04 APERTURE LIST*
G04 Aperture macros list*
%AMRoundRect*
0 Rectangle with rounded corners*
0 $1 Rounding radius*
0 $2 $3 $4 $5 $6 $7 $8 $9 X,Y pos of 4 corners*
0 Add a 4 corners polygon primitive as box body*
4,1,4,$2,$3,$4,$5,$6,$7,$8,$9,$2,$3,0*
0 Add four circle primitives for the rounded corners*
1,1,$1+$1,$2,$3*
1,1,$1+$1,$4,$5*
1,1,$1+$1,$6,$7*
1,1,$1+$1,$8,$9*
0 Add four rect primitives between the rounded corners*
20,1,$1+$1,$2,$3,$4,$5,0*
20,1,$1+$1,$4,$5,$6,$7,0*
20,1,$1+$1,$6,$7,$8,$9,0*
20,1,$1+$1,$8,$9,$2,$3,0*%
G04 Aperture macros list end*
%TA.AperFunction,ComponentPad*%
%ADD10R,1.800000X1.800000*%
%TD*%
%TA.AperFunction,ComponentPad*%
%ADD11C,1.800000*%
%TD*%
%TA.AperFunction,ComponentPad*%
%ADD12C,1.200000*%
%TD*%
%TA.AperFunction,ComponentPad*%
%ADD13C,1.400000*%
%TD*%
%TA.AperFunction,ComponentPad*%
%ADD14R,2.000000X1.905000*%
%TD*%
%TA.AperFunction,ComponentPad*%
%ADD15O,2.000000X1.905000*%
%TD*%
%TA.AperFunction,ComponentPad*%
%ADD16O,2.200000X3.500000*%
%TD*%
%TA.AperFunction,ComponentPad*%
%ADD17R,1.500000X2.500000*%
%TD*%
%TA.AperFunction,ComponentPad*%
%ADD18O,1.500000X2.500000*%
%TD*%
%TA.AperFunction,ComponentPad*%
%ADD19R,1.500000X1.600000*%
%TD*%
%TA.AperFunction,ComponentPad*%
%ADD20C,1.600000*%
%TD*%
%TA.AperFunction,ComponentPad*%
%ADD21C,3.000000*%
%TD*%
%TA.AperFunction,ComponentPad*%
%ADD22RoundRect,0.250000X0.550000X-0.550000X0.550000X0.550000X-0.550000X0.550000X-0.550000X-0.550000X0*%
%TD*%
%TA.AperFunction,ComponentPad*%
%ADD23R,1.700000X1.700000*%
%TD*%
%TA.AperFunction,ComponentPad*%
%ADD24C,1.700000*%
%TD*%
%TA.AperFunction,ComponentPad*%
%ADD25O,2.200000X3.500000*%
%TD*%
%TA.AperFunction,ViaPad*%
%ADD26C,0.600000*%
%TD*%
%TA.AperFunction,Conductor*%
%ADD27C,0.200000*%
%TD*%
G04 APERTURE END LIST*
D10*
%TO.P,D5,1,K*%
%TO.N,GND*%
X159326570Y-112954061D03*
D11*
%TO.P,D5,2,A*%
%TO.N,Net-(D5-A)*%
X159326570Y-110414061D03*
%TD*%
D12*
%TO.P,C1,1*%
%TO.N,GND*%
X165500000Y-100750000D03*
%TO.P,C1,2*%
%TO.N,+5V*%
X167500000Y-100750000D03*
%TD*%
D13*
%TO.P,R1,1*%
%TO.N,/OUT1*%
X127600000Y-94710000D03*
%TO.P,R1,2*%
%TO.N,Net-(D1-A)*%
X127600000Y-99790000D03*
%TD*%
D10*
%TO.P,D4,1,K*%
%TO.N,GND*%
X151290856Y-112954061D03*
D11*
%TO.P,D4,2,A*%
%TO.N,Net-(D4-A)*%
X151290856Y-110414061D03*
%TD*%
D14*
%TO.P,U2,1,VI*%
%TO.N,VCC*%
X172300000Y-98710000D03*
D15*
%TO.P,U2,2,GND*%
%TO.N,GND*%
X179190000Y-94280000D03*
%TO.P,U2,3,VO*%
%TO.N,+5V*%
X179190000Y-91740000D03*
%TD*%
D13*
%TO.P,R5,1*%
%TO.N,/OUT5*%
X140200000Y-94710000D03*
%TO.P,R5,2*%
%TO.N,Net-(D5-A)*%
X140200000Y-99790000D03*
%TD*%
D10*
%TO.P,D6,1,K*%
%TO.N,GND*%
X167362284Y-112954061D03*
D11*
%TO.P,D6,2,A*%
%TO.N,Net-(D6-A)*%
X167362284Y-110414061D03*
%TD*%
D10*
%TO.P,D1,1,K*%
%TO.N,GND*%
X127183713Y-112954061D03*
D11*
%TO.P,D1,2,A*%
%TO.N,Net-(D1-A)*%
X127183713Y-110414061D03*
%TD*%
D13*
%TO.P,R10,1*%
%TO.N,Net-(U1-SRCLK)*%
X173500000Y-88710000D03*
%TO.P,R10,2*%
%TO.N,GND*%
X173500000Y-93790000D03*
%TD*%
D16*
%TO.P,SW1,*%
%TO.N,*%
X164350000Y-89952500D03*
X156150000Y-89952500D03*
D17*
%TO.P,SW1,1,A*%
%TO.N,+5V*%
X162250000Y-89952500D03*
D18*
%TO.P,SW1,2,B*%
%TO.N,Net-(SW1-B)*%
X160250000Y-89952500D03*
%TO.P,SW1,3,C*%
%TO.N,GND*%
X158250000Y-89952500D03*
%TD*%
D10*
%TO.P,D9,1,K*%
%TO.N,GND*%
X157500000Y-99210000D03*
D11*
%TO.P,D9,2,A*%
%TO.N,Net-(D9-A)*%
X157500000Y-101750000D03*
%TD*%
D10*
%TO.P,D8,1,K*%
%TO.N,GND*%
X183433713Y-112954061D03*
D11*
%TO.P,D8,2,A*%
%TO.N,Net-(D8-A)*%
X183433713Y-110414061D03*
%TD*%
D13*
%TO.P,R8,1*%
%TO.N,/OUT8*%
X150450000Y-94500000D03*
%TO.P,R8,2*%
%TO.N,Net-(D8-A)*%
X150450000Y-99580000D03*
%TD*%
%TO.P,R7,1*%
%TO.N,/OUT7*%
X146500000Y-94710000D03*
%TO.P,R7,2*%
%TO.N,Net-(D7-A)*%
X146500000Y-99790000D03*
%TD*%
D19*
%TO.P,J2,1,VBUS*%
%TO.N,VCC*%
X181010000Y-100350000D03*
D20*
%TO.P,J2,2,D-*%
%TO.N,unconnected-(J2-D--Pad2)*%
X181010000Y-97850000D03*
%TO.P,J2,3,D+*%
%TO.N,unconnected-(J2-D+-Pad3)*%
X181010000Y-95850000D03*
%TO.P,J2,4,GND*%
%TO.N,GND*%
X181010000Y-93350000D03*
D21*
%TO.P,J2,5,Shield*%
X183720000Y-103420000D03*
X183720000Y-90280000D03*
%TD*%
D22*
%TO.P,U1,1,QB*%
%TO.N,/OUT2*%
X129510000Y-86500000D03*
D20*
%TO.P,U1,2,QC*%
%TO.N,/OUT3*%
X132050000Y-86500000D03*
%TO.P,U1,3,QD*%
%TO.N,/OUT4*%
X134590000Y-86500000D03*
%TO.P,U1,4,QE*%
%TO.N,/OUT5*%
X137130000Y-86500000D03*
%TO.P,U1,5,QF*%
%TO.N,/OUT6*%
X139670000Y-86500000D03*
%TO.P,U1,6,QG*%
%TO.N,/OUT7*%
X142210000Y-86500000D03*
%TO.P,U1,7,QH*%
%TO.N,/OUT8*%
X144750000Y-86500000D03*
%TO.P,U1,8,GND*%
%TO.N,GND*%
X147290000Y-86500000D03*
%TO.P,U1,9,QH'*%
%TO.N,unconnected-(U1-QH'-Pad9)*%
X147290000Y-78880000D03*
%TO.P,U1,10,~{SRCLR}*%
%TO.N,Net-(U1-~{SRCLR})*%
X144750000Y-78880000D03*
%TO.P,U1,11,SRCLK*%
%TO.N,Net-(U1-SRCLK)*%
X142210000Y-78880000D03*
%TO.P,U1,12,RCLK*%
%TO.N,Net-(U1-RCLK)*%
X139670000Y-78880000D03*
%TO.P,U1,13,~{OE}*%
%TO.N,+5V*%
X137130000Y-78880000D03*
%TO.P,U1,14,SER*%
%TO.N,Net-(SW1-B)*%
X134590000Y-78880000D03*
%TO.P,U1,15,QA*%
%TO.N,/OUT1*%
X132050000Y-78880000D03*
%TO.P,U1,16,VCC*%
%TO.N,+5V*%
X129510000Y-78880000D03*
%TD*%
D13*
%TO.P,R6,1*%
%TO.N,/OUT6*%
X143350000Y-94710000D03*
%TO.P,R6,2*%
%TO.N,Net-(D6-A)*%
X143350000Y-99790000D03*
%TD*%
D10*
%TO.P,D2,1,K*%
%TO.N,GND*%
X135219427Y-112954061D03*
D11*
%TO.P,D2,2,A*%
%TO.N,Net-(D2-A)*%
X135219427Y-110414061D03*
%TD*%
D13*
%TO.P,R12,1*%
%TO.N,Net-(U1-RCLK)*%
X152500000Y-78210000D03*
%TO.P,R12,2*%
%TO.N,GND*%
X152500000Y-83290000D03*
%TD*%
D23*
%TO.P,J1,1,Pin_1*%
%TO.N,/OUT1*%
X129800000Y-90500000D03*
D24*
%TO.P,J1,2,Pin_2*%
%TO.N,/OUT2*%
X132340000Y-90500000D03*
%TO.P,J1,3,Pin_3*%
%TO.N,/OUT3*%
X134880000Y-90500000D03*
%TO.P,J1,4,Pin_4*%
%TO.N,/OUT4*%
X137420000Y-90500000D03*
%TO.P,J1,5,Pin_5*%
%TO.N,/OUT5*%
X139960000Y-90500000D03*
%TO.P,J1,6,Pin_6*%
%TO.N,/OUT6*%
X142500000Y-90500000D03*
%TO.P,J1,7,Pin_7*%
%TO.N,/OUT7*%
X145040000Y-90500000D03*
%TO.P,J1,8,Pin_8*%
%TO.N,/OUT8*%
X147580000Y-90500000D03*
%TD*%
D13*
%TO.P,R3,1*%
%TO.N,/OUT3*%
X133965714Y-97450000D03*
%TO.P,R3,2*%
%TO.N,Net-(D3-A)*%
X133965714Y-102530000D03*
%TD*%
%TO.P,R4,1*%
%TO.N,/OUT4*%
X137128571Y-97450000D03*
%TO.P,R4,2*%
%TO.N,Net-(D4-A)*%
X137128571Y-102530000D03*
%TD*%
%TO.P,R5,1*%
%TO.N,/OUT5*%
X140291429Y-97450000D03*
%TO.P,R5,2*%
%TO.N,Net-(D5-A)*%
X140291429Y-102530000D03*
%TD*%
D10*
%TO.P,D3,1,K*%
%TO.N,GND*%
X143255142Y-112954061D03*
D11*
%TO.P,D3,2,A*%
%TO.N,Net-(D3-A)*%
X143255142Y-110414061D03*
%TD*%
D25*
%TO.P,SW2,1,1*%
%TO.N,+5V*%
X178000000Y-78500000D03*
X178000000Y-85000000D03*
%TO.P,SW2,2,2*%
%TO.N,Net-(U1-SRCLK)*%
X173500000Y-78500000D03*
X173500000Y-85000000D03*
%TD*%
D10*
%TO.P,D7,1,K*%
%TO.N,GND*%
X175397999Y-112954061D03*
D11*
%TO.P,D7,2,A*%
%TO.N,Net-(D7-A)*%
X175397999Y-110414061D03*
%TD*%
%TO.P,R8,1*%
%TO.N,/OUT8*%
X149780000Y-97450000D03*
%TO.P,R8,2*%
%TO.N,Net-(D8-A)*%
X149780000Y-102530000D03*
%TD*%
%TO.P,R1,2*%
%TO.N,Net-(D1-A)*%
X127640000Y-102530000D03*
%TO.P,R1,1*%
%TO.N,/OUT1*%
X127640000Y-97450000D03*
%TD*%
D15*
%TO.P,C3,1*%
%TO.N,GND*%
X133230000Y-77630000D03*
%TO.P,C3,2*%
%TO.N,+5V*%
X128230000Y-77630000D03*
%TD*%
D13*
%TO.P,R11,1*%
%TO.N,+5V*%
X169160000Y-92990000D03*
%TO.P,R11,2*%
%TO.N,Net-(U1-~{SRCLR})*%
X169160000Y-87910000D03*
%TD*%
%TO.P,R10,2*%
%TO.N,Net-(C1-Pad1)*%
X181540000Y-82690000D03*
%TO.P,R10,1*%
%TO.N,Net-(R10-Pad1)*%
X181540000Y-77610000D03*
%TD*%
D19*
%TO.P,SW2,2,2*%
%TO.N,Net-(R10-Pad1)*%
X177980000Y-78280000D03*
X177980000Y-84780000D03*
%TO.P,SW2,1,1*%
%TO.N,GND*%
X173480000Y-78280000D03*
X173480000Y-84780000D03*
%TD*%
D20*
%TO.P,U3,1,NC*%
%TO.N,unconnected-(U3-NC-Pad1)*%
X184342500Y-81130000D03*
%TO.P,U3,2*%
%TO.N,Net-(C1-Pad1)*%
X184342500Y-82080000D03*
%TO.P,U3,3,GND*%
%TO.N,GND*%
X184342500Y-83030000D03*
%TO.P,U3,4*%
%TO.N,Net-(U1-SRCLK)*%
X186617500Y-83030000D03*
%TO.P,U3,5,VCC*%
%TO.N,+5V*%
X186617500Y-81130000D03*
%TD*%
D11*
%TO.P,D8,1,K*%
%TO.N,GND*%
X182780000Y-112970000D03*
D10*
%TO.P,D8,2,A*%
%TO.N,Net-(D8-A)*%
X182780000Y-110430000D03*
%TD*%
D11*
%TO.P,D7,1,K*%
%TO.N,GND*%
X174887673Y-112970000D03*
D10*
%TO.P,D7,2,A*%
%TO.N,Net-(D7-A)*%
X174887673Y-110430000D03*
%TD*%
D11*
%TO.P,D6,1,K*%
%TO.N,GND*%
X166995347Y-112970000D03*
D10*
%TO.P,D6,2,A*%
%TO.N,Net-(D6-A)*%
X166995347Y-110430000D03*
%TD*%
D11*
%TO.P,D5,1,K*%
%TO.N,GND*%
X159103020Y-112970000D03*
D10*
%TO.P,D5,2,A*%
%TO.N,Net-(D5-A)*%
X159103020Y-110430000D03*
%TD*%
D11*
%TO.P,D4,1,K*%
%TO.N,GND*%
X151210693Y-112970000D03*
D10*
%TO.P,D4,2,A*%
%TO.N,Net-(D4-A)*%
X151210693Y-110430000D03*
%TD*%
D11*
%TO.P,D2,1,K*%
%TO.N,GND*%
X135426040Y-112970000D03*
D10*
%TO.P,D2,2,A*%
%TO.N,Net-(D2-A)*%
X135426040Y-110430000D03*
%TD*%
D15*
%TO.P,C2,1*%
%TO.N,GND*%
X189460000Y-78200000D03*
%TO.P,C2,2*%
%TO.N,+5V*%
X184460000Y-78200000D03*
%TD*%
%TO.P,C1,1*%
%TO.N,Net-(C1-Pad1)*%
X184560000Y-86070000D03*
%TO.P,C1,2*%
%TO.N,GND*%
X189560000Y-86070000D03*
%TD*%
D10*
%TO.P,D1,2,A*%
%TO.N,Net-(D1-A)*%
X127533713Y-110430000D03*
D11*
%TO.P,D1,1,K*%
%TO.N,GND*%
X127533713Y-112970000D03*
%TD*%
D10*
%TO.P,D9,2,A*%
%TO.N,Net-(D9-A)*%
X157840000Y-100520000D03*
D11*
%TO.P,D9,1,K*%
%TO.N,GND*%
X157840000Y-97980000D03*
%TD*%
D21*
%TO.P,J2,5,Shield*%
%TO.N,GND*%
X187970000Y-91860000D03*
X187970000Y-105000000D03*
D15*
%TO.P,J2,4,GND*%
X185260000Y-94930000D03*
%TO.P,J2,3,D+*%
%TO.N,unconnected-(J2-D+-Pad3)*%
X185260000Y-97430000D03*
%TO.P,J2,2,D-*%
%TO.N,unconnected-(J2-D--Pad2)*%
X185260000Y-99430000D03*
D22*
%TO.P,J2,1,VBUS*%
%TO.N,VCC*%
X185260000Y-101930000D03*
%TD*%
D14*
%TO.P,R9,2*%
%TO.N,Net-(D9-A)*%
X155590000Y-94420000D03*
%TO.P,R9,1*%
%TO.N,Net-(SW1-B)*%
X160670000Y-94420000D03*
%TD*%
D23*
%TO.P,SW1,3,C*%
%TO.N,GND*%
X158250000Y-89952500D03*
%TO.P,SW1,2,B*%
%TO.N,Net-(SW1-B)*%
X160250000Y-89952500D03*
D24*
%TO.P,SW1,1,A*%
%TO.N,+5V*%
X162250000Y-89952500D03*
D25*
%TO.P,SW1,*%
%TO.N,*%
X156150000Y-89952500D03*
X164350000Y-89952500D03*
%TD*%
D19*
%TO.P,SW3,2,2*%
%TO.N,Net-(U1-~{SRCLR})*%
X164575000Y-84780000D03*
X164575000Y-78280000D03*
%TO.P,SW3,1,1*%
%TO.N,GND*%
X169075000Y-84780000D03*
X169075000Y-78280000D03*
%TD*%
%TO.P,SW4,2,2*%
%TO.N,Net-(U1-RCLK)*%
X155670000Y-84780000D03*
X155670000Y-78280000D03*
%TO.P,SW4,1,1*%
%TO.N,+5V*%
X160170000Y-84780000D03*
X160170000Y-78280000D03*
%TD*%
D26*
%TO.N,VCC*%
X181010000Y-100350000D02*
X178200000Y-100350000D01*
X178200000Y-100350000D02*
X176560000Y-98710000D01*
X176560000Y-98710000D02*
X172300000Y-98710000D01*
%TO.N,Net-(D1-A)*%
X127600000Y-109997774D02*
X127183713Y-110414061D01*
X127600000Y-99790000D02*
X127600000Y-109997774D01*
%TO.N,Net-(D2-A)*%
X130750000Y-99790000D02*
X130750000Y-105944634D01*
X130750000Y-105944634D02*
X135219427Y-110414061D01*
%TO.N,Net-(D3-A)*%
X133900000Y-105270000D02*
X136260000Y-107630000D01*
X140471081Y-107630000D02*
X143255142Y-110414061D01*
X133900000Y-99790000D02*
X133900000Y-105270000D01*
X136260000Y-107630000D02*
X140471081Y-107630000D01*
%TO.N,Net-(D4-A)*%
X142240000Y-107620000D02*
X148496795Y-107620000D01*
X137050000Y-99790000D02*
X137050000Y-106080000D01*
X137810000Y-106840000D02*
X141460000Y-106840000D01*
X137050000Y-106080000D02*
X137810000Y-106840000D01*
X141460000Y-106840000D02*
X142240000Y-107620000D01*
X148496795Y-107620000D02*
X151290856Y-110414061D01*
%TO.N,Net-(D5-A)*%
X155312509Y-106400000D02*
X159326570Y-110414061D01*
X140200000Y-99790000D02*
X140200000Y-104310000D01*
X142290000Y-106400000D02*
X155312509Y-106400000D01*
X140200000Y-104310000D02*
X142290000Y-106400000D01*
%TO.N,Net-(D6-A)*%
X162458223Y-105510000D02*
X167362284Y-110414061D01*
X144680000Y-105510000D02*
X162458223Y-105510000D01*
X143350000Y-99790000D02*
X143350000Y-104180000D01*
X143350000Y-104180000D02*
X144680000Y-105510000D01*
%TO.N,Net-(D7-A)*%
X169483938Y-104500000D02*
X175397999Y-110414061D01*
X146500000Y-104030000D02*
X146970000Y-104500000D01*
X146500000Y-99790000D02*
X146500000Y-104030000D01*
X146970000Y-104500000D02*
X169483938Y-104500000D01*
%TO.N,Net-(D9-A)*%
X157500000Y-101750000D02*
X154680000Y-101750000D01*
X154000000Y-96170000D02*
X155670000Y-94500000D01*
X154680000Y-101750000D02*
X154000000Y-101070000D01*
X154000000Y-101070000D02*
X154000000Y-96170000D01*
%TO.N,Net-(SW1-B)*%
X160750000Y-90452500D02*
X160250000Y-89952500D01*
X160250000Y-88250000D02*
X160250000Y-89952500D01*
X160750000Y-94500000D02*
X160750000Y-90452500D01*
X151500000Y-87250000D02*
X159250000Y-87250000D01*
X134590000Y-78880000D02*
X140171522Y-84461522D01*
X140171522Y-84461522D02*
X148711522Y-84461522D01*
X159250000Y-87250000D02*
X160250000Y-88250000D01*
X148711522Y-84461522D02*
X151500000Y-87250000D01*
%TO.N,Net-(U1-SRCLK)*%
X182780000Y-84650000D03*
%TD*%
D27*
%TO.N,VCC*%
X185260000Y-101930000D02*
X184300000Y-101930000D01*
X184300000Y-101930000D02*
X179190000Y-96820000D01*
%TO.N,GND*%
X185420000Y-83540000D02*
X184852500Y-83540000D01*
X184852500Y-83540000D02*
X184342500Y-83030000D01*
%TO.N,Net-(U1-SRCLK)*%
X182780000Y-84650000D02*
X183290000Y-84140000D01*
X186290000Y-83357500D02*
X186617500Y-83030000D01*
X186200000Y-84140000D02*
X186290000Y-84050000D01*
X186290000Y-84050000D02*
X186290000Y-83357500D01*
X183290000Y-84140000D02*
X186200000Y-84140000D01*
%TO.N,Net-(U1-RCLK)*%
X155500000Y-85000000D02*
X155500000Y-78500000D01*
X151790000Y-77500000D02*
X152500000Y-78210000D01*
X152500000Y-78210000D02*
X155210000Y-78210000D01*
X155210000Y-78210000D02*
X155500000Y-78500000D01*
X139670000Y-78880000D02*
X141050000Y-77500000D01*
X141050000Y-77500000D02*
X151790000Y-77500000D01*
%TO.N,/OUT2*%
X132340000Y-90500000D02*
X132340000Y-89340000D01*
X132340000Y-89340000D02*
X129510000Y-86510000D01*
X130750000Y-94710000D02*
X132340000Y-93120000D01*
X129510000Y-86510000D02*
X129510000Y-86500000D01*
X132340000Y-93120000D02*
X132340000Y-90500000D01*
%TO.N,/OUT7*%
X142210000Y-87670000D02*
X142210000Y-86500000D01*
X145040000Y-93250000D02*
X145040000Y-90500000D01*
X145040000Y-90500000D02*
X142210000Y-87670000D01*
X146500000Y-94710000D02*
X145040000Y-93250000D01*
%TO.N,/OUT6*%
X142500000Y-93860000D02*
X142500000Y-90500000D01*
X139670000Y-87670000D02*
X139670000Y-86500000D01*
X143350000Y-94710000D02*
X142500000Y-93860000D01*
X142500000Y-90500000D02*
X139670000Y-87670000D01*
%TO.N,/OUT5*%
X140200000Y-94710000D02*
X140200000Y-90740000D01*
X137130000Y-87670000D02*
X137130000Y-86500000D01*
X139960000Y-90500000D02*
X137130000Y-87670000D01*
X140200000Y-90740000D02*
X139960000Y-90500000D01*
%TO.N,/OUT1*%
X129800000Y-90500000D02*
X129800000Y-92510000D01*
X129800000Y-92510000D02*
X127600000Y-94710000D01*
%TO.N,/OUT8*%
X150450000Y-94500000D02*
X150450000Y-93370000D01*
X150450000Y-93370000D02*
X147580000Y-90500000D01*
X147580000Y-90500000D02*
X144750000Y-87670000D01*
X144750000Y-87670000D02*
X144750000Y-86500000D01*
%TO.N,/OUT4*%
X137050000Y-94710000D02*
X137050000Y-90870000D01*
X134590000Y-87670000D02*
X134590000Y-86500000D01*
X137420000Y-90500000D02*
X134590000Y-87670000D01*
X137050000Y-90870000D02*
X137420000Y-90500000D01*
%TO.N,/OUT3*%
X133900000Y-91480000D02*
X134880000Y-90500000D01*
X133900000Y-94710000D02*
X133900000Y-91480000D01*
X134880000Y-90500000D02*
X132050000Y-87670000D01*
X132050000Y-87670000D02*
X132050000Y-86500000D01*
%TD*%
%TA.AperFunction,Conductor*%
%TO.N,+5V*%
G36*
X191102539Y-75270185D02*
G01*
X191148294Y-75322989D01*
X191159500Y-75374500D01*
X191159500Y-115875500D01*
X191139815Y-115942539D01*
X191087011Y-115988294D01*
X191035500Y-115999500D01*
X123124500Y-115999500D01*
X123057461Y-115979815D01*
X123011706Y-115927011D01*
X123000500Y-115875500D01*
X123000500Y-110303839D01*
X125783213Y-110303839D01*
X125783213Y-110524282D01*
X125817698Y-110742013D01*
X125885816Y-110951664D01*
X125885817Y-110951667D01*
X125985900Y-111148086D01*
X126115465Y-111326419D01*
X126115469Y-111326424D01*
X126165641Y-111376596D01*
X126199126Y-111437919D01*
X126194142Y-111507611D01*
X126152270Y-111563544D01*
X126121294Y-111580459D01*
X126041382Y-111610264D01*
X126041377Y-111610267D01*
X125926168Y-111696513D01*
X125926165Y-111696516D01*
X125839919Y-111811725D01*
X125839915Y-111811732D01*
X125789621Y-111946578D01*
X125783214Y-112006177D01*
X125783214Y-112006184D01*
X125783213Y-112006196D01*
X125783213Y-113901931D01*
X125783214Y-113901937D01*
X125789621Y-113961544D01*
X125839915Y-114096389D01*
X125839919Y-114096396D01*
X125926165Y-114211605D01*
X125926168Y-114211608D01*
X126041377Y-114297854D01*
X126041384Y-114297858D01*
X126176230Y-114348152D01*
X126176229Y-114348152D01*
X126183157Y-114348896D01*
X126235840Y-114354561D01*
X128131585Y-114354560D01*
X128191196Y-114348152D01*
X128326044Y-114297857D01*
X128441259Y-114211607D01*
X128527509Y-114096392D01*
X128577804Y-113961544D01*
X128584213Y-113901934D01*
X128584212Y-112006189D01*
X128577804Y-111946578D01*
X128527509Y-111811730D01*
X128527508Y-111811729D01*
X128527506Y-111811725D01*
X128441260Y-111696516D01*
X128441257Y-111696513D01*
X128326048Y-111610267D01*
X128326041Y-111610263D01*
X128246132Y-111580459D01*
X128190198Y-111538588D01*
X128165781Y-111473123D01*
X128180633Y-111404850D01*
X128201782Y-111376598D01*
X128251955Y-111326426D01*
X128381528Y-111148083D01*
X128481608Y-110951667D01*
X128549728Y-110742012D01*
X128584213Y-110524283D01*
X128584213Y-110303839D01*
X128549728Y-110086110D01*
X128481608Y-109876455D01*
X128481608Y-109876454D01*
X128446950Y-109808436D01*
X128381528Y-109680039D01*
X128364973Y-109657253D01*
X128251960Y-109501702D01*
X128251956Y-109501697D01*
X128236819Y-109486560D01*
X128203334Y-109425237D01*
X128200500Y-109398879D01*
X128200500Y-100900791D01*
X128220185Y-100833752D01*
X128251612Y-100800475D01*
X128382073Y-100705690D01*
X128515690Y-100572073D01*
X128626760Y-100419199D01*
X128712547Y-100250832D01*
X128770940Y-100071118D01*
X128779029Y-100020044D01*
X128800500Y-99884486D01*
X128800500Y-99695513D01*
X129549500Y-99695513D01*
X129549500Y-99884486D01*
X129579059Y-100071118D01*
X129637454Y-100250836D01*
X129689169Y-100352331D01*
X129723240Y-100419199D01*
X129834310Y-100572073D01*
X129967927Y-100705690D01*
X130098386Y-100800474D01*
X130141051Y-100855803D01*
X130149500Y-100900791D01*
X130149500Y-105857964D01*
X130149499Y-105857982D01*
X130149499Y-106023688D01*
X130149498Y-106023688D01*
X130149499Y-106023691D01*
X130190423Y-106176419D01*
X130215478Y-106219815D01*
X130219358Y-106226534D01*
X130219359Y-106226538D01*
X130219360Y-106226538D01*
X130268579Y-106311790D01*
X130269479Y-106313348D01*
X130269481Y-106313351D01*
X130388349Y-106432219D01*
X130388355Y-106432224D01*
X133845988Y-109889857D01*
X133879473Y-109951180D01*
X133876238Y-110015855D01*
X133853412Y-110086106D01*
X133818927Y-110303839D01*
X133818927Y-110524282D01*
X133853412Y-110742013D01*
X133921530Y-110951664D01*
X133921531Y-110951667D01*
X134021614Y-111148086D01*
X134151179Y-111326419D01*
X134151183Y-111326424D01*
X134201355Y-111376596D01*
X134234840Y-111437919D01*
X134229856Y-111507611D01*
X134187984Y-111563544D01*
X134157008Y-111580459D01*
X134077096Y-111610264D01*
X134077091Y-111610267D01*
X133961882Y-111696513D01*
X133961879Y-111696516D01*
X133875633Y-111811725D01*
X133875629Y-111811732D01*
X133825335Y-111946578D01*
X133818928Y-112006177D01*
X133818928Y-112006184D01*
X133818927Y-112006196D01*
X133818927Y-113901931D01*
X133818928Y-113901937D01*
X133825335Y-113961544D01*
X133875629Y-114096389D01*
X133875633Y-114096396D01*
X133961879Y-114211605D01*
X133961882Y-114211608D01*
X134077091Y-114297854D01*
X134077098Y-114297858D01*
X134211944Y-114348152D01*
X134211943Y-114348152D01*
X134218871Y-114348896D01*
X134271554Y-114354561D01*
X136167299Y-114354560D01*
X136226910Y-114348152D01*
X136361758Y-114297857D01*
X136476973Y-114211607D01*
X136563223Y-114096392D01*
X136613518Y-113961544D01*
X136619927Y-113901934D01*
X136619926Y-112006189D01*
X136613518Y-111946578D01*
X136563223Y-111811730D01*
X136563222Y-111811729D01*
X136563220Y-111811725D01*
X136476974Y-111696516D01*
X136476971Y-111696513D01*
X136361762Y-111610267D01*
X136361755Y-111610263D01*
X136281846Y-111580459D01*
X136225912Y-111538588D01*
X136201495Y-111473123D01*
X136216347Y-111404850D01*
X136237496Y-111376598D01*
X136287669Y-111326426D01*
X136417242Y-111148083D01*
X136517322Y-110951667D01*
X136585442Y-110742012D01*
X136619927Y-110524283D01*
X136619927Y-110303839D01*
X136585442Y-110086110D01*
X136517322Y-109876455D01*
X136517322Y-109876454D01*
X136482664Y-109808436D01*
X136417242Y-109680039D01*
X136400687Y-109657253D01*
X136287674Y-109501702D01*
X136287670Y-109501697D01*
X136131790Y-109345817D01*
X136131785Y-109345813D01*
X135953452Y-109216248D01*
X135953451Y-109216247D01*
X135953449Y-109216246D01*
X135890523Y-109184183D01*
X135757033Y-109116165D01*
X135757030Y-109116164D01*
X135547379Y-109048046D01*
X135438513Y-109030803D01*
X135329649Y-109013561D01*
X135109205Y-109013561D01*
X135065659Y-109020458D01*
X134891472Y-109048046D01*
X134821221Y-109070872D01*
X134751380Y-109072867D01*
X134695223Y-109040622D01*
X131386819Y-105732218D01*
X131353334Y-105670895D01*
X131350500Y-105644537D01*
X131350500Y-100900791D01*
X131370185Y-100833752D01*
X131401612Y-100800475D01*
X131532073Y-100705690D01*
X131665690Y-100572073D01*
X131776760Y-100419199D01*
X131862547Y-100250832D01*
X131920940Y-100071118D01*
X131929029Y-100020044D01*
X131950500Y-99884486D01*
X131950500Y-99695513D01*
X132699500Y-99695513D01*
X132699500Y-99884486D01*
X132729059Y-100071118D01*
X132787454Y-100250836D01*
X132839169Y-100352331D01*
X132873240Y-100419199D01*
X132984310Y-100572073D01*
X133117927Y-100705690D01*
X133248386Y-100800474D01*
X133291051Y-100855803D01*
X133299500Y-100900791D01*
X133299500Y-105183330D01*
X133299499Y-105183348D01*
X133299499Y-105349054D01*
X133299498Y-105349054D01*
X133340423Y-105501786D01*
X133351182Y-105520419D01*
X133351183Y-105520424D01*
X133351184Y-105520424D01*
X133419475Y-105638709D01*
X133419481Y-105638717D01*
X133538349Y-105757585D01*
X133538355Y-105757590D01*
X135775139Y-107994374D01*
X135775149Y-107994385D01*
X135779479Y-107998715D01*
X135779480Y-107998716D01*
X135891284Y-108110520D01*
X135978095Y-108160639D01*
X135978097Y-108160641D01*
X136010895Y-108179577D01*
X136028215Y-108189577D01*
X136180943Y-108230501D01*
X136180946Y-108230501D01*
X136346653Y-108230501D01*
X136346669Y-108230500D01*
X140170984Y-108230500D01*
X140238023Y-108250185D01*
X140258665Y-108266819D01*
X141881703Y-109889857D01*
X141915188Y-109951180D01*
X141911953Y-110015855D01*
X141889127Y-110086106D01*
X141854642Y-110303839D01*
X141854642Y-110524282D01*
X141889127Y-110742013D01*
X141957245Y-110951664D01*
X141957246Y-110951667D01*
X142057329Y-111148086D01*
X142186894Y-111326419D01*
X142186898Y-111326424D01*
X142237070Y-111376596D01*
X142270555Y-111437919D01*
X142265571Y-111507611D01*
X142223699Y-111563544D01*
X142192723Y-111580459D01*
X142112811Y-111610264D01*
X142112806Y-111610267D01*
X141997597Y-111696513D01*
X141997594Y-111696516D01*
X141911348Y-111811725D01*
X141911344Y-111811732D01*
X141861050Y-111946578D01*
X141854643Y-112006177D01*
X141854643Y-112006184D01*
X141854642Y-112006196D01*
X141854642Y-113901931D01*
X141854643Y-113901937D01*
X141861050Y-113961544D01*
X141911344Y-114096389D01*
X141911348Y-114096396D01*
X141997594Y-114211605D01*
X141997597Y-114211608D01*
X142112806Y-114297854D01*
X142112813Y-114297858D01*
X142247659Y-114348152D01*
X142247658Y-114348152D01*
X142254586Y-114348896D01*
X142307269Y-114354561D01*
X144203014Y-114354560D01*
X144262625Y-114348152D01*
X144397473Y-114297857D01*
X144512688Y-114211607D01*
X144598938Y-114096392D01*
X144649233Y-113961544D01*
X144655642Y-113901934D01*
X144655641Y-112006189D01*
X144649233Y-111946578D01*
X144598938Y-111811730D01*
X144598937Y-111811729D01*
X144598935Y-111811725D01*
X144512689Y-111696516D01*
X144512686Y-111696513D01*
X144397477Y-111610267D01*
X144397470Y-111610263D01*
X144317561Y-111580459D01*
X144261627Y-111538588D01*
X144237210Y-111473123D01*
X144252062Y-111404850D01*
X144273211Y-111376598D01*
X144323384Y-111326426D01*
X144452957Y-111148083D01*
X144553037Y-110951667D01*
X144621157Y-110742012D01*
X144655642Y-110524283D01*
X144655642Y-110303839D01*
X144621157Y-110086110D01*
X144553037Y-109876455D01*
X144553037Y-109876454D01*
X144518379Y-109808436D01*
X144452957Y-109680039D01*
X144436402Y-109657253D01*
X144323389Y-109501702D01*
X144323385Y-109501697D01*
X144167505Y-109345817D01*
X144167500Y-109345813D01*
X143989167Y-109216248D01*
X143989166Y-109216247D01*
X143989164Y-109216246D01*
X143926238Y-109184183D01*
X143792748Y-109116165D01*
X143792745Y-109116164D01*
X143583094Y-109048046D01*
X143474228Y-109030803D01*
X143365364Y-109013561D01*
X143144920Y-109013561D01*
X143101374Y-109020458D01*
X142927187Y-109048046D01*
X142856936Y-109070872D01*
X142787095Y-109072867D01*
X142730938Y-109040622D01*
X142122498Y-108432182D01*
X142111886Y-108412748D01*
X142097385Y-108396013D01*
X142095467Y-108382680D01*
X142089013Y-108370859D01*
X142090592Y-108348772D01*
X142087441Y-108326855D01*
X142093036Y-108314602D01*
X142093997Y-108301167D01*
X142107266Y-108283441D01*
X142116465Y-108263299D01*
X142127797Y-108256015D01*
X142135869Y-108245234D01*
X142156613Y-108237496D01*
X142175243Y-108225524D01*
X142197162Y-108222372D01*
X142201333Y-108220817D01*
X142210178Y-108220501D01*
X142319058Y-108220501D01*
X142319061Y-108220500D01*
X142326669Y-108220500D01*
X148196698Y-108220500D01*
X148263737Y-108240185D01*
X148284379Y-108256819D01*
X149917417Y-109889857D01*
X149950902Y-109951180D01*
X149947667Y-110015855D01*
X149924841Y-110086106D01*
X149890356Y-110303839D01*
X149890356Y-110524282D01*
X149924841Y-110742013D01*
X149992959Y-110951664D01*
X149992960Y-110951667D01*
X150093043Y-111148086D01*
X150222608Y-111326419D01*
X150222612Y-111326424D01*
X150272784Y-111376596D01*
X150306269Y-111437919D01*
X150301285Y-111507611D01*
X150259413Y-111563544D01*
X150228437Y-111580459D01*
X150148525Y-111610264D01*
X150148520Y-111610267D01*
X150033311Y-111696513D01*
X150033308Y-111696516D01*
X149947062Y-111811725D01*
X149947058Y-111811732D01*
X149896764Y-111946578D01*
X149890357Y-112006177D01*
X149890357Y-112006184D01*
X149890356Y-112006196D01*
X149890356Y-113901931D01*
X149890357Y-113901937D01*
X149896764Y-113961544D01*
X149947058Y-114096389D01*
X149947062Y-114096396D01*
X150033308Y-114211605D01*
X150033311Y-114211608D01*
X150148520Y-114297854D01*
X150148527Y-114297858D01*
X150283373Y-114348152D01*
X150283372Y-114348152D01*
X150290300Y-114348896D01*
X150342983Y-114354561D01*
X152238728Y-114354560D01*
X152298339Y-114348152D01*
X152433187Y-114297857D01*
X152548402Y-114211607D01*
X152634652Y-114096392D01*
X152684947Y-113961544D01*
X152691356Y-113901934D01*
X152691355Y-112006189D01*
X152684947Y-111946578D01*
X152634652Y-111811730D01*
X152634651Y-111811729D01*
X152634649Y-111811725D01*
X152548403Y-111696516D01*
X152548400Y-111696513D01*
X152433191Y-111610267D01*
X152433184Y-111610263D01*
X152353275Y-111580459D01*
X152297341Y-111538588D01*
X152272924Y-111473123D01*
X152287776Y-111404850D01*
X152308925Y-111376598D01*
X152359098Y-111326426D01*
X152488671Y-111148083D01*
X152588751Y-110951667D01*
X152656871Y-110742012D01*
X152691356Y-110524283D01*
X152691356Y-110303839D01*
X152656871Y-110086110D01*
X152588751Y-109876455D01*
X152588751Y-109876454D01*
X152554093Y-109808436D01*
X152488671Y-109680039D01*
X152472116Y-109657253D01*
X152359103Y-109501702D01*
X152359099Y-109501697D01*
X152203219Y-109345817D01*
X152203214Y-109345813D01*
X152024881Y-109216248D01*
X152024880Y-109216247D01*
X152024878Y-109216246D01*
X151961952Y-109184183D01*
X151828462Y-109116165D01*
X151828459Y-109116164D01*
X151618808Y-109048046D01*
X151509942Y-109030803D01*
X151401078Y-109013561D01*
X151180634Y-109013561D01*
X151137088Y-109020458D01*
X150962901Y-109048046D01*
X150892650Y-109070872D01*
X150822809Y-109072867D01*
X150766652Y-109040622D01*
X148984384Y-107258354D01*
X148977315Y-107251285D01*
X148977315Y-107251284D01*
X148938211Y-107212180D01*
X148923010Y-107184342D01*
X148904727Y-107150858D01*
X148909711Y-107081166D01*
X148951583Y-107025233D01*
X148951583Y-107025232D01*
X148951584Y-107025232D01*
X148992920Y-107009815D01*
X149017047Y-107000816D01*
X149025893Y-107000500D01*
X155012412Y-107000500D01*
X155079451Y-107020185D01*
X155100093Y-107036819D01*
X157953131Y-109889857D01*
X157986616Y-109951180D01*
X157983381Y-110015855D01*
X157960555Y-110086106D01*
X157926070Y-110303839D01*
X157926070Y-110524282D01*
X157960555Y-110742013D01*
X158028673Y-110951664D01*
X158028674Y-110951667D01*
X158128757Y-111148086D01*
X158258322Y-111326419D01*
X158258326Y-111326424D01*
X158308498Y-111376596D01*
X158341983Y-111437919D01*
X158336999Y-111507611D01*
X158295127Y-111563544D01*
X158264151Y-111580459D01*
X158184239Y-111610264D01*
X158184234Y-111610267D01*
X158069025Y-111696513D01*
X158069022Y-111696516D01*
X157982776Y-111811725D01*
X157982772Y-111811732D01*
X157932478Y-111946578D01*
X157926071Y-112006177D01*
X157926071Y-112006184D01*
X157926070Y-112006196D01*
X157926070Y-113901931D01*
X157926071Y-113901937D01*
X157932478Y-113961544D01*
X157982772Y-114096389D01*
X157982776Y-114096396D01*
X158069022Y-114211605D01*
X158069025Y-114211608D01*
X158184234Y-114297854D01*
X158184241Y-114297858D01*
X158319087Y-114348152D01*
X158319086Y-114348152D01*
X158326014Y-114348896D01*
X158378697Y-114354561D01*
X160274442Y-114354560D01*
X160334053Y-114348152D01*
X160468901Y-114297857D01*
X160584116Y-114211607D01*
X160670366Y-114096392D01*
X160720661Y-113961544D01*
X160727070Y-113901934D01*
X160727069Y-112006189D01*
X160720661Y-111946578D01*
X160670366Y-111811730D01*
X160670365Y-111811729D01*
X160670363Y-111811725D01*
X160584117Y-111696516D01*
X160584114Y-111696513D01*
X160468905Y-111610267D01*
X160468898Y-111610263D01*
X160388989Y-111580459D01*
X160333055Y-111538588D01*
X160308638Y-111473123D01*
X160323490Y-111404850D01*
X160344639Y-111376598D01*
X160394812Y-111326426D01*
X160524385Y-111148083D01*
X160624465Y-110951667D01*
X160692585Y-110742012D01*
X160727070Y-110524283D01*
X160727070Y-110303839D01*
X160692585Y-110086110D01*
X160624465Y-109876455D01*
X160624465Y-109876454D01*
X160589807Y-109808436D01*
X160524385Y-109680039D01*
X160507830Y-109657253D01*
X160394817Y-109501702D01*
X160394813Y-109501697D01*
X160238933Y-109345817D01*
X160238928Y-109345813D01*
X160060595Y-109216248D01*
X160060594Y-109216247D01*
X160060592Y-109216246D01*
X159997666Y-109184183D01*
X159864176Y-109116165D01*
X159864173Y-109116164D01*
X159654522Y-109048046D01*
X159545656Y-109030803D01*
X159436792Y-109013561D01*
X159216348Y-109013561D01*
X159172802Y-109020458D01*
X158998615Y-109048046D01*
X158928364Y-109070872D01*
X158858523Y-109072867D01*
X158802366Y-109040622D01*
X156083925Y-106322181D01*
X156050440Y-106260858D01*
X156055424Y-106191166D01*
X156097296Y-106135233D01*
X156162760Y-106110816D01*
X156171606Y-106110500D01*
X162158126Y-106110500D01*
X162225165Y-106130185D01*
X162245807Y-106146819D01*
X165988845Y-109889857D01*
X166022330Y-109951180D01*
X166019095Y-110015855D01*
X165996269Y-110086106D01*
X165961784Y-110303839D01*
X165961784Y-110524282D01*
X165996269Y-110742013D01*
X166064387Y-110951664D01*
X166064388Y-110951667D01*
X166164471Y-111148086D01*
X166294036Y-111326419D01*
X166294040Y-111326424D01*
X166344212Y-111376596D01*
X166377697Y-111437919D01*
X166372713Y-111507611D01*
X166330841Y-111563544D01*
X166299865Y-111580459D01*
X166219953Y-111610264D01*
X166219948Y-111610267D01*
X166104739Y-111696513D01*
X166104736Y-111696516D01*
X166018490Y-111811725D01*
X166018486Y-111811732D01*
X165968192Y-111946578D01*
X165961785Y-112006177D01*
X165961785Y-112006184D01*
X165961784Y-112006196D01*
X165961784Y-113901931D01*
X165961785Y-113901937D01*
X165968192Y-113961544D01*
X166018486Y-114096389D01*
X166018490Y-114096396D01*
X166104736Y-114211605D01*
X166104739Y-114211608D01*
X166219948Y-114297854D01*
X166219955Y-114297858D01*
X166354801Y-114348152D01*
X166354800Y-114348152D01*
X166361728Y-114348896D01*
X166414411Y-114354561D01*
X168310156Y-114354560D01*
X168369767Y-114348152D01*
X168504615Y-114297857D01*
X168619830Y-114211607D01*
X168706080Y-114096392D01*
X168756375Y-113961544D01*
X168762784Y-113901934D01*
X168762783Y-112006189D01*
X168756375Y-111946578D01*
X168706080Y-111811730D01*
X168706079Y-111811729D01*
X168706077Y-111811725D01*
X168619831Y-111696516D01*
X168619828Y-111696513D01*
X168504619Y-111610267D01*
X168504612Y-111610263D01*
X168424703Y-111580459D01*
X168368769Y-111538588D01*
X168344352Y-111473123D01*
X168359204Y-111404850D01*
X168380353Y-111376598D01*
X168430526Y-111326426D01*
X168560099Y-111148083D01*
X168660179Y-110951667D01*
X168728299Y-110742012D01*
X168762784Y-110524283D01*
X168762784Y-110303839D01*
X168728299Y-110086110D01*
X168660179Y-109876455D01*
X168660179Y-109876454D01*
X168625521Y-109808436D01*
X168560099Y-109680039D01*
X168543544Y-109657253D01*
X168430531Y-109501702D01*
X168430527Y-109501697D01*
X168274647Y-109345817D01*
X168274642Y-109345813D01*
X168096309Y-109216248D01*
X168096308Y-109216247D01*
X168096306Y-109216246D01*
X168033380Y-109184183D01*
X167899890Y-109116165D01*
X167899887Y-109116164D01*
X167690236Y-109048046D01*
X167581370Y-109030803D01*
X167472506Y-109013561D01*
X167252062Y-109013561D01*
X167208516Y-109020458D01*
X167034329Y-109048046D01*
X166964078Y-109070872D01*
X166894237Y-109072867D01*
X166838080Y-109040622D01*
X163109639Y-105312181D01*
X163076154Y-105250858D01*
X163081138Y-105181166D01*
X163123010Y-105125233D01*
X163188474Y-105100816D01*
X163197320Y-105100500D01*
X169183841Y-105100500D01*
X169250880Y-105120185D01*
X169271522Y-105136819D01*
X174024560Y-109889857D01*
X174058045Y-109951180D01*
X174054810Y-110015855D01*
X174031984Y-110086106D01*
X173997499Y-110303839D01*
X173997499Y-110524282D01*
X174031984Y-110742013D01*
X174100102Y-110951664D01*
X174100103Y-110951667D01*
X174200186Y-111148086D01*
X174329751Y-111326419D01*
X174329755Y-111326424D01*
X174379927Y-111376596D01*
X174413412Y-111437919D01*
X174408428Y-111507611D01*
X174366556Y-111563544D01*
X174335580Y-111580459D01*
X174255668Y-111610264D01*
X174255663Y-111610267D01*
X174140454Y-111696513D01*
X174140451Y-111696516D01*
X174054205Y-111811725D01*
X174054201Y-111811732D01*
X174003907Y-111946578D01*
X173997500Y-112006177D01*
X173997500Y-112006184D01*
X173997499Y-112006196D01*
X173997499Y-113901931D01*
X173997500Y-113901937D01*
X174003907Y-113961544D01*
X174054201Y-114096389D01*
X174054205Y-114096396D01*
X174140451Y-114211605D01*
X174140454Y-114211608D01*
X174255663Y-114297854D01*
X174255670Y-114297858D01*
X174390516Y-114348152D01*
X174390515Y-114348152D01*
X174397443Y-114348896D01*
X174450126Y-114354561D01*
X176345871Y-114354560D01*
X176405482Y-114348152D01*
X176540330Y-114297857D01*
X176655545Y-114211607D01*
X176741795Y-114096392D01*
X176792090Y-113961544D01*
X176798499Y-113901934D01*
X176798498Y-112006189D01*
X176792090Y-111946578D01*
X176741795Y-111811730D01*
X176741794Y-111811729D01*
X176741792Y-111811725D01*
X176655546Y-111696516D01*
X176655543Y-111696513D01*
X176540334Y-111610267D01*
X176540327Y-111610263D01*
X176460418Y-111580459D01*
X176404484Y-111538588D01*
X176380067Y-111473123D01*
X176394919Y-111404850D01*
X176416068Y-111376598D01*
X176466241Y-111326426D01*
X176595814Y-111148083D01*
X176695894Y-110951667D01*
X176764014Y-110742012D01*
X176798499Y-110524283D01*
X176798499Y-110303839D01*
X182033213Y-110303839D01*
X182033213Y-110524282D01*
X182067698Y-110742013D01*
X182135816Y-110951664D01*
X182135817Y-110951667D01*
X182235900Y-111148086D01*
X182365465Y-111326419D01*
X182365469Y-111326424D01*
X182415641Y-111376596D01*
X182449126Y-111437919D01*
X182444142Y-111507611D01*
X182402270Y-111563544D01*
X182371294Y-111580459D01*
X182291382Y-111610264D01*
X182291377Y-111610267D01*
X182176168Y-111696513D01*
X182176165Y-111696516D01*
X182089919Y-111811725D01*
X182089915Y-111811732D01*
X182039621Y-111946578D01*
X182033214Y-112006177D01*
X182033214Y-112006184D01*
X182033213Y-112006196D01*
X182033213Y-113901931D01*
X182033214Y-113901937D01*
X182039621Y-113961544D01*
X182089915Y-114096389D01*
X182089919Y-114096396D01*
X182176165Y-114211605D01*
X182176168Y-114211608D01*
X182291377Y-114297854D01*
X182291384Y-114297858D01*
X182426230Y-114348152D01*
X182426229Y-114348152D01*
X182433157Y-114348896D01*
X182485840Y-114354561D01*
X184381585Y-114354560D01*
X184441196Y-114348152D01*
X184576044Y-114297857D01*
X184691259Y-114211607D01*
X184777509Y-114096392D01*
X184827804Y-113961544D01*
X184834213Y-113901934D01*
X184834212Y-112006189D01*
X184827804Y-111946578D01*
X184777509Y-111811730D01*
X184777508Y-111811729D01*
X184777506Y-111811725D01*
X184691260Y-111696516D01*
X184691257Y-111696513D01*
X184576048Y-111610267D01*
X184576041Y-111610263D01*
X184496132Y-111580459D01*
X184440198Y-111538588D01*
X184415781Y-111473123D01*
X184430633Y-111404850D01*
X184451782Y-111376598D01*
X184501955Y-111326426D01*
X184631528Y-111148083D01*
X184731608Y-110951667D01*
X184799728Y-110742012D01*
X184834213Y-110524283D01*
X184834213Y-110303839D01*
X184799728Y-110086110D01*
X184731608Y-109876455D01*
X184731608Y-109876454D01*
X184696950Y-109808436D01*
X184631528Y-109680039D01*
X184614973Y-109657253D01*
X184501960Y-109501702D01*
X184501956Y-109501697D01*
X184346076Y-109345817D01*
X184346071Y-109345813D01*
X184167738Y-109216248D01*
X184167737Y-109216247D01*
X184167735Y-109216246D01*
X184104809Y-109184183D01*
X183971319Y-109116165D01*
X183971316Y-109116164D01*
X183761665Y-109048046D01*
X183652799Y-109030803D01*
X183543935Y-109013561D01*
X183323491Y-109013561D01*
X183250914Y-109025056D01*
X183105760Y-109048046D01*
X182896109Y-109116164D01*
X182896106Y-109116165D01*
X182699687Y-109216248D01*
X182521354Y-109345813D01*
X182521349Y-109345817D01*
X182365469Y-109501697D01*
X182365465Y-109501702D01*
X182235900Y-109680035D01*
X182135817Y-109876454D01*
X182135816Y-109876457D01*
X182067698Y-110086108D01*
X182033213Y-110303839D01*
X176798499Y-110303839D01*
X176764014Y-110086110D01*
X176695894Y-109876455D01*
X176695894Y-109876454D01*
X176661236Y-109808436D01*
X176595814Y-109680039D01*
X176579259Y-109657253D01*
X176466246Y-109501702D01*
X176466242Y-109501697D01*
X176310362Y-109345817D01*
X176310357Y-109345813D01*
X176132024Y-109216248D01*
X176132023Y-109216247D01*
X176132021Y-109216246D01*
X176069095Y-109184183D01*
X175935605Y-109116165D01*
X175935602Y-109116164D01*
X175725951Y-109048046D01*
X175617085Y-109030803D01*
X175508221Y-109013561D01*
X175287777Y-109013561D01*
X175244231Y-109020458D01*
X175070044Y-109048046D01*
X174999793Y-109070872D01*
X174929952Y-109072867D01*
X174873795Y-109040622D01*
X169971527Y-104138354D01*
X169964458Y-104131285D01*
X169964458Y-104131284D01*
X169852654Y-104019480D01*
X169765842Y-103969360D01*
X169765842Y-103969359D01*
X169765838Y-103969358D01*
X169715723Y-103940423D01*
X169562995Y-103899499D01*
X169404881Y-103899499D01*
X169397285Y-103899499D01*
X169397269Y-103899500D01*
X147270097Y-103899500D01*
X147240656Y-103890855D01*
X147210670Y-103884332D01*
X147205654Y-103880577D01*
X147203058Y-103879815D01*
X147182416Y-103863181D01*
X147136819Y-103817584D01*
X147103334Y-103756261D01*
X147100500Y-103729903D01*
X147100500Y-101149054D01*
X153399498Y-101149054D01*
X153440424Y-101301787D01*
X153454114Y-101325498D01*
X153454115Y-101325500D01*
X153519477Y-101438712D01*
X153519481Y-101438717D01*
X153638349Y-101557585D01*
X153638355Y-101557590D01*
X154195139Y-102114374D01*
X154195149Y-102114385D01*
X154199479Y-102118715D01*
X154199480Y-102118716D01*
X154311284Y-102230520D01*
X154398095Y-102280639D01*
X154398097Y-102280641D01*
X154442359Y-102306196D01*
X154448215Y-102309577D01*
X154600942Y-102350500D01*
X154600943Y-102350500D01*
X156158164Y-102350500D01*
X156225203Y-102370185D01*
X156268648Y-102418204D01*
X156302185Y-102484023D01*
X156431752Y-102662358D01*
X156431756Y-102662363D01*
X156587636Y-102818243D01*
X156587641Y-102818247D01*
X156743192Y-102931260D01*
X156765978Y-102947815D01*
X156894375Y-103013237D01*
X156962393Y-103047895D01*
X156962396Y-103047896D01*
X157067221Y-103081955D01*
X157172049Y-103116015D01*
X157389778Y-103150500D01*
X157389779Y-103150500D01*
X157610221Y-103150500D01*
X157610222Y-103150500D01*
X157827951Y-103116015D01*
X158037606Y-103047895D01*
X158234022Y-102947815D01*
X158412365Y-102818242D01*
X158568242Y-102662365D01*
X158697815Y-102484022D01*
X158797895Y-102287606D01*
X158866015Y-102077951D01*
X158900500Y-101860222D01*
X158900500Y-101639778D01*
X158866015Y-101422049D01*
X158826940Y-101301787D01*
X158797896Y-101212396D01*
X158797895Y-101212393D01*
X158763237Y-101144375D01*
X158697815Y-101015978D01*
X158620640Y-100909755D01*
X158568247Y-100837641D01*
X158568243Y-100837636D01*
X158518071Y-100787464D01*
X158501969Y-100757975D01*
X158485203Y-100728833D01*
X158485273Y-100727399D01*
X158484586Y-100726141D01*
X158486983Y-100692611D01*
X158488420Y-100663389D01*
X164399500Y-100663389D01*
X164399500Y-100836611D01*
X164406473Y-100880639D01*
X164423943Y-100990943D01*
X164426598Y-101007701D01*
X164468170Y-101135646D01*
X164480128Y-101172447D01*
X164493083Y-101197872D01*
X164558768Y-101326788D01*
X164660586Y-101466928D01*
X164783072Y-101589414D01*
X164923212Y-101691232D01*
X165077555Y-101769873D01*
X165242299Y-101823402D01*
X165413389Y-101850500D01*
X165413390Y-101850500D01*
X165586610Y-101850500D01*
X165586611Y-101850500D01*
X165757701Y-101823402D01*
X165922445Y-101769873D01*
X166076788Y-101691232D01*
X166083591Y-101686289D01*
X166917261Y-101686289D01*
X166917262Y-101686290D01*
X166923471Y-101690801D01*
X167077742Y-101769408D01*
X167242415Y-101822914D01*
X167413429Y-101850000D01*
X167586571Y-101850000D01*
X167757584Y-101822914D01*
X167922257Y-101769408D01*
X168076525Y-101690803D01*
X168082736Y-101686289D01*
X168082737Y-101686289D01*
X167500001Y-101103553D01*
X167500000Y-101103553D01*
X166917261Y-101686289D01*
X166083591Y-101686289D01*
X166216928Y-101589414D01*
X166339414Y-101466928D01*
X166405948Y-101375351D01*
X166409268Y-101371493D01*
X166434489Y-101355157D01*
X166458280Y-101336812D01*
X166464149Y-101335946D01*
X166467912Y-101333510D01*
X166480991Y-101333463D01*
X166512999Y-101328745D01*
X166563710Y-101332736D01*
X167146446Y-100750001D01*
X167146446Y-100749999D01*
X167106951Y-100710504D01*
X167200000Y-100710504D01*
X167200000Y-100789496D01*
X167220444Y-100865796D01*
X167259940Y-100934205D01*
X167315795Y-100990060D01*
X167384204Y-101029556D01*
X167460504Y-101050000D01*
X167539496Y-101050000D01*
X167615796Y-101029556D01*
X167684205Y-100990060D01*
X167740060Y-100934205D01*
X167779556Y-100865796D01*
X167800000Y-100789496D01*
X167800000Y-100749999D01*
X167853553Y-100749999D01*
X167853553Y-100750000D01*
X168436289Y-101332736D01*
X168440803Y-101326525D01*
X168519408Y-101172257D01*
X168572914Y-101007584D01*
X168600000Y-100836571D01*
X168600000Y-100663428D01*
X168572914Y-100492415D01*
X168519408Y-100327742D01*
X168440801Y-100173471D01*
X168436290Y-100167262D01*
X168436289Y-100167261D01*
X167853553Y-100749999D01*
X167800000Y-100749999D01*
X167800000Y-100710504D01*
X167779556Y-100634204D01*
X167740060Y-100565795D01*
X167684205Y-100509940D01*
X167615796Y-100470444D01*
X167539496Y-100450000D01*
X167460504Y-100450000D01*
X167384204Y-100470444D01*
X167315795Y-100509940D01*
X167259940Y-100565795D01*
X167220444Y-100634204D01*
X167200000Y-100710504D01*
X167106951Y-100710504D01*
X166563708Y-100167261D01*
X166513004Y-100171254D01*
X166507869Y-100170175D01*
X166502830Y-100171636D01*
X166474024Y-100163067D01*
X166444626Y-100156893D01*
X166439538Y-100152809D01*
X166435861Y-100151715D01*
X166423041Y-100139564D01*
X166409269Y-100128508D01*
X166405947Y-100124647D01*
X166339414Y-100033072D01*
X166216928Y-99910586D01*
X166083587Y-99813708D01*
X166917261Y-99813708D01*
X166917261Y-99813709D01*
X167500000Y-100396446D01*
X167500001Y-100396446D01*
X168082737Y-99813709D01*
X168076525Y-99809196D01*
X167922259Y-99730592D01*
X167757584Y-99677085D01*
X167586571Y-99650000D01*
X167413429Y-99650000D01*
X167242415Y-99677085D01*
X167077740Y-99730592D01*
X166923480Y-99809193D01*
X166923463Y-99809203D01*
X166917261Y-99813708D01*
X166083587Y-99813708D01*
X166076788Y-99808768D01*
X165922447Y-99730128D01*
X165922446Y-99730127D01*
X165922445Y-99730127D01*
X165757701Y-99676598D01*
X165757699Y-99676597D01*
X165757698Y-99676597D01*
X165626271Y-99655781D01*
X165586611Y-99649500D01*
X165413389Y-99649500D01*
X165373728Y-99655781D01*
X165242302Y-99676597D01*
X165077552Y-99730128D01*
X164923211Y-99808768D01*
X164851159Y-99861118D01*
X164783072Y-99910586D01*
X164783070Y-99910588D01*
X164783069Y-99910588D01*
X164660588Y-100033069D01*
X164660588Y-100033070D01*
X164660586Y-100033072D01*
X164632944Y-100071118D01*
X164558768Y-100173211D01*
X164480128Y-100327552D01*
X164426597Y-100492302D01*
X164412137Y-100583601D01*
X164399500Y-100663389D01*
X158488420Y-100663389D01*
X158488634Y-100659048D01*
X158489467Y-100657881D01*
X158489570Y-100656449D01*
X158509717Y-100629536D01*
X158529249Y-100602196D01*
X158530860Y-100601292D01*
X158531442Y-100600516D01*
X158559842Y-100584595D01*
X158561116Y-100584087D01*
X158642331Y-100553796D01*
X158648270Y-100549349D01*
X158648272Y-100549349D01*
X158700915Y-100509940D01*
X158757546Y-100467546D01*
X158843796Y-100352331D01*
X158894091Y-100217483D01*
X158900500Y-100157873D01*
X158900499Y-98262128D01*
X158894091Y-98202517D01*
X158876193Y-98154531D01*
X158843797Y-98067671D01*
X158843793Y-98067664D01*
X158757547Y-97952455D01*
X158757544Y-97952452D01*
X158642335Y-97866206D01*
X158642328Y-97866202D01*
X158525123Y-97822488D01*
X158507482Y-97815908D01*
X158507483Y-97815908D01*
X158447883Y-97809501D01*
X158447881Y-97809500D01*
X158447873Y-97809500D01*
X158447864Y-97809500D01*
X156552129Y-97809500D01*
X156552123Y-97809501D01*
X156492516Y-97815908D01*
X156357671Y-97866202D01*
X156357664Y-97866206D01*
X156242455Y-97952452D01*
X156242452Y-97952455D01*
X156156206Y-98067664D01*
X156156202Y-98067671D01*
X156105908Y-98202517D01*
X156099501Y-98262116D01*
X156099501Y-98262123D01*
X156099500Y-98262135D01*
X156099500Y-100157870D01*
X156099501Y-100157876D01*
X156105908Y-100217483D01*
X156156202Y-100352328D01*
X156156206Y-100352335D01*
X156242452Y-100467544D01*
X156242455Y-100467547D01*
X156357664Y-100553793D01*
X156357671Y-100553797D01*
X156437580Y-100583601D01*
X156493514Y-100625472D01*
X156517931Y-100690936D01*
X156503080Y-100759209D01*
X156481929Y-100787463D01*
X156431756Y-100837636D01*
X156431752Y-100837641D01*
X156302185Y-101015976D01*
X156268648Y-101081796D01*
X156220674Y-101132591D01*
X156158164Y-101149500D01*
X154980097Y-101149500D01*
X154913058Y-101129815D01*
X154892416Y-101113181D01*
X154636819Y-100857584D01*
X154603334Y-100796261D01*
X154600500Y-100769903D01*
X154600500Y-97709635D01*
X170799500Y-97709635D01*
X170799500Y-99710370D01*
X170799501Y-99710376D01*
X170805908Y-99769983D01*
X170856202Y-99904828D01*
X170856206Y-99904835D01*
X170942452Y-100020044D01*
X170942455Y-100020047D01*
X171057664Y-100106293D01*
X171057669Y-100106296D01*
X171085539Y-100116690D01*
X171141473Y-100158561D01*
X171165891Y-100224024D01*
X171151040Y-100292298D01*
X171142525Y-100305759D01*
X171009783Y-100488461D01*
X170905950Y-100692244D01*
X170835278Y-100909750D01*
X170835278Y-100909753D01*
X170799500Y-101135646D01*
X170799500Y-101364353D01*
X170835278Y-101590246D01*
X170835278Y-101590249D01*
X170905950Y-101807755D01*
X170959432Y-101912718D01*
X171009783Y-102011538D01*
X171144214Y-102196566D01*
X171305934Y-102358286D01*
X171390864Y-102419991D01*
X171433529Y-102475321D01*
X171439508Y-102544935D01*
X171406902Y-102606730D01*
X171390864Y-102620627D01*
X171306257Y-102682097D01*
X171144597Y-102843757D01*
X171010211Y-103028723D01*
X170906417Y-103232429D01*
X170835765Y-103449871D01*
X170821491Y-103540000D01*
X171809252Y-103540000D01*
X171787482Y-103577708D01*
X171750000Y-103717591D01*
X171750000Y-103862409D01*
X171787482Y-104002292D01*
X171809252Y-104040000D01*
X170821491Y-104040000D01*
X170835765Y-104130128D01*
X170906417Y-104347570D01*
X171010211Y-104551276D01*
X171144597Y-104736242D01*
X171306257Y-104897902D01*
X171491223Y-105032288D01*
X171694929Y-105136082D01*
X171912371Y-105206734D01*
X172050000Y-105228532D01*
X172050000Y-104280747D01*
X172087708Y-104302518D01*
X172227591Y-104340000D01*
X172372409Y-104340000D01*
X172512292Y-104302518D01*
X172550000Y-104280747D01*
X172550000Y-105228531D01*
X172687628Y-105206734D01*
X172905070Y-105136082D01*
X173108776Y-105032288D01*
X173293742Y-104897902D01*
X173455402Y-104736242D01*
X173589788Y-104551276D01*
X173693582Y-104347570D01*
X173764234Y-104130128D01*
X173778509Y-104040000D01*
X172790748Y-104040000D01*
X172812518Y-104002292D01*
X172850000Y-103862409D01*
X172850000Y-103717591D01*
X172812518Y-103577708D01*
X172790748Y-103540000D01*
X173778509Y-103540000D01*
X173764234Y-103449871D01*
X173723056Y-103323140D01*
X173711922Y-103288872D01*
X181719500Y-103288872D01*
X181719500Y-103551127D01*
X181723000Y-103577708D01*
X181753730Y-103811116D01*
X181809561Y-104019480D01*
X181821602Y-104064418D01*
X181821605Y-104064428D01*
X181921953Y-104306690D01*
X181921958Y-104306700D01*
X182053075Y-104533803D01*
X182212718Y-104741851D01*
X182212726Y-104741860D01*
X182398140Y-104927274D01*
X182398148Y-104927281D01*
X182606196Y-105086924D01*
X182833299Y-105218041D01*
X182833309Y-105218046D01*
X183075571Y-105318394D01*
X183075581Y-105318398D01*
X183328884Y-105386270D01*
X183588880Y-105420500D01*
X183588887Y-105420500D01*
X183851113Y-105420500D01*
X183851120Y-105420500D01*
X184111116Y-105386270D01*
X184364419Y-105318398D01*
X184541340Y-105245114D01*
X184606690Y-105218046D01*
X184606691Y-105218045D01*
X184606697Y-105218043D01*
X184833803Y-105086924D01*
X185041851Y-104927282D01*
X185041855Y-104927277D01*
X185041860Y-104927274D01*
X185227274Y-104741860D01*
X185227277Y-104741855D01*
X185227282Y-104741851D01*
X185386924Y-104533803D01*
X185518043Y-104306697D01*
X185618398Y-104064419D01*
X185686270Y-103811116D01*
X185720500Y-103551120D01*
X185720500Y-103288880D01*
X185686270Y-103028884D01*
X185618398Y-102775581D01*
X185573514Y-102667222D01*
X185518046Y-102533309D01*
X185518041Y-102533299D01*
X185386924Y-102306196D01*
X185227281Y-102098148D01*
X185227274Y-102098140D01*
X185041860Y-101912726D01*
X185041851Y-101912718D01*
X184833803Y-101753075D01*
X184606700Y-101621958D01*
X184606690Y-101621953D01*
X184364428Y-101521605D01*
X184364421Y-101521603D01*
X184364419Y-101521602D01*
X184111116Y-101453730D01*
X184053339Y-101446123D01*
X183851127Y-101419500D01*
X183851120Y-101419500D01*
X183588880Y-101419500D01*
X183588872Y-101419500D01*
X183357772Y-101449926D01*
X183328884Y-101453730D01*
X183128039Y-101507546D01*
X183075581Y-101521602D01*
X183075571Y-101521605D01*
X182833309Y-101621953D01*
X182833299Y-101621958D01*
X182606196Y-101753075D01*
X182398148Y-101912718D01*
X182212718Y-102098148D01*
X182053075Y-102306196D01*
X181921958Y-102533299D01*
X181921953Y-102533309D01*
X181821605Y-102775571D01*
X181821602Y-102775581D01*
X181753730Y-103028885D01*
X181719500Y-103288872D01*
X173711922Y-103288872D01*
X173693582Y-103232429D01*
X173589788Y-103028723D01*
X173455402Y-102843757D01*
X173293742Y-102682097D01*
X173209135Y-102620626D01*
X173166470Y-102565296D01*
X173160491Y-102495682D01*
X173193097Y-102433887D01*
X173209125Y-102419999D01*
X173294066Y-102358286D01*
X173455786Y-102196566D01*
X173590217Y-102011538D01*
X173694048Y-101807758D01*
X173711816Y-101753075D01*
X173764721Y-101590249D01*
X173764721Y-101590248D01*
X173764722Y-101590245D01*
X173800500Y-101364354D01*
X173800500Y-101135646D01*
X173764722Y-100909755D01*
X173764721Y-100909751D01*
X173764721Y-100909750D01*
X173694049Y-100692244D01*
X173688706Y-100681758D01*
X173590217Y-100488462D01*
X173457472Y-100305755D01*
X173433994Y-100239953D01*
X173449819Y-100171899D01*
X173499925Y-100123204D01*
X173514455Y-100116692D01*
X173542331Y-100106296D01*
X173657546Y-100020046D01*
X173743796Y-99904831D01*
X173794091Y-99769983D01*
X173800500Y-99710373D01*
X173800500Y-99434500D01*
X173820185Y-99367461D01*
X173872989Y-99321706D01*
X173924500Y-99310500D01*
X176259903Y-99310500D01*
X176326942Y-99330185D01*
X176347584Y-99346819D01*
X177715139Y-100714374D01*
X177715149Y-100714385D01*
X177719479Y-100718715D01*
X177719480Y-100718716D01*
X177831284Y-100830520D01*
X177918095Y-100880639D01*
X177918097Y-100880641D01*
X177968213Y-100909576D01*
X177968215Y-100909577D01*
X178120942Y-100950500D01*
X178120943Y-100950500D01*
X179635501Y-100950500D01*
X179702540Y-100970185D01*
X179748295Y-101022989D01*
X179759501Y-101074500D01*
X179759501Y-101197876D01*
X179765908Y-101257483D01*
X179816202Y-101392328D01*
X179816206Y-101392335D01*
X179902452Y-101507544D01*
X179902455Y-101507547D01*
X180017664Y-101593793D01*
X180017671Y-101593797D01*
X180152517Y-101644091D01*
X180152516Y-101644091D01*
X180159444Y-101644835D01*
X180212127Y-101650500D01*
X181807872Y-101650499D01*
X181867483Y-101644091D01*
X182002331Y-101593796D01*
X182117546Y-101507546D01*
X182203796Y-101392331D01*
X182254091Y-101257483D01*
X182260500Y-101197873D01*
X182260499Y-99502128D01*
X182254091Y-99442517D01*
X182209031Y-99321706D01*
X182203797Y-99307671D01*
X182203793Y-99307664D01*
X182117547Y-99192455D01*
X182117544Y-99192452D01*
X182002335Y-99106206D01*
X182002328Y-99106202D01*
X181882554Y-99061530D01*
X181826620Y-99019659D01*
X181802203Y-98954195D01*
X181817054Y-98885922D01*
X181853009Y-98845025D01*
X181857215Y-98841969D01*
X181857215Y-98841968D01*
X181857219Y-98841966D01*
X182001966Y-98697219D01*
X182001968Y-98697215D01*
X182001971Y-98697213D01*
X182058752Y-98619059D01*
X182122287Y-98531610D01*
X182215220Y-98349219D01*
X182278477Y-98154534D01*
X182278476Y-98154534D01*
X182278478Y-98154531D01*
X182310500Y-97952351D01*
X182310500Y-97747648D01*
X182278477Y-97545465D01*
X182249127Y-97455137D01*
X182215220Y-97350781D01*
X182215218Y-97350778D01*
X182215218Y-97350776D01*
X182181503Y-97284607D01*
X182122287Y-97168390D01*
X182114556Y-97157749D01*
X182001971Y-97002786D01*
X181936866Y-96937681D01*
X181903381Y-96876358D01*
X181908365Y-96806666D01*
X181936866Y-96762319D01*
X182001966Y-96697219D01*
X182001968Y-96697215D01*
X182001971Y-96697213D01*
X182054732Y-96624590D01*
X182122287Y-96531610D01*
X182215220Y-96349219D01*
X182278477Y-96154534D01*
X182310500Y-95952352D01*
X182310500Y-95747648D01*
X182308775Y-95736759D01*
X182278477Y-95545465D01*
X182215218Y-95350776D01*
X182180211Y-95282073D01*
X182122287Y-95168390D01*
X182114556Y-95157749D01*
X182001971Y-95002786D01*
X181857213Y-94858028D01*
X181691613Y-94737715D01*
X181691612Y-94737714D01*
X181691610Y-94737713D01*
X181638171Y-94710484D01*
X181587376Y-94662510D01*
X181570581Y-94594689D01*
X181593118Y-94528554D01*
X181638172Y-94489515D01*
X181691610Y-94462287D01*
X181795299Y-94386953D01*
X181857213Y-94341971D01*
X181857215Y-94341968D01*
X181857219Y-94341966D01*
X182001966Y-94197219D01*
X182001966Y-94197218D01*
X182001971Y-94197214D01*
X182001971Y-94197213D01*
X182078566Y-94091787D01*
X182122287Y-94031610D01*
X182215220Y-93849219D01*
X182278477Y-93654534D01*
X182310500Y-93452352D01*
X182310500Y-93247648D01*
X182285229Y-93088095D01*
X182278477Y-93045465D01*
X182226387Y-92885149D01*
X182215220Y-92850781D01*
X182215218Y-92850778D01*
X182215218Y-92850776D01*
X182170834Y-92763669D01*
X182122287Y-92668390D01*
X182114556Y-92657749D01*
X182001971Y-92502786D01*
X181857213Y-92358028D01*
X181691613Y-92237715D01*
X181691612Y-92237714D01*
X181691610Y-92237713D01*
X181623482Y-92203000D01*
X181509223Y-92144781D01*
X181314534Y-92081522D01*
X181139995Y-92053878D01*
X181112352Y-92049500D01*
X180907648Y-92049500D01*
X180883329Y-92053351D01*
X180705465Y-92081522D01*
X180510776Y-92144781D01*
X180328386Y-92237715D01*
X180162786Y-92358028D01*
X180018028Y-92502786D01*
X179897715Y-92668386D01*
X179804781Y-92850776D01*
X179741522Y-93045465D01*
X179721649Y-93170943D01*
X179709500Y-93247648D01*
X179709500Y-93452352D01*
X179712808Y-93473240D01*
X179741522Y-93654534D01*
X179804781Y-93849223D01*
X179897715Y-94031613D01*
X180018028Y-94197213D01*
X180162786Y-94341971D01*
X180328388Y-94462286D01*
X180381828Y-94489516D01*
X180432623Y-94537490D01*
X180449418Y-94605312D01*
X180426880Y-94671446D01*
X180381828Y-94710484D01*
X180328388Y-94737713D01*
X180162786Y-94858028D01*
X180018028Y-95002786D01*
X179897715Y-95168386D01*
X179804781Y-95350776D01*
X179741522Y-95545465D01*
X179709500Y-95747648D01*
X179709500Y-95952351D01*
X179741522Y-96154534D01*
X179804781Y-96349223D01*
X179897715Y-96531613D01*
X180018028Y-96697213D01*
X180083134Y-96762319D01*
X180116619Y-96823642D01*
X180111635Y-96893334D01*
X180083134Y-96937681D01*
X180018032Y-97002782D01*
X180018028Y-97002786D01*
X179897715Y-97168386D01*
X179804781Y-97350776D01*
X179741522Y-97545465D01*
X179709500Y-97747648D01*
X179709500Y-97952351D01*
X179741522Y-98154531D01*
X179804781Y-98349223D01*
X179897715Y-98531613D01*
X180018028Y-98697213D01*
X180162784Y-98841969D01*
X180166996Y-98845029D01*
X180209663Y-98900359D01*
X180215643Y-98969972D01*
X180183037Y-99031767D01*
X180137445Y-99061530D01*
X180017671Y-99106202D01*
X180017664Y-99106206D01*
X179902455Y-99192452D01*
X179902452Y-99192455D01*
X179816206Y-99307664D01*
X179816202Y-99307671D01*
X179765908Y-99442517D01*
X179759501Y-99502116D01*
X179759501Y-99502123D01*
X179759500Y-99502135D01*
X179759500Y-99625500D01*
X179739815Y-99692539D01*
X179687011Y-99738294D01*
X179635500Y-99749500D01*
X178500097Y-99749500D01*
X178433058Y-99729815D01*
X178412416Y-99713181D01*
X177047590Y-98348355D01*
X177047588Y-98348352D01*
X176928717Y-98229481D01*
X176928712Y-98229477D01*
X176798905Y-98154534D01*
X176791785Y-98150423D01*
X176639057Y-98109499D01*
X176480943Y-98109499D01*
X176473347Y-98109499D01*
X176473331Y-98109500D01*
X173924499Y-98109500D01*
X173857460Y-98089815D01*
X173811705Y-98037011D01*
X173800499Y-97985500D01*
X173800499Y-97709629D01*
X173800498Y-97709623D01*
X173800497Y-97709616D01*
X173794091Y-97650017D01*
X173743796Y-97515169D01*
X173743795Y-97515168D01*
X173743793Y-97515164D01*
X173657547Y-97399955D01*
X173657544Y-97399952D01*
X173542335Y-97313706D01*
X173542328Y-97313702D01*
X173407482Y-97263408D01*
X173407483Y-97263408D01*
X173347883Y-97257001D01*
X173347881Y-97257000D01*
X173347873Y-97257000D01*
X173347864Y-97257000D01*
X171252129Y-97257000D01*
X171252123Y-97257001D01*
X171192516Y-97263408D01*
X171057671Y-97313702D01*
X171057664Y-97313706D01*
X170942455Y-97399952D01*
X170942452Y-97399955D01*
X170856206Y-97515164D01*
X170856202Y-97515171D01*
X170805908Y-97650017D01*
X170799501Y-97709616D01*
X170799501Y-97709623D01*
X170799500Y-97709635D01*
X154600500Y-97709635D01*
X154600500Y-96470096D01*
X154620185Y-96403057D01*
X154636815Y-96382419D01*
X155309169Y-95710064D01*
X155370490Y-95676581D01*
X155416246Y-95675274D01*
X155575514Y-95700500D01*
X155575519Y-95700500D01*
X155764486Y-95700500D01*
X155951118Y-95670940D01*
X155981753Y-95660986D01*
X156130832Y-95612547D01*
X156299199Y-95526760D01*
X156452073Y-95415690D01*
X156585690Y-95282073D01*
X156696760Y-95129199D01*
X156782547Y-94960832D01*
X156840940Y-94781118D01*
X156870500Y-94594486D01*
X156870500Y-94405513D01*
X156840940Y-94218881D01*
X156792928Y-94071118D01*
X156782547Y-94039168D01*
X156782545Y-94039165D01*
X156782545Y-94039163D01*
X156731538Y-93939057D01*
X156696760Y-93870801D01*
X156585690Y-93717927D01*
X156452073Y-93584310D01*
X156299199Y-93473240D01*
X156268080Y-93457384D01*
X156130836Y-93387454D01*
X155951118Y-93329059D01*
X155764486Y-93299500D01*
X155764481Y-93299500D01*
X155575519Y-93299500D01*
X155575514Y-93299500D01*
X155388881Y-93329059D01*
X155209163Y-93387454D01*
X155040800Y-93473240D01*
X154988361Y-93511340D01*
X154887927Y-93584310D01*
X154887925Y-93584312D01*
X154887924Y-93584312D01*
X154754312Y-93717924D01*
X154754312Y-93717925D01*
X154754310Y-93717927D01*
X154721149Y-93763569D01*
X154643240Y-93870800D01*
X154557454Y-94039163D01*
X154499059Y-94218881D01*
X154469500Y-94405513D01*
X154469500Y-94594486D01*
X154494725Y-94753751D01*
X154485770Y-94823045D01*
X154459933Y-94860830D01*
X153631286Y-95689478D01*
X153519481Y-95801282D01*
X153519480Y-95801284D01*
X153473491Y-95880940D01*
X153440423Y-95938215D01*
X153399499Y-96090943D01*
X153399499Y-96249057D01*
X153399499Y-96249059D01*
X153399500Y-96259053D01*
X153399500Y-100983330D01*
X153399499Y-100983348D01*
X153399499Y-101149054D01*
X153399498Y-101149054D01*
X147100500Y-101149054D01*
X147100500Y-100900791D01*
X147120185Y-100833752D01*
X147151612Y-100800475D01*
X147282073Y-100705690D01*
X147415690Y-100572073D01*
X147526760Y-100419199D01*
X147612547Y-100250832D01*
X147670940Y-100071118D01*
X147679029Y-100020044D01*
X147700500Y-99884486D01*
X147700500Y-99695513D01*
X147670940Y-99508881D01*
X147663347Y-99485513D01*
X149249500Y-99485513D01*
X149249500Y-99674486D01*
X149279059Y-99861118D01*
X149337454Y-100040836D01*
X149401872Y-100167262D01*
X149423240Y-100209199D01*
X149534310Y-100362073D01*
X149667927Y-100495690D01*
X149820801Y-100606760D01*
X149865502Y-100629536D01*
X149989163Y-100692545D01*
X149989165Y-100692545D01*
X149989168Y-100692547D01*
X150085497Y-100723846D01*
X150168881Y-100750940D01*
X150355514Y-100780500D01*
X150355519Y-100780500D01*
X150544486Y-100780500D01*
X150731118Y-100750940D01*
X150734014Y-100749999D01*
X150910832Y-100692547D01*
X151079199Y-100606760D01*
X151232073Y-100495690D01*
X151365690Y-100362073D01*
X151476760Y-100209199D01*
X151562547Y-100040832D01*
X151620940Y-99861118D01*
X151628449Y-99813708D01*
X151650500Y-99674486D01*
X151650500Y-99485513D01*
X151620940Y-99298881D01*
X151593846Y-99215497D01*
X151562547Y-99119168D01*
X151562545Y-99119165D01*
X151562545Y-99119163D01*
X151505866Y-99007925D01*
X151476760Y-98950801D01*
X151365690Y-98797927D01*
X151232073Y-98664310D01*
X151079199Y-98553240D01*
X150910836Y-98467454D01*
X150731118Y-98409059D01*
X150544486Y-98379500D01*
X150544481Y-98379500D01*
X150355519Y-98379500D01*
X150355514Y-98379500D01*
X150168881Y-98409059D01*
X149989163Y-98467454D01*
X149820800Y-98553240D01*
X149733579Y-98616610D01*
X149667927Y-98664310D01*
X149667925Y-98664312D01*
X149667924Y-98664312D01*
X149534312Y-98797924D01*
X149534312Y-98797925D01*
X149534310Y-98797927D01*
X149500091Y-98845025D01*
X149423240Y-98950800D01*
X149337454Y-99119163D01*
X149279059Y-99298881D01*
X149249500Y-99485513D01*
X147663347Y-99485513D01*
X147612545Y-99329163D01*
X147526759Y-99160800D01*
X147415690Y-99007927D01*
X147282073Y-98874310D01*
X147129199Y-98763240D01*
X146960836Y-98677454D01*
X146781118Y-98619059D01*
X146594486Y-98589500D01*
X146594481Y-98589500D01*
X146405519Y-98589500D01*
X146405514Y-98589500D01*
X146218881Y-98619059D01*
X146039163Y-98677454D01*
X145870800Y-98763240D01*
X145783579Y-98826610D01*
X145717927Y-98874310D01*
X145717925Y-98874312D01*
X145717924Y-98874312D01*
X145584312Y-99007924D01*
X145584312Y-99007925D01*
X145584310Y-99007927D01*
X145554105Y-99049501D01*
X145473240Y-99160800D01*
X145387454Y-99329163D01*
X145329059Y-99508881D01*
X145299500Y-99695513D01*
X145299500Y-99884486D01*
X145329059Y-100071118D01*
X145387454Y-100250836D01*
X145439169Y-100352331D01*
X145473240Y-100419199D01*
X145584310Y-100572073D01*
X145717927Y-100705690D01*
X145848386Y-100800474D01*
X145891051Y-100855803D01*
X145899500Y-100900791D01*
X145899500Y-103943330D01*
X145899499Y-103943348D01*
X145899499Y-104109054D01*
X145899498Y-104109054D01*
X145940423Y-104261785D01*
X145944136Y-104268216D01*
X146019477Y-104398712D01*
X146019481Y-104398717D01*
X146138349Y-104517585D01*
X146138355Y-104517590D01*
X146318584Y-104697819D01*
X146352069Y-104759142D01*
X146347085Y-104828834D01*
X146305213Y-104884767D01*
X146239749Y-104909184D01*
X146230903Y-104909500D01*
X144980097Y-104909500D01*
X144913058Y-104889815D01*
X144892416Y-104873181D01*
X143986819Y-103967584D01*
X143953334Y-103906261D01*
X143950500Y-103879903D01*
X143950500Y-100900791D01*
X143970185Y-100833752D01*
X144001612Y-100800475D01*
X144132073Y-100705690D01*
X144265690Y-100572073D01*
X144376760Y-100419199D01*
X144462547Y-100250832D01*
X144520940Y-100071118D01*
X144529029Y-100020044D01*
X144550500Y-99884486D01*
X144550500Y-99695513D01*
X144520940Y-99508881D01*
X144462545Y-99329163D01*
X144376759Y-99160800D01*
X144265690Y-99007927D01*
X144132073Y-98874310D01*
X143979199Y-98763240D01*
X143810836Y-98677454D01*
X143631118Y-98619059D01*
X143444486Y-98589500D01*
X143444481Y-98589500D01*
X143255519Y-98589500D01*
X143255514Y-98589500D01*
X143068881Y-98619059D01*
X142889163Y-98677454D01*
X142720800Y-98763240D01*
X142633579Y-98826610D01*
X142567927Y-98874310D01*
X142567925Y-98874312D01*
X142567924Y-98874312D01*
X142434312Y-99007924D01*
X142434312Y-99007925D01*
X142434310Y-99007927D01*
X142404105Y-99049501D01*
X142323240Y-99160800D01*
X142237454Y-99329163D01*
X142179059Y-99508881D01*
X142149500Y-99695513D01*
X142149500Y-99884486D01*
X142179059Y-100071118D01*
X142237454Y-100250836D01*
X142289169Y-100352331D01*
X142323240Y-100419199D01*
X142434310Y-100572073D01*
X142567927Y-100705690D01*
X142698386Y-100800474D01*
X142741051Y-100855803D01*
X142749500Y-100900791D01*
X142749500Y-104093330D01*
X142749499Y-104093348D01*
X142749499Y-104259054D01*
X142749498Y-104259054D01*
X142790423Y-104411785D01*
X142819358Y-104461900D01*
X142819359Y-104461904D01*
X142819360Y-104461904D01*
X142865478Y-104541785D01*
X142869479Y-104548714D01*
X142869481Y-104548717D01*
X142988349Y-104667585D01*
X142988355Y-104667590D01*
X143908584Y-105587819D01*
X143942069Y-105649142D01*
X143937085Y-105718834D01*
X143895213Y-105774767D01*
X143829749Y-105799184D01*
X143820903Y-105799500D01*
X142590097Y-105799500D01*
X142523058Y-105779815D01*
X142502416Y-105763181D01*
X140836819Y-104097584D01*
X140803334Y-104036261D01*
X140800500Y-104009903D01*
X140800500Y-100900791D01*
X140820185Y-100833752D01*
X140851612Y-100800475D01*
X140982073Y-100705690D01*
X141115690Y-100572073D01*
X141226760Y-100419199D01*
X141312547Y-100250832D01*
X141370940Y-100071118D01*
X141379029Y-100020044D01*
X141400500Y-99884486D01*
X141400500Y-99695513D01*
X141370940Y-99508881D01*
X141312545Y-99329163D01*
X141226759Y-99160800D01*
X141115690Y-99007927D01*
X140982073Y-98874310D01*
X140829199Y-98763240D01*
X140660836Y-98677454D01*
X140481118Y-98619059D01*
X140294486Y-98589500D01*
X140294481Y-98589500D01*
X140105519Y-98589500D01*
X140105514Y-98589500D01*
X139918881Y-98619059D01*
X139739163Y-98677454D01*
X139570800Y-98763240D01*
X139483579Y-98826610D01*
X139417927Y-98874310D01*
X139417925Y-98874312D01*
X139417924Y-98874312D01*
X139284312Y-99007924D01*
X139284312Y-99007925D01*
X139284310Y-99007927D01*
X139254105Y-99049501D01*
X139173240Y-99160800D01*
X139087454Y-99329163D01*
X139029059Y-99508881D01*
X138999500Y-99695513D01*
X138999500Y-99884486D01*
X139029059Y-100071118D01*
X139087454Y-100250836D01*
X139139169Y-100352331D01*
X139173240Y-100419199D01*
X139284310Y-100572073D01*
X139417927Y-100705690D01*
X139548386Y-100800474D01*
X139591051Y-100855803D01*
X139599500Y-100900791D01*
X139599500Y-104223330D01*
X139599499Y-104223348D01*
X139599499Y-104389054D01*
X139599498Y-104389054D01*
X139640422Y-104541782D01*
X139640424Y-104541787D01*
X139644426Y-104548718D01*
X139644427Y-104548720D01*
X139719477Y-104678712D01*
X139719481Y-104678717D01*
X139838349Y-104797585D01*
X139838355Y-104797590D01*
X141068584Y-106027819D01*
X141102069Y-106089142D01*
X141097085Y-106158834D01*
X141055213Y-106214767D01*
X140989749Y-106239184D01*
X140980903Y-106239500D01*
X138110097Y-106239500D01*
X138043058Y-106219815D01*
X138022416Y-106203181D01*
X137686819Y-105867584D01*
X137653334Y-105806261D01*
X137650500Y-105779903D01*
X137650500Y-100900791D01*
X137670185Y-100833752D01*
X137701612Y-100800475D01*
X137832073Y-100705690D01*
X137965690Y-100572073D01*
X138076760Y-100419199D01*
X138162547Y-100250832D01*
X138220940Y-100071118D01*
X138229029Y-100020044D01*
X138250500Y-99884486D01*
X138250500Y-99695513D01*
X138220940Y-99508881D01*
X138162545Y-99329163D01*
X138076759Y-99160800D01*
X137965690Y-99007927D01*
X137832073Y-98874310D01*
X137679199Y-98763240D01*
X137510836Y-98677454D01*
X137331118Y-98619059D01*
X137144486Y-98589500D01*
X137144481Y-98589500D01*
X136955519Y-98589500D01*
X136955514Y-98589500D01*
X136768881Y-98619059D01*
X136589163Y-98677454D01*
X136420800Y-98763240D01*
X136333579Y-98826610D01*
X136267927Y-98874310D01*
X136267925Y-98874312D01*
X136267924Y-98874312D01*
X136134312Y-99007924D01*
X136134312Y-99007925D01*
X136134310Y-99007927D01*
X136104105Y-99049501D01*
X136023240Y-99160800D01*
X135937454Y-99329163D01*
X135879059Y-99508881D01*
X135849500Y-99695513D01*
X135849500Y-99884486D01*
X135879059Y-100071118D01*
X135937454Y-100250836D01*
X135989169Y-100352331D01*
X136023240Y-100419199D01*
X136134310Y-100572073D01*
X136267927Y-100705690D01*
X136398386Y-100800474D01*
X136441051Y-100855803D01*
X136449500Y-100900791D01*
X136449500Y-105993330D01*
X136449499Y-105993348D01*
X136449499Y-106159054D01*
X136449498Y-106159054D01*
X136490424Y-106311789D01*
X136490425Y-106311790D01*
X136517959Y-106359479D01*
X136517960Y-106359480D01*
X136569479Y-106448714D01*
X136569481Y-106448717D01*
X136688349Y-106567585D01*
X136688355Y-106567590D01*
X136938584Y-106817819D01*
X136972069Y-106879142D01*
X136967085Y-106948834D01*
X136925213Y-107004767D01*
X136859749Y-107029184D01*
X136850903Y-107029500D01*
X136560097Y-107029500D01*
X136493058Y-107009815D01*
X136472416Y-106993181D01*
X134536819Y-105057584D01*
X134503334Y-104996261D01*
X134500500Y-104969903D01*
X134500500Y-100900791D01*
X134520185Y-100833752D01*
X134551612Y-100800475D01*
X134682073Y-100705690D01*
X134815690Y-100572073D01*
X134926760Y-100419199D01*
X135012547Y-100250832D01*
X135070940Y-100071118D01*
X135079029Y-100020044D01*
X135100500Y-99884486D01*
X135100500Y-99695513D01*
X135070940Y-99508881D01*
X135012545Y-99329163D01*
X134926759Y-99160800D01*
X134815690Y-99007927D01*
X134682073Y-98874310D01*
X134529199Y-98763240D01*
X134360836Y-98677454D01*
X134181118Y-98619059D01*
X133994486Y-98589500D01*
X133994481Y-98589500D01*
X133805519Y-98589500D01*
X133805514Y-98589500D01*
X133618881Y-98619059D01*
X133439163Y-98677454D01*
X133270800Y-98763240D01*
X133183579Y-98826610D01*
X133117927Y-98874310D01*
X133117925Y-98874312D01*
X133117924Y-98874312D01*
X132984312Y-99007924D01*
X132984312Y-99007925D01*
X132984310Y-99007927D01*
X132954105Y-99049501D01*
X132873240Y-99160800D01*
X132787454Y-99329163D01*
X132729059Y-99508881D01*
X132699500Y-99695513D01*
X131950500Y-99695513D01*
X131920940Y-99508881D01*
X131862545Y-99329163D01*
X131776759Y-99160800D01*
X131665690Y-99007927D01*
X131532073Y-98874310D01*
X131379199Y-98763240D01*
X131210836Y-98677454D01*
X131031118Y-98619059D01*
X130844486Y-98589500D01*
X130844481Y-98589500D01*
X130655519Y-98589500D01*
X130655514Y-98589500D01*
X130468881Y-98619059D01*
X130289163Y-98677454D01*
X130120800Y-98763240D01*
X130033579Y-98826610D01*
X129967927Y-98874310D01*
X129967925Y-98874312D01*
X129967924Y-98874312D01*
X129834312Y-99007924D01*
X129834312Y-99007925D01*
X129834310Y-99007927D01*
X129804105Y-99049501D01*
X129723240Y-99160800D01*
X129637454Y-99329163D01*
X129579059Y-99508881D01*
X129549500Y-99695513D01*
X128800500Y-99695513D01*
X128770940Y-99508881D01*
X128712545Y-99329163D01*
X128626759Y-99160800D01*
X128515690Y-99007927D01*
X128382073Y-98874310D01*
X128229199Y-98763240D01*
X128060836Y-98677454D01*
X127881118Y-98619059D01*
X127694486Y-98589500D01*
X127694481Y-98589500D01*
X127505519Y-98589500D01*
X127505514Y-98589500D01*
X127318881Y-98619059D01*
X127139163Y-98677454D01*
X126970800Y-98763240D01*
X126883579Y-98826610D01*
X126817927Y-98874310D01*
X126817925Y-98874312D01*
X126817924Y-98874312D01*
X126684312Y-99007924D01*
X126684312Y-99007925D01*
X126684310Y-99007927D01*
X126654105Y-99049501D01*
X126573240Y-99160800D01*
X126487454Y-99329163D01*
X126429059Y-99508881D01*
X126399500Y-99695513D01*
X126399500Y-99884486D01*
X126429059Y-100071118D01*
X126487454Y-100250836D01*
X126539169Y-100352331D01*
X126573240Y-100419199D01*
X126684310Y-100572073D01*
X126817927Y-100705690D01*
X126948386Y-100800474D01*
X126991051Y-100855803D01*
X126999500Y-100900791D01*
X126999500Y-108919374D01*
X126979815Y-108986413D01*
X126927011Y-109032168D01*
X126894899Y-109041847D01*
X126855760Y-109048046D01*
X126646109Y-109116164D01*
X126646106Y-109116165D01*
X126449687Y-109216248D01*
X126271354Y-109345813D01*
X126271349Y-109345817D01*
X126115469Y-109501697D01*
X126115465Y-109501702D01*
X125985900Y-109680035D01*
X125885817Y-109876454D01*
X125885816Y-109876457D01*
X125817698Y-110086108D01*
X125783213Y-110303839D01*
X123000500Y-110303839D01*
X123000500Y-94615513D01*
X126399500Y-94615513D01*
X126399500Y-94804486D01*
X126429059Y-94991118D01*
X126487454Y-95170836D01*
X126544133Y-95282073D01*
X126573240Y-95339199D01*
X126684310Y-95492073D01*
X126817927Y-95625690D01*
X126970801Y-95736760D01*
X127050347Y-95777290D01*
X127139163Y-95822545D01*
X127139165Y-95822545D01*
X127139168Y-95822547D01*
X127235497Y-95853846D01*
X127318881Y-95880940D01*
X127505514Y-95910500D01*
X127505519Y-95910500D01*
X127694486Y-95910500D01*
X127881118Y-95880940D01*
X127881121Y-95880939D01*
X128060832Y-95822547D01*
X128229199Y-95736760D01*
X128382073Y-95625690D01*
X128515690Y-95492073D01*
X128626760Y-95339199D01*
X128712547Y-95170832D01*
X128770940Y-94991118D01*
X128784968Y-94902547D01*
X128800500Y-94804486D01*
X128800500Y-94615513D01*
X128775274Y-94456246D01*
X128784228Y-94386953D01*
X128810063Y-94349170D01*
X130168713Y-92990521D01*
X130168716Y-92990520D01*
X130280520Y-92878716D01*
X130330639Y-92791904D01*
X130359577Y-92741785D01*
X130400501Y-92589057D01*
X130400501Y-92430943D01*
X130400501Y-92423348D01*
X130400500Y-92423330D01*
X130400500Y-91974499D01*
X130420185Y-91907460D01*
X130472989Y-91861705D01*
X130524500Y-91850499D01*
X130697871Y-91850499D01*
X130697872Y-91850499D01*
X130757483Y-91844091D01*
X130892331Y-91793796D01*
X131007546Y-91707546D01*
X131093796Y-91592331D01*
X131142810Y-91460916D01*
X131184681Y-91404984D01*
X131250145Y-91380566D01*
X131318418Y-91395417D01*
X131346673Y-91416569D01*
X131460213Y-91530109D01*
X131632184Y-91655051D01*
X131632184Y-91655052D01*
X131671793Y-91675233D01*
X131722590Y-91723206D01*
X131739500Y-91785718D01*
X131739500Y-92819902D01*
X131719815Y-92886941D01*
X131703181Y-92907583D01*
X131110830Y-93499933D01*
X131049507Y-93533418D01*
X131003751Y-93534725D01*
X130844486Y-93509500D01*
X130844481Y-93509500D01*
X130655519Y-93509500D01*
X130655514Y-93509500D01*
X130468881Y-93539059D01*
X130289163Y-93597454D01*
X130120800Y-93683240D01*
X130046002Y-93737585D01*
X129967927Y-93794310D01*
X129967925Y-93794312D01*
X129967924Y-93794312D01*
X129834312Y-93927924D01*
X129834312Y-93927925D01*
X129834310Y-93927927D01*
X129826226Y-93939054D01*
X129723240Y-94080800D01*
X129637454Y-94249163D01*
X129579059Y-94428881D01*
X129549500Y-94615513D01*
X129549500Y-94804486D01*
X129579059Y-94991118D01*
X129637454Y-95170836D01*
X129694133Y-95282073D01*
X129723240Y-95339199D01*
X129834310Y-95492073D01*
X129967927Y-95625690D01*
X130120801Y-95736760D01*
X130200347Y-95777290D01*
X130289163Y-95822545D01*
X130289165Y-95822545D01*
X130289168Y-95822547D01*
X130385497Y-95853846D01*
X130468881Y-95880940D01*
X130655514Y-95910500D01*
X130655519Y-95910500D01*
X130844486Y-95910500D01*
X131031118Y-95880940D01*
X131031121Y-95880939D01*
X131210832Y-95822547D01*
X131379199Y-95736760D01*
X131532073Y-95625690D01*
X131665690Y-95492073D01*
X131776760Y-95339199D01*
X131862547Y-95170832D01*
X131920940Y-94991118D01*
X131934968Y-94902547D01*
X131950500Y-94804486D01*
X131950500Y-94615513D01*
X131925274Y-94456246D01*
X131934228Y-94386953D01*
X131960063Y-94349170D01*
X132820520Y-93488716D01*
X132899577Y-93351784D01*
X132940501Y-93199057D01*
X132940501Y-93040942D01*
X132940501Y-93033347D01*
X132940500Y-93033329D01*
X132940500Y-91785718D01*
X132943182Y-91776583D01*
X132941898Y-91767149D01*
X132952867Y-91743599D01*
X132960185Y-91718679D01*
X132968164Y-91710759D01*
X132971400Y-91703813D01*
X132988689Y-91690388D01*
X132998247Y-91680902D01*
X133003096Y-91677836D01*
X133047816Y-91655051D01*
X133105849Y-91612887D01*
X133109247Y-91610740D01*
X133139133Y-91602208D01*
X133168421Y-91591758D01*
X133172453Y-91592695D01*
X133176432Y-91591560D01*
X133206196Y-91600542D01*
X133236475Y-91607584D01*
X133239358Y-91610550D01*
X133243322Y-91611747D01*
X133263503Y-91635394D01*
X133285170Y-91657689D01*
X133286249Y-91662048D01*
X133288678Y-91664894D01*
X133290782Y-91680352D01*
X133299500Y-91715556D01*
X133299500Y-93599207D01*
X133279815Y-93666246D01*
X133248386Y-93699525D01*
X133117925Y-93794311D01*
X132984312Y-93927924D01*
X132984312Y-93927925D01*
X132984310Y-93927927D01*
X132976226Y-93939054D01*
X132873240Y-94080800D01*
X132787454Y-94249163D01*
X132729059Y-94428881D01*
X132699500Y-94615513D01*
X132699500Y-94804486D01*
X132729059Y-94991118D01*
X132787454Y-95170836D01*
X132844133Y-95282073D01*
X132873240Y-95339199D01*
X132984310Y-95492073D01*
X133117927Y-95625690D01*
X133270801Y-95736760D01*
X133350347Y-95777290D01*
X133439163Y-95822545D01*
X133439165Y-95822545D01*
X133439168Y-95822547D01*
X133535497Y-95853846D01*
X133618881Y-95880940D01*
X133805514Y-95910500D01*
X133805519Y-95910500D01*
X133994486Y-95910500D01*
X134181118Y-95880940D01*
X134181121Y-95880939D01*
X134360832Y-95822547D01*
X134529199Y-95736760D01*
X134682073Y-95625690D01*
X134815690Y-95492073D01*
X134926760Y-95339199D01*
X135012547Y-95170832D01*
X135070940Y-94991118D01*
X135084968Y-94902547D01*
X135100500Y-94804486D01*
X135100500Y-94615513D01*
X135070940Y-94428881D01*
X135013089Y-94250836D01*
X135012547Y-94249168D01*
X135012545Y-94249165D01*
X135012545Y-94249163D01*
X134932359Y-94091790D01*
X134926760Y-94080801D01*
X134815690Y-93927927D01*
X134682073Y-93794310D01*
X134603998Y-93737585D01*
X134551614Y-93699525D01*
X134508948Y-93644194D01*
X134500500Y-93599207D01*
X134500500Y-91952412D01*
X134520185Y-91885373D01*
X134572989Y-91839618D01*
X134642147Y-91829674D01*
X134643872Y-91829935D01*
X134773713Y-91850500D01*
X134773714Y-91850500D01*
X134986286Y-91850500D01*
X134986287Y-91850500D01*
X135196243Y-91817246D01*
X135398412Y-91751557D01*
X135587816Y-91655051D01*
X135647922Y-91611382D01*
X135759786Y-91530109D01*
X135759788Y-91530106D01*
X135759792Y-91530104D01*
X135910104Y-91379792D01*
X135910106Y-91379788D01*
X135910109Y-91379786D01*
X136035048Y-91207820D01*
X136035047Y-91207820D01*
X136035051Y-91207816D01*
X136039514Y-91199054D01*
X136087488Y-91148259D01*
X136155308Y-91131463D01*
X136221444Y-91153999D01*
X136260486Y-91199056D01*
X136264951Y-91207820D01*
X136389890Y-91379786D01*
X136413181Y-91403077D01*
X136446666Y-91464400D01*
X136449500Y-91490758D01*
X136449500Y-93599207D01*
X136429815Y-93666246D01*
X136398386Y-93699525D01*
X136267925Y-93794311D01*
X136134312Y-93927924D01*
X136134312Y-93927925D01*
X136134310Y-93927927D01*
X136126226Y-93939054D01*
X136023240Y-94080800D01*
X135937454Y-94249163D01*
X135879059Y-94428881D01*
X135849500Y-94615513D01*
X135849500Y-94804486D01*
X135879059Y-94991118D01*
X135937454Y-95170836D01*
X135994133Y-95282073D01*
X136023240Y-95339199D01*
X136134310Y-95492073D01*
X136267927Y-95625690D01*
X136420801Y-95736760D01*
X136500347Y-95777290D01*
X136589163Y-95822545D01*
X136589165Y-95822545D01*
X136589168Y-95822547D01*
X136685497Y-95853846D01*
X136768881Y-95880940D01*
X136955514Y-95910500D01*
X136955519Y-95910500D01*
X137144486Y-95910500D01*
X137331118Y-95880940D01*
X137331121Y-95880939D01*
X137510832Y-95822547D01*
X137679199Y-95736760D01*
X137832073Y-95625690D01*
X137965690Y-95492073D01*
X138076760Y-95339199D01*
X138162547Y-95170832D01*
X138220940Y-94991118D01*
X138234968Y-94902547D01*
X138250500Y-94804486D01*
X138250500Y-94615513D01*
X138220940Y-94428881D01*
X138163089Y-94250836D01*
X138162547Y-94249168D01*
X138162545Y-94249165D01*
X138162545Y-94249163D01*
X138082359Y-94091790D01*
X138076760Y-94080801D01*
X137965690Y-93927927D01*
X137832073Y-93794310D01*
X137753998Y-93737585D01*
X137701614Y-93699525D01*
X137658948Y-93644194D01*
X137650500Y-93599207D01*
X137650500Y-91935197D01*
X137670185Y-91868158D01*
X137722989Y-91822403D01*
X137736181Y-91817266D01*
X137762929Y-91808575D01*
X137938412Y-91751557D01*
X138127816Y-91655051D01*
X138187922Y-91611382D01*
X138299786Y-91530109D01*
X138299788Y-91530106D01*
X138299792Y-91530104D01*
X138450104Y-91379792D01*
X138450106Y-91379788D01*
X138450109Y-91379786D01*
X138575048Y-91207820D01*
X138575047Y-91207820D01*
X138575051Y-91207816D01*
X138579514Y-91199054D01*
X138627488Y-91148259D01*
X138695308Y-91131463D01*
X138761444Y-91153999D01*
X138800486Y-91199056D01*
X138804951Y-91207820D01*
X138929890Y-91379786D01*
X139080213Y-91530109D01*
X139252179Y-91655048D01*
X139252181Y-91655049D01*
X139252184Y-91655051D01*
X139441588Y-91751557D01*
X139513818Y-91775025D01*
X139571492Y-91814461D01*
X139598692Y-91878819D01*
X139599500Y-91892956D01*
X139599500Y-93599207D01*
X139579815Y-93666246D01*
X139548386Y-93699525D01*
X139417925Y-93794311D01*
X139284312Y-93927924D01*
X139284312Y-93927925D01*
X139284310Y-93927927D01*
X139276226Y-93939054D01*
X139173240Y-94080800D01*
X139087454Y-94249163D01*
X139029059Y-94428881D01*
X138999500Y-94615513D01*
X138999500Y-94804486D01*
X139029059Y-94991118D01*
X139087454Y-95170836D01*
X139144133Y-95282073D01*
X139173240Y-95339199D01*
X139284310Y-95492073D01*
X139417927Y-95625690D01*
X139570801Y-95736760D01*
X139650347Y-95777290D01*
X139739163Y-95822545D01*
X139739165Y-95822545D01*
X139739168Y-95822547D01*
X139835497Y-95853846D01*
X139918881Y-95880940D01*
X140105514Y-95910500D01*
X140105519Y-95910500D01*
X140294486Y-95910500D01*
X140481118Y-95880940D01*
X140481121Y-95880939D01*
X140660832Y-95822547D01*
X140829199Y-95736760D01*
X140982073Y-95625690D01*
X141115690Y-95492073D01*
X141226760Y-95339199D01*
X141312547Y-95170832D01*
X141370940Y-94991118D01*
X141384968Y-94902547D01*
X141400500Y-94804486D01*
X141400500Y-94615513D01*
X141370940Y-94428881D01*
X141313089Y-94250836D01*
X141312547Y-94249168D01*
X141312545Y-94249165D01*
X141312545Y-94249163D01*
X141232359Y-94091790D01*
X141226760Y-94080801D01*
X141115690Y-93927927D01*
X140982073Y-93794310D01*
X140903998Y-93737585D01*
X140851614Y-93699525D01*
X140808948Y-93644194D01*
X140800500Y-93599207D01*
X140800500Y-91620758D01*
X140820185Y-91553719D01*
X140836819Y-91533077D01*
X140912413Y-91457483D01*
X140990104Y-91379792D01*
X140990106Y-91379788D01*
X140990109Y-91379786D01*
X141115048Y-91207820D01*
X141115047Y-91207820D01*
X141115051Y-91207816D01*
X141119514Y-91199054D01*
X141167488Y-91148259D01*
X141235308Y-91131463D01*
X141301444Y-91153999D01*
X141340486Y-91199056D01*
X141344951Y-91207820D01*
X141469890Y-91379786D01*
X141620213Y-91530109D01*
X141792184Y-91655051D01*
X141792184Y-91655052D01*
X141831793Y-91675233D01*
X141882590Y-91723206D01*
X141899500Y-91785718D01*
X141899500Y-93773330D01*
X141899499Y-93773348D01*
X141899499Y-93939054D01*
X141899498Y-93939054D01*
X141940423Y-94091787D01*
X141940425Y-94091790D01*
X141963227Y-94131283D01*
X141963228Y-94131285D01*
X142019475Y-94228709D01*
X142019481Y-94228717D01*
X142138349Y-94347585D01*
X142138355Y-94347590D01*
X142139933Y-94349168D01*
X142173418Y-94410491D01*
X142174725Y-94456247D01*
X142149500Y-94615513D01*
X142149500Y-94804486D01*
X142179059Y-94991118D01*
X142237454Y-95170836D01*
X142294133Y-95282073D01*
X142323240Y-95339199D01*
X142434310Y-95492073D01*
X142567927Y-95625690D01*
X142720801Y-95736760D01*
X142800347Y-95777290D01*
X142889163Y-95822545D01*
X142889165Y-95822545D01*
X142889168Y-95822547D01*
X142985497Y-95853846D01*
X143068881Y-95880940D01*
X143255514Y-95910500D01*
X143255519Y-95910500D01*
X143444486Y-95910500D01*
X143631118Y-95880940D01*
X143631121Y-95880939D01*
X143810832Y-95822547D01*
X143979199Y-95736760D01*
X144132073Y-95625690D01*
X144265690Y-95492073D01*
X144376760Y-95339199D01*
X144462547Y-95170832D01*
X144520940Y-94991118D01*
X144534968Y-94902547D01*
X144550500Y-94804486D01*
X144550500Y-94615513D01*
X144520940Y-94428881D01*
X144463089Y-94250836D01*
X144462547Y-94249168D01*
X144462545Y-94249165D01*
X144462545Y-94249163D01*
X144382359Y-94091790D01*
X144376760Y-94080801D01*
X144265690Y-93927927D01*
X144132073Y-93794310D01*
X143979199Y-93683240D01*
X143950500Y-93668617D01*
X143810836Y-93597454D01*
X143631118Y-93539059D01*
X143444486Y-93509500D01*
X143444481Y-93509500D01*
X143255519Y-93509500D01*
X143255514Y-93509500D01*
X143243893Y-93511340D01*
X143174600Y-93502382D01*
X143121150Y-93457384D01*
X143100513Y-93390631D01*
X143100500Y-93388866D01*
X143100500Y-91785718D01*
X143120185Y-91718679D01*
X143168207Y-91675233D01*
X143207815Y-91655052D01*
X143207815Y-91655051D01*
X143207816Y-91655051D01*
X143299193Y-91588661D01*
X143379786Y-91530109D01*
X143379788Y-91530106D01*
X143379792Y-91530104D01*
X143530104Y-91379792D01*
X143530106Y-91379788D01*
X143530109Y-91379786D01*
X143655048Y-91207820D01*
X143655047Y-91207820D01*
X143655051Y-91207816D01*
X143659514Y-91199054D01*
X143707488Y-91148259D01*
X143775308Y-91131463D01*
X143841444Y-91153999D01*
X143880486Y-91199056D01*
X143884951Y-91207820D01*
X144009890Y-91379786D01*
X144160213Y-91530109D01*
X144332184Y-91655051D01*
X144332184Y-91655052D01*
X144371793Y-91675233D01*
X144422590Y-91723206D01*
X144439500Y-91785718D01*
X144439500Y-93163330D01*
X144439499Y-93163348D01*
X144439499Y-93329054D01*
X144439498Y-93329054D01*
X144439500Y-93329060D01*
X144480423Y-93481785D01*
X144505818Y-93525770D01*
X144509358Y-93531900D01*
X144509359Y-93531904D01*
X144509360Y-93531904D01*
X144559479Y-93618714D01*
X144559481Y-93618717D01*
X144678349Y-93737585D01*
X144678355Y-93737590D01*
X145289933Y-94349168D01*
X145323418Y-94410491D01*
X145324725Y-94456247D01*
X145299500Y-94615513D01*
X145299500Y-94804486D01*
X145329059Y-94991118D01*
X145387454Y-95170836D01*
X145444133Y-95282073D01*
X145473240Y-95339199D01*
X145584310Y-95492073D01*
X145717927Y-95625690D01*
X145870801Y-95736760D01*
X145950347Y-95777290D01*
X146039163Y-95822545D01*
X146039165Y-95822545D01*
X146039168Y-95822547D01*
X146135497Y-95853846D01*
X146218881Y-95880940D01*
X146405514Y-95910500D01*
X146405519Y-95910500D01*
X146594486Y-95910500D01*
X146781118Y-95880940D01*
X146781121Y-95880939D01*
X146960832Y-95822547D01*
X147129199Y-95736760D01*
X147282073Y-95625690D01*
X147415690Y-95492073D01*
X147526760Y-95339199D01*
X147612547Y-95170832D01*
X147670940Y-94991118D01*
X147684968Y-94902547D01*
X147700500Y-94804486D01*
X147700500Y-94615513D01*
X147670940Y-94428881D01*
X147613089Y-94250836D01*
X147612547Y-94249168D01*
X147612545Y-94249165D01*
X147612545Y-94249163D01*
X147532359Y-94091790D01*
X147526760Y-94080801D01*
X147415690Y-93927927D01*
X147282073Y-93794310D01*
X147129199Y-93683240D01*
X147100500Y-93668617D01*
X146960836Y-93597454D01*
X146781118Y-93539059D01*
X146594486Y-93509500D01*
X146594481Y-93509500D01*
X146405519Y-93509500D01*
X146405514Y-93509500D01*
X146246247Y-93534725D01*
X146176953Y-93525770D01*
X146139168Y-93499933D01*
X145676819Y-93037583D01*
X145643334Y-92976260D01*
X145640500Y-92949902D01*
X145640500Y-91785718D01*
X145660185Y-91718679D01*
X145708207Y-91675233D01*
X145747815Y-91655052D01*
X145747815Y-91655051D01*
X145747816Y-91655051D01*
X145839193Y-91588661D01*
X145919786Y-91530109D01*
X145919788Y-91530106D01*
X145919792Y-91530104D01*
X146070104Y-91379792D01*
X146070106Y-91379788D01*
X146070109Y-91379786D01*
X146195048Y-91207820D01*
X146195047Y-91207820D01*
X146195051Y-91207816D01*
X146199514Y-91199054D01*
X146247488Y-91148259D01*
X146315308Y-91131463D01*
X146381444Y-91153999D01*
X146420486Y-91199056D01*
X146424951Y-91207820D01*
X146549890Y-91379786D01*
X146700213Y-91530109D01*
X146872179Y-91655048D01*
X146872181Y-91655049D01*
X146872184Y-91655051D01*
X147061588Y-91751557D01*
X147263757Y-91817246D01*
X147473713Y-91850500D01*
X147473714Y-91850500D01*
X147686286Y-91850500D01*
X147686287Y-91850500D01*
X147896243Y-91817246D01*
X147938523Y-91803507D01*
X148008362Y-91801511D01*
X148064522Y-91833757D01*
X149653819Y-93423054D01*
X149687304Y-93484377D01*
X149682320Y-93554069D01*
X149653820Y-93598416D01*
X149534309Y-93717928D01*
X149423240Y-93870800D01*
X149337454Y-94039163D01*
X149279059Y-94218881D01*
X149249500Y-94405513D01*
X149249500Y-94594486D01*
X149279059Y-94781118D01*
X149337454Y-94960836D01*
X149423240Y-95129199D01*
X149534310Y-95282073D01*
X149667927Y-95415690D01*
X149820801Y-95526760D01*
X149857512Y-95545465D01*
X149989163Y-95612545D01*
X149989165Y-95612545D01*
X149989168Y-95612547D01*
X150029618Y-95625690D01*
X150168881Y-95670940D01*
X150355514Y-95700500D01*
X150355519Y-95700500D01*
X150544486Y-95700500D01*
X150731118Y-95670940D01*
X150761753Y-95660986D01*
X150910832Y-95612547D01*
X151079199Y-95526760D01*
X151232073Y-95415690D01*
X151365690Y-95282073D01*
X151476760Y-95129199D01*
X151562547Y-94960832D01*
X151620940Y-94781118D01*
X151650500Y-94594486D01*
X151650500Y-94405513D01*
X151620940Y-94218881D01*
X151572928Y-94071118D01*
X151562547Y-94039168D01*
X151562545Y-94039165D01*
X151562545Y-94039163D01*
X151511538Y-93939057D01*
X151476760Y-93870801D01*
X151365690Y-93717927D01*
X151232073Y-93584310D01*
X151129698Y-93509930D01*
X151101615Y-93489526D01*
X151058950Y-93434195D01*
X151050501Y-93389208D01*
X151050501Y-93290945D01*
X151050501Y-93290943D01*
X151009577Y-93138215D01*
X150980639Y-93088095D01*
X150930520Y-93001284D01*
X150818716Y-92889480D01*
X150818715Y-92889479D01*
X150814385Y-92885149D01*
X150814374Y-92885139D01*
X148913757Y-90984522D01*
X148880272Y-90923199D01*
X148883507Y-90858523D01*
X148897246Y-90816243D01*
X148930500Y-90606287D01*
X148930500Y-90393713D01*
X148897246Y-90183757D01*
X148831557Y-89981588D01*
X148735051Y-89792184D01*
X148735049Y-89792181D01*
X148735048Y-89792179D01*
X148610109Y-89620213D01*
X148459786Y-89469890D01*
X148287820Y-89344951D01*
X148098414Y-89248444D01*
X148098413Y-89248443D01*
X148098412Y-89248443D01*
X147896243Y-89182754D01*
X147896241Y-89182753D01*
X147896240Y-89182753D01*
X147734957Y-89157208D01*
X147686287Y-89149500D01*
X147473713Y-89149500D01*
X147445006Y-89154046D01*
X147263757Y-89182753D01*
X147221473Y-89196492D01*
X147151632Y-89198486D01*
X147095476Y-89166241D01*
X145596891Y-87667656D01*
X145563406Y-87606333D01*
X145568390Y-87536641D01*
X145596891Y-87492294D01*
X145597219Y-87491966D01*
X145741966Y-87347219D01*
X145741968Y-87347215D01*
X145741971Y-87347213D01*
X145862284Y-87181614D01*
X145862285Y-87181613D01*
X145862287Y-87181610D01*
X145909516Y-87088917D01*
X145957489Y-87038123D01*
X146025310Y-87021328D01*
X146091445Y-87043865D01*
X146130483Y-87088917D01*
X146136135Y-87100008D01*
X146177715Y-87181614D01*
X146298028Y-87347213D01*
X146442786Y-87491971D01*
X146587974Y-87597454D01*
X146608390Y-87612287D01*
X146715943Y-87667088D01*
X146790776Y-87705218D01*
X146790778Y-87705218D01*
X146790781Y-87705220D01*
X146868659Y-87730524D01*
X146985465Y-87768477D01*
X147086557Y-87784488D01*
X147187648Y-87800500D01*
X147187649Y-87800500D01*
X147392351Y-87800500D01*
X147392352Y-87800500D01*
X147594534Y-87768477D01*
X147789219Y-87705220D01*
X147971610Y-87612287D01*
X148100482Y-87518657D01*
X148137213Y-87491971D01*
X148137215Y-87491968D01*
X148137219Y-87491966D01*
X148281966Y-87347219D01*
X148281968Y-87347215D01*
X148281971Y-87347213D01*
X148386892Y-87202799D01*
X148402287Y-87181610D01*
X148495220Y-86999219D01*
X148558477Y-86804534D01*
X148590500Y-86602352D01*
X148590500Y-86397648D01*
X148572396Y-86283343D01*
X148558477Y-86195465D01*
X148529127Y-86105137D01*
X148495220Y-86000781D01*
X148495218Y-86000778D01*
X148495218Y-86000776D01*
X148443865Y-85899991D01*
X148402287Y-85818390D01*
X148350021Y-85746451D01*
X148281971Y-85652786D01*
X148137213Y-85508028D01*
X147971613Y-85387715D01*
X147971612Y-85387714D01*
X147971610Y-85387713D01*
X147861356Y-85331536D01*
X147792609Y-85296507D01*
X147741813Y-85248532D01*
X147725018Y-85180711D01*
X147747556Y-85114576D01*
X147802271Y-85071125D01*
X147848904Y-85062022D01*
X148411425Y-85062022D01*
X148478464Y-85081707D01*
X148499106Y-85098341D01*
X151015139Y-87614374D01*
X151015149Y-87614385D01*
X151019479Y-87618715D01*
X151019480Y-87618716D01*
X151131284Y-87730520D01*
X151131286Y-87730521D01*
X151131290Y-87730524D01*
X151241774Y-87794311D01*
X151268216Y-87809577D01*
X151380019Y-87839534D01*
X151420942Y-87850500D01*
X151420943Y-87850500D01*
X155043940Y-87850500D01*
X155110979Y-87870185D01*
X155156734Y-87922989D01*
X155166678Y-87992147D01*
X155137653Y-88055703D01*
X155116824Y-88074819D01*
X155107347Y-88081704D01*
X155107345Y-88081705D01*
X154929205Y-88259845D01*
X154929201Y-88259850D01*
X154781132Y-88463651D01*
X154666760Y-88688116D01*
X154601820Y-88887982D01*
X154588910Y-88927715D01*
X154549500Y-89176538D01*
X154549500Y-90728461D01*
X154588910Y-90977285D01*
X154666760Y-91216883D01*
X154698999Y-91280154D01*
X154763286Y-91406325D01*
X154781132Y-91441348D01*
X154929201Y-91645149D01*
X154929205Y-91645154D01*
X155107345Y-91823294D01*
X155107350Y-91823298D01*
X155239327Y-91919184D01*
X155311155Y-91971370D01*
X155454184Y-92044247D01*
X155535616Y-92085739D01*
X155535618Y-92085739D01*
X155535621Y-92085741D01*
X155775215Y-92163590D01*
X156024038Y-92203000D01*
X156024039Y-92203000D01*
X156275961Y-92203000D01*
X156275962Y-92203000D01*
X156524785Y-92163590D01*
X156764379Y-92085741D01*
X156988845Y-91971370D01*
X157192656Y-91823293D01*
X157370793Y-91645156D01*
X157377886Y-91635394D01*
X157434298Y-91557748D01*
X157489628Y-91515081D01*
X157559241Y-91509102D01*
X157590912Y-91520147D01*
X157594593Y-91522022D01*
X157594595Y-91522024D01*
X157605751Y-91527708D01*
X157769970Y-91611382D01*
X157769972Y-91611382D01*
X157769975Y-91611384D01*
X157843870Y-91635394D01*
X157957173Y-91672209D01*
X158151578Y-91703000D01*
X158151583Y-91703000D01*
X158348422Y-91703000D01*
X158542826Y-91672209D01*
X158542832Y-91672207D01*
X158730025Y-91611384D01*
X158905405Y-91522024D01*
X159064646Y-91406328D01*
X159162319Y-91308655D01*
X159223642Y-91275170D01*
X159293334Y-91280154D01*
X159337681Y-91308655D01*
X159435354Y-91406328D01*
X159594595Y-91522024D01*
X159605751Y-91527708D01*
X159769970Y-91611382D01*
X159769972Y-91611382D01*
X159769975Y-91611384D01*
X159957168Y-91672207D01*
X159957174Y-91672209D01*
X160044901Y-91686103D01*
X160108031Y-91716030D01*
X160144963Y-91775341D01*
X160149500Y-91808575D01*
X160149500Y-93389207D01*
X160129815Y-93456246D01*
X160098386Y-93489525D01*
X159967925Y-93584311D01*
X159834312Y-93717924D01*
X159834312Y-93717925D01*
X159834310Y-93717927D01*
X159801149Y-93763569D01*
X159723240Y-93870800D01*
X159637454Y-94039163D01*
X159579059Y-94218881D01*
X159549500Y-94405513D01*
X159549500Y-94594486D01*
X159579059Y-94781118D01*
X159637454Y-94960836D01*
X159723240Y-95129199D01*
X159834310Y-95282073D01*
X159967927Y-95415690D01*
X160120801Y-95526760D01*
X160157512Y-95545465D01*
X160289163Y-95612545D01*
X160289165Y-95612545D01*
X160289168Y-95612547D01*
X160329618Y-95625690D01*
X160468881Y-95670940D01*
X160655514Y-95700500D01*
X160655519Y-95700500D01*
X160844486Y-95700500D01*
X161031118Y-95670940D01*
X161061753Y-95660986D01*
X161210832Y-95612547D01*
X161379199Y-95526760D01*
X161532073Y-95415690D01*
X161665690Y-95282073D01*
X161776760Y-95129199D01*
X161862547Y-94960832D01*
X161915493Y-94797882D01*
X168345669Y-94797882D01*
X168345670Y-94797883D01*
X168371059Y-94816329D01*
X168539362Y-94902085D01*
X168718997Y-94960451D01*
X168905553Y-94990000D01*
X169094447Y-94990000D01*
X169281002Y-94960451D01*
X169460637Y-94902085D01*
X169628937Y-94816331D01*
X169654328Y-94797883D01*
X169654328Y-94797882D01*
X169000001Y-94143554D01*
X169000000Y-94143554D01*
X168345669Y-94797882D01*
X161915493Y-94797882D01*
X161920940Y-94781118D01*
X161925331Y-94753390D01*
X161928843Y-94731224D01*
X161928843Y-94731223D01*
X161950500Y-94594486D01*
X161950500Y-94405513D01*
X161920940Y-94218881D01*
X161872928Y-94071118D01*
X161862547Y-94039168D01*
X161862545Y-94039165D01*
X161862545Y-94039163D01*
X161811538Y-93939057D01*
X161776760Y-93870801D01*
X161698852Y-93763571D01*
X161698852Y-93763569D01*
X161665694Y-93717933D01*
X161665690Y-93717927D01*
X161643315Y-93695552D01*
X167800000Y-93695552D01*
X167800000Y-93884447D01*
X167829548Y-94071002D01*
X167887914Y-94250637D01*
X167973666Y-94418933D01*
X167992116Y-94444328D01*
X168646446Y-93790000D01*
X168646446Y-93789999D01*
X168600369Y-93743922D01*
X168650000Y-93743922D01*
X168650000Y-93836078D01*
X168673852Y-93925095D01*
X168719930Y-94004905D01*
X168785095Y-94070070D01*
X168864905Y-94116148D01*
X168953922Y-94140000D01*
X169046078Y-94140000D01*
X169135095Y-94116148D01*
X169214905Y-94070070D01*
X169280070Y-94004905D01*
X169326148Y-93925095D01*
X169350000Y-93836078D01*
X169350000Y-93789999D01*
X169353554Y-93789999D01*
X169353554Y-93790000D01*
X170007882Y-94444328D01*
X170007883Y-94444328D01*
X170026331Y-94418937D01*
X170112085Y-94250637D01*
X170170451Y-94071002D01*
X170200000Y-93884447D01*
X170200000Y-93695552D01*
X170199994Y-93695513D01*
X172299500Y-93695513D01*
X172299500Y-93884486D01*
X172329059Y-94071118D01*
X172387454Y-94250836D01*
X172456810Y-94386953D01*
X172473240Y-94419199D01*
X172584310Y-94572073D01*
X172717927Y-94705690D01*
X172870801Y-94816760D01*
X172950347Y-94857290D01*
X173039163Y-94902545D01*
X173039165Y-94902545D01*
X173039168Y-94902547D01*
X173135497Y-94933846D01*
X173218881Y-94960940D01*
X173405514Y-94990500D01*
X173405519Y-94990500D01*
X173594486Y-94990500D01*
X173781118Y-94960940D01*
X173782623Y-94960451D01*
X173960832Y-94902547D01*
X174129199Y-94816760D01*
X174282073Y-94705690D01*
X174415690Y-94572073D01*
X174526760Y-94419199D01*
X174612547Y-94250832D01*
X174670940Y-94071118D01*
X174677197Y-94031613D01*
X174700500Y-93884486D01*
X174700500Y-93695513D01*
X174670940Y-93508881D01*
X174619897Y-93351790D01*
X174612547Y-93329168D01*
X174612545Y-93329165D01*
X174612545Y-93329163D01*
X174546251Y-93199055D01*
X174526760Y-93160801D01*
X174415690Y-93007927D01*
X174282073Y-92874310D01*
X174129199Y-92763240D01*
X173960836Y-92677454D01*
X173781118Y-92619059D01*
X173594486Y-92589500D01*
X173594481Y-92589500D01*
X173405519Y-92589500D01*
X173405514Y-92589500D01*
X173218881Y-92619059D01*
X173039163Y-92677454D01*
X172870800Y-92763240D01*
X172831333Y-92791915D01*
X172717927Y-92874310D01*
X172717925Y-92874312D01*
X172717924Y-92874312D01*
X172584312Y-93007924D01*
X172584312Y-93007925D01*
X172584310Y-93007927D01*
X172562764Y-93037583D01*
X172473240Y-93160800D01*
X172387454Y-93329163D01*
X172329059Y-93508881D01*
X172299500Y-93695513D01*
X170199994Y-93695513D01*
X170170451Y-93508997D01*
X170112085Y-93329362D01*
X170026329Y-93161059D01*
X170007883Y-93135670D01*
X170007882Y-93135669D01*
X169353554Y-93789999D01*
X169350000Y-93789999D01*
X169350000Y-93743922D01*
X169326148Y-93654905D01*
X169280070Y-93575095D01*
X169214905Y-93509930D01*
X169135095Y-93463852D01*
X169046078Y-93440000D01*
X168953922Y-93440000D01*
X168864905Y-93463852D01*
X168785095Y-93509930D01*
X168719930Y-93575095D01*
X168673852Y-93654905D01*
X168650000Y-93743922D01*
X168600369Y-93743922D01*
X167992116Y-93135669D01*
X167992116Y-93135670D01*
X167973669Y-93161060D01*
X167887914Y-93329362D01*
X167829548Y-93508997D01*
X167800000Y-93695552D01*
X161643315Y-93695552D01*
X161532073Y-93584310D01*
X161469791Y-93539059D01*
X161401614Y-93489525D01*
X161358948Y-93434194D01*
X161350500Y-93389207D01*
X161350500Y-92782116D01*
X168345669Y-92782116D01*
X169000000Y-93436446D01*
X169000001Y-93436446D01*
X169654328Y-92782116D01*
X169628933Y-92763666D01*
X169460637Y-92677914D01*
X169281002Y-92619548D01*
X169094447Y-92590000D01*
X168905553Y-92590000D01*
X168718997Y-92619548D01*
X168539362Y-92677914D01*
X168371060Y-92763669D01*
X168345670Y-92782116D01*
X168345669Y-92782116D01*
X161350500Y-92782116D01*
X161350500Y-91826500D01*
X161370185Y-91759461D01*
X161422989Y-91713706D01*
X161474500Y-91702500D01*
X162000000Y-91702500D01*
X162000000Y-90268186D01*
X162004394Y-90272580D01*
X162095606Y-90325241D01*
X162197339Y-90352500D01*
X162302661Y-90352500D01*
X162404394Y-90325241D01*
X162495606Y-90272580D01*
X162500000Y-90268186D01*
X162500000Y-91702500D01*
X163047828Y-91702500D01*
X163047841Y-91702499D01*
X163114096Y-91695375D01*
X163182856Y-91707779D01*
X163215034Y-91730983D01*
X163307345Y-91823294D01*
X163307350Y-91823298D01*
X163439327Y-91919184D01*
X163511155Y-91971370D01*
X163654184Y-92044247D01*
X163735616Y-92085739D01*
X163735618Y-92085739D01*
X163735621Y-92085741D01*
X163975215Y-92163590D01*
X164224038Y-92203000D01*
X164224039Y-92203000D01*
X164475961Y-92203000D01*
X164475962Y-92203000D01*
X164724785Y-92163590D01*
X164964379Y-92085741D01*
X165167755Y-91982116D01*
X168505669Y-91982116D01*
X169160000Y-92636446D01*
X169160001Y-92636446D01*
X169814328Y-91982116D01*
X171745669Y-91982116D01*
X172400000Y-92636446D01*
X172400001Y-92636446D01*
X173054328Y-91982116D01*
X173028933Y-91963666D01*
X172860637Y-91877914D01*
X172752417Y-91842752D01*
X172681002Y-91819547D01*
X172494447Y-91790000D01*
X172305553Y-91790000D01*
X172118997Y-91819548D01*
X171939362Y-91877914D01*
X171771060Y-91963669D01*
X171745670Y-91982116D01*
X171745669Y-91982116D01*
X169814328Y-91982116D01*
X169788933Y-91963666D01*
X169620637Y-91877914D01*
X169441002Y-91819548D01*
X169254447Y-91790000D01*
X169065553Y-91790000D01*
X168878997Y-91819548D01*
X168699362Y-91877914D01*
X168531060Y-91963669D01*
X168505670Y-91982116D01*
X168505669Y-91982116D01*
X165167755Y-91982116D01*
X165188845Y-91971370D01*
X165219580Y-91949039D01*
X165247085Y-91929057D01*
X165392649Y-91823298D01*
X165392647Y-91823298D01*
X165392656Y-91823293D01*
X165570793Y-91645156D01*
X165595331Y-91611382D01*
X165709547Y-91454178D01*
X165713830Y-91448281D01*
X165718870Y-91441345D01*
X165833241Y-91216879D01*
X165911090Y-90977285D01*
X165950500Y-90728462D01*
X165950500Y-90148872D01*
X181719500Y-90148872D01*
X181719500Y-90411127D01*
X181737905Y-90550917D01*
X181753730Y-90671116D01*
X181803945Y-90858521D01*
X181821602Y-90924418D01*
X181821605Y-90924428D01*
X181921953Y-91166690D01*
X181921958Y-91166700D01*
X182053075Y-91393803D01*
X182212718Y-91601851D01*
X182212726Y-91601860D01*
X182398140Y-91787274D01*
X182398148Y-91787281D01*
X182398149Y-91787282D01*
X182433569Y-91814461D01*
X182606196Y-91946924D01*
X182833299Y-92078041D01*
X182833309Y-92078046D01*
X183039831Y-92163590D01*
X183075581Y-92178398D01*
X183328884Y-92246270D01*
X183588880Y-92280500D01*
X183588887Y-92280500D01*
X183851113Y-92280500D01*
X183851120Y-92280500D01*
X184111116Y-92246270D01*
X184364419Y-92178398D01*
X184541340Y-92105114D01*
X184606690Y-92078046D01*
X184606691Y-92078045D01*
X184606697Y-92078043D01*
X184833803Y-91946924D01*
X185041851Y-91787282D01*
X185041855Y-91787277D01*
X185041860Y-91787274D01*
X185227274Y-91601860D01*
X185227277Y-91601855D01*
X185227282Y-91601851D01*
X185386924Y-91393803D01*
X185518043Y-91166697D01*
X185618398Y-90924419D01*
X185686270Y-90671116D01*
X185720500Y-90411120D01*
X185720500Y-90148880D01*
X185686270Y-89888884D01*
X185618398Y-89635581D01*
X185614300Y-89625687D01*
X185518046Y-89393309D01*
X185518041Y-89393299D01*
X185386924Y-89166196D01*
X185227281Y-88958148D01*
X185227274Y-88958140D01*
X185041860Y-88772726D01*
X185041851Y-88772718D01*
X184833803Y-88613075D01*
X184606700Y-88481958D01*
X184606690Y-88481953D01*
X184364428Y-88381605D01*
X184364421Y-88381603D01*
X184364419Y-88381602D01*
X184111116Y-88313730D01*
X184053339Y-88306123D01*
X183851127Y-88279500D01*
X183851120Y-88279500D01*
X183588880Y-88279500D01*
X183588872Y-88279500D01*
X183357772Y-88309926D01*
X183328884Y-88313730D01*
X183203778Y-88347252D01*
X183075581Y-88381602D01*
X183075571Y-88381605D01*
X182833309Y-88481953D01*
X182833299Y-88481958D01*
X182606196Y-88613075D01*
X182398148Y-88772718D01*
X182212718Y-88958148D01*
X182053075Y-89166196D01*
X181921958Y-89393299D01*
X181921953Y-89393309D01*
X181821605Y-89635571D01*
X181821602Y-89635581D01*
X181761525Y-89859795D01*
X181753730Y-89888885D01*
X181719500Y-90148872D01*
X165950500Y-90148872D01*
X165950500Y-89176538D01*
X165911090Y-88927715D01*
X165833241Y-88688121D01*
X165833239Y-88688118D01*
X165833239Y-88688116D01*
X165786479Y-88596345D01*
X165718870Y-88463655D01*
X165679579Y-88409575D01*
X165570798Y-88259850D01*
X165570794Y-88259845D01*
X165392654Y-88081705D01*
X165392649Y-88081701D01*
X165188848Y-87933632D01*
X165188847Y-87933631D01*
X165188845Y-87933630D01*
X165109210Y-87893054D01*
X164964383Y-87819260D01*
X164724785Y-87741410D01*
X164475962Y-87702000D01*
X164224038Y-87702000D01*
X164107108Y-87720520D01*
X163975214Y-87741410D01*
X163735616Y-87819260D01*
X163511151Y-87933632D01*
X163307350Y-88081701D01*
X163307345Y-88081705D01*
X163215032Y-88174017D01*
X163153709Y-88207501D01*
X163114096Y-88209624D01*
X163047844Y-88202500D01*
X162500000Y-88202500D01*
X162500000Y-89636814D01*
X162495606Y-89632420D01*
X162404394Y-89579759D01*
X162302661Y-89552500D01*
X162197339Y-89552500D01*
X162095606Y-89579759D01*
X162004394Y-89632420D01*
X162000000Y-89636814D01*
X162000000Y-88202500D01*
X161452155Y-88202500D01*
X161392627Y-88208901D01*
X161392620Y-88208903D01*
X161257913Y-88259145D01*
X161257906Y-88259149D01*
X161142812Y-88345309D01*
X161114169Y-88383571D01*
X161107633Y-88388462D01*
X161103825Y-88395681D01*
X161080074Y-88409093D01*
X161058234Y-88425442D01*
X161050092Y-88426024D01*
X161042986Y-88430037D01*
X161015753Y-88428479D01*
X160988542Y-88430425D01*
X160979582Y-88426410D01*
X160973231Y-88426047D01*
X160942018Y-88409577D01*
X160922892Y-88395681D01*
X160901614Y-88380221D01*
X160858949Y-88324890D01*
X160850501Y-88279904D01*
X160850501Y-88170944D01*
X160846923Y-88157590D01*
X160809577Y-88018216D01*
X160770122Y-87949877D01*
X160730524Y-87881290D01*
X160730518Y-87881282D01*
X159737590Y-86888355D01*
X159737588Y-86888352D01*
X159618717Y-86769481D01*
X159618716Y-86769480D01*
X159531904Y-86719360D01*
X159531904Y-86719359D01*
X159531900Y-86719358D01*
X159481785Y-86690423D01*
X159329057Y-86649499D01*
X159170943Y-86649499D01*
X159163347Y-86649499D01*
X159163331Y-86649500D01*
X156061986Y-86649500D01*
X155994947Y-86629815D01*
X155949192Y-86577011D01*
X155939248Y-86507853D01*
X155968273Y-86444297D01*
X156023665Y-86407569D01*
X156075992Y-86390568D01*
X156286433Y-86283343D01*
X156477510Y-86144517D01*
X156644517Y-85977510D01*
X156783343Y-85786433D01*
X156890568Y-85575992D01*
X156963553Y-85351368D01*
X156972242Y-85296507D01*
X157000500Y-85118097D01*
X157000500Y-84881947D01*
X158500000Y-84881947D01*
X158500000Y-85118052D01*
X158536934Y-85351247D01*
X158609897Y-85575802D01*
X158717087Y-85786174D01*
X158777338Y-85869104D01*
X158777340Y-85869105D01*
X159476212Y-85170233D01*
X159487482Y-85212292D01*
X159559890Y-85337708D01*
X159662292Y-85440110D01*
X159787708Y-85512518D01*
X159829765Y-85523787D01*
X159130893Y-86222658D01*
X159213828Y-86282914D01*
X159424197Y-86390102D01*
X159648752Y-86463065D01*
X159648751Y-86463065D01*
X159881948Y-86500000D01*
X160118052Y-86500000D01*
X160351247Y-86463065D01*
X160575802Y-86390102D01*
X160786163Y-86282918D01*
X160786169Y-86282914D01*
X160869104Y-86222658D01*
X160869105Y-86222658D01*
X160170233Y-85523787D01*
X160212292Y-85512518D01*
X160337708Y-85440110D01*
X160440110Y-85337708D01*
X160512518Y-85212292D01*
X160523787Y-85170234D01*
X161222658Y-85869105D01*
X161222658Y-85869104D01*
X161282914Y-85786169D01*
X161282918Y-85786163D01*
X161390102Y-85575802D01*
X161463065Y-85351247D01*
X161500000Y-85118052D01*
X161500000Y-84881947D01*
X161463065Y-84648752D01*
X161390102Y-84424197D01*
X161282914Y-84213828D01*
X161222658Y-84130894D01*
X161222658Y-84130893D01*
X160523787Y-84829765D01*
X160512518Y-84787708D01*
X160440110Y-84662292D01*
X160337708Y-84559890D01*
X160212292Y-84487482D01*
X160170234Y-84476212D01*
X160869105Y-83777340D01*
X160869104Y-83777338D01*
X160786174Y-83717087D01*
X160575802Y-83609897D01*
X160351247Y-83536934D01*
X160351248Y-83536934D01*
X160118052Y-83500000D01*
X159881948Y-83500000D01*
X159648752Y-83536934D01*
X159424197Y-83609897D01*
X159213830Y-83717084D01*
X159130894Y-83777340D01*
X159829766Y-84476212D01*
X159787708Y-84487482D01*
X159662292Y-84559890D01*
X159559890Y-84662292D01*
X159487482Y-84787708D01*
X159476212Y-84829766D01*
X158777340Y-84130894D01*
X158717084Y-84213830D01*
X158609897Y-84424197D01*
X158536934Y-84648752D01*
X158500000Y-84881947D01*
X157000500Y-84881947D01*
X157000500Y-84881902D01*
X156963553Y-84648631D01*
X156929689Y-84544412D01*
X156890568Y-84424008D01*
X156890566Y-84424005D01*
X156890566Y-84424003D01*
X156783477Y-84213830D01*
X156783343Y-84213567D01*
X156644517Y-84022490D01*
X156477510Y-83855483D01*
X156369953Y-83777338D01*
X156286431Y-83716655D01*
X156168204Y-83656415D01*
X156117409Y-83608441D01*
X156100500Y-83545931D01*
X156100500Y-79954067D01*
X156120185Y-79887028D01*
X156168205Y-79843582D01*
X156286433Y-79783343D01*
X156477510Y-79644517D01*
X156644517Y-79477510D01*
X156783343Y-79286433D01*
X156890568Y-79075992D01*
X156963553Y-78851368D01*
X156983472Y-78725606D01*
X157000500Y-78618097D01*
X157000500Y-78381947D01*
X158500000Y-78381947D01*
X158500000Y-78618052D01*
X158536934Y-78851247D01*
X158609897Y-79075802D01*
X158717087Y-79286174D01*
X158777338Y-79369104D01*
X158777340Y-79369105D01*
X159476212Y-78670233D01*
X159487482Y-78712292D01*
X159559890Y-78837708D01*
X159662292Y-78940110D01*
X159787708Y-79012518D01*
X159829765Y-79023787D01*
X159130893Y-79722658D01*
X159213828Y-79782914D01*
X159424197Y-79890102D01*
X159648752Y-79963065D01*
X159648751Y-79963065D01*
X159881948Y-80000000D01*
X160118052Y-80000000D01*
X160351247Y-79963065D01*
X160575802Y-79890102D01*
X160786163Y-79782918D01*
X160786169Y-79782914D01*
X160869104Y-79722658D01*
X160869105Y-79722658D01*
X160170233Y-79023787D01*
X160212292Y-79012518D01*
X160337708Y-78940110D01*
X160440110Y-78837708D01*
X160512518Y-78712292D01*
X160523787Y-78670234D01*
X161222658Y-79369105D01*
X161222658Y-79369104D01*
X161282914Y-79286169D01*
X161282918Y-79286163D01*
X161390102Y-79075802D01*
X161463065Y-78851247D01*
X161500000Y-78618052D01*
X161500000Y-78381947D01*
X161499993Y-78381902D01*
X163249500Y-78381902D01*
X163249500Y-78618097D01*
X163286446Y-78851368D01*
X163359433Y-79075996D01*
X163422658Y-79200080D01*
X163466657Y-79286433D01*
X163605483Y-79477510D01*
X163772490Y-79644517D01*
X163880042Y-79722658D01*
X163963568Y-79783344D01*
X164038177Y-79821358D01*
X164081794Y-79843582D01*
X164132590Y-79891556D01*
X164149500Y-79954067D01*
X164149500Y-83545931D01*
X164129815Y-83612970D01*
X164081796Y-83656415D01*
X163963568Y-83716655D01*
X163880044Y-83777340D01*
X163772490Y-83855483D01*
X163772488Y-83855485D01*
X163772487Y-83855485D01*
X163605485Y-84022487D01*
X163605485Y-84022488D01*
X163605483Y-84022490D01*
X163569459Y-84072073D01*
X163466657Y-84213566D01*
X163359433Y-84424003D01*
X163286446Y-84648631D01*
X163249500Y-84881902D01*
X163249500Y-85118097D01*
X163286446Y-85351368D01*
X163359433Y-85575996D01*
X163429022Y-85712570D01*
X163466657Y-85786433D01*
X163605483Y-85977510D01*
X163772490Y-86144517D01*
X163963567Y-86283343D01*
X164062991Y-86334002D01*
X164174003Y-86390566D01*
X164174005Y-86390566D01*
X164174008Y-86390568D01*
X164226332Y-86407569D01*
X164398631Y-86463553D01*
X164631903Y-86500500D01*
X164631908Y-86500500D01*
X164868097Y-86500500D01*
X164974126Y-86483705D01*
X165101368Y-86463553D01*
X165227566Y-86422547D01*
X165297404Y-86420553D01*
X165353563Y-86452798D01*
X167788747Y-88887982D01*
X167822232Y-88949305D01*
X167823539Y-88956263D01*
X167829059Y-88991116D01*
X167829060Y-88991118D01*
X167885961Y-89166241D01*
X167887454Y-89170834D01*
X167926998Y-89248443D01*
X167973240Y-89339199D01*
X168084310Y-89492073D01*
X168217927Y-89625690D01*
X168370801Y-89736760D01*
X168450347Y-89777290D01*
X168539163Y-89822545D01*
X168539165Y-89822545D01*
X168539168Y-89822547D01*
X168635497Y-89853846D01*
X168718881Y-89880940D01*
X168905514Y-89910500D01*
X168905519Y-89910500D01*
X169094486Y-89910500D01*
X169281118Y-89880940D01*
X169460832Y-89822547D01*
X169629199Y-89736760D01*
X169782073Y-89625690D01*
X169915690Y-89492073D01*
X170026760Y-89339199D01*
X170112547Y-89170832D01*
X170170940Y-88991118D01*
X170176163Y-88958140D01*
X170200500Y-88804486D01*
X170200500Y-88615513D01*
X170170940Y-88428881D01*
X170133868Y-88314786D01*
X170112547Y-88249168D01*
X170112545Y-88249165D01*
X170112545Y-88249163D01*
X170062283Y-88150520D01*
X170026760Y-88080801D01*
X169915690Y-87927927D01*
X169782073Y-87794310D01*
X169629199Y-87683240D01*
X169460836Y-87597454D01*
X169281118Y-87539059D01*
X169094486Y-87509500D01*
X169094481Y-87509500D01*
X168905519Y-87509500D01*
X168905514Y-87509500D01*
X168718881Y-87539059D01*
X168539163Y-87597454D01*
X168392560Y-87672153D01*
X168323890Y-87685049D01*
X168259150Y-87658772D01*
X168248584Y-87649349D01*
X166202798Y-85603563D01*
X166169313Y-85542240D01*
X166172547Y-85477566D01*
X166213553Y-85351368D01*
X166237606Y-85199501D01*
X166250500Y-85118097D01*
X166250500Y-84881902D01*
X167749500Y-84881902D01*
X167749500Y-85118097D01*
X167786446Y-85351368D01*
X167859433Y-85575996D01*
X167929022Y-85712570D01*
X167966657Y-85786433D01*
X168105483Y-85977510D01*
X168272490Y-86144517D01*
X168463567Y-86283343D01*
X168562991Y-86334002D01*
X168674003Y-86390566D01*
X168674005Y-86390566D01*
X168674008Y-86390568D01*
X168726332Y-86407569D01*
X168898631Y-86463553D01*
X169131903Y-86500500D01*
X169131908Y-86500500D01*
X169368097Y-86500500D01*
X169601368Y-86463553D01*
X169652291Y-86447007D01*
X169825992Y-86390568D01*
X170036433Y-86283343D01*
X170227510Y-86144517D01*
X170394517Y-85977510D01*
X170533343Y-85786433D01*
X170640568Y-85575992D01*
X170713553Y-85351368D01*
X170722242Y-85296507D01*
X170750500Y-85118097D01*
X170750500Y-84881902D01*
X170713553Y-84648631D01*
X170679689Y-84544412D01*
X170640568Y-84424008D01*
X170640566Y-84424005D01*
X170640566Y-84424003D01*
X170533477Y-84213830D01*
X170533343Y-84213567D01*
X170394517Y-84022490D01*
X170227510Y-83855483D01*
X170036433Y-83716657D01*
X170036429Y-83716655D01*
X169825996Y-83609433D01*
X169601368Y-83536446D01*
X169368097Y-83499500D01*
X169368092Y-83499500D01*
X169131908Y-83499500D01*
X169131903Y-83499500D01*
X168898631Y-83536446D01*
X168674003Y-83609433D01*
X168463566Y-83716657D01*
X168380047Y-83777338D01*
X168272490Y-83855483D01*
X168272488Y-83855485D01*
X168272487Y-83855485D01*
X168105485Y-84022487D01*
X168105485Y-84022488D01*
X168105483Y-84022490D01*
X168069459Y-84072073D01*
X167966657Y-84213566D01*
X167859433Y-84424003D01*
X167786446Y-84648631D01*
X167749500Y-84881902D01*
X166250500Y-84881902D01*
X166213553Y-84648631D01*
X166179689Y-84544412D01*
X166140568Y-84424008D01*
X166140566Y-84424005D01*
X166140566Y-84424003D01*
X166033477Y-84213830D01*
X166033343Y-84213567D01*
X165894517Y-84022490D01*
X165727510Y-83855483D01*
X165619953Y-83777338D01*
X165536431Y-83716655D01*
X165418204Y-83656415D01*
X165367409Y-83608441D01*
X165350500Y-83545931D01*
X165350500Y-79954067D01*
X165370185Y-79887028D01*
X165418205Y-79843582D01*
X165536433Y-79783343D01*
X165727510Y-79644517D01*
X165894517Y-79477510D01*
X166033343Y-79286433D01*
X166140568Y-79075992D01*
X166213553Y-78851368D01*
X166233472Y-78725606D01*
X166250500Y-78618097D01*
X166250500Y-78381902D01*
X167749500Y-78381902D01*
X167749500Y-78618097D01*
X167786446Y-78851368D01*
X167859433Y-79075996D01*
X167922658Y-79200080D01*
X167966657Y-79286433D01*
X168105483Y-79477510D01*
X168272490Y-79644517D01*
X168463567Y-79783343D01*
X168562991Y-79834002D01*
X168674003Y-79890566D01*
X168674005Y-79890566D01*
X168674008Y-79890568D01*
X168794412Y-79929689D01*
X168898631Y-79963553D01*
X169131903Y-80000500D01*
X169131908Y-80000500D01*
X169368097Y-80000500D01*
X169601368Y-79963553D01*
X169630563Y-79954067D01*
X169825992Y-79890568D01*
X170036433Y-79783343D01*
X170227510Y-79644517D01*
X170394517Y-79477510D01*
X170533343Y-79286433D01*
X170640568Y-79075992D01*
X170713553Y-78851368D01*
X170733472Y-78725606D01*
X170750500Y-78618097D01*
X170750500Y-78381902D01*
X171999500Y-78381902D01*
X171999500Y-78618097D01*
X172036446Y-78851368D01*
X172109433Y-79075996D01*
X172172658Y-79200080D01*
X172216657Y-79286433D01*
X172355483Y-79477510D01*
X172522490Y-79644517D01*
X172630042Y-79722658D01*
X172713568Y-79783344D01*
X172788177Y-79821358D01*
X172831794Y-79843582D01*
X172882590Y-79891556D01*
X172899500Y-79954067D01*
X172899500Y-83545931D01*
X172879815Y-83612970D01*
X172831796Y-83656415D01*
X172713568Y-83716655D01*
X172630044Y-83777340D01*
X172522490Y-83855483D01*
X172522488Y-83855485D01*
X172522487Y-83855485D01*
X172355485Y-84022487D01*
X172355485Y-84022488D01*
X172355483Y-84022490D01*
X172319459Y-84072073D01*
X172216657Y-84213566D01*
X172109433Y-84424003D01*
X172036446Y-84648631D01*
X171999500Y-84881902D01*
X171999500Y-85118097D01*
X172036446Y-85351368D01*
X172109433Y-85575996D01*
X172179022Y-85712570D01*
X172216657Y-85786433D01*
X172355483Y-85977510D01*
X172522490Y-86144517D01*
X172605849Y-86205081D01*
X172713568Y-86283344D01*
X172788177Y-86321358D01*
X172831794Y-86343582D01*
X172882590Y-86391556D01*
X172899500Y-86454067D01*
X172899500Y-87599207D01*
X172879815Y-87666246D01*
X172848386Y-87699525D01*
X172717925Y-87794311D01*
X172584312Y-87927924D01*
X172584312Y-87927925D01*
X172584310Y-87927927D01*
X172537651Y-87992147D01*
X172473240Y-88080800D01*
X172387454Y-88249163D01*
X172329059Y-88428881D01*
X172299500Y-88615513D01*
X172299500Y-88804486D01*
X172329059Y-88991118D01*
X172387454Y-89170836D01*
X172426998Y-89248444D01*
X172473240Y-89339199D01*
X172584310Y-89492073D01*
X172717927Y-89625690D01*
X172870801Y-89736760D01*
X172950347Y-89777290D01*
X173039163Y-89822545D01*
X173039165Y-89822545D01*
X173039168Y-89822547D01*
X173135497Y-89853846D01*
X173218881Y-89880940D01*
X173405514Y-89910500D01*
X173405519Y-89910500D01*
X173594486Y-89910500D01*
X173781118Y-89880940D01*
X173960832Y-89822547D01*
X174129199Y-89736760D01*
X174282073Y-89625690D01*
X174415690Y-89492073D01*
X174526760Y-89339199D01*
X174612547Y-89170832D01*
X174670940Y-88991118D01*
X174676163Y-88958140D01*
X174700500Y-88804486D01*
X174700500Y-88615513D01*
X174670940Y-88428881D01*
X174633868Y-88314786D01*
X174612547Y-88249168D01*
X174612545Y-88249165D01*
X174612545Y-88249163D01*
X174562283Y-88150520D01*
X174526760Y-88080801D01*
X174415690Y-87927927D01*
X174282073Y-87794310D01*
X174200184Y-87734814D01*
X174151614Y-87699525D01*
X174108948Y-87644194D01*
X174100500Y-87599207D01*
X174100500Y-86454067D01*
X174120185Y-86387028D01*
X174168205Y-86343582D01*
X174286433Y-86283343D01*
X174477510Y-86144517D01*
X174644517Y-85977510D01*
X174783343Y-85786433D01*
X174890568Y-85575992D01*
X174963553Y-85351368D01*
X174972242Y-85296507D01*
X175000500Y-85118097D01*
X175000500Y-84881947D01*
X176500000Y-84881947D01*
X176500000Y-85118052D01*
X176536934Y-85351247D01*
X176609897Y-85575802D01*
X176717087Y-85786174D01*
X176777338Y-85869104D01*
X176777340Y-85869105D01*
X177476212Y-85170233D01*
X177487482Y-85212292D01*
X177559890Y-85337708D01*
X177662292Y-85440110D01*
X177787708Y-85512518D01*
X177829765Y-85523787D01*
X177130893Y-86222658D01*
X177213828Y-86282914D01*
X177424197Y-86390102D01*
X177648752Y-86463065D01*
X177648751Y-86463065D01*
X177881948Y-86500000D01*
X178118052Y-86500000D01*
X178351247Y-86463065D01*
X178575802Y-86390102D01*
X178786163Y-86282918D01*
X178786169Y-86282914D01*
X178869104Y-86222658D01*
X178869105Y-86222658D01*
X178170233Y-85523787D01*
X178212292Y-85512518D01*
X178337708Y-85440110D01*
X178440110Y-85337708D01*
X178512518Y-85212292D01*
X178523787Y-85170234D01*
X179222658Y-85869105D01*
X179222658Y-85869104D01*
X179282914Y-85786169D01*
X179282918Y-85786163D01*
X179390102Y-85575802D01*
X179463065Y-85351247D01*
X179500000Y-85118052D01*
X179500000Y-84881947D01*
X179463065Y-84648752D01*
X179390102Y-84424197D01*
X179282914Y-84213828D01*
X179222658Y-84130894D01*
X179222658Y-84130893D01*
X178523787Y-84829765D01*
X178512518Y-84787708D01*
X178440110Y-84662292D01*
X178337708Y-84559890D01*
X178212292Y-84487482D01*
X178170234Y-84476212D01*
X178869105Y-83777340D01*
X178869104Y-83777338D01*
X178786174Y-83717087D01*
X178575802Y-83609897D01*
X178351247Y-83536934D01*
X178351248Y-83536934D01*
X178118052Y-83500000D01*
X177881948Y-83500000D01*
X177648752Y-83536934D01*
X177424197Y-83609897D01*
X177213830Y-83717084D01*
X177130894Y-83777340D01*
X177829766Y-84476212D01*
X177787708Y-84487482D01*
X177662292Y-84559890D01*
X177559890Y-84662292D01*
X177487482Y-84787708D01*
X177476212Y-84829766D01*
X176777340Y-84130894D01*
X176717084Y-84213830D01*
X176609897Y-84424197D01*
X176536934Y-84648752D01*
X176500000Y-84881947D01*
X175000500Y-84881947D01*
X175000500Y-84881902D01*
X174963553Y-84648631D01*
X174929689Y-84544412D01*
X174890568Y-84424008D01*
X174890566Y-84424005D01*
X174890566Y-84424003D01*
X174783477Y-84213830D01*
X174783343Y-84213567D01*
X174644517Y-84022490D01*
X174477510Y-83855483D01*
X174369953Y-83777338D01*
X174286431Y-83716655D01*
X174168204Y-83656415D01*
X174117409Y-83608441D01*
X174100500Y-83545931D01*
X174100500Y-79954067D01*
X174120185Y-79887028D01*
X174168205Y-79843582D01*
X174286433Y-79783343D01*
X174477510Y-79644517D01*
X174644517Y-79477510D01*
X174783343Y-79286433D01*
X174890568Y-79075992D01*
X174963553Y-78851368D01*
X174983472Y-78725606D01*
X175000500Y-78618097D01*
X175000500Y-78381947D01*
X176500000Y-78381947D01*
X176500000Y-78618052D01*
X176536934Y-78851247D01*
X176609897Y-79075802D01*
X176717087Y-79286174D01*
X176777338Y-79369104D01*
X176777340Y-79369105D01*
X177476212Y-78670233D01*
X177487482Y-78712292D01*
X177559890Y-78837708D01*
X177662292Y-78940110D01*
X177787708Y-79012518D01*
X177829765Y-79023787D01*
X177130893Y-79722658D01*
X177213828Y-79782914D01*
X177424197Y-79890102D01*
X177648752Y-79963065D01*
X177648751Y-79963065D01*
X177881948Y-80000000D01*
X178118052Y-80000000D01*
X178351247Y-79963065D01*
X178575802Y-79890102D01*
X178786163Y-79782918D01*
X178786169Y-79782914D01*
X178869104Y-79722658D01*
X178869105Y-79722658D01*
X178170233Y-79023787D01*
X178212292Y-79012518D01*
X178337708Y-78940110D01*
X178440110Y-78837708D01*
X178512518Y-78712292D01*
X178523787Y-78670234D01*
X179222658Y-79369105D01*
X179222658Y-79369104D01*
X179282914Y-79286169D01*
X179282918Y-79286163D01*
X179390102Y-79075802D01*
X179463065Y-78851247D01*
X179500000Y-78618052D01*
X179500000Y-78381947D01*
X179463065Y-78148752D01*
X179390102Y-77924197D01*
X179282914Y-77713828D01*
X179222658Y-77630894D01*
X179222658Y-77630893D01*
X178523787Y-78329765D01*
X178512518Y-78287708D01*
X178440110Y-78162292D01*
X178337708Y-78059890D01*
X178212292Y-77987482D01*
X178170234Y-77976212D01*
X178869105Y-77277340D01*
X178869104Y-77277338D01*
X178786174Y-77217087D01*
X178575802Y-77109897D01*
X178351247Y-77036934D01*
X178351248Y-77036934D01*
X178118052Y-77000000D01*
X177881948Y-77000000D01*
X177648752Y-77036934D01*
X177424197Y-77109897D01*
X177213830Y-77217084D01*
X177130894Y-77277340D01*
X177829766Y-77976212D01*
X177787708Y-77987482D01*
X177662292Y-78059890D01*
X177559890Y-78162292D01*
X177487482Y-78287708D01*
X177476212Y-78329766D01*
X176777340Y-77630894D01*
X176717084Y-77713830D01*
X176609897Y-77924197D01*
X176536934Y-78148752D01*
X176500000Y-78381947D01*
X175000500Y-78381947D01*
X175000500Y-78381902D01*
X174963553Y-78148631D01*
X174890566Y-77924003D01*
X174783477Y-77713830D01*
X174783343Y-77713567D01*
X174644517Y-77522490D01*
X174477510Y-77355483D01*
X174286433Y-77216657D01*
X174075996Y-77109433D01*
X173851368Y-77036446D01*
X173618097Y-76999500D01*
X173618092Y-76999500D01*
X173381908Y-76999500D01*
X173381903Y-76999500D01*
X173148631Y-77036446D01*
X172924003Y-77109433D01*
X172713566Y-77216657D01*
X172630047Y-77277338D01*
X172522490Y-77355483D01*
X172522488Y-77355485D01*
X172522487Y-77355485D01*
X172355485Y-77522487D01*
X172355485Y-77522488D01*
X172355483Y-77522490D01*
X172309398Y-77585921D01*
X172216657Y-77713566D01*
X172109433Y-77924003D01*
X172036446Y-78148631D01*
X171999500Y-78381902D01*
X170750500Y-78381902D01*
X170713553Y-78148631D01*
X170640566Y-77924003D01*
X170533477Y-77713830D01*
X170533343Y-77713567D01*
X170394517Y-77522490D01*
X170227510Y-77355483D01*
X170036433Y-77216657D01*
X169825996Y-77109433D01*
X169601368Y-77036446D01*
X169368097Y-76999500D01*
X169368092Y-76999500D01*
X169131908Y-76999500D01*
X169131903Y-76999500D01*
X168898631Y-77036446D01*
X168674003Y-77109433D01*
X168463566Y-77216657D01*
X168380047Y-77277338D01*
X168272490Y-77355483D01*
X168272488Y-77355485D01*
X168272487Y-77355485D01*
X168105485Y-77522487D01*
X168105485Y-77522488D01*
X168105483Y-77522490D01*
X168059398Y-77585921D01*
X167966657Y-77713566D01*
X167859433Y-77924003D01*
X167786446Y-78148631D01*
X167749500Y-78381902D01*
X166250500Y-78381902D01*
X166213553Y-78148631D01*
X166140566Y-77924003D01*
X166033477Y-77713830D01*
X166033343Y-77713567D01*
X165894517Y-77522490D01*
X165727510Y-77355483D01*
X165536433Y-77216657D01*
X165325996Y-77109433D01*
X165101368Y-77036446D01*
X164868097Y-76999500D01*
X164868092Y-76999500D01*
X164631908Y-76999500D01*
X164631903Y-76999500D01*
X164398631Y-77036446D01*
X164174003Y-77109433D01*
X163963566Y-77216657D01*
X163880047Y-77277338D01*
X163772490Y-77355483D01*
X163772488Y-77355485D01*
X163772487Y-77355485D01*
X163605485Y-77522487D01*
X163605485Y-77522488D01*
X163605483Y-77522490D01*
X163559398Y-77585921D01*
X163466657Y-77713566D01*
X163359433Y-77924003D01*
X163286446Y-78148631D01*
X163249500Y-78381902D01*
X161499993Y-78381902D01*
X161463065Y-78148752D01*
X161390102Y-77924197D01*
X161282914Y-77713828D01*
X161222658Y-77630894D01*
X161222658Y-77630893D01*
X160523787Y-78329765D01*
X160512518Y-78287708D01*
X160440110Y-78162292D01*
X160337708Y-78059890D01*
X160212292Y-77987482D01*
X160170234Y-77976212D01*
X160869105Y-77277340D01*
X160869104Y-77277338D01*
X160786174Y-77217087D01*
X160575802Y-77109897D01*
X160351247Y-77036934D01*
X160351248Y-77036934D01*
X160118052Y-77000000D01*
X159881948Y-77000000D01*
X159648752Y-77036934D01*
X159424197Y-77109897D01*
X159213830Y-77217084D01*
X159130894Y-77277340D01*
X159829766Y-77976212D01*
X159787708Y-77987482D01*
X159662292Y-78059890D01*
X159559890Y-78162292D01*
X159487482Y-78287708D01*
X159476212Y-78329766D01*
X158777340Y-77630894D01*
X158717084Y-77713830D01*
X158609897Y-77924197D01*
X158536934Y-78148752D01*
X158500000Y-78381947D01*
X157000500Y-78381947D01*
X157000500Y-78381902D01*
X156963553Y-78148631D01*
X156890566Y-77924003D01*
X156783477Y-77713830D01*
X156783343Y-77713567D01*
X156644517Y-77522490D01*
X156477510Y-77355483D01*
X156286433Y-77216657D01*
X156075996Y-77109433D01*
X155851368Y-77036446D01*
X155618097Y-76999500D01*
X155618092Y-76999500D01*
X155381908Y-76999500D01*
X155381903Y-76999500D01*
X155148631Y-77036446D01*
X154924003Y-77109433D01*
X154713566Y-77216657D01*
X154630047Y-77277338D01*
X154522490Y-77355483D01*
X154522488Y-77355485D01*
X154522487Y-77355485D01*
X154355482Y-77522490D01*
X154329402Y-77558387D01*
X154274072Y-77601052D01*
X154229085Y-77609500D01*
X153610792Y-77609500D01*
X153543753Y-77589815D01*
X153510474Y-77558386D01*
X153484394Y-77522490D01*
X153415690Y-77427927D01*
X153282073Y-77294310D01*
X153129199Y-77183240D01*
X152960836Y-77097454D01*
X152781118Y-77039059D01*
X152594486Y-77009500D01*
X152594481Y-77009500D01*
X152405519Y-77009500D01*
X152405514Y-77009500D01*
X152241651Y-77035453D01*
X152217425Y-77032322D01*
X152193020Y-77033485D01*
X152177096Y-77027110D01*
X152172357Y-77026498D01*
X152160254Y-77020368D01*
X152124109Y-76999500D01*
X152071904Y-76969360D01*
X152021785Y-76940423D01*
X151869057Y-76899499D01*
X151710943Y-76899499D01*
X151703347Y-76899499D01*
X151703331Y-76899500D01*
X141136670Y-76899500D01*
X141136654Y-76899499D01*
X141129058Y-76899499D01*
X140970943Y-76899499D01*
X140894579Y-76919961D01*
X140818214Y-76940423D01*
X140818209Y-76940426D01*
X140681290Y-77019475D01*
X140681282Y-77019481D01*
X140114841Y-77585921D01*
X140053518Y-77619406D01*
X139988845Y-77616172D01*
X139974535Y-77611523D01*
X139837477Y-77589815D01*
X139772352Y-77579500D01*
X139567648Y-77579500D01*
X139543329Y-77583351D01*
X139365465Y-77611522D01*
X139170776Y-77674781D01*
X138988386Y-77767715D01*
X138822786Y-77888028D01*
X138678028Y-78032786D01*
X138557713Y-78198388D01*
X138510203Y-78291630D01*
X138462228Y-78342426D01*
X138394407Y-78359220D01*
X138328272Y-78336682D01*
X138289234Y-78291628D01*
X138241861Y-78198652D01*
X138209474Y-78154077D01*
X138209474Y-78154076D01*
X137530000Y-78833551D01*
X137530000Y-78827339D01*
X137502741Y-78725606D01*
X137450080Y-78634394D01*
X137375606Y-78559920D01*
X137284394Y-78507259D01*
X137182661Y-78480000D01*
X137176446Y-78480000D01*
X137855922Y-77800524D01*
X137855921Y-77800523D01*
X137811359Y-77768147D01*
X137811350Y-77768141D01*
X137629031Y-77675244D01*
X137434417Y-77612009D01*
X137232317Y-77580000D01*
X137027683Y-77580000D01*
X136825582Y-77612009D01*
X136630968Y-77675244D01*
X136448644Y-77768143D01*
X136404077Y-77800523D01*
X136404077Y-77800524D01*
X137083554Y-78480000D01*
X137077339Y-78480000D01*
X136975606Y-78507259D01*
X136884394Y-78559920D01*
X136809920Y-78634394D01*
X136757259Y-78725606D01*
X136730000Y-78827339D01*
X136730000Y-78833553D01*
X136050524Y-78154077D01*
X136050523Y-78154077D01*
X136018143Y-78198644D01*
X135970765Y-78291630D01*
X135922790Y-78342426D01*
X135854969Y-78359221D01*
X135788834Y-78336683D01*
X135749795Y-78291630D01*
X135747797Y-78287708D01*
X135702287Y-78198390D01*
X135702285Y-78198387D01*
X135702284Y-78198385D01*
X135581971Y-78032786D01*
X135437213Y-77888028D01*
X135271613Y-77767715D01*
X135271612Y-77767714D01*
X135271610Y-77767713D01*
X135214653Y-77738691D01*
X135089223Y-77674781D01*
X134894534Y-77611522D01*
X134719995Y-77583878D01*
X134692352Y-77579500D01*
X134487648Y-77579500D01*
X134463329Y-77583351D01*
X134285465Y-77611522D01*
X134090776Y-77674781D01*
X133908386Y-77767715D01*
X133742786Y-77888028D01*
X133598028Y-78032786D01*
X133477715Y-78198386D01*
X133430485Y-78291080D01*
X133382510Y-78341876D01*
X133314689Y-78358671D01*
X133248554Y-78336134D01*
X133209515Y-78291080D01*
X133207797Y-78287708D01*
X133162287Y-78198390D01*
X133143832Y-78172989D01*
X133041971Y-78032786D01*
X132897213Y-77888028D01*
X132731613Y-77767715D01*
X132731612Y-77767714D01*
X132731610Y-77767713D01*
X132674653Y-77738691D01*
X132549223Y-77674781D01*
X132354534Y-77611522D01*
X132179995Y-77583878D01*
X132152352Y-77579500D01*
X131947648Y-77579500D01*
X131923329Y-77583351D01*
X131745465Y-77611522D01*
X131550776Y-77674781D01*
X131368386Y-77767715D01*
X131202786Y-77888028D01*
X131058028Y-78032786D01*
X130937713Y-78198388D01*
X130890203Y-78291630D01*
X130842228Y-78342426D01*
X130774407Y-78359220D01*
X130708272Y-78336682D01*
X130669234Y-78291628D01*
X130621861Y-78198652D01*
X130589474Y-78154077D01*
X130589474Y-78154076D01*
X129910000Y-78833551D01*
X129910000Y-78827339D01*
X129882741Y-78725606D01*
X129830080Y-78634394D01*
X129755606Y-78559920D01*
X129664394Y-78507259D01*
X129562661Y-78480000D01*
X129556446Y-78480000D01*
X130235922Y-77800524D01*
X130235921Y-77800523D01*
X130191359Y-77768147D01*
X130191350Y-77768141D01*
X130009031Y-77675244D01*
X129814417Y-77612009D01*
X129612317Y-77580000D01*
X129407683Y-77580000D01*
X129205582Y-77612009D01*
X129010968Y-77675244D01*
X128828644Y-77768143D01*
X128784077Y-77800523D01*
X128784077Y-77800524D01*
X129463554Y-78480000D01*
X129457339Y-78480000D01*
X129355606Y-78507259D01*
X129264394Y-78559920D01*
X129189920Y-78634394D01*
X129137259Y-78725606D01*
X129110000Y-78827339D01*
X129110000Y-78833553D01*
X128430524Y-78154077D01*
X128430523Y-78154077D01*
X128398143Y-78198644D01*
X128305244Y-78380968D01*
X128242009Y-78575582D01*
X128210000Y-78777682D01*
X128210000Y-78982317D01*
X128242009Y-79184417D01*
X128305244Y-79379031D01*
X128398141Y-79561350D01*
X128398147Y-79561359D01*
X128430523Y-79605921D01*
X128430524Y-79605922D01*
X129110000Y-78926446D01*
X129110000Y-78932661D01*
X129137259Y-79034394D01*
X129189920Y-79125606D01*
X129264394Y-79200080D01*
X129355606Y-79252741D01*
X129457339Y-79280000D01*
X129463553Y-79280000D01*
X128784076Y-79959474D01*
X128828650Y-79991859D01*
X129010968Y-80084755D01*
X129205582Y-80147990D01*
X129407683Y-80180000D01*
X129612317Y-80180000D01*
X129814417Y-80147990D01*
X130009031Y-80084755D01*
X130191349Y-79991859D01*
X130235921Y-79959474D01*
X129556447Y-79280000D01*
X129562661Y-79280000D01*
X129664394Y-79252741D01*
X129755606Y-79200080D01*
X129830080Y-79125606D01*
X129882741Y-79034394D01*
X129910000Y-78932661D01*
X129910000Y-78926447D01*
X130589474Y-79605921D01*
X130621861Y-79561347D01*
X130621861Y-79561346D01*
X130669234Y-79468371D01*
X130717208Y-79417575D01*
X130785028Y-79400779D01*
X130851164Y-79423316D01*
X130890203Y-79468369D01*
X130937713Y-79561611D01*
X131058028Y-79727213D01*
X131202786Y-79871971D01*
X131357749Y-79984556D01*
X131368390Y-79992287D01*
X131484607Y-80051503D01*
X131550776Y-80085218D01*
X131550778Y-80085218D01*
X131550781Y-80085220D01*
X131655137Y-80119127D01*
X131745465Y-80148477D01*
X131846557Y-80164488D01*
X131947648Y-80180500D01*
X131947649Y-80180500D01*
X132152351Y-80180500D01*
X132152352Y-80180500D01*
X132354534Y-80148477D01*
X132549219Y-80085220D01*
X132731610Y-79992287D01*
X132824590Y-79924732D01*
X132897213Y-79871971D01*
X132897215Y-79871968D01*
X132897219Y-79871966D01*
X133041966Y-79727219D01*
X133041968Y-79727215D01*
X133041971Y-79727213D01*
X133162284Y-79561614D01*
X133162286Y-79561611D01*
X133162287Y-79561610D01*
X133209516Y-79468917D01*
X133257489Y-79418123D01*
X133325310Y-79401328D01*
X133391445Y-79423865D01*
X133430483Y-79468917D01*
X133434863Y-79477512D01*
X133477715Y-79561614D01*
X133598028Y-79727213D01*
X133742786Y-79871971D01*
X133897749Y-79984556D01*
X133908390Y-79992287D01*
X134024607Y-80051503D01*
X134090776Y-80085218D01*
X134090778Y-80085218D01*
X134090781Y-80085220D01*
X134195137Y-80119127D01*
X134285465Y-80148477D01*
X134386557Y-80164488D01*
X134487648Y-80180500D01*
X134487649Y-80180500D01*
X134692351Y-80180500D01*
X134692352Y-80180500D01*
X134894534Y-80148477D01*
X134908842Y-80143827D01*
X134978682Y-80141831D01*
X135034842Y-80174077D01*
X139691000Y-84830235D01*
X139691002Y-84830238D01*
X139802806Y-84942042D01*
X139859589Y-84974824D01*
X139868475Y-84982500D01*
X139881301Y-85002389D01*
X139897635Y-85019519D01*
X139899888Y-85031211D01*
X139906342Y-85041218D01*
X139906379Y-85064884D01*
X139910859Y-85088126D01*
X139906433Y-85099181D01*
X139906452Y-85111088D01*
X139893688Y-85131018D01*
X139884892Y-85152991D01*
X139875193Y-85159897D01*
X139868771Y-85169926D01*
X139847256Y-85179792D01*
X139827978Y-85193521D01*
X139814765Y-85194692D01*
X139805261Y-85199051D01*
X139790025Y-85196885D01*
X139777350Y-85198008D01*
X139777203Y-85199882D01*
X139772352Y-85199500D01*
X139567648Y-85199500D01*
X139543329Y-85203351D01*
X139365465Y-85231522D01*
X139170776Y-85294781D01*
X138988386Y-85387715D01*
X138822786Y-85508028D01*
X138678028Y-85652786D01*
X138557715Y-85818386D01*
X138510485Y-85911080D01*
X138462510Y-85961876D01*
X138394689Y-85978671D01*
X138328554Y-85956134D01*
X138289515Y-85911080D01*
X138283861Y-85899983D01*
X138242287Y-85818390D01*
X138190021Y-85746451D01*
X138121971Y-85652786D01*
X137977213Y-85508028D01*
X137811613Y-85387715D01*
X137811612Y-85387714D01*
X137811610Y-85387713D01*
X137713470Y-85337708D01*
X137629223Y-85294781D01*
X137434534Y-85231522D01*
X137258674Y-85203669D01*
X137232352Y-85199500D01*
X137027648Y-85199500D01*
X137003329Y-85203351D01*
X136825465Y-85231522D01*
X136630776Y-85294781D01*
X136448386Y-85387715D01*
X136282786Y-85508028D01*
X136138028Y-85652786D01*
X136017715Y-85818386D01*
X135970485Y-85911080D01*
X135922510Y-85961876D01*
X135854689Y-85978671D01*
X135788554Y-85956134D01*
X135749515Y-85911080D01*
X135743861Y-85899983D01*
X135702287Y-85818390D01*
X135650021Y-85746451D01*
X135581971Y-85652786D01*
X135437213Y-85508028D01*
X135271613Y-85387715D01*
X135271612Y-85387714D01*
X135271610Y-85387713D01*
X135173470Y-85337708D01*
X135089223Y-85294781D01*
X134894534Y-85231522D01*
X134718674Y-85203669D01*
X134692352Y-85199500D01*
X134487648Y-85199500D01*
X134463329Y-85203351D01*
X134285465Y-85231522D01*
X134090776Y-85294781D01*
X133908386Y-85387715D01*
X133742786Y-85508028D01*
X133598028Y-85652786D01*
X133477715Y-85818386D01*
X133430485Y-85911080D01*
X133382510Y-85961876D01*
X133314689Y-85978671D01*
X133248554Y-85956134D01*
X133209515Y-85911080D01*
X133203861Y-85899983D01*
X133162287Y-85818390D01*
X133110021Y-85746451D01*
X133041971Y-85652786D01*
X132897213Y-85508028D01*
X132731613Y-85387715D01*
X132731612Y-85387714D01*
X132731610Y-85387713D01*
X132633470Y-85337708D01*
X132549223Y-85294781D01*
X132354534Y-85231522D01*
X132178674Y-85203669D01*
X132152352Y-85199500D01*
X131947648Y-85199500D01*
X131923329Y-85203351D01*
X131745465Y-85231522D01*
X131550776Y-85294781D01*
X131368386Y-85387715D01*
X131202786Y-85508028D01*
X131058032Y-85652782D01*
X131058028Y-85652787D01*
X130989978Y-85746451D01*
X130934648Y-85789117D01*
X130865035Y-85795096D01*
X130803240Y-85762490D01*
X130771954Y-85712570D01*
X130752144Y-85652787D01*
X130744814Y-85630666D01*
X130652712Y-85481344D01*
X130528656Y-85357288D01*
X130379334Y-85265186D01*
X130212797Y-85210001D01*
X130212795Y-85210000D01*
X130110010Y-85199500D01*
X128909998Y-85199500D01*
X128909981Y-85199501D01*
X128807203Y-85210000D01*
X128807200Y-85210001D01*
X128640668Y-85265185D01*
X128640663Y-85265187D01*
X128491342Y-85357289D01*
X128367289Y-85481342D01*
X128275187Y-85630663D01*
X128275186Y-85630666D01*
X128220001Y-85797203D01*
X128220001Y-85797204D01*
X128220000Y-85797204D01*
X128209500Y-85899983D01*
X128209500Y-87100001D01*
X128209501Y-87100018D01*
X128220000Y-87202796D01*
X128220001Y-87202799D01*
X128267856Y-87347213D01*
X128275186Y-87369334D01*
X128367288Y-87518656D01*
X128491344Y-87642712D01*
X128640666Y-87734814D01*
X128807203Y-87789999D01*
X128909991Y-87800500D01*
X129899902Y-87800499D01*
X129966941Y-87820183D01*
X129987583Y-87836818D01*
X131452753Y-89301988D01*
X131486238Y-89363311D01*
X131481254Y-89433003D01*
X131452753Y-89477350D01*
X131346673Y-89583430D01*
X131285350Y-89616915D01*
X131215658Y-89611931D01*
X131159725Y-89570059D01*
X131142810Y-89539082D01*
X131093797Y-89407671D01*
X131093793Y-89407664D01*
X131007547Y-89292455D01*
X131007544Y-89292452D01*
X130892335Y-89206206D01*
X130892328Y-89206202D01*
X130757482Y-89155908D01*
X130757483Y-89155908D01*
X130697883Y-89149501D01*
X130697881Y-89149500D01*
X130697873Y-89149500D01*
X130697864Y-89149500D01*
X128902129Y-89149500D01*
X128902123Y-89149501D01*
X128842516Y-89155908D01*
X128707671Y-89206202D01*
X128707664Y-89206206D01*
X128592455Y-89292452D01*
X128592452Y-89292455D01*
X128506206Y-89407664D01*
X128506202Y-89407671D01*
X128455908Y-89542517D01*
X128449501Y-89602116D01*
X128449500Y-89602135D01*
X128449500Y-91397870D01*
X128449501Y-91397876D01*
X128455908Y-91457483D01*
X128506202Y-91592328D01*
X128506206Y-91592335D01*
X128592452Y-91707544D01*
X128592455Y-91707547D01*
X128707664Y-91793793D01*
X128707671Y-91793797D01*
X128728354Y-91801511D01*
X128842517Y-91844091D01*
X128902127Y-91850500D01*
X129075500Y-91850499D01*
X129084185Y-91853049D01*
X129093147Y-91851761D01*
X129117184Y-91862738D01*
X129142539Y-91870183D01*
X129148467Y-91877025D01*
X129156703Y-91880786D01*
X129170989Y-91903017D01*
X129188294Y-91922987D01*
X129190581Y-91933502D01*
X129194477Y-91939564D01*
X129199500Y-91974499D01*
X129199500Y-92209902D01*
X129179815Y-92276941D01*
X129163181Y-92297583D01*
X127960830Y-93499933D01*
X127899507Y-93533418D01*
X127853751Y-93534725D01*
X127694486Y-93509500D01*
X127694481Y-93509500D01*
X127505519Y-93509500D01*
X127505514Y-93509500D01*
X127318881Y-93539059D01*
X127139163Y-93597454D01*
X126970800Y-93683240D01*
X126896002Y-93737585D01*
X126817927Y-93794310D01*
X126817925Y-93794312D01*
X126817924Y-93794312D01*
X126684312Y-93927924D01*
X126684312Y-93927925D01*
X126684310Y-93927927D01*
X126676226Y-93939054D01*
X126573240Y-94080800D01*
X126487454Y-94249163D01*
X126429059Y-94428881D01*
X126399500Y-94615513D01*
X123000500Y-94615513D01*
X123000500Y-75374500D01*
X123020185Y-75307461D01*
X123072989Y-75261706D01*
X123124500Y-75250500D01*
X191035500Y-75250500D01*
X191102539Y-75270185D01*
G37*
%TD.AperFunction*%
%TD*%
M02*
