%TF.GenerationSoftware,KiCad,Pcbnew,9.0.9-9.0.9~ubuntu24.04.1*%
%TF.CreationDate,2026-09-25T19:54:39-04:00*%
%TF.ProjectId,shift-register-control-panel,73686966-742d-4726-9567-69737465722d,rev?*%
%TF.SameCoordinates,Original*%
%TF.FileFunction,Copper,L2,Bot*%
%TF.FilePolarity,Positive*%
%FSLAX46Y46*%
G04 Gerber Fmt 4.6, Leading zero omitted, Abs format (unit mm)*
G04 Created by KiCad (PCBNEW 9.0.9-9.0.9~ubuntu24.04.1) date 2026-09-25 19:54:39*
%MOMM*%
%LPD*%
G01*
G04 APERTURE LIST*
G04 Aperture macros list*
%AMRoundRect*
0 Rectangle with rounded corners*
0 $1 Rounding radius*
0 $2 $3 $4 $5 $6 $7 $8 $9 X,Y pos of 4 corners*
0 Add a 4 corners polygon primitive as box body*
4,1,4,$2,$3,$4,$5,$6,$7,$8,$9,$2,$3,0*
0 Add four circle primitives for the rounded corners*
1,1,$1+$1,$2,$3*
1,1,$1+$1,$4,$5*
1,1,$1+$1,$6,$7*
1,1,$1+$1,$8,$9*
0 Add four rect primitives between the rounded corners*
20,1,$1+$1,$2,$3,$4,$5,0*
20,1,$1+$1,$4,$5,$6,$7,0*
20,1,$1+$1,$6,$7,$8,$9,0*
20,1,$1+$1,$8,$9,$2,$3,0*%
G04 Aperture macros list end*
%TA.AperFunction,ComponentPad*%
%ADD10C,1.800000*%
%TD*%
%TA.AperFunction,ComponentPad*%
%ADD11R,1.800000X1.800000*%
%TD*%
%TA.AperFunction,ComponentPad*%
%ADD12R,2.000000X1.905000*%
%TD*%
%TA.AperFunction,ComponentPad*%
%ADD13O,2.000000X1.905000*%
%TD*%
%TA.AperFunction,ComponentPad*%
%ADD14C,1.400000*%
%TD*%
%TA.AperFunction,ComponentPad*%
%ADD15C,1.600000*%
%TD*%
%TA.AperFunction,ComponentPad*%
%ADD16RoundRect,0.250000X0.550000X-0.550000X0.550000X0.550000X-0.550000X0.550000X-0.550000X-0.550000X0*%
%TD*%
%TA.AperFunction,ComponentPad*%
%ADD17C,1.700000*%
%TD*%
%TA.AperFunction,ComponentPad*%
%ADD18R,1.700000X1.700000*%
%TD*%
%TA.AperFunction,ComponentPad*%
%ADD19C,2.000000*%
%TD*%
%TA.AperFunction,ComponentPad*%
%ADD20C,3.000000*%
%TD*%
%TA.AperFunction,ComponentPad*%
%ADD21R,1.500000X1.600000*%
%TD*%
%TA.AperFunction,ComponentPad*%
%ADD22O,1.500000X2.500000*%
%TD*%
%TA.AperFunction,ComponentPad*%
%ADD23R,1.500000X2.500000*%
%TD*%
%TA.AperFunction,ComponentPad*%
%ADD24O,2.200000X3.500000*%
%TD*%
%TA.AperFunction,ViaPad*%
%ADD25C,0.600000*%
%TD*%
%TA.AperFunction,Conductor*%
%ADD26C,0.200000*%
%TD*%
G04 APERTURE END LIST*
D10*
%TO.P,D3,2,A*%
%TO.N,Net-(D3-A)*%
X143318366Y-110430000D03*
D11*
%TO.P,D3,1,K*%
%TO.N,GND*%
X143318366Y-112970000D03*
%TD*%
D12*
%TO.P,U2,1,VI*%
%TO.N,VCC*%
X179190000Y-96820000D03*
D13*
%TO.P,U2,2,GND*%
%TO.N,GND*%
X179190000Y-94280000D03*
%TO.P,U2,3,VO*%
%TO.N,+5V*%
X179190000Y-91740000D03*
%TD*%
D14*
%TO.P,R2,2*%
%TO.N,Net-(D2-A)*%
X130802857Y-102530000D03*
%TO.P,R2,1*%
%TO.N,/OUT2*%
X130802857Y-97450000D03*
%TD*%
%TO.P,R3,1*%
%TO.N,/OUT3*%
X133965714Y-97450000D03*
%TO.P,R3,2*%
%TO.N,Net-(D3-A)*%
X133965714Y-102530000D03*
%TD*%
%TO.P,R4,1*%
%TO.N,/OUT4*%
X137128571Y-97450000D03*
%TO.P,R4,2*%
%TO.N,Net-(D4-A)*%
X137128571Y-102530000D03*
%TD*%
%TO.P,R5,1*%
%TO.N,/OUT5*%
X140291429Y-97450000D03*
%TO.P,R5,2*%
%TO.N,Net-(D5-A)*%
X140291429Y-102530000D03*
%TD*%
%TO.P,R6,1*%
%TO.N,/OUT6*%
X143454286Y-97450000D03*
%TO.P,R6,2*%
%TO.N,Net-(D6-A)*%
X143454286Y-102530000D03*
%TD*%
%TO.P,R7,1*%
%TO.N,/OUT7*%
X146617143Y-97450000D03*
%TO.P,R7,2*%
%TO.N,Net-(D7-A)*%
X146617143Y-102530000D03*
%TD*%
%TO.P,R8,1*%
%TO.N,/OUT8*%
X149780000Y-97450000D03*
%TO.P,R8,2*%
%TO.N,Net-(D8-A)*%
X149780000Y-102530000D03*
%TD*%
%TO.P,R1,2*%
%TO.N,Net-(D1-A)*%
X127640000Y-102530000D03*
%TO.P,R1,1*%
%TO.N,/OUT1*%
X127640000Y-97450000D03*
%TD*%
D15*
%TO.P,C3,1*%
%TO.N,GND*%
X133230000Y-77630000D03*
%TO.P,C3,2*%
%TO.N,+5V*%
X128230000Y-77630000D03*
%TD*%
%TO.P,U1,16,VCC*%
%TO.N,+5V*%
X128740000Y-81650000D03*
%TO.P,U1,15,QA*%
%TO.N,/OUT1*%
X131280000Y-81650000D03*
%TO.P,U1,14,SER*%
%TO.N,Net-(SW1-B)*%
X133820000Y-81650000D03*
%TO.P,U1,13,~{OE}*%
%TO.N,GND*%
X136360000Y-81650000D03*
%TO.P,U1,12,RCLK*%
%TO.N,Net-(U1-RCLK)*%
X138900000Y-81650000D03*
%TO.P,U1,11,SRCLK*%
%TO.N,Net-(U1-SRCLK)*%
X141440000Y-81650000D03*
%TO.P,U1,10,~{SRCLR}*%
%TO.N,Net-(U1-~{SRCLR})*%
X143980000Y-81650000D03*
%TO.P,U1,9,QH'*%
%TO.N,unconnected-(U1-QH'-Pad9)*%
X146520000Y-81650000D03*
%TO.P,U1,8,GND*%
%TO.N,GND*%
X146520000Y-89270000D03*
%TO.P,U1,7,QH*%
%TO.N,/OUT8*%
X143980000Y-89270000D03*
%TO.P,U1,6,QG*%
%TO.N,/OUT7*%
X141440000Y-89270000D03*
%TO.P,U1,5,QF*%
%TO.N,/OUT6*%
X138900000Y-89270000D03*
%TO.P,U1,4,QE*%
%TO.N,/OUT5*%
X136360000Y-89270000D03*
%TO.P,U1,3,QD*%
%TO.N,/OUT4*%
X133820000Y-89270000D03*
%TO.P,U1,2,QC*%
%TO.N,/OUT3*%
X131280000Y-89270000D03*
D16*
%TO.P,U1,1,QB*%
%TO.N,/OUT2*%
X128740000Y-89270000D03*
%TD*%
D17*
%TO.P,J1,8,Pin_8*%
%TO.N,/OUT8*%
X146810000Y-93270000D03*
%TO.P,J1,7,Pin_7*%
%TO.N,/OUT7*%
X144270000Y-93270000D03*
%TO.P,J1,6,Pin_6*%
%TO.N,/OUT6*%
X141730000Y-93270000D03*
%TO.P,J1,5,Pin_5*%
%TO.N,/OUT5*%
X139190000Y-93270000D03*
%TO.P,J1,4,Pin_4*%
%TO.N,/OUT4*%
X136650000Y-93270000D03*
%TO.P,J1,3,Pin_3*%
%TO.N,/OUT3*%
X134110000Y-93270000D03*
%TO.P,J1,2,Pin_2*%
%TO.N,/OUT2*%
X131570000Y-93270000D03*
D18*
%TO.P,J1,1,Pin_1*%
%TO.N,/OUT1*%
X129030000Y-93270000D03*
%TD*%
D14*
%TO.P,R12,1*%
%TO.N,Net-(U1-RCLK)*%
X152040000Y-77910000D03*
%TO.P,R12,2*%
%TO.N,GND*%
X152040000Y-82990000D03*
%TD*%
%TO.P,R13,1*%
%TO.N,Net-(R10-Pad1)*%
X172400000Y-87910000D03*
%TO.P,R13,2*%
%TO.N,+5V*%
X172400000Y-92990000D03*
%TD*%
%TO.P,R11,1*%
%TO.N,+5V*%
X169160000Y-92990000D03*
%TO.P,R11,2*%
%TO.N,Net-(U1-~{SRCLR})*%
X169160000Y-87910000D03*
%TD*%
%TO.P,R10,2*%
%TO.N,Net-(C1-Pad1)*%
X181540000Y-82690000D03*
%TO.P,R10,1*%
%TO.N,Net-(R10-Pad1)*%
X181540000Y-77610000D03*
%TD*%
D19*
%TO.P,SW2,2,2*%
%TO.N,Net-(R10-Pad1)*%
X177980000Y-78280000D03*
X177980000Y-84780000D03*
%TO.P,SW2,1,1*%
%TO.N,GND*%
X173480000Y-78280000D03*
X173480000Y-84780000D03*
%TD*%
D11*
%TO.P,D8,1,K*%
%TO.N,GND*%
X182780000Y-112970000D03*
D10*
%TO.P,D8,2,A*%
%TO.N,Net-(D8-A)*%
X182780000Y-110430000D03*
%TD*%
D11*
%TO.P,D7,1,K*%
%TO.N,GND*%
X174887673Y-112970000D03*
D10*
%TO.P,D7,2,A*%
%TO.N,Net-(D7-A)*%
X174887673Y-110430000D03*
%TD*%
D11*
%TO.P,D6,1,K*%
%TO.N,GND*%
X166995347Y-112970000D03*
D10*
%TO.P,D6,2,A*%
%TO.N,Net-(D6-A)*%
X166995347Y-110430000D03*
%TD*%
D11*
%TO.P,D5,1,K*%
%TO.N,GND*%
X159103020Y-112970000D03*
D10*
%TO.P,D5,2,A*%
%TO.N,Net-(D5-A)*%
X159103020Y-110430000D03*
%TD*%
D11*
%TO.P,D4,1,K*%
%TO.N,GND*%
X151210693Y-112970000D03*
D10*
%TO.P,D4,2,A*%
%TO.N,Net-(D4-A)*%
X151210693Y-110430000D03*
%TD*%
D11*
%TO.P,D2,1,K*%
%TO.N,GND*%
X135426040Y-112970000D03*
D10*
%TO.P,D2,2,A*%
%TO.N,Net-(D2-A)*%
X135426040Y-110430000D03*
%TD*%
D15*
%TO.P,C2,1*%
%TO.N,GND*%
X189460000Y-78200000D03*
%TO.P,C2,2*%
%TO.N,+5V*%
X184460000Y-78200000D03*
%TD*%
%TO.P,C1,1*%
%TO.N,Net-(C1-Pad1)*%
X184560000Y-86070000D03*
%TO.P,C1,2*%
%TO.N,GND*%
X189560000Y-86070000D03*
%TD*%
D10*
%TO.P,D1,2,A*%
%TO.N,Net-(D1-A)*%
X127533713Y-110430000D03*
D11*
%TO.P,D1,1,K*%
%TO.N,GND*%
X127533713Y-112970000D03*
%TD*%
D10*
%TO.P,D9,2,A*%
%TO.N,Net-(D9-A)*%
X157840000Y-100520000D03*
D11*
%TO.P,D9,1,K*%
%TO.N,GND*%
X157840000Y-97980000D03*
%TD*%
D20*
%TO.P,J2,5,Shield*%
%TO.N,GND*%
X187970000Y-91860000D03*
X187970000Y-105000000D03*
D15*
%TO.P,J2,4,GND*%
X185260000Y-94930000D03*
%TO.P,J2,3,D+*%
%TO.N,unconnected-(J2-D+-Pad3)*%
X185260000Y-97430000D03*
%TO.P,J2,2,D-*%
%TO.N,unconnected-(J2-D--Pad2)*%
X185260000Y-99430000D03*
D21*
%TO.P,J2,1,VBUS*%
%TO.N,VCC*%
X185260000Y-101930000D03*
%TD*%
D14*
%TO.P,R9,2*%
%TO.N,Net-(D9-A)*%
X155590000Y-94420000D03*
%TO.P,R9,1*%
%TO.N,Net-(SW1-B)*%
X160670000Y-94420000D03*
%TD*%
D22*
%TO.P,SW1,3,C*%
%TO.N,GND*%
X158250000Y-89952500D03*
%TO.P,SW1,2,B*%
%TO.N,Net-(SW1-B)*%
X160250000Y-89952500D03*
D23*
%TO.P,SW1,1,A*%
%TO.N,+5V*%
X162250000Y-89952500D03*
D24*
%TO.P,SW1,*%
%TO.N,*%
X156150000Y-89952500D03*
X164350000Y-89952500D03*
%TD*%
D19*
%TO.P,SW3,2,2*%
%TO.N,Net-(U1-~{SRCLR})*%
X164575000Y-84780000D03*
X164575000Y-78280000D03*
%TO.P,SW3,1,1*%
%TO.N,GND*%
X169075000Y-84780000D03*
X169075000Y-78280000D03*
%TD*%
%TO.P,SW4,2,2*%
%TO.N,Net-(U1-RCLK)*%
X155670000Y-84780000D03*
X155670000Y-78280000D03*
%TO.P,SW4,1,1*%
%TO.N,+5V*%
X160170000Y-84780000D03*
X160170000Y-78280000D03*
%TD*%
D25*
%TO.N,GND*%
X185420000Y-83540000D03*
%TO.N,Net-(U1-SRCLK)*%
X182780000Y-84650000D03*
%TD*%
D26*
%TO.N,GND*%
X187950000Y-86070000D02*
X185420000Y-83540000D01*
X189560000Y-86070000D02*
X187950000Y-86070000D01*
%TO.N,Net-(U1-SRCLK)*%
X180970000Y-86460000D02*
X182780000Y-84650000D01*
X144370000Y-86460000D02*
X180970000Y-86460000D01*
X141440000Y-81650000D02*
X141440000Y-83530000D01*
X141440000Y-83530000D02*
X144370000Y-86460000D01*
%TO.N,Net-(U1-~{SRCLR})*%
X143980000Y-81650000D02*
X145080000Y-80550000D01*
X145080000Y-80550000D02*
X162305000Y-80550000D01*
X162305000Y-80550000D02*
X164575000Y-78280000D01*
%TO.N,Net-(D7-A)*%
X146617143Y-102530000D02*
X146617143Y-103827143D01*
X146617143Y-103827143D02*
X148030000Y-105240000D01*
X169697673Y-105240000D02*
X174887673Y-110430000D01*
X148030000Y-105240000D02*
X169697673Y-105240000D01*
%TO.N,Net-(D8-A)*%
X149780000Y-102530000D02*
X150550000Y-103300000D01*
X150860000Y-101730000D02*
X174890000Y-101730000D01*
X181710000Y-110430000D02*
X182780000Y-110430000D01*
X174890000Y-101730000D02*
X182020000Y-108860000D01*
%TO.N,/OUT1*%
X125940000Y-86870000D02*
X125940000Y-91610000D01*
X131160000Y-81650000D02*
X125940000Y-86870000D01*
X125940000Y-91610000D02*
X127600000Y-93270000D01*
X131280000Y-81650000D02*
X131160000Y-81650000D01*
X127600000Y-93270000D02*
X129030000Y-93270000D01*
%TD*%
%TA.AperFunction,Conductor*%
%TO.N,GND*%
G36*
X191102539Y-75270185D02*
G01*
X191148294Y-75322989D01*
X191159500Y-75374500D01*
X191159500Y-115875500D01*
X191139815Y-115942539D01*
X191087011Y-115988294D01*
X191035500Y-115999500D01*
X123124500Y-115999500D01*
X123057461Y-115979815D01*
X123011706Y-115927011D01*
X123000500Y-115875500D01*
X123000500Y-110319778D01*
X126133213Y-110319778D01*
X126133213Y-110540221D01*
X126167698Y-110757952D01*
X126235816Y-110967603D01*
X126235817Y-110967606D01*
X126335900Y-111164025D01*
X126465465Y-111342358D01*
X126465469Y-111342363D01*
X126516029Y-111392923D01*
X126549514Y-111454246D01*
X126544530Y-111523938D01*
X126502658Y-111579871D01*
X126471682Y-111596785D01*
X126391631Y-111626643D01*
X126391619Y-111626649D01*
X126276525Y-111712809D01*
X126276522Y-111712812D01*
X126190362Y-111827906D01*
X126190358Y-111827913D01*
X126140116Y-111962620D01*
X126140114Y-111962627D01*
X126133713Y-112022155D01*
X126133713Y-112720000D01*
X127158435Y-112720000D01*
X127114380Y-112796306D01*
X127083713Y-112910756D01*
X127083713Y-113029244D01*
X127114380Y-113143694D01*
X127158435Y-113220000D01*
X126133713Y-113220000D01*
X126133713Y-113917844D01*
X126140114Y-113977372D01*
X126140116Y-113977379D01*
X126190358Y-114112086D01*
X126190362Y-114112093D01*
X126276522Y-114227187D01*
X126276525Y-114227190D01*
X126391619Y-114313350D01*
X126391626Y-114313354D01*
X126526333Y-114363596D01*
X126526340Y-114363598D01*
X126585868Y-114369999D01*
X126585885Y-114370000D01*
X127283713Y-114370000D01*
X127283713Y-113345277D01*
X127360019Y-113389333D01*
X127474469Y-113420000D01*
X127592957Y-113420000D01*
X127707407Y-113389333D01*
X127783713Y-113345277D01*
X127783713Y-114370000D01*
X128481541Y-114370000D01*
X128481557Y-114369999D01*
X128541085Y-114363598D01*
X128541092Y-114363596D01*
X128675799Y-114313354D01*
X128675806Y-114313350D01*
X128790900Y-114227190D01*
X128790903Y-114227187D01*
X128877063Y-114112093D01*
X128877067Y-114112086D01*
X128927309Y-113977379D01*
X128927311Y-113977372D01*
X128933712Y-113917844D01*
X128933713Y-113917827D01*
X128933713Y-113220000D01*
X127908991Y-113220000D01*
X127953046Y-113143694D01*
X127983713Y-113029244D01*
X127983713Y-112910756D01*
X127953046Y-112796306D01*
X127908991Y-112720000D01*
X128933713Y-112720000D01*
X128933713Y-112022172D01*
X128933712Y-112022155D01*
X128927311Y-111962627D01*
X128927309Y-111962620D01*
X128877067Y-111827913D01*
X128877063Y-111827906D01*
X128790903Y-111712812D01*
X128790900Y-111712809D01*
X128675806Y-111626649D01*
X128675800Y-111626646D01*
X128595743Y-111596786D01*
X128539810Y-111554914D01*
X128515393Y-111489450D01*
X128530245Y-111421177D01*
X128551394Y-111392925D01*
X128601955Y-111342365D01*
X128731528Y-111164022D01*
X128831608Y-110967606D01*
X128899728Y-110757951D01*
X128934213Y-110540222D01*
X128934213Y-110319778D01*
X134025540Y-110319778D01*
X134025540Y-110540221D01*
X134060025Y-110757952D01*
X134128143Y-110967603D01*
X134128144Y-110967606D01*
X134228227Y-111164025D01*
X134357792Y-111342358D01*
X134357796Y-111342363D01*
X134408356Y-111392923D01*
X134441841Y-111454246D01*
X134436857Y-111523938D01*
X134394985Y-111579871D01*
X134364009Y-111596785D01*
X134283958Y-111626643D01*
X134283946Y-111626649D01*
X134168852Y-111712809D01*
X134168849Y-111712812D01*
X134082689Y-111827906D01*
X134082685Y-111827913D01*
X134032443Y-111962620D01*
X134032441Y-111962627D01*
X134026040Y-112022155D01*
X134026040Y-112720000D01*
X135050762Y-112720000D01*
X135006707Y-112796306D01*
X134976040Y-112910756D01*
X134976040Y-113029244D01*
X135006707Y-113143694D01*
X135050762Y-113220000D01*
X134026040Y-113220000D01*
X134026040Y-113917844D01*
X134032441Y-113977372D01*
X134032443Y-113977379D01*
X134082685Y-114112086D01*
X134082689Y-114112093D01*
X134168849Y-114227187D01*
X134168852Y-114227190D01*
X134283946Y-114313350D01*
X134283953Y-114313354D01*
X134418660Y-114363596D01*
X134418667Y-114363598D01*
X134478195Y-114369999D01*
X134478212Y-114370000D01*
X135176040Y-114370000D01*
X135176040Y-113345277D01*
X135252346Y-113389333D01*
X135366796Y-113420000D01*
X135485284Y-113420000D01*
X135599734Y-113389333D01*
X135676040Y-113345277D01*
X135676040Y-114370000D01*
X136373868Y-114370000D01*
X136373884Y-114369999D01*
X136433412Y-114363598D01*
X136433419Y-114363596D01*
X136568126Y-114313354D01*
X136568133Y-114313350D01*
X136683227Y-114227190D01*
X136683230Y-114227187D01*
X136769390Y-114112093D01*
X136769394Y-114112086D01*
X136819636Y-113977379D01*
X136819638Y-113977372D01*
X136826039Y-113917844D01*
X136826040Y-113917827D01*
X136826040Y-113220000D01*
X135801318Y-113220000D01*
X135845373Y-113143694D01*
X135876040Y-113029244D01*
X135876040Y-112910756D01*
X135845373Y-112796306D01*
X135801318Y-112720000D01*
X136826040Y-112720000D01*
X136826040Y-112022172D01*
X136826039Y-112022155D01*
X136819638Y-111962627D01*
X136819636Y-111962620D01*
X136769394Y-111827913D01*
X136769390Y-111827906D01*
X136683230Y-111712812D01*
X136683227Y-111712809D01*
X136568133Y-111626649D01*
X136568127Y-111626646D01*
X136488070Y-111596786D01*
X136432137Y-111554914D01*
X136407720Y-111489450D01*
X136422572Y-111421177D01*
X136443721Y-111392925D01*
X136494282Y-111342365D01*
X136623855Y-111164022D01*
X136723935Y-110967606D01*
X136792055Y-110757951D01*
X136826540Y-110540222D01*
X136826540Y-110319778D01*
X141917866Y-110319778D01*
X141917866Y-110540221D01*
X141952351Y-110757952D01*
X142020469Y-110967603D01*
X142020470Y-110967606D01*
X142120553Y-111164025D01*
X142250118Y-111342358D01*
X142250122Y-111342363D01*
X142300682Y-111392923D01*
X142334167Y-111454246D01*
X142329183Y-111523938D01*
X142287311Y-111579871D01*
X142256335Y-111596785D01*
X142176284Y-111626643D01*
X142176272Y-111626649D01*
X142061178Y-111712809D01*
X142061175Y-111712812D01*
X141975015Y-111827906D01*
X141975011Y-111827913D01*
X141924769Y-111962620D01*
X141924767Y-111962627D01*
X141918366Y-112022155D01*
X141918366Y-112720000D01*
X142943088Y-112720000D01*
X142899033Y-112796306D01*
X142868366Y-112910756D01*
X142868366Y-113029244D01*
X142899033Y-113143694D01*
X142943088Y-113220000D01*
X141918366Y-113220000D01*
X141918366Y-113917844D01*
X141924767Y-113977372D01*
X141924769Y-113977379D01*
X141975011Y-114112086D01*
X141975015Y-114112093D01*
X142061175Y-114227187D01*
X142061178Y-114227190D01*
X142176272Y-114313350D01*
X142176279Y-114313354D01*
X142310986Y-114363596D01*
X142310993Y-114363598D01*
X142370521Y-114369999D01*
X142370538Y-114370000D01*
X143068366Y-114370000D01*
X143068366Y-113345277D01*
X143144672Y-113389333D01*
X143259122Y-113420000D01*
X143377610Y-113420000D01*
X143492060Y-113389333D01*
X143568366Y-113345277D01*
X143568366Y-114370000D01*
X144266194Y-114370000D01*
X144266210Y-114369999D01*
X144325738Y-114363598D01*
X144325745Y-114363596D01*
X144460452Y-114313354D01*
X144460459Y-114313350D01*
X144575553Y-114227190D01*
X144575556Y-114227187D01*
X144661716Y-114112093D01*
X144661720Y-114112086D01*
X144711962Y-113977379D01*
X144711964Y-113977372D01*
X144718365Y-113917844D01*
X144718366Y-113917827D01*
X144718366Y-113220000D01*
X143693644Y-113220000D01*
X143737699Y-113143694D01*
X143768366Y-113029244D01*
X143768366Y-112910756D01*
X143737699Y-112796306D01*
X143693644Y-112720000D01*
X144718366Y-112720000D01*
X144718366Y-112022172D01*
X144718365Y-112022155D01*
X144711964Y-111962627D01*
X144711962Y-111962620D01*
X144661720Y-111827913D01*
X144661716Y-111827906D01*
X144575556Y-111712812D01*
X144575553Y-111712809D01*
X144460459Y-111626649D01*
X144460453Y-111626646D01*
X144380396Y-111596786D01*
X144324463Y-111554914D01*
X144300046Y-111489450D01*
X144314898Y-111421177D01*
X144336047Y-111392925D01*
X144386608Y-111342365D01*
X144516181Y-111164022D01*
X144616261Y-110967606D01*
X144684381Y-110757951D01*
X144718866Y-110540222D01*
X144718866Y-110319778D01*
X149810193Y-110319778D01*
X149810193Y-110540221D01*
X149844678Y-110757952D01*
X149912796Y-110967603D01*
X149912797Y-110967606D01*
X150012880Y-111164025D01*
X150142445Y-111342358D01*
X150142449Y-111342363D01*
X150193009Y-111392923D01*
X150226494Y-111454246D01*
X150221510Y-111523938D01*
X150179638Y-111579871D01*
X150148662Y-111596785D01*
X150068611Y-111626643D01*
X150068599Y-111626649D01*
X149953505Y-111712809D01*
X149953502Y-111712812D01*
X149867342Y-111827906D01*
X149867338Y-111827913D01*
X149817096Y-111962620D01*
X149817094Y-111962627D01*
X149810693Y-112022155D01*
X149810693Y-112720000D01*
X150835415Y-112720000D01*
X150791360Y-112796306D01*
X150760693Y-112910756D01*
X150760693Y-113029244D01*
X150791360Y-113143694D01*
X150835415Y-113220000D01*
X149810693Y-113220000D01*
X149810693Y-113917844D01*
X149817094Y-113977372D01*
X149817096Y-113977379D01*
X149867338Y-114112086D01*
X149867342Y-114112093D01*
X149953502Y-114227187D01*
X149953505Y-114227190D01*
X150068599Y-114313350D01*
X150068606Y-114313354D01*
X150203313Y-114363596D01*
X150203320Y-114363598D01*
X150262848Y-114369999D01*
X150262865Y-114370000D01*
X150960693Y-114370000D01*
X150960693Y-113345277D01*
X151036999Y-113389333D01*
X151151449Y-113420000D01*
X151269937Y-113420000D01*
X151384387Y-113389333D01*
X151460693Y-113345277D01*
X151460693Y-114370000D01*
X152158521Y-114370000D01*
X152158537Y-114369999D01*
X152218065Y-114363598D01*
X152218072Y-114363596D01*
X152352779Y-114313354D01*
X152352786Y-114313350D01*
X152467880Y-114227190D01*
X152467883Y-114227187D01*
X152554043Y-114112093D01*
X152554047Y-114112086D01*
X152604289Y-113977379D01*
X152604291Y-113977372D01*
X152610692Y-113917844D01*
X152610693Y-113917827D01*
X152610693Y-113220000D01*
X151585971Y-113220000D01*
X151630026Y-113143694D01*
X151660693Y-113029244D01*
X151660693Y-112910756D01*
X151630026Y-112796306D01*
X151585971Y-112720000D01*
X152610693Y-112720000D01*
X152610693Y-112022172D01*
X152610692Y-112022155D01*
X152604291Y-111962627D01*
X152604289Y-111962620D01*
X152554047Y-111827913D01*
X152554043Y-111827906D01*
X152467883Y-111712812D01*
X152467880Y-111712809D01*
X152352786Y-111626649D01*
X152352780Y-111626646D01*
X152272723Y-111596786D01*
X152216790Y-111554914D01*
X152192373Y-111489450D01*
X152207225Y-111421177D01*
X152228374Y-111392925D01*
X152278935Y-111342365D01*
X152408508Y-111164022D01*
X152508588Y-110967606D01*
X152576708Y-110757951D01*
X152611193Y-110540222D01*
X152611193Y-110319778D01*
X157702520Y-110319778D01*
X157702520Y-110540221D01*
X157737005Y-110757952D01*
X157805123Y-110967603D01*
X157805124Y-110967606D01*
X157905207Y-111164025D01*
X158034772Y-111342358D01*
X158034776Y-111342363D01*
X158085336Y-111392923D01*
X158118821Y-111454246D01*
X158113837Y-111523938D01*
X158071965Y-111579871D01*
X158040989Y-111596785D01*
X157960938Y-111626643D01*
X157960926Y-111626649D01*
X157845832Y-111712809D01*
X157845829Y-111712812D01*
X157759669Y-111827906D01*
X157759665Y-111827913D01*
X157709423Y-111962620D01*
X157709421Y-111962627D01*
X157703020Y-112022155D01*
X157703020Y-112720000D01*
X158727742Y-112720000D01*
X158683687Y-112796306D01*
X158653020Y-112910756D01*
X158653020Y-113029244D01*
X158683687Y-113143694D01*
X158727742Y-113220000D01*
X157703020Y-113220000D01*
X157703020Y-113917844D01*
X157709421Y-113977372D01*
X157709423Y-113977379D01*
X157759665Y-114112086D01*
X157759669Y-114112093D01*
X157845829Y-114227187D01*
X157845832Y-114227190D01*
X157960926Y-114313350D01*
X157960933Y-114313354D01*
X158095640Y-114363596D01*
X158095647Y-114363598D01*
X158155175Y-114369999D01*
X158155192Y-114370000D01*
X158853020Y-114370000D01*
X158853020Y-113345277D01*
X158929326Y-113389333D01*
X159043776Y-113420000D01*
X159162264Y-113420000D01*
X159276714Y-113389333D01*
X159353020Y-113345277D01*
X159353020Y-114370000D01*
X160050848Y-114370000D01*
X160050864Y-114369999D01*
X160110392Y-114363598D01*
X160110399Y-114363596D01*
X160245106Y-114313354D01*
X160245113Y-114313350D01*
X160360207Y-114227190D01*
X160360210Y-114227187D01*
X160446370Y-114112093D01*
X160446374Y-114112086D01*
X160496616Y-113977379D01*
X160496618Y-113977372D01*
X160503019Y-113917844D01*
X160503020Y-113917827D01*
X160503020Y-113220000D01*
X159478298Y-113220000D01*
X159522353Y-113143694D01*
X159553020Y-113029244D01*
X159553020Y-112910756D01*
X159522353Y-112796306D01*
X159478298Y-112720000D01*
X160503020Y-112720000D01*
X160503020Y-112022172D01*
X160503019Y-112022155D01*
X160496618Y-111962627D01*
X160496616Y-111962620D01*
X160446374Y-111827913D01*
X160446370Y-111827906D01*
X160360210Y-111712812D01*
X160360207Y-111712809D01*
X160245113Y-111626649D01*
X160245107Y-111626646D01*
X160165050Y-111596786D01*
X160109117Y-111554914D01*
X160084700Y-111489450D01*
X160099552Y-111421177D01*
X160120701Y-111392925D01*
X160171262Y-111342365D01*
X160300835Y-111164022D01*
X160400915Y-110967606D01*
X160469035Y-110757951D01*
X160503520Y-110540222D01*
X160503520Y-110319778D01*
X165594847Y-110319778D01*
X165594847Y-110540221D01*
X165629332Y-110757952D01*
X165697450Y-110967603D01*
X165697451Y-110967606D01*
X165797534Y-111164025D01*
X165927099Y-111342358D01*
X165927103Y-111342363D01*
X165977663Y-111392923D01*
X166011148Y-111454246D01*
X166006164Y-111523938D01*
X165964292Y-111579871D01*
X165933316Y-111596785D01*
X165853265Y-111626643D01*
X165853253Y-111626649D01*
X165738159Y-111712809D01*
X165738156Y-111712812D01*
X165651996Y-111827906D01*
X165651992Y-111827913D01*
X165601750Y-111962620D01*
X165601748Y-111962627D01*
X165595347Y-112022155D01*
X165595347Y-112720000D01*
X166620069Y-112720000D01*
X166576014Y-112796306D01*
X166545347Y-112910756D01*
X166545347Y-113029244D01*
X166576014Y-113143694D01*
X166620069Y-113220000D01*
X165595347Y-113220000D01*
X165595347Y-113917844D01*
X165601748Y-113977372D01*
X165601750Y-113977379D01*
X165651992Y-114112086D01*
X165651996Y-114112093D01*
X165738156Y-114227187D01*
X165738159Y-114227190D01*
X165853253Y-114313350D01*
X165853260Y-114313354D01*
X165987967Y-114363596D01*
X165987974Y-114363598D01*
X166047502Y-114369999D01*
X166047519Y-114370000D01*
X166745347Y-114370000D01*
X166745347Y-113345277D01*
X166821653Y-113389333D01*
X166936103Y-113420000D01*
X167054591Y-113420000D01*
X167169041Y-113389333D01*
X167245347Y-113345277D01*
X167245347Y-114370000D01*
X167943175Y-114370000D01*
X167943191Y-114369999D01*
X168002719Y-114363598D01*
X168002726Y-114363596D01*
X168137433Y-114313354D01*
X168137440Y-114313350D01*
X168252534Y-114227190D01*
X168252537Y-114227187D01*
X168338697Y-114112093D01*
X168338701Y-114112086D01*
X168388943Y-113977379D01*
X168388945Y-113977372D01*
X168395346Y-113917844D01*
X168395347Y-113917827D01*
X168395347Y-113220000D01*
X167370625Y-113220000D01*
X167414680Y-113143694D01*
X167445347Y-113029244D01*
X167445347Y-112910756D01*
X167414680Y-112796306D01*
X167370625Y-112720000D01*
X168395347Y-112720000D01*
X168395347Y-112022172D01*
X168395346Y-112022155D01*
X168388945Y-111962627D01*
X168388943Y-111962620D01*
X168338701Y-111827913D01*
X168338697Y-111827906D01*
X168252537Y-111712812D01*
X168252534Y-111712809D01*
X168137440Y-111626649D01*
X168137434Y-111626646D01*
X168057377Y-111596786D01*
X168001444Y-111554914D01*
X167977027Y-111489450D01*
X167991879Y-111421177D01*
X168013028Y-111392925D01*
X168063589Y-111342365D01*
X168193162Y-111164022D01*
X168293242Y-110967606D01*
X168361362Y-110757951D01*
X168395847Y-110540222D01*
X168395847Y-110319778D01*
X168361362Y-110102049D01*
X168315055Y-109959527D01*
X168293243Y-109892396D01*
X168293242Y-109892393D01*
X168258584Y-109824375D01*
X168193162Y-109695978D01*
X168071752Y-109528870D01*
X168063594Y-109517641D01*
X168063590Y-109517636D01*
X167907710Y-109361756D01*
X167907705Y-109361752D01*
X167729372Y-109232187D01*
X167729371Y-109232186D01*
X167729369Y-109232185D01*
X167666443Y-109200122D01*
X167532953Y-109132104D01*
X167532950Y-109132103D01*
X167323299Y-109063985D01*
X167214433Y-109046742D01*
X167105569Y-109029500D01*
X166885125Y-109029500D01*
X166812548Y-109040995D01*
X166667394Y-109063985D01*
X166457743Y-109132103D01*
X166457740Y-109132104D01*
X166261321Y-109232187D01*
X166082988Y-109361752D01*
X166082983Y-109361756D01*
X165927103Y-109517636D01*
X165927099Y-109517641D01*
X165797534Y-109695974D01*
X165697451Y-109892393D01*
X165697450Y-109892396D01*
X165629332Y-110102047D01*
X165594847Y-110319778D01*
X160503520Y-110319778D01*
X160469035Y-110102049D01*
X160422728Y-109959527D01*
X160400916Y-109892396D01*
X160400915Y-109892393D01*
X160366257Y-109824375D01*
X160300835Y-109695978D01*
X160179425Y-109528870D01*
X160171267Y-109517641D01*
X160171263Y-109517636D01*
X160015383Y-109361756D01*
X160015378Y-109361752D01*
X159837045Y-109232187D01*
X159837044Y-109232186D01*
X159837042Y-109232185D01*
X159774116Y-109200122D01*
X159640626Y-109132104D01*
X159640623Y-109132103D01*
X159430972Y-109063985D01*
X159322106Y-109046742D01*
X159213242Y-109029500D01*
X158992798Y-109029500D01*
X158920221Y-109040995D01*
X158775067Y-109063985D01*
X158565416Y-109132103D01*
X158565413Y-109132104D01*
X158368994Y-109232187D01*
X158190661Y-109361752D01*
X158190656Y-109361756D01*
X158034776Y-109517636D01*
X158034772Y-109517641D01*
X157905207Y-109695974D01*
X157805124Y-109892393D01*
X157805123Y-109892396D01*
X157737005Y-110102047D01*
X157702520Y-110319778D01*
X152611193Y-110319778D01*
X152576708Y-110102049D01*
X152530401Y-109959527D01*
X152508589Y-109892396D01*
X152508588Y-109892393D01*
X152473930Y-109824375D01*
X152408508Y-109695978D01*
X152287098Y-109528870D01*
X152278940Y-109517641D01*
X152278936Y-109517636D01*
X152123056Y-109361756D01*
X152123051Y-109361752D01*
X151944718Y-109232187D01*
X151944717Y-109232186D01*
X151944715Y-109232185D01*
X151881789Y-109200122D01*
X151748299Y-109132104D01*
X151748296Y-109132103D01*
X151538645Y-109063985D01*
X151429779Y-109046742D01*
X151320915Y-109029500D01*
X151100471Y-109029500D01*
X151027894Y-109040995D01*
X150882740Y-109063985D01*
X150673089Y-109132103D01*
X150673086Y-109132104D01*
X150476667Y-109232187D01*
X150298334Y-109361752D01*
X150298329Y-109361756D01*
X150142449Y-109517636D01*
X150142445Y-109517641D01*
X150012880Y-109695974D01*
X149912797Y-109892393D01*
X149912796Y-109892396D01*
X149844678Y-110102047D01*
X149810193Y-110319778D01*
X144718866Y-110319778D01*
X144684381Y-110102049D01*
X144638074Y-109959527D01*
X144616262Y-109892396D01*
X144616261Y-109892393D01*
X144581603Y-109824375D01*
X144516181Y-109695978D01*
X144394771Y-109528870D01*
X144386613Y-109517641D01*
X144386609Y-109517636D01*
X144230729Y-109361756D01*
X144230724Y-109361752D01*
X144052391Y-109232187D01*
X144052390Y-109232186D01*
X144052388Y-109232185D01*
X143989462Y-109200122D01*
X143855972Y-109132104D01*
X143855969Y-109132103D01*
X143646318Y-109063985D01*
X143537452Y-109046742D01*
X143428588Y-109029500D01*
X143208144Y-109029500D01*
X143135567Y-109040995D01*
X142990413Y-109063985D01*
X142780762Y-109132103D01*
X142780759Y-109132104D01*
X142584340Y-109232187D01*
X142406007Y-109361752D01*
X142406002Y-109361756D01*
X142250122Y-109517636D01*
X142250118Y-109517641D01*
X142120553Y-109695974D01*
X142020470Y-109892393D01*
X142020469Y-109892396D01*
X141952351Y-110102047D01*
X141917866Y-110319778D01*
X136826540Y-110319778D01*
X136792055Y-110102049D01*
X136745748Y-109959527D01*
X136723936Y-109892396D01*
X136723935Y-109892393D01*
X136689277Y-109824375D01*
X136623855Y-109695978D01*
X136502445Y-109528870D01*
X136494287Y-109517641D01*
X136494283Y-109517636D01*
X136338403Y-109361756D01*
X136338398Y-109361752D01*
X136160065Y-109232187D01*
X136160064Y-109232186D01*
X136160062Y-109232185D01*
X136097136Y-109200122D01*
X135963646Y-109132104D01*
X135963643Y-109132103D01*
X135753992Y-109063985D01*
X135645126Y-109046742D01*
X135536262Y-109029500D01*
X135315818Y-109029500D01*
X135243241Y-109040995D01*
X135098087Y-109063985D01*
X134888436Y-109132103D01*
X134888433Y-109132104D01*
X134692014Y-109232187D01*
X134513681Y-109361752D01*
X134513676Y-109361756D01*
X134357796Y-109517636D01*
X134357792Y-109517641D01*
X134228227Y-109695974D01*
X134128144Y-109892393D01*
X134128143Y-109892396D01*
X134060025Y-110102047D01*
X134025540Y-110319778D01*
X128934213Y-110319778D01*
X128899728Y-110102049D01*
X128853421Y-109959527D01*
X128831609Y-109892396D01*
X128831608Y-109892393D01*
X128796950Y-109824375D01*
X128731528Y-109695978D01*
X128610118Y-109528870D01*
X128601960Y-109517641D01*
X128601956Y-109517636D01*
X128446076Y-109361756D01*
X128446071Y-109361752D01*
X128267738Y-109232187D01*
X128267737Y-109232186D01*
X128267735Y-109232185D01*
X128204809Y-109200122D01*
X128071319Y-109132104D01*
X128071316Y-109132103D01*
X127861665Y-109063985D01*
X127752799Y-109046742D01*
X127643935Y-109029500D01*
X127423491Y-109029500D01*
X127350914Y-109040995D01*
X127205760Y-109063985D01*
X126996109Y-109132103D01*
X126996106Y-109132104D01*
X126799687Y-109232187D01*
X126621354Y-109361752D01*
X126621349Y-109361756D01*
X126465469Y-109517636D01*
X126465465Y-109517641D01*
X126335900Y-109695974D01*
X126235817Y-109892393D01*
X126235816Y-109892396D01*
X126167698Y-110102047D01*
X126133213Y-110319778D01*
X123000500Y-110319778D01*
X123000500Y-102435513D01*
X126439500Y-102435513D01*
X126439500Y-102624486D01*
X126469059Y-102811118D01*
X126527454Y-102990836D01*
X126584134Y-103102075D01*
X126613240Y-103159199D01*
X126724310Y-103312073D01*
X126857927Y-103445690D01*
X127010801Y-103556760D01*
X127041065Y-103572180D01*
X127179163Y-103642545D01*
X127179165Y-103642545D01*
X127179168Y-103642547D01*
X127275497Y-103673846D01*
X127358881Y-103700940D01*
X127545514Y-103730500D01*
X127545519Y-103730500D01*
X127734486Y-103730500D01*
X127921118Y-103700940D01*
X127951753Y-103690986D01*
X128100832Y-103642547D01*
X128269199Y-103556760D01*
X128422073Y-103445690D01*
X128555690Y-103312073D01*
X128666760Y-103159199D01*
X128752547Y-102990832D01*
X128810940Y-102811118D01*
X128816205Y-102777876D01*
X128840500Y-102624486D01*
X128840500Y-102435513D01*
X129602357Y-102435513D01*
X129602357Y-102624486D01*
X129631916Y-102811118D01*
X129690311Y-102990836D01*
X129746991Y-103102075D01*
X129776097Y-103159199D01*
X129887167Y-103312073D01*
X130020784Y-103445690D01*
X130173658Y-103556760D01*
X130203922Y-103572180D01*
X130342020Y-103642545D01*
X130342022Y-103642545D01*
X130342025Y-103642547D01*
X130438354Y-103673846D01*
X130521738Y-103700940D01*
X130708371Y-103730500D01*
X130708376Y-103730500D01*
X130897343Y-103730500D01*
X131083975Y-103700940D01*
X131114610Y-103690986D01*
X131263689Y-103642547D01*
X131432056Y-103556760D01*
X131584930Y-103445690D01*
X131718547Y-103312073D01*
X131829617Y-103159199D01*
X131915404Y-102990832D01*
X131973797Y-102811118D01*
X131979062Y-102777876D01*
X132003357Y-102624486D01*
X132003357Y-102435513D01*
X132765214Y-102435513D01*
X132765214Y-102624486D01*
X132794773Y-102811118D01*
X132853168Y-102990836D01*
X132909848Y-103102075D01*
X132938954Y-103159199D01*
X133050024Y-103312073D01*
X133183641Y-103445690D01*
X133336515Y-103556760D01*
X133366779Y-103572180D01*
X133504877Y-103642545D01*
X133504879Y-103642545D01*
X133504882Y-103642547D01*
X133601211Y-103673846D01*
X133684595Y-103700940D01*
X133871228Y-103730500D01*
X133871233Y-103730500D01*
X134060200Y-103730500D01*
X134246832Y-103700940D01*
X134277467Y-103690986D01*
X134426546Y-103642547D01*
X134594913Y-103556760D01*
X134747787Y-103445690D01*
X134881404Y-103312073D01*
X134992474Y-103159199D01*
X135078261Y-102990832D01*
X135136654Y-102811118D01*
X135141919Y-102777876D01*
X135166214Y-102624486D01*
X135166214Y-102435513D01*
X135928071Y-102435513D01*
X135928071Y-102624486D01*
X135957630Y-102811118D01*
X136016025Y-102990836D01*
X136072705Y-103102075D01*
X136101811Y-103159199D01*
X136212881Y-103312073D01*
X136346498Y-103445690D01*
X136499372Y-103556760D01*
X136529636Y-103572180D01*
X136667734Y-103642545D01*
X136667736Y-103642545D01*
X136667739Y-103642547D01*
X136764068Y-103673846D01*
X136847452Y-103700940D01*
X137034085Y-103730500D01*
X137034090Y-103730500D01*
X137223057Y-103730500D01*
X137409689Y-103700940D01*
X137440324Y-103690986D01*
X137589403Y-103642547D01*
X137757770Y-103556760D01*
X137910644Y-103445690D01*
X138044261Y-103312073D01*
X138155331Y-103159199D01*
X138241118Y-102990832D01*
X138299511Y-102811118D01*
X138304776Y-102777876D01*
X138329071Y-102624486D01*
X138329071Y-102435513D01*
X139090929Y-102435513D01*
X139090929Y-102624486D01*
X139120488Y-102811118D01*
X139178883Y-102990836D01*
X139235563Y-103102075D01*
X139264669Y-103159199D01*
X139375739Y-103312073D01*
X139509356Y-103445690D01*
X139662230Y-103556760D01*
X139692494Y-103572180D01*
X139830592Y-103642545D01*
X139830594Y-103642545D01*
X139830597Y-103642547D01*
X139926926Y-103673846D01*
X140010310Y-103700940D01*
X140196943Y-103730500D01*
X140196948Y-103730500D01*
X140385915Y-103730500D01*
X140572547Y-103700940D01*
X140603182Y-103690986D01*
X140752261Y-103642547D01*
X140920628Y-103556760D01*
X141073502Y-103445690D01*
X141207119Y-103312073D01*
X141318189Y-103159199D01*
X141403976Y-102990832D01*
X141462369Y-102811118D01*
X141467634Y-102777876D01*
X141491929Y-102624486D01*
X141491929Y-102435513D01*
X142253786Y-102435513D01*
X142253786Y-102624486D01*
X142283345Y-102811118D01*
X142341740Y-102990836D01*
X142398420Y-103102075D01*
X142427526Y-103159199D01*
X142538596Y-103312073D01*
X142672213Y-103445690D01*
X142825087Y-103556760D01*
X142855351Y-103572180D01*
X142993449Y-103642545D01*
X142993451Y-103642545D01*
X142993454Y-103642547D01*
X143089783Y-103673846D01*
X143173167Y-103700940D01*
X143359800Y-103730500D01*
X143359805Y-103730500D01*
X143548772Y-103730500D01*
X143735404Y-103700940D01*
X143766039Y-103690986D01*
X143915118Y-103642547D01*
X144083485Y-103556760D01*
X144236359Y-103445690D01*
X144369976Y-103312073D01*
X144481046Y-103159199D01*
X144566833Y-102990832D01*
X144625226Y-102811118D01*
X144630491Y-102777876D01*
X144654786Y-102624486D01*
X144654786Y-102435513D01*
X145416643Y-102435513D01*
X145416643Y-102624486D01*
X145446202Y-102811118D01*
X145504597Y-102990836D01*
X145561277Y-103102075D01*
X145590383Y-103159199D01*
X145701453Y-103312073D01*
X145835070Y-103445690D01*
X145965529Y-103540474D01*
X145968868Y-103544804D01*
X145973846Y-103547078D01*
X145989978Y-103572180D01*
X146008194Y-103595803D01*
X146009446Y-103602474D01*
X146011620Y-103605856D01*
X146016643Y-103640791D01*
X146016643Y-103740473D01*
X146016642Y-103740491D01*
X146016642Y-103906197D01*
X146016641Y-103906197D01*
X146057566Y-104058928D01*
X146086501Y-104109043D01*
X146086502Y-104109047D01*
X146086503Y-104109047D01*
X146136622Y-104195857D01*
X146136624Y-104195860D01*
X146255492Y-104314728D01*
X146255497Y-104314732D01*
X147661284Y-105720520D01*
X147661286Y-105720521D01*
X147661290Y-105720524D01*
X147710916Y-105749175D01*
X147798216Y-105799577D01*
X147950943Y-105840501D01*
X147950945Y-105840501D01*
X148116654Y-105840501D01*
X148116670Y-105840500D01*
X169397576Y-105840500D01*
X169464615Y-105860185D01*
X169485257Y-105876819D01*
X173514234Y-109905796D01*
X173547719Y-109967119D01*
X173544484Y-110031794D01*
X173521658Y-110102045D01*
X173487173Y-110319778D01*
X173487173Y-110540221D01*
X173521658Y-110757952D01*
X173589776Y-110967603D01*
X173589777Y-110967606D01*
X173689860Y-111164025D01*
X173819425Y-111342358D01*
X173819429Y-111342363D01*
X173869989Y-111392923D01*
X173903474Y-111454246D01*
X173898490Y-111523938D01*
X173856618Y-111579871D01*
X173825642Y-111596785D01*
X173745591Y-111626643D01*
X173745579Y-111626649D01*
X173630485Y-111712809D01*
X173630482Y-111712812D01*
X173544322Y-111827906D01*
X173544318Y-111827913D01*
X173494076Y-111962620D01*
X173494074Y-111962627D01*
X173487673Y-112022155D01*
X173487673Y-112720000D01*
X174512395Y-112720000D01*
X174468340Y-112796306D01*
X174437673Y-112910756D01*
X174437673Y-113029244D01*
X174468340Y-113143694D01*
X174512395Y-113220000D01*
X173487673Y-113220000D01*
X173487673Y-113917844D01*
X173494074Y-113977372D01*
X173494076Y-113977379D01*
X173544318Y-114112086D01*
X173544322Y-114112093D01*
X173630482Y-114227187D01*
X173630485Y-114227190D01*
X173745579Y-114313350D01*
X173745586Y-114313354D01*
X173880293Y-114363596D01*
X173880300Y-114363598D01*
X173939828Y-114369999D01*
X173939845Y-114370000D01*
X174637673Y-114370000D01*
X174637673Y-113345277D01*
X174713979Y-113389333D01*
X174828429Y-113420000D01*
X174946917Y-113420000D01*
X175061367Y-113389333D01*
X175137673Y-113345277D01*
X175137673Y-114370000D01*
X175835501Y-114370000D01*
X175835517Y-114369999D01*
X175895045Y-114363598D01*
X175895052Y-114363596D01*
X176029759Y-114313354D01*
X176029766Y-114313350D01*
X176144860Y-114227190D01*
X176144863Y-114227187D01*
X176231023Y-114112093D01*
X176231027Y-114112086D01*
X176281269Y-113977379D01*
X176281271Y-113977372D01*
X176287672Y-113917844D01*
X176287673Y-113917827D01*
X176287673Y-113220000D01*
X175262951Y-113220000D01*
X175307006Y-113143694D01*
X175337673Y-113029244D01*
X175337673Y-112910756D01*
X175307006Y-112796306D01*
X175262951Y-112720000D01*
X176287673Y-112720000D01*
X176287673Y-112022172D01*
X176287672Y-112022155D01*
X176281271Y-111962627D01*
X176281269Y-111962620D01*
X176231027Y-111827913D01*
X176231023Y-111827906D01*
X176144863Y-111712812D01*
X176144860Y-111712809D01*
X176029766Y-111626649D01*
X176029760Y-111626646D01*
X175949703Y-111596786D01*
X175893770Y-111554914D01*
X175869353Y-111489450D01*
X175884205Y-111421177D01*
X175905354Y-111392925D01*
X175955915Y-111342365D01*
X176085488Y-111164022D01*
X176185568Y-110967606D01*
X176253688Y-110757951D01*
X176288173Y-110540222D01*
X176288173Y-110319778D01*
X176253688Y-110102049D01*
X176207381Y-109959527D01*
X176185569Y-109892396D01*
X176185568Y-109892393D01*
X176150910Y-109824375D01*
X176085488Y-109695978D01*
X175964078Y-109528870D01*
X175955920Y-109517641D01*
X175955916Y-109517636D01*
X175800036Y-109361756D01*
X175800031Y-109361752D01*
X175621698Y-109232187D01*
X175621697Y-109232186D01*
X175621695Y-109232185D01*
X175558769Y-109200122D01*
X175425279Y-109132104D01*
X175425276Y-109132103D01*
X175215625Y-109063985D01*
X175106759Y-109046742D01*
X174997895Y-109029500D01*
X174777451Y-109029500D01*
X174733905Y-109036397D01*
X174559718Y-109063985D01*
X174489467Y-109086811D01*
X174419626Y-109088806D01*
X174363469Y-109056561D01*
X170185263Y-104878355D01*
X170185261Y-104878352D01*
X170066390Y-104759481D01*
X170066389Y-104759480D01*
X169979577Y-104709360D01*
X169979577Y-104709359D01*
X169979573Y-104709358D01*
X169929458Y-104680423D01*
X169776730Y-104639499D01*
X169618616Y-104639499D01*
X169611020Y-104639499D01*
X169611004Y-104639500D01*
X148330098Y-104639500D01*
X148263059Y-104619815D01*
X148242417Y-104603181D01*
X147319843Y-103680607D01*
X147286358Y-103619284D01*
X147291342Y-103549592D01*
X147333214Y-103493659D01*
X147334639Y-103492608D01*
X147399216Y-103445690D01*
X147532833Y-103312073D01*
X147643903Y-103159199D01*
X147729690Y-102990832D01*
X147788083Y-102811118D01*
X147793348Y-102777876D01*
X147817643Y-102624486D01*
X147817643Y-102435513D01*
X148579500Y-102435513D01*
X148579500Y-102624486D01*
X148609059Y-102811118D01*
X148667454Y-102990836D01*
X148724134Y-103102075D01*
X148753240Y-103159199D01*
X148864310Y-103312073D01*
X148997927Y-103445690D01*
X149150801Y-103556760D01*
X149181065Y-103572180D01*
X149319163Y-103642545D01*
X149319165Y-103642545D01*
X149319168Y-103642547D01*
X149415497Y-103673846D01*
X149498881Y-103700940D01*
X149685514Y-103730500D01*
X149685519Y-103730500D01*
X149874486Y-103730500D01*
X149991017Y-103712042D01*
X150033753Y-103705274D01*
X150103045Y-103714228D01*
X150140831Y-103740066D01*
X150181284Y-103780519D01*
X150318215Y-103859576D01*
X150470942Y-103900500D01*
X150470944Y-103900500D01*
X150629055Y-103900500D01*
X150629057Y-103900500D01*
X150781784Y-103859576D01*
X150918716Y-103780519D01*
X151030519Y-103668716D01*
X151109576Y-103531784D01*
X151150500Y-103379057D01*
X151150500Y-103220942D01*
X151109576Y-103068215D01*
X151030519Y-102931284D01*
X150990066Y-102890831D01*
X150956581Y-102829508D01*
X150955274Y-102783752D01*
X150956206Y-102777872D01*
X150962042Y-102741017D01*
X150980500Y-102624486D01*
X150980500Y-102454500D01*
X151000185Y-102387461D01*
X151052989Y-102341706D01*
X151104500Y-102330500D01*
X174589903Y-102330500D01*
X174656942Y-102350185D01*
X174677583Y-102366818D01*
X181651284Y-109340520D01*
X181665274Y-109348597D01*
X181713490Y-109399162D01*
X181726715Y-109467769D01*
X181703594Y-109528870D01*
X181582185Y-109695976D01*
X181516260Y-109825358D01*
X181468285Y-109876154D01*
X181467776Y-109876449D01*
X181341287Y-109949477D01*
X181341282Y-109949481D01*
X181229481Y-110061282D01*
X181229475Y-110061290D01*
X181150426Y-110198209D01*
X181150423Y-110198216D01*
X181109500Y-110350943D01*
X181109500Y-110509057D01*
X181117851Y-110540221D01*
X181150423Y-110661783D01*
X181150426Y-110661790D01*
X181229475Y-110798709D01*
X181229479Y-110798714D01*
X181229480Y-110798716D01*
X181341284Y-110910520D01*
X181467776Y-110983550D01*
X181515991Y-111034115D01*
X181516260Y-111034640D01*
X181582185Y-111164023D01*
X181711752Y-111342358D01*
X181711756Y-111342363D01*
X181762316Y-111392923D01*
X181795801Y-111454246D01*
X181790817Y-111523938D01*
X181748945Y-111579871D01*
X181717969Y-111596785D01*
X181637918Y-111626643D01*
X181637906Y-111626649D01*
X181522812Y-111712809D01*
X181522809Y-111712812D01*
X181436649Y-111827906D01*
X181436645Y-111827913D01*
X181386403Y-111962620D01*
X181386401Y-111962627D01*
X181380000Y-112022155D01*
X181380000Y-112720000D01*
X182404722Y-112720000D01*
X182360667Y-112796306D01*
X182330000Y-112910756D01*
X182330000Y-113029244D01*
X182360667Y-113143694D01*
X182404722Y-113220000D01*
X181380000Y-113220000D01*
X181380000Y-113917844D01*
X181386401Y-113977372D01*
X181386403Y-113977379D01*
X181436645Y-114112086D01*
X181436649Y-114112093D01*
X181522809Y-114227187D01*
X181522812Y-114227190D01*
X181637906Y-114313350D01*
X181637913Y-114313354D01*
X181772620Y-114363596D01*
X181772627Y-114363598D01*
X181832155Y-114369999D01*
X181832172Y-114370000D01*
X182530000Y-114370000D01*
X182530000Y-113345277D01*
X182606306Y-113389333D01*
X182720756Y-113420000D01*
X182839244Y-113420000D01*
X182953694Y-113389333D01*
X183030000Y-113345277D01*
X183030000Y-114370000D01*
X183727828Y-114370000D01*
X183727844Y-114369999D01*
X183787372Y-114363598D01*
X183787379Y-114363596D01*
X183922086Y-114313354D01*
X183922093Y-114313350D01*
X184037187Y-114227190D01*
X184037190Y-114227187D01*
X184123350Y-114112093D01*
X184123354Y-114112086D01*
X184173596Y-113977379D01*
X184173598Y-113977372D01*
X184179999Y-113917844D01*
X184180000Y-113917827D01*
X184180000Y-113220000D01*
X183155278Y-113220000D01*
X183199333Y-113143694D01*
X183230000Y-113029244D01*
X183230000Y-112910756D01*
X183199333Y-112796306D01*
X183155278Y-112720000D01*
X184180000Y-112720000D01*
X184180000Y-112022172D01*
X184179999Y-112022155D01*
X184173598Y-111962627D01*
X184173596Y-111962620D01*
X184123354Y-111827913D01*
X184123350Y-111827906D01*
X184037190Y-111712812D01*
X184037187Y-111712809D01*
X183922093Y-111626649D01*
X183922087Y-111626646D01*
X183842030Y-111596786D01*
X183786097Y-111554914D01*
X183761680Y-111489450D01*
X183776532Y-111421177D01*
X183797681Y-111392925D01*
X183848242Y-111342365D01*
X183977815Y-111164022D01*
X184077895Y-110967606D01*
X184146015Y-110757951D01*
X184180500Y-110540222D01*
X184180500Y-110319778D01*
X184146015Y-110102049D01*
X184099708Y-109959527D01*
X184077896Y-109892396D01*
X184077895Y-109892393D01*
X184043237Y-109824375D01*
X183977815Y-109695978D01*
X183856405Y-109528870D01*
X183848247Y-109517641D01*
X183848243Y-109517636D01*
X183692363Y-109361756D01*
X183692358Y-109361752D01*
X183514025Y-109232187D01*
X183514024Y-109232186D01*
X183514022Y-109232185D01*
X183451096Y-109200122D01*
X183317606Y-109132104D01*
X183317603Y-109132103D01*
X183107952Y-109063985D01*
X182999086Y-109046742D01*
X182890222Y-109029500D01*
X182744501Y-109029500D01*
X182677462Y-109009815D01*
X182631707Y-108957011D01*
X182620501Y-108905500D01*
X182620501Y-108780944D01*
X182579576Y-108628214D01*
X182579573Y-108628209D01*
X182500524Y-108491290D01*
X182500518Y-108491282D01*
X178878141Y-104868905D01*
X185970000Y-104868905D01*
X185970000Y-105131094D01*
X186004220Y-105391009D01*
X186004222Y-105391020D01*
X186072075Y-105644255D01*
X186172404Y-105886471D01*
X186172409Y-105886482D01*
X186303488Y-106113516D01*
X186303494Y-106113524D01*
X186390080Y-106226365D01*
X186997912Y-105618532D01*
X187092829Y-105749175D01*
X187220825Y-105877171D01*
X187351465Y-105972086D01*
X186743633Y-106579917D01*
X186743633Y-106579918D01*
X186856475Y-106666505D01*
X186856483Y-106666511D01*
X187083517Y-106797590D01*
X187083528Y-106797595D01*
X187325744Y-106897924D01*
X187578979Y-106965777D01*
X187578990Y-106965779D01*
X187838905Y-106999999D01*
X187838920Y-107000000D01*
X188101080Y-107000000D01*
X188101094Y-106999999D01*
X188361009Y-106965779D01*
X188361020Y-106965777D01*
X188614255Y-106897924D01*
X188856471Y-106797595D01*
X188856482Y-106797590D01*
X189083516Y-106666511D01*
X189083534Y-106666499D01*
X189196365Y-106579919D01*
X189196365Y-106579917D01*
X188588534Y-105972086D01*
X188719175Y-105877171D01*
X188847171Y-105749175D01*
X188942086Y-105618534D01*
X189549917Y-106226365D01*
X189549919Y-106226365D01*
X189636499Y-106113534D01*
X189636511Y-106113516D01*
X189767590Y-105886482D01*
X189767595Y-105886471D01*
X189867924Y-105644255D01*
X189935777Y-105391020D01*
X189935779Y-105391009D01*
X189969999Y-105131094D01*
X189970000Y-105131080D01*
X189970000Y-104868919D01*
X189969999Y-104868905D01*
X189935779Y-104608990D01*
X189935777Y-104608979D01*
X189867924Y-104355744D01*
X189767595Y-104113528D01*
X189767590Y-104113517D01*
X189636511Y-103886483D01*
X189636505Y-103886475D01*
X189549918Y-103773633D01*
X189549917Y-103773633D01*
X188942085Y-104381465D01*
X188847171Y-104250825D01*
X188719175Y-104122829D01*
X188588532Y-104027912D01*
X189196365Y-103420080D01*
X189083524Y-103333494D01*
X189083516Y-103333488D01*
X188856482Y-103202409D01*
X188856471Y-103202404D01*
X188614255Y-103102075D01*
X188361020Y-103034222D01*
X188361009Y-103034220D01*
X188101094Y-103000000D01*
X187838905Y-103000000D01*
X187578990Y-103034220D01*
X187578979Y-103034222D01*
X187325744Y-103102075D01*
X187083528Y-103202404D01*
X187083517Y-103202409D01*
X186856471Y-103333496D01*
X186743633Y-103420079D01*
X186743633Y-103420080D01*
X187351466Y-104027913D01*
X187220825Y-104122829D01*
X187092829Y-104250825D01*
X186997913Y-104381466D01*
X186390080Y-103773633D01*
X186390079Y-103773633D01*
X186303496Y-103886471D01*
X186172409Y-104113517D01*
X186172404Y-104113528D01*
X186072075Y-104355744D01*
X186004222Y-104608979D01*
X186004220Y-104608990D01*
X185970000Y-104868905D01*
X178878141Y-104868905D01*
X177564950Y-103555714D01*
X175377590Y-101368355D01*
X175377588Y-101368352D01*
X175258717Y-101249481D01*
X175258716Y-101249480D01*
X175171904Y-101199360D01*
X175171904Y-101199359D01*
X175171900Y-101199358D01*
X175121785Y-101170423D01*
X174969057Y-101129499D01*
X174810943Y-101129499D01*
X174803347Y-101129499D01*
X174803331Y-101129500D01*
X159285206Y-101129500D01*
X159218167Y-101109815D01*
X159172412Y-101057011D01*
X159162468Y-100987853D01*
X159167275Y-100967182D01*
X159193110Y-100887669D01*
X159206015Y-100847951D01*
X159240500Y-100630222D01*
X159240500Y-100409778D01*
X159206015Y-100192049D01*
X159137895Y-99982394D01*
X159137895Y-99982393D01*
X159103237Y-99914375D01*
X159037815Y-99785978D01*
X159000439Y-99734534D01*
X158908247Y-99607641D01*
X158908243Y-99607636D01*
X158857683Y-99557076D01*
X158824198Y-99495753D01*
X158829182Y-99426061D01*
X158871054Y-99370128D01*
X158902031Y-99353213D01*
X158982086Y-99323354D01*
X158982093Y-99323350D01*
X159097187Y-99237190D01*
X159097190Y-99237187D01*
X159183350Y-99122093D01*
X159183354Y-99122086D01*
X159233596Y-98987379D01*
X159233598Y-98987372D01*
X159239999Y-98927844D01*
X159240000Y-98927827D01*
X159240000Y-98230000D01*
X158215278Y-98230000D01*
X158259333Y-98153694D01*
X158290000Y-98039244D01*
X158290000Y-97920756D01*
X158259333Y-97806306D01*
X158215278Y-97730000D01*
X159240000Y-97730000D01*
X159240000Y-97032172D01*
X159239999Y-97032155D01*
X159233598Y-96972627D01*
X159233596Y-96972620D01*
X159183354Y-96837913D01*
X159183350Y-96837906D01*
X159097190Y-96722812D01*
X159097187Y-96722809D01*
X158982093Y-96636649D01*
X158982086Y-96636645D01*
X158847379Y-96586403D01*
X158847372Y-96586401D01*
X158787844Y-96580000D01*
X158090000Y-96580000D01*
X158090000Y-97604722D01*
X158013694Y-97560667D01*
X157899244Y-97530000D01*
X157780756Y-97530000D01*
X157666306Y-97560667D01*
X157590000Y-97604722D01*
X157590000Y-96580000D01*
X156892155Y-96580000D01*
X156832627Y-96586401D01*
X156832620Y-96586403D01*
X156697913Y-96636645D01*
X156697906Y-96636649D01*
X156582812Y-96722809D01*
X156582809Y-96722812D01*
X156496649Y-96837906D01*
X156496645Y-96837913D01*
X156446403Y-96972620D01*
X156446401Y-96972627D01*
X156440000Y-97032155D01*
X156440000Y-97730000D01*
X157464722Y-97730000D01*
X157420667Y-97806306D01*
X157390000Y-97920756D01*
X157390000Y-98039244D01*
X157420667Y-98153694D01*
X157464722Y-98230000D01*
X156440000Y-98230000D01*
X156440000Y-98927844D01*
X156446401Y-98987372D01*
X156446403Y-98987379D01*
X156496645Y-99122086D01*
X156496649Y-99122093D01*
X156582809Y-99237187D01*
X156582812Y-99237190D01*
X156697906Y-99323350D01*
X156697913Y-99323354D01*
X156777968Y-99353213D01*
X156833902Y-99395084D01*
X156858319Y-99460549D01*
X156843467Y-99528822D01*
X156822317Y-99557075D01*
X156771756Y-99607636D01*
X156771752Y-99607641D01*
X156642187Y-99785974D01*
X156542104Y-99982393D01*
X156542103Y-99982396D01*
X156473985Y-100192047D01*
X156439500Y-100409778D01*
X156439500Y-100630221D01*
X156473985Y-100847952D01*
X156512725Y-100967182D01*
X156514720Y-101037023D01*
X156478640Y-101096856D01*
X156415939Y-101127684D01*
X156394794Y-101129500D01*
X150780943Y-101129500D01*
X150628216Y-101170423D01*
X150628209Y-101170426D01*
X150491290Y-101249475D01*
X150491282Y-101249481D01*
X150379481Y-101361282D01*
X150374530Y-101367735D01*
X150373073Y-101366617D01*
X150329895Y-101407777D01*
X150261287Y-101420990D01*
X150234772Y-101415484D01*
X150061118Y-101359059D01*
X149874486Y-101329500D01*
X149874481Y-101329500D01*
X149685519Y-101329500D01*
X149685514Y-101329500D01*
X149498881Y-101359059D01*
X149319163Y-101417454D01*
X149150800Y-101503240D01*
X149063579Y-101566610D01*
X148997927Y-101614310D01*
X148997925Y-101614312D01*
X148997924Y-101614312D01*
X148864312Y-101747924D01*
X148864312Y-101747925D01*
X148864310Y-101747927D01*
X148816610Y-101813579D01*
X148753240Y-101900800D01*
X148667454Y-102069163D01*
X148609059Y-102248881D01*
X148579500Y-102435513D01*
X147817643Y-102435513D01*
X147788083Y-102248881D01*
X147729688Y-102069163D01*
X147643902Y-101900800D01*
X147532833Y-101747927D01*
X147399216Y-101614310D01*
X147246342Y-101503240D01*
X147077979Y-101417454D01*
X146898261Y-101359059D01*
X146711629Y-101329500D01*
X146711624Y-101329500D01*
X146522662Y-101329500D01*
X146522657Y-101329500D01*
X146336024Y-101359059D01*
X146156306Y-101417454D01*
X145987943Y-101503240D01*
X145900722Y-101566610D01*
X145835070Y-101614310D01*
X145835068Y-101614312D01*
X145835067Y-101614312D01*
X145701455Y-101747924D01*
X145701455Y-101747925D01*
X145701453Y-101747927D01*
X145653753Y-101813579D01*
X145590383Y-101900800D01*
X145504597Y-102069163D01*
X145446202Y-102248881D01*
X145416643Y-102435513D01*
X144654786Y-102435513D01*
X144625226Y-102248881D01*
X144566831Y-102069163D01*
X144481045Y-101900800D01*
X144369976Y-101747927D01*
X144236359Y-101614310D01*
X144083485Y-101503240D01*
X143915122Y-101417454D01*
X143735404Y-101359059D01*
X143548772Y-101329500D01*
X143548767Y-101329500D01*
X143359805Y-101329500D01*
X143359800Y-101329500D01*
X143173167Y-101359059D01*
X142993449Y-101417454D01*
X142825086Y-101503240D01*
X142737865Y-101566610D01*
X142672213Y-101614310D01*
X142672211Y-101614312D01*
X142672210Y-101614312D01*
X142538598Y-101747924D01*
X142538598Y-101747925D01*
X142538596Y-101747927D01*
X142490896Y-101813579D01*
X142427526Y-101900800D01*
X142341740Y-102069163D01*
X142283345Y-102248881D01*
X142253786Y-102435513D01*
X141491929Y-102435513D01*
X141462369Y-102248881D01*
X141403974Y-102069163D01*
X141318188Y-101900800D01*
X141207119Y-101747927D01*
X141073502Y-101614310D01*
X140920628Y-101503240D01*
X140752265Y-101417454D01*
X140572547Y-101359059D01*
X140385915Y-101329500D01*
X140385910Y-101329500D01*
X140196948Y-101329500D01*
X140196943Y-101329500D01*
X140010310Y-101359059D01*
X139830592Y-101417454D01*
X139662229Y-101503240D01*
X139575008Y-101566610D01*
X139509356Y-101614310D01*
X139509354Y-101614312D01*
X139509353Y-101614312D01*
X139375741Y-101747924D01*
X139375741Y-101747925D01*
X139375739Y-101747927D01*
X139328039Y-101813579D01*
X139264669Y-101900800D01*
X139178883Y-102069163D01*
X139120488Y-102248881D01*
X139090929Y-102435513D01*
X138329071Y-102435513D01*
X138299511Y-102248881D01*
X138241116Y-102069163D01*
X138155330Y-101900800D01*
X138044261Y-101747927D01*
X137910644Y-101614310D01*
X137757770Y-101503240D01*
X137589407Y-101417454D01*
X137409689Y-101359059D01*
X137223057Y-101329500D01*
X137223052Y-101329500D01*
X137034090Y-101329500D01*
X137034085Y-101329500D01*
X136847452Y-101359059D01*
X136667734Y-101417454D01*
X136499371Y-101503240D01*
X136412150Y-101566610D01*
X136346498Y-101614310D01*
X136346496Y-101614312D01*
X136346495Y-101614312D01*
X136212883Y-101747924D01*
X136212883Y-101747925D01*
X136212881Y-101747927D01*
X136165181Y-101813579D01*
X136101811Y-101900800D01*
X136016025Y-102069163D01*
X135957630Y-102248881D01*
X135928071Y-102435513D01*
X135166214Y-102435513D01*
X135136654Y-102248881D01*
X135078259Y-102069163D01*
X134992473Y-101900800D01*
X134881404Y-101747927D01*
X134747787Y-101614310D01*
X134594913Y-101503240D01*
X134426550Y-101417454D01*
X134246832Y-101359059D01*
X134060200Y-101329500D01*
X134060195Y-101329500D01*
X133871233Y-101329500D01*
X133871228Y-101329500D01*
X133684595Y-101359059D01*
X133504877Y-101417454D01*
X133336514Y-101503240D01*
X133249293Y-101566610D01*
X133183641Y-101614310D01*
X133183639Y-101614312D01*
X133183638Y-101614312D01*
X133050026Y-101747924D01*
X133050026Y-101747925D01*
X133050024Y-101747927D01*
X133002324Y-101813579D01*
X132938954Y-101900800D01*
X132853168Y-102069163D01*
X132794773Y-102248881D01*
X132765214Y-102435513D01*
X132003357Y-102435513D01*
X131973797Y-102248881D01*
X131915402Y-102069163D01*
X131829616Y-101900800D01*
X131718547Y-101747927D01*
X131584930Y-101614310D01*
X131432056Y-101503240D01*
X131263693Y-101417454D01*
X131083975Y-101359059D01*
X130897343Y-101329500D01*
X130897338Y-101329500D01*
X130708376Y-101329500D01*
X130708371Y-101329500D01*
X130521738Y-101359059D01*
X130342020Y-101417454D01*
X130173657Y-101503240D01*
X130086436Y-101566610D01*
X130020784Y-101614310D01*
X130020782Y-101614312D01*
X130020781Y-101614312D01*
X129887169Y-101747924D01*
X129887169Y-101747925D01*
X129887167Y-101747927D01*
X129839467Y-101813579D01*
X129776097Y-101900800D01*
X129690311Y-102069163D01*
X129631916Y-102248881D01*
X129602357Y-102435513D01*
X128840500Y-102435513D01*
X128810940Y-102248881D01*
X128752545Y-102069163D01*
X128666759Y-101900800D01*
X128555690Y-101747927D01*
X128422073Y-101614310D01*
X128269199Y-101503240D01*
X128100836Y-101417454D01*
X127921118Y-101359059D01*
X127734486Y-101329500D01*
X127734481Y-101329500D01*
X127545519Y-101329500D01*
X127545514Y-101329500D01*
X127358881Y-101359059D01*
X127179163Y-101417454D01*
X127010800Y-101503240D01*
X126923579Y-101566610D01*
X126857927Y-101614310D01*
X126857925Y-101614312D01*
X126857924Y-101614312D01*
X126724312Y-101747924D01*
X126724312Y-101747925D01*
X126724310Y-101747927D01*
X126676610Y-101813579D01*
X126613240Y-101900800D01*
X126527454Y-102069163D01*
X126469059Y-102248881D01*
X126439500Y-102435513D01*
X123000500Y-102435513D01*
X123000500Y-97355513D01*
X126439500Y-97355513D01*
X126439500Y-97544486D01*
X126469059Y-97731118D01*
X126527454Y-97910836D01*
X126580441Y-98014828D01*
X126613240Y-98079199D01*
X126724310Y-98232073D01*
X126857927Y-98365690D01*
X127010801Y-98476760D01*
X127090347Y-98517290D01*
X127179163Y-98562545D01*
X127179165Y-98562545D01*
X127179168Y-98562547D01*
X127241445Y-98582782D01*
X127358881Y-98620940D01*
X127545514Y-98650500D01*
X127545519Y-98650500D01*
X127734486Y-98650500D01*
X127921118Y-98620940D01*
X128100832Y-98562547D01*
X128269199Y-98476760D01*
X128422073Y-98365690D01*
X128555690Y-98232073D01*
X128666760Y-98079199D01*
X128752547Y-97910832D01*
X128810940Y-97731118D01*
X128811117Y-97730000D01*
X128840500Y-97544486D01*
X128840500Y-97355513D01*
X129602357Y-97355513D01*
X129602357Y-97544486D01*
X129631916Y-97731118D01*
X129690311Y-97910836D01*
X129743298Y-98014828D01*
X129776097Y-98079199D01*
X129887167Y-98232073D01*
X130020784Y-98365690D01*
X130173658Y-98476760D01*
X130253204Y-98517290D01*
X130342020Y-98562545D01*
X130342022Y-98562545D01*
X130342025Y-98562547D01*
X130404302Y-98582782D01*
X130521738Y-98620940D01*
X130708371Y-98650500D01*
X130708376Y-98650500D01*
X130897343Y-98650500D01*
X131083975Y-98620940D01*
X131263689Y-98562547D01*
X131432056Y-98476760D01*
X131584930Y-98365690D01*
X131718547Y-98232073D01*
X131829617Y-98079199D01*
X131915404Y-97910832D01*
X131973797Y-97731118D01*
X131973974Y-97730000D01*
X132003357Y-97544486D01*
X132003357Y-97355513D01*
X132765214Y-97355513D01*
X132765214Y-97544486D01*
X132794773Y-97731118D01*
X132853168Y-97910836D01*
X132906155Y-98014828D01*
X132938954Y-98079199D01*
X133050024Y-98232073D01*
X133183641Y-98365690D01*
X133336515Y-98476760D01*
X133416061Y-98517290D01*
X133504877Y-98562545D01*
X133504879Y-98562545D01*
X133504882Y-98562547D01*
X133567159Y-98582782D01*
X133684595Y-98620940D01*
X133871228Y-98650500D01*
X133871233Y-98650500D01*
X134060200Y-98650500D01*
X134246832Y-98620940D01*
X134426546Y-98562547D01*
X134594913Y-98476760D01*
X134747787Y-98365690D01*
X134881404Y-98232073D01*
X134992474Y-98079199D01*
X135078261Y-97910832D01*
X135136654Y-97731118D01*
X135136831Y-97730000D01*
X135166214Y-97544486D01*
X135166214Y-97355513D01*
X135928071Y-97355513D01*
X135928071Y-97544486D01*
X135957630Y-97731118D01*
X136016025Y-97910836D01*
X136069012Y-98014828D01*
X136101811Y-98079199D01*
X136212881Y-98232073D01*
X136346498Y-98365690D01*
X136499372Y-98476760D01*
X136578918Y-98517290D01*
X136667734Y-98562545D01*
X136667736Y-98562545D01*
X136667739Y-98562547D01*
X136730016Y-98582782D01*
X136847452Y-98620940D01*
X137034085Y-98650500D01*
X137034090Y-98650500D01*
X137223057Y-98650500D01*
X137409689Y-98620940D01*
X137589403Y-98562547D01*
X137757770Y-98476760D01*
X137910644Y-98365690D01*
X138044261Y-98232073D01*
X138155331Y-98079199D01*
X138241118Y-97910832D01*
X138299511Y-97731118D01*
X138299688Y-97730000D01*
X138329071Y-97544486D01*
X138329071Y-97355513D01*
X139090929Y-97355513D01*
X139090929Y-97544486D01*
X139120488Y-97731118D01*
X139178883Y-97910836D01*
X139231870Y-98014828D01*
X139264669Y-98079199D01*
X139375739Y-98232073D01*
X139509356Y-98365690D01*
X139662230Y-98476760D01*
X139741776Y-98517290D01*
X139830592Y-98562545D01*
X139830594Y-98562545D01*
X139830597Y-98562547D01*
X139892874Y-98582782D01*
X140010310Y-98620940D01*
X140196943Y-98650500D01*
X140196948Y-98650500D01*
X140385915Y-98650500D01*
X140572547Y-98620940D01*
X140752261Y-98562547D01*
X140920628Y-98476760D01*
X141073502Y-98365690D01*
X141207119Y-98232073D01*
X141318189Y-98079199D01*
X141403976Y-97910832D01*
X141462369Y-97731118D01*
X141462546Y-97730000D01*
X141491929Y-97544486D01*
X141491929Y-97355513D01*
X142253786Y-97355513D01*
X142253786Y-97544486D01*
X142283345Y-97731118D01*
X142341740Y-97910836D01*
X142394727Y-98014828D01*
X142427526Y-98079199D01*
X142538596Y-98232073D01*
X142672213Y-98365690D01*
X142825087Y-98476760D01*
X142904633Y-98517290D01*
X142993449Y-98562545D01*
X142993451Y-98562545D01*
X142993454Y-98562547D01*
X143055731Y-98582782D01*
X143173167Y-98620940D01*
X143359800Y-98650500D01*
X143359805Y-98650500D01*
X143548772Y-98650500D01*
X143735404Y-98620940D01*
X143915118Y-98562547D01*
X144083485Y-98476760D01*
X144236359Y-98365690D01*
X144369976Y-98232073D01*
X144481046Y-98079199D01*
X144566833Y-97910832D01*
X144625226Y-97731118D01*
X144625403Y-97730000D01*
X144654786Y-97544486D01*
X144654786Y-97355513D01*
X145416643Y-97355513D01*
X145416643Y-97544486D01*
X145446202Y-97731118D01*
X145504597Y-97910836D01*
X145557584Y-98014828D01*
X145590383Y-98079199D01*
X145701453Y-98232073D01*
X145835070Y-98365690D01*
X145987944Y-98476760D01*
X146067490Y-98517290D01*
X146156306Y-98562545D01*
X146156308Y-98562545D01*
X146156311Y-98562547D01*
X146218588Y-98582782D01*
X146336024Y-98620940D01*
X146522657Y-98650500D01*
X146522662Y-98650500D01*
X146711629Y-98650500D01*
X146898261Y-98620940D01*
X147077975Y-98562547D01*
X147246342Y-98476760D01*
X147399216Y-98365690D01*
X147532833Y-98232073D01*
X147643903Y-98079199D01*
X147729690Y-97910832D01*
X147788083Y-97731118D01*
X147788260Y-97730000D01*
X147817643Y-97544486D01*
X147817643Y-97355513D01*
X148579500Y-97355513D01*
X148579500Y-97544486D01*
X148609059Y-97731118D01*
X148667454Y-97910836D01*
X148720441Y-98014828D01*
X148753240Y-98079199D01*
X148864310Y-98232073D01*
X148997927Y-98365690D01*
X149150801Y-98476760D01*
X149230347Y-98517290D01*
X149319163Y-98562545D01*
X149319165Y-98562545D01*
X149319168Y-98562547D01*
X149381445Y-98582782D01*
X149498881Y-98620940D01*
X149685514Y-98650500D01*
X149685519Y-98650500D01*
X149874486Y-98650500D01*
X150061118Y-98620940D01*
X150240832Y-98562547D01*
X150409199Y-98476760D01*
X150562073Y-98365690D01*
X150695690Y-98232073D01*
X150806760Y-98079199D01*
X150892547Y-97910832D01*
X150950940Y-97731118D01*
X150951117Y-97730000D01*
X150980500Y-97544486D01*
X150980500Y-97355513D01*
X150950940Y-97168881D01*
X150936833Y-97125465D01*
X150892547Y-96989168D01*
X150806760Y-96820801D01*
X150695690Y-96667927D01*
X150562073Y-96534310D01*
X150409199Y-96423240D01*
X150240836Y-96337454D01*
X150061118Y-96279059D01*
X149874486Y-96249500D01*
X149874481Y-96249500D01*
X149685519Y-96249500D01*
X149685514Y-96249500D01*
X149498881Y-96279059D01*
X149319163Y-96337454D01*
X149150800Y-96423240D01*
X149063579Y-96486610D01*
X148997927Y-96534310D01*
X148997925Y-96534312D01*
X148997924Y-96534312D01*
X148864312Y-96667924D01*
X148864312Y-96667925D01*
X148864310Y-96667927D01*
X148824436Y-96722809D01*
X148753240Y-96820800D01*
X148667454Y-96989163D01*
X148609059Y-97168881D01*
X148579500Y-97355513D01*
X147817643Y-97355513D01*
X147788083Y-97168881D01*
X147760989Y-97085497D01*
X147729690Y-96989168D01*
X147729688Y-96989165D01*
X147729688Y-96989163D01*
X147643902Y-96820800D01*
X147532833Y-96667927D01*
X147399216Y-96534310D01*
X147246342Y-96423240D01*
X147077979Y-96337454D01*
X146898261Y-96279059D01*
X146711629Y-96249500D01*
X146711624Y-96249500D01*
X146522662Y-96249500D01*
X146522657Y-96249500D01*
X146336024Y-96279059D01*
X146156306Y-96337454D01*
X145987943Y-96423240D01*
X145900722Y-96486610D01*
X145835070Y-96534310D01*
X145835068Y-96534312D01*
X145835067Y-96534312D01*
X145701455Y-96667924D01*
X145701455Y-96667925D01*
X145701453Y-96667927D01*
X145661579Y-96722809D01*
X145590383Y-96820800D01*
X145504597Y-96989163D01*
X145446202Y-97168881D01*
X145416643Y-97355513D01*
X144654786Y-97355513D01*
X144625226Y-97168881D01*
X144598132Y-97085497D01*
X144566833Y-96989168D01*
X144566831Y-96989165D01*
X144566831Y-96989163D01*
X144481045Y-96820800D01*
X144369976Y-96667927D01*
X144236359Y-96534310D01*
X144083485Y-96423240D01*
X143915122Y-96337454D01*
X143735404Y-96279059D01*
X143548772Y-96249500D01*
X143548767Y-96249500D01*
X143359805Y-96249500D01*
X143359800Y-96249500D01*
X143173167Y-96279059D01*
X142993449Y-96337454D01*
X142825086Y-96423240D01*
X142737865Y-96486610D01*
X142672213Y-96534310D01*
X142672211Y-96534312D01*
X142672210Y-96534312D01*
X142538598Y-96667924D01*
X142538598Y-96667925D01*
X142538596Y-96667927D01*
X142498722Y-96722809D01*
X142427526Y-96820800D01*
X142341740Y-96989163D01*
X142283345Y-97168881D01*
X142253786Y-97355513D01*
X141491929Y-97355513D01*
X141462369Y-97168881D01*
X141435275Y-97085497D01*
X141403976Y-96989168D01*
X141403974Y-96989165D01*
X141403974Y-96989163D01*
X141318188Y-96820800D01*
X141207119Y-96667927D01*
X141073502Y-96534310D01*
X140920628Y-96423240D01*
X140752265Y-96337454D01*
X140572547Y-96279059D01*
X140385915Y-96249500D01*
X140385910Y-96249500D01*
X140196948Y-96249500D01*
X140196943Y-96249500D01*
X140010310Y-96279059D01*
X139830592Y-96337454D01*
X139662229Y-96423240D01*
X139575008Y-96486610D01*
X139509356Y-96534310D01*
X139509354Y-96534312D01*
X139509353Y-96534312D01*
X139375741Y-96667924D01*
X139375741Y-96667925D01*
X139375739Y-96667927D01*
X139335865Y-96722809D01*
X139264669Y-96820800D01*
X139178883Y-96989163D01*
X139120488Y-97168881D01*
X139090929Y-97355513D01*
X138329071Y-97355513D01*
X138299511Y-97168881D01*
X138272417Y-97085497D01*
X138241118Y-96989168D01*
X138241116Y-96989165D01*
X138241116Y-96989163D01*
X138155330Y-96820800D01*
X138044261Y-96667927D01*
X137910644Y-96534310D01*
X137757770Y-96423240D01*
X137589407Y-96337454D01*
X137409689Y-96279059D01*
X137223057Y-96249500D01*
X137223052Y-96249500D01*
X137034090Y-96249500D01*
X137034085Y-96249500D01*
X136847452Y-96279059D01*
X136667734Y-96337454D01*
X136499371Y-96423240D01*
X136412150Y-96486610D01*
X136346498Y-96534310D01*
X136346496Y-96534312D01*
X136346495Y-96534312D01*
X136212883Y-96667924D01*
X136212883Y-96667925D01*
X136212881Y-96667927D01*
X136173007Y-96722809D01*
X136101811Y-96820800D01*
X136016025Y-96989163D01*
X135957630Y-97168881D01*
X135928071Y-97355513D01*
X135166214Y-97355513D01*
X135136654Y-97168881D01*
X135109560Y-97085497D01*
X135078261Y-96989168D01*
X135078259Y-96989165D01*
X135078259Y-96989163D01*
X134992473Y-96820800D01*
X134881404Y-96667927D01*
X134747787Y-96534310D01*
X134594913Y-96423240D01*
X134426550Y-96337454D01*
X134246832Y-96279059D01*
X134060200Y-96249500D01*
X134060195Y-96249500D01*
X133871233Y-96249500D01*
X133871228Y-96249500D01*
X133684595Y-96279059D01*
X133504877Y-96337454D01*
X133336514Y-96423240D01*
X133249293Y-96486610D01*
X133183641Y-96534310D01*
X133183639Y-96534312D01*
X133183638Y-96534312D01*
X133050026Y-96667924D01*
X133050026Y-96667925D01*
X133050024Y-96667927D01*
X133010150Y-96722809D01*
X132938954Y-96820800D01*
X132853168Y-96989163D01*
X132794773Y-97168881D01*
X132765214Y-97355513D01*
X132003357Y-97355513D01*
X131973797Y-97168881D01*
X131946703Y-97085497D01*
X131915404Y-96989168D01*
X131915402Y-96989165D01*
X131915402Y-96989163D01*
X131829616Y-96820800D01*
X131718547Y-96667927D01*
X131584930Y-96534310D01*
X131432056Y-96423240D01*
X131263693Y-96337454D01*
X131083975Y-96279059D01*
X130897343Y-96249500D01*
X130897338Y-96249500D01*
X130708376Y-96249500D01*
X130708371Y-96249500D01*
X130521738Y-96279059D01*
X130342020Y-96337454D01*
X130173657Y-96423240D01*
X130086436Y-96486610D01*
X130020784Y-96534310D01*
X130020782Y-96534312D01*
X130020781Y-96534312D01*
X129887169Y-96667924D01*
X129887169Y-96667925D01*
X129887167Y-96667927D01*
X129847293Y-96722809D01*
X129776097Y-96820800D01*
X129690311Y-96989163D01*
X129631916Y-97168881D01*
X129602357Y-97355513D01*
X128840500Y-97355513D01*
X128810940Y-97168881D01*
X128783846Y-97085497D01*
X128752547Y-96989168D01*
X128752545Y-96989165D01*
X128752545Y-96989163D01*
X128666759Y-96820800D01*
X128555690Y-96667927D01*
X128422073Y-96534310D01*
X128269199Y-96423240D01*
X128100836Y-96337454D01*
X127921118Y-96279059D01*
X127734486Y-96249500D01*
X127734481Y-96249500D01*
X127545519Y-96249500D01*
X127545514Y-96249500D01*
X127358881Y-96279059D01*
X127179163Y-96337454D01*
X127010800Y-96423240D01*
X126923579Y-96486610D01*
X126857927Y-96534310D01*
X126857925Y-96534312D01*
X126857924Y-96534312D01*
X126724312Y-96667924D01*
X126724312Y-96667925D01*
X126724310Y-96667927D01*
X126684436Y-96722809D01*
X126613240Y-96820800D01*
X126527454Y-96989163D01*
X126469059Y-97168881D01*
X126439500Y-97355513D01*
X123000500Y-97355513D01*
X123000500Y-91689054D01*
X125339498Y-91689054D01*
X125343235Y-91702999D01*
X125380423Y-91841785D01*
X125380424Y-91841787D01*
X125380423Y-91841787D01*
X125387680Y-91854355D01*
X125387681Y-91854356D01*
X125459477Y-91978712D01*
X125459481Y-91978717D01*
X125578349Y-92097585D01*
X125578354Y-92097589D01*
X127231284Y-93750520D01*
X127231286Y-93750521D01*
X127231290Y-93750524D01*
X127368209Y-93829573D01*
X127368216Y-93829577D01*
X127520943Y-93870501D01*
X127520945Y-93870501D01*
X127555501Y-93870501D01*
X127622540Y-93890186D01*
X127668295Y-93942990D01*
X127679501Y-93994501D01*
X127679501Y-94167876D01*
X127685908Y-94227483D01*
X127736202Y-94362328D01*
X127736206Y-94362335D01*
X127822452Y-94477544D01*
X127822455Y-94477547D01*
X127937664Y-94563793D01*
X127937671Y-94563797D01*
X128072517Y-94614091D01*
X128072516Y-94614091D01*
X128079444Y-94614835D01*
X128132127Y-94620500D01*
X129927872Y-94620499D01*
X129987483Y-94614091D01*
X130122331Y-94563796D01*
X130237546Y-94477546D01*
X130323796Y-94362331D01*
X130372810Y-94230916D01*
X130414681Y-94174984D01*
X130480145Y-94150566D01*
X130548418Y-94165417D01*
X130576673Y-94186569D01*
X130690213Y-94300109D01*
X130862179Y-94425048D01*
X130862181Y-94425049D01*
X130862184Y-94425051D01*
X131051588Y-94521557D01*
X131253757Y-94587246D01*
X131463713Y-94620500D01*
X131463714Y-94620500D01*
X131676286Y-94620500D01*
X131676287Y-94620500D01*
X131886243Y-94587246D01*
X132088412Y-94521557D01*
X132277816Y-94425051D01*
X132364138Y-94362335D01*
X132449786Y-94300109D01*
X132449788Y-94300106D01*
X132449792Y-94300104D01*
X132600104Y-94149792D01*
X132600106Y-94149788D01*
X132600109Y-94149786D01*
X132725048Y-93977820D01*
X132725047Y-93977820D01*
X132725051Y-93977816D01*
X132729514Y-93969054D01*
X132777488Y-93918259D01*
X132845308Y-93901463D01*
X132911444Y-93923999D01*
X132950486Y-93969056D01*
X132954951Y-93977820D01*
X133079890Y-94149786D01*
X133230213Y-94300109D01*
X133402179Y-94425048D01*
X133402181Y-94425049D01*
X133402184Y-94425051D01*
X133591588Y-94521557D01*
X133793757Y-94587246D01*
X134003713Y-94620500D01*
X134003714Y-94620500D01*
X134216286Y-94620500D01*
X134216287Y-94620500D01*
X134426243Y-94587246D01*
X134628412Y-94521557D01*
X134817816Y-94425051D01*
X134904138Y-94362335D01*
X134989786Y-94300109D01*
X134989788Y-94300106D01*
X134989792Y-94300104D01*
X135140104Y-94149792D01*
X135140106Y-94149788D01*
X135140109Y-94149786D01*
X135265048Y-93977820D01*
X135265047Y-93977820D01*
X135265051Y-93977816D01*
X135269514Y-93969054D01*
X135317488Y-93918259D01*
X135385308Y-93901463D01*
X135451444Y-93923999D01*
X135490486Y-93969056D01*
X135494951Y-93977820D01*
X135619890Y-94149786D01*
X135770213Y-94300109D01*
X135942179Y-94425048D01*
X135942181Y-94425049D01*
X135942184Y-94425051D01*
X136131588Y-94521557D01*
X136333757Y-94587246D01*
X136543713Y-94620500D01*
X136543714Y-94620500D01*
X136756286Y-94620500D01*
X136756287Y-94620500D01*
X136966243Y-94587246D01*
X137168412Y-94521557D01*
X137357816Y-94425051D01*
X137444138Y-94362335D01*
X137529786Y-94300109D01*
X137529788Y-94300106D01*
X137529792Y-94300104D01*
X137680104Y-94149792D01*
X137680106Y-94149788D01*
X137680109Y-94149786D01*
X137805048Y-93977820D01*
X137805047Y-93977820D01*
X137805051Y-93977816D01*
X137809514Y-93969054D01*
X137857488Y-93918259D01*
X137925308Y-93901463D01*
X137991444Y-93923999D01*
X138030486Y-93969056D01*
X138034951Y-93977820D01*
X138159890Y-94149786D01*
X138310213Y-94300109D01*
X138482179Y-94425048D01*
X138482181Y-94425049D01*
X138482184Y-94425051D01*
X138671588Y-94521557D01*
X138873757Y-94587246D01*
X139083713Y-94620500D01*
X139083714Y-94620500D01*
X139296286Y-94620500D01*
X139296287Y-94620500D01*
X139506243Y-94587246D01*
X139708412Y-94521557D01*
X139897816Y-94425051D01*
X139984138Y-94362335D01*
X140069786Y-94300109D01*
X140069788Y-94300106D01*
X140069792Y-94300104D01*
X140220104Y-94149792D01*
X140220106Y-94149788D01*
X140220109Y-94149786D01*
X140345048Y-93977820D01*
X140345047Y-93977820D01*
X140345051Y-93977816D01*
X140349514Y-93969054D01*
X140397488Y-93918259D01*
X140465308Y-93901463D01*
X140531444Y-93923999D01*
X140570486Y-93969056D01*
X140574951Y-93977820D01*
X140699890Y-94149786D01*
X140850213Y-94300109D01*
X141022179Y-94425048D01*
X141022181Y-94425049D01*
X141022184Y-94425051D01*
X141211588Y-94521557D01*
X141413757Y-94587246D01*
X141623713Y-94620500D01*
X141623714Y-94620500D01*
X141836286Y-94620500D01*
X141836287Y-94620500D01*
X142046243Y-94587246D01*
X142248412Y-94521557D01*
X142437816Y-94425051D01*
X142524138Y-94362335D01*
X142609786Y-94300109D01*
X142609788Y-94300106D01*
X142609792Y-94300104D01*
X142760104Y-94149792D01*
X142760106Y-94149788D01*
X142760109Y-94149786D01*
X142885048Y-93977820D01*
X142885047Y-93977820D01*
X142885051Y-93977816D01*
X142889514Y-93969054D01*
X142937488Y-93918259D01*
X143005308Y-93901463D01*
X143071444Y-93923999D01*
X143110486Y-93969056D01*
X143114951Y-93977820D01*
X143239890Y-94149786D01*
X143390213Y-94300109D01*
X143562179Y-94425048D01*
X143562181Y-94425049D01*
X143562184Y-94425051D01*
X143751588Y-94521557D01*
X143953757Y-94587246D01*
X144163713Y-94620500D01*
X144163714Y-94620500D01*
X144376286Y-94620500D01*
X144376287Y-94620500D01*
X144586243Y-94587246D01*
X144788412Y-94521557D01*
X144977816Y-94425051D01*
X145064138Y-94362335D01*
X145149786Y-94300109D01*
X145149788Y-94300106D01*
X145149792Y-94300104D01*
X145300104Y-94149792D01*
X145300106Y-94149788D01*
X145300109Y-94149786D01*
X145425048Y-93977820D01*
X145425047Y-93977820D01*
X145425051Y-93977816D01*
X145429514Y-93969054D01*
X145477488Y-93918259D01*
X145545308Y-93901463D01*
X145611444Y-93923999D01*
X145650486Y-93969056D01*
X145654951Y-93977820D01*
X145779890Y-94149786D01*
X145930213Y-94300109D01*
X146102179Y-94425048D01*
X146102181Y-94425049D01*
X146102184Y-94425051D01*
X146291588Y-94521557D01*
X146493757Y-94587246D01*
X146703713Y-94620500D01*
X146703714Y-94620500D01*
X146916286Y-94620500D01*
X146916287Y-94620500D01*
X147126243Y-94587246D01*
X147328412Y-94521557D01*
X147517816Y-94425051D01*
X147604138Y-94362335D01*
X147654820Y-94325513D01*
X154389500Y-94325513D01*
X154389500Y-94514486D01*
X154419059Y-94701118D01*
X154477454Y-94880836D01*
X154534368Y-94992535D01*
X154563240Y-95049199D01*
X154674310Y-95202073D01*
X154807927Y-95335690D01*
X154960801Y-95446760D01*
X155040347Y-95487290D01*
X155129163Y-95532545D01*
X155129165Y-95532545D01*
X155129168Y-95532547D01*
X155225497Y-95563846D01*
X155308881Y-95590940D01*
X155495514Y-95620500D01*
X155495519Y-95620500D01*
X155684486Y-95620500D01*
X155871118Y-95590940D01*
X156050832Y-95532547D01*
X156219199Y-95446760D01*
X156372073Y-95335690D01*
X156505690Y-95202073D01*
X156616760Y-95049199D01*
X156702547Y-94880832D01*
X156760940Y-94701118D01*
X156790500Y-94514486D01*
X156790500Y-94325513D01*
X159469500Y-94325513D01*
X159469500Y-94514486D01*
X159499059Y-94701118D01*
X159557454Y-94880836D01*
X159614368Y-94992535D01*
X159643240Y-95049199D01*
X159754310Y-95202073D01*
X159887927Y-95335690D01*
X160040801Y-95446760D01*
X160120347Y-95487290D01*
X160209163Y-95532545D01*
X160209165Y-95532545D01*
X160209168Y-95532547D01*
X160305497Y-95563846D01*
X160388881Y-95590940D01*
X160575514Y-95620500D01*
X160575519Y-95620500D01*
X160764486Y-95620500D01*
X160951118Y-95590940D01*
X161130832Y-95532547D01*
X161299199Y-95446760D01*
X161452073Y-95335690D01*
X161585690Y-95202073D01*
X161696760Y-95049199D01*
X161782547Y-94880832D01*
X161840940Y-94701118D01*
X161870500Y-94514486D01*
X161870500Y-94325513D01*
X161840940Y-94138881D01*
X161801260Y-94016760D01*
X161782547Y-93959168D01*
X161782545Y-93959165D01*
X161782545Y-93959163D01*
X161737290Y-93870347D01*
X161696760Y-93790801D01*
X161585690Y-93637927D01*
X161452073Y-93504310D01*
X161299199Y-93393240D01*
X161265925Y-93376286D01*
X161130836Y-93307454D01*
X160951118Y-93249059D01*
X160764486Y-93219500D01*
X160764481Y-93219500D01*
X160575519Y-93219500D01*
X160575514Y-93219500D01*
X160388881Y-93249059D01*
X160209163Y-93307454D01*
X160040800Y-93393240D01*
X159976553Y-93439919D01*
X159887927Y-93504310D01*
X159887925Y-93504312D01*
X159887924Y-93504312D01*
X159754312Y-93637924D01*
X159754312Y-93637925D01*
X159754310Y-93637927D01*
X159706610Y-93703579D01*
X159643240Y-93790800D01*
X159557454Y-93959163D01*
X159499059Y-94138881D01*
X159469500Y-94325513D01*
X156790500Y-94325513D01*
X156760940Y-94138881D01*
X156721260Y-94016760D01*
X156702547Y-93959168D01*
X156702545Y-93959165D01*
X156702545Y-93959163D01*
X156657290Y-93870347D01*
X156616760Y-93790801D01*
X156505690Y-93637927D01*
X156372073Y-93504310D01*
X156219199Y-93393240D01*
X156185925Y-93376286D01*
X156050836Y-93307454D01*
X155871118Y-93249059D01*
X155684486Y-93219500D01*
X155684481Y-93219500D01*
X155495519Y-93219500D01*
X155495514Y-93219500D01*
X155308881Y-93249059D01*
X155129163Y-93307454D01*
X154960800Y-93393240D01*
X154896553Y-93439919D01*
X154807927Y-93504310D01*
X154807925Y-93504312D01*
X154807924Y-93504312D01*
X154674312Y-93637924D01*
X154674312Y-93637925D01*
X154674310Y-93637927D01*
X154626610Y-93703579D01*
X154563240Y-93790800D01*
X154477454Y-93959163D01*
X154419059Y-94138881D01*
X154389500Y-94325513D01*
X147654820Y-94325513D01*
X147689786Y-94300109D01*
X147689788Y-94300106D01*
X147689792Y-94300104D01*
X147840104Y-94149792D01*
X147840106Y-94149788D01*
X147840109Y-94149786D01*
X147965048Y-93977820D01*
X147965047Y-93977820D01*
X147965051Y-93977816D01*
X148061557Y-93788412D01*
X148127246Y-93586243D01*
X148160500Y-93376287D01*
X148160500Y-93163713D01*
X148127246Y-92953757D01*
X148108321Y-92895513D01*
X167959500Y-92895513D01*
X167959500Y-93084486D01*
X167989059Y-93271118D01*
X168047454Y-93450836D01*
X168086007Y-93526499D01*
X168133240Y-93619199D01*
X168244310Y-93772073D01*
X168377927Y-93905690D01*
X168530801Y-94016760D01*
X168610347Y-94057290D01*
X168699163Y-94102545D01*
X168699165Y-94102545D01*
X168699168Y-94102547D01*
X168795497Y-94133846D01*
X168878881Y-94160940D01*
X169065514Y-94190500D01*
X169065519Y-94190500D01*
X169254486Y-94190500D01*
X169441118Y-94160940D01*
X169620832Y-94102547D01*
X169789199Y-94016760D01*
X169942073Y-93905690D01*
X170075690Y-93772073D01*
X170186760Y-93619199D01*
X170272547Y-93450832D01*
X170330940Y-93271118D01*
X170334434Y-93249059D01*
X170360500Y-93084486D01*
X170360500Y-92895513D01*
X171199500Y-92895513D01*
X171199500Y-93084486D01*
X171229059Y-93271118D01*
X171287454Y-93450836D01*
X171326007Y-93526499D01*
X171373240Y-93619199D01*
X171484310Y-93772073D01*
X171617927Y-93905690D01*
X171770801Y-94016760D01*
X171850347Y-94057290D01*
X171939163Y-94102545D01*
X171939165Y-94102545D01*
X171939168Y-94102547D01*
X172035497Y-94133846D01*
X172118881Y-94160940D01*
X172305514Y-94190500D01*
X172305519Y-94190500D01*
X172494486Y-94190500D01*
X172681118Y-94160940D01*
X172860832Y-94102547D01*
X173029199Y-94016760D01*
X173182073Y-93905690D01*
X173315690Y-93772073D01*
X173426760Y-93619199D01*
X173512547Y-93450832D01*
X173570940Y-93271118D01*
X173574434Y-93249059D01*
X173600500Y-93084486D01*
X173600500Y-92895513D01*
X173570940Y-92708881D01*
X173538543Y-92609175D01*
X173512547Y-92529168D01*
X173512545Y-92529165D01*
X173512545Y-92529163D01*
X173441746Y-92390213D01*
X173426760Y-92360801D01*
X173315690Y-92207927D01*
X173182073Y-92074310D01*
X173029199Y-91963240D01*
X172955931Y-91925908D01*
X172860836Y-91877454D01*
X172681118Y-91819059D01*
X172494486Y-91789500D01*
X172494481Y-91789500D01*
X172305519Y-91789500D01*
X172305514Y-91789500D01*
X172118881Y-91819059D01*
X171939163Y-91877454D01*
X171770800Y-91963240D01*
X171683579Y-92026610D01*
X171617927Y-92074310D01*
X171617925Y-92074312D01*
X171617924Y-92074312D01*
X171484312Y-92207924D01*
X171484312Y-92207925D01*
X171484310Y-92207927D01*
X171461083Y-92239896D01*
X171373240Y-92360800D01*
X171287454Y-92529163D01*
X171229059Y-92708881D01*
X171199500Y-92895513D01*
X170360500Y-92895513D01*
X170330940Y-92708881D01*
X170298543Y-92609175D01*
X170272547Y-92529168D01*
X170272545Y-92529165D01*
X170272545Y-92529163D01*
X170201746Y-92390213D01*
X170186760Y-92360801D01*
X170075690Y-92207927D01*
X169942073Y-92074310D01*
X169789199Y-91963240D01*
X169715931Y-91925908D01*
X169620836Y-91877454D01*
X169441118Y-91819059D01*
X169254486Y-91789500D01*
X169254481Y-91789500D01*
X169065519Y-91789500D01*
X169065514Y-91789500D01*
X168878881Y-91819059D01*
X168699163Y-91877454D01*
X168530800Y-91963240D01*
X168443579Y-92026610D01*
X168377927Y-92074310D01*
X168377925Y-92074312D01*
X168377924Y-92074312D01*
X168244312Y-92207924D01*
X168244312Y-92207925D01*
X168244310Y-92207927D01*
X168221083Y-92239896D01*
X168133240Y-92360800D01*
X168047454Y-92529163D01*
X167989059Y-92708881D01*
X167959500Y-92895513D01*
X148108321Y-92895513D01*
X148061557Y-92751588D01*
X147965051Y-92562184D01*
X147965049Y-92562181D01*
X147965048Y-92562179D01*
X147840109Y-92390213D01*
X147689786Y-92239890D01*
X147517820Y-92114951D01*
X147328414Y-92018444D01*
X147328413Y-92018443D01*
X147328412Y-92018443D01*
X147126243Y-91952754D01*
X147126241Y-91952753D01*
X147126240Y-91952753D01*
X146964957Y-91927208D01*
X146916287Y-91919500D01*
X146703713Y-91919500D01*
X146655042Y-91927208D01*
X146493760Y-91952753D01*
X146291585Y-92018444D01*
X146102179Y-92114951D01*
X145930213Y-92239890D01*
X145779890Y-92390213D01*
X145654949Y-92562182D01*
X145650484Y-92570946D01*
X145602509Y-92621742D01*
X145534688Y-92638536D01*
X145468553Y-92615998D01*
X145429516Y-92570946D01*
X145425050Y-92562182D01*
X145300109Y-92390213D01*
X145149786Y-92239890D01*
X144977820Y-92114951D01*
X144788414Y-92018444D01*
X144788413Y-92018443D01*
X144788412Y-92018443D01*
X144586243Y-91952754D01*
X144586241Y-91952753D01*
X144586240Y-91952753D01*
X144424957Y-91927208D01*
X144376287Y-91919500D01*
X144163713Y-91919500D01*
X144115042Y-91927208D01*
X143953760Y-91952753D01*
X143751585Y-92018444D01*
X143562179Y-92114951D01*
X143390213Y-92239890D01*
X143239890Y-92390213D01*
X143114949Y-92562182D01*
X143110484Y-92570946D01*
X143062509Y-92621742D01*
X142994688Y-92638536D01*
X142928553Y-92615998D01*
X142889516Y-92570946D01*
X142885050Y-92562182D01*
X142760109Y-92390213D01*
X142609786Y-92239890D01*
X142437820Y-92114951D01*
X142248414Y-92018444D01*
X142248413Y-92018443D01*
X142248412Y-92018443D01*
X142046243Y-91952754D01*
X142046241Y-91952753D01*
X142046240Y-91952753D01*
X141884957Y-91927208D01*
X141836287Y-91919500D01*
X141623713Y-91919500D01*
X141575042Y-91927208D01*
X141413760Y-91952753D01*
X141211585Y-92018444D01*
X141022179Y-92114951D01*
X140850213Y-92239890D01*
X140699890Y-92390213D01*
X140574949Y-92562182D01*
X140570484Y-92570946D01*
X140522509Y-92621742D01*
X140454688Y-92638536D01*
X140388553Y-92615998D01*
X140349516Y-92570946D01*
X140345050Y-92562182D01*
X140220109Y-92390213D01*
X140069786Y-92239890D01*
X139897820Y-92114951D01*
X139708414Y-92018444D01*
X139708413Y-92018443D01*
X139708412Y-92018443D01*
X139506243Y-91952754D01*
X139506241Y-91952753D01*
X139506240Y-91952753D01*
X139344957Y-91927208D01*
X139296287Y-91919500D01*
X139083713Y-91919500D01*
X139035042Y-91927208D01*
X138873760Y-91952753D01*
X138671585Y-92018444D01*
X138482179Y-92114951D01*
X138310213Y-92239890D01*
X138159890Y-92390213D01*
X138034949Y-92562182D01*
X138030484Y-92570946D01*
X137982509Y-92621742D01*
X137914688Y-92638536D01*
X137848553Y-92615998D01*
X137809516Y-92570946D01*
X137805050Y-92562182D01*
X137680109Y-92390213D01*
X137529786Y-92239890D01*
X137357820Y-92114951D01*
X137168414Y-92018444D01*
X137168413Y-92018443D01*
X137168412Y-92018443D01*
X136966243Y-91952754D01*
X136966241Y-91952753D01*
X136966240Y-91952753D01*
X136804957Y-91927208D01*
X136756287Y-91919500D01*
X136543713Y-91919500D01*
X136495042Y-91927208D01*
X136333760Y-91952753D01*
X136131585Y-92018444D01*
X135942179Y-92114951D01*
X135770213Y-92239890D01*
X135619890Y-92390213D01*
X135494949Y-92562182D01*
X135490484Y-92570946D01*
X135442509Y-92621742D01*
X135374688Y-92638536D01*
X135308553Y-92615998D01*
X135269516Y-92570946D01*
X135265050Y-92562182D01*
X135140109Y-92390213D01*
X134989786Y-92239890D01*
X134817820Y-92114951D01*
X134628414Y-92018444D01*
X134628413Y-92018443D01*
X134628412Y-92018443D01*
X134426243Y-91952754D01*
X134426241Y-91952753D01*
X134426240Y-91952753D01*
X134264957Y-91927208D01*
X134216287Y-91919500D01*
X134003713Y-91919500D01*
X133955042Y-91927208D01*
X133793760Y-91952753D01*
X133591585Y-92018444D01*
X133402179Y-92114951D01*
X133230213Y-92239890D01*
X133079890Y-92390213D01*
X132954949Y-92562182D01*
X132950484Y-92570946D01*
X132902509Y-92621742D01*
X132834688Y-92638536D01*
X132768553Y-92615998D01*
X132729516Y-92570946D01*
X132725050Y-92562182D01*
X132600109Y-92390213D01*
X132449786Y-92239890D01*
X132277820Y-92114951D01*
X132088414Y-92018444D01*
X132088413Y-92018443D01*
X132088412Y-92018443D01*
X131886243Y-91952754D01*
X131886241Y-91952753D01*
X131886240Y-91952753D01*
X131724957Y-91927208D01*
X131676287Y-91919500D01*
X131463713Y-91919500D01*
X131415042Y-91927208D01*
X131253760Y-91952753D01*
X131051585Y-92018444D01*
X130862179Y-92114951D01*
X130690215Y-92239889D01*
X130576673Y-92353431D01*
X130515350Y-92386915D01*
X130445658Y-92381931D01*
X130389725Y-92340059D01*
X130372810Y-92309082D01*
X130323797Y-92177671D01*
X130323793Y-92177664D01*
X130237547Y-92062455D01*
X130237544Y-92062452D01*
X130122335Y-91976206D01*
X130122328Y-91976202D01*
X129987482Y-91925908D01*
X129987483Y-91925908D01*
X129927883Y-91919501D01*
X129927881Y-91919500D01*
X129927873Y-91919500D01*
X129927864Y-91919500D01*
X128132129Y-91919500D01*
X128132123Y-91919501D01*
X128072516Y-91925908D01*
X127937671Y-91976202D01*
X127937664Y-91976206D01*
X127822455Y-92062452D01*
X127822452Y-92062455D01*
X127736206Y-92177664D01*
X127736202Y-92177671D01*
X127700593Y-92273146D01*
X127658722Y-92329080D01*
X127593258Y-92353497D01*
X127524985Y-92338645D01*
X127496730Y-92317494D01*
X126576819Y-91397583D01*
X126543334Y-91336260D01*
X126540500Y-91309902D01*
X126540500Y-88669983D01*
X127439500Y-88669983D01*
X127439500Y-89870001D01*
X127439501Y-89870018D01*
X127450000Y-89972796D01*
X127450001Y-89972799D01*
X127494436Y-90106894D01*
X127505186Y-90139334D01*
X127597288Y-90288656D01*
X127721344Y-90412712D01*
X127870666Y-90504814D01*
X128037203Y-90559999D01*
X128139991Y-90570500D01*
X129340008Y-90570499D01*
X129442797Y-90559999D01*
X129609334Y-90504814D01*
X129758656Y-90412712D01*
X129882712Y-90288656D01*
X129974814Y-90139334D01*
X130001955Y-90057427D01*
X130041726Y-89999984D01*
X130106242Y-89973161D01*
X130175018Y-89985476D01*
X130219977Y-90023547D01*
X130248209Y-90062404D01*
X130288034Y-90117219D01*
X130432786Y-90261971D01*
X130553226Y-90349474D01*
X130598390Y-90382287D01*
X130708749Y-90438518D01*
X130780776Y-90475218D01*
X130780778Y-90475218D01*
X130780781Y-90475220D01*
X130848684Y-90497283D01*
X130975465Y-90538477D01*
X131054008Y-90550917D01*
X131177648Y-90570500D01*
X131177649Y-90570500D01*
X131382351Y-90570500D01*
X131382352Y-90570500D01*
X131584534Y-90538477D01*
X131779219Y-90475220D01*
X131961610Y-90382287D01*
X132090482Y-90288657D01*
X132127213Y-90261971D01*
X132127215Y-90261968D01*
X132127219Y-90261966D01*
X132271966Y-90117219D01*
X132271968Y-90117215D01*
X132271971Y-90117213D01*
X132392284Y-89951614D01*
X132392286Y-89951611D01*
X132392287Y-89951610D01*
X132439516Y-89858917D01*
X132487489Y-89808123D01*
X132555310Y-89791328D01*
X132621445Y-89813865D01*
X132660483Y-89858917D01*
X132704348Y-89945006D01*
X132707715Y-89951614D01*
X132828028Y-90117213D01*
X132972786Y-90261971D01*
X133093226Y-90349474D01*
X133138390Y-90382287D01*
X133248749Y-90438518D01*
X133320776Y-90475218D01*
X133320778Y-90475218D01*
X133320781Y-90475220D01*
X133388684Y-90497283D01*
X133515465Y-90538477D01*
X133594008Y-90550917D01*
X133717648Y-90570500D01*
X133717649Y-90570500D01*
X133922351Y-90570500D01*
X133922352Y-90570500D01*
X134124534Y-90538477D01*
X134319219Y-90475220D01*
X134501610Y-90382287D01*
X134630482Y-90288657D01*
X134667213Y-90261971D01*
X134667215Y-90261968D01*
X134667219Y-90261966D01*
X134811966Y-90117219D01*
X134811968Y-90117215D01*
X134811971Y-90117213D01*
X134932284Y-89951614D01*
X134932286Y-89951611D01*
X134932287Y-89951610D01*
X134979516Y-89858917D01*
X135027489Y-89808123D01*
X135095310Y-89791328D01*
X135161445Y-89813865D01*
X135200483Y-89858917D01*
X135244348Y-89945006D01*
X135247715Y-89951614D01*
X135368028Y-90117213D01*
X135512786Y-90261971D01*
X135633226Y-90349474D01*
X135678390Y-90382287D01*
X135788749Y-90438518D01*
X135860776Y-90475218D01*
X135860778Y-90475218D01*
X135860781Y-90475220D01*
X135928684Y-90497283D01*
X136055465Y-90538477D01*
X136134008Y-90550917D01*
X136257648Y-90570500D01*
X136257649Y-90570500D01*
X136462351Y-90570500D01*
X136462352Y-90570500D01*
X136664534Y-90538477D01*
X136859219Y-90475220D01*
X137041610Y-90382287D01*
X137170482Y-90288657D01*
X137207213Y-90261971D01*
X137207215Y-90261968D01*
X137207219Y-90261966D01*
X137351966Y-90117219D01*
X137351968Y-90117215D01*
X137351971Y-90117213D01*
X137472284Y-89951614D01*
X137472286Y-89951611D01*
X137472287Y-89951610D01*
X137519516Y-89858917D01*
X137567489Y-89808123D01*
X137635310Y-89791328D01*
X137701445Y-89813865D01*
X137740483Y-89858917D01*
X137784348Y-89945006D01*
X137787715Y-89951614D01*
X137908028Y-90117213D01*
X138052786Y-90261971D01*
X138173226Y-90349474D01*
X138218390Y-90382287D01*
X138328749Y-90438518D01*
X138400776Y-90475218D01*
X138400778Y-90475218D01*
X138400781Y-90475220D01*
X138468684Y-90497283D01*
X138595465Y-90538477D01*
X138674008Y-90550917D01*
X138797648Y-90570500D01*
X138797649Y-90570500D01*
X139002351Y-90570500D01*
X139002352Y-90570500D01*
X139204534Y-90538477D01*
X139399219Y-90475220D01*
X139581610Y-90382287D01*
X139710482Y-90288657D01*
X139747213Y-90261971D01*
X139747215Y-90261968D01*
X139747219Y-90261966D01*
X139891966Y-90117219D01*
X139891968Y-90117215D01*
X139891971Y-90117213D01*
X140012284Y-89951614D01*
X140012286Y-89951611D01*
X140012287Y-89951610D01*
X140059516Y-89858917D01*
X140107489Y-89808123D01*
X140175310Y-89791328D01*
X140241445Y-89813865D01*
X140280483Y-89858917D01*
X140324348Y-89945006D01*
X140327715Y-89951614D01*
X140448028Y-90117213D01*
X140592786Y-90261971D01*
X140713226Y-90349474D01*
X140758390Y-90382287D01*
X140868749Y-90438518D01*
X140940776Y-90475218D01*
X140940778Y-90475218D01*
X140940781Y-90475220D01*
X141008684Y-90497283D01*
X141135465Y-90538477D01*
X141214008Y-90550917D01*
X141337648Y-90570500D01*
X141337649Y-90570500D01*
X141542351Y-90570500D01*
X141542352Y-90570500D01*
X141744534Y-90538477D01*
X141939219Y-90475220D01*
X142121610Y-90382287D01*
X142250482Y-90288657D01*
X142287213Y-90261971D01*
X142287215Y-90261968D01*
X142287219Y-90261966D01*
X142431966Y-90117219D01*
X142431968Y-90117215D01*
X142431971Y-90117213D01*
X142552284Y-89951614D01*
X142552286Y-89951611D01*
X142552287Y-89951610D01*
X142599516Y-89858917D01*
X142647489Y-89808123D01*
X142715310Y-89791328D01*
X142781445Y-89813865D01*
X142820483Y-89858917D01*
X142864348Y-89945006D01*
X142867715Y-89951614D01*
X142988028Y-90117213D01*
X143132786Y-90261971D01*
X143253226Y-90349474D01*
X143298390Y-90382287D01*
X143408749Y-90438518D01*
X143480776Y-90475218D01*
X143480778Y-90475218D01*
X143480781Y-90475220D01*
X143548684Y-90497283D01*
X143675465Y-90538477D01*
X143754008Y-90550917D01*
X143877648Y-90570500D01*
X143877649Y-90570500D01*
X144082351Y-90570500D01*
X144082352Y-90570500D01*
X144284534Y-90538477D01*
X144479219Y-90475220D01*
X144661610Y-90382287D01*
X144790482Y-90288657D01*
X144827213Y-90261971D01*
X144827215Y-90261968D01*
X144827219Y-90261966D01*
X144971966Y-90117219D01*
X144971968Y-90117215D01*
X144971971Y-90117213D01*
X145076894Y-89972797D01*
X145092287Y-89951610D01*
X145139795Y-89858369D01*
X145187769Y-89807573D01*
X145255590Y-89790778D01*
X145321725Y-89813315D01*
X145360765Y-89858369D01*
X145408141Y-89951350D01*
X145408147Y-89951359D01*
X145440523Y-89995921D01*
X145440524Y-89995922D01*
X146120000Y-89316446D01*
X146120000Y-89322661D01*
X146147259Y-89424394D01*
X146199920Y-89515606D01*
X146274394Y-89590080D01*
X146365606Y-89642741D01*
X146467339Y-89670000D01*
X146473553Y-89670000D01*
X145794076Y-90349474D01*
X145838650Y-90381859D01*
X146020968Y-90474755D01*
X146215582Y-90537990D01*
X146417683Y-90570000D01*
X146622317Y-90570000D01*
X146824417Y-90537990D01*
X147019031Y-90474755D01*
X147201349Y-90381859D01*
X147245921Y-90349474D01*
X146566447Y-89670000D01*
X146572661Y-89670000D01*
X146674394Y-89642741D01*
X146765606Y-89590080D01*
X146840080Y-89515606D01*
X146892741Y-89424394D01*
X146920000Y-89322661D01*
X146920000Y-89316448D01*
X147599474Y-89995922D01*
X147599474Y-89995921D01*
X147631859Y-89951349D01*
X147724755Y-89769031D01*
X147787990Y-89574417D01*
X147820000Y-89372317D01*
X147820000Y-89176538D01*
X154549500Y-89176538D01*
X154549500Y-90728462D01*
X154552353Y-90746475D01*
X154588910Y-90977285D01*
X154666760Y-91216883D01*
X154740327Y-91361264D01*
X154763286Y-91406325D01*
X154781132Y-91441348D01*
X154929201Y-91645149D01*
X154929205Y-91645154D01*
X155107345Y-91823294D01*
X155107350Y-91823298D01*
X155157868Y-91860001D01*
X155311155Y-91971370D01*
X155454184Y-92044247D01*
X155535616Y-92085739D01*
X155535618Y-92085739D01*
X155535621Y-92085741D01*
X155775215Y-92163590D01*
X156024038Y-92203000D01*
X156024039Y-92203000D01*
X156275961Y-92203000D01*
X156275962Y-92203000D01*
X156524785Y-92163590D01*
X156764379Y-92085741D01*
X156988845Y-91971370D01*
X157192656Y-91823293D01*
X157370793Y-91645156D01*
X157434598Y-91557335D01*
X157489924Y-91514672D01*
X157559537Y-91508691D01*
X157591209Y-91519737D01*
X157770162Y-91610918D01*
X157957283Y-91671718D01*
X158000000Y-91678484D01*
X158000000Y-90268186D01*
X158004394Y-90272580D01*
X158095606Y-90325241D01*
X158197339Y-90352500D01*
X158302661Y-90352500D01*
X158404394Y-90325241D01*
X158495606Y-90272580D01*
X158500000Y-90268186D01*
X158500000Y-91678483D01*
X158542716Y-91671718D01*
X158729837Y-91610918D01*
X158905143Y-91521595D01*
X159064321Y-91405944D01*
X159064322Y-91405943D01*
X159161965Y-91308301D01*
X159223288Y-91274816D01*
X159292980Y-91279800D01*
X159337327Y-91308301D01*
X159435354Y-91406328D01*
X159594595Y-91522024D01*
X159663903Y-91557338D01*
X159769970Y-91611382D01*
X159769972Y-91611382D01*
X159769975Y-91611384D01*
X159813869Y-91625646D01*
X159957173Y-91672209D01*
X160151578Y-91703000D01*
X160151583Y-91703000D01*
X160348422Y-91703000D01*
X160542826Y-91672209D01*
X160622574Y-91646297D01*
X160730025Y-91611384D01*
X160905405Y-91522024D01*
X160941614Y-91495715D01*
X161007417Y-91472236D01*
X161075471Y-91488060D01*
X161113763Y-91521720D01*
X161142454Y-91560046D01*
X161142455Y-91560046D01*
X161142456Y-91560048D01*
X161257664Y-91646293D01*
X161257671Y-91646297D01*
X161392517Y-91696591D01*
X161392516Y-91696591D01*
X161399444Y-91697335D01*
X161452127Y-91703000D01*
X163047872Y-91702999D01*
X163107483Y-91696591D01*
X163107486Y-91696589D01*
X163114554Y-91695830D01*
X163183314Y-91708236D01*
X163215490Y-91731439D01*
X163307345Y-91823294D01*
X163307350Y-91823298D01*
X163357868Y-91860001D01*
X163511155Y-91971370D01*
X163654184Y-92044247D01*
X163735616Y-92085739D01*
X163735618Y-92085739D01*
X163735621Y-92085741D01*
X163975215Y-92163590D01*
X164224038Y-92203000D01*
X164224039Y-92203000D01*
X164475961Y-92203000D01*
X164475962Y-92203000D01*
X164724785Y-92163590D01*
X164964379Y-92085741D01*
X165188845Y-91971370D01*
X165392656Y-91823293D01*
X165570793Y-91645156D01*
X165584968Y-91625646D01*
X177689500Y-91625646D01*
X177689500Y-91854354D01*
X177693159Y-91877453D01*
X177725278Y-92080246D01*
X177725278Y-92080249D01*
X177795950Y-92297755D01*
X177843060Y-92390213D01*
X177899783Y-92501538D01*
X178034214Y-92686566D01*
X178195934Y-92848286D01*
X178280864Y-92909991D01*
X178323529Y-92965321D01*
X178329508Y-93034935D01*
X178296902Y-93096730D01*
X178280864Y-93110627D01*
X178196257Y-93172097D01*
X178034597Y-93333757D01*
X177900211Y-93518723D01*
X177796417Y-93722429D01*
X177725765Y-93939871D01*
X177711491Y-94030000D01*
X178699252Y-94030000D01*
X178677482Y-94067708D01*
X178640000Y-94207591D01*
X178640000Y-94352409D01*
X178677482Y-94492292D01*
X178699252Y-94530000D01*
X177711491Y-94530000D01*
X177725765Y-94620128D01*
X177796417Y-94837570D01*
X177900213Y-95041279D01*
X178033011Y-95224060D01*
X178056491Y-95289866D01*
X178040666Y-95357920D01*
X177990560Y-95406615D01*
X177976026Y-95413127D01*
X177947671Y-95423702D01*
X177947664Y-95423706D01*
X177832455Y-95509952D01*
X177832452Y-95509955D01*
X177746206Y-95625164D01*
X177746202Y-95625171D01*
X177695908Y-95760017D01*
X177689501Y-95819616D01*
X177689501Y-95819623D01*
X177689500Y-95819635D01*
X177689500Y-97820370D01*
X177689501Y-97820376D01*
X177695908Y-97879983D01*
X177746202Y-98014828D01*
X177746206Y-98014835D01*
X177832452Y-98130044D01*
X177832455Y-98130047D01*
X177947664Y-98216293D01*
X177947671Y-98216297D01*
X178082517Y-98266591D01*
X178082516Y-98266591D01*
X178089444Y-98267335D01*
X178142127Y-98273000D01*
X180237872Y-98272999D01*
X180297483Y-98266591D01*
X180432331Y-98216296D01*
X180547546Y-98130046D01*
X180633796Y-98014831D01*
X180684091Y-97879983D01*
X180690500Y-97820373D01*
X180690500Y-97327648D01*
X183959500Y-97327648D01*
X183959500Y-97532351D01*
X183991522Y-97734534D01*
X184054781Y-97929223D01*
X184147715Y-98111613D01*
X184268028Y-98277213D01*
X184333134Y-98342319D01*
X184366619Y-98403642D01*
X184361635Y-98473334D01*
X184333134Y-98517681D01*
X184268032Y-98582782D01*
X184268028Y-98582786D01*
X184147715Y-98748386D01*
X184054781Y-98930776D01*
X183991522Y-99125465D01*
X183959500Y-99327648D01*
X183959500Y-99532351D01*
X183991522Y-99734534D01*
X184054781Y-99929223D01*
X184147715Y-100111613D01*
X184268028Y-100277213D01*
X184412784Y-100421969D01*
X184416996Y-100425029D01*
X184459663Y-100480359D01*
X184465643Y-100549972D01*
X184433037Y-100611767D01*
X184387445Y-100641530D01*
X184267671Y-100686202D01*
X184267664Y-100686206D01*
X184152455Y-100772452D01*
X184152452Y-100772455D01*
X184066206Y-100887664D01*
X184066202Y-100887671D01*
X184015908Y-101022517D01*
X184014349Y-101037023D01*
X184009501Y-101082123D01*
X184009500Y-101082135D01*
X184009500Y-102777870D01*
X184009501Y-102777876D01*
X184015908Y-102837483D01*
X184066202Y-102972328D01*
X184066206Y-102972335D01*
X184152452Y-103087544D01*
X184152455Y-103087547D01*
X184267664Y-103173793D01*
X184267671Y-103173797D01*
X184402517Y-103224091D01*
X184402516Y-103224091D01*
X184409444Y-103224835D01*
X184462127Y-103230500D01*
X186057872Y-103230499D01*
X186117483Y-103224091D01*
X186252331Y-103173796D01*
X186367546Y-103087546D01*
X186453796Y-102972331D01*
X186504091Y-102837483D01*
X186510500Y-102777873D01*
X186510499Y-101082128D01*
X186504091Y-101022517D01*
X186491162Y-100987853D01*
X186453797Y-100887671D01*
X186453793Y-100887664D01*
X186367547Y-100772455D01*
X186367544Y-100772452D01*
X186252335Y-100686206D01*
X186252328Y-100686202D01*
X186132554Y-100641530D01*
X186076620Y-100599659D01*
X186052203Y-100534195D01*
X186067054Y-100465922D01*
X186103009Y-100425025D01*
X186107215Y-100421969D01*
X186107215Y-100421968D01*
X186107219Y-100421966D01*
X186251966Y-100277219D01*
X186251968Y-100277215D01*
X186251971Y-100277213D01*
X186313845Y-100192049D01*
X186372287Y-100111610D01*
X186465220Y-99929219D01*
X186528477Y-99734534D01*
X186560500Y-99532352D01*
X186560500Y-99327648D01*
X186528477Y-99125466D01*
X186465220Y-98930781D01*
X186465218Y-98930778D01*
X186465218Y-98930776D01*
X186431503Y-98864607D01*
X186372287Y-98748390D01*
X186364556Y-98737749D01*
X186251971Y-98582786D01*
X186186866Y-98517681D01*
X186153381Y-98456358D01*
X186158365Y-98386666D01*
X186186866Y-98342319D01*
X186189095Y-98340090D01*
X186251966Y-98277219D01*
X186251968Y-98277215D01*
X186251971Y-98277213D01*
X186341711Y-98153694D01*
X186372287Y-98111610D01*
X186465220Y-97929219D01*
X186528477Y-97734534D01*
X186560500Y-97532352D01*
X186560500Y-97327648D01*
X186528477Y-97125466D01*
X186509535Y-97067170D01*
X186484189Y-96989163D01*
X186465220Y-96930781D01*
X186465218Y-96930778D01*
X186465218Y-96930776D01*
X186409182Y-96820801D01*
X186372287Y-96748390D01*
X186353704Y-96722812D01*
X186251971Y-96582786D01*
X186107213Y-96438028D01*
X185941611Y-96317713D01*
X185887621Y-96290203D01*
X185836825Y-96242228D01*
X185820031Y-96174407D01*
X185842569Y-96108272D01*
X185887624Y-96069233D01*
X185941349Y-96041859D01*
X185985921Y-96009474D01*
X185368997Y-95392550D01*
X185443343Y-95372630D01*
X185551657Y-95310095D01*
X185640095Y-95221657D01*
X185702630Y-95113343D01*
X185722550Y-95038998D01*
X186339474Y-95655922D01*
X186339474Y-95655921D01*
X186371859Y-95611349D01*
X186464755Y-95429031D01*
X186527990Y-95234417D01*
X186560000Y-95032317D01*
X186560000Y-94827682D01*
X186527990Y-94625582D01*
X186464755Y-94430968D01*
X186371859Y-94248650D01*
X186339474Y-94204077D01*
X186339474Y-94204076D01*
X185722550Y-94821001D01*
X185702630Y-94746657D01*
X185640095Y-94638343D01*
X185551657Y-94549905D01*
X185443343Y-94487370D01*
X185368996Y-94467449D01*
X185985922Y-93850524D01*
X185985921Y-93850523D01*
X185941359Y-93818147D01*
X185941350Y-93818141D01*
X185759031Y-93725244D01*
X185564417Y-93662009D01*
X185362317Y-93630000D01*
X185157683Y-93630000D01*
X184955582Y-93662009D01*
X184760968Y-93725244D01*
X184578644Y-93818143D01*
X184534077Y-93850523D01*
X184534077Y-93850524D01*
X185151003Y-94467449D01*
X185076657Y-94487370D01*
X184968343Y-94549905D01*
X184879905Y-94638343D01*
X184817370Y-94746657D01*
X184797449Y-94821002D01*
X184180524Y-94204077D01*
X184180523Y-94204077D01*
X184148143Y-94248644D01*
X184055244Y-94430968D01*
X183992009Y-94625582D01*
X183960000Y-94827682D01*
X183960000Y-95032317D01*
X183992009Y-95234417D01*
X184055244Y-95429031D01*
X184148141Y-95611350D01*
X184148147Y-95611359D01*
X184180523Y-95655921D01*
X184180524Y-95655922D01*
X184797449Y-95038997D01*
X184817370Y-95113343D01*
X184879905Y-95221657D01*
X184968343Y-95310095D01*
X185076657Y-95372630D01*
X185151002Y-95392550D01*
X184534076Y-96009474D01*
X184578652Y-96041861D01*
X184632376Y-96069234D01*
X184683172Y-96117208D01*
X184699968Y-96185028D01*
X184677431Y-96251164D01*
X184632379Y-96290203D01*
X184578386Y-96317714D01*
X184412786Y-96438028D01*
X184268028Y-96582786D01*
X184147715Y-96748386D01*
X184054781Y-96930776D01*
X183991522Y-97125465D01*
X183959500Y-97327648D01*
X180690500Y-97327648D01*
X180690499Y-96748390D01*
X180690499Y-95819629D01*
X180690498Y-95819623D01*
X180690497Y-95819616D01*
X180684091Y-95760017D01*
X180633796Y-95625169D01*
X180633795Y-95625168D01*
X180633793Y-95625164D01*
X180547547Y-95509955D01*
X180547544Y-95509952D01*
X180432335Y-95423706D01*
X180432326Y-95423701D01*
X180403974Y-95413127D01*
X180348040Y-95371257D01*
X180323622Y-95305792D01*
X180338473Y-95237519D01*
X180346988Y-95224059D01*
X180479788Y-95041276D01*
X180583582Y-94837570D01*
X180600827Y-94784497D01*
X180600827Y-94784496D01*
X180654233Y-94620132D01*
X180654233Y-94620129D01*
X180668509Y-94530000D01*
X179680748Y-94530000D01*
X179702518Y-94492292D01*
X179740000Y-94352409D01*
X179740000Y-94207591D01*
X179702518Y-94067708D01*
X179680748Y-94030000D01*
X180668509Y-94030000D01*
X180654233Y-93939870D01*
X180654232Y-93939865D01*
X180653011Y-93936106D01*
X180653009Y-93936101D01*
X180583582Y-93722431D01*
X180479786Y-93518720D01*
X180440650Y-93464853D01*
X180440648Y-93464851D01*
X180345402Y-93333758D01*
X180345402Y-93333757D01*
X180183742Y-93172097D01*
X180099135Y-93110626D01*
X180056470Y-93055296D01*
X180050491Y-92985682D01*
X180083097Y-92923887D01*
X180099125Y-92909999D01*
X180184066Y-92848286D01*
X180345786Y-92686566D01*
X180480217Y-92501538D01*
X180584048Y-92297758D01*
X180599238Y-92251009D01*
X180654721Y-92080249D01*
X180654721Y-92080248D01*
X180654722Y-92080245D01*
X180690500Y-91854354D01*
X180690500Y-91728905D01*
X185970000Y-91728905D01*
X185970000Y-91991094D01*
X186004220Y-92251009D01*
X186004222Y-92251020D01*
X186072075Y-92504255D01*
X186172404Y-92746471D01*
X186172409Y-92746482D01*
X186303488Y-92973516D01*
X186303494Y-92973524D01*
X186390080Y-93086365D01*
X186997912Y-92478532D01*
X187092829Y-92609175D01*
X187220825Y-92737171D01*
X187351465Y-92832086D01*
X186743633Y-93439917D01*
X186743633Y-93439918D01*
X186856475Y-93526505D01*
X186856483Y-93526511D01*
X187083517Y-93657590D01*
X187083528Y-93657595D01*
X187325744Y-93757924D01*
X187578979Y-93825777D01*
X187578990Y-93825779D01*
X187838905Y-93859999D01*
X187838920Y-93860000D01*
X188101080Y-93860000D01*
X188101094Y-93859999D01*
X188361009Y-93825779D01*
X188361020Y-93825777D01*
X188614255Y-93757924D01*
X188856471Y-93657595D01*
X188856482Y-93657590D01*
X189083516Y-93526511D01*
X189083534Y-93526499D01*
X189196365Y-93439919D01*
X189196365Y-93439917D01*
X188588534Y-92832086D01*
X188719175Y-92737171D01*
X188847171Y-92609175D01*
X188942086Y-92478534D01*
X189549917Y-93086365D01*
X189549919Y-93086365D01*
X189636499Y-92973534D01*
X189636511Y-92973516D01*
X189767590Y-92746482D01*
X189767595Y-92746471D01*
X189867924Y-92504255D01*
X189935777Y-92251020D01*
X189935779Y-92251009D01*
X189969999Y-91991094D01*
X189970000Y-91991080D01*
X189970000Y-91728919D01*
X189969999Y-91728905D01*
X189935779Y-91468990D01*
X189935777Y-91468979D01*
X189867924Y-91215744D01*
X189767595Y-90973528D01*
X189767590Y-90973517D01*
X189636511Y-90746483D01*
X189636505Y-90746475D01*
X189549918Y-90633633D01*
X189549917Y-90633633D01*
X188942085Y-91241465D01*
X188847171Y-91110825D01*
X188719175Y-90982829D01*
X188588532Y-90887912D01*
X189196365Y-90280080D01*
X189083524Y-90193494D01*
X189083516Y-90193488D01*
X188856482Y-90062409D01*
X188856471Y-90062404D01*
X188614255Y-89962075D01*
X188361020Y-89894222D01*
X188361009Y-89894220D01*
X188101094Y-89860000D01*
X187838905Y-89860000D01*
X187578990Y-89894220D01*
X187578979Y-89894222D01*
X187325744Y-89962075D01*
X187083528Y-90062404D01*
X187083517Y-90062409D01*
X186856471Y-90193496D01*
X186743633Y-90280079D01*
X186743633Y-90280080D01*
X187351466Y-90887913D01*
X187220825Y-90982829D01*
X187092829Y-91110825D01*
X186997913Y-91241466D01*
X186390080Y-90633633D01*
X186390079Y-90633633D01*
X186303496Y-90746471D01*
X186172409Y-90973517D01*
X186172404Y-90973528D01*
X186072075Y-91215744D01*
X186004222Y-91468979D01*
X186004220Y-91468990D01*
X185970000Y-91728905D01*
X180690500Y-91728905D01*
X180690500Y-91625646D01*
X180654722Y-91399755D01*
X180654721Y-91399751D01*
X180654721Y-91399750D01*
X180584049Y-91182244D01*
X180480216Y-90978461D01*
X180476624Y-90973517D01*
X180345786Y-90793434D01*
X180184066Y-90631714D01*
X179999038Y-90497283D01*
X179833054Y-90412710D01*
X179795255Y-90393450D01*
X179577748Y-90322778D01*
X179408326Y-90295944D01*
X179351854Y-90287000D01*
X179028146Y-90287000D01*
X178952849Y-90298926D01*
X178802253Y-90322778D01*
X178802250Y-90322778D01*
X178584744Y-90393450D01*
X178380961Y-90497283D01*
X178324263Y-90538477D01*
X178195934Y-90631714D01*
X178195932Y-90631716D01*
X178195931Y-90631716D01*
X178034216Y-90793431D01*
X178034216Y-90793432D01*
X178034214Y-90793434D01*
X177976480Y-90872896D01*
X177899783Y-90978461D01*
X177795950Y-91182244D01*
X177725278Y-91399750D01*
X177725278Y-91399753D01*
X177704500Y-91530939D01*
X177689500Y-91625646D01*
X165584968Y-91625646D01*
X165610352Y-91590708D01*
X165641462Y-91547889D01*
X165672842Y-91504697D01*
X165718870Y-91441345D01*
X165833241Y-91216879D01*
X165911090Y-90977285D01*
X165950500Y-90728462D01*
X165950500Y-89176538D01*
X165911090Y-88927715D01*
X165833241Y-88688121D01*
X165833239Y-88688118D01*
X165833239Y-88688116D01*
X165782555Y-88588644D01*
X165718870Y-88463655D01*
X165679367Y-88409283D01*
X165570798Y-88259850D01*
X165570794Y-88259845D01*
X165392654Y-88081705D01*
X165392649Y-88081701D01*
X165188848Y-87933632D01*
X165188847Y-87933631D01*
X165188845Y-87933630D01*
X165118747Y-87897913D01*
X164964383Y-87819260D01*
X164724785Y-87741410D01*
X164475962Y-87702000D01*
X164224038Y-87702000D01*
X164099626Y-87721705D01*
X163975214Y-87741410D01*
X163735616Y-87819260D01*
X163511151Y-87933632D01*
X163307350Y-88081700D01*
X163215487Y-88173562D01*
X163154163Y-88207046D01*
X163114553Y-88209169D01*
X163105522Y-88208198D01*
X163047873Y-88202000D01*
X163047865Y-88202000D01*
X161452129Y-88202000D01*
X161452123Y-88202001D01*
X161392516Y-88208408D01*
X161257671Y-88258702D01*
X161257664Y-88258706D01*
X161142455Y-88344952D01*
X161113765Y-88383277D01*
X161057830Y-88425148D01*
X160988139Y-88430131D01*
X160941613Y-88409283D01*
X160905405Y-88382976D01*
X160730029Y-88293617D01*
X160542826Y-88232790D01*
X160348422Y-88202000D01*
X160348417Y-88202000D01*
X160151583Y-88202000D01*
X160151578Y-88202000D01*
X159957173Y-88232790D01*
X159769970Y-88293617D01*
X159594594Y-88382976D01*
X159529692Y-88430131D01*
X159435354Y-88498672D01*
X159435352Y-88498674D01*
X159435350Y-88498675D01*
X159337325Y-88596699D01*
X159276002Y-88630183D01*
X159206310Y-88625198D01*
X159161964Y-88596698D01*
X159064321Y-88499055D01*
X158905143Y-88383404D01*
X158729835Y-88294081D01*
X158542705Y-88233278D01*
X158500000Y-88226514D01*
X158500000Y-89636814D01*
X158495606Y-89632420D01*
X158404394Y-89579759D01*
X158302661Y-89552500D01*
X158197339Y-89552500D01*
X158095606Y-89579759D01*
X158004394Y-89632420D01*
X158000000Y-89636814D01*
X158000000Y-88226514D01*
X157999999Y-88226514D01*
X157957294Y-88233278D01*
X157770161Y-88294082D01*
X157591209Y-88385262D01*
X157522540Y-88398158D01*
X157457800Y-88371881D01*
X157434597Y-88347662D01*
X157370798Y-88259850D01*
X157370794Y-88259845D01*
X157192654Y-88081705D01*
X157192649Y-88081701D01*
X156988848Y-87933632D01*
X156988847Y-87933631D01*
X156988845Y-87933630D01*
X156918747Y-87897913D01*
X156764383Y-87819260D01*
X156524785Y-87741410D01*
X156275962Y-87702000D01*
X156024038Y-87702000D01*
X155899626Y-87721705D01*
X155775214Y-87741410D01*
X155535616Y-87819260D01*
X155311151Y-87933632D01*
X155107350Y-88081701D01*
X155107345Y-88081705D01*
X154929205Y-88259845D01*
X154929201Y-88259850D01*
X154781132Y-88463651D01*
X154666760Y-88688116D01*
X154588910Y-88927714D01*
X154587477Y-88936760D01*
X154549500Y-89176538D01*
X147820000Y-89176538D01*
X147820000Y-89167682D01*
X147787990Y-88965582D01*
X147724755Y-88770968D01*
X147631859Y-88588650D01*
X147599474Y-88544077D01*
X147599474Y-88544076D01*
X146920000Y-89223551D01*
X146920000Y-89217339D01*
X146892741Y-89115606D01*
X146840080Y-89024394D01*
X146765606Y-88949920D01*
X146674394Y-88897259D01*
X146572661Y-88870000D01*
X146566446Y-88870000D01*
X147245922Y-88190524D01*
X147245921Y-88190523D01*
X147201359Y-88158147D01*
X147201350Y-88158141D01*
X147019031Y-88065244D01*
X146824417Y-88002009D01*
X146622317Y-87970000D01*
X146417683Y-87970000D01*
X146215582Y-88002009D01*
X146020968Y-88065244D01*
X145838644Y-88158143D01*
X145794077Y-88190523D01*
X145794077Y-88190524D01*
X146473554Y-88870000D01*
X146467339Y-88870000D01*
X146365606Y-88897259D01*
X146274394Y-88949920D01*
X146199920Y-89024394D01*
X146147259Y-89115606D01*
X146120000Y-89217339D01*
X146120000Y-89223553D01*
X145440524Y-88544077D01*
X145440523Y-88544077D01*
X145408143Y-88588644D01*
X145360765Y-88681630D01*
X145312790Y-88732426D01*
X145244969Y-88749221D01*
X145178834Y-88726683D01*
X145139795Y-88681630D01*
X145117490Y-88637854D01*
X145092287Y-88588390D01*
X145092285Y-88588387D01*
X145092284Y-88588385D01*
X144971971Y-88422786D01*
X144827213Y-88278028D01*
X144661613Y-88157715D01*
X144661612Y-88157714D01*
X144661610Y-88157713D01*
X144601898Y-88127288D01*
X144479223Y-88064781D01*
X144284534Y-88001522D01*
X144109995Y-87973878D01*
X144082352Y-87969500D01*
X143877648Y-87969500D01*
X143853329Y-87973351D01*
X143675465Y-88001522D01*
X143480776Y-88064781D01*
X143298386Y-88157715D01*
X143132786Y-88278028D01*
X142988028Y-88422786D01*
X142867715Y-88588386D01*
X142820485Y-88681080D01*
X142772510Y-88731876D01*
X142704689Y-88748671D01*
X142638554Y-88726134D01*
X142599515Y-88681080D01*
X142577490Y-88637854D01*
X142552287Y-88588390D01*
X142520092Y-88544077D01*
X142431971Y-88422786D01*
X142287213Y-88278028D01*
X142121613Y-88157715D01*
X142121612Y-88157714D01*
X142121610Y-88157713D01*
X142061898Y-88127288D01*
X141939223Y-88064781D01*
X141744534Y-88001522D01*
X141569995Y-87973878D01*
X141542352Y-87969500D01*
X141337648Y-87969500D01*
X141313329Y-87973351D01*
X141135465Y-88001522D01*
X140940776Y-88064781D01*
X140758386Y-88157715D01*
X140592786Y-88278028D01*
X140448028Y-88422786D01*
X140327715Y-88588386D01*
X140280485Y-88681080D01*
X140232510Y-88731876D01*
X140164689Y-88748671D01*
X140098554Y-88726134D01*
X140059515Y-88681080D01*
X140037490Y-88637854D01*
X140012287Y-88588390D01*
X139980092Y-88544077D01*
X139891971Y-88422786D01*
X139747213Y-88278028D01*
X139581613Y-88157715D01*
X139581612Y-88157714D01*
X139581610Y-88157713D01*
X139521898Y-88127288D01*
X139399223Y-88064781D01*
X139204534Y-88001522D01*
X139029995Y-87973878D01*
X139002352Y-87969500D01*
X138797648Y-87969500D01*
X138773329Y-87973351D01*
X138595465Y-88001522D01*
X138400776Y-88064781D01*
X138218386Y-88157715D01*
X138052786Y-88278028D01*
X137908028Y-88422786D01*
X137787715Y-88588386D01*
X137740485Y-88681080D01*
X137692510Y-88731876D01*
X137624689Y-88748671D01*
X137558554Y-88726134D01*
X137519515Y-88681080D01*
X137497490Y-88637854D01*
X137472287Y-88588390D01*
X137440092Y-88544077D01*
X137351971Y-88422786D01*
X137207213Y-88278028D01*
X137041613Y-88157715D01*
X137041612Y-88157714D01*
X137041610Y-88157713D01*
X136981898Y-88127288D01*
X136859223Y-88064781D01*
X136664534Y-88001522D01*
X136489995Y-87973878D01*
X136462352Y-87969500D01*
X136257648Y-87969500D01*
X136233329Y-87973351D01*
X136055465Y-88001522D01*
X135860776Y-88064781D01*
X135678386Y-88157715D01*
X135512786Y-88278028D01*
X135368028Y-88422786D01*
X135247715Y-88588386D01*
X135200485Y-88681080D01*
X135152510Y-88731876D01*
X135084689Y-88748671D01*
X135018554Y-88726134D01*
X134979515Y-88681080D01*
X134957490Y-88637854D01*
X134932287Y-88588390D01*
X134900092Y-88544077D01*
X134811971Y-88422786D01*
X134667213Y-88278028D01*
X134501613Y-88157715D01*
X134501612Y-88157714D01*
X134501610Y-88157713D01*
X134441898Y-88127288D01*
X134319223Y-88064781D01*
X134124534Y-88001522D01*
X133949995Y-87973878D01*
X133922352Y-87969500D01*
X133717648Y-87969500D01*
X133693329Y-87973351D01*
X133515465Y-88001522D01*
X133320776Y-88064781D01*
X133138386Y-88157715D01*
X132972786Y-88278028D01*
X132828028Y-88422786D01*
X132707715Y-88588386D01*
X132660485Y-88681080D01*
X132612510Y-88731876D01*
X132544689Y-88748671D01*
X132478554Y-88726134D01*
X132439515Y-88681080D01*
X132417490Y-88637854D01*
X132392287Y-88588390D01*
X132360092Y-88544077D01*
X132271971Y-88422786D01*
X132127213Y-88278028D01*
X131961613Y-88157715D01*
X131961612Y-88157714D01*
X131961610Y-88157713D01*
X131901898Y-88127288D01*
X131779223Y-88064781D01*
X131584534Y-88001522D01*
X131409995Y-87973878D01*
X131382352Y-87969500D01*
X131177648Y-87969500D01*
X131153329Y-87973351D01*
X130975465Y-88001522D01*
X130780776Y-88064781D01*
X130598386Y-88157715D01*
X130432786Y-88278028D01*
X130288032Y-88422782D01*
X130288029Y-88422786D01*
X130219978Y-88516451D01*
X130164648Y-88559117D01*
X130095035Y-88565096D01*
X130033240Y-88532490D01*
X130001954Y-88482570D01*
X129974814Y-88400666D01*
X129882712Y-88251344D01*
X129758656Y-88127288D01*
X129609334Y-88035186D01*
X129442797Y-87980001D01*
X129442795Y-87980000D01*
X129340010Y-87969500D01*
X128139998Y-87969500D01*
X128139981Y-87969501D01*
X128037203Y-87980000D01*
X128037200Y-87980001D01*
X127870668Y-88035185D01*
X127870663Y-88035187D01*
X127721342Y-88127289D01*
X127597289Y-88251342D01*
X127505187Y-88400663D01*
X127505185Y-88400668D01*
X127497858Y-88422781D01*
X127450001Y-88567203D01*
X127450001Y-88567204D01*
X127450000Y-88567204D01*
X127439500Y-88669983D01*
X126540500Y-88669983D01*
X126540500Y-87170097D01*
X126560185Y-87103058D01*
X126576819Y-87082416D01*
X128630056Y-85029179D01*
X130744587Y-82914647D01*
X130805908Y-82881164D01*
X130870584Y-82884398D01*
X130904910Y-82895552D01*
X130975465Y-82918477D01*
X131076557Y-82934488D01*
X131177648Y-82950500D01*
X131177649Y-82950500D01*
X131382351Y-82950500D01*
X131382352Y-82950500D01*
X131584534Y-82918477D01*
X131779219Y-82855220D01*
X131961610Y-82762287D01*
X132054590Y-82694732D01*
X132127213Y-82641971D01*
X132127215Y-82641968D01*
X132127219Y-82641966D01*
X132271966Y-82497219D01*
X132271968Y-82497215D01*
X132271971Y-82497213D01*
X132392284Y-82331614D01*
X132392286Y-82331611D01*
X132392287Y-82331610D01*
X132439516Y-82238917D01*
X132487489Y-82188123D01*
X132555310Y-82171328D01*
X132621445Y-82193865D01*
X132660485Y-82238919D01*
X132707715Y-82331614D01*
X132828028Y-82497213D01*
X132972786Y-82641971D01*
X133093226Y-82729474D01*
X133138390Y-82762287D01*
X133219499Y-82803614D01*
X133320776Y-82855218D01*
X133320778Y-82855218D01*
X133320781Y-82855220D01*
X133410585Y-82884399D01*
X133515465Y-82918477D01*
X133616557Y-82934488D01*
X133717648Y-82950500D01*
X133717649Y-82950500D01*
X133922351Y-82950500D01*
X133922352Y-82950500D01*
X134124534Y-82918477D01*
X134319219Y-82855220D01*
X134501610Y-82762287D01*
X134594590Y-82694732D01*
X134667213Y-82641971D01*
X134667215Y-82641968D01*
X134667219Y-82641966D01*
X134811966Y-82497219D01*
X134811968Y-82497215D01*
X134811971Y-82497213D01*
X134932286Y-82331611D01*
X134932415Y-82331359D01*
X134979795Y-82238369D01*
X135027769Y-82187573D01*
X135095590Y-82170778D01*
X135161725Y-82193315D01*
X135200765Y-82238369D01*
X135248141Y-82331350D01*
X135248147Y-82331359D01*
X135280523Y-82375921D01*
X135280524Y-82375922D01*
X135960000Y-81696446D01*
X135960000Y-81702661D01*
X135987259Y-81804394D01*
X136039920Y-81895606D01*
X136114394Y-81970080D01*
X136205606Y-82022741D01*
X136307339Y-82050000D01*
X136313553Y-82050000D01*
X135634076Y-82729474D01*
X135678650Y-82761859D01*
X135860968Y-82854755D01*
X136055582Y-82917990D01*
X136257683Y-82950000D01*
X136462317Y-82950000D01*
X136664417Y-82917990D01*
X136859031Y-82854755D01*
X137041349Y-82761859D01*
X137085921Y-82729474D01*
X136406447Y-82050000D01*
X136412661Y-82050000D01*
X136514394Y-82022741D01*
X136605606Y-81970080D01*
X136680080Y-81895606D01*
X136732741Y-81804394D01*
X136760000Y-81702661D01*
X136760000Y-81696447D01*
X137439474Y-82375921D01*
X137471861Y-82331347D01*
X137471861Y-82331346D01*
X137519234Y-82238371D01*
X137567208Y-82187575D01*
X137635028Y-82170779D01*
X137701164Y-82193316D01*
X137740203Y-82238369D01*
X137787713Y-82331611D01*
X137908028Y-82497213D01*
X138052786Y-82641971D01*
X138173226Y-82729474D01*
X138218390Y-82762287D01*
X138299499Y-82803614D01*
X138400776Y-82855218D01*
X138400778Y-82855218D01*
X138400781Y-82855220D01*
X138490585Y-82884399D01*
X138595465Y-82918477D01*
X138696557Y-82934488D01*
X138797648Y-82950500D01*
X138797649Y-82950500D01*
X139002351Y-82950500D01*
X139002352Y-82950500D01*
X139204534Y-82918477D01*
X139399219Y-82855220D01*
X139581610Y-82762287D01*
X139674590Y-82694732D01*
X139747213Y-82641971D01*
X139747215Y-82641968D01*
X139747219Y-82641966D01*
X139891966Y-82497219D01*
X139891968Y-82497215D01*
X139891971Y-82497213D01*
X140012284Y-82331614D01*
X140012286Y-82331611D01*
X140012287Y-82331610D01*
X140059516Y-82238917D01*
X140107489Y-82188123D01*
X140175310Y-82171328D01*
X140241445Y-82193865D01*
X140280485Y-82238919D01*
X140327715Y-82331614D01*
X140448028Y-82497213D01*
X140448034Y-82497219D01*
X140592781Y-82641966D01*
X140758390Y-82762287D01*
X140771793Y-82769116D01*
X140822589Y-82817088D01*
X140839500Y-82879601D01*
X140839500Y-83443330D01*
X140839499Y-83443348D01*
X140839499Y-83609054D01*
X140839498Y-83609054D01*
X140880423Y-83761785D01*
X140885088Y-83769864D01*
X140885089Y-83769870D01*
X140885091Y-83769870D01*
X140959477Y-83898712D01*
X140959481Y-83898717D01*
X141078349Y-84017585D01*
X141078354Y-84017589D01*
X144001284Y-86940520D01*
X144001286Y-86940521D01*
X144001290Y-86940524D01*
X144129481Y-87014534D01*
X144138216Y-87019577D01*
X144290943Y-87060501D01*
X144290945Y-87060501D01*
X144456654Y-87060501D01*
X144456670Y-87060500D01*
X168049934Y-87060500D01*
X168116973Y-87080185D01*
X168162728Y-87132989D01*
X168172672Y-87202147D01*
X168150252Y-87257385D01*
X168133242Y-87280797D01*
X168047454Y-87449163D01*
X167989059Y-87628881D01*
X167959500Y-87815513D01*
X167959500Y-88004486D01*
X167989059Y-88191118D01*
X168047454Y-88370836D01*
X168121649Y-88516451D01*
X168133240Y-88539199D01*
X168244310Y-88692073D01*
X168377927Y-88825690D01*
X168530801Y-88936760D01*
X168587140Y-88965466D01*
X168699163Y-89022545D01*
X168699165Y-89022545D01*
X168699168Y-89022547D01*
X168795497Y-89053846D01*
X168878881Y-89080940D01*
X169065514Y-89110500D01*
X169065519Y-89110500D01*
X169254486Y-89110500D01*
X169441118Y-89080940D01*
X169620832Y-89022547D01*
X169789199Y-88936760D01*
X169942073Y-88825690D01*
X170075690Y-88692073D01*
X170186760Y-88539199D01*
X170272547Y-88370832D01*
X170330940Y-88191118D01*
X170336163Y-88158141D01*
X170360500Y-88004486D01*
X170360500Y-87815513D01*
X170330940Y-87628881D01*
X170272545Y-87449163D01*
X170215899Y-87337990D01*
X170186760Y-87280801D01*
X170182367Y-87274755D01*
X170169748Y-87257385D01*
X170146268Y-87191579D01*
X170162094Y-87123525D01*
X170212199Y-87074830D01*
X170270066Y-87060500D01*
X171289934Y-87060500D01*
X171356973Y-87080185D01*
X171402728Y-87132989D01*
X171412672Y-87202147D01*
X171390252Y-87257385D01*
X171373242Y-87280797D01*
X171287454Y-87449163D01*
X171229059Y-87628881D01*
X171199500Y-87815513D01*
X171199500Y-88004486D01*
X171229059Y-88191118D01*
X171287454Y-88370836D01*
X171361649Y-88516451D01*
X171373240Y-88539199D01*
X171484310Y-88692073D01*
X171617927Y-88825690D01*
X171770801Y-88936760D01*
X171827140Y-88965466D01*
X171939163Y-89022545D01*
X171939165Y-89022545D01*
X171939168Y-89022547D01*
X172035497Y-89053846D01*
X172118881Y-89080940D01*
X172305514Y-89110500D01*
X172305519Y-89110500D01*
X172494486Y-89110500D01*
X172681118Y-89080940D01*
X172860832Y-89022547D01*
X173029199Y-88936760D01*
X173182073Y-88825690D01*
X173315690Y-88692073D01*
X173426760Y-88539199D01*
X173512547Y-88370832D01*
X173570940Y-88191118D01*
X173576163Y-88158141D01*
X173600500Y-88004486D01*
X173600500Y-87815513D01*
X173570940Y-87628881D01*
X173512545Y-87449163D01*
X173455899Y-87337990D01*
X173426760Y-87280801D01*
X173422367Y-87274755D01*
X173409748Y-87257385D01*
X173386268Y-87191579D01*
X173402094Y-87123525D01*
X173452199Y-87074830D01*
X173510066Y-87060500D01*
X180883331Y-87060500D01*
X180883347Y-87060501D01*
X180890943Y-87060501D01*
X181049054Y-87060501D01*
X181049057Y-87060501D01*
X181201785Y-87019577D01*
X181251904Y-86990639D01*
X181338716Y-86940520D01*
X181450520Y-86828716D01*
X181450520Y-86828714D01*
X181460728Y-86818507D01*
X181460729Y-86818504D01*
X182794664Y-85484571D01*
X182855985Y-85451088D01*
X182858152Y-85450637D01*
X182858841Y-85450500D01*
X182858842Y-85450500D01*
X183013497Y-85419737D01*
X183159179Y-85359394D01*
X183223943Y-85316119D01*
X183290620Y-85295242D01*
X183358000Y-85313726D01*
X183404691Y-85365705D01*
X183415867Y-85434675D01*
X183403319Y-85475517D01*
X183354783Y-85570774D01*
X183354782Y-85570777D01*
X183354780Y-85570781D01*
X183332398Y-85639665D01*
X183291522Y-85765465D01*
X183259500Y-85967648D01*
X183259500Y-86172351D01*
X183291522Y-86374534D01*
X183354781Y-86569223D01*
X183389934Y-86638213D01*
X183447585Y-86751359D01*
X183447715Y-86751613D01*
X183568028Y-86917213D01*
X183712786Y-87061971D01*
X183833226Y-87149474D01*
X183878390Y-87182287D01*
X183994607Y-87241503D01*
X184060776Y-87275218D01*
X184060778Y-87275218D01*
X184060781Y-87275220D01*
X184165137Y-87309127D01*
X184255465Y-87338477D01*
X184356557Y-87354488D01*
X184457648Y-87370500D01*
X184457649Y-87370500D01*
X184662351Y-87370500D01*
X184662352Y-87370500D01*
X184864534Y-87338477D01*
X185059219Y-87275220D01*
X185241610Y-87182287D01*
X185379072Y-87082416D01*
X185407213Y-87061971D01*
X185407215Y-87061968D01*
X185407219Y-87061966D01*
X185551966Y-86917219D01*
X185551968Y-86917215D01*
X185551971Y-86917213D01*
X185623688Y-86818501D01*
X185672287Y-86751610D01*
X185765220Y-86569219D01*
X185828477Y-86374534D01*
X185860500Y-86172352D01*
X185860500Y-85967682D01*
X188260000Y-85967682D01*
X188260000Y-86172317D01*
X188292009Y-86374417D01*
X188355244Y-86569031D01*
X188448141Y-86751350D01*
X188448147Y-86751359D01*
X188480523Y-86795921D01*
X188480524Y-86795922D01*
X189160000Y-86116446D01*
X189160000Y-86122661D01*
X189187259Y-86224394D01*
X189239920Y-86315606D01*
X189314394Y-86390080D01*
X189405606Y-86442741D01*
X189507339Y-86470000D01*
X189513553Y-86470000D01*
X188834076Y-87149474D01*
X188878650Y-87181859D01*
X189060968Y-87274755D01*
X189255582Y-87337990D01*
X189457683Y-87370000D01*
X189662317Y-87370000D01*
X189864417Y-87337990D01*
X190059031Y-87274755D01*
X190241349Y-87181859D01*
X190285921Y-87149474D01*
X189606447Y-86470000D01*
X189612661Y-86470000D01*
X189714394Y-86442741D01*
X189805606Y-86390080D01*
X189880080Y-86315606D01*
X189932741Y-86224394D01*
X189960000Y-86122661D01*
X189960000Y-86116448D01*
X190639474Y-86795922D01*
X190639474Y-86795921D01*
X190671859Y-86751349D01*
X190764755Y-86569031D01*
X190827990Y-86374417D01*
X190860000Y-86172317D01*
X190860000Y-85967682D01*
X190827990Y-85765582D01*
X190764755Y-85570968D01*
X190671859Y-85388650D01*
X190639474Y-85344077D01*
X190639474Y-85344076D01*
X189960000Y-86023551D01*
X189960000Y-86017339D01*
X189932741Y-85915606D01*
X189880080Y-85824394D01*
X189805606Y-85749920D01*
X189714394Y-85697259D01*
X189612661Y-85670000D01*
X189606446Y-85670000D01*
X190285922Y-84990524D01*
X190285921Y-84990523D01*
X190241359Y-84958147D01*
X190241350Y-84958141D01*
X190059031Y-84865244D01*
X189864417Y-84802009D01*
X189662317Y-84770000D01*
X189457683Y-84770000D01*
X189255582Y-84802009D01*
X189060968Y-84865244D01*
X188878644Y-84958143D01*
X188834077Y-84990523D01*
X188834077Y-84990524D01*
X189513554Y-85670000D01*
X189507339Y-85670000D01*
X189405606Y-85697259D01*
X189314394Y-85749920D01*
X189239920Y-85824394D01*
X189187259Y-85915606D01*
X189160000Y-86017339D01*
X189160000Y-86023553D01*
X188480524Y-85344077D01*
X188480523Y-85344077D01*
X188448143Y-85388644D01*
X188355244Y-85570968D01*
X188292009Y-85765582D01*
X188260000Y-85967682D01*
X185860500Y-85967682D01*
X185860500Y-85967648D01*
X185840253Y-85839815D01*
X185828477Y-85765465D01*
X185797458Y-85670000D01*
X185765220Y-85570781D01*
X185765217Y-85570777D01*
X185765217Y-85570774D01*
X185704003Y-85450637D01*
X185672287Y-85388390D01*
X185651223Y-85359397D01*
X185551971Y-85222786D01*
X185407213Y-85078028D01*
X185241613Y-84957715D01*
X185241612Y-84957714D01*
X185241610Y-84957713D01*
X185133406Y-84902580D01*
X185059223Y-84864781D01*
X184864534Y-84801522D01*
X184689995Y-84773878D01*
X184662352Y-84769500D01*
X184457648Y-84769500D01*
X184433329Y-84773351D01*
X184255465Y-84801522D01*
X184060776Y-84864781D01*
X183878387Y-84957714D01*
X183719977Y-85072804D01*
X183654171Y-85096283D01*
X183586117Y-85080457D01*
X183537423Y-85030351D01*
X183523548Y-84961873D01*
X183532530Y-84925037D01*
X183549737Y-84883497D01*
X183580500Y-84728842D01*
X183580500Y-84571158D01*
X183580500Y-84571155D01*
X183580499Y-84571153D01*
X183579814Y-84567708D01*
X183549737Y-84416503D01*
X183518003Y-84339890D01*
X183489397Y-84270827D01*
X183489390Y-84270814D01*
X183401789Y-84139711D01*
X183401786Y-84139707D01*
X183290292Y-84028213D01*
X183290288Y-84028210D01*
X183159185Y-83940609D01*
X183159172Y-83940602D01*
X183013501Y-83880264D01*
X183013489Y-83880261D01*
X182858845Y-83849500D01*
X182858842Y-83849500D01*
X182701158Y-83849500D01*
X182701155Y-83849500D01*
X182546510Y-83880261D01*
X182546498Y-83880264D01*
X182400827Y-83940602D01*
X182400814Y-83940609D01*
X182269711Y-84028210D01*
X182269707Y-84028213D01*
X182158213Y-84139707D01*
X182158210Y-84139711D01*
X182070609Y-84270814D01*
X182070602Y-84270827D01*
X182010264Y-84416498D01*
X182010261Y-84416508D01*
X181979362Y-84571848D01*
X181946977Y-84633759D01*
X181945426Y-84635337D01*
X180757584Y-85823181D01*
X180696261Y-85856666D01*
X180669903Y-85859500D01*
X179293781Y-85859500D01*
X179226742Y-85839815D01*
X179180987Y-85787011D01*
X179171043Y-85717853D01*
X179193463Y-85662614D01*
X179263343Y-85566433D01*
X179370568Y-85355992D01*
X179443553Y-85131368D01*
X179449110Y-85096283D01*
X179480500Y-84898097D01*
X179480500Y-84661902D01*
X179443553Y-84428631D01*
X179392277Y-84270821D01*
X179370568Y-84204008D01*
X179370566Y-84204005D01*
X179370566Y-84204003D01*
X179275583Y-84017590D01*
X179263343Y-83993567D01*
X179124517Y-83802490D01*
X178957510Y-83635483D01*
X178766433Y-83496657D01*
X178555996Y-83389433D01*
X178331368Y-83316446D01*
X178098097Y-83279500D01*
X178098092Y-83279500D01*
X177861908Y-83279500D01*
X177861903Y-83279500D01*
X177628631Y-83316446D01*
X177404003Y-83389433D01*
X177193566Y-83496657D01*
X177110044Y-83557340D01*
X177002490Y-83635483D01*
X177002488Y-83635485D01*
X177002487Y-83635485D01*
X176835485Y-83802487D01*
X176835485Y-83802488D01*
X176835483Y-83802490D01*
X176778979Y-83880261D01*
X176696657Y-83993566D01*
X176589433Y-84204003D01*
X176516446Y-84428631D01*
X176479500Y-84661902D01*
X176479500Y-84898097D01*
X176516446Y-85131368D01*
X176589433Y-85355996D01*
X176696657Y-85566433D01*
X176766537Y-85662614D01*
X176790017Y-85728421D01*
X176774192Y-85796475D01*
X176724086Y-85845170D01*
X176666219Y-85859500D01*
X174793163Y-85859500D01*
X174726124Y-85839815D01*
X174680369Y-85787011D01*
X174670425Y-85717853D01*
X174692845Y-85662615D01*
X174762912Y-85566174D01*
X174870102Y-85355802D01*
X174943065Y-85131247D01*
X174980000Y-84898052D01*
X174980000Y-84661947D01*
X174943065Y-84428752D01*
X174870102Y-84204197D01*
X174762914Y-83993828D01*
X174702658Y-83910894D01*
X174702658Y-83910893D01*
X174003787Y-84609764D01*
X173992518Y-84567708D01*
X173920110Y-84442292D01*
X173817708Y-84339890D01*
X173692292Y-84267482D01*
X173650234Y-84256212D01*
X174349105Y-83557340D01*
X174349104Y-83557338D01*
X174266174Y-83497087D01*
X174055802Y-83389897D01*
X173831247Y-83316934D01*
X173831248Y-83316934D01*
X173598052Y-83280000D01*
X173361948Y-83280000D01*
X173128752Y-83316934D01*
X172904197Y-83389897D01*
X172693830Y-83497084D01*
X172610894Y-83557340D01*
X173309766Y-84256212D01*
X173267708Y-84267482D01*
X173142292Y-84339890D01*
X173039890Y-84442292D01*
X172967482Y-84567708D01*
X172956212Y-84609766D01*
X172257340Y-83910894D01*
X172197084Y-83993830D01*
X172089897Y-84204197D01*
X172016934Y-84428752D01*
X171980000Y-84661947D01*
X171980000Y-84898052D01*
X172016934Y-85131247D01*
X172089897Y-85355802D01*
X172197087Y-85566174D01*
X172267155Y-85662615D01*
X172290635Y-85728421D01*
X172274810Y-85796475D01*
X172224704Y-85845170D01*
X172166837Y-85859500D01*
X170388163Y-85859500D01*
X170321124Y-85839815D01*
X170275369Y-85787011D01*
X170265425Y-85717853D01*
X170287845Y-85662615D01*
X170357912Y-85566174D01*
X170465102Y-85355802D01*
X170538065Y-85131247D01*
X170575000Y-84898052D01*
X170575000Y-84661947D01*
X170538065Y-84428752D01*
X170465102Y-84204197D01*
X170357914Y-83993828D01*
X170297658Y-83910894D01*
X170297658Y-83910893D01*
X169598787Y-84609764D01*
X169587518Y-84567708D01*
X169515110Y-84442292D01*
X169412708Y-84339890D01*
X169287292Y-84267482D01*
X169245234Y-84256212D01*
X169944105Y-83557340D01*
X169944104Y-83557339D01*
X169861174Y-83497087D01*
X169650802Y-83389897D01*
X169426247Y-83316934D01*
X169426248Y-83316934D01*
X169193052Y-83280000D01*
X168956948Y-83280000D01*
X168723752Y-83316934D01*
X168499197Y-83389897D01*
X168288830Y-83497084D01*
X168205894Y-83557340D01*
X168904766Y-84256212D01*
X168862708Y-84267482D01*
X168737292Y-84339890D01*
X168634890Y-84442292D01*
X168562482Y-84567708D01*
X168551212Y-84609766D01*
X167852340Y-83910894D01*
X167792084Y-83993830D01*
X167684897Y-84204197D01*
X167611934Y-84428752D01*
X167575000Y-84661947D01*
X167575000Y-84898052D01*
X167611934Y-85131247D01*
X167684897Y-85355802D01*
X167792087Y-85566174D01*
X167862155Y-85662615D01*
X167885635Y-85728421D01*
X167869810Y-85796475D01*
X167819704Y-85845170D01*
X167761837Y-85859500D01*
X165888781Y-85859500D01*
X165821742Y-85839815D01*
X165775987Y-85787011D01*
X165766043Y-85717853D01*
X165788463Y-85662614D01*
X165858343Y-85566433D01*
X165965568Y-85355992D01*
X166038553Y-85131368D01*
X166044110Y-85096283D01*
X166075500Y-84898097D01*
X166075500Y-84661902D01*
X166038553Y-84428631D01*
X165987277Y-84270821D01*
X165965568Y-84204008D01*
X165965566Y-84204005D01*
X165965566Y-84204003D01*
X165870583Y-84017590D01*
X165858343Y-83993567D01*
X165719517Y-83802490D01*
X165552510Y-83635483D01*
X165361433Y-83496657D01*
X165150996Y-83389433D01*
X164926368Y-83316446D01*
X164693097Y-83279500D01*
X164693092Y-83279500D01*
X164456908Y-83279500D01*
X164456903Y-83279500D01*
X164223631Y-83316446D01*
X163999003Y-83389433D01*
X163788566Y-83496657D01*
X163705044Y-83557340D01*
X163597490Y-83635483D01*
X163597488Y-83635485D01*
X163597487Y-83635485D01*
X163430485Y-83802487D01*
X163430485Y-83802488D01*
X163430483Y-83802490D01*
X163373979Y-83880261D01*
X163291657Y-83993566D01*
X163184433Y-84204003D01*
X163111446Y-84428631D01*
X163074500Y-84661902D01*
X163074500Y-84898097D01*
X163111446Y-85131368D01*
X163184433Y-85355996D01*
X163291657Y-85566433D01*
X163361537Y-85662614D01*
X163385017Y-85728421D01*
X163369192Y-85796475D01*
X163319086Y-85845170D01*
X163261219Y-85859500D01*
X161483781Y-85859500D01*
X161416742Y-85839815D01*
X161370987Y-85787011D01*
X161361043Y-85717853D01*
X161383463Y-85662614D01*
X161453343Y-85566433D01*
X161560568Y-85355992D01*
X161633553Y-85131368D01*
X161639110Y-85096283D01*
X161670500Y-84898097D01*
X161670500Y-84661902D01*
X161633553Y-84428631D01*
X161582277Y-84270821D01*
X161560568Y-84204008D01*
X161560566Y-84204005D01*
X161560566Y-84204003D01*
X161465583Y-84017590D01*
X161453343Y-83993567D01*
X161314517Y-83802490D01*
X161147510Y-83635483D01*
X160956433Y-83496657D01*
X160745996Y-83389433D01*
X160521368Y-83316446D01*
X160288097Y-83279500D01*
X160288092Y-83279500D01*
X160051908Y-83279500D01*
X160051903Y-83279500D01*
X159818631Y-83316446D01*
X159594003Y-83389433D01*
X159383566Y-83496657D01*
X159300044Y-83557340D01*
X159192490Y-83635483D01*
X159192488Y-83635485D01*
X159192487Y-83635485D01*
X159025485Y-83802487D01*
X159025485Y-83802488D01*
X159025483Y-83802490D01*
X158968979Y-83880261D01*
X158886657Y-83993566D01*
X158779433Y-84204003D01*
X158706446Y-84428631D01*
X158669500Y-84661902D01*
X158669500Y-84898097D01*
X158706446Y-85131368D01*
X158779433Y-85355996D01*
X158886657Y-85566433D01*
X158956537Y-85662614D01*
X158980017Y-85728421D01*
X158964192Y-85796475D01*
X158914086Y-85845170D01*
X158856219Y-85859500D01*
X156983781Y-85859500D01*
X156916742Y-85839815D01*
X156870987Y-85787011D01*
X156861043Y-85717853D01*
X156883463Y-85662614D01*
X156953343Y-85566433D01*
X157060568Y-85355992D01*
X157133553Y-85131368D01*
X157139110Y-85096283D01*
X157170500Y-84898097D01*
X157170500Y-84661902D01*
X157133553Y-84428631D01*
X157082277Y-84270821D01*
X157060568Y-84204008D01*
X157060566Y-84204005D01*
X157060566Y-84204003D01*
X156965583Y-84017590D01*
X156953343Y-83993567D01*
X156814517Y-83802490D01*
X156647510Y-83635483D01*
X156456433Y-83496657D01*
X156245996Y-83389433D01*
X156021368Y-83316446D01*
X155788097Y-83279500D01*
X155788092Y-83279500D01*
X155551908Y-83279500D01*
X155551903Y-83279500D01*
X155318631Y-83316446D01*
X155094003Y-83389433D01*
X154883566Y-83496657D01*
X154800044Y-83557340D01*
X154692490Y-83635483D01*
X154692488Y-83635485D01*
X154692487Y-83635485D01*
X154525485Y-83802487D01*
X154525485Y-83802488D01*
X154525483Y-83802490D01*
X154468979Y-83880261D01*
X154386657Y-83993566D01*
X154279433Y-84204003D01*
X154206446Y-84428631D01*
X154169500Y-84661902D01*
X154169500Y-84898097D01*
X154206446Y-85131368D01*
X154279433Y-85355996D01*
X154386657Y-85566433D01*
X154456537Y-85662614D01*
X154480017Y-85728421D01*
X154464192Y-85796475D01*
X154414086Y-85845170D01*
X154356219Y-85859500D01*
X144670098Y-85859500D01*
X144603059Y-85839815D01*
X144582417Y-85823181D01*
X142757118Y-83997882D01*
X151385669Y-83997882D01*
X151385670Y-83997883D01*
X151411059Y-84016329D01*
X151579362Y-84102085D01*
X151758997Y-84160451D01*
X151945553Y-84190000D01*
X152134447Y-84190000D01*
X152321002Y-84160451D01*
X152500637Y-84102085D01*
X152668937Y-84016331D01*
X152694328Y-83997883D01*
X152694328Y-83997882D01*
X152040001Y-83343554D01*
X152040000Y-83343554D01*
X151385669Y-83997882D01*
X142757118Y-83997882D01*
X142076819Y-83317583D01*
X142043334Y-83256260D01*
X142040500Y-83229902D01*
X142040500Y-82879601D01*
X142060185Y-82812562D01*
X142108206Y-82769116D01*
X142121610Y-82762287D01*
X142287219Y-82641966D01*
X142431966Y-82497219D01*
X142431968Y-82497215D01*
X142431971Y-82497213D01*
X142552284Y-82331614D01*
X142552286Y-82331611D01*
X142552287Y-82331610D01*
X142599516Y-82238917D01*
X142647489Y-82188123D01*
X142715310Y-82171328D01*
X142781445Y-82193865D01*
X142820485Y-82238919D01*
X142867715Y-82331614D01*
X142988028Y-82497213D01*
X143132786Y-82641971D01*
X143253226Y-82729474D01*
X143298390Y-82762287D01*
X143379499Y-82803614D01*
X143480776Y-82855218D01*
X143480778Y-82855218D01*
X143480781Y-82855220D01*
X143570585Y-82884399D01*
X143675465Y-82918477D01*
X143776557Y-82934488D01*
X143877648Y-82950500D01*
X143877649Y-82950500D01*
X144082351Y-82950500D01*
X144082352Y-82950500D01*
X144284534Y-82918477D01*
X144479219Y-82855220D01*
X144661610Y-82762287D01*
X144754590Y-82694732D01*
X144827213Y-82641971D01*
X144827215Y-82641968D01*
X144827219Y-82641966D01*
X144971966Y-82497219D01*
X144971968Y-82497215D01*
X144971971Y-82497213D01*
X145092284Y-82331614D01*
X145092286Y-82331611D01*
X145092287Y-82331610D01*
X145139516Y-82238917D01*
X145187489Y-82188123D01*
X145255310Y-82171328D01*
X145321445Y-82193865D01*
X145360485Y-82238919D01*
X145407715Y-82331614D01*
X145528028Y-82497213D01*
X145672786Y-82641971D01*
X145793226Y-82729474D01*
X145838390Y-82762287D01*
X145919499Y-82803614D01*
X146020776Y-82855218D01*
X146020778Y-82855218D01*
X146020781Y-82855220D01*
X146110585Y-82884399D01*
X146215465Y-82918477D01*
X146316557Y-82934488D01*
X146417648Y-82950500D01*
X146417649Y-82950500D01*
X146622351Y-82950500D01*
X146622352Y-82950500D01*
X146824534Y-82918477D01*
X146895090Y-82895552D01*
X150840000Y-82895552D01*
X150840000Y-83084447D01*
X150869548Y-83271002D01*
X150927914Y-83450637D01*
X151013666Y-83618933D01*
X151032116Y-83644328D01*
X151686446Y-82990000D01*
X151686446Y-82989999D01*
X151640369Y-82943922D01*
X151690000Y-82943922D01*
X151690000Y-83036078D01*
X151713852Y-83125095D01*
X151759930Y-83204905D01*
X151825095Y-83270070D01*
X151904905Y-83316148D01*
X151993922Y-83340000D01*
X152086078Y-83340000D01*
X152175095Y-83316148D01*
X152254905Y-83270070D01*
X152320070Y-83204905D01*
X152366148Y-83125095D01*
X152390000Y-83036078D01*
X152390000Y-82989999D01*
X152393554Y-82989999D01*
X152393554Y-82990000D01*
X153047882Y-83644328D01*
X153047883Y-83644328D01*
X153066331Y-83618937D01*
X153152085Y-83450637D01*
X153210451Y-83271002D01*
X153240000Y-83084447D01*
X153240000Y-82895552D01*
X153210451Y-82708997D01*
X153184448Y-82628965D01*
X153173579Y-82595513D01*
X180339500Y-82595513D01*
X180339500Y-82784486D01*
X180369059Y-82971118D01*
X180427454Y-83150836D01*
X180488682Y-83271002D01*
X180513240Y-83319199D01*
X180624310Y-83472073D01*
X180757927Y-83605690D01*
X180910801Y-83716760D01*
X180990347Y-83757290D01*
X181079163Y-83802545D01*
X181079165Y-83802545D01*
X181079168Y-83802547D01*
X181175497Y-83833846D01*
X181258881Y-83860940D01*
X181445514Y-83890500D01*
X181445519Y-83890500D01*
X181634486Y-83890500D01*
X181821118Y-83860940D01*
X181856326Y-83849500D01*
X182000832Y-83802547D01*
X182169199Y-83716760D01*
X182322073Y-83605690D01*
X182455690Y-83472073D01*
X182566760Y-83319199D01*
X182652547Y-83150832D01*
X182710940Y-82971118D01*
X182719211Y-82918899D01*
X182740500Y-82784486D01*
X182740500Y-82595513D01*
X182710940Y-82408881D01*
X182655537Y-82238370D01*
X182652547Y-82229168D01*
X182652545Y-82229165D01*
X182652545Y-82229163D01*
X182566759Y-82060800D01*
X182455690Y-81907927D01*
X182322073Y-81774310D01*
X182169199Y-81663240D01*
X182143212Y-81649999D01*
X182000836Y-81577454D01*
X181821118Y-81519059D01*
X181634486Y-81489500D01*
X181634481Y-81489500D01*
X181445519Y-81489500D01*
X181445514Y-81489500D01*
X181258881Y-81519059D01*
X181079163Y-81577454D01*
X180910800Y-81663240D01*
X180856543Y-81702661D01*
X180757927Y-81774310D01*
X180757925Y-81774312D01*
X180757924Y-81774312D01*
X180624312Y-81907924D01*
X180624312Y-81907925D01*
X180624310Y-81907927D01*
X180593768Y-81949964D01*
X180513240Y-82060800D01*
X180427454Y-82229163D01*
X180369059Y-82408881D01*
X180339500Y-82595513D01*
X153173579Y-82595513D01*
X153152085Y-82529362D01*
X153066329Y-82361059D01*
X153047883Y-82335670D01*
X153047882Y-82335669D01*
X152393554Y-82989999D01*
X152390000Y-82989999D01*
X152390000Y-82943922D01*
X152366148Y-82854905D01*
X152320070Y-82775095D01*
X152254905Y-82709930D01*
X152175095Y-82663852D01*
X152086078Y-82640000D01*
X151993922Y-82640000D01*
X151904905Y-82663852D01*
X151825095Y-82709930D01*
X151759930Y-82775095D01*
X151713852Y-82854905D01*
X151690000Y-82943922D01*
X151640369Y-82943922D01*
X151032116Y-82335669D01*
X151032116Y-82335670D01*
X151013669Y-82361060D01*
X150927914Y-82529362D01*
X150869548Y-82708997D01*
X150840000Y-82895552D01*
X146895090Y-82895552D01*
X147019219Y-82855220D01*
X147201610Y-82762287D01*
X147294590Y-82694732D01*
X147367213Y-82641971D01*
X147367215Y-82641968D01*
X147367219Y-82641966D01*
X147511966Y-82497219D01*
X147511968Y-82497215D01*
X147511971Y-82497213D01*
X147576147Y-82408881D01*
X147632287Y-82331610D01*
X147725220Y-82149219D01*
X147779515Y-81982116D01*
X151385669Y-81982116D01*
X152040000Y-82636446D01*
X152040001Y-82636446D01*
X152694328Y-81982116D01*
X152668933Y-81963666D01*
X152500637Y-81877914D01*
X152321002Y-81819548D01*
X152134447Y-81790000D01*
X151945553Y-81790000D01*
X151758997Y-81819548D01*
X151579362Y-81877914D01*
X151411060Y-81963669D01*
X151385670Y-81982116D01*
X151385669Y-81982116D01*
X147779515Y-81982116D01*
X147788477Y-81954534D01*
X147820500Y-81752352D01*
X147820500Y-81547648D01*
X147788477Y-81345466D01*
X147788475Y-81345462D01*
X147788475Y-81345457D01*
X147777870Y-81312817D01*
X147775875Y-81242976D01*
X147811956Y-81183143D01*
X147874657Y-81152316D01*
X147895801Y-81150500D01*
X162218331Y-81150500D01*
X162218347Y-81150501D01*
X162225943Y-81150501D01*
X162384054Y-81150501D01*
X162384057Y-81150501D01*
X162536785Y-81109577D01*
X162595002Y-81075965D01*
X162673716Y-81030520D01*
X162785520Y-80918716D01*
X162785520Y-80918714D01*
X162795724Y-80908511D01*
X162795728Y-80908506D01*
X163971437Y-79732796D01*
X164032758Y-79699313D01*
X164097433Y-79702547D01*
X164223632Y-79743553D01*
X164311110Y-79757408D01*
X164456903Y-79780500D01*
X164456908Y-79780500D01*
X164693097Y-79780500D01*
X164926368Y-79743553D01*
X164959468Y-79732798D01*
X165150992Y-79670568D01*
X165361433Y-79563343D01*
X165552510Y-79424517D01*
X165719517Y-79257510D01*
X165858343Y-79066433D01*
X165965568Y-78855992D01*
X166038553Y-78631368D01*
X166055291Y-78525687D01*
X166075500Y-78398097D01*
X166075500Y-78161947D01*
X167575000Y-78161947D01*
X167575000Y-78398052D01*
X167611934Y-78631247D01*
X167684897Y-78855802D01*
X167792087Y-79066174D01*
X167852338Y-79149104D01*
X167852340Y-79149105D01*
X168551212Y-78450233D01*
X168562482Y-78492292D01*
X168634890Y-78617708D01*
X168737292Y-78720110D01*
X168862708Y-78792518D01*
X168904765Y-78803787D01*
X168205893Y-79502658D01*
X168288828Y-79562914D01*
X168499197Y-79670102D01*
X168723752Y-79743065D01*
X168723751Y-79743065D01*
X168956948Y-79780000D01*
X169193052Y-79780000D01*
X169426247Y-79743065D01*
X169650802Y-79670102D01*
X169861163Y-79562918D01*
X169861169Y-79562914D01*
X169944104Y-79502658D01*
X169944105Y-79502658D01*
X169245233Y-78803787D01*
X169287292Y-78792518D01*
X169412708Y-78720110D01*
X169515110Y-78617708D01*
X169587518Y-78492292D01*
X169598787Y-78450233D01*
X170297658Y-79149105D01*
X170297658Y-79149104D01*
X170357914Y-79066169D01*
X170357918Y-79066163D01*
X170465102Y-78855802D01*
X170538065Y-78631247D01*
X170575000Y-78398052D01*
X170575000Y-78161947D01*
X171980000Y-78161947D01*
X171980000Y-78398052D01*
X172016934Y-78631247D01*
X172089897Y-78855802D01*
X172197087Y-79066174D01*
X172257338Y-79149104D01*
X172257340Y-79149105D01*
X172956212Y-78450233D01*
X172967482Y-78492292D01*
X173039890Y-78617708D01*
X173142292Y-78720110D01*
X173267708Y-78792518D01*
X173309765Y-78803787D01*
X172610893Y-79502658D01*
X172693828Y-79562914D01*
X172904197Y-79670102D01*
X173128752Y-79743065D01*
X173128751Y-79743065D01*
X173361948Y-79780000D01*
X173598052Y-79780000D01*
X173831247Y-79743065D01*
X174055802Y-79670102D01*
X174266163Y-79562918D01*
X174266169Y-79562914D01*
X174349104Y-79502658D01*
X174349105Y-79502658D01*
X173650233Y-78803787D01*
X173692292Y-78792518D01*
X173817708Y-78720110D01*
X173920110Y-78617708D01*
X173992518Y-78492292D01*
X174003787Y-78450234D01*
X174702658Y-79149105D01*
X174702658Y-79149104D01*
X174762914Y-79066169D01*
X174762918Y-79066163D01*
X174870102Y-78855802D01*
X174943065Y-78631247D01*
X174980000Y-78398052D01*
X174980000Y-78161947D01*
X174979993Y-78161902D01*
X176479500Y-78161902D01*
X176479500Y-78398097D01*
X176516446Y-78631368D01*
X176589433Y-78855996D01*
X176630585Y-78936760D01*
X176696657Y-79066433D01*
X176835483Y-79257510D01*
X177002490Y-79424517D01*
X177193567Y-79563343D01*
X177292991Y-79614002D01*
X177404003Y-79670566D01*
X177404005Y-79670566D01*
X177404008Y-79670568D01*
X177492476Y-79699313D01*
X177628631Y-79743553D01*
X177861903Y-79780500D01*
X177861908Y-79780500D01*
X178098097Y-79780500D01*
X178331368Y-79743553D01*
X178364468Y-79732798D01*
X178555992Y-79670568D01*
X178766433Y-79563343D01*
X178957510Y-79424517D01*
X179124517Y-79257510D01*
X179263343Y-79066433D01*
X179370568Y-78855992D01*
X179443553Y-78631368D01*
X179460291Y-78525687D01*
X179480500Y-78398097D01*
X179480500Y-78161902D01*
X179443553Y-77928631D01*
X179391192Y-77767482D01*
X179370568Y-77704008D01*
X179370566Y-77704005D01*
X179370566Y-77704003D01*
X179300729Y-77566942D01*
X179276120Y-77518644D01*
X179274525Y-77515513D01*
X180339500Y-77515513D01*
X180339500Y-77704486D01*
X180369059Y-77891118D01*
X180427454Y-78070836D01*
X180497135Y-78207591D01*
X180513240Y-78239199D01*
X180624310Y-78392073D01*
X180757927Y-78525690D01*
X180910801Y-78636760D01*
X180990347Y-78677290D01*
X181079163Y-78722545D01*
X181079165Y-78722545D01*
X181079168Y-78722547D01*
X181175497Y-78753846D01*
X181258881Y-78780940D01*
X181445514Y-78810500D01*
X181445519Y-78810500D01*
X181634486Y-78810500D01*
X181821118Y-78780940D01*
X181893061Y-78757564D01*
X182000832Y-78722547D01*
X182169199Y-78636760D01*
X182322073Y-78525690D01*
X182455690Y-78392073D01*
X182566760Y-78239199D01*
X182638884Y-78097648D01*
X183159500Y-78097648D01*
X183159500Y-78302351D01*
X183191522Y-78504534D01*
X183254781Y-78699223D01*
X183318691Y-78824653D01*
X183347585Y-78881359D01*
X183347715Y-78881613D01*
X183468028Y-79047213D01*
X183612786Y-79191971D01*
X183733226Y-79279474D01*
X183778390Y-79312287D01*
X183887179Y-79367718D01*
X183960776Y-79405218D01*
X183960778Y-79405218D01*
X183960781Y-79405220D01*
X184065137Y-79439127D01*
X184155465Y-79468477D01*
X184256557Y-79484488D01*
X184357648Y-79500500D01*
X184357649Y-79500500D01*
X184562351Y-79500500D01*
X184562352Y-79500500D01*
X184764534Y-79468477D01*
X184959219Y-79405220D01*
X185141610Y-79312287D01*
X185234590Y-79244732D01*
X185307213Y-79191971D01*
X185307215Y-79191968D01*
X185307219Y-79191966D01*
X185451966Y-79047219D01*
X185451968Y-79047215D01*
X185451971Y-79047213D01*
X185504732Y-78974590D01*
X185572287Y-78881610D01*
X185665220Y-78699219D01*
X185728477Y-78504534D01*
X185760500Y-78302352D01*
X185760500Y-78097682D01*
X188160000Y-78097682D01*
X188160000Y-78302317D01*
X188192009Y-78504417D01*
X188255244Y-78699031D01*
X188348141Y-78881350D01*
X188348147Y-78881359D01*
X188380523Y-78925921D01*
X188380524Y-78925922D01*
X189060000Y-78246446D01*
X189060000Y-78252661D01*
X189087259Y-78354394D01*
X189139920Y-78445606D01*
X189214394Y-78520080D01*
X189305606Y-78572741D01*
X189407339Y-78600000D01*
X189413553Y-78600000D01*
X188734076Y-79279474D01*
X188778650Y-79311859D01*
X188960968Y-79404755D01*
X189155582Y-79467990D01*
X189357683Y-79500000D01*
X189562317Y-79500000D01*
X189764417Y-79467990D01*
X189959031Y-79404755D01*
X190141349Y-79311859D01*
X190185921Y-79279474D01*
X189506447Y-78600000D01*
X189512661Y-78600000D01*
X189614394Y-78572741D01*
X189705606Y-78520080D01*
X189780080Y-78445606D01*
X189832741Y-78354394D01*
X189860000Y-78252661D01*
X189860000Y-78246447D01*
X190539474Y-78925921D01*
X190571859Y-78881349D01*
X190664755Y-78699031D01*
X190727990Y-78504417D01*
X190760000Y-78302317D01*
X190760000Y-78097682D01*
X190727990Y-77895582D01*
X190664755Y-77700968D01*
X190571859Y-77518650D01*
X190539474Y-77474077D01*
X190539474Y-77474076D01*
X189860000Y-78153551D01*
X189860000Y-78147339D01*
X189832741Y-78045606D01*
X189780080Y-77954394D01*
X189705606Y-77879920D01*
X189614394Y-77827259D01*
X189512661Y-77800000D01*
X189506446Y-77800000D01*
X190185922Y-77120524D01*
X190185921Y-77120523D01*
X190141359Y-77088147D01*
X190141350Y-77088141D01*
X189959031Y-76995244D01*
X189764417Y-76932009D01*
X189562317Y-76900000D01*
X189357683Y-76900000D01*
X189155582Y-76932009D01*
X188960968Y-76995244D01*
X188778644Y-77088143D01*
X188734077Y-77120523D01*
X188734077Y-77120524D01*
X189413554Y-77800000D01*
X189407339Y-77800000D01*
X189305606Y-77827259D01*
X189214394Y-77879920D01*
X189139920Y-77954394D01*
X189087259Y-78045606D01*
X189060000Y-78147339D01*
X189060000Y-78153553D01*
X188380524Y-77474077D01*
X188380523Y-77474077D01*
X188348143Y-77518644D01*
X188255244Y-77700968D01*
X188192009Y-77895582D01*
X188160000Y-78097682D01*
X185760500Y-78097682D01*
X185760500Y-78097648D01*
X185742429Y-77983553D01*
X185728477Y-77895465D01*
X185694615Y-77791249D01*
X185665220Y-77700781D01*
X185665218Y-77700778D01*
X185665218Y-77700776D01*
X185602323Y-77577339D01*
X185572287Y-77518390D01*
X185554252Y-77493567D01*
X185451971Y-77352786D01*
X185307213Y-77208028D01*
X185141613Y-77087715D01*
X185141612Y-77087714D01*
X185141610Y-77087713D01*
X185081996Y-77057338D01*
X184959223Y-76994781D01*
X184764534Y-76931522D01*
X184589995Y-76903878D01*
X184562352Y-76899500D01*
X184357648Y-76899500D01*
X184333329Y-76903351D01*
X184155465Y-76931522D01*
X183960776Y-76994781D01*
X183778386Y-77087715D01*
X183612786Y-77208028D01*
X183468028Y-77352786D01*
X183347715Y-77518386D01*
X183254781Y-77700776D01*
X183191522Y-77895465D01*
X183159500Y-78097648D01*
X182638884Y-78097648D01*
X182652547Y-78070832D01*
X182710940Y-77891118D01*
X182722914Y-77815519D01*
X182740500Y-77704486D01*
X182740500Y-77515513D01*
X182710940Y-77328881D01*
X182652545Y-77149163D01*
X182575058Y-76997087D01*
X182566760Y-76980801D01*
X182455690Y-76827927D01*
X182322073Y-76694310D01*
X182169199Y-76583240D01*
X182000836Y-76497454D01*
X181821118Y-76439059D01*
X181634486Y-76409500D01*
X181634481Y-76409500D01*
X181445519Y-76409500D01*
X181445514Y-76409500D01*
X181258881Y-76439059D01*
X181079163Y-76497454D01*
X180910800Y-76583240D01*
X180835392Y-76638028D01*
X180757927Y-76694310D01*
X180757925Y-76694312D01*
X180757924Y-76694312D01*
X180624312Y-76827924D01*
X180624312Y-76827925D01*
X180624310Y-76827927D01*
X180584123Y-76883240D01*
X180513240Y-76980800D01*
X180427454Y-77149163D01*
X180369059Y-77328881D01*
X180339500Y-77515513D01*
X179274525Y-77515513D01*
X179263343Y-77493567D01*
X179124517Y-77302490D01*
X178957510Y-77135483D01*
X178766433Y-76996657D01*
X178735312Y-76980800D01*
X178555996Y-76889433D01*
X178331368Y-76816446D01*
X178098097Y-76779500D01*
X178098092Y-76779500D01*
X177861908Y-76779500D01*
X177861903Y-76779500D01*
X177628631Y-76816446D01*
X177404003Y-76889433D01*
X177193566Y-76996657D01*
X177110044Y-77057340D01*
X177002490Y-77135483D01*
X177002488Y-77135485D01*
X177002487Y-77135485D01*
X176835485Y-77302487D01*
X176835485Y-77302488D01*
X176835483Y-77302490D01*
X176798941Y-77352786D01*
X176696657Y-77493566D01*
X176589433Y-77704003D01*
X176516446Y-77928631D01*
X176479500Y-78161902D01*
X174979993Y-78161902D01*
X174943065Y-77928752D01*
X174870102Y-77704197D01*
X174762914Y-77493828D01*
X174702658Y-77410894D01*
X174702658Y-77410893D01*
X174003787Y-78109765D01*
X173992518Y-78067708D01*
X173920110Y-77942292D01*
X173817708Y-77839890D01*
X173692292Y-77767482D01*
X173650234Y-77756212D01*
X174349105Y-77057340D01*
X174349104Y-77057338D01*
X174266174Y-76997087D01*
X174055802Y-76889897D01*
X173831247Y-76816934D01*
X173831248Y-76816934D01*
X173598052Y-76780000D01*
X173361948Y-76780000D01*
X173128752Y-76816934D01*
X172904197Y-76889897D01*
X172693830Y-76997084D01*
X172610894Y-77057340D01*
X173309766Y-77756212D01*
X173267708Y-77767482D01*
X173142292Y-77839890D01*
X173039890Y-77942292D01*
X172967482Y-78067708D01*
X172956212Y-78109766D01*
X172257340Y-77410894D01*
X172197084Y-77493830D01*
X172089897Y-77704197D01*
X172016934Y-77928752D01*
X171980000Y-78161947D01*
X170575000Y-78161947D01*
X170538065Y-77928752D01*
X170465102Y-77704197D01*
X170357914Y-77493828D01*
X170297658Y-77410894D01*
X170297658Y-77410893D01*
X169598787Y-78109765D01*
X169587518Y-78067708D01*
X169515110Y-77942292D01*
X169412708Y-77839890D01*
X169287292Y-77767482D01*
X169245234Y-77756212D01*
X169944105Y-77057340D01*
X169944104Y-77057339D01*
X169861174Y-76997087D01*
X169650802Y-76889897D01*
X169426247Y-76816934D01*
X169426248Y-76816934D01*
X169193052Y-76780000D01*
X168956948Y-76780000D01*
X168723752Y-76816934D01*
X168499197Y-76889897D01*
X168288830Y-76997084D01*
X168205894Y-77057340D01*
X168904766Y-77756212D01*
X168862708Y-77767482D01*
X168737292Y-77839890D01*
X168634890Y-77942292D01*
X168562482Y-78067708D01*
X168551212Y-78109766D01*
X167852340Y-77410894D01*
X167792084Y-77493830D01*
X167684897Y-77704197D01*
X167611934Y-77928752D01*
X167575000Y-78161947D01*
X166075500Y-78161947D01*
X166075500Y-78161902D01*
X166038553Y-77928631D01*
X165986192Y-77767482D01*
X165965568Y-77704008D01*
X165965566Y-77704005D01*
X165965566Y-77704003D01*
X165858477Y-77493830D01*
X165858343Y-77493567D01*
X165719517Y-77302490D01*
X165552510Y-77135483D01*
X165361433Y-76996657D01*
X165330312Y-76980800D01*
X165150996Y-76889433D01*
X164926368Y-76816446D01*
X164693097Y-76779500D01*
X164693092Y-76779500D01*
X164456908Y-76779500D01*
X164456903Y-76779500D01*
X164223631Y-76816446D01*
X163999003Y-76889433D01*
X163788566Y-76996657D01*
X163705044Y-77057340D01*
X163597490Y-77135483D01*
X163597488Y-77135485D01*
X163597487Y-77135485D01*
X163430485Y-77302487D01*
X163430485Y-77302488D01*
X163430483Y-77302490D01*
X163393941Y-77352786D01*
X163291657Y-77493566D01*
X163184433Y-77704003D01*
X163111446Y-77928631D01*
X163074500Y-78161902D01*
X163074500Y-78398097D01*
X163111447Y-78631369D01*
X163111447Y-78631372D01*
X163152450Y-78757564D01*
X163154445Y-78827405D01*
X163122200Y-78883563D01*
X162092584Y-79913181D01*
X162031261Y-79946666D01*
X162004903Y-79949500D01*
X160670434Y-79949500D01*
X160603395Y-79929815D01*
X160557640Y-79877011D01*
X160547696Y-79807853D01*
X160576721Y-79744297D01*
X160632115Y-79707569D01*
X160657524Y-79699313D01*
X160745992Y-79670568D01*
X160956433Y-79563343D01*
X161147510Y-79424517D01*
X161314517Y-79257510D01*
X161453343Y-79066433D01*
X161560568Y-78855992D01*
X161633553Y-78631368D01*
X161650291Y-78525687D01*
X161670500Y-78398097D01*
X161670500Y-78161902D01*
X161633553Y-77928631D01*
X161581192Y-77767482D01*
X161560568Y-77704008D01*
X161560566Y-77704005D01*
X161560566Y-77704003D01*
X161453477Y-77493830D01*
X161453343Y-77493567D01*
X161314517Y-77302490D01*
X161147510Y-77135483D01*
X160956433Y-76996657D01*
X160925312Y-76980800D01*
X160745996Y-76889433D01*
X160521368Y-76816446D01*
X160288097Y-76779500D01*
X160288092Y-76779500D01*
X160051908Y-76779500D01*
X160051903Y-76779500D01*
X159818631Y-76816446D01*
X159594003Y-76889433D01*
X159383566Y-76996657D01*
X159300044Y-77057340D01*
X159192490Y-77135483D01*
X159192488Y-77135485D01*
X159192487Y-77135485D01*
X159025485Y-77302487D01*
X159025485Y-77302488D01*
X159025483Y-77302490D01*
X158988941Y-77352786D01*
X158886657Y-77493566D01*
X158779433Y-77704003D01*
X158706446Y-77928631D01*
X158669500Y-78161902D01*
X158669500Y-78398097D01*
X158706446Y-78631368D01*
X158779433Y-78855996D01*
X158820585Y-78936760D01*
X158886657Y-79066433D01*
X159025483Y-79257510D01*
X159192490Y-79424517D01*
X159383567Y-79563343D01*
X159482991Y-79614002D01*
X159594003Y-79670566D01*
X159594005Y-79670566D01*
X159594008Y-79670568D01*
X159682476Y-79699313D01*
X159707885Y-79707569D01*
X159765560Y-79747007D01*
X159792758Y-79811366D01*
X159780843Y-79880212D01*
X159733599Y-79931688D01*
X159669566Y-79949500D01*
X156170434Y-79949500D01*
X156103395Y-79929815D01*
X156057640Y-79877011D01*
X156047696Y-79807853D01*
X156076721Y-79744297D01*
X156132115Y-79707569D01*
X156157524Y-79699313D01*
X156245992Y-79670568D01*
X156456433Y-79563343D01*
X156647510Y-79424517D01*
X156814517Y-79257510D01*
X156953343Y-79066433D01*
X157060568Y-78855992D01*
X157133553Y-78631368D01*
X157150291Y-78525687D01*
X157170500Y-78398097D01*
X157170500Y-78161902D01*
X157133553Y-77928631D01*
X157081192Y-77767482D01*
X157060568Y-77704008D01*
X157060566Y-77704005D01*
X157060566Y-77704003D01*
X156953477Y-77493830D01*
X156953343Y-77493567D01*
X156814517Y-77302490D01*
X156647510Y-77135483D01*
X156456433Y-76996657D01*
X156425312Y-76980800D01*
X156245996Y-76889433D01*
X156021368Y-76816446D01*
X155788097Y-76779500D01*
X155788092Y-76779500D01*
X155551908Y-76779500D01*
X155551903Y-76779500D01*
X155318631Y-76816446D01*
X155094003Y-76889433D01*
X154883566Y-76996657D01*
X154800044Y-77057340D01*
X154692490Y-77135483D01*
X154692488Y-77135485D01*
X154692487Y-77135485D01*
X154525485Y-77302487D01*
X154525485Y-77302488D01*
X154525483Y-77302490D01*
X154488941Y-77352786D01*
X154386657Y-77493566D01*
X154279433Y-77704003D01*
X154206446Y-77928631D01*
X154169500Y-78161902D01*
X154169500Y-78398097D01*
X154206446Y-78631368D01*
X154279433Y-78855996D01*
X154320585Y-78936760D01*
X154386657Y-79066433D01*
X154525483Y-79257510D01*
X154692490Y-79424517D01*
X154883567Y-79563343D01*
X154982991Y-79614002D01*
X155094003Y-79670566D01*
X155094005Y-79670566D01*
X155094008Y-79670568D01*
X155182476Y-79699313D01*
X155207885Y-79707569D01*
X155265560Y-79747007D01*
X155292758Y-79811366D01*
X155280843Y-79880212D01*
X155233599Y-79931688D01*
X155169566Y-79949500D01*
X145166669Y-79949500D01*
X145166653Y-79949499D01*
X145159057Y-79949499D01*
X145000943Y-79949499D01*
X144893587Y-79978265D01*
X144848210Y-79990424D01*
X144848209Y-79990425D01*
X144798096Y-80019359D01*
X144798095Y-80019360D01*
X144754689Y-80044420D01*
X144711285Y-80069479D01*
X144711282Y-80069481D01*
X144599478Y-80181286D01*
X144424842Y-80355921D01*
X144363519Y-80389406D01*
X144298848Y-80386173D01*
X144284534Y-80381522D01*
X144109995Y-80353878D01*
X144082352Y-80349500D01*
X143877648Y-80349500D01*
X143853329Y-80353351D01*
X143675465Y-80381522D01*
X143480776Y-80444781D01*
X143298386Y-80537715D01*
X143132786Y-80658028D01*
X142988028Y-80802786D01*
X142867715Y-80968386D01*
X142820485Y-81061080D01*
X142772510Y-81111876D01*
X142704689Y-81128671D01*
X142638554Y-81106134D01*
X142599515Y-81061080D01*
X142552420Y-80968652D01*
X142552287Y-80968390D01*
X142520092Y-80924077D01*
X142431971Y-80802786D01*
X142287213Y-80658028D01*
X142121613Y-80537715D01*
X142121612Y-80537714D01*
X142121610Y-80537713D01*
X142064653Y-80508691D01*
X141939223Y-80444781D01*
X141744534Y-80381522D01*
X141569995Y-80353878D01*
X141542352Y-80349500D01*
X141337648Y-80349500D01*
X141313329Y-80353351D01*
X141135465Y-80381522D01*
X140940776Y-80444781D01*
X140758386Y-80537715D01*
X140592786Y-80658028D01*
X140448028Y-80802786D01*
X140327715Y-80968386D01*
X140280485Y-81061080D01*
X140232510Y-81111876D01*
X140164689Y-81128671D01*
X140098554Y-81106134D01*
X140059515Y-81061080D01*
X140012420Y-80968652D01*
X140012287Y-80968390D01*
X139980092Y-80924077D01*
X139891971Y-80802786D01*
X139747213Y-80658028D01*
X139581613Y-80537715D01*
X139581612Y-80537714D01*
X139581610Y-80537713D01*
X139524653Y-80508691D01*
X139399223Y-80444781D01*
X139204534Y-80381522D01*
X139029995Y-80353878D01*
X139002352Y-80349500D01*
X138797648Y-80349500D01*
X138773329Y-80353351D01*
X138595465Y-80381522D01*
X138400776Y-80444781D01*
X138218386Y-80537715D01*
X138052786Y-80658028D01*
X137908028Y-80802786D01*
X137787713Y-80968388D01*
X137740203Y-81061630D01*
X137692228Y-81112426D01*
X137624407Y-81129220D01*
X137558272Y-81106682D01*
X137519234Y-81061628D01*
X137471861Y-80968652D01*
X137439474Y-80924077D01*
X137439474Y-80924076D01*
X136760000Y-81603551D01*
X136760000Y-81597339D01*
X136732741Y-81495606D01*
X136680080Y-81404394D01*
X136605606Y-81329920D01*
X136514394Y-81277259D01*
X136412661Y-81250000D01*
X136406446Y-81250000D01*
X137085922Y-80570524D01*
X137085921Y-80570523D01*
X137041359Y-80538147D01*
X137041350Y-80538141D01*
X136859031Y-80445244D01*
X136664417Y-80382009D01*
X136462317Y-80350000D01*
X136257683Y-80350000D01*
X136055582Y-80382009D01*
X135860968Y-80445244D01*
X135678644Y-80538143D01*
X135634077Y-80570523D01*
X135634077Y-80570524D01*
X136313554Y-81250000D01*
X136307339Y-81250000D01*
X136205606Y-81277259D01*
X136114394Y-81329920D01*
X136039920Y-81404394D01*
X135987259Y-81495606D01*
X135960000Y-81597339D01*
X135960000Y-81603553D01*
X135280524Y-80924077D01*
X135280523Y-80924077D01*
X135248143Y-80968644D01*
X135200765Y-81061630D01*
X135152790Y-81112426D01*
X135084969Y-81129221D01*
X135018834Y-81106683D01*
X134979795Y-81061630D01*
X134932284Y-80968385D01*
X134811971Y-80802786D01*
X134667213Y-80658028D01*
X134501613Y-80537715D01*
X134501612Y-80537714D01*
X134501610Y-80537713D01*
X134444653Y-80508691D01*
X134319223Y-80444781D01*
X134124534Y-80381522D01*
X133949995Y-80353878D01*
X133922352Y-80349500D01*
X133717648Y-80349500D01*
X133693329Y-80353351D01*
X133515465Y-80381522D01*
X133320776Y-80444781D01*
X133138386Y-80537715D01*
X132972786Y-80658028D01*
X132828028Y-80802786D01*
X132707715Y-80968386D01*
X132660485Y-81061080D01*
X132612510Y-81111876D01*
X132544689Y-81128671D01*
X132478554Y-81106134D01*
X132439515Y-81061080D01*
X132392420Y-80968652D01*
X132392287Y-80968390D01*
X132360092Y-80924077D01*
X132271971Y-80802786D01*
X132127213Y-80658028D01*
X131961613Y-80537715D01*
X131961612Y-80537714D01*
X131961610Y-80537713D01*
X131904653Y-80508691D01*
X131779223Y-80444781D01*
X131584534Y-80381522D01*
X131409995Y-80353878D01*
X131382352Y-80349500D01*
X131177648Y-80349500D01*
X131153329Y-80353351D01*
X130975465Y-80381522D01*
X130780776Y-80444781D01*
X130598386Y-80537715D01*
X130432786Y-80658028D01*
X130288028Y-80802786D01*
X130167715Y-80968386D01*
X130120485Y-81061080D01*
X130072510Y-81111876D01*
X130004689Y-81128671D01*
X129938554Y-81106134D01*
X129899515Y-81061080D01*
X129852420Y-80968652D01*
X129852287Y-80968390D01*
X129820092Y-80924077D01*
X129731971Y-80802786D01*
X129587213Y-80658028D01*
X129421613Y-80537715D01*
X129421612Y-80537714D01*
X129421610Y-80537713D01*
X129364653Y-80508691D01*
X129239223Y-80444781D01*
X129044534Y-80381522D01*
X128869995Y-80353878D01*
X128842352Y-80349500D01*
X128637648Y-80349500D01*
X128613329Y-80353351D01*
X128435465Y-80381522D01*
X128240776Y-80444781D01*
X128058386Y-80537715D01*
X127892786Y-80658028D01*
X127748028Y-80802786D01*
X127627715Y-80968386D01*
X127534781Y-81150776D01*
X127471522Y-81345465D01*
X127439500Y-81547648D01*
X127439500Y-81752351D01*
X127471522Y-81954534D01*
X127534781Y-82149223D01*
X127598691Y-82274653D01*
X127627585Y-82331359D01*
X127627715Y-82331613D01*
X127748028Y-82497213D01*
X127892786Y-82641971D01*
X128013226Y-82729474D01*
X128058390Y-82762287D01*
X128139499Y-82803614D01*
X128240776Y-82855218D01*
X128240778Y-82855218D01*
X128240781Y-82855220D01*
X128330585Y-82884399D01*
X128435465Y-82918477D01*
X128536557Y-82934488D01*
X128637648Y-82950500D01*
X128637649Y-82950500D01*
X128710901Y-82950500D01*
X128777940Y-82970185D01*
X128823695Y-83022989D01*
X128833639Y-83092147D01*
X128804614Y-83155703D01*
X128798582Y-83162181D01*
X125571286Y-86389478D01*
X125459481Y-86501282D01*
X125459480Y-86501284D01*
X125420258Y-86569219D01*
X125380423Y-86638215D01*
X125339499Y-86790943D01*
X125339499Y-86949057D01*
X125339499Y-86949059D01*
X125339500Y-86959053D01*
X125339500Y-91523330D01*
X125339499Y-91523348D01*
X125339499Y-91689054D01*
X125339498Y-91689054D01*
X123000500Y-91689054D01*
X123000500Y-77527648D01*
X126929500Y-77527648D01*
X126929500Y-77732351D01*
X126961522Y-77934534D01*
X127024781Y-78129223D01*
X127080818Y-78239199D01*
X127117585Y-78311359D01*
X127117715Y-78311613D01*
X127238028Y-78477213D01*
X127382786Y-78621971D01*
X127521217Y-78722545D01*
X127548390Y-78742287D01*
X127624251Y-78780940D01*
X127730776Y-78835218D01*
X127730778Y-78835218D01*
X127730781Y-78835220D01*
X127794126Y-78855802D01*
X127925465Y-78898477D01*
X128026557Y-78914488D01*
X128127648Y-78930500D01*
X128127649Y-78930500D01*
X128332351Y-78930500D01*
X128332352Y-78930500D01*
X128534534Y-78898477D01*
X128729219Y-78835220D01*
X128911610Y-78742287D01*
X129056857Y-78636760D01*
X129077213Y-78621971D01*
X129077215Y-78621968D01*
X129077219Y-78621966D01*
X129221966Y-78477219D01*
X129221968Y-78477215D01*
X129221971Y-78477213D01*
X129299260Y-78370832D01*
X129342287Y-78311610D01*
X129435220Y-78129219D01*
X129498477Y-77934534D01*
X129530500Y-77732352D01*
X129530500Y-77527682D01*
X131930000Y-77527682D01*
X131930000Y-77732317D01*
X131962009Y-77934417D01*
X132025244Y-78129031D01*
X132118141Y-78311350D01*
X132118147Y-78311359D01*
X132150523Y-78355921D01*
X132150524Y-78355922D01*
X132830000Y-77676446D01*
X132830000Y-77682661D01*
X132857259Y-77784394D01*
X132909920Y-77875606D01*
X132984394Y-77950080D01*
X133075606Y-78002741D01*
X133177339Y-78030000D01*
X133183553Y-78030000D01*
X132504076Y-78709474D01*
X132548650Y-78741859D01*
X132730968Y-78834755D01*
X132925582Y-78897990D01*
X133127683Y-78930000D01*
X133332317Y-78930000D01*
X133534417Y-78897990D01*
X133729031Y-78834755D01*
X133911349Y-78741859D01*
X133955921Y-78709474D01*
X133276447Y-78030000D01*
X133282661Y-78030000D01*
X133384394Y-78002741D01*
X133475606Y-77950080D01*
X133550080Y-77875606D01*
X133602741Y-77784394D01*
X133630000Y-77682661D01*
X133630000Y-77676447D01*
X134309474Y-78355921D01*
X134341859Y-78311349D01*
X134434755Y-78129031D01*
X134497990Y-77934417D01*
X134516823Y-77815513D01*
X150839500Y-77815513D01*
X150839500Y-78004486D01*
X150869059Y-78191118D01*
X150927454Y-78370836D01*
X150995518Y-78504417D01*
X151013240Y-78539199D01*
X151124310Y-78692073D01*
X151257927Y-78825690D01*
X151410801Y-78936760D01*
X151490347Y-78977290D01*
X151579163Y-79022545D01*
X151579165Y-79022545D01*
X151579168Y-79022547D01*
X151655082Y-79047213D01*
X151758881Y-79080940D01*
X151945514Y-79110500D01*
X151945519Y-79110500D01*
X152134486Y-79110500D01*
X152321118Y-79080940D01*
X152500832Y-79022547D01*
X152669199Y-78936760D01*
X152822073Y-78825690D01*
X152955690Y-78692073D01*
X153066760Y-78539199D01*
X153152547Y-78370832D01*
X153210940Y-78191118D01*
X153220744Y-78129219D01*
X153240500Y-78004486D01*
X153240500Y-77815513D01*
X153210940Y-77628881D01*
X153174104Y-77515513D01*
X153152547Y-77449168D01*
X153152545Y-77449165D01*
X153152545Y-77449163D01*
X153103438Y-77352786D01*
X153066760Y-77280801D01*
X152955690Y-77127927D01*
X152822073Y-76994310D01*
X152669199Y-76883240D01*
X152500836Y-76797454D01*
X152321118Y-76739059D01*
X152134486Y-76709500D01*
X152134481Y-76709500D01*
X151945519Y-76709500D01*
X151945514Y-76709500D01*
X151758881Y-76739059D01*
X151579163Y-76797454D01*
X151410800Y-76883240D01*
X151323579Y-76946610D01*
X151257927Y-76994310D01*
X151257925Y-76994312D01*
X151257924Y-76994312D01*
X151124312Y-77127924D01*
X151124312Y-77127925D01*
X151124310Y-77127927D01*
X151076610Y-77193579D01*
X151013240Y-77280800D01*
X150927454Y-77449163D01*
X150869059Y-77628881D01*
X150839500Y-77815513D01*
X134516823Y-77815513D01*
X134520666Y-77791249D01*
X134530000Y-77732317D01*
X134530000Y-77527682D01*
X134497990Y-77325582D01*
X134434755Y-77130968D01*
X134341859Y-76948650D01*
X134309474Y-76904077D01*
X134309474Y-76904076D01*
X133630000Y-77583551D01*
X133630000Y-77577339D01*
X133602741Y-77475606D01*
X133550080Y-77384394D01*
X133475606Y-77309920D01*
X133384394Y-77257259D01*
X133282661Y-77230000D01*
X133276446Y-77230000D01*
X133955922Y-76550524D01*
X133955921Y-76550523D01*
X133911359Y-76518147D01*
X133911350Y-76518141D01*
X133729031Y-76425244D01*
X133534417Y-76362009D01*
X133332317Y-76330000D01*
X133127683Y-76330000D01*
X132925582Y-76362009D01*
X132730968Y-76425244D01*
X132548644Y-76518143D01*
X132504077Y-76550523D01*
X132504077Y-76550524D01*
X133183554Y-77230000D01*
X133177339Y-77230000D01*
X133075606Y-77257259D01*
X132984394Y-77309920D01*
X132909920Y-77384394D01*
X132857259Y-77475606D01*
X132830000Y-77577339D01*
X132830000Y-77583553D01*
X132150524Y-76904077D01*
X132150523Y-76904077D01*
X132118143Y-76948644D01*
X132025244Y-77130968D01*
X131962009Y-77325582D01*
X131930000Y-77527682D01*
X129530500Y-77527682D01*
X129530500Y-77527648D01*
X129512008Y-77410893D01*
X129498477Y-77325465D01*
X129441194Y-77149168D01*
X129435220Y-77130781D01*
X129435218Y-77130778D01*
X129435218Y-77130776D01*
X129367099Y-76997087D01*
X129342287Y-76948390D01*
X129310092Y-76904077D01*
X129221971Y-76782786D01*
X129077213Y-76638028D01*
X128911613Y-76517715D01*
X128911612Y-76517714D01*
X128911610Y-76517713D01*
X128854653Y-76488691D01*
X128729223Y-76424781D01*
X128534534Y-76361522D01*
X128359995Y-76333878D01*
X128332352Y-76329500D01*
X128127648Y-76329500D01*
X128103329Y-76333351D01*
X127925465Y-76361522D01*
X127730776Y-76424781D01*
X127548386Y-76517715D01*
X127382786Y-76638028D01*
X127238028Y-76782786D01*
X127117715Y-76948386D01*
X127024781Y-77130776D01*
X126961522Y-77325465D01*
X126929500Y-77527648D01*
X123000500Y-77527648D01*
X123000500Y-75374500D01*
X123020185Y-75307461D01*
X123072989Y-75261706D01*
X123124500Y-75250500D01*
X191035500Y-75250500D01*
X191102539Y-75270185D01*
G37*
%TD.AperFunction*%
%TD*%
M02*
