%TF.GenerationSoftware,KiCad,Pcbnew,9.0.9-9.0.9~ubuntu24.04.1*%
%TF.CreationDate,2026-10-02T11:44:41-04:00*%
%TF.ProjectId,shift-register-control-panel,73686966-742d-4726-9567-69737465722d,rev?*%
%TF.SameCoordinates,Original*%
%TF.FileFunction,Soldermask,Top*%
%TF.FilePolarity,Negative*%
%FSLAX46Y46*%
G04 Gerber Fmt 4.6, Leading zero omitted, Abs format (unit mm)*
G04 Created by KiCad (PCBNEW 9.0.9-9.0.9~ubuntu24.04.1) date 2026-10-02 11:44:41*
%MOMM*%
%LPD*%
G01*
G04 APERTURE LIST*
G04 Aperture macros list*
%AMRoundRect*
0 Rectangle with rounded corners*
0 $1 Rounding radius*
0 $2 $3 $4 $5 $6 $7 $8 $9 X,Y pos of 4 corners*
0 Add a 4 corners polygon primitive as box body*
4,1,4,$2,$3,$4,$5,$6,$7,$8,$9,$2,$3,0*
0 Add four circle primitives for the rounded corners*
1,1,$1+$1,$2,$3*
1,1,$1+$1,$4,$5*
1,1,$1+$1,$6,$7*
1,1,$1+$1,$8,$9*
0 Add four rect primitives between the rounded corners*
20,1,$1+$1,$2,$3,$4,$5,0*
20,1,$1+$1,$4,$5,$6,$7,0*
20,1,$1+$1,$6,$7,$8,$9,0*
20,1,$1+$1,$8,$9,$2,$3,0*%
G04 Aperture macros list end*
%ADD10C,2.101600*%
%ADD11RoundRect,0.265875X-0.584925X-0.584925X0.584925X-0.584925X0.584925X0.584925X-0.584925X0.584925X0*%
%ADD12C,1.701600*%
%ADD13RoundRect,0.050800X0.850000X0.850000X-0.850000X0.850000X-0.850000X-0.850000X0.850000X-0.850000X0*%
%ADD14C,1.801600*%
%ADD15C,1.501600*%
%ADD16RoundRect,0.050800X-1.000000X0.952500X-1.000000X-0.952500X1.000000X-0.952500X1.000000X0.952500X0*%
%ADD17O,2.101600X2.006600*%
%ADD18RoundRect,0.050800X0.900000X-0.900000X0.900000X0.900000X-0.900000X0.900000X-0.900000X-0.900000X0*%
%ADD19C,1.901600*%
%ADD20O,2.301600X3.601600*%
%ADD21RoundRect,0.050800X0.750000X1.250000X-0.750000X1.250000X-0.750000X-1.250000X0.750000X-1.250000X0*%
%ADD22O,1.601600X2.601600*%
%ADD23RoundRect,0.050800X-0.900000X0.900000X-0.900000X-0.900000X0.900000X-0.900000X0.900000X0.900000X0*%
%ADD24RoundRect,0.265875X0.584925X-0.584925X0.584925X0.584925X-0.584925X0.584925X-0.584925X-0.584925X0*%
%ADD25RoundRect,0.050800X0.850000X-0.850000X0.850000X0.850000X-0.850000X0.850000X-0.850000X-0.850000X0*%
G04 APERTURE END LIST*
D10*
%TO.C,SW3*%
X164575000Y-84780000D03*
X164575000Y-78280000D03*
X169075000Y-84780000D03*
X169075000Y-78280000D03*
%TD*%
%TO.C,SW2*%
X177980000Y-78280000D03*
X177980000Y-84780000D03*
X173480000Y-78280000D03*
X173480000Y-84780000D03*
%TD*%
D11*
%TO.C,U3*%
X154380000Y-89130000D03*
D12*
X154380000Y-91670000D03*
X154380000Y-94210000D03*
X154380000Y-96750000D03*
X154380000Y-99290000D03*
X154380000Y-101830000D03*
X154380000Y-104370000D03*
X162000000Y-104370000D03*
X162000000Y-101830000D03*
X162000000Y-99290000D03*
X162000000Y-96750000D03*
X162000000Y-94210000D03*
X162000000Y-91670000D03*
X162000000Y-89130000D03*
%TD*%
D13*
%TO.C,J2*%
X184750000Y-93080000D03*
D14*
X184750000Y-90540000D03*
X184750000Y-88000000D03*
%TD*%
D12*
%TO.C,C3*%
X180250000Y-103750000D03*
X180250000Y-98750000D03*
%TD*%
D15*
%TO.C,R13*%
X180750000Y-88920000D03*
X180750000Y-94000000D03*
%TD*%
%TO.C,R1*%
X127640000Y-97450000D03*
X127640000Y-102530000D03*
%TD*%
%TO.C,R10*%
X181540000Y-77610000D03*
X181540000Y-82690000D03*
%TD*%
D16*
%TO.C,U2*%
X184250000Y-98540000D03*
D17*
X184250000Y-101080000D03*
X184250000Y-103620000D03*
%TD*%
D15*
%TO.C,R8*%
X149780000Y-97450000D03*
X149780000Y-102530000D03*
%TD*%
D18*
%TO.C,D3*%
X143318366Y-112970000D03*
D19*
X143318366Y-110430000D03*
%TD*%
D18*
%TO.C,D5*%
X159103020Y-112970000D03*
D19*
X159103020Y-110430000D03*
%TD*%
D18*
%TO.C,D1*%
X127533713Y-112970000D03*
D19*
X127533713Y-110430000D03*
%TD*%
D15*
%TO.C,R3*%
X133965714Y-97450000D03*
X133965714Y-102530000D03*
%TD*%
D18*
%TO.C,D6*%
X166995347Y-112970000D03*
D19*
X166995347Y-110430000D03*
%TD*%
D20*
%TO.C,SW1*%
X175980000Y-89790000D03*
X167780000Y-89790000D03*
D21*
X173880000Y-89790000D03*
D22*
X171880000Y-89790000D03*
X169880000Y-89790000D03*
%TD*%
D18*
%TO.C,D2*%
X135426040Y-112970000D03*
D19*
X135426040Y-110430000D03*
%TD*%
D23*
%TO.C,D9*%
X169780000Y-95500000D03*
D19*
X169780000Y-98040000D03*
%TD*%
D18*
%TO.C,D8*%
X182780000Y-112970000D03*
D19*
X182780000Y-110430000D03*
%TD*%
D18*
%TO.C,D7*%
X174887673Y-112970000D03*
D19*
X174887673Y-110430000D03*
%TD*%
D15*
%TO.C,R5*%
X140291429Y-97450000D03*
X140291429Y-102530000D03*
%TD*%
D24*
%TO.C,U1*%
X128740000Y-88870000D03*
D12*
X131280000Y-88870000D03*
X133820000Y-88870000D03*
X136360000Y-88870000D03*
X138900000Y-88870000D03*
X141440000Y-88870000D03*
X143980000Y-88870000D03*
X146520000Y-88870000D03*
X146520000Y-81250000D03*
X143980000Y-81250000D03*
X141440000Y-81250000D03*
X138900000Y-81250000D03*
X136360000Y-81250000D03*
X133820000Y-81250000D03*
X131280000Y-81250000D03*
X128740000Y-81250000D03*
%TD*%
D15*
%TO.C,R12*%
X152040000Y-78920000D03*
X152040000Y-84000000D03*
%TD*%
D25*
%TO.C,J1*%
X129030000Y-93270000D03*
D14*
X131570000Y-93270000D03*
X134110000Y-93270000D03*
X136650000Y-93270000D03*
X139190000Y-93270000D03*
X141730000Y-93270000D03*
X144270000Y-93270000D03*
X146810000Y-93270000D03*
%TD*%
D15*
%TO.C,R9*%
X176030000Y-94000000D03*
X176030000Y-99080000D03*
%TD*%
D12*
%TO.C,C1*%
X185000000Y-82750000D03*
X185000000Y-77750000D03*
%TD*%
D15*
%TO.C,R7*%
X146617143Y-97450000D03*
X146617143Y-102530000D03*
%TD*%
%TO.C,R4*%
X137128571Y-97450000D03*
X137128571Y-102530000D03*
%TD*%
D10*
%TO.C,SW4*%
X160170000Y-78280000D03*
X160170000Y-84780000D03*
X155670000Y-78280000D03*
X155670000Y-84780000D03*
%TD*%
D15*
%TO.C,R2*%
X130802857Y-97450000D03*
X130802857Y-102530000D03*
%TD*%
D18*
%TO.C,D4*%
X151210693Y-112970000D03*
D19*
X151210693Y-110430000D03*
%TD*%
D15*
%TO.C,R11*%
X164880000Y-93870000D03*
X164880000Y-88790000D03*
%TD*%
%TO.C,R6*%
X143454286Y-97450000D03*
X143454286Y-102530000D03*
%TD*%
M02*
