M48
; DRILL file {KiCad 9.0.9-9.0.9~ubuntu24.04.1} date 2026-09-19T22:35:45-0400
; FORMAT={-:-/ absolute / metric / decimal}
; #@! TF.CreationDate,2026-09-19T22:35:45-04:00
; #@! TF.GenerationSoftware,Kicad,Pcbnew,9.0.9-9.0.9~ubuntu24.04.1
; #@! TF.FileFunction,Plated,1,2,PTH
FMAT,2
METRIC
; #@! TA.AperFunction,Plated,PTH,ComponentDrill
T1C0.600
; #@! TA.AperFunction,Plated,PTH,ComponentDrill
T2C0.700
; #@! TA.AperFunction,Plated,PTH,ComponentDrill
T3C0.800
; #@! TA.AperFunction,Plated,PTH,ComponentDrill
T4C0.900
; #@! TA.AperFunction,Plated,PTH,ComponentDrill
T5C0.950
; #@! TA.AperFunction,Plated,PTH,ComponentDrill
T6C1.000
; #@! TA.AperFunction,Plated,PTH,ComponentDrill
T7C1.100
; #@! TA.AperFunction,Plated,PTH,ComponentDrill
T8C1.500
; #@! TA.AperFunction,Plated,PTH,ComponentDrill
T9C2.300
%
G90
G05
T1
X165.5Y-100.75
X167.5Y-100.75
T2
X127.6Y-94.71
X127.6Y-99.79
X130.75Y-94.71
X130.75Y-99.79
X133.9Y-94.71
X133.9Y-99.79
X137.05Y-94.71
X137.05Y-99.79
X140.2Y-94.71
X140.2Y-99.79
X143.35Y-94.71
X143.35Y-99.79
X146.5Y-94.71
X146.5Y-99.79
X150.45Y-94.5
X150.45Y-99.58
X152.5Y-78.21
X152.5Y-83.29
X155.67Y-94.5
X160.75Y-94.5
X169.0Y-88.71
X169.0Y-93.79
X173.5Y-88.71
X173.5Y-93.79
T3
X129.51Y-78.88
X129.51Y-86.5
X132.05Y-78.88
X132.05Y-86.5
X134.59Y-78.88
X134.59Y-86.5
X137.13Y-78.88
X137.13Y-86.5
X139.67Y-78.88
X139.67Y-86.5
X142.21Y-78.88
X142.21Y-86.5
X144.75Y-78.88
X144.75Y-86.5
X147.29Y-78.88
X147.29Y-86.5
X158.25Y-89.953
X160.25Y-89.953
X162.25Y-89.953
T4
X127.184Y-110.664
X127.184Y-113.204
X135.434Y-110.664
X135.434Y-113.204
X144.184Y-110.414
X144.184Y-112.954
X152.184Y-110.664
X152.184Y-113.204
X157.5Y-99.21
X157.5Y-101.75
X160.684Y-110.679
X160.684Y-113.219
X168.184Y-110.639
X168.184Y-113.179
X175.684Y-110.639
X175.684Y-113.179
X183.434Y-110.639
X183.434Y-113.179
T5
X180.95Y-90.32
X180.95Y-92.82
X180.95Y-94.82
X180.95Y-97.32
T6
X129.8Y-90.5
X132.34Y-90.5
X134.88Y-90.5
X137.42Y-90.5
X139.96Y-90.5
X142.5Y-90.5
X145.04Y-90.5
X147.58Y-90.5
T7
X155.5Y-78.5
X155.5Y-85.0
X160.0Y-78.5
X160.0Y-85.0
X164.75Y-78.5
X164.75Y-85.0
X169.25Y-78.5
X169.25Y-85.0
X172.3Y-98.71
X172.3Y-101.25
X172.3Y-103.79
X173.5Y-78.5
X173.5Y-85.0
X178.0Y-78.5
X178.0Y-85.0
T8
X156.15Y-89.953
X164.35Y-89.953
T9
X183.66Y-87.25
X183.66Y-100.39
M30
