%TF.GenerationSoftware,KiCad,Pcbnew,9.0.9-9.0.9~ubuntu24.04.1*%
%TF.CreationDate,2026-09-25T19:54:42-04:00*%
%TF.ProjectId,shift-register-control-panel,73686966-742d-4726-9567-69737465722d,rev?*%
%TF.SameCoordinates,Original*%
%TF.FileFunction,Soldermask,Bot*%
%TF.FilePolarity,Negative*%
%FSLAX46Y46*%
G04 Gerber Fmt 4.6, Leading zero omitted, Abs format (unit mm)*
G04 Created by KiCad (PCBNEW 9.0.9-9.0.9~ubuntu24.04.1) date 2026-09-25 19:54:42*
%MOMM*%
%LPD*%
G01*
G04 APERTURE LIST*
G04 Aperture macros list*
%AMRoundRect*
0 Rectangle with rounded corners*
0 $1 Rounding radius*
0 $2 $3 $4 $5 $6 $7 $8 $9 X,Y pos of 4 corners*
0 Add a 4 corners polygon primitive as box body*
4,1,4,$2,$3,$4,$5,$6,$7,$8,$9,$2,$3,0*
0 Add four circle primitives for the rounded corners*
1,1,$1+$1,$2,$3*
1,1,$1+$1,$4,$5*
1,1,$1+$1,$6,$7*
1,1,$1+$1,$8,$9*
0 Add four rect primitives between the rounded corners*
20,1,$1+$1,$2,$3,$4,$5,0*
20,1,$1+$1,$4,$5,$6,$7,0*
20,1,$1+$1,$6,$7,$8,$9,0*
20,1,$1+$1,$8,$9,$2,$3,0*%
G04 Aperture macros list end*
%ADD10C,1.800000*%
%ADD11R,1.800000X1.800000*%
%ADD12R,2.000000X1.905000*%
%ADD13O,2.000000X1.905000*%
%ADD14C,1.400000*%
%ADD15C,1.600000*%
%ADD16RoundRect,0.250000X0.550000X-0.550000X0.550000X0.550000X-0.550000X0.550000X-0.550000X-0.550000X0*%
%ADD17C,1.700000*%
%ADD18R,1.700000X1.700000*%
%ADD19C,2.000000*%
%ADD20C,3.000000*%
%ADD21R,1.500000X1.600000*%
%ADD22O,1.500000X2.500000*%
%ADD23R,1.500000X2.500000*%
%ADD24O,2.200000X3.500000*%
G04 APERTURE END LIST*
D10*
%TO.C,D3*%
X143318366Y-110430000D03*
D11*
X143318366Y-112970000D03*
%TD*%
D12*
%TO.C,U2*%
X179190000Y-96820000D03*
D13*
X179190000Y-94280000D03*
X179190000Y-91740000D03*
%TD*%
D14*
%TO.C,R2*%
X130802857Y-102530000D03*
X130802857Y-97450000D03*
%TD*%
%TO.C,R3*%
X133965714Y-97450000D03*
X133965714Y-102530000D03*
%TD*%
%TO.C,R4*%
X137128571Y-97450000D03*
X137128571Y-102530000D03*
%TD*%
%TO.C,R5*%
X140291429Y-97450000D03*
X140291429Y-102530000D03*
%TD*%
%TO.C,R6*%
X143454286Y-97450000D03*
X143454286Y-102530000D03*
%TD*%
%TO.C,R7*%
X146617143Y-97450000D03*
X146617143Y-102530000D03*
%TD*%
%TO.C,R8*%
X149780000Y-97450000D03*
X149780000Y-102530000D03*
%TD*%
%TO.C,R1*%
X127640000Y-102530000D03*
X127640000Y-97450000D03*
%TD*%
D15*
%TO.C,C3*%
X133230000Y-77630000D03*
X128230000Y-77630000D03*
%TD*%
%TO.C,U1*%
X128740000Y-81650000D03*
X131280000Y-81650000D03*
X133820000Y-81650000D03*
X136360000Y-81650000D03*
X138900000Y-81650000D03*
X141440000Y-81650000D03*
X143980000Y-81650000D03*
X146520000Y-81650000D03*
X146520000Y-89270000D03*
X143980000Y-89270000D03*
X141440000Y-89270000D03*
X138900000Y-89270000D03*
X136360000Y-89270000D03*
X133820000Y-89270000D03*
X131280000Y-89270000D03*
D16*
X128740000Y-89270000D03*
%TD*%
D17*
%TO.C,J1*%
X146810000Y-93270000D03*
X144270000Y-93270000D03*
X141730000Y-93270000D03*
X139190000Y-93270000D03*
X136650000Y-93270000D03*
X134110000Y-93270000D03*
X131570000Y-93270000D03*
D18*
X129030000Y-93270000D03*
%TD*%
D14*
%TO.C,R12*%
X152040000Y-77910000D03*
X152040000Y-82990000D03*
%TD*%
%TO.C,R13*%
X172400000Y-87910000D03*
X172400000Y-92990000D03*
%TD*%
%TO.C,R11*%
X169160000Y-92990000D03*
X169160000Y-87910000D03*
%TD*%
%TO.C,R10*%
X181540000Y-82690000D03*
X181540000Y-77610000D03*
%TD*%
D19*
%TO.C,SW2*%
X177980000Y-78280000D03*
X177980000Y-84780000D03*
X173480000Y-78280000D03*
X173480000Y-84780000D03*
%TD*%
D11*
%TO.C,D8*%
X182780000Y-112970000D03*
D10*
X182780000Y-110430000D03*
%TD*%
D11*
%TO.C,D7*%
X174887673Y-112970000D03*
D10*
X174887673Y-110430000D03*
%TD*%
D11*
%TO.C,D6*%
X166995347Y-112970000D03*
D10*
X166995347Y-110430000D03*
%TD*%
D11*
%TO.C,D5*%
X159103020Y-112970000D03*
D10*
X159103020Y-110430000D03*
%TD*%
D11*
%TO.C,D4*%
X151210693Y-112970000D03*
D10*
X151210693Y-110430000D03*
%TD*%
D11*
%TO.C,D2*%
X135426040Y-112970000D03*
D10*
X135426040Y-110430000D03*
%TD*%
D15*
%TO.C,C2*%
X189460000Y-78200000D03*
X184460000Y-78200000D03*
%TD*%
%TO.C,C1*%
X184560000Y-86070000D03*
X189560000Y-86070000D03*
%TD*%
D10*
%TO.C,D1*%
X127533713Y-110430000D03*
D11*
X127533713Y-112970000D03*
%TD*%
D10*
%TO.C,D9*%
X157840000Y-100520000D03*
D11*
X157840000Y-97980000D03*
%TD*%
D20*
%TO.C,J2*%
X187970000Y-91860000D03*
X187970000Y-105000000D03*
D15*
X185260000Y-94930000D03*
X185260000Y-97430000D03*
X185260000Y-99430000D03*
D21*
X185260000Y-101930000D03*
%TD*%
D14*
%TO.C,R9*%
X155590000Y-94420000D03*
X160670000Y-94420000D03*
%TD*%
D22*
%TO.C,SW1*%
X158250000Y-89952500D03*
X160250000Y-89952500D03*
D23*
X162250000Y-89952500D03*
D24*
X156150000Y-89952500D03*
X164350000Y-89952500D03*
%TD*%
D19*
%TO.C,SW3*%
X164575000Y-84780000D03*
X164575000Y-78280000D03*
X169075000Y-84780000D03*
X169075000Y-78280000D03*
%TD*%
%TO.C,SW4*%
X155670000Y-84780000D03*
X155670000Y-78280000D03*
X160170000Y-84780000D03*
X160170000Y-78280000D03*
%TD*%
M02*
