M48
; DRILL file {KiCad 9.0.9-9.0.9~ubuntu24.04.1} date 2026-09-20T21:50:16-0400
; FORMAT={-:-/ absolute / metric / decimal}
; #@! TF.CreationDate,2026-09-20T21:50:16-04:00
; #@! TF.GenerationSoftware,Kicad,Pcbnew,9.0.9-9.0.9~ubuntu24.04.1
; #@! TF.FileFunction,Plated,1,2,PTH
FMAT,2
METRIC
; #@! TA.AperFunction,Plated,PTH,ViaDrill
T1C0.300
; #@! TA.AperFunction,Plated,PTH,ComponentDrill
T2C0.700
; #@! TA.AperFunction,Plated,PTH,ComponentDrill
T3C0.800
; #@! TA.AperFunction,Plated,PTH,ComponentDrill
T4C0.900
; #@! TA.AperFunction,Plated,PTH,ComponentDrill
T5C0.950
; #@! TA.AperFunction,Plated,PTH,ComponentDrill
T6C1.000
; #@! TA.AperFunction,Plated,PTH,ComponentDrill
T7C1.100
; #@! TA.AperFunction,Plated,PTH,ComponentDrill
T8C1.500
; #@! TA.AperFunction,Plated,PTH,ComponentDrill
T9C2.300
%
G90
G05
T1
X182.78Y-84.65
X185.42Y-83.54
T2
X127.64Y-97.45
X127.64Y-102.53
X130.803Y-97.45
X130.803Y-102.53
X133.966Y-97.45
X133.966Y-102.53
X137.129Y-97.45
X137.129Y-102.53
X140.291Y-97.45
X140.291Y-102.53
X143.454Y-97.45
X143.454Y-102.53
X146.617Y-97.45
X146.617Y-102.53
X149.78Y-97.45
X149.78Y-102.53
X152.04Y-77.91
X152.04Y-82.99
X155.59Y-94.42
X160.67Y-94.42
X169.16Y-87.91
X169.16Y-92.99
X172.4Y-87.91
X172.4Y-92.99
X181.54Y-77.61
X181.54Y-82.69
T3
X128.23Y-77.63
X128.74Y-81.65
X128.74Y-89.27
X131.28Y-81.65
X131.28Y-89.27
X133.23Y-77.63
X133.82Y-81.65
X133.82Y-89.27
X136.36Y-81.65
X136.36Y-89.27
X138.9Y-81.65
X138.9Y-89.27
X141.44Y-81.65
X141.44Y-89.27
X143.98Y-81.65
X143.98Y-89.27
X146.52Y-81.65
X146.52Y-89.27
X158.25Y-89.953
X160.25Y-89.953
X162.25Y-89.953
X184.46Y-78.2
X184.56Y-86.07
X189.46Y-78.2
X189.56Y-86.07
T4
X127.184Y-110.414
X127.184Y-112.954
X135.219Y-110.414
X135.219Y-112.954
X143.255Y-110.414
X143.255Y-112.954
X151.291Y-110.414
X151.291Y-112.954
X157.5Y-99.21
X157.5Y-101.75
X159.327Y-110.414
X159.327Y-112.954
X167.362Y-110.414
X167.362Y-112.954
X175.398Y-110.414
X175.398Y-112.954
X183.434Y-110.414
X183.434Y-112.954
T5
X181.01Y-93.35
X181.01Y-95.85
X181.01Y-97.85
X181.01Y-100.35
T6
X129.03Y-93.27
X131.57Y-93.27
X134.11Y-93.27
X136.65Y-93.27
X139.19Y-93.27
X141.73Y-93.27
X144.27Y-93.27
X146.81Y-93.27
T7
X155.67Y-78.28
X155.67Y-84.78
X160.17Y-78.28
X160.17Y-84.78
X164.575Y-78.28
X164.575Y-84.78
X169.075Y-78.28
X169.075Y-84.78
X173.48Y-78.28
X173.48Y-84.78
X177.98Y-78.28
X177.98Y-84.78
X179.19Y-91.74
X179.19Y-94.28
X179.19Y-96.82
T8
X156.15Y-89.953
X164.35Y-89.953
T9
X183.72Y-90.28
X183.72Y-103.42
M30
