%TF.GenerationSoftware,KiCad,Pcbnew,9.0.9-9.0.9~ubuntu24.04.1*%
%TF.CreationDate,2026-09-25T19:54:39-04:00*%
%TF.ProjectId,shift-register-control-panel,73686966-742d-4726-9567-69737465722d,rev?*%
%TF.SameCoordinates,Original*%
%TF.FileFunction,Copper,L1,Top*%
%TF.FilePolarity,Positive*%
%FSLAX46Y46*%
G04 Gerber Fmt 4.6, Leading zero omitted, Abs format (unit mm)*
G04 Created by KiCad (PCBNEW 9.0.9-9.0.9~ubuntu24.04.1) date 2026-09-25 19:54:39*
%MOMM*%
%LPD*%
G01*
G04 APERTURE LIST*
G04 Aperture macros list*
%AMRoundRect*
0 Rectangle with rounded corners*
0 $1 Rounding radius*
0 $2 $3 $4 $5 $6 $7 $8 $9 X,Y pos of 4 corners*
0 Add a 4 corners polygon primitive as box body*
4,1,4,$2,$3,$4,$5,$6,$7,$8,$9,$2,$3,0*
0 Add four circle primitives for the rounded corners*
1,1,$1+$1,$2,$3*
1,1,$1+$1,$4,$5*
1,1,$1+$1,$6,$7*
1,1,$1+$1,$8,$9*
0 Add four rect primitives between the rounded corners*
20,1,$1+$1,$2,$3,$4,$5,0*
20,1,$1+$1,$4,$5,$6,$7,0*
20,1,$1+$1,$6,$7,$8,$9,0*
20,1,$1+$1,$8,$9,$2,$3,0*%
G04 Aperture macros list end*
%TA.AperFunction,ComponentPad*%
%ADD10C,1.800000*%
%TD*%
%TA.AperFunction,ComponentPad*%
%ADD11R,1.800000X1.800000*%
%TD*%
%TA.AperFunction,ComponentPad*%
%ADD12R,2.000000X1.905000*%
%TD*%
%TA.AperFunction,ComponentPad*%
%ADD13O,2.000000X1.905000*%
%TD*%
%TA.AperFunction,ComponentPad*%
%ADD14C,1.400000*%
%TD*%
%TA.AperFunction,ComponentPad*%
%ADD15C,1.600000*%
%TD*%
%TA.AperFunction,ComponentPad*%
%ADD16RoundRect,0.250000X0.550000X-0.550000X0.550000X0.550000X-0.550000X0.550000X-0.550000X-0.550000X0*%
%TD*%
%TA.AperFunction,ComponentPad*%
%ADD17C,1.700000*%
%TD*%
%TA.AperFunction,ComponentPad*%
%ADD18R,1.700000X1.700000*%
%TD*%
%TA.AperFunction,ComponentPad*%
%ADD19C,2.000000*%
%TD*%
%TA.AperFunction,SMDPad,CuDef*%
%ADD20RoundRect,0.150000X-0.512500X-0.150000X0.512500X-0.150000X0.512500X0.150000X-0.512500X0.150000X0*%
%TD*%
%TA.AperFunction,ComponentPad*%
%ADD21C,3.000000*%
%TD*%
%TA.AperFunction,ComponentPad*%
%ADD22R,1.500000X1.600000*%
%TD*%
%TA.AperFunction,ComponentPad*%
%ADD23O,1.500000X2.500000*%
%TD*%
%TA.AperFunction,ComponentPad*%
%ADD24R,1.500000X2.500000*%
%TD*%
%TA.AperFunction,ComponentPad*%
%ADD25O,2.200000X3.500000*%
%TD*%
%TA.AperFunction,ViaPad*%
%ADD26C,0.600000*%
%TD*%
%TA.AperFunction,Conductor*%
%ADD27C,0.200000*%
%TD*%
G04 APERTURE END LIST*
D10*
%TO.P,D3,2,A*%
%TO.N,Net-(D3-A)*%
X143318366Y-110430000D03*
D11*
%TO.P,D3,1,K*%
%TO.N,GND*%
X143318366Y-112970000D03*
%TD*%
D12*
%TO.P,U2,1,VI*%
%TO.N,VCC*%
X179190000Y-96820000D03*
D13*
%TO.P,U2,2,GND*%
%TO.N,GND*%
X179190000Y-94280000D03*
%TO.P,U2,3,VO*%
%TO.N,+5V*%
X179190000Y-91740000D03*
%TD*%
D14*
%TO.P,R2,2*%
%TO.N,Net-(D2-A)*%
X130802857Y-102530000D03*
%TO.P,R2,1*%
%TO.N,/OUT2*%
X130802857Y-97450000D03*
%TD*%
%TO.P,R3,1*%
%TO.N,/OUT3*%
X133965714Y-97450000D03*
%TO.P,R3,2*%
%TO.N,Net-(D3-A)*%
X133965714Y-102530000D03*
%TD*%
%TO.P,R4,1*%
%TO.N,/OUT4*%
X137128571Y-97450000D03*
%TO.P,R4,2*%
%TO.N,Net-(D4-A)*%
X137128571Y-102530000D03*
%TD*%
%TO.P,R5,1*%
%TO.N,/OUT5*%
X140291429Y-97450000D03*
%TO.P,R5,2*%
%TO.N,Net-(D5-A)*%
X140291429Y-102530000D03*
%TD*%
%TO.P,R6,1*%
%TO.N,/OUT6*%
X143454286Y-97450000D03*
%TO.P,R6,2*%
%TO.N,Net-(D6-A)*%
X143454286Y-102530000D03*
%TD*%
%TO.P,R7,1*%
%TO.N,/OUT7*%
X146617143Y-97450000D03*
%TO.P,R7,2*%
%TO.N,Net-(D7-A)*%
X146617143Y-102530000D03*
%TD*%
%TO.P,R8,1*%
%TO.N,/OUT8*%
X149780000Y-97450000D03*
%TO.P,R8,2*%
%TO.N,Net-(D8-A)*%
X149780000Y-102530000D03*
%TD*%
%TO.P,R1,2*%
%TO.N,Net-(D1-A)*%
X127640000Y-102530000D03*
%TO.P,R1,1*%
%TO.N,/OUT1*%
X127640000Y-97450000D03*
%TD*%
D15*
%TO.P,C3,1*%
%TO.N,GND*%
X133230000Y-77630000D03*
%TO.P,C3,2*%
%TO.N,+5V*%
X128230000Y-77630000D03*
%TD*%
%TO.P,U1,16,VCC*%
%TO.N,+5V*%
X128740000Y-81650000D03*
%TO.P,U1,15,QA*%
%TO.N,/OUT1*%
X131280000Y-81650000D03*
%TO.P,U1,14,SER*%
%TO.N,Net-(SW1-B)*%
X133820000Y-81650000D03*
%TO.P,U1,13,~{OE}*%
%TO.N,GND*%
X136360000Y-81650000D03*
%TO.P,U1,12,RCLK*%
%TO.N,Net-(U1-RCLK)*%
X138900000Y-81650000D03*
%TO.P,U1,11,SRCLK*%
%TO.N,Net-(U1-SRCLK)*%
X141440000Y-81650000D03*
%TO.P,U1,10,~{SRCLR}*%
%TO.N,Net-(U1-~{SRCLR})*%
X143980000Y-81650000D03*
%TO.P,U1,9,QH'*%
%TO.N,unconnected-(U1-QH'-Pad9)*%
X146520000Y-81650000D03*
%TO.P,U1,8,GND*%
%TO.N,GND*%
X146520000Y-89270000D03*
%TO.P,U1,7,QH*%
%TO.N,/OUT8*%
X143980000Y-89270000D03*
%TO.P,U1,6,QG*%
%TO.N,/OUT7*%
X141440000Y-89270000D03*
%TO.P,U1,5,QF*%
%TO.N,/OUT6*%
X138900000Y-89270000D03*
%TO.P,U1,4,QE*%
%TO.N,/OUT5*%
X136360000Y-89270000D03*
%TO.P,U1,3,QD*%
%TO.N,/OUT4*%
X133820000Y-89270000D03*
%TO.P,U1,2,QC*%
%TO.N,/OUT3*%
X131280000Y-89270000D03*
D16*
%TO.P,U1,1,QB*%
%TO.N,/OUT2*%
X128740000Y-89270000D03*
%TD*%
D17*
%TO.P,J1,8,Pin_8*%
%TO.N,/OUT8*%
X146810000Y-93270000D03*
%TO.P,J1,7,Pin_7*%
%TO.N,/OUT7*%
X144270000Y-93270000D03*
%TO.P,J1,6,Pin_6*%
%TO.N,/OUT6*%
X141730000Y-93270000D03*
%TO.P,J1,5,Pin_5*%
%TO.N,/OUT5*%
X139190000Y-93270000D03*
%TO.P,J1,4,Pin_4*%
%TO.N,/OUT4*%
X136650000Y-93270000D03*
%TO.P,J1,3,Pin_3*%
%TO.N,/OUT3*%
X134110000Y-93270000D03*
%TO.P,J1,2,Pin_2*%
%TO.N,/OUT2*%
X131570000Y-93270000D03*
D18*
%TO.P,J1,1,Pin_1*%
%TO.N,/OUT1*%
X129030000Y-93270000D03*
%TD*%
D14*
%TO.P,R12,1*%
%TO.N,Net-(U1-RCLK)*%
X152040000Y-77910000D03*
%TO.P,R12,2*%
%TO.N,GND*%
X152040000Y-82990000D03*
%TD*%
%TO.P,R13,1*%
%TO.N,Net-(R10-Pad1)*%
X172400000Y-87910000D03*
%TO.P,R13,2*%
%TO.N,+5V*%
X172400000Y-92990000D03*
%TD*%
%TO.P,R11,1*%
%TO.N,+5V*%
X169160000Y-92990000D03*
%TO.P,R11,2*%
%TO.N,Net-(U1-~{SRCLR})*%
X169160000Y-87910000D03*
%TD*%
%TO.P,R10,2*%
%TO.N,Net-(C1-Pad1)*%
X181540000Y-82690000D03*
%TO.P,R10,1*%
%TO.N,Net-(R10-Pad1)*%
X181540000Y-77610000D03*
%TD*%
D19*
%TO.P,SW2,2,2*%
%TO.N,Net-(R10-Pad1)*%
X177980000Y-78280000D03*
X177980000Y-84780000D03*
%TO.P,SW2,1,1*%
%TO.N,GND*%
X173480000Y-78280000D03*
X173480000Y-84780000D03*
%TD*%
D20*
%TO.P,U3,1,NC*%
%TO.N,unconnected-(U3-NC-Pad1)*%
X184342500Y-81130000D03*
%TO.P,U3,2*%
%TO.N,Net-(C1-Pad1)*%
X184342500Y-82080000D03*
%TO.P,U3,3,GND*%
%TO.N,GND*%
X184342500Y-83030000D03*
%TO.P,U3,4*%
%TO.N,Net-(U1-SRCLK)*%
X186617500Y-83030000D03*
%TO.P,U3,5,VCC*%
%TO.N,+5V*%
X186617500Y-81130000D03*
%TD*%
D11*
%TO.P,D8,1,K*%
%TO.N,GND*%
X182780000Y-112970000D03*
D10*
%TO.P,D8,2,A*%
%TO.N,Net-(D8-A)*%
X182780000Y-110430000D03*
%TD*%
D11*
%TO.P,D7,1,K*%
%TO.N,GND*%
X174887673Y-112970000D03*
D10*
%TO.P,D7,2,A*%
%TO.N,Net-(D7-A)*%
X174887673Y-110430000D03*
%TD*%
D11*
%TO.P,D6,1,K*%
%TO.N,GND*%
X166995347Y-112970000D03*
D10*
%TO.P,D6,2,A*%
%TO.N,Net-(D6-A)*%
X166995347Y-110430000D03*
%TD*%
D11*
%TO.P,D5,1,K*%
%TO.N,GND*%
X159103020Y-112970000D03*
D10*
%TO.P,D5,2,A*%
%TO.N,Net-(D5-A)*%
X159103020Y-110430000D03*
%TD*%
D11*
%TO.P,D4,1,K*%
%TO.N,GND*%
X151210693Y-112970000D03*
D10*
%TO.P,D4,2,A*%
%TO.N,Net-(D4-A)*%
X151210693Y-110430000D03*
%TD*%
D11*
%TO.P,D2,1,K*%
%TO.N,GND*%
X135426040Y-112970000D03*
D10*
%TO.P,D2,2,A*%
%TO.N,Net-(D2-A)*%
X135426040Y-110430000D03*
%TD*%
D15*
%TO.P,C2,1*%
%TO.N,GND*%
X189460000Y-78200000D03*
%TO.P,C2,2*%
%TO.N,+5V*%
X184460000Y-78200000D03*
%TD*%
%TO.P,C1,1*%
%TO.N,Net-(C1-Pad1)*%
X184560000Y-86070000D03*
%TO.P,C1,2*%
%TO.N,GND*%
X189560000Y-86070000D03*
%TD*%
D10*
%TO.P,D1,2,A*%
%TO.N,Net-(D1-A)*%
X127533713Y-110430000D03*
D11*
%TO.P,D1,1,K*%
%TO.N,GND*%
X127533713Y-112970000D03*
%TD*%
D10*
%TO.P,D9,2,A*%
%TO.N,Net-(D9-A)*%
X157840000Y-100520000D03*
D11*
%TO.P,D9,1,K*%
%TO.N,GND*%
X157840000Y-97980000D03*
%TD*%
D21*
%TO.P,J2,5,Shield*%
%TO.N,GND*%
X187970000Y-91860000D03*
X187970000Y-105000000D03*
D15*
%TO.P,J2,4,GND*%
X185260000Y-94930000D03*
%TO.P,J2,3,D+*%
%TO.N,unconnected-(J2-D+-Pad3)*%
X185260000Y-97430000D03*
%TO.P,J2,2,D-*%
%TO.N,unconnected-(J2-D--Pad2)*%
X185260000Y-99430000D03*
D22*
%TO.P,J2,1,VBUS*%
%TO.N,VCC*%
X185260000Y-101930000D03*
%TD*%
D14*
%TO.P,R9,2*%
%TO.N,Net-(D9-A)*%
X155590000Y-94420000D03*
%TO.P,R9,1*%
%TO.N,Net-(SW1-B)*%
X160670000Y-94420000D03*
%TD*%
D23*
%TO.P,SW1,3,C*%
%TO.N,GND*%
X158250000Y-89952500D03*
%TO.P,SW1,2,B*%
%TO.N,Net-(SW1-B)*%
X160250000Y-89952500D03*
D24*
%TO.P,SW1,1,A*%
%TO.N,+5V*%
X162250000Y-89952500D03*
D25*
%TO.P,SW1,*%
%TO.N,*%
X156150000Y-89952500D03*
X164350000Y-89952500D03*
%TD*%
D19*
%TO.P,SW3,2,2*%
%TO.N,Net-(U1-~{SRCLR})*%
X164575000Y-84780000D03*
X164575000Y-78280000D03*
%TO.P,SW3,1,1*%
%TO.N,GND*%
X169075000Y-84780000D03*
X169075000Y-78280000D03*
%TD*%
%TO.P,SW4,2,2*%
%TO.N,Net-(U1-RCLK)*%
X155670000Y-84780000D03*
X155670000Y-78280000D03*
%TO.P,SW4,1,1*%
%TO.N,+5V*%
X160170000Y-84780000D03*
X160170000Y-78280000D03*
%TD*%
D26*
%TO.N,GND*%
X185420000Y-83540000D03*
%TO.N,Net-(U1-SRCLK)*%
X182780000Y-84650000D03*
%TD*%
D27*
%TO.N,VCC*%
X185260000Y-101930000D02*
X184300000Y-101930000D01*
X184300000Y-101930000D02*
X179190000Y-96820000D01*
%TO.N,GND*%
X185420000Y-83540000D02*
X184852500Y-83540000D01*
X184852500Y-83540000D02*
X184342500Y-83030000D01*
%TO.N,Net-(U1-SRCLK)*%
X182780000Y-84650000D02*
X183290000Y-84140000D01*
X186290000Y-83357500D02*
X186617500Y-83030000D01*
X186200000Y-84140000D02*
X186290000Y-84050000D01*
X186290000Y-84050000D02*
X186290000Y-83357500D01*
X183290000Y-84140000D02*
X186200000Y-84140000D01*
%TO.N,Net-(U1-RCLK)*%
X138900000Y-81650000D02*
X142640000Y-77910000D01*
X142640000Y-77910000D02*
X152040000Y-77910000D01*
%TO.N,Net-(SW1-B)*%
X133820000Y-81650000D02*
X139410000Y-87240000D01*
X139410000Y-87240000D02*
X159630000Y-87240000D01*
X159630000Y-87240000D02*
X160250000Y-87860000D01*
X160250000Y-87860000D02*
X160250000Y-89952500D01*
X160670000Y-94420000D02*
X160670000Y-90372500D01*
X160670000Y-90372500D02*
X160250000Y-89952500D01*
%TO.N,Net-(D9-A)*%
X154660000Y-100520000D02*
X153980000Y-99840000D01*
X157840000Y-100520000D02*
X154660000Y-100520000D01*
X153980000Y-99840000D02*
X153980000Y-96030000D01*
X153980000Y-96030000D02*
X155590000Y-94420000D01*
%TO.N,+5V*%
X184460000Y-78200000D02*
X186617500Y-80357500D01*
X186617500Y-80357500D02*
X186617500Y-81130000D01*
%TO.N,Net-(C1-Pad1)*%
X184560000Y-86070000D02*
X182630000Y-86070000D01*
X182630000Y-86070000D02*
X181540000Y-84980000D01*
X181540000Y-84980000D02*
X181540000Y-82690000D01*
X181540000Y-82690000D02*
X182150000Y-82080000D01*
X182150000Y-82080000D02*
X184342500Y-82080000D01*
%TO.N,Net-(R10-Pad1)*%
X177980000Y-84780000D02*
X174850000Y-87910000D01*
X174850000Y-87910000D02*
X172400000Y-87910000D01*
X181540000Y-77610000D02*
X178650000Y-77610000D01*
X178650000Y-77610000D02*
X177980000Y-78280000D01*
X177980000Y-84780000D02*
X177980000Y-78280000D01*
%TO.N,Net-(U1-~{SRCLR})*%
X164575000Y-84780000D02*
X167705000Y-87910000D01*
X167705000Y-87910000D02*
X169160000Y-87910000D01*
X164575000Y-78280000D02*
X164575000Y-84780000D01*
%TO.N,GND*%
X173480000Y-78280000D02*
X173480000Y-84780000D01*
X169075000Y-84780000D02*
X169075000Y-78280000D01*
%TO.N,Net-(U1-RCLK)*%
X155670000Y-78280000D02*
X152410000Y-78280000D01*
X152410000Y-78280000D02*
X152040000Y-77910000D01*
X155670000Y-84780000D02*
X155670000Y-78280000D01*
%TO.N,+5V*%
X160170000Y-78280000D02*
X160170000Y-84780000D01*
%TO.N,Net-(D6-A)*%
X143454286Y-104584286D02*
X143480000Y-104610000D01*
X143454286Y-102530000D02*
X143454286Y-104584286D01*
X143480000Y-104610000D02*
X161175347Y-104610000D01*
X161175347Y-104610000D02*
X166995347Y-110430000D01*
%TO.N,Net-(D5-A)*%
X140291429Y-105471429D02*
X140320000Y-105500000D01*
X140291429Y-102530000D02*
X140291429Y-105471429D01*
X140320000Y-105500000D02*
X154173020Y-105500000D01*
X154173020Y-105500000D02*
X159103020Y-110430000D01*
%TO.N,Net-(D4-A)*%
X137128571Y-106178571D02*
X137540000Y-106590000D01*
X137128571Y-102530000D02*
X137128571Y-106178571D01*
X137540000Y-106590000D02*
X147370693Y-106590000D01*
X147370693Y-106590000D02*
X151210693Y-110430000D01*
%TO.N,Net-(D3-A)*%
X133965714Y-102530000D02*
X133965714Y-106945714D01*
X133965714Y-106945714D02*
X134710000Y-107690000D01*
X134710000Y-107690000D02*
X140578366Y-107690000D01*
X140578366Y-107690000D02*
X143318366Y-110430000D01*
%TO.N,Net-(D2-A)*%
X130802857Y-102530000D02*
X130802857Y-105806817D01*
X130802857Y-105806817D02*
X135426040Y-110430000D01*
%TO.N,Net-(D1-A)*%
X127640000Y-102530000D02*
X127640000Y-110323713D01*
X127640000Y-110323713D02*
X127533713Y-110430000D01*
%TO.N,/OUT8*%
X146810000Y-93270000D02*
X149780000Y-96240000D01*
X149780000Y-96240000D02*
X149780000Y-97450000D01*
%TO.N,/OUT7*%
X144270000Y-93270000D02*
X146617143Y-95617143D01*
X146617143Y-95617143D02*
X146617143Y-97450000D01*
%TO.N,/OUT6*%
X141730000Y-93270000D02*
X143454286Y-94994286D01*
X143454286Y-94994286D02*
X143454286Y-97450000D01*
%TO.N,/OUT5*%
X139190000Y-93270000D02*
X140291429Y-94371429D01*
X140291429Y-94371429D02*
X140291429Y-97450000D01*
%TO.N,/OUT4*%
X136650000Y-93270000D02*
X136650000Y-96971429D01*
X136650000Y-96971429D02*
X137128571Y-97450000D01*
%TO.N,/OUT3*%
X134110000Y-93270000D02*
X134110000Y-97305714D01*
X134110000Y-97305714D02*
X133965714Y-97450000D01*
%TO.N,/OUT2*%
X131570000Y-93270000D02*
X131570000Y-96682857D01*
X131570000Y-96682857D02*
X130802857Y-97450000D01*
%TO.N,/OUT1*%
X129030000Y-93270000D02*
X129030000Y-96060000D01*
X129030000Y-96060000D02*
X127640000Y-97450000D01*
%TO.N,/OUT8*%
X143980000Y-89270000D02*
X143980000Y-90440000D01*
X143980000Y-90440000D02*
X146810000Y-93270000D01*
%TO.N,/OUT7*%
X141440000Y-89270000D02*
X141440000Y-90440000D01*
X141440000Y-90440000D02*
X144270000Y-93270000D01*
%TO.N,/OUT6*%
X138900000Y-89270000D02*
X138900000Y-90440000D01*
X138900000Y-90440000D02*
X141730000Y-93270000D01*
%TO.N,/OUT5*%
X136360000Y-89270000D02*
X136360000Y-90440000D01*
X136360000Y-90440000D02*
X139190000Y-93270000D01*
%TO.N,/OUT4*%
X133820000Y-89270000D02*
X133820000Y-90440000D01*
X133820000Y-90440000D02*
X136650000Y-93270000D01*
%TO.N,/OUT3*%
X131280000Y-89270000D02*
X131280000Y-90440000D01*
X131280000Y-90440000D02*
X134110000Y-93270000D01*
%TO.N,/OUT2*%
X128740000Y-89270000D02*
X128740000Y-90440000D01*
X128740000Y-90440000D02*
X131570000Y-93270000D01*
%TD*%
%TA.AperFunction,Conductor*%
%TO.N,+5V*%
G36*
X191102539Y-75270185D02*
G01*
X191148294Y-75322989D01*
X191159500Y-75374500D01*
X191159500Y-115875500D01*
X191139815Y-115942539D01*
X191087011Y-115988294D01*
X191035500Y-115999500D01*
X123124500Y-115999500D01*
X123057461Y-115979815D01*
X123011706Y-115927011D01*
X123000500Y-115875500D01*
X123000500Y-110319778D01*
X126133213Y-110319778D01*
X126133213Y-110540221D01*
X126167698Y-110757952D01*
X126235816Y-110967603D01*
X126235817Y-110967606D01*
X126335900Y-111164025D01*
X126465465Y-111342358D01*
X126465469Y-111342363D01*
X126515641Y-111392535D01*
X126549126Y-111453858D01*
X126544142Y-111523550D01*
X126502270Y-111579483D01*
X126471294Y-111596398D01*
X126391382Y-111626203D01*
X126391377Y-111626206D01*
X126276168Y-111712452D01*
X126276165Y-111712455D01*
X126189919Y-111827664D01*
X126189915Y-111827671D01*
X126139621Y-111962517D01*
X126133214Y-112022116D01*
X126133214Y-112022123D01*
X126133213Y-112022135D01*
X126133213Y-113917870D01*
X126133214Y-113917876D01*
X126139621Y-113977483D01*
X126189915Y-114112328D01*
X126189919Y-114112335D01*
X126276165Y-114227544D01*
X126276168Y-114227547D01*
X126391377Y-114313793D01*
X126391384Y-114313797D01*
X126526230Y-114364091D01*
X126526229Y-114364091D01*
X126533157Y-114364835D01*
X126585840Y-114370500D01*
X128481585Y-114370499D01*
X128541196Y-114364091D01*
X128676044Y-114313796D01*
X128791259Y-114227546D01*
X128877509Y-114112331D01*
X128927804Y-113977483D01*
X128934213Y-113917873D01*
X128934212Y-112022128D01*
X128927804Y-111962517D01*
X128877509Y-111827669D01*
X128877508Y-111827668D01*
X128877506Y-111827664D01*
X128791260Y-111712455D01*
X128791257Y-111712452D01*
X128676048Y-111626206D01*
X128676041Y-111626202D01*
X128596132Y-111596398D01*
X128540198Y-111554527D01*
X128515781Y-111489062D01*
X128530633Y-111420789D01*
X128551782Y-111392537D01*
X128601955Y-111342365D01*
X128731528Y-111164022D01*
X128831608Y-110967606D01*
X128899728Y-110757951D01*
X128934213Y-110540222D01*
X128934213Y-110319778D01*
X128899728Y-110102049D01*
X128831608Y-109892394D01*
X128831608Y-109892393D01*
X128796950Y-109824375D01*
X128731528Y-109695978D01*
X128714973Y-109673192D01*
X128601960Y-109517641D01*
X128601956Y-109517636D01*
X128446076Y-109361756D01*
X128446071Y-109361752D01*
X128291615Y-109249534D01*
X128248949Y-109194205D01*
X128240500Y-109149216D01*
X128240500Y-103640791D01*
X128260185Y-103573752D01*
X128291612Y-103540475D01*
X128422073Y-103445690D01*
X128555690Y-103312073D01*
X128666760Y-103159199D01*
X128752547Y-102990832D01*
X128810940Y-102811118D01*
X128816205Y-102777876D01*
X128840500Y-102624486D01*
X128840500Y-102435513D01*
X129602357Y-102435513D01*
X129602357Y-102624486D01*
X129631916Y-102811118D01*
X129690311Y-102990836D01*
X129746750Y-103101602D01*
X129776097Y-103159199D01*
X129887167Y-103312073D01*
X130020784Y-103445690D01*
X130151243Y-103540474D01*
X130193908Y-103595803D01*
X130202357Y-103640791D01*
X130202357Y-105720147D01*
X130202356Y-105720165D01*
X130202356Y-105885871D01*
X130202355Y-105885871D01*
X130243281Y-106038604D01*
X130255389Y-106059575D01*
X130255390Y-106059577D01*
X130322334Y-106175529D01*
X130322338Y-106175534D01*
X130441206Y-106294402D01*
X130441212Y-106294407D01*
X134052601Y-109905796D01*
X134086086Y-109967119D01*
X134082851Y-110031794D01*
X134060025Y-110102045D01*
X134025540Y-110319778D01*
X134025540Y-110540221D01*
X134060025Y-110757952D01*
X134128143Y-110967603D01*
X134128144Y-110967606D01*
X134228227Y-111164025D01*
X134357792Y-111342358D01*
X134357796Y-111342363D01*
X134407968Y-111392535D01*
X134441453Y-111453858D01*
X134436469Y-111523550D01*
X134394597Y-111579483D01*
X134363621Y-111596398D01*
X134283709Y-111626203D01*
X134283704Y-111626206D01*
X134168495Y-111712452D01*
X134168492Y-111712455D01*
X134082246Y-111827664D01*
X134082242Y-111827671D01*
X134031948Y-111962517D01*
X134025541Y-112022116D01*
X134025541Y-112022123D01*
X134025540Y-112022135D01*
X134025540Y-113917870D01*
X134025541Y-113917876D01*
X134031948Y-113977483D01*
X134082242Y-114112328D01*
X134082246Y-114112335D01*
X134168492Y-114227544D01*
X134168495Y-114227547D01*
X134283704Y-114313793D01*
X134283711Y-114313797D01*
X134418557Y-114364091D01*
X134418556Y-114364091D01*
X134425484Y-114364835D01*
X134478167Y-114370500D01*
X136373912Y-114370499D01*
X136433523Y-114364091D01*
X136568371Y-114313796D01*
X136683586Y-114227546D01*
X136769836Y-114112331D01*
X136820131Y-113977483D01*
X136826540Y-113917873D01*
X136826539Y-112022128D01*
X136820131Y-111962517D01*
X136769836Y-111827669D01*
X136769835Y-111827668D01*
X136769833Y-111827664D01*
X136683587Y-111712455D01*
X136683584Y-111712452D01*
X136568375Y-111626206D01*
X136568368Y-111626202D01*
X136488459Y-111596398D01*
X136432525Y-111554527D01*
X136408108Y-111489062D01*
X136422960Y-111420789D01*
X136444109Y-111392537D01*
X136494282Y-111342365D01*
X136623855Y-111164022D01*
X136723935Y-110967606D01*
X136792055Y-110757951D01*
X136826540Y-110540222D01*
X136826540Y-110319778D01*
X136792055Y-110102049D01*
X136723935Y-109892394D01*
X136723935Y-109892393D01*
X136689277Y-109824375D01*
X136623855Y-109695978D01*
X136607300Y-109673192D01*
X136494287Y-109517641D01*
X136494283Y-109517636D01*
X136338403Y-109361756D01*
X136338398Y-109361752D01*
X136160065Y-109232187D01*
X136160064Y-109232186D01*
X136160062Y-109232185D01*
X136085523Y-109194205D01*
X135963646Y-109132104D01*
X135963643Y-109132103D01*
X135753992Y-109063985D01*
X135564724Y-109034008D01*
X135536262Y-109029500D01*
X135315818Y-109029500D01*
X135287356Y-109034008D01*
X135098085Y-109063985D01*
X135027834Y-109086811D01*
X134957993Y-109088806D01*
X134901836Y-109056561D01*
X134237172Y-108391897D01*
X134203687Y-108330574D01*
X134208671Y-108260882D01*
X134250543Y-108204949D01*
X134316007Y-108180532D01*
X134384280Y-108195384D01*
X134386850Y-108196827D01*
X134478216Y-108249577D01*
X134590019Y-108279534D01*
X134630942Y-108290500D01*
X134630943Y-108290500D01*
X140278269Y-108290500D01*
X140345308Y-108310185D01*
X140365950Y-108326819D01*
X141944927Y-109905796D01*
X141978412Y-109967119D01*
X141975177Y-110031794D01*
X141952351Y-110102045D01*
X141917866Y-110319778D01*
X141917866Y-110540221D01*
X141952351Y-110757952D01*
X142020469Y-110967603D01*
X142020470Y-110967606D01*
X142120553Y-111164025D01*
X142250118Y-111342358D01*
X142250122Y-111342363D01*
X142300294Y-111392535D01*
X142333779Y-111453858D01*
X142328795Y-111523550D01*
X142286923Y-111579483D01*
X142255947Y-111596398D01*
X142176035Y-111626203D01*
X142176030Y-111626206D01*
X142060821Y-111712452D01*
X142060818Y-111712455D01*
X141974572Y-111827664D01*
X141974568Y-111827671D01*
X141924274Y-111962517D01*
X141917867Y-112022116D01*
X141917867Y-112022123D01*
X141917866Y-112022135D01*
X141917866Y-113917870D01*
X141917867Y-113917876D01*
X141924274Y-113977483D01*
X141974568Y-114112328D01*
X141974572Y-114112335D01*
X142060818Y-114227544D01*
X142060821Y-114227547D01*
X142176030Y-114313793D01*
X142176037Y-114313797D01*
X142310883Y-114364091D01*
X142310882Y-114364091D01*
X142317810Y-114364835D01*
X142370493Y-114370500D01*
X144266238Y-114370499D01*
X144325849Y-114364091D01*
X144460697Y-114313796D01*
X144575912Y-114227546D01*
X144662162Y-114112331D01*
X144712457Y-113977483D01*
X144718866Y-113917873D01*
X144718865Y-112022128D01*
X144712457Y-111962517D01*
X144662162Y-111827669D01*
X144662161Y-111827668D01*
X144662159Y-111827664D01*
X144575913Y-111712455D01*
X144575910Y-111712452D01*
X144460701Y-111626206D01*
X144460694Y-111626202D01*
X144380785Y-111596398D01*
X144324851Y-111554527D01*
X144300434Y-111489062D01*
X144315286Y-111420789D01*
X144336435Y-111392537D01*
X144386608Y-111342365D01*
X144516181Y-111164022D01*
X144616261Y-110967606D01*
X144684381Y-110757951D01*
X144718866Y-110540222D01*
X144718866Y-110319778D01*
X144684381Y-110102049D01*
X144616261Y-109892394D01*
X144616261Y-109892393D01*
X144581603Y-109824375D01*
X144516181Y-109695978D01*
X144499626Y-109673192D01*
X144386613Y-109517641D01*
X144386609Y-109517636D01*
X144230729Y-109361756D01*
X144230724Y-109361752D01*
X144052391Y-109232187D01*
X144052390Y-109232186D01*
X144052388Y-109232185D01*
X143977849Y-109194205D01*
X143855972Y-109132104D01*
X143855969Y-109132103D01*
X143646318Y-109063985D01*
X143457050Y-109034008D01*
X143428588Y-109029500D01*
X143208144Y-109029500D01*
X143179682Y-109034008D01*
X142990411Y-109063985D01*
X142920160Y-109086811D01*
X142850319Y-109088806D01*
X142794162Y-109056561D01*
X141139782Y-107402181D01*
X141106297Y-107340858D01*
X141111281Y-107271166D01*
X141153153Y-107215233D01*
X141218617Y-107190816D01*
X141227463Y-107190500D01*
X147070596Y-107190500D01*
X147137635Y-107210185D01*
X147158277Y-107226819D01*
X149837254Y-109905796D01*
X149870739Y-109967119D01*
X149867504Y-110031794D01*
X149844678Y-110102045D01*
X149810193Y-110319778D01*
X149810193Y-110540221D01*
X149844678Y-110757952D01*
X149912796Y-110967603D01*
X149912797Y-110967606D01*
X150012880Y-111164025D01*
X150142445Y-111342358D01*
X150142449Y-111342363D01*
X150192621Y-111392535D01*
X150226106Y-111453858D01*
X150221122Y-111523550D01*
X150179250Y-111579483D01*
X150148274Y-111596398D01*
X150068362Y-111626203D01*
X150068357Y-111626206D01*
X149953148Y-111712452D01*
X149953145Y-111712455D01*
X149866899Y-111827664D01*
X149866895Y-111827671D01*
X149816601Y-111962517D01*
X149810194Y-112022116D01*
X149810194Y-112022123D01*
X149810193Y-112022135D01*
X149810193Y-113917870D01*
X149810194Y-113917876D01*
X149816601Y-113977483D01*
X149866895Y-114112328D01*
X149866899Y-114112335D01*
X149953145Y-114227544D01*
X149953148Y-114227547D01*
X150068357Y-114313793D01*
X150068364Y-114313797D01*
X150203210Y-114364091D01*
X150203209Y-114364091D01*
X150210137Y-114364835D01*
X150262820Y-114370500D01*
X152158565Y-114370499D01*
X152218176Y-114364091D01*
X152353024Y-114313796D01*
X152468239Y-114227546D01*
X152554489Y-114112331D01*
X152604784Y-113977483D01*
X152611193Y-113917873D01*
X152611192Y-112022128D01*
X152604784Y-111962517D01*
X152554489Y-111827669D01*
X152554488Y-111827668D01*
X152554486Y-111827664D01*
X152468240Y-111712455D01*
X152468237Y-111712452D01*
X152353028Y-111626206D01*
X152353021Y-111626202D01*
X152273112Y-111596398D01*
X152217178Y-111554527D01*
X152192761Y-111489062D01*
X152207613Y-111420789D01*
X152228762Y-111392537D01*
X152278935Y-111342365D01*
X152408508Y-111164022D01*
X152508588Y-110967606D01*
X152576708Y-110757951D01*
X152611193Y-110540222D01*
X152611193Y-110319778D01*
X152576708Y-110102049D01*
X152508588Y-109892394D01*
X152508588Y-109892393D01*
X152473930Y-109824375D01*
X152408508Y-109695978D01*
X152391953Y-109673192D01*
X152278940Y-109517641D01*
X152278936Y-109517636D01*
X152123056Y-109361756D01*
X152123051Y-109361752D01*
X151944718Y-109232187D01*
X151944717Y-109232186D01*
X151944715Y-109232185D01*
X151870176Y-109194205D01*
X151748299Y-109132104D01*
X151748296Y-109132103D01*
X151538645Y-109063985D01*
X151349377Y-109034008D01*
X151320915Y-109029500D01*
X151100471Y-109029500D01*
X151072009Y-109034008D01*
X150882738Y-109063985D01*
X150812487Y-109086811D01*
X150742646Y-109088806D01*
X150686489Y-109056561D01*
X147942109Y-106312181D01*
X147908624Y-106250858D01*
X147913608Y-106181166D01*
X147955480Y-106125233D01*
X148020944Y-106100816D01*
X148029790Y-106100500D01*
X153872923Y-106100500D01*
X153939962Y-106120185D01*
X153960604Y-106136819D01*
X157729581Y-109905796D01*
X157763066Y-109967119D01*
X157759831Y-110031794D01*
X157737005Y-110102045D01*
X157702520Y-110319778D01*
X157702520Y-110540221D01*
X157737005Y-110757952D01*
X157805123Y-110967603D01*
X157805124Y-110967606D01*
X157905207Y-111164025D01*
X158034772Y-111342358D01*
X158034776Y-111342363D01*
X158084948Y-111392535D01*
X158118433Y-111453858D01*
X158113449Y-111523550D01*
X158071577Y-111579483D01*
X158040601Y-111596398D01*
X157960689Y-111626203D01*
X157960684Y-111626206D01*
X157845475Y-111712452D01*
X157845472Y-111712455D01*
X157759226Y-111827664D01*
X157759222Y-111827671D01*
X157708928Y-111962517D01*
X157702521Y-112022116D01*
X157702521Y-112022123D01*
X157702520Y-112022135D01*
X157702520Y-113917870D01*
X157702521Y-113917876D01*
X157708928Y-113977483D01*
X157759222Y-114112328D01*
X157759226Y-114112335D01*
X157845472Y-114227544D01*
X157845475Y-114227547D01*
X157960684Y-114313793D01*
X157960691Y-114313797D01*
X158095537Y-114364091D01*
X158095536Y-114364091D01*
X158102464Y-114364835D01*
X158155147Y-114370500D01*
X160050892Y-114370499D01*
X160110503Y-114364091D01*
X160245351Y-114313796D01*
X160360566Y-114227546D01*
X160446816Y-114112331D01*
X160497111Y-113977483D01*
X160503520Y-113917873D01*
X160503519Y-112022128D01*
X160497111Y-111962517D01*
X160446816Y-111827669D01*
X160446815Y-111827668D01*
X160446813Y-111827664D01*
X160360567Y-111712455D01*
X160360564Y-111712452D01*
X160245355Y-111626206D01*
X160245348Y-111626202D01*
X160165439Y-111596398D01*
X160109505Y-111554527D01*
X160085088Y-111489062D01*
X160099940Y-111420789D01*
X160121089Y-111392537D01*
X160171262Y-111342365D01*
X160300835Y-111164022D01*
X160400915Y-110967606D01*
X160469035Y-110757951D01*
X160503520Y-110540222D01*
X160503520Y-110319778D01*
X160469035Y-110102049D01*
X160400915Y-109892394D01*
X160400915Y-109892393D01*
X160366257Y-109824375D01*
X160300835Y-109695978D01*
X160284280Y-109673192D01*
X160171267Y-109517641D01*
X160171263Y-109517636D01*
X160015383Y-109361756D01*
X160015378Y-109361752D01*
X159837045Y-109232187D01*
X159837044Y-109232186D01*
X159837042Y-109232185D01*
X159762503Y-109194205D01*
X159640626Y-109132104D01*
X159640623Y-109132103D01*
X159430972Y-109063985D01*
X159241704Y-109034008D01*
X159213242Y-109029500D01*
X158992798Y-109029500D01*
X158964336Y-109034008D01*
X158775065Y-109063985D01*
X158704814Y-109086811D01*
X158634973Y-109088806D01*
X158578816Y-109056561D01*
X154944436Y-105422181D01*
X154910951Y-105360858D01*
X154915935Y-105291166D01*
X154957807Y-105235233D01*
X155023271Y-105210816D01*
X155032117Y-105210500D01*
X160875250Y-105210500D01*
X160942289Y-105230185D01*
X160962931Y-105246819D01*
X165621908Y-109905796D01*
X165655393Y-109967119D01*
X165652158Y-110031794D01*
X165629332Y-110102045D01*
X165594847Y-110319778D01*
X165594847Y-110540221D01*
X165629332Y-110757952D01*
X165697450Y-110967603D01*
X165697451Y-110967606D01*
X165797534Y-111164025D01*
X165927099Y-111342358D01*
X165927103Y-111342363D01*
X165977275Y-111392535D01*
X166010760Y-111453858D01*
X166005776Y-111523550D01*
X165963904Y-111579483D01*
X165932928Y-111596398D01*
X165853016Y-111626203D01*
X165853011Y-111626206D01*
X165737802Y-111712452D01*
X165737799Y-111712455D01*
X165651553Y-111827664D01*
X165651549Y-111827671D01*
X165601255Y-111962517D01*
X165594848Y-112022116D01*
X165594848Y-112022123D01*
X165594847Y-112022135D01*
X165594847Y-113917870D01*
X165594848Y-113917876D01*
X165601255Y-113977483D01*
X165651549Y-114112328D01*
X165651553Y-114112335D01*
X165737799Y-114227544D01*
X165737802Y-114227547D01*
X165853011Y-114313793D01*
X165853018Y-114313797D01*
X165987864Y-114364091D01*
X165987863Y-114364091D01*
X165994791Y-114364835D01*
X166047474Y-114370500D01*
X167943219Y-114370499D01*
X168002830Y-114364091D01*
X168137678Y-114313796D01*
X168252893Y-114227546D01*
X168339143Y-114112331D01*
X168389438Y-113977483D01*
X168395847Y-113917873D01*
X168395846Y-112022128D01*
X168389438Y-111962517D01*
X168339143Y-111827669D01*
X168339142Y-111827668D01*
X168339140Y-111827664D01*
X168252894Y-111712455D01*
X168252891Y-111712452D01*
X168137682Y-111626206D01*
X168137675Y-111626202D01*
X168057766Y-111596398D01*
X168001832Y-111554527D01*
X167977415Y-111489062D01*
X167992267Y-111420789D01*
X168013416Y-111392537D01*
X168063589Y-111342365D01*
X168193162Y-111164022D01*
X168293242Y-110967606D01*
X168361362Y-110757951D01*
X168395847Y-110540222D01*
X168395847Y-110319778D01*
X173487173Y-110319778D01*
X173487173Y-110540221D01*
X173521658Y-110757952D01*
X173589776Y-110967603D01*
X173589777Y-110967606D01*
X173689860Y-111164025D01*
X173819425Y-111342358D01*
X173819429Y-111342363D01*
X173869601Y-111392535D01*
X173903086Y-111453858D01*
X173898102Y-111523550D01*
X173856230Y-111579483D01*
X173825254Y-111596398D01*
X173745342Y-111626203D01*
X173745337Y-111626206D01*
X173630128Y-111712452D01*
X173630125Y-111712455D01*
X173543879Y-111827664D01*
X173543875Y-111827671D01*
X173493581Y-111962517D01*
X173487174Y-112022116D01*
X173487174Y-112022123D01*
X173487173Y-112022135D01*
X173487173Y-113917870D01*
X173487174Y-113917876D01*
X173493581Y-113977483D01*
X173543875Y-114112328D01*
X173543879Y-114112335D01*
X173630125Y-114227544D01*
X173630128Y-114227547D01*
X173745337Y-114313793D01*
X173745344Y-114313797D01*
X173880190Y-114364091D01*
X173880189Y-114364091D01*
X173887117Y-114364835D01*
X173939800Y-114370500D01*
X175835545Y-114370499D01*
X175895156Y-114364091D01*
X176030004Y-114313796D01*
X176145219Y-114227546D01*
X176231469Y-114112331D01*
X176281764Y-113977483D01*
X176288173Y-113917873D01*
X176288172Y-112022128D01*
X176281764Y-111962517D01*
X176231469Y-111827669D01*
X176231468Y-111827668D01*
X176231466Y-111827664D01*
X176145220Y-111712455D01*
X176145217Y-111712452D01*
X176030008Y-111626206D01*
X176030001Y-111626202D01*
X175950092Y-111596398D01*
X175894158Y-111554527D01*
X175869741Y-111489062D01*
X175884593Y-111420789D01*
X175905742Y-111392537D01*
X175955915Y-111342365D01*
X176085488Y-111164022D01*
X176185568Y-110967606D01*
X176253688Y-110757951D01*
X176288173Y-110540222D01*
X176288173Y-110319778D01*
X181379500Y-110319778D01*
X181379500Y-110540221D01*
X181413985Y-110757952D01*
X181482103Y-110967603D01*
X181482104Y-110967606D01*
X181582187Y-111164025D01*
X181711752Y-111342358D01*
X181711756Y-111342363D01*
X181761928Y-111392535D01*
X181795413Y-111453858D01*
X181790429Y-111523550D01*
X181748557Y-111579483D01*
X181717581Y-111596398D01*
X181637669Y-111626203D01*
X181637664Y-111626206D01*
X181522455Y-111712452D01*
X181522452Y-111712455D01*
X181436206Y-111827664D01*
X181436202Y-111827671D01*
X181385908Y-111962517D01*
X181379501Y-112022116D01*
X181379501Y-112022123D01*
X181379500Y-112022135D01*
X181379500Y-113917870D01*
X181379501Y-113917876D01*
X181385908Y-113977483D01*
X181436202Y-114112328D01*
X181436206Y-114112335D01*
X181522452Y-114227544D01*
X181522455Y-114227547D01*
X181637664Y-114313793D01*
X181637671Y-114313797D01*
X181772517Y-114364091D01*
X181772516Y-114364091D01*
X181779444Y-114364835D01*
X181832127Y-114370500D01*
X183727872Y-114370499D01*
X183787483Y-114364091D01*
X183922331Y-114313796D01*
X184037546Y-114227546D01*
X184123796Y-114112331D01*
X184174091Y-113977483D01*
X184180500Y-113917873D01*
X184180499Y-112022128D01*
X184174091Y-111962517D01*
X184123796Y-111827669D01*
X184123795Y-111827668D01*
X184123793Y-111827664D01*
X184037547Y-111712455D01*
X184037544Y-111712452D01*
X183922335Y-111626206D01*
X183922328Y-111626202D01*
X183842419Y-111596398D01*
X183786485Y-111554527D01*
X183762068Y-111489062D01*
X183776920Y-111420789D01*
X183798069Y-111392537D01*
X183848242Y-111342365D01*
X183977815Y-111164022D01*
X184077895Y-110967606D01*
X184146015Y-110757951D01*
X184180500Y-110540222D01*
X184180500Y-110319778D01*
X184146015Y-110102049D01*
X184077895Y-109892394D01*
X184077895Y-109892393D01*
X184043237Y-109824375D01*
X183977815Y-109695978D01*
X183961260Y-109673192D01*
X183848247Y-109517641D01*
X183848243Y-109517636D01*
X183692363Y-109361756D01*
X183692358Y-109361752D01*
X183514025Y-109232187D01*
X183514024Y-109232186D01*
X183514022Y-109232185D01*
X183439483Y-109194205D01*
X183317606Y-109132104D01*
X183317603Y-109132103D01*
X183107952Y-109063985D01*
X182918684Y-109034008D01*
X182890222Y-109029500D01*
X182669778Y-109029500D01*
X182641316Y-109034008D01*
X182452047Y-109063985D01*
X182242396Y-109132103D01*
X182242393Y-109132104D01*
X182045974Y-109232187D01*
X181867641Y-109361752D01*
X181867636Y-109361756D01*
X181711756Y-109517636D01*
X181711752Y-109517641D01*
X181582187Y-109695974D01*
X181482104Y-109892393D01*
X181482103Y-109892396D01*
X181413985Y-110102047D01*
X181379500Y-110319778D01*
X176288173Y-110319778D01*
X176253688Y-110102049D01*
X176185568Y-109892394D01*
X176185568Y-109892393D01*
X176150910Y-109824375D01*
X176085488Y-109695978D01*
X176068933Y-109673192D01*
X175955920Y-109517641D01*
X175955916Y-109517636D01*
X175800036Y-109361756D01*
X175800031Y-109361752D01*
X175621698Y-109232187D01*
X175621697Y-109232186D01*
X175621695Y-109232185D01*
X175547156Y-109194205D01*
X175425279Y-109132104D01*
X175425276Y-109132103D01*
X175215625Y-109063985D01*
X175026357Y-109034008D01*
X174997895Y-109029500D01*
X174777451Y-109029500D01*
X174748989Y-109034008D01*
X174559720Y-109063985D01*
X174350069Y-109132103D01*
X174350066Y-109132104D01*
X174153647Y-109232187D01*
X173975314Y-109361752D01*
X173975309Y-109361756D01*
X173819429Y-109517636D01*
X173819425Y-109517641D01*
X173689860Y-109695974D01*
X173589777Y-109892393D01*
X173589776Y-109892396D01*
X173521658Y-110102047D01*
X173487173Y-110319778D01*
X168395847Y-110319778D01*
X168361362Y-110102049D01*
X168293242Y-109892394D01*
X168293242Y-109892393D01*
X168258584Y-109824375D01*
X168193162Y-109695978D01*
X168176607Y-109673192D01*
X168063594Y-109517641D01*
X168063590Y-109517636D01*
X167907710Y-109361756D01*
X167907705Y-109361752D01*
X167729372Y-109232187D01*
X167729371Y-109232186D01*
X167729369Y-109232185D01*
X167654830Y-109194205D01*
X167532953Y-109132104D01*
X167532950Y-109132103D01*
X167323299Y-109063985D01*
X167134031Y-109034008D01*
X167105569Y-109029500D01*
X166885125Y-109029500D01*
X166856663Y-109034008D01*
X166667392Y-109063985D01*
X166597141Y-109086811D01*
X166527300Y-109088806D01*
X166471143Y-109056561D01*
X162283454Y-104868872D01*
X185969500Y-104868872D01*
X185969500Y-105131127D01*
X185979992Y-105210816D01*
X186003730Y-105391116D01*
X186058200Y-105594401D01*
X186071602Y-105644418D01*
X186071605Y-105644428D01*
X186171953Y-105886690D01*
X186171958Y-105886700D01*
X186303075Y-106113803D01*
X186462718Y-106321851D01*
X186462726Y-106321860D01*
X186648140Y-106507274D01*
X186648148Y-106507281D01*
X186856196Y-106666924D01*
X187083299Y-106798041D01*
X187083309Y-106798046D01*
X187325571Y-106898394D01*
X187325581Y-106898398D01*
X187578884Y-106966270D01*
X187838880Y-107000500D01*
X187838887Y-107000500D01*
X188101113Y-107000500D01*
X188101120Y-107000500D01*
X188361116Y-106966270D01*
X188614419Y-106898398D01*
X188856697Y-106798043D01*
X189083803Y-106666924D01*
X189291851Y-106507282D01*
X189291855Y-106507277D01*
X189291860Y-106507274D01*
X189477274Y-106321860D01*
X189477277Y-106321855D01*
X189477282Y-106321851D01*
X189636924Y-106113803D01*
X189768043Y-105886697D01*
X189868398Y-105644419D01*
X189936270Y-105391116D01*
X189970500Y-105131120D01*
X189970500Y-104868880D01*
X189936270Y-104608884D01*
X189868398Y-104355581D01*
X189868394Y-104355571D01*
X189768046Y-104113309D01*
X189768041Y-104113299D01*
X189636924Y-103886196D01*
X189477281Y-103678148D01*
X189477274Y-103678140D01*
X189291860Y-103492726D01*
X189291851Y-103492718D01*
X189083803Y-103333075D01*
X188856700Y-103201958D01*
X188856690Y-103201953D01*
X188614428Y-103101605D01*
X188614421Y-103101603D01*
X188614419Y-103101602D01*
X188361116Y-103033730D01*
X188303339Y-103026123D01*
X188101127Y-102999500D01*
X188101120Y-102999500D01*
X187838880Y-102999500D01*
X187838872Y-102999500D01*
X187607772Y-103029926D01*
X187578884Y-103033730D01*
X187378039Y-103087546D01*
X187325581Y-103101602D01*
X187325571Y-103101605D01*
X187083309Y-103201953D01*
X187083299Y-103201958D01*
X186856196Y-103333075D01*
X186648148Y-103492718D01*
X186462718Y-103678148D01*
X186303075Y-103886196D01*
X186171958Y-104113299D01*
X186171953Y-104113309D01*
X186071605Y-104355571D01*
X186071602Y-104355581D01*
X186003730Y-104608885D01*
X185969500Y-104868872D01*
X162283454Y-104868872D01*
X161662937Y-104248355D01*
X161662935Y-104248352D01*
X161544064Y-104129481D01*
X161544063Y-104129480D01*
X161457251Y-104079360D01*
X161457251Y-104079359D01*
X161457247Y-104079358D01*
X161407132Y-104050423D01*
X161254404Y-104009499D01*
X161096290Y-104009499D01*
X161088694Y-104009499D01*
X161088678Y-104009500D01*
X144178786Y-104009500D01*
X144111747Y-103989815D01*
X144065992Y-103937011D01*
X144054786Y-103885500D01*
X144054786Y-103640791D01*
X144074471Y-103573752D01*
X144105898Y-103540475D01*
X144236359Y-103445690D01*
X144369976Y-103312073D01*
X144481046Y-103159199D01*
X144566833Y-102990832D01*
X144625226Y-102811118D01*
X144630491Y-102777876D01*
X144654786Y-102624486D01*
X144654786Y-102435513D01*
X145416643Y-102435513D01*
X145416643Y-102624486D01*
X145446202Y-102811118D01*
X145504597Y-102990836D01*
X145561036Y-103101602D01*
X145590383Y-103159199D01*
X145701453Y-103312073D01*
X145835070Y-103445690D01*
X145987944Y-103556760D01*
X146021293Y-103573752D01*
X146156306Y-103642545D01*
X146156308Y-103642545D01*
X146156311Y-103642547D01*
X146252640Y-103673846D01*
X146336024Y-103700940D01*
X146522657Y-103730500D01*
X146522662Y-103730500D01*
X146711629Y-103730500D01*
X146898261Y-103700940D01*
X147077975Y-103642547D01*
X147246342Y-103556760D01*
X147399216Y-103445690D01*
X147532833Y-103312073D01*
X147643903Y-103159199D01*
X147729690Y-102990832D01*
X147788083Y-102811118D01*
X147793348Y-102777876D01*
X147817643Y-102624486D01*
X147817643Y-102435513D01*
X148579500Y-102435513D01*
X148579500Y-102624486D01*
X148609059Y-102811118D01*
X148667454Y-102990836D01*
X148723893Y-103101602D01*
X148753240Y-103159199D01*
X148864310Y-103312073D01*
X148997927Y-103445690D01*
X149150801Y-103556760D01*
X149184150Y-103573752D01*
X149319163Y-103642545D01*
X149319165Y-103642545D01*
X149319168Y-103642547D01*
X149415497Y-103673846D01*
X149498881Y-103700940D01*
X149685514Y-103730500D01*
X149685519Y-103730500D01*
X149874486Y-103730500D01*
X150061118Y-103700940D01*
X150240832Y-103642547D01*
X150409199Y-103556760D01*
X150562073Y-103445690D01*
X150695690Y-103312073D01*
X150806760Y-103159199D01*
X150892547Y-102990832D01*
X150950940Y-102811118D01*
X150956205Y-102777876D01*
X150980500Y-102624486D01*
X150980500Y-102435513D01*
X150950940Y-102248881D01*
X150892545Y-102069163D01*
X150806759Y-101900800D01*
X150796017Y-101886015D01*
X150695690Y-101747927D01*
X150562073Y-101614310D01*
X150409199Y-101503240D01*
X150240836Y-101417454D01*
X150061118Y-101359059D01*
X149874486Y-101329500D01*
X149874481Y-101329500D01*
X149685519Y-101329500D01*
X149685514Y-101329500D01*
X149498881Y-101359059D01*
X149319163Y-101417454D01*
X149150800Y-101503240D01*
X149063579Y-101566610D01*
X148997927Y-101614310D01*
X148997925Y-101614312D01*
X148997924Y-101614312D01*
X148864312Y-101747924D01*
X148864312Y-101747925D01*
X148864310Y-101747927D01*
X148816610Y-101813579D01*
X148753240Y-101900800D01*
X148667454Y-102069163D01*
X148609059Y-102248881D01*
X148579500Y-102435513D01*
X147817643Y-102435513D01*
X147788083Y-102248881D01*
X147729688Y-102069163D01*
X147643902Y-101900800D01*
X147633160Y-101886015D01*
X147532833Y-101747927D01*
X147399216Y-101614310D01*
X147246342Y-101503240D01*
X147077979Y-101417454D01*
X146898261Y-101359059D01*
X146711629Y-101329500D01*
X146711624Y-101329500D01*
X146522662Y-101329500D01*
X146522657Y-101329500D01*
X146336024Y-101359059D01*
X146156306Y-101417454D01*
X145987943Y-101503240D01*
X145900722Y-101566610D01*
X145835070Y-101614310D01*
X145835068Y-101614312D01*
X145835067Y-101614312D01*
X145701455Y-101747924D01*
X145701455Y-101747925D01*
X145701453Y-101747927D01*
X145653753Y-101813579D01*
X145590383Y-101900800D01*
X145504597Y-102069163D01*
X145446202Y-102248881D01*
X145416643Y-102435513D01*
X144654786Y-102435513D01*
X144625226Y-102248881D01*
X144566831Y-102069163D01*
X144481045Y-101900800D01*
X144470303Y-101886015D01*
X144369976Y-101747927D01*
X144236359Y-101614310D01*
X144083485Y-101503240D01*
X143915122Y-101417454D01*
X143735404Y-101359059D01*
X143548772Y-101329500D01*
X143548767Y-101329500D01*
X143359805Y-101329500D01*
X143359800Y-101329500D01*
X143173167Y-101359059D01*
X142993449Y-101417454D01*
X142825086Y-101503240D01*
X142737865Y-101566610D01*
X142672213Y-101614310D01*
X142672211Y-101614312D01*
X142672210Y-101614312D01*
X142538598Y-101747924D01*
X142538598Y-101747925D01*
X142538596Y-101747927D01*
X142490896Y-101813579D01*
X142427526Y-101900800D01*
X142341740Y-102069163D01*
X142283345Y-102248881D01*
X142253786Y-102435513D01*
X142253786Y-102624486D01*
X142283345Y-102811118D01*
X142341740Y-102990836D01*
X142398179Y-103101602D01*
X142427526Y-103159199D01*
X142538596Y-103312073D01*
X142672213Y-103445690D01*
X142802672Y-103540474D01*
X142845337Y-103595803D01*
X142853786Y-103640791D01*
X142853786Y-104497616D01*
X142853785Y-104497634D01*
X142853785Y-104663340D01*
X142853784Y-104663340D01*
X142853785Y-104663343D01*
X142875238Y-104743408D01*
X142873576Y-104813256D01*
X142834414Y-104871118D01*
X142770186Y-104898623D01*
X142755464Y-104899500D01*
X141015929Y-104899500D01*
X140948890Y-104879815D01*
X140903135Y-104827011D01*
X140891929Y-104775500D01*
X140891929Y-103640791D01*
X140911614Y-103573752D01*
X140943041Y-103540475D01*
X141073502Y-103445690D01*
X141207119Y-103312073D01*
X141318189Y-103159199D01*
X141403976Y-102990832D01*
X141462369Y-102811118D01*
X141467634Y-102777876D01*
X141491929Y-102624486D01*
X141491929Y-102435513D01*
X141462369Y-102248881D01*
X141403974Y-102069163D01*
X141318188Y-101900800D01*
X141307446Y-101886015D01*
X141207119Y-101747927D01*
X141073502Y-101614310D01*
X140920628Y-101503240D01*
X140752265Y-101417454D01*
X140572547Y-101359059D01*
X140385915Y-101329500D01*
X140385910Y-101329500D01*
X140196948Y-101329500D01*
X140196943Y-101329500D01*
X140010310Y-101359059D01*
X139830592Y-101417454D01*
X139662229Y-101503240D01*
X139575008Y-101566610D01*
X139509356Y-101614310D01*
X139509354Y-101614312D01*
X139509353Y-101614312D01*
X139375741Y-101747924D01*
X139375741Y-101747925D01*
X139375739Y-101747927D01*
X139328039Y-101813579D01*
X139264669Y-101900800D01*
X139178883Y-102069163D01*
X139120488Y-102248881D01*
X139090929Y-102435513D01*
X139090929Y-102624486D01*
X139120488Y-102811118D01*
X139178883Y-102990836D01*
X139235322Y-103101602D01*
X139264669Y-103159199D01*
X139375739Y-103312073D01*
X139509356Y-103445690D01*
X139639815Y-103540474D01*
X139682480Y-103595803D01*
X139690929Y-103640791D01*
X139690929Y-105384759D01*
X139690928Y-105384777D01*
X139690928Y-105550483D01*
X139690927Y-105550483D01*
X139731852Y-105703215D01*
X139741077Y-105719192D01*
X139746024Y-105727760D01*
X139789753Y-105803501D01*
X139797988Y-105837451D01*
X139806225Y-105871401D01*
X139783372Y-105937428D01*
X139728451Y-105980618D01*
X139682365Y-105989500D01*
X137853071Y-105989500D01*
X137786032Y-105969815D01*
X137740277Y-105917011D01*
X137729071Y-105865500D01*
X137729071Y-103640791D01*
X137748756Y-103573752D01*
X137780183Y-103540475D01*
X137910644Y-103445690D01*
X138044261Y-103312073D01*
X138155331Y-103159199D01*
X138241118Y-102990832D01*
X138299511Y-102811118D01*
X138304776Y-102777876D01*
X138329071Y-102624486D01*
X138329071Y-102435513D01*
X138299511Y-102248881D01*
X138241116Y-102069163D01*
X138155330Y-101900800D01*
X138144588Y-101886015D01*
X138044261Y-101747927D01*
X137910644Y-101614310D01*
X137757770Y-101503240D01*
X137589407Y-101417454D01*
X137409689Y-101359059D01*
X137223057Y-101329500D01*
X137223052Y-101329500D01*
X137034090Y-101329500D01*
X137034085Y-101329500D01*
X136847452Y-101359059D01*
X136667734Y-101417454D01*
X136499371Y-101503240D01*
X136412150Y-101566610D01*
X136346498Y-101614310D01*
X136346496Y-101614312D01*
X136346495Y-101614312D01*
X136212883Y-101747924D01*
X136212883Y-101747925D01*
X136212881Y-101747927D01*
X136165181Y-101813579D01*
X136101811Y-101900800D01*
X136016025Y-102069163D01*
X135957630Y-102248881D01*
X135928071Y-102435513D01*
X135928071Y-102624486D01*
X135957630Y-102811118D01*
X136016025Y-102990836D01*
X136072464Y-103101602D01*
X136101811Y-103159199D01*
X136212881Y-103312073D01*
X136346498Y-103445690D01*
X136476957Y-103540474D01*
X136519622Y-103595803D01*
X136528071Y-103640791D01*
X136528071Y-106091901D01*
X136528070Y-106091919D01*
X136528070Y-106257625D01*
X136528069Y-106257625D01*
X136528070Y-106257628D01*
X136568994Y-106410356D01*
X136568995Y-106410357D01*
X136569734Y-106411637D01*
X136569737Y-106411643D01*
X136648048Y-106547283D01*
X136648052Y-106547288D01*
X136766920Y-106666156D01*
X136766926Y-106666161D01*
X136978584Y-106877819D01*
X137012069Y-106939142D01*
X137007085Y-107008834D01*
X136965213Y-107064767D01*
X136899749Y-107089184D01*
X136890903Y-107089500D01*
X135010097Y-107089500D01*
X134943058Y-107069815D01*
X134922416Y-107053181D01*
X134602533Y-106733298D01*
X134569048Y-106671975D01*
X134566214Y-106645617D01*
X134566214Y-103640791D01*
X134585899Y-103573752D01*
X134617326Y-103540475D01*
X134747787Y-103445690D01*
X134881404Y-103312073D01*
X134992474Y-103159199D01*
X135078261Y-102990832D01*
X135136654Y-102811118D01*
X135141919Y-102777876D01*
X135166214Y-102624486D01*
X135166214Y-102435513D01*
X135136654Y-102248881D01*
X135078259Y-102069163D01*
X134992473Y-101900800D01*
X134981731Y-101886015D01*
X134881404Y-101747927D01*
X134747787Y-101614310D01*
X134594913Y-101503240D01*
X134426550Y-101417454D01*
X134246832Y-101359059D01*
X134060200Y-101329500D01*
X134060195Y-101329500D01*
X133871233Y-101329500D01*
X133871228Y-101329500D01*
X133684595Y-101359059D01*
X133504877Y-101417454D01*
X133336514Y-101503240D01*
X133249293Y-101566610D01*
X133183641Y-101614310D01*
X133183639Y-101614312D01*
X133183638Y-101614312D01*
X133050026Y-101747924D01*
X133050026Y-101747925D01*
X133050024Y-101747927D01*
X133002324Y-101813579D01*
X132938954Y-101900800D01*
X132853168Y-102069163D01*
X132794773Y-102248881D01*
X132765214Y-102435513D01*
X132765214Y-102624486D01*
X132794773Y-102811118D01*
X132853168Y-102990836D01*
X132909607Y-103101602D01*
X132938954Y-103159199D01*
X133050024Y-103312073D01*
X133183641Y-103445690D01*
X133314100Y-103540474D01*
X133356765Y-103595803D01*
X133365214Y-103640791D01*
X133365214Y-106859044D01*
X133365213Y-106859062D01*
X133365213Y-107024768D01*
X133365212Y-107024768D01*
X133375930Y-107064767D01*
X133406137Y-107177499D01*
X133424602Y-107209481D01*
X133427923Y-107215233D01*
X133458885Y-107268861D01*
X133475357Y-107336761D01*
X133452504Y-107402788D01*
X133397582Y-107445978D01*
X133328029Y-107452619D01*
X133265927Y-107420603D01*
X133263816Y-107418541D01*
X131439676Y-105594401D01*
X131406191Y-105533078D01*
X131403357Y-105506720D01*
X131403357Y-103640791D01*
X131423042Y-103573752D01*
X131454469Y-103540475D01*
X131584930Y-103445690D01*
X131718547Y-103312073D01*
X131829617Y-103159199D01*
X131915404Y-102990832D01*
X131973797Y-102811118D01*
X131979062Y-102777876D01*
X132003357Y-102624486D01*
X132003357Y-102435513D01*
X131973797Y-102248881D01*
X131915402Y-102069163D01*
X131829616Y-101900800D01*
X131818874Y-101886015D01*
X131718547Y-101747927D01*
X131584930Y-101614310D01*
X131432056Y-101503240D01*
X131263693Y-101417454D01*
X131083975Y-101359059D01*
X130897343Y-101329500D01*
X130897338Y-101329500D01*
X130708376Y-101329500D01*
X130708371Y-101329500D01*
X130521738Y-101359059D01*
X130342020Y-101417454D01*
X130173657Y-101503240D01*
X130086436Y-101566610D01*
X130020784Y-101614310D01*
X130020782Y-101614312D01*
X130020781Y-101614312D01*
X129887169Y-101747924D01*
X129887169Y-101747925D01*
X129887167Y-101747927D01*
X129839467Y-101813579D01*
X129776097Y-101900800D01*
X129690311Y-102069163D01*
X129631916Y-102248881D01*
X129602357Y-102435513D01*
X128840500Y-102435513D01*
X128810940Y-102248881D01*
X128752545Y-102069163D01*
X128666759Y-101900800D01*
X128656017Y-101886015D01*
X128555690Y-101747927D01*
X128422073Y-101614310D01*
X128269199Y-101503240D01*
X128100836Y-101417454D01*
X127921118Y-101359059D01*
X127734486Y-101329500D01*
X127734481Y-101329500D01*
X127545519Y-101329500D01*
X127545514Y-101329500D01*
X127358881Y-101359059D01*
X127179163Y-101417454D01*
X127010800Y-101503240D01*
X126923579Y-101566610D01*
X126857927Y-101614310D01*
X126857925Y-101614312D01*
X126857924Y-101614312D01*
X126724312Y-101747924D01*
X126724312Y-101747925D01*
X126724310Y-101747927D01*
X126676610Y-101813579D01*
X126613240Y-101900800D01*
X126527454Y-102069163D01*
X126469059Y-102248881D01*
X126439500Y-102435513D01*
X126439500Y-102624486D01*
X126469059Y-102811118D01*
X126527454Y-102990836D01*
X126583893Y-103101602D01*
X126613240Y-103159199D01*
X126724310Y-103312073D01*
X126857927Y-103445690D01*
X126988386Y-103540474D01*
X127031051Y-103595803D01*
X127039500Y-103640791D01*
X127039500Y-109034008D01*
X127019815Y-109101047D01*
X126971795Y-109144492D01*
X126874230Y-109194205D01*
X126799687Y-109232187D01*
X126621354Y-109361752D01*
X126621349Y-109361756D01*
X126465469Y-109517636D01*
X126465465Y-109517641D01*
X126335900Y-109695974D01*
X126235817Y-109892393D01*
X126235816Y-109892396D01*
X126167698Y-110102047D01*
X126133213Y-110319778D01*
X123000500Y-110319778D01*
X123000500Y-99919054D01*
X153379498Y-99919054D01*
X153379499Y-99919057D01*
X153420423Y-100071785D01*
X153443416Y-100111610D01*
X153499477Y-100208712D01*
X153499481Y-100208717D01*
X153618349Y-100327585D01*
X153618355Y-100327590D01*
X154175139Y-100884374D01*
X154175149Y-100884385D01*
X154179479Y-100888715D01*
X154179480Y-100888716D01*
X154291284Y-101000520D01*
X154378095Y-101050639D01*
X154378097Y-101050641D01*
X154428213Y-101079576D01*
X154428215Y-101079577D01*
X154580942Y-101120500D01*
X154580943Y-101120500D01*
X156498164Y-101120500D01*
X156565203Y-101140185D01*
X156608648Y-101188204D01*
X156642185Y-101254023D01*
X156771752Y-101432358D01*
X156771756Y-101432363D01*
X156927636Y-101588243D01*
X156927641Y-101588247D01*
X156963517Y-101614312D01*
X157105978Y-101717815D01*
X157234375Y-101783237D01*
X157302393Y-101817895D01*
X157302396Y-101817896D01*
X157407221Y-101851955D01*
X157512049Y-101886015D01*
X157729778Y-101920500D01*
X157729779Y-101920500D01*
X157950221Y-101920500D01*
X157950222Y-101920500D01*
X158167951Y-101886015D01*
X158377606Y-101817895D01*
X158574022Y-101717815D01*
X158752365Y-101588242D01*
X158908242Y-101432365D01*
X159037815Y-101254022D01*
X159137895Y-101057606D01*
X159206015Y-100847951D01*
X159240500Y-100630222D01*
X159240500Y-100409778D01*
X159206015Y-100192049D01*
X159166940Y-100071786D01*
X159137896Y-99982396D01*
X159137895Y-99982393D01*
X159071351Y-99851796D01*
X159037815Y-99785978D01*
X158922736Y-99627584D01*
X158908247Y-99607641D01*
X158908243Y-99607636D01*
X158858071Y-99557464D01*
X158824586Y-99496141D01*
X158829570Y-99426449D01*
X158871442Y-99370516D01*
X158902420Y-99353601D01*
X158982326Y-99323798D01*
X158982326Y-99323797D01*
X158982331Y-99323796D01*
X159097546Y-99237546D01*
X159183796Y-99122331D01*
X159234091Y-98987483D01*
X159240500Y-98927873D01*
X159240499Y-97032128D01*
X159234091Y-96972517D01*
X159231198Y-96964761D01*
X159183797Y-96837671D01*
X159183793Y-96837664D01*
X159097547Y-96722455D01*
X159097544Y-96722452D01*
X158982335Y-96636206D01*
X158982328Y-96636202D01*
X158847482Y-96585908D01*
X158847483Y-96585908D01*
X158787883Y-96579501D01*
X158787881Y-96579500D01*
X158787873Y-96579500D01*
X158787864Y-96579500D01*
X156892129Y-96579500D01*
X156892123Y-96579501D01*
X156832516Y-96585908D01*
X156697671Y-96636202D01*
X156697664Y-96636206D01*
X156582455Y-96722452D01*
X156582452Y-96722455D01*
X156496206Y-96837664D01*
X156496202Y-96837671D01*
X156445908Y-96972517D01*
X156439501Y-97032116D01*
X156439501Y-97032123D01*
X156439500Y-97032135D01*
X156439500Y-98927870D01*
X156439501Y-98927876D01*
X156445908Y-98987483D01*
X156496202Y-99122328D01*
X156496206Y-99122335D01*
X156582452Y-99237544D01*
X156582455Y-99237547D01*
X156697664Y-99323793D01*
X156697671Y-99323797D01*
X156777580Y-99353601D01*
X156833514Y-99395472D01*
X156857931Y-99460936D01*
X156843080Y-99529209D01*
X156821929Y-99557463D01*
X156771756Y-99607636D01*
X156771752Y-99607641D01*
X156642185Y-99785976D01*
X156608648Y-99851796D01*
X156560674Y-99902591D01*
X156498164Y-99919500D01*
X154960097Y-99919500D01*
X154893058Y-99899815D01*
X154872416Y-99883181D01*
X154616819Y-99627584D01*
X154583334Y-99566261D01*
X154580500Y-99539903D01*
X154580500Y-96330096D01*
X154600185Y-96263057D01*
X154616815Y-96242419D01*
X155229169Y-95630064D01*
X155290490Y-95596581D01*
X155336246Y-95595274D01*
X155495514Y-95620500D01*
X155495519Y-95620500D01*
X155684486Y-95620500D01*
X155871118Y-95590940D01*
X155901753Y-95580986D01*
X156050832Y-95532547D01*
X156219199Y-95446760D01*
X156372073Y-95335690D01*
X156505690Y-95202073D01*
X156616760Y-95049199D01*
X156702547Y-94880832D01*
X156760940Y-94701118D01*
X156764798Y-94676760D01*
X156790500Y-94514486D01*
X156790500Y-94325513D01*
X156760940Y-94138881D01*
X156732154Y-94050289D01*
X156702547Y-93959168D01*
X156702545Y-93959165D01*
X156702545Y-93959163D01*
X156616759Y-93790800D01*
X156615024Y-93788412D01*
X156505690Y-93637927D01*
X156372073Y-93504310D01*
X156219199Y-93393240D01*
X156185925Y-93376286D01*
X156050836Y-93307454D01*
X155871118Y-93249059D01*
X155684486Y-93219500D01*
X155684481Y-93219500D01*
X155495519Y-93219500D01*
X155495514Y-93219500D01*
X155308881Y-93249059D01*
X155129163Y-93307454D01*
X154960800Y-93393240D01*
X154881801Y-93450637D01*
X154807927Y-93504310D01*
X154807925Y-93504312D01*
X154807924Y-93504312D01*
X154674312Y-93637924D01*
X154674312Y-93637925D01*
X154674310Y-93637927D01*
X154634152Y-93693199D01*
X154563240Y-93790800D01*
X154477454Y-93959163D01*
X154419059Y-94138881D01*
X154389500Y-94325513D01*
X154389500Y-94514486D01*
X154414725Y-94673751D01*
X154405770Y-94743045D01*
X154379933Y-94780830D01*
X153611286Y-95549478D01*
X153499481Y-95661282D01*
X153499480Y-95661284D01*
X153458075Y-95733000D01*
X153420423Y-95798215D01*
X153379499Y-95950943D01*
X153379499Y-95950945D01*
X153379499Y-96119046D01*
X153379500Y-96119059D01*
X153379500Y-99753330D01*
X153379499Y-99753348D01*
X153379499Y-99919054D01*
X153379498Y-99919054D01*
X123000500Y-99919054D01*
X123000500Y-97355513D01*
X126439500Y-97355513D01*
X126439500Y-97544486D01*
X126469059Y-97731118D01*
X126527454Y-97910836D01*
X126580441Y-98014828D01*
X126613240Y-98079199D01*
X126724310Y-98232073D01*
X126857927Y-98365690D01*
X127010801Y-98476760D01*
X127090347Y-98517290D01*
X127179163Y-98562545D01*
X127179165Y-98562545D01*
X127179168Y-98562547D01*
X127241445Y-98582782D01*
X127358881Y-98620940D01*
X127545514Y-98650500D01*
X127545519Y-98650500D01*
X127734486Y-98650500D01*
X127921118Y-98620940D01*
X128100832Y-98562547D01*
X128269199Y-98476760D01*
X128422073Y-98365690D01*
X128555690Y-98232073D01*
X128666760Y-98079199D01*
X128752547Y-97910832D01*
X128810940Y-97731118D01*
X128840500Y-97544486D01*
X128840500Y-97355513D01*
X128815274Y-97196246D01*
X128824228Y-97126953D01*
X128850063Y-97089170D01*
X129388506Y-96550728D01*
X129388511Y-96550724D01*
X129398714Y-96540520D01*
X129398716Y-96540520D01*
X129510520Y-96428716D01*
X129574607Y-96317713D01*
X129589577Y-96291785D01*
X129630501Y-96139057D01*
X129630501Y-95980943D01*
X129630501Y-95973348D01*
X129630500Y-95973330D01*
X129630500Y-94744499D01*
X129650185Y-94677460D01*
X129702989Y-94631705D01*
X129754500Y-94620499D01*
X129927871Y-94620499D01*
X129927872Y-94620499D01*
X129987483Y-94614091D01*
X130122331Y-94563796D01*
X130237546Y-94477546D01*
X130323796Y-94362331D01*
X130372810Y-94230916D01*
X130414681Y-94174984D01*
X130480145Y-94150566D01*
X130548418Y-94165417D01*
X130576673Y-94186569D01*
X130690213Y-94300109D01*
X130862184Y-94425051D01*
X130862184Y-94425052D01*
X130901793Y-94445233D01*
X130952590Y-94493206D01*
X130969500Y-94555718D01*
X130969500Y-96125500D01*
X130949815Y-96192539D01*
X130897011Y-96238294D01*
X130845500Y-96249500D01*
X130708371Y-96249500D01*
X130521738Y-96279059D01*
X130342020Y-96337454D01*
X130173657Y-96423240D01*
X130142798Y-96445661D01*
X130020784Y-96534310D01*
X130020782Y-96534312D01*
X130020781Y-96534312D01*
X129887169Y-96667924D01*
X129887169Y-96667925D01*
X129887167Y-96667927D01*
X129847552Y-96722452D01*
X129776097Y-96820800D01*
X129690311Y-96989163D01*
X129631916Y-97168881D01*
X129602357Y-97355513D01*
X129602357Y-97544486D01*
X129631916Y-97731118D01*
X129690311Y-97910836D01*
X129743298Y-98014828D01*
X129776097Y-98079199D01*
X129887167Y-98232073D01*
X130020784Y-98365690D01*
X130173658Y-98476760D01*
X130253204Y-98517290D01*
X130342020Y-98562545D01*
X130342022Y-98562545D01*
X130342025Y-98562547D01*
X130404302Y-98582782D01*
X130521738Y-98620940D01*
X130708371Y-98650500D01*
X130708376Y-98650500D01*
X130897343Y-98650500D01*
X131083975Y-98620940D01*
X131263689Y-98562547D01*
X131432056Y-98476760D01*
X131584930Y-98365690D01*
X131718547Y-98232073D01*
X131829617Y-98079199D01*
X131915404Y-97910832D01*
X131973797Y-97731118D01*
X132003357Y-97544486D01*
X132003357Y-97355513D01*
X131978131Y-97196248D01*
X131987085Y-97126955D01*
X131999769Y-97104682D01*
X132005706Y-97096385D01*
X132050520Y-97051573D01*
X132100639Y-96964761D01*
X132129577Y-96914642D01*
X132170501Y-96761914D01*
X132170501Y-96603800D01*
X132170501Y-96596205D01*
X132170500Y-96596187D01*
X132170500Y-94555718D01*
X132190185Y-94488679D01*
X132238207Y-94445233D01*
X132277815Y-94425052D01*
X132277815Y-94425051D01*
X132277816Y-94425051D01*
X132408071Y-94330416D01*
X132449786Y-94300109D01*
X132449788Y-94300106D01*
X132449792Y-94300104D01*
X132600104Y-94149792D01*
X132600106Y-94149788D01*
X132600109Y-94149786D01*
X132710472Y-93997882D01*
X132725051Y-93977816D01*
X132729514Y-93969054D01*
X132777488Y-93918259D01*
X132845308Y-93901463D01*
X132911444Y-93923999D01*
X132950486Y-93969056D01*
X132954951Y-93977820D01*
X133079890Y-94149786D01*
X133230213Y-94300109D01*
X133402184Y-94425051D01*
X133402184Y-94425052D01*
X133441793Y-94445233D01*
X133492590Y-94493206D01*
X133509500Y-94555718D01*
X133509500Y-96259112D01*
X133489815Y-96326151D01*
X133441795Y-96369597D01*
X133336514Y-96423240D01*
X133305655Y-96445661D01*
X133183641Y-96534310D01*
X133183639Y-96534312D01*
X133183638Y-96534312D01*
X133050026Y-96667924D01*
X133050026Y-96667925D01*
X133050024Y-96667927D01*
X133010409Y-96722452D01*
X132938954Y-96820800D01*
X132853168Y-96989163D01*
X132794773Y-97168881D01*
X132765214Y-97355513D01*
X132765214Y-97544486D01*
X132794773Y-97731118D01*
X132853168Y-97910836D01*
X132906155Y-98014828D01*
X132938954Y-98079199D01*
X133050024Y-98232073D01*
X133183641Y-98365690D01*
X133336515Y-98476760D01*
X133416061Y-98517290D01*
X133504877Y-98562545D01*
X133504879Y-98562545D01*
X133504882Y-98562547D01*
X133567159Y-98582782D01*
X133684595Y-98620940D01*
X133871228Y-98650500D01*
X133871233Y-98650500D01*
X134060200Y-98650500D01*
X134246832Y-98620940D01*
X134426546Y-98562547D01*
X134594913Y-98476760D01*
X134747787Y-98365690D01*
X134881404Y-98232073D01*
X134992474Y-98079199D01*
X135078261Y-97910832D01*
X135136654Y-97731118D01*
X135166214Y-97544486D01*
X135166214Y-97355513D01*
X135136654Y-97168881D01*
X135092220Y-97032129D01*
X135078261Y-96989168D01*
X135078259Y-96989165D01*
X135078259Y-96989163D01*
X135025069Y-96884773D01*
X134992474Y-96820801D01*
X134881404Y-96667927D01*
X134747787Y-96534310D01*
X134746819Y-96533342D01*
X134713334Y-96472019D01*
X134710500Y-96445661D01*
X134710500Y-94555718D01*
X134730185Y-94488679D01*
X134778207Y-94445233D01*
X134817815Y-94425052D01*
X134817815Y-94425051D01*
X134817816Y-94425051D01*
X134948071Y-94330416D01*
X134989786Y-94300109D01*
X134989788Y-94300106D01*
X134989792Y-94300104D01*
X135140104Y-94149792D01*
X135140106Y-94149788D01*
X135140109Y-94149786D01*
X135250472Y-93997882D01*
X135265051Y-93977816D01*
X135269514Y-93969054D01*
X135317488Y-93918259D01*
X135385308Y-93901463D01*
X135451444Y-93923999D01*
X135490486Y-93969056D01*
X135494951Y-93977820D01*
X135619890Y-94149786D01*
X135770213Y-94300109D01*
X135942184Y-94425051D01*
X135942184Y-94425052D01*
X135981793Y-94445233D01*
X136032590Y-94493206D01*
X136049500Y-94555718D01*
X136049500Y-96884773D01*
X136049499Y-96893713D01*
X136049480Y-96893775D01*
X136048639Y-96897280D01*
X136048742Y-96898453D01*
X136048741Y-96898462D01*
X136048365Y-96898420D01*
X136035984Y-96949994D01*
X136016025Y-96989163D01*
X135957630Y-97168881D01*
X135928071Y-97355513D01*
X135928071Y-97544486D01*
X135957630Y-97731118D01*
X136016025Y-97910836D01*
X136069012Y-98014828D01*
X136101811Y-98079199D01*
X136212881Y-98232073D01*
X136346498Y-98365690D01*
X136499372Y-98476760D01*
X136578918Y-98517290D01*
X136667734Y-98562545D01*
X136667736Y-98562545D01*
X136667739Y-98562547D01*
X136730016Y-98582782D01*
X136847452Y-98620940D01*
X137034085Y-98650500D01*
X137034090Y-98650500D01*
X137223057Y-98650500D01*
X137409689Y-98620940D01*
X137589403Y-98562547D01*
X137757770Y-98476760D01*
X137910644Y-98365690D01*
X138044261Y-98232073D01*
X138155331Y-98079199D01*
X138241118Y-97910832D01*
X138299511Y-97731118D01*
X138329071Y-97544486D01*
X138329071Y-97355513D01*
X138299511Y-97168881D01*
X138255077Y-97032129D01*
X138241118Y-96989168D01*
X138241116Y-96989165D01*
X138241116Y-96989163D01*
X138187926Y-96884773D01*
X138155331Y-96820801D01*
X138044261Y-96667927D01*
X137910644Y-96534310D01*
X137757770Y-96423240D01*
X137589403Y-96337453D01*
X137409689Y-96279060D01*
X137409687Y-96279059D01*
X137409685Y-96279059D01*
X137355102Y-96270414D01*
X137291967Y-96240485D01*
X137255036Y-96181173D01*
X137250500Y-96147941D01*
X137250500Y-94555718D01*
X137270185Y-94488679D01*
X137318207Y-94445233D01*
X137357815Y-94425052D01*
X137357815Y-94425051D01*
X137357816Y-94425051D01*
X137488071Y-94330416D01*
X137529786Y-94300109D01*
X137529788Y-94300106D01*
X137529792Y-94300104D01*
X137680104Y-94149792D01*
X137680106Y-94149788D01*
X137680109Y-94149786D01*
X137790472Y-93997882D01*
X137805051Y-93977816D01*
X137809514Y-93969054D01*
X137857488Y-93918259D01*
X137925308Y-93901463D01*
X137991444Y-93923999D01*
X138030486Y-93969056D01*
X138034951Y-93977820D01*
X138159890Y-94149786D01*
X138310213Y-94300109D01*
X138482179Y-94425048D01*
X138482181Y-94425049D01*
X138482184Y-94425051D01*
X138671588Y-94521557D01*
X138873757Y-94587246D01*
X139083713Y-94620500D01*
X139083714Y-94620500D01*
X139296286Y-94620500D01*
X139296287Y-94620500D01*
X139506243Y-94587246D01*
X139528611Y-94579977D01*
X139598449Y-94577981D01*
X139658283Y-94614060D01*
X139689112Y-94676760D01*
X139690929Y-94697908D01*
X139690929Y-96339207D01*
X139671244Y-96406246D01*
X139639815Y-96439525D01*
X139509354Y-96534311D01*
X139375741Y-96667924D01*
X139375741Y-96667925D01*
X139375739Y-96667927D01*
X139336124Y-96722452D01*
X139264669Y-96820800D01*
X139178883Y-96989163D01*
X139120488Y-97168881D01*
X139090929Y-97355513D01*
X139090929Y-97544486D01*
X139120488Y-97731118D01*
X139178883Y-97910836D01*
X139231870Y-98014828D01*
X139264669Y-98079199D01*
X139375739Y-98232073D01*
X139509356Y-98365690D01*
X139662230Y-98476760D01*
X139741776Y-98517290D01*
X139830592Y-98562545D01*
X139830594Y-98562545D01*
X139830597Y-98562547D01*
X139892874Y-98582782D01*
X140010310Y-98620940D01*
X140196943Y-98650500D01*
X140196948Y-98650500D01*
X140385915Y-98650500D01*
X140572547Y-98620940D01*
X140752261Y-98562547D01*
X140920628Y-98476760D01*
X141073502Y-98365690D01*
X141207119Y-98232073D01*
X141318189Y-98079199D01*
X141403976Y-97910832D01*
X141462369Y-97731118D01*
X141491929Y-97544486D01*
X141491929Y-97355513D01*
X141462369Y-97168881D01*
X141417935Y-97032129D01*
X141403976Y-96989168D01*
X141403974Y-96989165D01*
X141403974Y-96989163D01*
X141350784Y-96884773D01*
X141318189Y-96820801D01*
X141207119Y-96667927D01*
X141073502Y-96534310D01*
X141029078Y-96502034D01*
X140943043Y-96439525D01*
X140900377Y-96384194D01*
X140891929Y-96339207D01*
X140891929Y-94561032D01*
X140911614Y-94493993D01*
X140964418Y-94448238D01*
X141033576Y-94438294D01*
X141072220Y-94450545D01*
X141211588Y-94521557D01*
X141413757Y-94587246D01*
X141623713Y-94620500D01*
X141623714Y-94620500D01*
X141836286Y-94620500D01*
X141836287Y-94620500D01*
X142046243Y-94587246D01*
X142088523Y-94573507D01*
X142158362Y-94571511D01*
X142214522Y-94603757D01*
X142817467Y-95206702D01*
X142850952Y-95268025D01*
X142853786Y-95294383D01*
X142853786Y-96339207D01*
X142834101Y-96406246D01*
X142802672Y-96439525D01*
X142672211Y-96534311D01*
X142538598Y-96667924D01*
X142538598Y-96667925D01*
X142538596Y-96667927D01*
X142498981Y-96722452D01*
X142427526Y-96820800D01*
X142341740Y-96989163D01*
X142283345Y-97168881D01*
X142253786Y-97355513D01*
X142253786Y-97544486D01*
X142283345Y-97731118D01*
X142341740Y-97910836D01*
X142394727Y-98014828D01*
X142427526Y-98079199D01*
X142538596Y-98232073D01*
X142672213Y-98365690D01*
X142825087Y-98476760D01*
X142904633Y-98517290D01*
X142993449Y-98562545D01*
X142993451Y-98562545D01*
X142993454Y-98562547D01*
X143055731Y-98582782D01*
X143173167Y-98620940D01*
X143359800Y-98650500D01*
X143359805Y-98650500D01*
X143548772Y-98650500D01*
X143735404Y-98620940D01*
X143915118Y-98562547D01*
X144083485Y-98476760D01*
X144236359Y-98365690D01*
X144369976Y-98232073D01*
X144481046Y-98079199D01*
X144566833Y-97910832D01*
X144625226Y-97731118D01*
X144654786Y-97544486D01*
X144654786Y-97355513D01*
X144625226Y-97168881D01*
X144580792Y-97032129D01*
X144566833Y-96989168D01*
X144566831Y-96989165D01*
X144566831Y-96989163D01*
X144513641Y-96884773D01*
X144481046Y-96820801D01*
X144369976Y-96667927D01*
X144236359Y-96534310D01*
X144191935Y-96502034D01*
X144105900Y-96439525D01*
X144063234Y-96384194D01*
X144054786Y-96339207D01*
X144054786Y-95083346D01*
X144054787Y-95083333D01*
X144054787Y-94915230D01*
X144034027Y-94837755D01*
X144016905Y-94773854D01*
X144018568Y-94704007D01*
X144057730Y-94646145D01*
X144121958Y-94618640D01*
X144156079Y-94619290D01*
X144163713Y-94620500D01*
X144163715Y-94620500D01*
X144376286Y-94620500D01*
X144376287Y-94620500D01*
X144586243Y-94587246D01*
X144628523Y-94573507D01*
X144698362Y-94571511D01*
X144754522Y-94603757D01*
X145980324Y-95829559D01*
X146013809Y-95890882D01*
X146016643Y-95917240D01*
X146016643Y-96339207D01*
X145996958Y-96406246D01*
X145965529Y-96439525D01*
X145835068Y-96534311D01*
X145701455Y-96667924D01*
X145701455Y-96667925D01*
X145701453Y-96667927D01*
X145661838Y-96722452D01*
X145590383Y-96820800D01*
X145504597Y-96989163D01*
X145446202Y-97168881D01*
X145416643Y-97355513D01*
X145416643Y-97544486D01*
X145446202Y-97731118D01*
X145504597Y-97910836D01*
X145557584Y-98014828D01*
X145590383Y-98079199D01*
X145701453Y-98232073D01*
X145835070Y-98365690D01*
X145987944Y-98476760D01*
X146067490Y-98517290D01*
X146156306Y-98562545D01*
X146156308Y-98562545D01*
X146156311Y-98562547D01*
X146218588Y-98582782D01*
X146336024Y-98620940D01*
X146522657Y-98650500D01*
X146522662Y-98650500D01*
X146711629Y-98650500D01*
X146898261Y-98620940D01*
X147077975Y-98562547D01*
X147246342Y-98476760D01*
X147399216Y-98365690D01*
X147532833Y-98232073D01*
X147643903Y-98079199D01*
X147729690Y-97910832D01*
X147788083Y-97731118D01*
X147817643Y-97544486D01*
X147817643Y-97355513D01*
X147788083Y-97168881D01*
X147743649Y-97032129D01*
X147729690Y-96989168D01*
X147729688Y-96989165D01*
X147729688Y-96989163D01*
X147676498Y-96884773D01*
X147643903Y-96820801D01*
X147532833Y-96667927D01*
X147399216Y-96534310D01*
X147354792Y-96502034D01*
X147268757Y-96439525D01*
X147226091Y-96384194D01*
X147217643Y-96339207D01*
X147217643Y-95538088D01*
X147217643Y-95538086D01*
X147176720Y-95385359D01*
X147130887Y-95305973D01*
X147097667Y-95248433D01*
X147097664Y-95248429D01*
X147097663Y-95248427D01*
X146985859Y-95136623D01*
X146985858Y-95136622D01*
X146981528Y-95132292D01*
X146981517Y-95132282D01*
X146681416Y-94832181D01*
X146647931Y-94770858D01*
X146652915Y-94701166D01*
X146694787Y-94645233D01*
X146760251Y-94620816D01*
X146769097Y-94620500D01*
X146916286Y-94620500D01*
X146916287Y-94620500D01*
X147126243Y-94587246D01*
X147168523Y-94573507D01*
X147238362Y-94571511D01*
X147294522Y-94603757D01*
X149026827Y-96336062D01*
X149060312Y-96397385D01*
X149055328Y-96467077D01*
X149013456Y-96523010D01*
X149012038Y-96524056D01*
X148997933Y-96534305D01*
X148997924Y-96534312D01*
X148864312Y-96667924D01*
X148864312Y-96667925D01*
X148864310Y-96667927D01*
X148824695Y-96722452D01*
X148753240Y-96820800D01*
X148667454Y-96989163D01*
X148609059Y-97168881D01*
X148579500Y-97355513D01*
X148579500Y-97544486D01*
X148609059Y-97731118D01*
X148667454Y-97910836D01*
X148720441Y-98014828D01*
X148753240Y-98079199D01*
X148864310Y-98232073D01*
X148997927Y-98365690D01*
X149150801Y-98476760D01*
X149230347Y-98517290D01*
X149319163Y-98562545D01*
X149319165Y-98562545D01*
X149319168Y-98562547D01*
X149381445Y-98582782D01*
X149498881Y-98620940D01*
X149685514Y-98650500D01*
X149685519Y-98650500D01*
X149874486Y-98650500D01*
X150061118Y-98620940D01*
X150240832Y-98562547D01*
X150409199Y-98476760D01*
X150562073Y-98365690D01*
X150695690Y-98232073D01*
X150806760Y-98079199D01*
X150892547Y-97910832D01*
X150950940Y-97731118D01*
X150980500Y-97544486D01*
X150980500Y-97355513D01*
X150950940Y-97168881D01*
X150906506Y-97032129D01*
X150892547Y-96989168D01*
X150892545Y-96989165D01*
X150892545Y-96989163D01*
X150839355Y-96884773D01*
X150806760Y-96820801D01*
X150695690Y-96667927D01*
X150562073Y-96534310D01*
X150517649Y-96502034D01*
X150431614Y-96439525D01*
X150388948Y-96384194D01*
X150380500Y-96339207D01*
X150380500Y-96160943D01*
X150377662Y-96150349D01*
X150374636Y-96139057D01*
X150339577Y-96008215D01*
X150323831Y-95980943D01*
X150287052Y-95917240D01*
X150270782Y-95889059D01*
X150260520Y-95871284D01*
X150260518Y-95871282D01*
X150260517Y-95871280D01*
X150144397Y-95755160D01*
X150144374Y-95755139D01*
X148143757Y-93754522D01*
X148110272Y-93693199D01*
X148113507Y-93628523D01*
X148127246Y-93586243D01*
X148160500Y-93376287D01*
X148160500Y-93163713D01*
X148127246Y-92953757D01*
X148061557Y-92751588D01*
X147965051Y-92562184D01*
X147965049Y-92562181D01*
X147965048Y-92562179D01*
X147840109Y-92390213D01*
X147689786Y-92239890D01*
X147517820Y-92114951D01*
X147328414Y-92018444D01*
X147328413Y-92018443D01*
X147328412Y-92018443D01*
X147126243Y-91952754D01*
X147126241Y-91952753D01*
X147126240Y-91952753D01*
X146964957Y-91927208D01*
X146916287Y-91919500D01*
X146703713Y-91919500D01*
X146675006Y-91924046D01*
X146493757Y-91952753D01*
X146451473Y-91966492D01*
X146381632Y-91968486D01*
X146325476Y-91936241D01*
X144826891Y-90437656D01*
X144793406Y-90376333D01*
X144798390Y-90306641D01*
X144826891Y-90262294D01*
X144896110Y-90193075D01*
X144971966Y-90117219D01*
X144971968Y-90117215D01*
X144971971Y-90117213D01*
X145092284Y-89951614D01*
X145092285Y-89951613D01*
X145092287Y-89951610D01*
X145139516Y-89858917D01*
X145187489Y-89808123D01*
X145255310Y-89791328D01*
X145321445Y-89813865D01*
X145360483Y-89858917D01*
X145404348Y-89945006D01*
X145407715Y-89951614D01*
X145528028Y-90117213D01*
X145672786Y-90261971D01*
X145797391Y-90352500D01*
X145838390Y-90382287D01*
X145919499Y-90423614D01*
X146020776Y-90475218D01*
X146020778Y-90475218D01*
X146020781Y-90475220D01*
X146095818Y-90499601D01*
X146215465Y-90538477D01*
X146294008Y-90550917D01*
X146417648Y-90570500D01*
X146417649Y-90570500D01*
X146622351Y-90570500D01*
X146622352Y-90570500D01*
X146824534Y-90538477D01*
X147019219Y-90475220D01*
X147201610Y-90382287D01*
X147330482Y-90288657D01*
X147367213Y-90261971D01*
X147367215Y-90261968D01*
X147367219Y-90261966D01*
X147511966Y-90117219D01*
X147511968Y-90117215D01*
X147511971Y-90117213D01*
X147593380Y-90005161D01*
X147632287Y-89951610D01*
X147725220Y-89769219D01*
X147788477Y-89574534D01*
X147820500Y-89372352D01*
X147820500Y-89167648D01*
X147819237Y-89159674D01*
X147788477Y-88965465D01*
X147725218Y-88770776D01*
X147685116Y-88692073D01*
X147632287Y-88588390D01*
X147575698Y-88510501D01*
X147511971Y-88422786D01*
X147367213Y-88278028D01*
X147201613Y-88157715D01*
X147201612Y-88157714D01*
X147201610Y-88157713D01*
X147102520Y-88107224D01*
X147039248Y-88074985D01*
X146988452Y-88027010D01*
X146971657Y-87959189D01*
X146994195Y-87893054D01*
X147048910Y-87849603D01*
X147095543Y-87840500D01*
X155057703Y-87840500D01*
X155124742Y-87860185D01*
X155170497Y-87912989D01*
X155180441Y-87982147D01*
X155151416Y-88045703D01*
X155130589Y-88064818D01*
X155107345Y-88081705D01*
X154929205Y-88259845D01*
X154929201Y-88259850D01*
X154781132Y-88463651D01*
X154666760Y-88688116D01*
X154588910Y-88927714D01*
X154549500Y-89176538D01*
X154549500Y-90728461D01*
X154588910Y-90977285D01*
X154666760Y-91216883D01*
X154698999Y-91280154D01*
X154763286Y-91406325D01*
X154781132Y-91441348D01*
X154929201Y-91645149D01*
X154929205Y-91645154D01*
X155107345Y-91823294D01*
X155107350Y-91823298D01*
X155239327Y-91919184D01*
X155311155Y-91971370D01*
X155454184Y-92044247D01*
X155535616Y-92085739D01*
X155535618Y-92085739D01*
X155535621Y-92085741D01*
X155775215Y-92163590D01*
X156024038Y-92203000D01*
X156024039Y-92203000D01*
X156275961Y-92203000D01*
X156275962Y-92203000D01*
X156524785Y-92163590D01*
X156764379Y-92085741D01*
X156988845Y-91971370D01*
X157192656Y-91823293D01*
X157370793Y-91645156D01*
X157434298Y-91557747D01*
X157489628Y-91515081D01*
X157559241Y-91509102D01*
X157590912Y-91520147D01*
X157594593Y-91522022D01*
X157594595Y-91522024D01*
X157605751Y-91527708D01*
X157769970Y-91611382D01*
X157769972Y-91611382D01*
X157769975Y-91611384D01*
X157870317Y-91643987D01*
X157957173Y-91672209D01*
X158151578Y-91703000D01*
X158151583Y-91703000D01*
X158348422Y-91703000D01*
X158542826Y-91672209D01*
X158542832Y-91672207D01*
X158730025Y-91611384D01*
X158905405Y-91522024D01*
X159064646Y-91406328D01*
X159162319Y-91308655D01*
X159223642Y-91275170D01*
X159293334Y-91280154D01*
X159337681Y-91308655D01*
X159435354Y-91406328D01*
X159594595Y-91522024D01*
X159605751Y-91527708D01*
X159769970Y-91611382D01*
X159769972Y-91611382D01*
X159769975Y-91611384D01*
X159957168Y-91672207D01*
X159957174Y-91672209D01*
X159964897Y-91673432D01*
X160028030Y-91703359D01*
X160064963Y-91762669D01*
X160069500Y-91795905D01*
X160069500Y-93309207D01*
X160049815Y-93376246D01*
X160018386Y-93409525D01*
X159887925Y-93504311D01*
X159754312Y-93637924D01*
X159754312Y-93637925D01*
X159754310Y-93637927D01*
X159714152Y-93693199D01*
X159643240Y-93790800D01*
X159557454Y-93959163D01*
X159499059Y-94138881D01*
X159469500Y-94325513D01*
X159469500Y-94514486D01*
X159499059Y-94701118D01*
X159557454Y-94880836D01*
X159643240Y-95049199D01*
X159754310Y-95202073D01*
X159887927Y-95335690D01*
X160040801Y-95446760D01*
X160120347Y-95487290D01*
X160209163Y-95532545D01*
X160209165Y-95532545D01*
X160209168Y-95532547D01*
X160305497Y-95563846D01*
X160388881Y-95590940D01*
X160575514Y-95620500D01*
X160575519Y-95620500D01*
X160764486Y-95620500D01*
X160951118Y-95590940D01*
X160981753Y-95580986D01*
X161130832Y-95532547D01*
X161299199Y-95446760D01*
X161452073Y-95335690D01*
X161585690Y-95202073D01*
X161696760Y-95049199D01*
X161782547Y-94880832D01*
X161840940Y-94701118D01*
X161844798Y-94676760D01*
X161870500Y-94514486D01*
X161870500Y-94325513D01*
X161840940Y-94138881D01*
X161812011Y-94049848D01*
X161795126Y-93997882D01*
X168505669Y-93997882D01*
X168505670Y-93997883D01*
X168531059Y-94016329D01*
X168699362Y-94102085D01*
X168878997Y-94160451D01*
X169065553Y-94190000D01*
X169254447Y-94190000D01*
X169441002Y-94160451D01*
X169620637Y-94102085D01*
X169788937Y-94016331D01*
X169814328Y-93997883D01*
X169814328Y-93997882D01*
X171745669Y-93997882D01*
X171745670Y-93997883D01*
X171771059Y-94016329D01*
X171939362Y-94102085D01*
X172118997Y-94160451D01*
X172305553Y-94190000D01*
X172494447Y-94190000D01*
X172648204Y-94165646D01*
X177689500Y-94165646D01*
X177689500Y-94394354D01*
X177702677Y-94477547D01*
X177725278Y-94620246D01*
X177725278Y-94620249D01*
X177795950Y-94837755D01*
X177899783Y-95041538D01*
X178032525Y-95224242D01*
X178056005Y-95290046D01*
X178040180Y-95358100D01*
X177990074Y-95406795D01*
X177975541Y-95413308D01*
X177947670Y-95423703D01*
X177947664Y-95423706D01*
X177832455Y-95509952D01*
X177832452Y-95509955D01*
X177746206Y-95625164D01*
X177746202Y-95625171D01*
X177695908Y-95760017D01*
X177691802Y-95798213D01*
X177689501Y-95819623D01*
X177689500Y-95819635D01*
X177689500Y-97820370D01*
X177689501Y-97820376D01*
X177695908Y-97879983D01*
X177746202Y-98014828D01*
X177746206Y-98014835D01*
X177832452Y-98130044D01*
X177832455Y-98130047D01*
X177947664Y-98216293D01*
X177947671Y-98216297D01*
X178082517Y-98266591D01*
X178082516Y-98266591D01*
X178089444Y-98267335D01*
X178142127Y-98273000D01*
X179742402Y-98272999D01*
X179809441Y-98292684D01*
X179830083Y-98309318D01*
X183819478Y-102298713D01*
X183819480Y-102298716D01*
X183931284Y-102410520D01*
X183959336Y-102426716D01*
X183969397Y-102435960D01*
X183980655Y-102454654D01*
X183995715Y-102470448D01*
X183999457Y-102485873D01*
X184005444Y-102495814D01*
X184005060Y-102508970D01*
X184009500Y-102527269D01*
X184009500Y-102777869D01*
X184009501Y-102777876D01*
X184015908Y-102837483D01*
X184066202Y-102972328D01*
X184066206Y-102972335D01*
X184152452Y-103087544D01*
X184152455Y-103087547D01*
X184267664Y-103173793D01*
X184267671Y-103173797D01*
X184402517Y-103224091D01*
X184402516Y-103224091D01*
X184409444Y-103224835D01*
X184462127Y-103230500D01*
X186057872Y-103230499D01*
X186117483Y-103224091D01*
X186252331Y-103173796D01*
X186367546Y-103087546D01*
X186453796Y-102972331D01*
X186504091Y-102837483D01*
X186510500Y-102777873D01*
X186510499Y-101082128D01*
X186504091Y-101022517D01*
X186454185Y-100888713D01*
X186453797Y-100887671D01*
X186453793Y-100887664D01*
X186367547Y-100772455D01*
X186367544Y-100772452D01*
X186252335Y-100686206D01*
X186252328Y-100686202D01*
X186132554Y-100641530D01*
X186076620Y-100599659D01*
X186052203Y-100534195D01*
X186067054Y-100465922D01*
X186103009Y-100425025D01*
X186107215Y-100421969D01*
X186107215Y-100421968D01*
X186107219Y-100421966D01*
X186251966Y-100277219D01*
X186251968Y-100277215D01*
X186251971Y-100277213D01*
X186313845Y-100192049D01*
X186372287Y-100111610D01*
X186465220Y-99929219D01*
X186528477Y-99734534D01*
X186560500Y-99532352D01*
X186560500Y-99327648D01*
X186528477Y-99125466D01*
X186527458Y-99122331D01*
X186499127Y-99035137D01*
X186465220Y-98930781D01*
X186465218Y-98930778D01*
X186465218Y-98930776D01*
X186431503Y-98864607D01*
X186372287Y-98748390D01*
X186364556Y-98737749D01*
X186251971Y-98582786D01*
X186186866Y-98517681D01*
X186153381Y-98456358D01*
X186158365Y-98386666D01*
X186186866Y-98342319D01*
X186251966Y-98277219D01*
X186251968Y-98277215D01*
X186251971Y-98277213D01*
X186304732Y-98204590D01*
X186372287Y-98111610D01*
X186465220Y-97929219D01*
X186528477Y-97734534D01*
X186560500Y-97532352D01*
X186560500Y-97327648D01*
X186528477Y-97125466D01*
X186465220Y-96930781D01*
X186465218Y-96930778D01*
X186465218Y-96930776D01*
X186409182Y-96820801D01*
X186372287Y-96748390D01*
X186313828Y-96667927D01*
X186251971Y-96582786D01*
X186107213Y-96438028D01*
X185941612Y-96317714D01*
X185929216Y-96311397D01*
X185888171Y-96290484D01*
X185837376Y-96242510D01*
X185820581Y-96174689D01*
X185843118Y-96108554D01*
X185888172Y-96069515D01*
X185941610Y-96042287D01*
X186067333Y-95950945D01*
X186107213Y-95921971D01*
X186107215Y-95921968D01*
X186107219Y-95921966D01*
X186251966Y-95777219D01*
X186251968Y-95777215D01*
X186251971Y-95777213D01*
X186336198Y-95661282D01*
X186372287Y-95611610D01*
X186465220Y-95429219D01*
X186528477Y-95234534D01*
X186560500Y-95032352D01*
X186560500Y-94827648D01*
X186539951Y-94697908D01*
X186528477Y-94625465D01*
X186471642Y-94450547D01*
X186465220Y-94430781D01*
X186465218Y-94430778D01*
X186465218Y-94430776D01*
X186398639Y-94300109D01*
X186372287Y-94248390D01*
X186313791Y-94167876D01*
X186251971Y-94082786D01*
X186107213Y-93938028D01*
X185941613Y-93817715D01*
X185941612Y-93817714D01*
X185941610Y-93817713D01*
X185884104Y-93788412D01*
X185759223Y-93724781D01*
X185564534Y-93661522D01*
X185389995Y-93633878D01*
X185362352Y-93629500D01*
X185157648Y-93629500D01*
X185133329Y-93633351D01*
X184955465Y-93661522D01*
X184760776Y-93724781D01*
X184578386Y-93817715D01*
X184412786Y-93938028D01*
X184268028Y-94082786D01*
X184147715Y-94248386D01*
X184054781Y-94430776D01*
X183991522Y-94625465D01*
X183959500Y-94827648D01*
X183959500Y-95032351D01*
X183991522Y-95234534D01*
X184054781Y-95429223D01*
X184116055Y-95549478D01*
X184140055Y-95596581D01*
X184147715Y-95611613D01*
X184268028Y-95777213D01*
X184412786Y-95921971D01*
X184578388Y-96042286D01*
X184631828Y-96069516D01*
X184682623Y-96117490D01*
X184699418Y-96185312D01*
X184676880Y-96251446D01*
X184631828Y-96290484D01*
X184578388Y-96317713D01*
X184412786Y-96438028D01*
X184268028Y-96582786D01*
X184147715Y-96748386D01*
X184054781Y-96930776D01*
X183991522Y-97125465D01*
X183959500Y-97327648D01*
X183959500Y-97532351D01*
X183991522Y-97734534D01*
X184054781Y-97929223D01*
X184147715Y-98111613D01*
X184268028Y-98277213D01*
X184333134Y-98342319D01*
X184366619Y-98403642D01*
X184361635Y-98473334D01*
X184333134Y-98517681D01*
X184268032Y-98582782D01*
X184268028Y-98582786D01*
X184147715Y-98748386D01*
X184054781Y-98930776D01*
X183991522Y-99125465D01*
X183959500Y-99327648D01*
X183959500Y-99532351D01*
X183991522Y-99734534D01*
X184054781Y-99929223D01*
X184118691Y-100054653D01*
X184147712Y-100111609D01*
X184147715Y-100111613D01*
X184268028Y-100277213D01*
X184412784Y-100421969D01*
X184416996Y-100425029D01*
X184459663Y-100480359D01*
X184465643Y-100549972D01*
X184433037Y-100611767D01*
X184387445Y-100641530D01*
X184267671Y-100686202D01*
X184267669Y-100686203D01*
X184173833Y-100756448D01*
X184162007Y-100765303D01*
X184146530Y-100776889D01*
X184081066Y-100801306D01*
X184012793Y-100786455D01*
X183984538Y-100765303D01*
X180726818Y-97507583D01*
X180693333Y-97446260D01*
X180690499Y-97419902D01*
X180690499Y-95819629D01*
X180690498Y-95819623D01*
X180690497Y-95819616D01*
X180684091Y-95760017D01*
X180682279Y-95755160D01*
X180633797Y-95625171D01*
X180633793Y-95625164D01*
X180547547Y-95509955D01*
X180547544Y-95509952D01*
X180432335Y-95423706D01*
X180432328Y-95423702D01*
X180404459Y-95413308D01*
X180348525Y-95371437D01*
X180324108Y-95305973D01*
X180338960Y-95237700D01*
X180347460Y-95224260D01*
X180480217Y-95041538D01*
X180584048Y-94837758D01*
X180648244Y-94640183D01*
X180654721Y-94620249D01*
X180654721Y-94620248D01*
X180654722Y-94620245D01*
X180690500Y-94394354D01*
X180690500Y-94165646D01*
X180654722Y-93939755D01*
X180654721Y-93939751D01*
X180654721Y-93939750D01*
X180584049Y-93722244D01*
X180553110Y-93661523D01*
X180480217Y-93518462D01*
X180345786Y-93333434D01*
X180184066Y-93171714D01*
X180099134Y-93110007D01*
X180056470Y-93054678D01*
X180050491Y-92985064D01*
X180083097Y-92923269D01*
X180099137Y-92909371D01*
X180183739Y-92847905D01*
X180345402Y-92686242D01*
X180479788Y-92501276D01*
X180583582Y-92297570D01*
X180654234Y-92080128D01*
X180668509Y-91990000D01*
X179680748Y-91990000D01*
X179702518Y-91952292D01*
X179740000Y-91812409D01*
X179740000Y-91728872D01*
X185969500Y-91728872D01*
X185969500Y-91991127D01*
X185994382Y-92180110D01*
X186003730Y-92251116D01*
X186041001Y-92390213D01*
X186071602Y-92504418D01*
X186071605Y-92504428D01*
X186171953Y-92746690D01*
X186171958Y-92746700D01*
X186303075Y-92973803D01*
X186462718Y-93181851D01*
X186462726Y-93181860D01*
X186648140Y-93367274D01*
X186648148Y-93367281D01*
X186648149Y-93367282D01*
X186662921Y-93378617D01*
X186856196Y-93526924D01*
X187083299Y-93658041D01*
X187083309Y-93658046D01*
X187325571Y-93758394D01*
X187325581Y-93758398D01*
X187578884Y-93826270D01*
X187838880Y-93860500D01*
X187838887Y-93860500D01*
X188101113Y-93860500D01*
X188101120Y-93860500D01*
X188361116Y-93826270D01*
X188614419Y-93758398D01*
X188856697Y-93658043D01*
X189083803Y-93526924D01*
X189291851Y-93367282D01*
X189291855Y-93367277D01*
X189291860Y-93367274D01*
X189477274Y-93181860D01*
X189477277Y-93181855D01*
X189477282Y-93181851D01*
X189636924Y-92973803D01*
X189768043Y-92746697D01*
X189868398Y-92504419D01*
X189936270Y-92251116D01*
X189970500Y-91991120D01*
X189970500Y-91728880D01*
X189936270Y-91468884D01*
X189868398Y-91215581D01*
X189823797Y-91107905D01*
X189768046Y-90973309D01*
X189768041Y-90973299D01*
X189636924Y-90746196D01*
X189487079Y-90550917D01*
X189477282Y-90538149D01*
X189477281Y-90538148D01*
X189477274Y-90538140D01*
X189291860Y-90352726D01*
X189291851Y-90352718D01*
X189083803Y-90193075D01*
X188856700Y-90061958D01*
X188856690Y-90061953D01*
X188614428Y-89961605D01*
X188614421Y-89961603D01*
X188614419Y-89961602D01*
X188361116Y-89893730D01*
X188303339Y-89886123D01*
X188101127Y-89859500D01*
X188101120Y-89859500D01*
X187838880Y-89859500D01*
X187838872Y-89859500D01*
X187607772Y-89889926D01*
X187578884Y-89893730D01*
X187362872Y-89951610D01*
X187325581Y-89961602D01*
X187325571Y-89961605D01*
X187083309Y-90061953D01*
X187083299Y-90061958D01*
X186856196Y-90193075D01*
X186648148Y-90352718D01*
X186462718Y-90538148D01*
X186303075Y-90746196D01*
X186171958Y-90973299D01*
X186171953Y-90973309D01*
X186071605Y-91215571D01*
X186071602Y-91215581D01*
X186007671Y-91454178D01*
X186003730Y-91468885D01*
X185969500Y-91728872D01*
X179740000Y-91728872D01*
X179740000Y-91667591D01*
X179702518Y-91527708D01*
X179680748Y-91490000D01*
X180668509Y-91490000D01*
X180654234Y-91399871D01*
X180583582Y-91182429D01*
X180479788Y-90978723D01*
X180345402Y-90793757D01*
X180183742Y-90632097D01*
X179998776Y-90497711D01*
X179795068Y-90393917D01*
X179577625Y-90323265D01*
X179577626Y-90323265D01*
X179440000Y-90301467D01*
X179440000Y-91249252D01*
X179402292Y-91227482D01*
X179262409Y-91190000D01*
X179117591Y-91190000D01*
X178977708Y-91227482D01*
X178940000Y-91249252D01*
X178940000Y-90301467D01*
X178802374Y-90323265D01*
X178584931Y-90393917D01*
X178381223Y-90497711D01*
X178196257Y-90632097D01*
X178034597Y-90793757D01*
X177900211Y-90978723D01*
X177796417Y-91182429D01*
X177725765Y-91399871D01*
X177711491Y-91490000D01*
X178699252Y-91490000D01*
X178677482Y-91527708D01*
X178640000Y-91667591D01*
X178640000Y-91812409D01*
X178677482Y-91952292D01*
X178699252Y-91990000D01*
X177711491Y-91990000D01*
X177725765Y-92080128D01*
X177796417Y-92297570D01*
X177900211Y-92501276D01*
X178034597Y-92686242D01*
X178196257Y-92847902D01*
X178196263Y-92847907D01*
X178280863Y-92909372D01*
X178323529Y-92964701D01*
X178329508Y-93034315D01*
X178296903Y-93096110D01*
X178280864Y-93110007D01*
X178195940Y-93171709D01*
X178195931Y-93171716D01*
X178034216Y-93333431D01*
X178034216Y-93333432D01*
X178034214Y-93333434D01*
X178001387Y-93378617D01*
X177899783Y-93518461D01*
X177795950Y-93722244D01*
X177725278Y-93939750D01*
X177725278Y-93939753D01*
X177719249Y-93977820D01*
X177689500Y-94165646D01*
X172648204Y-94165646D01*
X172681002Y-94160451D01*
X172860637Y-94102085D01*
X172962293Y-94050289D01*
X173028936Y-94016331D01*
X173054328Y-93997883D01*
X173054328Y-93997882D01*
X172400001Y-93343554D01*
X172400000Y-93343554D01*
X171745669Y-93997882D01*
X169814328Y-93997882D01*
X169160001Y-93343554D01*
X169160000Y-93343554D01*
X168505669Y-93997882D01*
X161795126Y-93997882D01*
X161782547Y-93959168D01*
X161696760Y-93790801D01*
X161585690Y-93637927D01*
X161452073Y-93504310D01*
X161378199Y-93450637D01*
X161321614Y-93409525D01*
X161278948Y-93354194D01*
X161270500Y-93309207D01*
X161270500Y-92895552D01*
X167960000Y-92895552D01*
X167960000Y-93084447D01*
X167989548Y-93271002D01*
X168047914Y-93450637D01*
X168133666Y-93618933D01*
X168152116Y-93644328D01*
X168806446Y-92990000D01*
X168806446Y-92989999D01*
X168760369Y-92943922D01*
X168810000Y-92943922D01*
X168810000Y-93036078D01*
X168833852Y-93125095D01*
X168879930Y-93204905D01*
X168945095Y-93270070D01*
X169024905Y-93316148D01*
X169113922Y-93340000D01*
X169206078Y-93340000D01*
X169295095Y-93316148D01*
X169374905Y-93270070D01*
X169440070Y-93204905D01*
X169486148Y-93125095D01*
X169510000Y-93036078D01*
X169510000Y-92989999D01*
X169513554Y-92989999D01*
X169513554Y-92990000D01*
X170167882Y-93644328D01*
X170167883Y-93644328D01*
X170186331Y-93618937D01*
X170272085Y-93450637D01*
X170330451Y-93271002D01*
X170360000Y-93084447D01*
X170360000Y-92895552D01*
X171200000Y-92895552D01*
X171200000Y-93084447D01*
X171229548Y-93271002D01*
X171287914Y-93450637D01*
X171373666Y-93618933D01*
X171392116Y-93644328D01*
X172046446Y-92990000D01*
X172046446Y-92989999D01*
X172000369Y-92943922D01*
X172050000Y-92943922D01*
X172050000Y-93036078D01*
X172073852Y-93125095D01*
X172119930Y-93204905D01*
X172185095Y-93270070D01*
X172264905Y-93316148D01*
X172353922Y-93340000D01*
X172446078Y-93340000D01*
X172535095Y-93316148D01*
X172614905Y-93270070D01*
X172680070Y-93204905D01*
X172726148Y-93125095D01*
X172750000Y-93036078D01*
X172750000Y-92989999D01*
X172753554Y-92989999D01*
X172753554Y-92990000D01*
X173407882Y-93644328D01*
X173407883Y-93644328D01*
X173426331Y-93618937D01*
X173512085Y-93450637D01*
X173570451Y-93271002D01*
X173600000Y-93084447D01*
X173600000Y-92895552D01*
X173570451Y-92708997D01*
X173512085Y-92529362D01*
X173426329Y-92361059D01*
X173407883Y-92335670D01*
X173407882Y-92335669D01*
X172753554Y-92989999D01*
X172750000Y-92989999D01*
X172750000Y-92943922D01*
X172726148Y-92854905D01*
X172680070Y-92775095D01*
X172614905Y-92709930D01*
X172535095Y-92663852D01*
X172446078Y-92640000D01*
X172353922Y-92640000D01*
X172264905Y-92663852D01*
X172185095Y-92709930D01*
X172119930Y-92775095D01*
X172073852Y-92854905D01*
X172050000Y-92943922D01*
X172000369Y-92943922D01*
X171392116Y-92335669D01*
X171392116Y-92335670D01*
X171373669Y-92361060D01*
X171287914Y-92529362D01*
X171229548Y-92708997D01*
X171200000Y-92895552D01*
X170360000Y-92895552D01*
X170330451Y-92708997D01*
X170272085Y-92529362D01*
X170186329Y-92361059D01*
X170167883Y-92335670D01*
X170167882Y-92335669D01*
X169513554Y-92989999D01*
X169510000Y-92989999D01*
X169510000Y-92943922D01*
X169486148Y-92854905D01*
X169440070Y-92775095D01*
X169374905Y-92709930D01*
X169295095Y-92663852D01*
X169206078Y-92640000D01*
X169113922Y-92640000D01*
X169024905Y-92663852D01*
X168945095Y-92709930D01*
X168879930Y-92775095D01*
X168833852Y-92854905D01*
X168810000Y-92943922D01*
X168760369Y-92943922D01*
X168152116Y-92335669D01*
X168152116Y-92335670D01*
X168133669Y-92361060D01*
X168047914Y-92529362D01*
X167989548Y-92708997D01*
X167960000Y-92895552D01*
X161270500Y-92895552D01*
X161270500Y-91821014D01*
X161290185Y-91753975D01*
X161342989Y-91708220D01*
X161407757Y-91697725D01*
X161452158Y-91702499D01*
X161452172Y-91702500D01*
X162000000Y-91702500D01*
X162000000Y-90268186D01*
X162004394Y-90272580D01*
X162095606Y-90325241D01*
X162197339Y-90352500D01*
X162302661Y-90352500D01*
X162404394Y-90325241D01*
X162495606Y-90272580D01*
X162500000Y-90268186D01*
X162500000Y-91702500D01*
X163047828Y-91702500D01*
X163047841Y-91702499D01*
X163114096Y-91695375D01*
X163182856Y-91707779D01*
X163215034Y-91730983D01*
X163307345Y-91823294D01*
X163307350Y-91823298D01*
X163439327Y-91919184D01*
X163511155Y-91971370D01*
X163654184Y-92044247D01*
X163735616Y-92085739D01*
X163735618Y-92085739D01*
X163735621Y-92085741D01*
X163975215Y-92163590D01*
X164224038Y-92203000D01*
X164224039Y-92203000D01*
X164475961Y-92203000D01*
X164475962Y-92203000D01*
X164724785Y-92163590D01*
X164964379Y-92085741D01*
X165167755Y-91982116D01*
X168505669Y-91982116D01*
X169160000Y-92636446D01*
X169160001Y-92636446D01*
X169814328Y-91982116D01*
X171745669Y-91982116D01*
X172400000Y-92636446D01*
X172400001Y-92636446D01*
X173054328Y-91982116D01*
X173028933Y-91963666D01*
X172860637Y-91877914D01*
X172752417Y-91842752D01*
X172681002Y-91819547D01*
X172494447Y-91790000D01*
X172305553Y-91790000D01*
X172118997Y-91819548D01*
X171939362Y-91877914D01*
X171771060Y-91963669D01*
X171745670Y-91982116D01*
X171745669Y-91982116D01*
X169814328Y-91982116D01*
X169788933Y-91963666D01*
X169620637Y-91877914D01*
X169441002Y-91819548D01*
X169254447Y-91790000D01*
X169065553Y-91790000D01*
X168878997Y-91819548D01*
X168699362Y-91877914D01*
X168531060Y-91963669D01*
X168505670Y-91982116D01*
X168505669Y-91982116D01*
X165167755Y-91982116D01*
X165188845Y-91971370D01*
X165219580Y-91949039D01*
X165247085Y-91929057D01*
X165392649Y-91823298D01*
X165392647Y-91823298D01*
X165392656Y-91823293D01*
X165570793Y-91645156D01*
X165595331Y-91611382D01*
X165709547Y-91454178D01*
X165713830Y-91448281D01*
X165718870Y-91441345D01*
X165833241Y-91216879D01*
X165911090Y-90977285D01*
X165950500Y-90728462D01*
X165950500Y-89176538D01*
X165911090Y-88927715D01*
X165833241Y-88688121D01*
X165833239Y-88688118D01*
X165833239Y-88688116D01*
X165786479Y-88596345D01*
X165718870Y-88463655D01*
X165679579Y-88409575D01*
X165570798Y-88259850D01*
X165570794Y-88259845D01*
X165392654Y-88081705D01*
X165392649Y-88081701D01*
X165188848Y-87933632D01*
X165188847Y-87933631D01*
X165188845Y-87933630D01*
X165109210Y-87893054D01*
X164964383Y-87819260D01*
X164724785Y-87741410D01*
X164475962Y-87702000D01*
X164224038Y-87702000D01*
X164107108Y-87720520D01*
X163975214Y-87741410D01*
X163735616Y-87819260D01*
X163511151Y-87933632D01*
X163307350Y-88081701D01*
X163307345Y-88081705D01*
X163215032Y-88174017D01*
X163153709Y-88207501D01*
X163114096Y-88209624D01*
X163047844Y-88202500D01*
X162500000Y-88202500D01*
X162500000Y-89636814D01*
X162495606Y-89632420D01*
X162404394Y-89579759D01*
X162302661Y-89552500D01*
X162197339Y-89552500D01*
X162095606Y-89579759D01*
X162004394Y-89632420D01*
X162000000Y-89636814D01*
X162000000Y-88202500D01*
X161452155Y-88202500D01*
X161392627Y-88208901D01*
X161392620Y-88208903D01*
X161257913Y-88259145D01*
X161257906Y-88259149D01*
X161142812Y-88345309D01*
X161114169Y-88383571D01*
X161107633Y-88388462D01*
X161103825Y-88395681D01*
X161080074Y-88409093D01*
X161058234Y-88425442D01*
X161050092Y-88426024D01*
X161042986Y-88430037D01*
X161015753Y-88428479D01*
X160988542Y-88430425D01*
X160979583Y-88426410D01*
X160973230Y-88426047D01*
X160942015Y-88409575D01*
X160901612Y-88380219D01*
X160858948Y-88324888D01*
X160850500Y-88279903D01*
X160850500Y-87780945D01*
X160850500Y-87780943D01*
X160809577Y-87628216D01*
X160794332Y-87601811D01*
X160730524Y-87491290D01*
X160730521Y-87491286D01*
X160730520Y-87491284D01*
X160618716Y-87379480D01*
X160618715Y-87379479D01*
X160614385Y-87375149D01*
X160614374Y-87375139D01*
X160117590Y-86878355D01*
X160117588Y-86878352D01*
X159998717Y-86759481D01*
X159998716Y-86759480D01*
X159911904Y-86709360D01*
X159911904Y-86709359D01*
X159911900Y-86709358D01*
X159861785Y-86680423D01*
X159709057Y-86639499D01*
X159550943Y-86639499D01*
X159543347Y-86639499D01*
X159543331Y-86639500D01*
X139710097Y-86639500D01*
X139643058Y-86619815D01*
X139622416Y-86603181D01*
X136181416Y-83162181D01*
X136147931Y-83100858D01*
X136152915Y-83031166D01*
X136194787Y-82975233D01*
X136260251Y-82950816D01*
X136269097Y-82950500D01*
X136462351Y-82950500D01*
X136462352Y-82950500D01*
X136664534Y-82918477D01*
X136859219Y-82855220D01*
X137041610Y-82762287D01*
X137154181Y-82680500D01*
X137207213Y-82641971D01*
X137207215Y-82641968D01*
X137207219Y-82641966D01*
X137351966Y-82497219D01*
X137351968Y-82497215D01*
X137351971Y-82497213D01*
X137472284Y-82331614D01*
X137472286Y-82331611D01*
X137472287Y-82331610D01*
X137519516Y-82238917D01*
X137567489Y-82188123D01*
X137635310Y-82171328D01*
X137701445Y-82193865D01*
X137740485Y-82238919D01*
X137787715Y-82331614D01*
X137908028Y-82497213D01*
X138052786Y-82641971D01*
X138173226Y-82729474D01*
X138218390Y-82762287D01*
X138315698Y-82811868D01*
X138400776Y-82855218D01*
X138400778Y-82855218D01*
X138400781Y-82855220D01*
X138505137Y-82889127D01*
X138595465Y-82918477D01*
X138696557Y-82934488D01*
X138797648Y-82950500D01*
X138797649Y-82950500D01*
X139002351Y-82950500D01*
X139002352Y-82950500D01*
X139204534Y-82918477D01*
X139399219Y-82855220D01*
X139581610Y-82762287D01*
X139694181Y-82680500D01*
X139747213Y-82641971D01*
X139747215Y-82641968D01*
X139747219Y-82641966D01*
X139891966Y-82497219D01*
X139891968Y-82497215D01*
X139891971Y-82497213D01*
X140012284Y-82331614D01*
X140012286Y-82331611D01*
X140012287Y-82331610D01*
X140059516Y-82238917D01*
X140107489Y-82188123D01*
X140175310Y-82171328D01*
X140241445Y-82193865D01*
X140280485Y-82238919D01*
X140327715Y-82331614D01*
X140448028Y-82497213D01*
X140592786Y-82641971D01*
X140713226Y-82729474D01*
X140758390Y-82762287D01*
X140855698Y-82811868D01*
X140940776Y-82855218D01*
X140940778Y-82855218D01*
X140940781Y-82855220D01*
X141045137Y-82889127D01*
X141135465Y-82918477D01*
X141236557Y-82934488D01*
X141337648Y-82950500D01*
X141337649Y-82950500D01*
X141542351Y-82950500D01*
X141542352Y-82950500D01*
X141744534Y-82918477D01*
X141939219Y-82855220D01*
X142121610Y-82762287D01*
X142234181Y-82680500D01*
X142287213Y-82641971D01*
X142287215Y-82641968D01*
X142287219Y-82641966D01*
X142431966Y-82497219D01*
X142431968Y-82497215D01*
X142431971Y-82497213D01*
X142552284Y-82331614D01*
X142552286Y-82331611D01*
X142552287Y-82331610D01*
X142599516Y-82238917D01*
X142647489Y-82188123D01*
X142715310Y-82171328D01*
X142781445Y-82193865D01*
X142820485Y-82238919D01*
X142867715Y-82331614D01*
X142988028Y-82497213D01*
X143132786Y-82641971D01*
X143253226Y-82729474D01*
X143298390Y-82762287D01*
X143395698Y-82811868D01*
X143480776Y-82855218D01*
X143480778Y-82855218D01*
X143480781Y-82855220D01*
X143585137Y-82889127D01*
X143675465Y-82918477D01*
X143776557Y-82934488D01*
X143877648Y-82950500D01*
X143877649Y-82950500D01*
X144082351Y-82950500D01*
X144082352Y-82950500D01*
X144284534Y-82918477D01*
X144479219Y-82855220D01*
X144661610Y-82762287D01*
X144774181Y-82680500D01*
X144827213Y-82641971D01*
X144827215Y-82641968D01*
X144827219Y-82641966D01*
X144971966Y-82497219D01*
X144971968Y-82497215D01*
X144971971Y-82497213D01*
X145092284Y-82331614D01*
X145092286Y-82331611D01*
X145092287Y-82331610D01*
X145139516Y-82238917D01*
X145187489Y-82188123D01*
X145255310Y-82171328D01*
X145321445Y-82193865D01*
X145360485Y-82238919D01*
X145407715Y-82331614D01*
X145528028Y-82497213D01*
X145672786Y-82641971D01*
X145793226Y-82729474D01*
X145838390Y-82762287D01*
X145935698Y-82811868D01*
X146020776Y-82855218D01*
X146020778Y-82855218D01*
X146020781Y-82855220D01*
X146125137Y-82889127D01*
X146215465Y-82918477D01*
X146316557Y-82934488D01*
X146417648Y-82950500D01*
X146417649Y-82950500D01*
X146622351Y-82950500D01*
X146622352Y-82950500D01*
X146824534Y-82918477D01*
X146895210Y-82895513D01*
X150839500Y-82895513D01*
X150839500Y-83084486D01*
X150869059Y-83271118D01*
X150927454Y-83450836D01*
X150994216Y-83581862D01*
X151013240Y-83619199D01*
X151124310Y-83772073D01*
X151257927Y-83905690D01*
X151410801Y-84016760D01*
X151490347Y-84057290D01*
X151579163Y-84102545D01*
X151579165Y-84102545D01*
X151579168Y-84102547D01*
X151660754Y-84129056D01*
X151758881Y-84160940D01*
X151945514Y-84190500D01*
X151945519Y-84190500D01*
X152134486Y-84190500D01*
X152321118Y-84160940D01*
X152500832Y-84102547D01*
X152669199Y-84016760D01*
X152822073Y-83905690D01*
X152955690Y-83772073D01*
X153066760Y-83619199D01*
X153152547Y-83450832D01*
X153210940Y-83271118D01*
X153229991Y-83150836D01*
X153240500Y-83084486D01*
X153240500Y-82895513D01*
X153210940Y-82708881D01*
X153152545Y-82529163D01*
X153079406Y-82385620D01*
X153066760Y-82360801D01*
X152955690Y-82207927D01*
X152822073Y-82074310D01*
X152669199Y-81963240D01*
X152500836Y-81877454D01*
X152321118Y-81819059D01*
X152134486Y-81789500D01*
X152134481Y-81789500D01*
X151945519Y-81789500D01*
X151945514Y-81789500D01*
X151758881Y-81819059D01*
X151579163Y-81877454D01*
X151410800Y-81963240D01*
X151355315Y-82003553D01*
X151257927Y-82074310D01*
X151257925Y-82074312D01*
X151257924Y-82074312D01*
X151124312Y-82207924D01*
X151124312Y-82207925D01*
X151124310Y-82207927D01*
X151102191Y-82238371D01*
X151013240Y-82360800D01*
X150927454Y-82529163D01*
X150869059Y-82708881D01*
X150839500Y-82895513D01*
X146895210Y-82895513D01*
X147019219Y-82855220D01*
X147201610Y-82762287D01*
X147257106Y-82721967D01*
X147367213Y-82641971D01*
X147367215Y-82641968D01*
X147367219Y-82641966D01*
X147511966Y-82497219D01*
X147511968Y-82497215D01*
X147511971Y-82497213D01*
X147576147Y-82408881D01*
X147632287Y-82331610D01*
X147725220Y-82149219D01*
X147788477Y-81954534D01*
X147820500Y-81752352D01*
X147820500Y-81547648D01*
X147807237Y-81463909D01*
X147788477Y-81345465D01*
X147731801Y-81171036D01*
X147725220Y-81150781D01*
X147725218Y-81150778D01*
X147725218Y-81150776D01*
X147632420Y-80968652D01*
X147632287Y-80968390D01*
X147600092Y-80924077D01*
X147511971Y-80802786D01*
X147367213Y-80658028D01*
X147201613Y-80537715D01*
X147201612Y-80537714D01*
X147201610Y-80537713D01*
X147144653Y-80508691D01*
X147019223Y-80444781D01*
X146824534Y-80381522D01*
X146649995Y-80353878D01*
X146622352Y-80349500D01*
X146417648Y-80349500D01*
X146393329Y-80353351D01*
X146215465Y-80381522D01*
X146020776Y-80444781D01*
X145838386Y-80537715D01*
X145672786Y-80658028D01*
X145528028Y-80802786D01*
X145407715Y-80968386D01*
X145360485Y-81061080D01*
X145312510Y-81111876D01*
X145244689Y-81128671D01*
X145178554Y-81106134D01*
X145139515Y-81061080D01*
X145092420Y-80968652D01*
X145092287Y-80968390D01*
X145060092Y-80924077D01*
X144971971Y-80802786D01*
X144827213Y-80658028D01*
X144661613Y-80537715D01*
X144661612Y-80537714D01*
X144661610Y-80537713D01*
X144604653Y-80508691D01*
X144479223Y-80444781D01*
X144284534Y-80381522D01*
X144109995Y-80353878D01*
X144082352Y-80349500D01*
X143877648Y-80349500D01*
X143853329Y-80353351D01*
X143675465Y-80381522D01*
X143480776Y-80444781D01*
X143298386Y-80537715D01*
X143132786Y-80658028D01*
X142988028Y-80802786D01*
X142867715Y-80968386D01*
X142820485Y-81061080D01*
X142772510Y-81111876D01*
X142704689Y-81128671D01*
X142638554Y-81106134D01*
X142599515Y-81061080D01*
X142552420Y-80968652D01*
X142552287Y-80968390D01*
X142520092Y-80924077D01*
X142431971Y-80802786D01*
X142287213Y-80658028D01*
X142121613Y-80537715D01*
X142121612Y-80537714D01*
X142121610Y-80537713D01*
X142064653Y-80508691D01*
X141939223Y-80444781D01*
X141744534Y-80381522D01*
X141569995Y-80353878D01*
X141542352Y-80349500D01*
X141349097Y-80349500D01*
X141282058Y-80329815D01*
X141236303Y-80277011D01*
X141226359Y-80207853D01*
X141255384Y-80144297D01*
X141261416Y-80137819D01*
X141930759Y-79468477D01*
X142852417Y-78546819D01*
X142913740Y-78513334D01*
X142940098Y-78510500D01*
X150929208Y-78510500D01*
X150996247Y-78530185D01*
X151029524Y-78561612D01*
X151124310Y-78692073D01*
X151257927Y-78825690D01*
X151410801Y-78936760D01*
X151490347Y-78977290D01*
X151579163Y-79022545D01*
X151579165Y-79022545D01*
X151579168Y-79022547D01*
X151655082Y-79047213D01*
X151758881Y-79080940D01*
X151945514Y-79110500D01*
X151945519Y-79110500D01*
X152134486Y-79110500D01*
X152321118Y-79080940D01*
X152365756Y-79066436D01*
X152500832Y-79022547D01*
X152669199Y-78936760D01*
X152689438Y-78922055D01*
X152714040Y-78904182D01*
X152779846Y-78880702D01*
X152786925Y-78880500D01*
X154215932Y-78880500D01*
X154282971Y-78900185D01*
X154326416Y-78948203D01*
X154386657Y-79066433D01*
X154525483Y-79257510D01*
X154692490Y-79424517D01*
X154800042Y-79502658D01*
X154883568Y-79563344D01*
X154958177Y-79601358D01*
X155001794Y-79623582D01*
X155052590Y-79671556D01*
X155069500Y-79734067D01*
X155069500Y-83325931D01*
X155049815Y-83392970D01*
X155001796Y-83436415D01*
X154883568Y-83496655D01*
X154766282Y-83581870D01*
X154692490Y-83635483D01*
X154692488Y-83635485D01*
X154692487Y-83635485D01*
X154525485Y-83802487D01*
X154525485Y-83802488D01*
X154525483Y-83802490D01*
X154491328Y-83849500D01*
X154386657Y-83993566D01*
X154279433Y-84204003D01*
X154206446Y-84428631D01*
X154169500Y-84661902D01*
X154169500Y-84898097D01*
X154206446Y-85131368D01*
X154279433Y-85355996D01*
X154332692Y-85460521D01*
X154386657Y-85566433D01*
X154525483Y-85757510D01*
X154692490Y-85924517D01*
X154883567Y-86063343D01*
X154982991Y-86114002D01*
X155094003Y-86170566D01*
X155094005Y-86170566D01*
X155094008Y-86170568D01*
X155182476Y-86199313D01*
X155318631Y-86243553D01*
X155551903Y-86280500D01*
X155551908Y-86280500D01*
X155788097Y-86280500D01*
X156021368Y-86243553D01*
X156054468Y-86232798D01*
X156245992Y-86170568D01*
X156456433Y-86063343D01*
X156647510Y-85924517D01*
X156814517Y-85757510D01*
X156953343Y-85566433D01*
X157060568Y-85355992D01*
X157133553Y-85131368D01*
X157145006Y-85059057D01*
X157170500Y-84898097D01*
X157170500Y-84661947D01*
X158670000Y-84661947D01*
X158670000Y-84898052D01*
X158706934Y-85131247D01*
X158779897Y-85355802D01*
X158887087Y-85566174D01*
X158947338Y-85649104D01*
X158947340Y-85649105D01*
X159646212Y-84950233D01*
X159657482Y-84992292D01*
X159729890Y-85117708D01*
X159832292Y-85220110D01*
X159957708Y-85292518D01*
X159999765Y-85303787D01*
X159300893Y-86002658D01*
X159383828Y-86062914D01*
X159594197Y-86170102D01*
X159818752Y-86243065D01*
X159818751Y-86243065D01*
X160051948Y-86280000D01*
X160288052Y-86280000D01*
X160521247Y-86243065D01*
X160745802Y-86170102D01*
X160956163Y-86062918D01*
X160956169Y-86062914D01*
X161039104Y-86002658D01*
X161039105Y-86002658D01*
X160340233Y-85303787D01*
X160382292Y-85292518D01*
X160507708Y-85220110D01*
X160610110Y-85117708D01*
X160682518Y-84992292D01*
X160693787Y-84950234D01*
X161392658Y-85649105D01*
X161392658Y-85649104D01*
X161452914Y-85566169D01*
X161452918Y-85566163D01*
X161560102Y-85355802D01*
X161633065Y-85131247D01*
X161670000Y-84898052D01*
X161670000Y-84661947D01*
X161633065Y-84428752D01*
X161560102Y-84204197D01*
X161452914Y-83993828D01*
X161392658Y-83910894D01*
X161392658Y-83910893D01*
X160693787Y-84609765D01*
X160682518Y-84567708D01*
X160610110Y-84442292D01*
X160507708Y-84339890D01*
X160382292Y-84267482D01*
X160340234Y-84256212D01*
X161039105Y-83557340D01*
X161039104Y-83557338D01*
X160956174Y-83497087D01*
X160745802Y-83389897D01*
X160521247Y-83316934D01*
X160521248Y-83316934D01*
X160288052Y-83280000D01*
X160051948Y-83280000D01*
X159818752Y-83316934D01*
X159594197Y-83389897D01*
X159383830Y-83497084D01*
X159300894Y-83557340D01*
X159999766Y-84256212D01*
X159957708Y-84267482D01*
X159832292Y-84339890D01*
X159729890Y-84442292D01*
X159657482Y-84567708D01*
X159646212Y-84609766D01*
X158947340Y-83910894D01*
X158887084Y-83993830D01*
X158779897Y-84204197D01*
X158706934Y-84428752D01*
X158670000Y-84661947D01*
X157170500Y-84661947D01*
X157170500Y-84661902D01*
X157133553Y-84428631D01*
X157060566Y-84204003D01*
X156959319Y-84005296D01*
X156953343Y-83993567D01*
X156814517Y-83802490D01*
X156647510Y-83635483D01*
X156515400Y-83539499D01*
X156456431Y-83496655D01*
X156338204Y-83436415D01*
X156287409Y-83388441D01*
X156270500Y-83325931D01*
X156270500Y-79734067D01*
X156290185Y-79667028D01*
X156338205Y-79623582D01*
X156456433Y-79563343D01*
X156647510Y-79424517D01*
X156814517Y-79257510D01*
X156953343Y-79066433D01*
X157060568Y-78855992D01*
X157133553Y-78631368D01*
X157150291Y-78525687D01*
X157170500Y-78398097D01*
X157170500Y-78161947D01*
X158670000Y-78161947D01*
X158670000Y-78398052D01*
X158706934Y-78631247D01*
X158779897Y-78855802D01*
X158887087Y-79066174D01*
X158947338Y-79149104D01*
X158947340Y-79149105D01*
X159646212Y-78450233D01*
X159657482Y-78492292D01*
X159729890Y-78617708D01*
X159832292Y-78720110D01*
X159957708Y-78792518D01*
X159999765Y-78803787D01*
X159300893Y-79502658D01*
X159383828Y-79562914D01*
X159594197Y-79670102D01*
X159818752Y-79743065D01*
X159818751Y-79743065D01*
X160051948Y-79780000D01*
X160288052Y-79780000D01*
X160521247Y-79743065D01*
X160745802Y-79670102D01*
X160956163Y-79562918D01*
X160956169Y-79562914D01*
X161039104Y-79502658D01*
X161039105Y-79502658D01*
X160340233Y-78803787D01*
X160382292Y-78792518D01*
X160507708Y-78720110D01*
X160610110Y-78617708D01*
X160682518Y-78492292D01*
X160693787Y-78450234D01*
X161392658Y-79149105D01*
X161392658Y-79149104D01*
X161452914Y-79066169D01*
X161452918Y-79066163D01*
X161560102Y-78855802D01*
X161633065Y-78631247D01*
X161670000Y-78398052D01*
X161670000Y-78161947D01*
X161669993Y-78161902D01*
X163074500Y-78161902D01*
X163074500Y-78398097D01*
X163111446Y-78631368D01*
X163184433Y-78855996D01*
X163269295Y-79022545D01*
X163291657Y-79066433D01*
X163430483Y-79257510D01*
X163597490Y-79424517D01*
X163705042Y-79502658D01*
X163788568Y-79563344D01*
X163863177Y-79601358D01*
X163906794Y-79623582D01*
X163957590Y-79671556D01*
X163974500Y-79734067D01*
X163974500Y-83325931D01*
X163954815Y-83392970D01*
X163906796Y-83436415D01*
X163788568Y-83496655D01*
X163671282Y-83581870D01*
X163597490Y-83635483D01*
X163597488Y-83635485D01*
X163597487Y-83635485D01*
X163430485Y-83802487D01*
X163430485Y-83802488D01*
X163430483Y-83802490D01*
X163396328Y-83849500D01*
X163291657Y-83993566D01*
X163184433Y-84204003D01*
X163111446Y-84428631D01*
X163074500Y-84661902D01*
X163074500Y-84898097D01*
X163111446Y-85131368D01*
X163184433Y-85355996D01*
X163237692Y-85460521D01*
X163291657Y-85566433D01*
X163430483Y-85757510D01*
X163597490Y-85924517D01*
X163788567Y-86063343D01*
X163887991Y-86114002D01*
X163999003Y-86170566D01*
X163999005Y-86170566D01*
X163999008Y-86170568D01*
X164087476Y-86199313D01*
X164223631Y-86243553D01*
X164456903Y-86280500D01*
X164456908Y-86280500D01*
X164693097Y-86280500D01*
X164799126Y-86263705D01*
X164926368Y-86243553D01*
X165052566Y-86202547D01*
X165122404Y-86200553D01*
X165178563Y-86232798D01*
X167220139Y-88274374D01*
X167220149Y-88274385D01*
X167224479Y-88278715D01*
X167224480Y-88278716D01*
X167336284Y-88390520D01*
X167336286Y-88390521D01*
X167336290Y-88390524D01*
X167433867Y-88446859D01*
X167473216Y-88469577D01*
X167581800Y-88498672D01*
X167581799Y-88498672D01*
X167593627Y-88501841D01*
X167625942Y-88510500D01*
X167625943Y-88510500D01*
X168049208Y-88510500D01*
X168116247Y-88530185D01*
X168149524Y-88561612D01*
X168244310Y-88692073D01*
X168377927Y-88825690D01*
X168530801Y-88936760D01*
X168587138Y-88965465D01*
X168699163Y-89022545D01*
X168699165Y-89022545D01*
X168699168Y-89022547D01*
X168795497Y-89053846D01*
X168878881Y-89080940D01*
X169065514Y-89110500D01*
X169065519Y-89110500D01*
X169254486Y-89110500D01*
X169441118Y-89080940D01*
X169620832Y-89022547D01*
X169789199Y-88936760D01*
X169942073Y-88825690D01*
X170075690Y-88692073D01*
X170186760Y-88539199D01*
X170272547Y-88370832D01*
X170330940Y-88191118D01*
X170360500Y-88004486D01*
X170360500Y-87815513D01*
X171199500Y-87815513D01*
X171199500Y-88004486D01*
X171229059Y-88191118D01*
X171287454Y-88370836D01*
X171358617Y-88510500D01*
X171373240Y-88539199D01*
X171484310Y-88692073D01*
X171617927Y-88825690D01*
X171770801Y-88936760D01*
X171827138Y-88965465D01*
X171939163Y-89022545D01*
X171939165Y-89022545D01*
X171939168Y-89022547D01*
X172035497Y-89053846D01*
X172118881Y-89080940D01*
X172305514Y-89110500D01*
X172305519Y-89110500D01*
X172494486Y-89110500D01*
X172681118Y-89080940D01*
X172860832Y-89022547D01*
X173029199Y-88936760D01*
X173182073Y-88825690D01*
X173315690Y-88692073D01*
X173410475Y-88561613D01*
X173465804Y-88518949D01*
X173510792Y-88510500D01*
X174763331Y-88510500D01*
X174763347Y-88510501D01*
X174770943Y-88510501D01*
X174929054Y-88510501D01*
X174929057Y-88510501D01*
X175081785Y-88469577D01*
X175131904Y-88440639D01*
X175218716Y-88390520D01*
X175330520Y-88278716D01*
X175330520Y-88278714D01*
X175340728Y-88268507D01*
X175340730Y-88268504D01*
X177376437Y-86232796D01*
X177437758Y-86199313D01*
X177502433Y-86202547D01*
X177628632Y-86243553D01*
X177716110Y-86257408D01*
X177861903Y-86280500D01*
X177861908Y-86280500D01*
X178098097Y-86280500D01*
X178331368Y-86243553D01*
X178364468Y-86232798D01*
X178555992Y-86170568D01*
X178766433Y-86063343D01*
X178957510Y-85924517D01*
X179124517Y-85757510D01*
X179263343Y-85566433D01*
X179370568Y-85355992D01*
X179443553Y-85131368D01*
X179455006Y-85059057D01*
X179480500Y-84898097D01*
X179480500Y-84661902D01*
X179443553Y-84428631D01*
X179370566Y-84204003D01*
X179269319Y-84005296D01*
X179263343Y-83993567D01*
X179124517Y-83802490D01*
X178957510Y-83635483D01*
X178825400Y-83539499D01*
X178766431Y-83496655D01*
X178648204Y-83436415D01*
X178597409Y-83388441D01*
X178580500Y-83325931D01*
X178580500Y-82595513D01*
X180339500Y-82595513D01*
X180339500Y-82784486D01*
X180369059Y-82971118D01*
X180427454Y-83150836D01*
X180493267Y-83280000D01*
X180513240Y-83319199D01*
X180624310Y-83472073D01*
X180757927Y-83605690D01*
X180888386Y-83700474D01*
X180931051Y-83755803D01*
X180939500Y-83800791D01*
X180939500Y-84893330D01*
X180939499Y-84893348D01*
X180939499Y-85059054D01*
X180939498Y-85059054D01*
X180939499Y-85059057D01*
X180980423Y-85211785D01*
X180986768Y-85222775D01*
X180986770Y-85222782D01*
X180986772Y-85222782D01*
X181059475Y-85348709D01*
X181059481Y-85348717D01*
X181178349Y-85467585D01*
X181178354Y-85467589D01*
X182261284Y-86550520D01*
X182261286Y-86550521D01*
X182261290Y-86550524D01*
X182398209Y-86629573D01*
X182398216Y-86629577D01*
X182550943Y-86670501D01*
X182550945Y-86670501D01*
X182716654Y-86670501D01*
X182716670Y-86670500D01*
X183330398Y-86670500D01*
X183397437Y-86690185D01*
X183440882Y-86738204D01*
X183446821Y-86749859D01*
X183447715Y-86751614D01*
X183568028Y-86917213D01*
X183712786Y-87061971D01*
X183867749Y-87174556D01*
X183878390Y-87182287D01*
X183994607Y-87241503D01*
X184060776Y-87275218D01*
X184060778Y-87275218D01*
X184060781Y-87275220D01*
X184105700Y-87289815D01*
X184255465Y-87338477D01*
X184356557Y-87354488D01*
X184457648Y-87370500D01*
X184457649Y-87370500D01*
X184662351Y-87370500D01*
X184662352Y-87370500D01*
X184864534Y-87338477D01*
X185059219Y-87275220D01*
X185241610Y-87182287D01*
X185334590Y-87114732D01*
X185407213Y-87061971D01*
X185407215Y-87061968D01*
X185407219Y-87061966D01*
X185551966Y-86917219D01*
X185551968Y-86917215D01*
X185551971Y-86917213D01*
X185604732Y-86844590D01*
X185672287Y-86751610D01*
X185765220Y-86569219D01*
X185828477Y-86374534D01*
X185860500Y-86172352D01*
X185860500Y-85967648D01*
X188259500Y-85967648D01*
X188259500Y-86172351D01*
X188291522Y-86374534D01*
X188354781Y-86569223D01*
X188390590Y-86639500D01*
X188441318Y-86739060D01*
X188447715Y-86751613D01*
X188568028Y-86917213D01*
X188712786Y-87061971D01*
X188867749Y-87174556D01*
X188878390Y-87182287D01*
X188994607Y-87241503D01*
X189060776Y-87275218D01*
X189060778Y-87275218D01*
X189060781Y-87275220D01*
X189105700Y-87289815D01*
X189255465Y-87338477D01*
X189356557Y-87354488D01*
X189457648Y-87370500D01*
X189457649Y-87370500D01*
X189662351Y-87370500D01*
X189662352Y-87370500D01*
X189864534Y-87338477D01*
X190059219Y-87275220D01*
X190241610Y-87182287D01*
X190334590Y-87114732D01*
X190407213Y-87061971D01*
X190407215Y-87061968D01*
X190407219Y-87061966D01*
X190551966Y-86917219D01*
X190551968Y-86917215D01*
X190551971Y-86917213D01*
X190604732Y-86844590D01*
X190672287Y-86751610D01*
X190765220Y-86569219D01*
X190828477Y-86374534D01*
X190860500Y-86172352D01*
X190860500Y-85967648D01*
X190828477Y-85765466D01*
X190825892Y-85757511D01*
X190790669Y-85649105D01*
X190765220Y-85570781D01*
X190765217Y-85570777D01*
X190765217Y-85570774D01*
X190730764Y-85503158D01*
X190672287Y-85388390D01*
X190664556Y-85377749D01*
X190551971Y-85222786D01*
X190407213Y-85078028D01*
X190241613Y-84957715D01*
X190241612Y-84957714D01*
X190241610Y-84957713D01*
X190184653Y-84928691D01*
X190059223Y-84864781D01*
X189864534Y-84801522D01*
X189689995Y-84773878D01*
X189662352Y-84769500D01*
X189457648Y-84769500D01*
X189433329Y-84773351D01*
X189255465Y-84801522D01*
X189060776Y-84864781D01*
X188878386Y-84957715D01*
X188712786Y-85078028D01*
X188568028Y-85222786D01*
X188447715Y-85388386D01*
X188354783Y-85570774D01*
X188354782Y-85570777D01*
X188354780Y-85570781D01*
X188332398Y-85639665D01*
X188291522Y-85765465D01*
X188259500Y-85967648D01*
X185860500Y-85967648D01*
X185828477Y-85765466D01*
X185825892Y-85757511D01*
X185790669Y-85649105D01*
X185765220Y-85570781D01*
X185765217Y-85570777D01*
X185765217Y-85570774D01*
X185730764Y-85503158D01*
X185672287Y-85388390D01*
X185664556Y-85377749D01*
X185551971Y-85222786D01*
X185407219Y-85078034D01*
X185289204Y-84992292D01*
X185251389Y-84964817D01*
X185208724Y-84909489D01*
X185202745Y-84839875D01*
X185235350Y-84778080D01*
X185296189Y-84743723D01*
X185324275Y-84740500D01*
X186113331Y-84740500D01*
X186113347Y-84740501D01*
X186120943Y-84740501D01*
X186279054Y-84740501D01*
X186279057Y-84740501D01*
X186431785Y-84699577D01*
X186497029Y-84661908D01*
X186568716Y-84620520D01*
X186680520Y-84508716D01*
X186770520Y-84418716D01*
X186820639Y-84331904D01*
X186849577Y-84281785D01*
X186890500Y-84129058D01*
X186890500Y-83970943D01*
X186890500Y-83954500D01*
X186910185Y-83887461D01*
X186962989Y-83841706D01*
X187014500Y-83830500D01*
X187195686Y-83830500D01*
X187195694Y-83830500D01*
X187232569Y-83827598D01*
X187232571Y-83827597D01*
X187232573Y-83827597D01*
X187318997Y-83802488D01*
X187390398Y-83781744D01*
X187531865Y-83698081D01*
X187648081Y-83581865D01*
X187731744Y-83440398D01*
X187777598Y-83282569D01*
X187780500Y-83245694D01*
X187780500Y-82814306D01*
X187777598Y-82777431D01*
X187773198Y-82762287D01*
X187731745Y-82619606D01*
X187731744Y-82619603D01*
X187731744Y-82619602D01*
X187648081Y-82478135D01*
X187648079Y-82478133D01*
X187648076Y-82478129D01*
X187531870Y-82361923D01*
X187531862Y-82361917D01*
X187390396Y-82278255D01*
X187390393Y-82278254D01*
X187232573Y-82232402D01*
X187232567Y-82232401D01*
X187195701Y-82229500D01*
X187195694Y-82229500D01*
X186039306Y-82229500D01*
X186039298Y-82229500D01*
X186002432Y-82232401D01*
X186002426Y-82232402D01*
X185844606Y-82278254D01*
X185844603Y-82278255D01*
X185696420Y-82365890D01*
X185695345Y-82364073D01*
X185640448Y-82385620D01*
X185571932Y-82371931D01*
X185521694Y-82323373D01*
X185505500Y-82262104D01*
X185505500Y-81897257D01*
X185525185Y-81830218D01*
X185577989Y-81784463D01*
X185647147Y-81774519D01*
X185695855Y-81795188D01*
X185696729Y-81793712D01*
X185844803Y-81881282D01*
X185844806Y-81881283D01*
X186002504Y-81927099D01*
X186002510Y-81927100D01*
X186039350Y-81929999D01*
X186039366Y-81930000D01*
X186367500Y-81930000D01*
X186867500Y-81930000D01*
X187195634Y-81930000D01*
X187195649Y-81929999D01*
X187232489Y-81927100D01*
X187232495Y-81927099D01*
X187390193Y-81881283D01*
X187390196Y-81881282D01*
X187531552Y-81797685D01*
X187531561Y-81797678D01*
X187647678Y-81681561D01*
X187647685Y-81681552D01*
X187731281Y-81540198D01*
X187777100Y-81382486D01*
X187777295Y-81380001D01*
X187777295Y-81380000D01*
X186867500Y-81380000D01*
X186867500Y-81930000D01*
X186367500Y-81930000D01*
X186367500Y-80880000D01*
X186867500Y-80880000D01*
X187777295Y-80880000D01*
X187777295Y-80879998D01*
X187777100Y-80877513D01*
X187731281Y-80719801D01*
X187647685Y-80578447D01*
X187647678Y-80578438D01*
X187531561Y-80462321D01*
X187531552Y-80462314D01*
X187390196Y-80378717D01*
X187390193Y-80378716D01*
X187232495Y-80332900D01*
X187232489Y-80332899D01*
X187195649Y-80330000D01*
X186867500Y-80330000D01*
X186867500Y-80880000D01*
X186367500Y-80880000D01*
X186367500Y-80330000D01*
X186039350Y-80330000D01*
X186002510Y-80332899D01*
X186002504Y-80332900D01*
X185844806Y-80378716D01*
X185844803Y-80378717D01*
X185703447Y-80462314D01*
X185703438Y-80462321D01*
X185587321Y-80578438D01*
X185587312Y-80578449D01*
X185587017Y-80578950D01*
X185586683Y-80579261D01*
X185582537Y-80584607D01*
X185581674Y-80583937D01*
X185535943Y-80626629D01*
X185467200Y-80639127D01*
X185402614Y-80612476D01*
X185378063Y-80584140D01*
X185377861Y-80584298D01*
X185374967Y-80580568D01*
X185373559Y-80578942D01*
X185373085Y-80578140D01*
X185373076Y-80578129D01*
X185256870Y-80461923D01*
X185256862Y-80461917D01*
X185168488Y-80409653D01*
X185115398Y-80378256D01*
X185115397Y-80378255D01*
X185115396Y-80378255D01*
X185115393Y-80378254D01*
X184957573Y-80332402D01*
X184957567Y-80332401D01*
X184920701Y-80329500D01*
X184920694Y-80329500D01*
X183764306Y-80329500D01*
X183764298Y-80329500D01*
X183727432Y-80332401D01*
X183727426Y-80332402D01*
X183569606Y-80378254D01*
X183569603Y-80378255D01*
X183428137Y-80461917D01*
X183428129Y-80461923D01*
X183311923Y-80578129D01*
X183311917Y-80578137D01*
X183228255Y-80719603D01*
X183228254Y-80719606D01*
X183182402Y-80877426D01*
X183182401Y-80877432D01*
X183179500Y-80914298D01*
X183179500Y-81345686D01*
X183179501Y-81345717D01*
X183179506Y-81345778D01*
X183179503Y-81345787D01*
X183179596Y-81348132D01*
X183179006Y-81348155D01*
X183165138Y-81414155D01*
X183116084Y-81463909D01*
X183055888Y-81479500D01*
X182229057Y-81479500D01*
X182070942Y-81479500D01*
X182010834Y-81495606D01*
X181910363Y-81522527D01*
X181909921Y-81520878D01*
X181850159Y-81527299D01*
X181833873Y-81523203D01*
X181821121Y-81519060D01*
X181634486Y-81489500D01*
X181634481Y-81489500D01*
X181445519Y-81489500D01*
X181445514Y-81489500D01*
X181258881Y-81519059D01*
X181079163Y-81577454D01*
X180910800Y-81663240D01*
X180885584Y-81681561D01*
X180757927Y-81774310D01*
X180757925Y-81774312D01*
X180757924Y-81774312D01*
X180624312Y-81907924D01*
X180624312Y-81907925D01*
X180624310Y-81907927D01*
X180590533Y-81954417D01*
X180513240Y-82060800D01*
X180427454Y-82229163D01*
X180369059Y-82408881D01*
X180339500Y-82595513D01*
X178580500Y-82595513D01*
X178580500Y-79734067D01*
X178600185Y-79667028D01*
X178648205Y-79623582D01*
X178766433Y-79563343D01*
X178957510Y-79424517D01*
X179124517Y-79257510D01*
X179263343Y-79066433D01*
X179370568Y-78855992D01*
X179443553Y-78631368D01*
X179460291Y-78525687D01*
X179480500Y-78398097D01*
X179480500Y-78334500D01*
X179500185Y-78267461D01*
X179552989Y-78221706D01*
X179604500Y-78210500D01*
X180429208Y-78210500D01*
X180496247Y-78230185D01*
X180529524Y-78261612D01*
X180624310Y-78392073D01*
X180757927Y-78525690D01*
X180910801Y-78636760D01*
X180990347Y-78677290D01*
X181079163Y-78722545D01*
X181079165Y-78722545D01*
X181079168Y-78722547D01*
X181175497Y-78753846D01*
X181258881Y-78780940D01*
X181445514Y-78810500D01*
X181445519Y-78810500D01*
X181634486Y-78810500D01*
X181821118Y-78780940D01*
X182000832Y-78722547D01*
X182169199Y-78636760D01*
X182322073Y-78525690D01*
X182455690Y-78392073D01*
X182566760Y-78239199D01*
X182638866Y-78097682D01*
X183160000Y-78097682D01*
X183160000Y-78302317D01*
X183192009Y-78504417D01*
X183255244Y-78699031D01*
X183348141Y-78881350D01*
X183348147Y-78881359D01*
X183380523Y-78925921D01*
X183380524Y-78925922D01*
X184060000Y-78246446D01*
X184060000Y-78252661D01*
X184087259Y-78354394D01*
X184139920Y-78445606D01*
X184214394Y-78520080D01*
X184305606Y-78572741D01*
X184407339Y-78600000D01*
X184413553Y-78600000D01*
X183734076Y-79279474D01*
X183778650Y-79311859D01*
X183960968Y-79404755D01*
X184155582Y-79467990D01*
X184357683Y-79500000D01*
X184562317Y-79500000D01*
X184764417Y-79467990D01*
X184959031Y-79404755D01*
X185141349Y-79311859D01*
X185185921Y-79279474D01*
X184506447Y-78600000D01*
X184512661Y-78600000D01*
X184614394Y-78572741D01*
X184705606Y-78520080D01*
X184780080Y-78445606D01*
X184832741Y-78354394D01*
X184860000Y-78252661D01*
X184860000Y-78246448D01*
X185539474Y-78925922D01*
X185539474Y-78925921D01*
X185571859Y-78881349D01*
X185664755Y-78699031D01*
X185727990Y-78504417D01*
X185760000Y-78302317D01*
X185760000Y-78097682D01*
X185759995Y-78097648D01*
X188159500Y-78097648D01*
X188159500Y-78302351D01*
X188191522Y-78504534D01*
X188254781Y-78699223D01*
X188318691Y-78824653D01*
X188347585Y-78881359D01*
X188347715Y-78881613D01*
X188468028Y-79047213D01*
X188612786Y-79191971D01*
X188733226Y-79279474D01*
X188778390Y-79312287D01*
X188887179Y-79367718D01*
X188960776Y-79405218D01*
X188960778Y-79405218D01*
X188960781Y-79405220D01*
X189065137Y-79439127D01*
X189155465Y-79468477D01*
X189256557Y-79484488D01*
X189357648Y-79500500D01*
X189357649Y-79500500D01*
X189562351Y-79500500D01*
X189562352Y-79500500D01*
X189764534Y-79468477D01*
X189959219Y-79405220D01*
X190141610Y-79312287D01*
X190234590Y-79244732D01*
X190307213Y-79191971D01*
X190307215Y-79191968D01*
X190307219Y-79191966D01*
X190451966Y-79047219D01*
X190451968Y-79047215D01*
X190451971Y-79047213D01*
X190523903Y-78948205D01*
X190572287Y-78881610D01*
X190665220Y-78699219D01*
X190728477Y-78504534D01*
X190760500Y-78302352D01*
X190760500Y-78097648D01*
X190742429Y-77983553D01*
X190728477Y-77895465D01*
X190697458Y-77800000D01*
X190665220Y-77700781D01*
X190665218Y-77700778D01*
X190665218Y-77700776D01*
X190619879Y-77611795D01*
X190572287Y-77518390D01*
X190554252Y-77493567D01*
X190451971Y-77352786D01*
X190307213Y-77208028D01*
X190141613Y-77087715D01*
X190141612Y-77087714D01*
X190141610Y-77087713D01*
X190081996Y-77057338D01*
X189959223Y-76994781D01*
X189764534Y-76931522D01*
X189589995Y-76903878D01*
X189562352Y-76899500D01*
X189357648Y-76899500D01*
X189333329Y-76903351D01*
X189155465Y-76931522D01*
X188960776Y-76994781D01*
X188778386Y-77087715D01*
X188612786Y-77208028D01*
X188468028Y-77352786D01*
X188347715Y-77518386D01*
X188254781Y-77700776D01*
X188191522Y-77895465D01*
X188159500Y-78097648D01*
X185759995Y-78097648D01*
X185727990Y-77895582D01*
X185664755Y-77700968D01*
X185571859Y-77518650D01*
X185539474Y-77474077D01*
X185539474Y-77474076D01*
X184860000Y-78153551D01*
X184860000Y-78147339D01*
X184832741Y-78045606D01*
X184780080Y-77954394D01*
X184705606Y-77879920D01*
X184614394Y-77827259D01*
X184512661Y-77800000D01*
X184506446Y-77800000D01*
X185185922Y-77120524D01*
X185185921Y-77120523D01*
X185141359Y-77088147D01*
X185141350Y-77088141D01*
X184959031Y-76995244D01*
X184764417Y-76932009D01*
X184562317Y-76900000D01*
X184357683Y-76900000D01*
X184155582Y-76932009D01*
X183960968Y-76995244D01*
X183778644Y-77088143D01*
X183734077Y-77120523D01*
X183734077Y-77120524D01*
X184413554Y-77800000D01*
X184407339Y-77800000D01*
X184305606Y-77827259D01*
X184214394Y-77879920D01*
X184139920Y-77954394D01*
X184087259Y-78045606D01*
X184060000Y-78147339D01*
X184060000Y-78153553D01*
X183380524Y-77474077D01*
X183380523Y-77474077D01*
X183348143Y-77518644D01*
X183255244Y-77700968D01*
X183192009Y-77895582D01*
X183160000Y-78097682D01*
X182638866Y-78097682D01*
X182652547Y-78070832D01*
X182710940Y-77891118D01*
X182721054Y-77827259D01*
X182740500Y-77704486D01*
X182740500Y-77515513D01*
X182710940Y-77328881D01*
X182671046Y-77206102D01*
X182652545Y-77149163D01*
X182581383Y-77009500D01*
X182566760Y-76980801D01*
X182455690Y-76827927D01*
X182322073Y-76694310D01*
X182169199Y-76583240D01*
X182000836Y-76497454D01*
X181821118Y-76439059D01*
X181634486Y-76409500D01*
X181634481Y-76409500D01*
X181445519Y-76409500D01*
X181445514Y-76409500D01*
X181258881Y-76439059D01*
X181079163Y-76497454D01*
X180910800Y-76583240D01*
X180835392Y-76638028D01*
X180757927Y-76694310D01*
X180757925Y-76694312D01*
X180757924Y-76694312D01*
X180624312Y-76827924D01*
X180624312Y-76827925D01*
X180624310Y-76827927D01*
X180529526Y-76958386D01*
X180474196Y-77001051D01*
X180429208Y-77009500D01*
X178821409Y-77009500D01*
X178765114Y-76995985D01*
X178555996Y-76889433D01*
X178331368Y-76816446D01*
X178098097Y-76779500D01*
X178098092Y-76779500D01*
X177861908Y-76779500D01*
X177861903Y-76779500D01*
X177628631Y-76816446D01*
X177404003Y-76889433D01*
X177193566Y-76996657D01*
X177110047Y-77057338D01*
X177002490Y-77135483D01*
X177002488Y-77135485D01*
X177002487Y-77135485D01*
X176835485Y-77302487D01*
X176835485Y-77302488D01*
X176835483Y-77302490D01*
X176798941Y-77352786D01*
X176696657Y-77493566D01*
X176589433Y-77704003D01*
X176516446Y-77928631D01*
X176479500Y-78161902D01*
X176479500Y-78398097D01*
X176516446Y-78631368D01*
X176589433Y-78855996D01*
X176674295Y-79022545D01*
X176696657Y-79066433D01*
X176835483Y-79257510D01*
X177002490Y-79424517D01*
X177110042Y-79502658D01*
X177193568Y-79563344D01*
X177268177Y-79601358D01*
X177311794Y-79623582D01*
X177362590Y-79671556D01*
X177379500Y-79734067D01*
X177379500Y-83325931D01*
X177359815Y-83392970D01*
X177311796Y-83436415D01*
X177193568Y-83496655D01*
X177076282Y-83581870D01*
X177002490Y-83635483D01*
X177002488Y-83635485D01*
X177002487Y-83635485D01*
X176835485Y-83802487D01*
X176835485Y-83802488D01*
X176835483Y-83802490D01*
X176801328Y-83849500D01*
X176696657Y-83993566D01*
X176589433Y-84204003D01*
X176516446Y-84428631D01*
X176479500Y-84661902D01*
X176479500Y-84898097D01*
X176516447Y-85131369D01*
X176516447Y-85131372D01*
X176557450Y-85257564D01*
X176559445Y-85327405D01*
X176527200Y-85383563D01*
X174637584Y-87273181D01*
X174576261Y-87306666D01*
X174549903Y-87309500D01*
X173510792Y-87309500D01*
X173443753Y-87289815D01*
X173410474Y-87258386D01*
X173315690Y-87127927D01*
X173182073Y-86994310D01*
X173029199Y-86883240D01*
X173005734Y-86871284D01*
X172860836Y-86797454D01*
X172681118Y-86739059D01*
X172494486Y-86709500D01*
X172494481Y-86709500D01*
X172305519Y-86709500D01*
X172305514Y-86709500D01*
X172118881Y-86739059D01*
X171939163Y-86797454D01*
X171770800Y-86883240D01*
X171724041Y-86917213D01*
X171617927Y-86994310D01*
X171617925Y-86994312D01*
X171617924Y-86994312D01*
X171484312Y-87127924D01*
X171484312Y-87127925D01*
X171484310Y-87127927D01*
X171444817Y-87182284D01*
X171373240Y-87280800D01*
X171287454Y-87449163D01*
X171229059Y-87628881D01*
X171199500Y-87815513D01*
X170360500Y-87815513D01*
X170330940Y-87628881D01*
X170272545Y-87449163D01*
X170198823Y-87304477D01*
X170186760Y-87280801D01*
X170075690Y-87127927D01*
X169942073Y-86994310D01*
X169789199Y-86883240D01*
X169765734Y-86871284D01*
X169620836Y-86797454D01*
X169441118Y-86739059D01*
X169254486Y-86709500D01*
X169254481Y-86709500D01*
X169065519Y-86709500D01*
X169065514Y-86709500D01*
X168878881Y-86739059D01*
X168699163Y-86797454D01*
X168530800Y-86883240D01*
X168484041Y-86917213D01*
X168377927Y-86994310D01*
X168377925Y-86994312D01*
X168377924Y-86994312D01*
X168244312Y-87127924D01*
X168244312Y-87127925D01*
X168244310Y-87127927D01*
X168204815Y-87182287D01*
X168149526Y-87258386D01*
X168145193Y-87261726D01*
X168142921Y-87266703D01*
X168117821Y-87282833D01*
X168094196Y-87301051D01*
X168087524Y-87302303D01*
X168084143Y-87304477D01*
X168049208Y-87309500D01*
X168005097Y-87309500D01*
X167938058Y-87289815D01*
X167917416Y-87273181D01*
X166027798Y-85383563D01*
X165994313Y-85322240D01*
X165997547Y-85257566D01*
X166038553Y-85131368D01*
X166066057Y-84957713D01*
X166075500Y-84898097D01*
X166075500Y-84661902D01*
X166038553Y-84428631D01*
X165965566Y-84204003D01*
X165864319Y-84005296D01*
X165858343Y-83993567D01*
X165719517Y-83802490D01*
X165552510Y-83635483D01*
X165420400Y-83539499D01*
X165361431Y-83496655D01*
X165243204Y-83436415D01*
X165192409Y-83388441D01*
X165175500Y-83325931D01*
X165175500Y-79734067D01*
X165195185Y-79667028D01*
X165243205Y-79623582D01*
X165361433Y-79563343D01*
X165552510Y-79424517D01*
X165719517Y-79257510D01*
X165858343Y-79066433D01*
X165965568Y-78855992D01*
X166038553Y-78631368D01*
X166055291Y-78525687D01*
X166075500Y-78398097D01*
X166075500Y-78161902D01*
X167574500Y-78161902D01*
X167574500Y-78398097D01*
X167611446Y-78631368D01*
X167684433Y-78855996D01*
X167769295Y-79022545D01*
X167791657Y-79066433D01*
X167930483Y-79257510D01*
X168097490Y-79424517D01*
X168205042Y-79502658D01*
X168288568Y-79563344D01*
X168363177Y-79601358D01*
X168406794Y-79623582D01*
X168457590Y-79671556D01*
X168474500Y-79734067D01*
X168474500Y-83325931D01*
X168454815Y-83392970D01*
X168406796Y-83436415D01*
X168288568Y-83496655D01*
X168171282Y-83581870D01*
X168097490Y-83635483D01*
X168097488Y-83635485D01*
X168097487Y-83635485D01*
X167930485Y-83802487D01*
X167930485Y-83802488D01*
X167930483Y-83802490D01*
X167896328Y-83849500D01*
X167791657Y-83993566D01*
X167684433Y-84204003D01*
X167611446Y-84428631D01*
X167574500Y-84661902D01*
X167574500Y-84898097D01*
X167611446Y-85131368D01*
X167684433Y-85355996D01*
X167737692Y-85460521D01*
X167791657Y-85566433D01*
X167930483Y-85757510D01*
X168097490Y-85924517D01*
X168288567Y-86063343D01*
X168387991Y-86114002D01*
X168499003Y-86170566D01*
X168499005Y-86170566D01*
X168499008Y-86170568D01*
X168587476Y-86199313D01*
X168723631Y-86243553D01*
X168956903Y-86280500D01*
X168956908Y-86280500D01*
X169193097Y-86280500D01*
X169426368Y-86243553D01*
X169459468Y-86232798D01*
X169650992Y-86170568D01*
X169861433Y-86063343D01*
X170052510Y-85924517D01*
X170219517Y-85757510D01*
X170358343Y-85566433D01*
X170465568Y-85355992D01*
X170538553Y-85131368D01*
X170550006Y-85059057D01*
X170575500Y-84898097D01*
X170575500Y-84661902D01*
X170538553Y-84428631D01*
X170465566Y-84204003D01*
X170364319Y-84005296D01*
X170358343Y-83993567D01*
X170219517Y-83802490D01*
X170052510Y-83635483D01*
X169920400Y-83539499D01*
X169861431Y-83496655D01*
X169743204Y-83436415D01*
X169692409Y-83388441D01*
X169675500Y-83325931D01*
X169675500Y-79734067D01*
X169695185Y-79667028D01*
X169743205Y-79623582D01*
X169861433Y-79563343D01*
X170052510Y-79424517D01*
X170219517Y-79257510D01*
X170358343Y-79066433D01*
X170465568Y-78855992D01*
X170538553Y-78631368D01*
X170555291Y-78525687D01*
X170575500Y-78398097D01*
X170575500Y-78161902D01*
X171979500Y-78161902D01*
X171979500Y-78398097D01*
X172016446Y-78631368D01*
X172089433Y-78855996D01*
X172174295Y-79022545D01*
X172196657Y-79066433D01*
X172335483Y-79257510D01*
X172502490Y-79424517D01*
X172610042Y-79502658D01*
X172693568Y-79563344D01*
X172768177Y-79601358D01*
X172811794Y-79623582D01*
X172862590Y-79671556D01*
X172879500Y-79734067D01*
X172879500Y-83325931D01*
X172859815Y-83392970D01*
X172811796Y-83436415D01*
X172693568Y-83496655D01*
X172576282Y-83581870D01*
X172502490Y-83635483D01*
X172502488Y-83635485D01*
X172502487Y-83635485D01*
X172335485Y-83802487D01*
X172335485Y-83802488D01*
X172335483Y-83802490D01*
X172301328Y-83849500D01*
X172196657Y-83993566D01*
X172089433Y-84204003D01*
X172016446Y-84428631D01*
X171979500Y-84661902D01*
X171979500Y-84898097D01*
X172016446Y-85131368D01*
X172089433Y-85355996D01*
X172142692Y-85460521D01*
X172196657Y-85566433D01*
X172335483Y-85757510D01*
X172502490Y-85924517D01*
X172693567Y-86063343D01*
X172792991Y-86114002D01*
X172904003Y-86170566D01*
X172904005Y-86170566D01*
X172904008Y-86170568D01*
X172992476Y-86199313D01*
X173128631Y-86243553D01*
X173361903Y-86280500D01*
X173361908Y-86280500D01*
X173598097Y-86280500D01*
X173831368Y-86243553D01*
X173864468Y-86232798D01*
X174055992Y-86170568D01*
X174266433Y-86063343D01*
X174457510Y-85924517D01*
X174624517Y-85757510D01*
X174763343Y-85566433D01*
X174870568Y-85355992D01*
X174943553Y-85131368D01*
X174955006Y-85059057D01*
X174980500Y-84898097D01*
X174980500Y-84661902D01*
X174943553Y-84428631D01*
X174870566Y-84204003D01*
X174769319Y-84005296D01*
X174763343Y-83993567D01*
X174624517Y-83802490D01*
X174457510Y-83635483D01*
X174325400Y-83539499D01*
X174266431Y-83496655D01*
X174148204Y-83436415D01*
X174097409Y-83388441D01*
X174080500Y-83325931D01*
X174080500Y-79734067D01*
X174100185Y-79667028D01*
X174148205Y-79623582D01*
X174266433Y-79563343D01*
X174457510Y-79424517D01*
X174624517Y-79257510D01*
X174763343Y-79066433D01*
X174870568Y-78855992D01*
X174943553Y-78631368D01*
X174960291Y-78525687D01*
X174980500Y-78398097D01*
X174980500Y-78161902D01*
X174943553Y-77928631D01*
X174891192Y-77767482D01*
X174870568Y-77704008D01*
X174870566Y-77704005D01*
X174870566Y-77704003D01*
X174763477Y-77493830D01*
X174763343Y-77493567D01*
X174624517Y-77302490D01*
X174457510Y-77135483D01*
X174266433Y-76996657D01*
X174235312Y-76980800D01*
X174055996Y-76889433D01*
X173831368Y-76816446D01*
X173598097Y-76779500D01*
X173598092Y-76779500D01*
X173361908Y-76779500D01*
X173361903Y-76779500D01*
X173128631Y-76816446D01*
X172904003Y-76889433D01*
X172693566Y-76996657D01*
X172610047Y-77057338D01*
X172502490Y-77135483D01*
X172502488Y-77135485D01*
X172502487Y-77135485D01*
X172335485Y-77302487D01*
X172335485Y-77302488D01*
X172335483Y-77302490D01*
X172298941Y-77352786D01*
X172196657Y-77493566D01*
X172089433Y-77704003D01*
X172016446Y-77928631D01*
X171979500Y-78161902D01*
X170575500Y-78161902D01*
X170538553Y-77928631D01*
X170486192Y-77767482D01*
X170465568Y-77704008D01*
X170465566Y-77704005D01*
X170465566Y-77704003D01*
X170358477Y-77493830D01*
X170358343Y-77493567D01*
X170219517Y-77302490D01*
X170052510Y-77135483D01*
X169861433Y-76996657D01*
X169830312Y-76980800D01*
X169650996Y-76889433D01*
X169426368Y-76816446D01*
X169193097Y-76779500D01*
X169193092Y-76779500D01*
X168956908Y-76779500D01*
X168956903Y-76779500D01*
X168723631Y-76816446D01*
X168499003Y-76889433D01*
X168288566Y-76996657D01*
X168205047Y-77057338D01*
X168097490Y-77135483D01*
X168097488Y-77135485D01*
X168097487Y-77135485D01*
X167930485Y-77302487D01*
X167930485Y-77302488D01*
X167930483Y-77302490D01*
X167893941Y-77352786D01*
X167791657Y-77493566D01*
X167684433Y-77704003D01*
X167611446Y-77928631D01*
X167574500Y-78161902D01*
X166075500Y-78161902D01*
X166038553Y-77928631D01*
X165986192Y-77767482D01*
X165965568Y-77704008D01*
X165965566Y-77704005D01*
X165965566Y-77704003D01*
X165858477Y-77493830D01*
X165858343Y-77493567D01*
X165719517Y-77302490D01*
X165552510Y-77135483D01*
X165361433Y-76996657D01*
X165330312Y-76980800D01*
X165150996Y-76889433D01*
X164926368Y-76816446D01*
X164693097Y-76779500D01*
X164693092Y-76779500D01*
X164456908Y-76779500D01*
X164456903Y-76779500D01*
X164223631Y-76816446D01*
X163999003Y-76889433D01*
X163788566Y-76996657D01*
X163705047Y-77057338D01*
X163597490Y-77135483D01*
X163597488Y-77135485D01*
X163597487Y-77135485D01*
X163430485Y-77302487D01*
X163430485Y-77302488D01*
X163430483Y-77302490D01*
X163393941Y-77352786D01*
X163291657Y-77493566D01*
X163184433Y-77704003D01*
X163111446Y-77928631D01*
X163074500Y-78161902D01*
X161669993Y-78161902D01*
X161633065Y-77928752D01*
X161560102Y-77704197D01*
X161452914Y-77493828D01*
X161392658Y-77410894D01*
X161392658Y-77410893D01*
X160693787Y-78109765D01*
X160682518Y-78067708D01*
X160610110Y-77942292D01*
X160507708Y-77839890D01*
X160382292Y-77767482D01*
X160340234Y-77756212D01*
X161039105Y-77057340D01*
X161039104Y-77057338D01*
X160956174Y-76997087D01*
X160745802Y-76889897D01*
X160521247Y-76816934D01*
X160521248Y-76816934D01*
X160288052Y-76780000D01*
X160051948Y-76780000D01*
X159818752Y-76816934D01*
X159594197Y-76889897D01*
X159383830Y-76997084D01*
X159300894Y-77057340D01*
X159999766Y-77756212D01*
X159957708Y-77767482D01*
X159832292Y-77839890D01*
X159729890Y-77942292D01*
X159657482Y-78067708D01*
X159646212Y-78109766D01*
X158947340Y-77410894D01*
X158887084Y-77493830D01*
X158779897Y-77704197D01*
X158706934Y-77928752D01*
X158670000Y-78161947D01*
X157170500Y-78161947D01*
X157170500Y-78161902D01*
X157133553Y-77928631D01*
X157081192Y-77767482D01*
X157060568Y-77704008D01*
X157060566Y-77704005D01*
X157060566Y-77704003D01*
X156953477Y-77493830D01*
X156953343Y-77493567D01*
X156814517Y-77302490D01*
X156647510Y-77135483D01*
X156456433Y-76996657D01*
X156425312Y-76980800D01*
X156245996Y-76889433D01*
X156021368Y-76816446D01*
X155788097Y-76779500D01*
X155788092Y-76779500D01*
X155551908Y-76779500D01*
X155551903Y-76779500D01*
X155318631Y-76816446D01*
X155094003Y-76889433D01*
X154883566Y-76996657D01*
X154800047Y-77057338D01*
X154692490Y-77135483D01*
X154692488Y-77135485D01*
X154692487Y-77135485D01*
X154525485Y-77302487D01*
X154525485Y-77302488D01*
X154525483Y-77302490D01*
X154488941Y-77352786D01*
X154386657Y-77493566D01*
X154369292Y-77527648D01*
X154328855Y-77607011D01*
X154326417Y-77611795D01*
X154278442Y-77662591D01*
X154215932Y-77679500D01*
X153317478Y-77679500D01*
X153250439Y-77659815D01*
X153204684Y-77607011D01*
X153199547Y-77593819D01*
X153152547Y-77449168D01*
X153152545Y-77449165D01*
X153152545Y-77449163D01*
X153103438Y-77352786D01*
X153066760Y-77280801D01*
X152955690Y-77127927D01*
X152822073Y-76994310D01*
X152669199Y-76883240D01*
X152500836Y-76797454D01*
X152321118Y-76739059D01*
X152134486Y-76709500D01*
X152134481Y-76709500D01*
X151945519Y-76709500D01*
X151945514Y-76709500D01*
X151758881Y-76739059D01*
X151579163Y-76797454D01*
X151410800Y-76883240D01*
X151323579Y-76946610D01*
X151257927Y-76994310D01*
X151257925Y-76994312D01*
X151257924Y-76994312D01*
X151124312Y-77127924D01*
X151124312Y-77127925D01*
X151124310Y-77127927D01*
X151029526Y-77258386D01*
X150974196Y-77301051D01*
X150929208Y-77309500D01*
X142726670Y-77309500D01*
X142726654Y-77309499D01*
X142719058Y-77309499D01*
X142560943Y-77309499D01*
X142501355Y-77325466D01*
X142408214Y-77350423D01*
X142408209Y-77350426D01*
X142271290Y-77429475D01*
X142271282Y-77429481D01*
X139344842Y-80355921D01*
X139283519Y-80389406D01*
X139218848Y-80386173D01*
X139204534Y-80381522D01*
X139029995Y-80353878D01*
X139002352Y-80349500D01*
X138797648Y-80349500D01*
X138773329Y-80353351D01*
X138595465Y-80381522D01*
X138400776Y-80444781D01*
X138218386Y-80537715D01*
X138052786Y-80658028D01*
X137908028Y-80802786D01*
X137787715Y-80968386D01*
X137740485Y-81061080D01*
X137692510Y-81111876D01*
X137624689Y-81128671D01*
X137558554Y-81106134D01*
X137519515Y-81061080D01*
X137472420Y-80968652D01*
X137472287Y-80968390D01*
X137440092Y-80924077D01*
X137351971Y-80802786D01*
X137207213Y-80658028D01*
X137041613Y-80537715D01*
X137041612Y-80537714D01*
X137041610Y-80537713D01*
X136984653Y-80508691D01*
X136859223Y-80444781D01*
X136664534Y-80381522D01*
X136489995Y-80353878D01*
X136462352Y-80349500D01*
X136257648Y-80349500D01*
X136233329Y-80353351D01*
X136055465Y-80381522D01*
X135860776Y-80444781D01*
X135678386Y-80537715D01*
X135512786Y-80658028D01*
X135368028Y-80802786D01*
X135247715Y-80968386D01*
X135200485Y-81061080D01*
X135152510Y-81111876D01*
X135084689Y-81128671D01*
X135018554Y-81106134D01*
X134979515Y-81061080D01*
X134932420Y-80968652D01*
X134932287Y-80968390D01*
X134900092Y-80924077D01*
X134811971Y-80802786D01*
X134667213Y-80658028D01*
X134501613Y-80537715D01*
X134501612Y-80537714D01*
X134501610Y-80537713D01*
X134444653Y-80508691D01*
X134319223Y-80444781D01*
X134124534Y-80381522D01*
X133949995Y-80353878D01*
X133922352Y-80349500D01*
X133717648Y-80349500D01*
X133693329Y-80353351D01*
X133515465Y-80381522D01*
X133320776Y-80444781D01*
X133138386Y-80537715D01*
X132972786Y-80658028D01*
X132828028Y-80802786D01*
X132707715Y-80968386D01*
X132660485Y-81061080D01*
X132612510Y-81111876D01*
X132544689Y-81128671D01*
X132478554Y-81106134D01*
X132439515Y-81061080D01*
X132392420Y-80968652D01*
X132392287Y-80968390D01*
X132360092Y-80924077D01*
X132271971Y-80802786D01*
X132127213Y-80658028D01*
X131961613Y-80537715D01*
X131961612Y-80537714D01*
X131961610Y-80537713D01*
X131904653Y-80508691D01*
X131779223Y-80444781D01*
X131584534Y-80381522D01*
X131409995Y-80353878D01*
X131382352Y-80349500D01*
X131177648Y-80349500D01*
X131153329Y-80353351D01*
X130975465Y-80381522D01*
X130780776Y-80444781D01*
X130598386Y-80537715D01*
X130432786Y-80658028D01*
X130288028Y-80802786D01*
X130167713Y-80968388D01*
X130120203Y-81061630D01*
X130072228Y-81112426D01*
X130004407Y-81129220D01*
X129938272Y-81106682D01*
X129899234Y-81061628D01*
X129851861Y-80968652D01*
X129819474Y-80924077D01*
X129819474Y-80924076D01*
X129140000Y-81603551D01*
X129140000Y-81597339D01*
X129112741Y-81495606D01*
X129060080Y-81404394D01*
X128985606Y-81329920D01*
X128894394Y-81277259D01*
X128792661Y-81250000D01*
X128786446Y-81250000D01*
X129465922Y-80570524D01*
X129465921Y-80570523D01*
X129421359Y-80538147D01*
X129421350Y-80538141D01*
X129239031Y-80445244D01*
X129044417Y-80382009D01*
X128842317Y-80350000D01*
X128637683Y-80350000D01*
X128435582Y-80382009D01*
X128240968Y-80445244D01*
X128058644Y-80538143D01*
X128014077Y-80570523D01*
X128014077Y-80570524D01*
X128693554Y-81250000D01*
X128687339Y-81250000D01*
X128585606Y-81277259D01*
X128494394Y-81329920D01*
X128419920Y-81404394D01*
X128367259Y-81495606D01*
X128340000Y-81597339D01*
X128340000Y-81603553D01*
X127660524Y-80924077D01*
X127660523Y-80924077D01*
X127628143Y-80968644D01*
X127535244Y-81150968D01*
X127472009Y-81345582D01*
X127440000Y-81547682D01*
X127440000Y-81752317D01*
X127472009Y-81954417D01*
X127535244Y-82149031D01*
X127628141Y-82331350D01*
X127628147Y-82331359D01*
X127660523Y-82375921D01*
X127660524Y-82375922D01*
X128340000Y-81696446D01*
X128340000Y-81702661D01*
X128367259Y-81804394D01*
X128419920Y-81895606D01*
X128494394Y-81970080D01*
X128585606Y-82022741D01*
X128687339Y-82050000D01*
X128693553Y-82050000D01*
X128014076Y-82729474D01*
X128058650Y-82761859D01*
X128240968Y-82854755D01*
X128435582Y-82917990D01*
X128637683Y-82950000D01*
X128842317Y-82950000D01*
X129044417Y-82917990D01*
X129239031Y-82854755D01*
X129421349Y-82761859D01*
X129465921Y-82729474D01*
X128786447Y-82050000D01*
X128792661Y-82050000D01*
X128894394Y-82022741D01*
X128985606Y-81970080D01*
X129060080Y-81895606D01*
X129112741Y-81804394D01*
X129140000Y-81702661D01*
X129140000Y-81696447D01*
X129819474Y-82375921D01*
X129851861Y-82331347D01*
X129851861Y-82331346D01*
X129899234Y-82238371D01*
X129947208Y-82187575D01*
X130015028Y-82170779D01*
X130081164Y-82193316D01*
X130120203Y-82238369D01*
X130167713Y-82331611D01*
X130288028Y-82497213D01*
X130432786Y-82641971D01*
X130553226Y-82729474D01*
X130598390Y-82762287D01*
X130695698Y-82811868D01*
X130780776Y-82855218D01*
X130780778Y-82855218D01*
X130780781Y-82855220D01*
X130885137Y-82889127D01*
X130975465Y-82918477D01*
X131076557Y-82934488D01*
X131177648Y-82950500D01*
X131177649Y-82950500D01*
X131382351Y-82950500D01*
X131382352Y-82950500D01*
X131584534Y-82918477D01*
X131779219Y-82855220D01*
X131961610Y-82762287D01*
X132074181Y-82680500D01*
X132127213Y-82641971D01*
X132127215Y-82641968D01*
X132127219Y-82641966D01*
X132271966Y-82497219D01*
X132271968Y-82497215D01*
X132271971Y-82497213D01*
X132392284Y-82331614D01*
X132392286Y-82331611D01*
X132392287Y-82331610D01*
X132439516Y-82238917D01*
X132487489Y-82188123D01*
X132555310Y-82171328D01*
X132621445Y-82193865D01*
X132660485Y-82238919D01*
X132707715Y-82331614D01*
X132828028Y-82497213D01*
X132972786Y-82641971D01*
X133093226Y-82729474D01*
X133138390Y-82762287D01*
X133235698Y-82811868D01*
X133320776Y-82855218D01*
X133320778Y-82855218D01*
X133320781Y-82855220D01*
X133425137Y-82889127D01*
X133515465Y-82918477D01*
X133616557Y-82934488D01*
X133717648Y-82950500D01*
X133717649Y-82950500D01*
X133922351Y-82950500D01*
X133922352Y-82950500D01*
X134124534Y-82918477D01*
X134138842Y-82913827D01*
X134208682Y-82911831D01*
X134264842Y-82944077D01*
X138929478Y-87608713D01*
X138929480Y-87608716D01*
X139041284Y-87720520D01*
X139083128Y-87744678D01*
X139092587Y-87753095D01*
X139104650Y-87772421D01*
X139120370Y-87788907D01*
X139122796Y-87801492D01*
X139129583Y-87812366D01*
X139129282Y-87835143D01*
X139133595Y-87857514D01*
X139128830Y-87869414D01*
X139128662Y-87882230D01*
X139116095Y-87901228D01*
X139107629Y-87922379D01*
X139097188Y-87929814D01*
X139090117Y-87940505D01*
X139069271Y-87949694D01*
X139050716Y-87962909D01*
X139034617Y-87964972D01*
X139026184Y-87968690D01*
X139016945Y-87967237D01*
X139007224Y-87968482D01*
X139007224Y-87969500D01*
X139002352Y-87969500D01*
X138797648Y-87969500D01*
X138773329Y-87973351D01*
X138595465Y-88001522D01*
X138400776Y-88064781D01*
X138218386Y-88157715D01*
X138052786Y-88278028D01*
X137908028Y-88422786D01*
X137787715Y-88588386D01*
X137740485Y-88681080D01*
X137692510Y-88731876D01*
X137624689Y-88748671D01*
X137558554Y-88726134D01*
X137519515Y-88681080D01*
X137497490Y-88637854D01*
X137472287Y-88588390D01*
X137415698Y-88510501D01*
X137351971Y-88422786D01*
X137207213Y-88278028D01*
X137041613Y-88157715D01*
X137041612Y-88157714D01*
X137041610Y-88157713D01*
X136981898Y-88127288D01*
X136859223Y-88064781D01*
X136664534Y-88001522D01*
X136489995Y-87973878D01*
X136462352Y-87969500D01*
X136257648Y-87969500D01*
X136233329Y-87973351D01*
X136055465Y-88001522D01*
X135860776Y-88064781D01*
X135678386Y-88157715D01*
X135512786Y-88278028D01*
X135368028Y-88422786D01*
X135247715Y-88588386D01*
X135200485Y-88681080D01*
X135152510Y-88731876D01*
X135084689Y-88748671D01*
X135018554Y-88726134D01*
X134979515Y-88681080D01*
X134957490Y-88637854D01*
X134932287Y-88588390D01*
X134875698Y-88510501D01*
X134811971Y-88422786D01*
X134667213Y-88278028D01*
X134501613Y-88157715D01*
X134501612Y-88157714D01*
X134501610Y-88157713D01*
X134441898Y-88127288D01*
X134319223Y-88064781D01*
X134124534Y-88001522D01*
X133949995Y-87973878D01*
X133922352Y-87969500D01*
X133717648Y-87969500D01*
X133693329Y-87973351D01*
X133515465Y-88001522D01*
X133320776Y-88064781D01*
X133138386Y-88157715D01*
X132972786Y-88278028D01*
X132828028Y-88422786D01*
X132707715Y-88588386D01*
X132660485Y-88681080D01*
X132612510Y-88731876D01*
X132544689Y-88748671D01*
X132478554Y-88726134D01*
X132439515Y-88681080D01*
X132417490Y-88637854D01*
X132392287Y-88588390D01*
X132335698Y-88510501D01*
X132271971Y-88422786D01*
X132127213Y-88278028D01*
X131961613Y-88157715D01*
X131961612Y-88157714D01*
X131961610Y-88157713D01*
X131901898Y-88127288D01*
X131779223Y-88064781D01*
X131584534Y-88001522D01*
X131409995Y-87973878D01*
X131382352Y-87969500D01*
X131177648Y-87969500D01*
X131153329Y-87973351D01*
X130975465Y-88001522D01*
X130780776Y-88064781D01*
X130598386Y-88157715D01*
X130432786Y-88278028D01*
X130288032Y-88422782D01*
X130288029Y-88422786D01*
X130219978Y-88516451D01*
X130164648Y-88559117D01*
X130095035Y-88565096D01*
X130033240Y-88532490D01*
X130001954Y-88482570D01*
X129974814Y-88400666D01*
X129882712Y-88251344D01*
X129758656Y-88127288D01*
X129634206Y-88050527D01*
X129609336Y-88035187D01*
X129609331Y-88035185D01*
X129607862Y-88034698D01*
X129442797Y-87980001D01*
X129442795Y-87980000D01*
X129340010Y-87969500D01*
X128139998Y-87969500D01*
X128139981Y-87969501D01*
X128037203Y-87980000D01*
X128037200Y-87980001D01*
X127870668Y-88035185D01*
X127870663Y-88035187D01*
X127721342Y-88127289D01*
X127597289Y-88251342D01*
X127505187Y-88400663D01*
X127505185Y-88400668D01*
X127495453Y-88430037D01*
X127450001Y-88567203D01*
X127450001Y-88567204D01*
X127450000Y-88567204D01*
X127439500Y-88669983D01*
X127439500Y-89870001D01*
X127439501Y-89870018D01*
X127450000Y-89972796D01*
X127450001Y-89972799D01*
X127479546Y-90061958D01*
X127505186Y-90139334D01*
X127597288Y-90288656D01*
X127721344Y-90412712D01*
X127870666Y-90504814D01*
X128037203Y-90559999D01*
X128068610Y-90563207D01*
X128133301Y-90589602D01*
X128168137Y-90633618D01*
X128172897Y-90643698D01*
X128180423Y-90671785D01*
X128209360Y-90721904D01*
X128211917Y-90726333D01*
X128211919Y-90726337D01*
X128259479Y-90808714D01*
X128259481Y-90808717D01*
X128378349Y-90927585D01*
X128378355Y-90927590D01*
X129158584Y-91707819D01*
X129192069Y-91769142D01*
X129187085Y-91838834D01*
X129145213Y-91894767D01*
X129079749Y-91919184D01*
X129070903Y-91919500D01*
X128132129Y-91919500D01*
X128132123Y-91919501D01*
X128072516Y-91925908D01*
X127937671Y-91976202D01*
X127937664Y-91976206D01*
X127822455Y-92062452D01*
X127822452Y-92062455D01*
X127736206Y-92177664D01*
X127736202Y-92177671D01*
X127685908Y-92312517D01*
X127679501Y-92372116D01*
X127679500Y-92372135D01*
X127679500Y-94167870D01*
X127679501Y-94167876D01*
X127685908Y-94227483D01*
X127736202Y-94362328D01*
X127736206Y-94362335D01*
X127822452Y-94477544D01*
X127822455Y-94477547D01*
X127937664Y-94563793D01*
X127937671Y-94563797D01*
X127958354Y-94571511D01*
X128072517Y-94614091D01*
X128132127Y-94620500D01*
X128305500Y-94620499D01*
X128372539Y-94640183D01*
X128418294Y-94692987D01*
X128429500Y-94744499D01*
X128429500Y-95759902D01*
X128409815Y-95826941D01*
X128393181Y-95847583D01*
X128000830Y-96239933D01*
X127939507Y-96273418D01*
X127893751Y-96274725D01*
X127734486Y-96249500D01*
X127734481Y-96249500D01*
X127545519Y-96249500D01*
X127545514Y-96249500D01*
X127358881Y-96279059D01*
X127179163Y-96337454D01*
X127010800Y-96423240D01*
X126979941Y-96445661D01*
X126857927Y-96534310D01*
X126857925Y-96534312D01*
X126857924Y-96534312D01*
X126724312Y-96667924D01*
X126724312Y-96667925D01*
X126724310Y-96667927D01*
X126684695Y-96722452D01*
X126613240Y-96820800D01*
X126527454Y-96989163D01*
X126469059Y-97168881D01*
X126439500Y-97355513D01*
X123000500Y-97355513D01*
X123000500Y-77527682D01*
X126930000Y-77527682D01*
X126930000Y-77732317D01*
X126962009Y-77934417D01*
X127025244Y-78129031D01*
X127118141Y-78311350D01*
X127118147Y-78311359D01*
X127150523Y-78355921D01*
X127150524Y-78355922D01*
X127830000Y-77676446D01*
X127830000Y-77682661D01*
X127857259Y-77784394D01*
X127909920Y-77875606D01*
X127984394Y-77950080D01*
X128075606Y-78002741D01*
X128177339Y-78030000D01*
X128183553Y-78030000D01*
X127504076Y-78709474D01*
X127548650Y-78741859D01*
X127730968Y-78834755D01*
X127925582Y-78897990D01*
X128127683Y-78930000D01*
X128332317Y-78930000D01*
X128534417Y-78897990D01*
X128729031Y-78834755D01*
X128911349Y-78741859D01*
X128955921Y-78709474D01*
X128276447Y-78030000D01*
X128282661Y-78030000D01*
X128384394Y-78002741D01*
X128475606Y-77950080D01*
X128550080Y-77875606D01*
X128602741Y-77784394D01*
X128630000Y-77682661D01*
X128630000Y-77676448D01*
X129309474Y-78355922D01*
X129309474Y-78355921D01*
X129341859Y-78311349D01*
X129434755Y-78129031D01*
X129497990Y-77934417D01*
X129530000Y-77732317D01*
X129530000Y-77527682D01*
X129529995Y-77527648D01*
X131929500Y-77527648D01*
X131929500Y-77732351D01*
X131961522Y-77934534D01*
X132024781Y-78129223D01*
X132076225Y-78230185D01*
X132117585Y-78311359D01*
X132117715Y-78311613D01*
X132238028Y-78477213D01*
X132382786Y-78621971D01*
X132521217Y-78722545D01*
X132548390Y-78742287D01*
X132624251Y-78780940D01*
X132730776Y-78835218D01*
X132730778Y-78835218D01*
X132730781Y-78835220D01*
X132794126Y-78855802D01*
X132925465Y-78898477D01*
X132961485Y-78904182D01*
X133127648Y-78930500D01*
X133127649Y-78930500D01*
X133332351Y-78930500D01*
X133332352Y-78930500D01*
X133534534Y-78898477D01*
X133729219Y-78835220D01*
X133911610Y-78742287D01*
X134056857Y-78636760D01*
X134077213Y-78621971D01*
X134077215Y-78621968D01*
X134077219Y-78621966D01*
X134221966Y-78477219D01*
X134221968Y-78477215D01*
X134221971Y-78477213D01*
X134283828Y-78392073D01*
X134342287Y-78311610D01*
X134435220Y-78129219D01*
X134498477Y-77934534D01*
X134530500Y-77732352D01*
X134530500Y-77527648D01*
X134514952Y-77429481D01*
X134498477Y-77325465D01*
X134441194Y-77149168D01*
X134435220Y-77130781D01*
X134435218Y-77130778D01*
X134435218Y-77130776D01*
X134367099Y-76997087D01*
X134342287Y-76948390D01*
X134310092Y-76904077D01*
X134221971Y-76782786D01*
X134077213Y-76638028D01*
X133911613Y-76517715D01*
X133911612Y-76517714D01*
X133911610Y-76517713D01*
X133854653Y-76488691D01*
X133729223Y-76424781D01*
X133534534Y-76361522D01*
X133359995Y-76333878D01*
X133332352Y-76329500D01*
X133127648Y-76329500D01*
X133103329Y-76333351D01*
X132925465Y-76361522D01*
X132730776Y-76424781D01*
X132548386Y-76517715D01*
X132382786Y-76638028D01*
X132238028Y-76782786D01*
X132117715Y-76948386D01*
X132024781Y-77130776D01*
X131961522Y-77325465D01*
X131929500Y-77527648D01*
X129529995Y-77527648D01*
X129497990Y-77325582D01*
X129434755Y-77130968D01*
X129341859Y-76948650D01*
X129309474Y-76904077D01*
X129309474Y-76904076D01*
X128630000Y-77583551D01*
X128630000Y-77577339D01*
X128602741Y-77475606D01*
X128550080Y-77384394D01*
X128475606Y-77309920D01*
X128384394Y-77257259D01*
X128282661Y-77230000D01*
X128276446Y-77230000D01*
X128955922Y-76550524D01*
X128955921Y-76550523D01*
X128911359Y-76518147D01*
X128911350Y-76518141D01*
X128729031Y-76425244D01*
X128534417Y-76362009D01*
X128332317Y-76330000D01*
X128127683Y-76330000D01*
X127925582Y-76362009D01*
X127730968Y-76425244D01*
X127548644Y-76518143D01*
X127504077Y-76550523D01*
X127504077Y-76550524D01*
X128183554Y-77230000D01*
X128177339Y-77230000D01*
X128075606Y-77257259D01*
X127984394Y-77309920D01*
X127909920Y-77384394D01*
X127857259Y-77475606D01*
X127830000Y-77577339D01*
X127830000Y-77583553D01*
X127150524Y-76904077D01*
X127150523Y-76904077D01*
X127118143Y-76948644D01*
X127025244Y-77130968D01*
X126962009Y-77325582D01*
X126930000Y-77527682D01*
X123000500Y-77527682D01*
X123000500Y-75374500D01*
X123020185Y-75307461D01*
X123072989Y-75261706D01*
X123124500Y-75250500D01*
X191035500Y-75250500D01*
X191102539Y-75270185D01*
G37*
%TD.AperFunction*%
%TD*%
M02*
