%TF.GenerationSoftware,KiCad,Pcbnew,9.0.9-9.0.9~ubuntu24.04.1*%
%TF.CreationDate,2026-09-20T21:50:12-04:00*%
%TF.ProjectId,shift-register-control-panel,73686966-742d-4726-9567-69737465722d,rev?*%
%TF.SameCoordinates,Original*%
%TF.FileFunction,Legend,Top*%
%TF.FilePolarity,Positive*%
%FSLAX46Y46*%
G04 Gerber Fmt 4.6, Leading zero omitted, Abs format (unit mm)*
G04 Created by KiCad (PCBNEW 9.0.9-9.0.9~ubuntu24.04.1) date 2026-09-20 21:50:12*
%MOMM*%
%LPD*%
G01*
G04 APERTURE LIST*
%ADD10C,0.100000*%
%ADD11C,0.150000*%
%ADD12C,0.120000*%
G04 APERTURE END LIST*
D10*
X166333333Y-97359580D02*
X166285714Y-97407200D01*
X166285714Y-97407200D02*
X166142857Y-97454819D01*
X166142857Y-97454819D02*
X166047619Y-97454819D01*
X166047619Y-97454819D02*
X165904762Y-97407200D01*
X165904762Y-97407200D02*
X165809524Y-97311961D01*
X165809524Y-97311961D02*
X165761905Y-97216723D01*
X165761905Y-97216723D02*
X165714286Y-97026247D01*
X165714286Y-97026247D02*
X165714286Y-96883390D01*
X165714286Y-96883390D02*
X165761905Y-96692914D01*
X165761905Y-96692914D02*
X165809524Y-96597676D01*
X165809524Y-96597676D02*
X165904762Y-96502438D01*
X165904762Y-96502438D02*
X166047619Y-96454819D01*
X166047619Y-96454819D02*
X166142857Y-96454819D01*
X166142857Y-96454819D02*
X166285714Y-96502438D01*
X166285714Y-96502438D02*
X166333333Y-96550057D01*
X167285714Y-97454819D02*
X166714286Y-97454819D01*
X167000000Y-97454819D02*
X167000000Y-96454819D01*
X167000000Y-96454819D02*
X166904762Y-96597676D01*
X166904762Y-96597676D02*
X166809524Y-96692914D01*
X166809524Y-96692914D02*
X166714286Y-96740533D01*
X128054819Y-97416666D02*
X127578628Y-97749999D01*
X128054819Y-97988094D02*
X127054819Y-97988094D01*
X127054819Y-97988094D02*
X127054819Y-97607142D01*
X127054819Y-97607142D02*
X127102438Y-97511904D01*
X127102438Y-97511904D02*
X127150057Y-97464285D01*
X127150057Y-97464285D02*
X127245295Y-97416666D01*
X127245295Y-97416666D02*
X127388152Y-97416666D01*
X127388152Y-97416666D02*
X127483390Y-97464285D01*
X127483390Y-97464285D02*
X127531009Y-97511904D01*
X127531009Y-97511904D02*
X127578628Y-97607142D01*
X127578628Y-97607142D02*
X127578628Y-97988094D01*
X128054819Y-96464285D02*
X128054819Y-97035713D01*
X128054819Y-96749999D02*
X127054819Y-96749999D01*
X127054819Y-96749999D02*
X127197676Y-96845237D01*
X127197676Y-96845237D02*
X127292914Y-96940475D01*
X127292914Y-96940475D02*
X127340533Y-97035713D01*
X155874819Y-112538094D02*
X154874819Y-112538094D01*
X154874819Y-112538094D02*
X154874819Y-112299999D01*
X154874819Y-112299999D02*
X154922438Y-112157142D01*
X154922438Y-112157142D02*
X155017676Y-112061904D01*
X155017676Y-112061904D02*
X155112914Y-112014285D01*
X155112914Y-112014285D02*
X155303390Y-111966666D01*
X155303390Y-111966666D02*
X155446247Y-111966666D01*
X155446247Y-111966666D02*
X155636723Y-112014285D01*
X155636723Y-112014285D02*
X155731961Y-112061904D01*
X155731961Y-112061904D02*
X155827200Y-112157142D01*
X155827200Y-112157142D02*
X155874819Y-112299999D01*
X155874819Y-112299999D02*
X155874819Y-112538094D01*
X155208152Y-111109523D02*
X155874819Y-111109523D01*
X154827200Y-111347618D02*
X155541485Y-111585713D01*
X155541485Y-111585713D02*
X155541485Y-110966666D01*
X175854819Y-102011904D02*
X176664342Y-102011904D01*
X176664342Y-102011904D02*
X176759580Y-101964285D01*
X176759580Y-101964285D02*
X176807200Y-101916666D01*
X176807200Y-101916666D02*
X176854819Y-101821428D01*
X176854819Y-101821428D02*
X176854819Y-101630952D01*
X176854819Y-101630952D02*
X176807200Y-101535714D01*
X176807200Y-101535714D02*
X176759580Y-101488095D01*
X176759580Y-101488095D02*
X176664342Y-101440476D01*
X176664342Y-101440476D02*
X175854819Y-101440476D01*
X175950057Y-101011904D02*
X175902438Y-100964285D01*
X175902438Y-100964285D02*
X175854819Y-100869047D01*
X175854819Y-100869047D02*
X175854819Y-100630952D01*
X175854819Y-100630952D02*
X175902438Y-100535714D01*
X175902438Y-100535714D02*
X175950057Y-100488095D01*
X175950057Y-100488095D02*
X176045295Y-100440476D01*
X176045295Y-100440476D02*
X176140533Y-100440476D01*
X176140533Y-100440476D02*
X176283390Y-100488095D01*
X176283390Y-100488095D02*
X176854819Y-101059523D01*
X176854819Y-101059523D02*
X176854819Y-100440476D01*
X140654819Y-97416666D02*
X140178628Y-97749999D01*
X140654819Y-97988094D02*
X139654819Y-97988094D01*
X139654819Y-97988094D02*
X139654819Y-97607142D01*
X139654819Y-97607142D02*
X139702438Y-97511904D01*
X139702438Y-97511904D02*
X139750057Y-97464285D01*
X139750057Y-97464285D02*
X139845295Y-97416666D01*
X139845295Y-97416666D02*
X139988152Y-97416666D01*
X139988152Y-97416666D02*
X140083390Y-97464285D01*
X140083390Y-97464285D02*
X140131009Y-97511904D01*
X140131009Y-97511904D02*
X140178628Y-97607142D01*
X140178628Y-97607142D02*
X140178628Y-97988094D01*
X139654819Y-96511904D02*
X139654819Y-96988094D01*
X139654819Y-96988094D02*
X140131009Y-97035713D01*
X140131009Y-97035713D02*
X140083390Y-96988094D01*
X140083390Y-96988094D02*
X140035771Y-96892856D01*
X140035771Y-96892856D02*
X140035771Y-96654761D01*
X140035771Y-96654761D02*
X140083390Y-96559523D01*
X140083390Y-96559523D02*
X140131009Y-96511904D01*
X140131009Y-96511904D02*
X140226247Y-96464285D01*
X140226247Y-96464285D02*
X140464342Y-96464285D01*
X140464342Y-96464285D02*
X140559580Y-96511904D01*
X140559580Y-96511904D02*
X140607200Y-96559523D01*
X140607200Y-96559523D02*
X140654819Y-96654761D01*
X140654819Y-96654761D02*
X140654819Y-96892856D01*
X140654819Y-96892856D02*
X140607200Y-96988094D01*
X140607200Y-96988094D02*
X140559580Y-97035713D01*
X171774819Y-112468094D02*
X170774819Y-112468094D01*
X170774819Y-112468094D02*
X170774819Y-112229999D01*
X170774819Y-112229999D02*
X170822438Y-112087142D01*
X170822438Y-112087142D02*
X170917676Y-111991904D01*
X170917676Y-111991904D02*
X171012914Y-111944285D01*
X171012914Y-111944285D02*
X171203390Y-111896666D01*
X171203390Y-111896666D02*
X171346247Y-111896666D01*
X171346247Y-111896666D02*
X171536723Y-111944285D01*
X171536723Y-111944285D02*
X171631961Y-111991904D01*
X171631961Y-111991904D02*
X171727200Y-112087142D01*
X171727200Y-112087142D02*
X171774819Y-112229999D01*
X171774819Y-112229999D02*
X171774819Y-112468094D01*
X170774819Y-111039523D02*
X170774819Y-111229999D01*
X170774819Y-111229999D02*
X170822438Y-111325237D01*
X170822438Y-111325237D02*
X170870057Y-111372856D01*
X170870057Y-111372856D02*
X171012914Y-111468094D01*
X171012914Y-111468094D02*
X171203390Y-111515713D01*
X171203390Y-111515713D02*
X171584342Y-111515713D01*
X171584342Y-111515713D02*
X171679580Y-111468094D01*
X171679580Y-111468094D02*
X171727200Y-111420475D01*
X171727200Y-111420475D02*
X171774819Y-111325237D01*
X171774819Y-111325237D02*
X171774819Y-111134761D01*
X171774819Y-111134761D02*
X171727200Y-111039523D01*
X171727200Y-111039523D02*
X171679580Y-110991904D01*
X171679580Y-110991904D02*
X171584342Y-110944285D01*
X171584342Y-110944285D02*
X171346247Y-110944285D01*
X171346247Y-110944285D02*
X171251009Y-110991904D01*
X171251009Y-110991904D02*
X171203390Y-111039523D01*
X171203390Y-111039523D02*
X171155771Y-111134761D01*
X171155771Y-111134761D02*
X171155771Y-111325237D01*
X171155771Y-111325237D02*
X171203390Y-111420475D01*
X171203390Y-111420475D02*
X171251009Y-111468094D01*
X171251009Y-111468094D02*
X171346247Y-111515713D01*
X131664819Y-112418094D02*
X130664819Y-112418094D01*
X130664819Y-112418094D02*
X130664819Y-112179999D01*
X130664819Y-112179999D02*
X130712438Y-112037142D01*
X130712438Y-112037142D02*
X130807676Y-111941904D01*
X130807676Y-111941904D02*
X130902914Y-111894285D01*
X130902914Y-111894285D02*
X131093390Y-111846666D01*
X131093390Y-111846666D02*
X131236247Y-111846666D01*
X131236247Y-111846666D02*
X131426723Y-111894285D01*
X131426723Y-111894285D02*
X131521961Y-111941904D01*
X131521961Y-111941904D02*
X131617200Y-112037142D01*
X131617200Y-112037142D02*
X131664819Y-112179999D01*
X131664819Y-112179999D02*
X131664819Y-112418094D01*
X131664819Y-110894285D02*
X131664819Y-111465713D01*
X131664819Y-111179999D02*
X130664819Y-111179999D01*
X130664819Y-111179999D02*
X130807676Y-111275237D01*
X130807676Y-111275237D02*
X130902914Y-111370475D01*
X130902914Y-111370475D02*
X130950533Y-111465713D01*
X173954819Y-91892857D02*
X173478628Y-92226190D01*
X173954819Y-92464285D02*
X172954819Y-92464285D01*
X172954819Y-92464285D02*
X172954819Y-92083333D01*
X172954819Y-92083333D02*
X173002438Y-91988095D01*
X173002438Y-91988095D02*
X173050057Y-91940476D01*
X173050057Y-91940476D02*
X173145295Y-91892857D01*
X173145295Y-91892857D02*
X173288152Y-91892857D01*
X173288152Y-91892857D02*
X173383390Y-91940476D01*
X173383390Y-91940476D02*
X173431009Y-91988095D01*
X173431009Y-91988095D02*
X173478628Y-92083333D01*
X173478628Y-92083333D02*
X173478628Y-92464285D01*
X173954819Y-90940476D02*
X173954819Y-91511904D01*
X173954819Y-91226190D02*
X172954819Y-91226190D01*
X172954819Y-91226190D02*
X173097676Y-91321428D01*
X173097676Y-91321428D02*
X173192914Y-91416666D01*
X173192914Y-91416666D02*
X173240533Y-91511904D01*
X172954819Y-90321428D02*
X172954819Y-90226190D01*
X172954819Y-90226190D02*
X173002438Y-90130952D01*
X173002438Y-90130952D02*
X173050057Y-90083333D01*
X173050057Y-90083333D02*
X173145295Y-90035714D01*
X173145295Y-90035714D02*
X173335771Y-89988095D01*
X173335771Y-89988095D02*
X173573866Y-89988095D01*
X173573866Y-89988095D02*
X173764342Y-90035714D01*
X173764342Y-90035714D02*
X173859580Y-90083333D01*
X173859580Y-90083333D02*
X173907200Y-90130952D01*
X173907200Y-90130952D02*
X173954819Y-90226190D01*
X173954819Y-90226190D02*
X173954819Y-90321428D01*
X173954819Y-90321428D02*
X173907200Y-90416666D01*
X173907200Y-90416666D02*
X173859580Y-90464285D01*
X173859580Y-90464285D02*
X173764342Y-90511904D01*
X173764342Y-90511904D02*
X173573866Y-90559523D01*
X173573866Y-90559523D02*
X173335771Y-90559523D01*
X173335771Y-90559523D02*
X173145295Y-90511904D01*
X173145295Y-90511904D02*
X173050057Y-90464285D01*
X173050057Y-90464285D02*
X173002438Y-90416666D01*
X173002438Y-90416666D02*
X172954819Y-90321428D01*
X154157200Y-91285832D02*
X154204819Y-91142975D01*
X154204819Y-91142975D02*
X154204819Y-90904880D01*
X154204819Y-90904880D02*
X154157200Y-90809642D01*
X154157200Y-90809642D02*
X154109580Y-90762023D01*
X154109580Y-90762023D02*
X154014342Y-90714404D01*
X154014342Y-90714404D02*
X153919104Y-90714404D01*
X153919104Y-90714404D02*
X153823866Y-90762023D01*
X153823866Y-90762023D02*
X153776247Y-90809642D01*
X153776247Y-90809642D02*
X153728628Y-90904880D01*
X153728628Y-90904880D02*
X153681009Y-91095356D01*
X153681009Y-91095356D02*
X153633390Y-91190594D01*
X153633390Y-91190594D02*
X153585771Y-91238213D01*
X153585771Y-91238213D02*
X153490533Y-91285832D01*
X153490533Y-91285832D02*
X153395295Y-91285832D01*
X153395295Y-91285832D02*
X153300057Y-91238213D01*
X153300057Y-91238213D02*
X153252438Y-91190594D01*
X153252438Y-91190594D02*
X153204819Y-91095356D01*
X153204819Y-91095356D02*
X153204819Y-90857261D01*
X153204819Y-90857261D02*
X153252438Y-90714404D01*
X153204819Y-90381070D02*
X154204819Y-90142975D01*
X154204819Y-90142975D02*
X153490533Y-89952499D01*
X153490533Y-89952499D02*
X154204819Y-89762023D01*
X154204819Y-89762023D02*
X153204819Y-89523928D01*
X154204819Y-88619166D02*
X154204819Y-89190594D01*
X154204819Y-88904880D02*
X153204819Y-88904880D01*
X153204819Y-88904880D02*
X153347676Y-89000118D01*
X153347676Y-89000118D02*
X153442914Y-89095356D01*
X153442914Y-89095356D02*
X153490533Y-89190594D01*
X161914819Y-101218094D02*
X160914819Y-101218094D01*
X160914819Y-101218094D02*
X160914819Y-100979999D01*
X160914819Y-100979999D02*
X160962438Y-100837142D01*
X160962438Y-100837142D02*
X161057676Y-100741904D01*
X161057676Y-100741904D02*
X161152914Y-100694285D01*
X161152914Y-100694285D02*
X161343390Y-100646666D01*
X161343390Y-100646666D02*
X161486247Y-100646666D01*
X161486247Y-100646666D02*
X161676723Y-100694285D01*
X161676723Y-100694285D02*
X161771961Y-100741904D01*
X161771961Y-100741904D02*
X161867200Y-100837142D01*
X161867200Y-100837142D02*
X161914819Y-100979999D01*
X161914819Y-100979999D02*
X161914819Y-101218094D01*
X161914819Y-100170475D02*
X161914819Y-99979999D01*
X161914819Y-99979999D02*
X161867200Y-99884761D01*
X161867200Y-99884761D02*
X161819580Y-99837142D01*
X161819580Y-99837142D02*
X161676723Y-99741904D01*
X161676723Y-99741904D02*
X161486247Y-99694285D01*
X161486247Y-99694285D02*
X161105295Y-99694285D01*
X161105295Y-99694285D02*
X161010057Y-99741904D01*
X161010057Y-99741904D02*
X160962438Y-99789523D01*
X160962438Y-99789523D02*
X160914819Y-99884761D01*
X160914819Y-99884761D02*
X160914819Y-100075237D01*
X160914819Y-100075237D02*
X160962438Y-100170475D01*
X160962438Y-100170475D02*
X161010057Y-100218094D01*
X161010057Y-100218094D02*
X161105295Y-100265713D01*
X161105295Y-100265713D02*
X161343390Y-100265713D01*
X161343390Y-100265713D02*
X161438628Y-100218094D01*
X161438628Y-100218094D02*
X161486247Y-100170475D01*
X161486247Y-100170475D02*
X161533866Y-100075237D01*
X161533866Y-100075237D02*
X161533866Y-99884761D01*
X161533866Y-99884761D02*
X161486247Y-99789523D01*
X161486247Y-99789523D02*
X161438628Y-99741904D01*
X161438628Y-99741904D02*
X161343390Y-99694285D01*
X182941905Y-108074819D02*
X182941905Y-107074819D01*
X182941905Y-107074819D02*
X183180000Y-107074819D01*
X183180000Y-107074819D02*
X183322857Y-107122438D01*
X183322857Y-107122438D02*
X183418095Y-107217676D01*
X183418095Y-107217676D02*
X183465714Y-107312914D01*
X183465714Y-107312914D02*
X183513333Y-107503390D01*
X183513333Y-107503390D02*
X183513333Y-107646247D01*
X183513333Y-107646247D02*
X183465714Y-107836723D01*
X183465714Y-107836723D02*
X183418095Y-107931961D01*
X183418095Y-107931961D02*
X183322857Y-108027200D01*
X183322857Y-108027200D02*
X183180000Y-108074819D01*
X183180000Y-108074819D02*
X182941905Y-108074819D01*
X184084762Y-107503390D02*
X183989524Y-107455771D01*
X183989524Y-107455771D02*
X183941905Y-107408152D01*
X183941905Y-107408152D02*
X183894286Y-107312914D01*
X183894286Y-107312914D02*
X183894286Y-107265295D01*
X183894286Y-107265295D02*
X183941905Y-107170057D01*
X183941905Y-107170057D02*
X183989524Y-107122438D01*
X183989524Y-107122438D02*
X184084762Y-107074819D01*
X184084762Y-107074819D02*
X184275238Y-107074819D01*
X184275238Y-107074819D02*
X184370476Y-107122438D01*
X184370476Y-107122438D02*
X184418095Y-107170057D01*
X184418095Y-107170057D02*
X184465714Y-107265295D01*
X184465714Y-107265295D02*
X184465714Y-107312914D01*
X184465714Y-107312914D02*
X184418095Y-107408152D01*
X184418095Y-107408152D02*
X184370476Y-107455771D01*
X184370476Y-107455771D02*
X184275238Y-107503390D01*
X184275238Y-107503390D02*
X184084762Y-107503390D01*
X184084762Y-107503390D02*
X183989524Y-107551009D01*
X183989524Y-107551009D02*
X183941905Y-107598628D01*
X183941905Y-107598628D02*
X183894286Y-107693866D01*
X183894286Y-107693866D02*
X183894286Y-107884342D01*
X183894286Y-107884342D02*
X183941905Y-107979580D01*
X183941905Y-107979580D02*
X183989524Y-108027200D01*
X183989524Y-108027200D02*
X184084762Y-108074819D01*
X184084762Y-108074819D02*
X184275238Y-108074819D01*
X184275238Y-108074819D02*
X184370476Y-108027200D01*
X184370476Y-108027200D02*
X184418095Y-107979580D01*
X184418095Y-107979580D02*
X184465714Y-107884342D01*
X184465714Y-107884342D02*
X184465714Y-107693866D01*
X184465714Y-107693866D02*
X184418095Y-107598628D01*
X184418095Y-107598628D02*
X184370476Y-107551009D01*
X184370476Y-107551009D02*
X184275238Y-107503390D01*
X150904819Y-97206666D02*
X150428628Y-97539999D01*
X150904819Y-97778094D02*
X149904819Y-97778094D01*
X149904819Y-97778094D02*
X149904819Y-97397142D01*
X149904819Y-97397142D02*
X149952438Y-97301904D01*
X149952438Y-97301904D02*
X150000057Y-97254285D01*
X150000057Y-97254285D02*
X150095295Y-97206666D01*
X150095295Y-97206666D02*
X150238152Y-97206666D01*
X150238152Y-97206666D02*
X150333390Y-97254285D01*
X150333390Y-97254285D02*
X150381009Y-97301904D01*
X150381009Y-97301904D02*
X150428628Y-97397142D01*
X150428628Y-97397142D02*
X150428628Y-97778094D01*
X150333390Y-96635237D02*
X150285771Y-96730475D01*
X150285771Y-96730475D02*
X150238152Y-96778094D01*
X150238152Y-96778094D02*
X150142914Y-96825713D01*
X150142914Y-96825713D02*
X150095295Y-96825713D01*
X150095295Y-96825713D02*
X150000057Y-96778094D01*
X150000057Y-96778094D02*
X149952438Y-96730475D01*
X149952438Y-96730475D02*
X149904819Y-96635237D01*
X149904819Y-96635237D02*
X149904819Y-96444761D01*
X149904819Y-96444761D02*
X149952438Y-96349523D01*
X149952438Y-96349523D02*
X150000057Y-96301904D01*
X150000057Y-96301904D02*
X150095295Y-96254285D01*
X150095295Y-96254285D02*
X150142914Y-96254285D01*
X150142914Y-96254285D02*
X150238152Y-96301904D01*
X150238152Y-96301904D02*
X150285771Y-96349523D01*
X150285771Y-96349523D02*
X150333390Y-96444761D01*
X150333390Y-96444761D02*
X150333390Y-96635237D01*
X150333390Y-96635237D02*
X150381009Y-96730475D01*
X150381009Y-96730475D02*
X150428628Y-96778094D01*
X150428628Y-96778094D02*
X150523866Y-96825713D01*
X150523866Y-96825713D02*
X150714342Y-96825713D01*
X150714342Y-96825713D02*
X150809580Y-96778094D01*
X150809580Y-96778094D02*
X150857200Y-96730475D01*
X150857200Y-96730475D02*
X150904819Y-96635237D01*
X150904819Y-96635237D02*
X150904819Y-96444761D01*
X150904819Y-96444761D02*
X150857200Y-96349523D01*
X150857200Y-96349523D02*
X150809580Y-96301904D01*
X150809580Y-96301904D02*
X150714342Y-96254285D01*
X150714342Y-96254285D02*
X150523866Y-96254285D01*
X150523866Y-96254285D02*
X150428628Y-96301904D01*
X150428628Y-96301904D02*
X150381009Y-96349523D01*
X150381009Y-96349523D02*
X150333390Y-96444761D01*
X146954819Y-97416666D02*
X146478628Y-97749999D01*
X146954819Y-97988094D02*
X145954819Y-97988094D01*
X145954819Y-97988094D02*
X145954819Y-97607142D01*
X145954819Y-97607142D02*
X146002438Y-97511904D01*
X146002438Y-97511904D02*
X146050057Y-97464285D01*
X146050057Y-97464285D02*
X146145295Y-97416666D01*
X146145295Y-97416666D02*
X146288152Y-97416666D01*
X146288152Y-97416666D02*
X146383390Y-97464285D01*
X146383390Y-97464285D02*
X146431009Y-97511904D01*
X146431009Y-97511904D02*
X146478628Y-97607142D01*
X146478628Y-97607142D02*
X146478628Y-97988094D01*
X145954819Y-97083332D02*
X145954819Y-96416666D01*
X145954819Y-96416666D02*
X146954819Y-96845237D01*
X177274819Y-97183333D02*
X177989104Y-97183333D01*
X177989104Y-97183333D02*
X178131961Y-97230952D01*
X178131961Y-97230952D02*
X178227200Y-97326190D01*
X178227200Y-97326190D02*
X178274819Y-97469047D01*
X178274819Y-97469047D02*
X178274819Y-97564285D01*
X177370057Y-96754761D02*
X177322438Y-96707142D01*
X177322438Y-96707142D02*
X177274819Y-96611904D01*
X177274819Y-96611904D02*
X177274819Y-96373809D01*
X177274819Y-96373809D02*
X177322438Y-96278571D01*
X177322438Y-96278571D02*
X177370057Y-96230952D01*
X177370057Y-96230952D02*
X177465295Y-96183333D01*
X177465295Y-96183333D02*
X177560533Y-96183333D01*
X177560533Y-96183333D02*
X177703390Y-96230952D01*
X177703390Y-96230952D02*
X178274819Y-96802380D01*
X178274819Y-96802380D02*
X178274819Y-96183333D01*
X126634819Y-83451904D02*
X127444342Y-83451904D01*
X127444342Y-83451904D02*
X127539580Y-83404285D01*
X127539580Y-83404285D02*
X127587200Y-83356666D01*
X127587200Y-83356666D02*
X127634819Y-83261428D01*
X127634819Y-83261428D02*
X127634819Y-83070952D01*
X127634819Y-83070952D02*
X127587200Y-82975714D01*
X127587200Y-82975714D02*
X127539580Y-82928095D01*
X127539580Y-82928095D02*
X127444342Y-82880476D01*
X127444342Y-82880476D02*
X126634819Y-82880476D01*
X127634819Y-81880476D02*
X127634819Y-82451904D01*
X127634819Y-82166190D02*
X126634819Y-82166190D01*
X126634819Y-82166190D02*
X126777676Y-82261428D01*
X126777676Y-82261428D02*
X126872914Y-82356666D01*
X126872914Y-82356666D02*
X126920533Y-82451904D01*
X143804819Y-97416666D02*
X143328628Y-97749999D01*
X143804819Y-97988094D02*
X142804819Y-97988094D01*
X142804819Y-97988094D02*
X142804819Y-97607142D01*
X142804819Y-97607142D02*
X142852438Y-97511904D01*
X142852438Y-97511904D02*
X142900057Y-97464285D01*
X142900057Y-97464285D02*
X142995295Y-97416666D01*
X142995295Y-97416666D02*
X143138152Y-97416666D01*
X143138152Y-97416666D02*
X143233390Y-97464285D01*
X143233390Y-97464285D02*
X143281009Y-97511904D01*
X143281009Y-97511904D02*
X143328628Y-97607142D01*
X143328628Y-97607142D02*
X143328628Y-97988094D01*
X142804819Y-96559523D02*
X142804819Y-96749999D01*
X142804819Y-96749999D02*
X142852438Y-96845237D01*
X142852438Y-96845237D02*
X142900057Y-96892856D01*
X142900057Y-96892856D02*
X143042914Y-96988094D01*
X143042914Y-96988094D02*
X143233390Y-97035713D01*
X143233390Y-97035713D02*
X143614342Y-97035713D01*
X143614342Y-97035713D02*
X143709580Y-96988094D01*
X143709580Y-96988094D02*
X143757200Y-96940475D01*
X143757200Y-96940475D02*
X143804819Y-96845237D01*
X143804819Y-96845237D02*
X143804819Y-96654761D01*
X143804819Y-96654761D02*
X143757200Y-96559523D01*
X143757200Y-96559523D02*
X143709580Y-96511904D01*
X143709580Y-96511904D02*
X143614342Y-96464285D01*
X143614342Y-96464285D02*
X143376247Y-96464285D01*
X143376247Y-96464285D02*
X143281009Y-96511904D01*
X143281009Y-96511904D02*
X143233390Y-96559523D01*
X143233390Y-96559523D02*
X143185771Y-96654761D01*
X143185771Y-96654761D02*
X143185771Y-96845237D01*
X143185771Y-96845237D02*
X143233390Y-96940475D01*
X143233390Y-96940475D02*
X143281009Y-96988094D01*
X143281009Y-96988094D02*
X143376247Y-97035713D01*
X139670533Y-112488094D02*
X138670533Y-112488094D01*
X138670533Y-112488094D02*
X138670533Y-112249999D01*
X138670533Y-112249999D02*
X138718152Y-112107142D01*
X138718152Y-112107142D02*
X138813390Y-112011904D01*
X138813390Y-112011904D02*
X138908628Y-111964285D01*
X138908628Y-111964285D02*
X139099104Y-111916666D01*
X139099104Y-111916666D02*
X139241961Y-111916666D01*
X139241961Y-111916666D02*
X139432437Y-111964285D01*
X139432437Y-111964285D02*
X139527675Y-112011904D01*
X139527675Y-112011904D02*
X139622914Y-112107142D01*
X139622914Y-112107142D02*
X139670533Y-112249999D01*
X139670533Y-112249999D02*
X139670533Y-112488094D01*
X138765771Y-111535713D02*
X138718152Y-111488094D01*
X138718152Y-111488094D02*
X138670533Y-111392856D01*
X138670533Y-111392856D02*
X138670533Y-111154761D01*
X138670533Y-111154761D02*
X138718152Y-111059523D01*
X138718152Y-111059523D02*
X138765771Y-111011904D01*
X138765771Y-111011904D02*
X138861009Y-110964285D01*
X138861009Y-110964285D02*
X138956247Y-110964285D01*
X138956247Y-110964285D02*
X139099104Y-111011904D01*
X139099104Y-111011904D02*
X139670533Y-111583332D01*
X139670533Y-111583332D02*
X139670533Y-110964285D01*
X152954819Y-81392857D02*
X152478628Y-81726190D01*
X152954819Y-81964285D02*
X151954819Y-81964285D01*
X151954819Y-81964285D02*
X151954819Y-81583333D01*
X151954819Y-81583333D02*
X152002438Y-81488095D01*
X152002438Y-81488095D02*
X152050057Y-81440476D01*
X152050057Y-81440476D02*
X152145295Y-81392857D01*
X152145295Y-81392857D02*
X152288152Y-81392857D01*
X152288152Y-81392857D02*
X152383390Y-81440476D01*
X152383390Y-81440476D02*
X152431009Y-81488095D01*
X152431009Y-81488095D02*
X152478628Y-81583333D01*
X152478628Y-81583333D02*
X152478628Y-81964285D01*
X152954819Y-80440476D02*
X152954819Y-81011904D01*
X152954819Y-80726190D02*
X151954819Y-80726190D01*
X151954819Y-80726190D02*
X152097676Y-80821428D01*
X152097676Y-80821428D02*
X152192914Y-80916666D01*
X152192914Y-80916666D02*
X152240533Y-81011904D01*
X152050057Y-80059523D02*
X152002438Y-80011904D01*
X152002438Y-80011904D02*
X151954819Y-79916666D01*
X151954819Y-79916666D02*
X151954819Y-79678571D01*
X151954819Y-79678571D02*
X152002438Y-79583333D01*
X152002438Y-79583333D02*
X152050057Y-79535714D01*
X152050057Y-79535714D02*
X152145295Y-79488095D01*
X152145295Y-79488095D02*
X152240533Y-79488095D01*
X152240533Y-79488095D02*
X152383390Y-79535714D01*
X152383390Y-79535714D02*
X152954819Y-80107142D01*
X152954819Y-80107142D02*
X152954819Y-79488095D01*
X126874819Y-90833333D02*
X127589104Y-90833333D01*
X127589104Y-90833333D02*
X127731961Y-90880952D01*
X127731961Y-90880952D02*
X127827200Y-90976190D01*
X127827200Y-90976190D02*
X127874819Y-91119047D01*
X127874819Y-91119047D02*
X127874819Y-91214285D01*
X127874819Y-89833333D02*
X127874819Y-90404761D01*
X127874819Y-90119047D02*
X126874819Y-90119047D01*
X126874819Y-90119047D02*
X127017676Y-90214285D01*
X127017676Y-90214285D02*
X127112914Y-90309523D01*
X127112914Y-90309523D02*
X127160533Y-90404761D01*
X134354819Y-97416666D02*
X133878628Y-97749999D01*
X134354819Y-97988094D02*
X133354819Y-97988094D01*
X133354819Y-97988094D02*
X133354819Y-97607142D01*
X133354819Y-97607142D02*
X133402438Y-97511904D01*
X133402438Y-97511904D02*
X133450057Y-97464285D01*
X133450057Y-97464285D02*
X133545295Y-97416666D01*
X133545295Y-97416666D02*
X133688152Y-97416666D01*
X133688152Y-97416666D02*
X133783390Y-97464285D01*
X133783390Y-97464285D02*
X133831009Y-97511904D01*
X133831009Y-97511904D02*
X133878628Y-97607142D01*
X133878628Y-97607142D02*
X133878628Y-97988094D01*
X133354819Y-97083332D02*
X133354819Y-96464285D01*
X133354819Y-96464285D02*
X133735771Y-96797618D01*
X133735771Y-96797618D02*
X133735771Y-96654761D01*
X133735771Y-96654761D02*
X133783390Y-96559523D01*
X133783390Y-96559523D02*
X133831009Y-96511904D01*
X133831009Y-96511904D02*
X133926247Y-96464285D01*
X133926247Y-96464285D02*
X134164342Y-96464285D01*
X134164342Y-96464285D02*
X134259580Y-96511904D01*
X134259580Y-96511904D02*
X134307200Y-96559523D01*
X134307200Y-96559523D02*
X134354819Y-96654761D01*
X134354819Y-96654761D02*
X134354819Y-96940475D01*
X134354819Y-96940475D02*
X134307200Y-97035713D01*
X134307200Y-97035713D02*
X134259580Y-97083332D01*
X158043333Y-94954819D02*
X157710000Y-94478628D01*
X157471905Y-94954819D02*
X157471905Y-93954819D01*
X157471905Y-93954819D02*
X157852857Y-93954819D01*
X157852857Y-93954819D02*
X157948095Y-94002438D01*
X157948095Y-94002438D02*
X157995714Y-94050057D01*
X157995714Y-94050057D02*
X158043333Y-94145295D01*
X158043333Y-94145295D02*
X158043333Y-94288152D01*
X158043333Y-94288152D02*
X157995714Y-94383390D01*
X157995714Y-94383390D02*
X157948095Y-94431009D01*
X157948095Y-94431009D02*
X157852857Y-94478628D01*
X157852857Y-94478628D02*
X157471905Y-94478628D01*
X158519524Y-94954819D02*
X158710000Y-94954819D01*
X158710000Y-94954819D02*
X158805238Y-94907200D01*
X158805238Y-94907200D02*
X158852857Y-94859580D01*
X158852857Y-94859580D02*
X158948095Y-94716723D01*
X158948095Y-94716723D02*
X158995714Y-94526247D01*
X158995714Y-94526247D02*
X158995714Y-94145295D01*
X158995714Y-94145295D02*
X158948095Y-94050057D01*
X158948095Y-94050057D02*
X158900476Y-94002438D01*
X158900476Y-94002438D02*
X158805238Y-93954819D01*
X158805238Y-93954819D02*
X158614762Y-93954819D01*
X158614762Y-93954819D02*
X158519524Y-94002438D01*
X158519524Y-94002438D02*
X158471905Y-94050057D01*
X158471905Y-94050057D02*
X158424286Y-94145295D01*
X158424286Y-94145295D02*
X158424286Y-94383390D01*
X158424286Y-94383390D02*
X158471905Y-94478628D01*
X158471905Y-94478628D02*
X158519524Y-94526247D01*
X158519524Y-94526247D02*
X158614762Y-94573866D01*
X158614762Y-94573866D02*
X158805238Y-94573866D01*
X158805238Y-94573866D02*
X158900476Y-94526247D01*
X158900476Y-94526247D02*
X158948095Y-94478628D01*
X158948095Y-94478628D02*
X158995714Y-94383390D01*
X131204819Y-97416666D02*
X130728628Y-97749999D01*
X131204819Y-97988094D02*
X130204819Y-97988094D01*
X130204819Y-97988094D02*
X130204819Y-97607142D01*
X130204819Y-97607142D02*
X130252438Y-97511904D01*
X130252438Y-97511904D02*
X130300057Y-97464285D01*
X130300057Y-97464285D02*
X130395295Y-97416666D01*
X130395295Y-97416666D02*
X130538152Y-97416666D01*
X130538152Y-97416666D02*
X130633390Y-97464285D01*
X130633390Y-97464285D02*
X130681009Y-97511904D01*
X130681009Y-97511904D02*
X130728628Y-97607142D01*
X130728628Y-97607142D02*
X130728628Y-97988094D01*
X130300057Y-97035713D02*
X130252438Y-96988094D01*
X130252438Y-96988094D02*
X130204819Y-96892856D01*
X130204819Y-96892856D02*
X130204819Y-96654761D01*
X130204819Y-96654761D02*
X130252438Y-96559523D01*
X130252438Y-96559523D02*
X130300057Y-96511904D01*
X130300057Y-96511904D02*
X130395295Y-96464285D01*
X130395295Y-96464285D02*
X130490533Y-96464285D01*
X130490533Y-96464285D02*
X130633390Y-96511904D01*
X130633390Y-96511904D02*
X131204819Y-97083332D01*
X131204819Y-97083332D02*
X131204819Y-96464285D01*
X137504819Y-97416666D02*
X137028628Y-97749999D01*
X137504819Y-97988094D02*
X136504819Y-97988094D01*
X136504819Y-97988094D02*
X136504819Y-97607142D01*
X136504819Y-97607142D02*
X136552438Y-97511904D01*
X136552438Y-97511904D02*
X136600057Y-97464285D01*
X136600057Y-97464285D02*
X136695295Y-97416666D01*
X136695295Y-97416666D02*
X136838152Y-97416666D01*
X136838152Y-97416666D02*
X136933390Y-97464285D01*
X136933390Y-97464285D02*
X136981009Y-97511904D01*
X136981009Y-97511904D02*
X137028628Y-97607142D01*
X137028628Y-97607142D02*
X137028628Y-97988094D01*
X136838152Y-96559523D02*
X137504819Y-96559523D01*
X136457200Y-96797618D02*
X137171485Y-97035713D01*
X137171485Y-97035713D02*
X137171485Y-96416666D01*
X158157200Y-83083332D02*
X158204819Y-82940475D01*
X158204819Y-82940475D02*
X158204819Y-82702380D01*
X158204819Y-82702380D02*
X158157200Y-82607142D01*
X158157200Y-82607142D02*
X158109580Y-82559523D01*
X158109580Y-82559523D02*
X158014342Y-82511904D01*
X158014342Y-82511904D02*
X157919104Y-82511904D01*
X157919104Y-82511904D02*
X157823866Y-82559523D01*
X157823866Y-82559523D02*
X157776247Y-82607142D01*
X157776247Y-82607142D02*
X157728628Y-82702380D01*
X157728628Y-82702380D02*
X157681009Y-82892856D01*
X157681009Y-82892856D02*
X157633390Y-82988094D01*
X157633390Y-82988094D02*
X157585771Y-83035713D01*
X157585771Y-83035713D02*
X157490533Y-83083332D01*
X157490533Y-83083332D02*
X157395295Y-83083332D01*
X157395295Y-83083332D02*
X157300057Y-83035713D01*
X157300057Y-83035713D02*
X157252438Y-82988094D01*
X157252438Y-82988094D02*
X157204819Y-82892856D01*
X157204819Y-82892856D02*
X157204819Y-82654761D01*
X157204819Y-82654761D02*
X157252438Y-82511904D01*
X157204819Y-82178570D02*
X158204819Y-81940475D01*
X158204819Y-81940475D02*
X157490533Y-81749999D01*
X157490533Y-81749999D02*
X158204819Y-81559523D01*
X158204819Y-81559523D02*
X157204819Y-81321428D01*
X157538152Y-80511904D02*
X158204819Y-80511904D01*
X157157200Y-80749999D02*
X157871485Y-80988094D01*
X157871485Y-80988094D02*
X157871485Y-80369047D01*
X147754819Y-112558094D02*
X146754819Y-112558094D01*
X146754819Y-112558094D02*
X146754819Y-112319999D01*
X146754819Y-112319999D02*
X146802438Y-112177142D01*
X146802438Y-112177142D02*
X146897676Y-112081904D01*
X146897676Y-112081904D02*
X146992914Y-112034285D01*
X146992914Y-112034285D02*
X147183390Y-111986666D01*
X147183390Y-111986666D02*
X147326247Y-111986666D01*
X147326247Y-111986666D02*
X147516723Y-112034285D01*
X147516723Y-112034285D02*
X147611961Y-112081904D01*
X147611961Y-112081904D02*
X147707200Y-112177142D01*
X147707200Y-112177142D02*
X147754819Y-112319999D01*
X147754819Y-112319999D02*
X147754819Y-112558094D01*
X146754819Y-111653332D02*
X146754819Y-111034285D01*
X146754819Y-111034285D02*
X147135771Y-111367618D01*
X147135771Y-111367618D02*
X147135771Y-111224761D01*
X147135771Y-111224761D02*
X147183390Y-111129523D01*
X147183390Y-111129523D02*
X147231009Y-111081904D01*
X147231009Y-111081904D02*
X147326247Y-111034285D01*
X147326247Y-111034285D02*
X147564342Y-111034285D01*
X147564342Y-111034285D02*
X147659580Y-111081904D01*
X147659580Y-111081904D02*
X147707200Y-111129523D01*
X147707200Y-111129523D02*
X147754819Y-111224761D01*
X147754819Y-111224761D02*
X147754819Y-111510475D01*
X147754819Y-111510475D02*
X147707200Y-111605713D01*
X147707200Y-111605713D02*
X147659580Y-111653332D01*
X176157200Y-83083332D02*
X176204819Y-82940475D01*
X176204819Y-82940475D02*
X176204819Y-82702380D01*
X176204819Y-82702380D02*
X176157200Y-82607142D01*
X176157200Y-82607142D02*
X176109580Y-82559523D01*
X176109580Y-82559523D02*
X176014342Y-82511904D01*
X176014342Y-82511904D02*
X175919104Y-82511904D01*
X175919104Y-82511904D02*
X175823866Y-82559523D01*
X175823866Y-82559523D02*
X175776247Y-82607142D01*
X175776247Y-82607142D02*
X175728628Y-82702380D01*
X175728628Y-82702380D02*
X175681009Y-82892856D01*
X175681009Y-82892856D02*
X175633390Y-82988094D01*
X175633390Y-82988094D02*
X175585771Y-83035713D01*
X175585771Y-83035713D02*
X175490533Y-83083332D01*
X175490533Y-83083332D02*
X175395295Y-83083332D01*
X175395295Y-83083332D02*
X175300057Y-83035713D01*
X175300057Y-83035713D02*
X175252438Y-82988094D01*
X175252438Y-82988094D02*
X175204819Y-82892856D01*
X175204819Y-82892856D02*
X175204819Y-82654761D01*
X175204819Y-82654761D02*
X175252438Y-82511904D01*
X175204819Y-82178570D02*
X176204819Y-81940475D01*
X176204819Y-81940475D02*
X175490533Y-81749999D01*
X175490533Y-81749999D02*
X176204819Y-81559523D01*
X176204819Y-81559523D02*
X175204819Y-81321428D01*
X175300057Y-80988094D02*
X175252438Y-80940475D01*
X175252438Y-80940475D02*
X175204819Y-80845237D01*
X175204819Y-80845237D02*
X175204819Y-80607142D01*
X175204819Y-80607142D02*
X175252438Y-80511904D01*
X175252438Y-80511904D02*
X175300057Y-80464285D01*
X175300057Y-80464285D02*
X175395295Y-80416666D01*
X175395295Y-80416666D02*
X175490533Y-80416666D01*
X175490533Y-80416666D02*
X175633390Y-80464285D01*
X175633390Y-80464285D02*
X176204819Y-81035713D01*
X176204819Y-81035713D02*
X176204819Y-80416666D01*
X179944819Y-112468094D02*
X178944819Y-112468094D01*
X178944819Y-112468094D02*
X178944819Y-112229999D01*
X178944819Y-112229999D02*
X178992438Y-112087142D01*
X178992438Y-112087142D02*
X179087676Y-111991904D01*
X179087676Y-111991904D02*
X179182914Y-111944285D01*
X179182914Y-111944285D02*
X179373390Y-111896666D01*
X179373390Y-111896666D02*
X179516247Y-111896666D01*
X179516247Y-111896666D02*
X179706723Y-111944285D01*
X179706723Y-111944285D02*
X179801961Y-111991904D01*
X179801961Y-111991904D02*
X179897200Y-112087142D01*
X179897200Y-112087142D02*
X179944819Y-112229999D01*
X179944819Y-112229999D02*
X179944819Y-112468094D01*
X178944819Y-111563332D02*
X178944819Y-110896666D01*
X178944819Y-110896666D02*
X179944819Y-111325237D01*
X167407200Y-83083332D02*
X167454819Y-82940475D01*
X167454819Y-82940475D02*
X167454819Y-82702380D01*
X167454819Y-82702380D02*
X167407200Y-82607142D01*
X167407200Y-82607142D02*
X167359580Y-82559523D01*
X167359580Y-82559523D02*
X167264342Y-82511904D01*
X167264342Y-82511904D02*
X167169104Y-82511904D01*
X167169104Y-82511904D02*
X167073866Y-82559523D01*
X167073866Y-82559523D02*
X167026247Y-82607142D01*
X167026247Y-82607142D02*
X166978628Y-82702380D01*
X166978628Y-82702380D02*
X166931009Y-82892856D01*
X166931009Y-82892856D02*
X166883390Y-82988094D01*
X166883390Y-82988094D02*
X166835771Y-83035713D01*
X166835771Y-83035713D02*
X166740533Y-83083332D01*
X166740533Y-83083332D02*
X166645295Y-83083332D01*
X166645295Y-83083332D02*
X166550057Y-83035713D01*
X166550057Y-83035713D02*
X166502438Y-82988094D01*
X166502438Y-82988094D02*
X166454819Y-82892856D01*
X166454819Y-82892856D02*
X166454819Y-82654761D01*
X166454819Y-82654761D02*
X166502438Y-82511904D01*
X166454819Y-82178570D02*
X167454819Y-81940475D01*
X167454819Y-81940475D02*
X166740533Y-81749999D01*
X166740533Y-81749999D02*
X167454819Y-81559523D01*
X167454819Y-81559523D02*
X166454819Y-81321428D01*
X166454819Y-81035713D02*
X166454819Y-80416666D01*
X166454819Y-80416666D02*
X166835771Y-80749999D01*
X166835771Y-80749999D02*
X166835771Y-80607142D01*
X166835771Y-80607142D02*
X166883390Y-80511904D01*
X166883390Y-80511904D02*
X166931009Y-80464285D01*
X166931009Y-80464285D02*
X167026247Y-80416666D01*
X167026247Y-80416666D02*
X167264342Y-80416666D01*
X167264342Y-80416666D02*
X167359580Y-80464285D01*
X167359580Y-80464285D02*
X167407200Y-80511904D01*
X167407200Y-80511904D02*
X167454819Y-80607142D01*
X167454819Y-80607142D02*
X167454819Y-80892856D01*
X167454819Y-80892856D02*
X167407200Y-80988094D01*
X167407200Y-80988094D02*
X167359580Y-81035713D01*
X169454819Y-91892857D02*
X168978628Y-92226190D01*
X169454819Y-92464285D02*
X168454819Y-92464285D01*
X168454819Y-92464285D02*
X168454819Y-92083333D01*
X168454819Y-92083333D02*
X168502438Y-91988095D01*
X168502438Y-91988095D02*
X168550057Y-91940476D01*
X168550057Y-91940476D02*
X168645295Y-91892857D01*
X168645295Y-91892857D02*
X168788152Y-91892857D01*
X168788152Y-91892857D02*
X168883390Y-91940476D01*
X168883390Y-91940476D02*
X168931009Y-91988095D01*
X168931009Y-91988095D02*
X168978628Y-92083333D01*
X168978628Y-92083333D02*
X168978628Y-92464285D01*
X169454819Y-90940476D02*
X169454819Y-91511904D01*
X169454819Y-91226190D02*
X168454819Y-91226190D01*
X168454819Y-91226190D02*
X168597676Y-91321428D01*
X168597676Y-91321428D02*
X168692914Y-91416666D01*
X168692914Y-91416666D02*
X168740533Y-91511904D01*
X169454819Y-89988095D02*
X169454819Y-90559523D01*
X169454819Y-90273809D02*
X168454819Y-90273809D01*
X168454819Y-90273809D02*
X168597676Y-90369047D01*
X168597676Y-90369047D02*
X168692914Y-90464285D01*
X168692914Y-90464285D02*
X168740533Y-90559523D01*
D11*
%TO.C,D5*%
X157781570Y-114244061D02*
X160871570Y-114244061D01*
X157781740Y-114244061D02*
G75*
G02*
X159326570Y-108694061I1544830J2560000D01*
G01*
X159326570Y-108694061D02*
G75*
G02*
X160871400Y-114244061I0J-2990000D01*
G01*
X161826570Y-111684061D02*
G75*
G02*
X156826570Y-111684061I-2500000J0D01*
G01*
X156826570Y-111684061D02*
G75*
G02*
X161826570Y-111684061I2500000J0D01*
G01*
%TO.C,C1*%
X169120000Y-100750000D02*
G75*
G02*
X140818366Y-111700000I-2500000J0D01*
G01*
X140818366Y-111700000D02*
G75*
G02*
X145818366Y-111700000I2500000J0D01*
G01*
%TO.C,R1*%
X126680000Y-95330000D02*
X126680000Y-99170000D01*
X128520000Y-95330000D02*
X128520000Y-99170000D01*
%TO.C,D4*%
X149745856Y-114244061D02*
X152835856Y-114244061D01*
X149746026Y-114244061D02*
G75*
G02*
X151290856Y-108694061I1544830J2560000D01*
G01*
X151290856Y-108694061D02*
G75*
G02*
X152835686Y-114244061I0J-2990000D01*
G01*
X153790856Y-111684061D02*
G75*
G02*
X148790856Y-111684061I-2500000J0D01*
G01*
X148790856Y-111684061D02*
G75*
G02*
X153790856Y-111684061I2500000J0D01*
G01*
X141773366Y-114260000D02*
X144863366Y-114260000D01*
%TO.C,U2*%
X180550000Y-99390000D02*
X175930000Y-99390000D01*
X180550000Y-89170000D02*
X180550000Y-99390000D01*
X177310000Y-99390000D02*
X177310000Y-89170000D01*
X175930000Y-99390000D02*
X175930000Y-89170000D01*
X175930000Y-96130000D02*
X177310000Y-96130000D01*
X175930000Y-92430000D02*
X177310000Y-92430000D01*
X175930000Y-89170000D02*
X180550000Y-89170000D01*
%TO.C,R2*%
X129882857Y-98070000D02*
X129882857Y-101910000D01*
X131722857Y-98070000D02*
X131722857Y-101910000D01*
%TO.C,R3*%
X134885714Y-98070000D02*
X134885714Y-101910000D01*
X133045714Y-98070000D02*
X133045714Y-101910000D01*
%TO.C,R4*%
X138048571Y-98070000D02*
X138048571Y-101910000D01*
X136208571Y-98070000D02*
X136208571Y-101910000D01*
%TO.C,R5*%
X139280000Y-95330000D02*
X139280000Y-99170000D01*
X141120000Y-95330000D02*
X141120000Y-99170000D01*
%TO.C,D6*%
X165817284Y-114244061D02*
X168907284Y-114244061D01*
X165817454Y-114244061D02*
G75*
G02*
X167362284Y-108694061I1544830J2560000D01*
G01*
X167362284Y-108694061D02*
G75*
G02*
X168907114Y-114244061I0J-2990000D01*
G01*
X169862284Y-111684061D02*
G75*
G02*
X164862284Y-111684061I-2500000J0D01*
G01*
X164862284Y-111684061D02*
G75*
G02*
X169862284Y-111684061I2500000J0D01*
G01*
%TO.C,D1*%
X125638713Y-114244061D02*
X128728713Y-114244061D01*
X125638883Y-114244061D02*
G75*
G02*
X127183713Y-108694061I1544830J2560000D01*
G01*
X127183713Y-108694061D02*
G75*
G02*
X128728543Y-114244061I0J-2990000D01*
G01*
X129683713Y-111684061D02*
G75*
G02*
X124683713Y-111684061I-2500000J0D01*
G01*
X124683713Y-111684061D02*
G75*
G02*
X129683713Y-111684061I2500000J0D01*
G01*
X127350000Y-90600000D02*
X147910000Y-90600000D01*
X147910000Y-80320000D01*
X127350000Y-80320000D01*
X127350000Y-90600000D01*
X147850000Y-88110000D02*
X147850000Y-82810000D01*
X147850000Y-82810000D02*
X127410000Y-82810000D01*
X127410000Y-88110000D02*
X147850000Y-88110000D01*
X127410000Y-86460000D02*
X127410000Y-88110000D01*
X127410000Y-82810000D02*
X127410000Y-84460000D01*
%TO.C,J1*%
X148190000Y-94650000D02*
X148190000Y-91890000D01*
X130300000Y-94650000D02*
X148190000Y-94650000D01*
X130300000Y-94650000D02*
X130300000Y-91890000D01*
X130300000Y-91890000D02*
X148190000Y-91890000D01*
X129030000Y-94650000D02*
X127650000Y-94650000D01*
X127650000Y-94650000D02*
X127650000Y-93270000D01*
%TO.C,R12*%
X151120000Y-78530000D02*
X151120000Y-82370000D01*
X152960000Y-78530000D02*
X152960000Y-82370000D01*
%TO.C,R13*%
X173320000Y-88530000D02*
X173320000Y-92370000D01*
X171480000Y-88530000D02*
X171480000Y-92370000D01*
%TO.C,R11*%
X168240000Y-92370000D02*
X168240000Y-88530000D01*
X170080000Y-92370000D02*
X170080000Y-88530000D01*
%TO.C,R10*%
X180620000Y-78230000D02*
X180620000Y-82070000D01*
X182460000Y-78230000D02*
X182460000Y-82070000D01*
%TO.C,SW2*%
X176480000Y-78030000D02*
X174980000Y-78030000D01*
X172480000Y-79280000D02*
X172480000Y-83780000D01*
X178980000Y-83780000D02*
X178980000Y-79280000D01*
X174980000Y-85030000D02*
X176480000Y-85030000D01*
%TO.C,U3*%
X184570000Y-80520000D02*
X186390000Y-80520000D01*
X184570000Y-80570000D02*
X184570000Y-80520000D01*
X184570000Y-83640000D02*
X184570000Y-83590000D01*
X186390000Y-80520000D02*
X186390000Y-80570000D01*
X186390000Y-81690000D02*
X186390000Y-82470000D01*
X186390000Y-83590000D02*
X186390000Y-83640000D01*
X186390000Y-83640000D02*
X184570000Y-83640000D01*
X184030000Y-80570000D02*
X183790000Y-80240000D01*
X184270000Y-80240000D01*
X184030000Y-80570000D01*
G36*
X184030000Y-80570000D02*
G01*
X183790000Y-80240000D01*
X184270000Y-80240000D01*
X184030000Y-80570000D01*
G37*
%TO.C,D8*%
X181235000Y-114260000D02*
X184325000Y-114260000D01*
X181235170Y-114260000D02*
G75*
G02*
X182780000Y-108710000I1544830J2560000D01*
G01*
X182780000Y-108710000D02*
G75*
G02*
X184324830Y-114260000I0J-2990000D01*
G01*
X185280000Y-111700000D02*
G75*
G02*
X180280000Y-111700000I-2500000J0D01*
G01*
X180280000Y-111700000D02*
G75*
G02*
X185280000Y-111700000I2500000J0D01*
G01*
%TO.C,D7*%
X173342673Y-114260000D02*
X176432673Y-114260000D01*
X173342843Y-114260000D02*
G75*
G02*
X174887673Y-108710000I1544830J2560000D01*
G01*
X174887673Y-108710000D02*
G75*
G02*
X176432503Y-114260000I0J-2990000D01*
G01*
X177387673Y-111700000D02*
G75*
G02*
X172387673Y-111700000I-2500000J0D01*
G01*
X172387673Y-111700000D02*
G75*
G02*
X177387673Y-111700000I2500000J0D01*
G01*
%TO.C,D6*%
X165450347Y-114260000D02*
X168540347Y-114260000D01*
X165450517Y-114260000D02*
G75*
G02*
X166995347Y-108710000I1544830J2560000D01*
G01*
X166995347Y-108710000D02*
G75*
G02*
X168540177Y-114260000I0J-2990000D01*
G01*
X169495347Y-111700000D02*
G75*
G02*
X164495347Y-111700000I-2500000J0D01*
G01*
X164495347Y-111700000D02*
G75*
G02*
X169495347Y-111700000I2500000J0D01*
G01*
%TO.C,D5*%
X157558020Y-114260000D02*
X160648020Y-114260000D01*
X157558190Y-114260000D02*
G75*
G02*
X159103020Y-108710000I1544830J2560000D01*
G01*
X159103020Y-108710000D02*
G75*
G02*
X160647850Y-114260000I0J-2990000D01*
G01*
X161603020Y-111700000D02*
G75*
G02*
X156603020Y-111700000I-2500000J0D01*
G01*
X156603020Y-111700000D02*
G75*
G02*
X161603020Y-111700000I2500000J0D01*
G01*
%TO.C,D4*%
X149665693Y-114260000D02*
X152755693Y-114260000D01*
X149665863Y-114260000D02*
G75*
G02*
X151210693Y-108710000I1544830J2560000D01*
G01*
X151210693Y-108710000D02*
G75*
G02*
X152755523Y-114260000I0J-2990000D01*
G01*
X153710693Y-111700000D02*
G75*
G02*
X148710693Y-111700000I-2500000J0D01*
G01*
X148710693Y-111700000D02*
G75*
G02*
X153710693Y-111700000I2500000J0D01*
G01*
%TO.C,D2*%
X133881040Y-114260000D02*
X136971040Y-114260000D01*
X133881210Y-114260000D02*
G75*
G02*
X135426040Y-108710000I1544830J2560000D01*
G01*
X135426040Y-108710000D02*
G75*
G02*
X136970870Y-114260000I0J-2990000D01*
G01*
X137926040Y-111700000D02*
G75*
G02*
X132926040Y-111700000I-2500000J0D01*
G01*
X132926040Y-111700000D02*
G75*
G02*
X137926040Y-111700000I2500000J0D01*
G01*
%TO.C,C2*%
X189580000Y-79570000D02*
X184340000Y-79570000D01*
X189580000Y-79233000D02*
X189580000Y-79570000D01*
X189580000Y-76830000D02*
X189580000Y-77167000D01*
X184340000Y-79570000D02*
X184340000Y-79233000D01*
X184340000Y-77167000D02*
X184340000Y-76830000D01*
X184340000Y-76830000D02*
X189580000Y-76830000D01*
%TO.C,C1*%
X184440000Y-84700000D02*
X189680000Y-84700000D01*
X184440000Y-85037000D02*
X184440000Y-84700000D01*
X184440000Y-87440000D02*
X184440000Y-87103000D01*
X189680000Y-84700000D02*
X189680000Y-85037000D01*
X189680000Y-87103000D02*
X189680000Y-87440000D01*
X189680000Y-87440000D02*
X184440000Y-87440000D01*
%TO.C,D1*%
X130033713Y-111700000D02*
G75*
G02*
X125033713Y-111700000I-2500000J0D01*
G01*
X125033713Y-111700000D02*
G75*
G02*
X130033713Y-111700000I2500000J0D01*
G01*
X127533713Y-108710000D02*
G75*
G02*
X129078543Y-114260000I0J-2990000D01*
G01*
X125988883Y-114260000D02*
G75*
G02*
X127533713Y-108710000I1544830J2560000D01*
G01*
X125988713Y-114260000D02*
X129078713Y-114260000D01*
%TO.C,D9*%
X160340000Y-99250000D02*
G75*
G02*
X155340000Y-99250000I-2500000J0D01*
G01*
X155340000Y-99250000D02*
G75*
G02*
X160340000Y-99250000I2500000J0D01*
G01*
X159384830Y-96690000D02*
G75*
G02*
X157840000Y-102240000I-1544830J-2560000D01*
G01*
X157840000Y-102240000D02*
G75*
G02*
X156295170Y-96690000I0J2990000D01*
G01*
X159385000Y-96690000D02*
X156295000Y-96690000D01*
%TO.C,J2*%
X198360000Y-105740000D02*
X198360000Y-91120000D01*
X198360000Y-91120000D02*
X197840000Y-91120000D01*
X197840000Y-105740000D02*
X198360000Y-105740000D01*
X197840000Y-105090000D02*
X197840000Y-105740000D01*
X197840000Y-105090000D02*
X189730000Y-105090000D01*
X197840000Y-91120000D02*
X197840000Y-91770000D01*
X189730000Y-91770000D02*
X197840000Y-91770000D01*
X182880000Y-105090000D02*
X186210000Y-105090000D01*
X182880000Y-105090000D02*
X182880000Y-91770000D01*
X182880000Y-91770000D02*
X186210000Y-91770000D01*
X182660000Y-102830000D02*
X182660000Y-101030000D01*
%TO.C,R9*%
X160050000Y-95340000D02*
X156210000Y-95340000D01*
X160050000Y-93500000D02*
X156210000Y-93500000D01*
%TO.C,SW1*%
X164660000Y-92212500D02*
X155840000Y-92212500D01*
%TO.C,D9*%
X159045000Y-97920000D02*
X155955000Y-97920000D01*
X157500000Y-103470000D02*
G75*
G02*
X155955170Y-97920000I0J2990000D01*
G01*
X159044830Y-97920000D02*
G75*
G02*
X157500000Y-103470000I-1544830J-2560000D01*
G01*
X160000000Y-100480000D02*
G75*
G02*
X155000000Y-100480000I-2500000J0D01*
G01*
X155000000Y-100480000D02*
G75*
G02*
X160000000Y-100480000I2500000J0D01*
G01*
%TO.C,D8*%
X181888713Y-114244061D02*
X184978713Y-114244061D01*
X181888883Y-114244061D02*
G75*
G02*
X183433713Y-108694061I1544830J2560000D01*
G01*
X183433713Y-108694061D02*
G75*
G02*
X184978543Y-114244061I0J-2990000D01*
G01*
X185933713Y-111684061D02*
G75*
G02*
X180933713Y-111684061I-2500000J0D01*
G01*
X180933713Y-111684061D02*
G75*
G02*
X185933713Y-111684061I2500000J0D01*
G01*
%TO.C,R8*%
X149530000Y-95120000D02*
X149530000Y-98960000D01*
X151370000Y-95120000D02*
X151370000Y-98960000D01*
%TO.C,R7*%
X145580000Y-95330000D02*
X145580000Y-99170000D01*
X147420000Y-95330000D02*
X147420000Y-99170000D01*
%TO.C,J2*%
X178410000Y-101250000D02*
X178410000Y-99450000D01*
X178630000Y-90190000D02*
X181960000Y-90190000D01*
X178630000Y-103510000D02*
X178630000Y-90190000D01*
X178630000Y-103510000D02*
X181960000Y-103510000D01*
X185480000Y-90190000D02*
X193590000Y-90190000D01*
X193590000Y-89540000D02*
X193590000Y-90190000D01*
X193590000Y-103510000D02*
X185480000Y-103510000D01*
X193590000Y-103510000D02*
X193590000Y-104160000D01*
X193590000Y-104160000D02*
X194110000Y-104160000D01*
X194110000Y-89540000D02*
X193590000Y-89540000D01*
X194110000Y-104160000D02*
X194110000Y-89540000D01*
%TO.C,U1*%
X128180000Y-80040000D02*
X128180000Y-81690000D01*
X128180000Y-83690000D02*
X128180000Y-85340000D01*
X128180000Y-85340000D02*
X148620000Y-85340000D01*
X148620000Y-80040000D02*
X128180000Y-80040000D01*
X148620000Y-85340000D02*
X148620000Y-80040000D01*
X128120000Y-87830000D02*
X148680000Y-87830000D01*
X148680000Y-77550000D01*
X128120000Y-77550000D01*
X128120000Y-87830000D01*
X128180000Y-81690000D02*
G75*
G02*
X128180000Y-83690000I0J-1000000D01*
G01*
%TO.C,R6*%
X142430000Y-95330000D02*
X142430000Y-99170000D01*
X144270000Y-95330000D02*
X144270000Y-99170000D01*
%TO.C,D2*%
X133674427Y-114244061D02*
X136764427Y-114244061D01*
X133674597Y-114244061D02*
G75*
G02*
X135219427Y-108694061I1544830J2560000D01*
G01*
X135219427Y-108694061D02*
G75*
G02*
X136764257Y-114244061I0J-2990000D01*
G01*
X137719427Y-111684061D02*
G75*
G02*
X132719427Y-111684061I-2500000J0D01*
G01*
X132719427Y-111684061D02*
G75*
G02*
X137719427Y-111684061I2500000J0D01*
G01*
%TO.C,R12*%
X151580000Y-78830000D02*
X151580000Y-82670000D01*
X153420000Y-78830000D02*
X153420000Y-82670000D01*
%TO.C,J1*%
X128420000Y-91880000D02*
X128420000Y-90500000D01*
X129800000Y-91880000D02*
X128420000Y-91880000D01*
X131070000Y-89120000D02*
X148960000Y-89120000D01*
X131070000Y-91880000D02*
X131070000Y-89120000D01*
X131070000Y-91880000D02*
X148960000Y-91880000D01*
X148960000Y-91880000D02*
X148960000Y-89120000D01*
%TO.C,R3*%
X132980000Y-95330000D02*
X132980000Y-99170000D01*
X134820000Y-95330000D02*
X134820000Y-99170000D01*
%TO.C,R9*%
X160130000Y-93580000D02*
X156290000Y-93580000D01*
X160130000Y-95420000D02*
X156290000Y-95420000D01*
%TO.C,R2*%
X129830000Y-95330000D02*
X129830000Y-99170000D01*
X131670000Y-95330000D02*
X131670000Y-99170000D01*
%TO.C,R4*%
X136130000Y-95330000D02*
X136130000Y-99170000D01*
X137970000Y-95330000D02*
X137970000Y-99170000D01*
%TO.C,SW4*%
X154500000Y-79500000D02*
X154500000Y-84000000D01*
X157000000Y-85250000D02*
X158500000Y-85250000D01*
X158500000Y-78250000D02*
X157000000Y-78250000D01*
X161000000Y-84000000D02*
X161000000Y-79500000D01*
%TO.C,D3*%
X141710142Y-114244061D02*
X144800142Y-114244061D01*
X141710312Y-114244061D02*
G75*
G02*
X143255142Y-108694061I1544830J2560000D01*
G01*
X143255142Y-108694061D02*
G75*
G02*
X144799972Y-114244061I0J-2990000D01*
G01*
X145755142Y-111684061D02*
G75*
G02*
X140755142Y-111684061I-2500000J0D01*
G01*
X140755142Y-111684061D02*
G75*
G02*
X145755142Y-111684061I2500000J0D01*
G01*
%TO.C,SW2*%
X172500000Y-79500000D02*
X172500000Y-84000000D01*
X175000000Y-85250000D02*
X176500000Y-85250000D01*
X176500000Y-78250000D02*
X175000000Y-78250000D01*
X179000000Y-84000000D02*
X179000000Y-79500000D01*
%TO.C,D7*%
X173852999Y-114244061D02*
X176942999Y-114244061D01*
X173853169Y-114244061D02*
G75*
G02*
X175397999Y-108694061I1544830J2560000D01*
G01*
X175397999Y-108694061D02*
G75*
G02*
X176942829Y-114244061I0J-2990000D01*
G01*
X177897999Y-111684061D02*
G75*
G02*
X172897999Y-111684061I-2500000J0D01*
G01*
X172897999Y-111684061D02*
G75*
G02*
X177897999Y-111684061I2500000J0D01*
G01*
%TO.C,SW3*%
X170075000Y-83780000D02*
X170075000Y-79280000D01*
X167575000Y-78030000D02*
X166075000Y-78030000D01*
X166075000Y-85030000D02*
X167575000Y-85030000D01*
X163575000Y-79280000D02*
X163575000Y-83780000D01*
%TO.C,SW4*%
X161170000Y-83780000D02*
X161170000Y-79280000D01*
X158670000Y-78030000D02*
X157170000Y-78030000D01*
X157170000Y-85030000D02*
X158670000Y-85030000D01*
X154670000Y-79280000D02*
X154670000Y-83780000D01*
%TD*%
M02*
