%TF.GenerationSoftware,KiCad,Pcbnew,9.0.9-9.0.9~ubuntu24.04.1*%
%TF.CreationDate,2026-09-20T21:50:12-04:00*%
%TF.ProjectId,shift-register-control-panel,73686966-742d-4726-9567-69737465722d,rev?*%
%TF.SameCoordinates,Original*%
%TF.FileFunction,Copper,L2,Bot*%
%TF.FilePolarity,Positive*%
%FSLAX46Y46*%
G04 Gerber Fmt 4.6, Leading zero omitted, Abs format (unit mm)*
G04 Created by KiCad (PCBNEW 9.0.9-9.0.9~ubuntu24.04.1) date 2026-09-20 21:50:12*
%MOMM*%
%LPD*%
G01*
G04 APERTURE LIST*
G04 Aperture macros list*
%AMRoundRect*
0 Rectangle with rounded corners*
0 $1 Rounding radius*
0 $2 $3 $4 $5 $6 $7 $8 $9 X,Y pos of 4 corners*
0 Add a 4 corners polygon primitive as box body*
4,1,4,$2,$3,$4,$5,$6,$7,$8,$9,$2,$3,0*
0 Add four circle primitives for the rounded corners*
1,1,$1+$1,$2,$3*
1,1,$1+$1,$4,$5*
1,1,$1+$1,$6,$7*
1,1,$1+$1,$8,$9*
0 Add four rect primitives between the rounded corners*
20,1,$1+$1,$2,$3,$4,$5,0*
20,1,$1+$1,$4,$5,$6,$7,0*
20,1,$1+$1,$6,$7,$8,$9,0*
20,1,$1+$1,$8,$9,$2,$3,0*%
G04 Aperture macros list end*
%TA.AperFunction,ComponentPad*%
%ADD10R,1.800000X1.800000*%
%TD*%
%TA.AperFunction,ComponentPad*%
%ADD11C,1.800000*%
%TD*%
%TA.AperFunction,ComponentPad*%
%ADD12C,1.200000*%
%TD*%
%TA.AperFunction,ComponentPad*%
%ADD13C,1.400000*%
%TD*%
%TA.AperFunction,ComponentPad*%
%ADD14R,2.000000X1.905000*%
%TD*%
%TA.AperFunction,ComponentPad*%
%ADD15O,2.000000X1.905000*%
%TD*%
%TA.AperFunction,ComponentPad*%
%ADD16O,2.200000X3.500000*%
%TD*%
%TA.AperFunction,ComponentPad*%
%ADD17R,1.500000X2.500000*%
%TD*%
%TA.AperFunction,ComponentPad*%
%ADD18O,1.500000X2.500000*%
%TD*%
%TA.AperFunction,ComponentPad*%
%ADD19R,1.500000X1.600000*%
%TD*%
%TA.AperFunction,ComponentPad*%
%ADD20C,1.600000*%
%TD*%
%TA.AperFunction,ComponentPad*%
%ADD21C,3.000000*%
%TD*%
%TA.AperFunction,ComponentPad*%
%ADD22RoundRect,0.250000X0.550000X-0.550000X0.550000X0.550000X-0.550000X0.550000X-0.550000X-0.550000X0*%
%TD*%
%TA.AperFunction,ComponentPad*%
%ADD23R,1.700000X1.700000*%
%TD*%
%TA.AperFunction,ComponentPad*%
%ADD24C,1.700000*%
%TD*%
%TA.AperFunction,ComponentPad*%
%ADD25C,2.000000*%
%TD*%
%TA.AperFunction,Conductor*%
%ADD26C,0.200000*%
%TD*%
G04 APERTURE END LIST*
D10*
%TO.P,D5,1,K*%
%TO.N,GND*%
X159326570Y-112954061D03*
D11*
%TO.P,D5,2,A*%
%TO.N,Net-(D5-A)*%
X159326570Y-110414061D03*
%TD*%
D12*
%TO.P,C1,1*%
%TO.N,GND*%
X165500000Y-100750000D03*
%TO.P,C1,2*%
%TO.N,+5V*%
X167500000Y-100750000D03*
%TD*%
D13*
%TO.P,R1,1*%
%TO.N,/OUT1*%
X127600000Y-94710000D03*
%TO.P,R1,2*%
%TO.N,Net-(D1-A)*%
X127600000Y-99790000D03*
%TD*%
D10*
%TO.P,D4,1,K*%
%TO.N,GND*%
X151290856Y-112954061D03*
D11*
%TO.P,D4,2,A*%
%TO.N,Net-(D4-A)*%
X151290856Y-110414061D03*
%TD*%
D14*
%TO.P,U2,1,VI*%
%TO.N,VCC*%
X172300000Y-98710000D03*
D15*
%TO.P,U2,2,GND*%
%TO.N,GND*%
X172300000Y-101250000D03*
%TO.P,U2,3,VO*%
%TO.N,+5V*%
X172300000Y-103790000D03*
%TD*%
D13*
%TO.P,R5,1*%
%TO.N,/OUT5*%
X140200000Y-94710000D03*
%TO.P,R5,2*%
%TO.N,Net-(D5-A)*%
X140200000Y-99790000D03*
%TD*%
D10*
%TO.P,D6,1,K*%
%TO.N,GND*%
X167362284Y-112954061D03*
D11*
%TO.P,D6,2,A*%
%TO.N,Net-(D6-A)*%
X167362284Y-110414061D03*
%TD*%
D10*
%TO.P,D1,1,K*%
%TO.N,GND*%
X127183713Y-112954061D03*
D11*
%TO.P,D1,2,A*%
%TO.N,Net-(D1-A)*%
X127183713Y-110414061D03*
%TD*%
D13*
%TO.P,R10,1*%
%TO.N,Net-(U1-SRCLK)*%
X173500000Y-88710000D03*
%TO.P,R10,2*%
%TO.N,GND*%
X173500000Y-93790000D03*
%TD*%
D16*
%TO.P,SW1,*%
%TO.N,*%
X164350000Y-89952500D03*
X156150000Y-89952500D03*
D17*
%TO.P,SW1,1,A*%
%TO.N,+5V*%
X162250000Y-89952500D03*
D18*
%TO.P,SW1,2,B*%
%TO.N,Net-(SW1-B)*%
X160250000Y-89952500D03*
%TO.P,SW1,3,C*%
%TO.N,GND*%
X158250000Y-89952500D03*
%TD*%
D10*
%TO.P,D9,1,K*%
%TO.N,GND*%
X157500000Y-99210000D03*
D11*
%TO.P,D9,2,A*%
%TO.N,Net-(D9-A)*%
X157500000Y-101750000D03*
%TD*%
D10*
%TO.P,D8,1,K*%
%TO.N,GND*%
X183433713Y-112954061D03*
D11*
%TO.P,D8,2,A*%
%TO.N,Net-(D8-A)*%
X183433713Y-110414061D03*
%TD*%
D13*
%TO.P,R8,1*%
%TO.N,/OUT8*%
X150450000Y-94500000D03*
%TO.P,R8,2*%
%TO.N,Net-(D8-A)*%
X150450000Y-99580000D03*
%TD*%
%TO.P,R7,1*%
%TO.N,/OUT7*%
X146500000Y-94710000D03*
%TO.P,R7,2*%
%TO.N,Net-(D7-A)*%
X146500000Y-99790000D03*
%TD*%
D19*
%TO.P,J2,1,VBUS*%
%TO.N,VCC*%
X181010000Y-100350000D03*
D20*
%TO.P,J2,2,D-*%
%TO.N,unconnected-(J2-D--Pad2)*%
X181010000Y-97850000D03*
%TO.P,J2,3,D+*%
%TO.N,unconnected-(J2-D+-Pad3)*%
X181010000Y-95850000D03*
%TO.P,J2,4,GND*%
%TO.N,GND*%
X181010000Y-93350000D03*
D21*
%TO.P,J2,5,Shield*%
X183720000Y-103420000D03*
X183720000Y-90280000D03*
%TD*%
D22*
%TO.P,U1,1,QB*%
%TO.N,/OUT2*%
X129510000Y-86500000D03*
D20*
%TO.P,U1,2,QC*%
%TO.N,/OUT3*%
X132050000Y-86500000D03*
%TO.P,U1,3,QD*%
%TO.N,/OUT4*%
X134590000Y-86500000D03*
%TO.P,U1,4,QE*%
%TO.N,/OUT5*%
X137130000Y-86500000D03*
%TO.P,U1,5,QF*%
%TO.N,/OUT6*%
X139670000Y-86500000D03*
%TO.P,U1,6,QG*%
%TO.N,/OUT7*%
X142210000Y-86500000D03*
%TO.P,U1,7,QH*%
%TO.N,/OUT8*%
X144750000Y-86500000D03*
%TO.P,U1,8,GND*%
%TO.N,GND*%
X147290000Y-86500000D03*
%TO.P,U1,9,QH'*%
%TO.N,unconnected-(U1-QH'-Pad9)*%
X147290000Y-78880000D03*
%TO.P,U1,10,~{SRCLR}*%
%TO.N,Net-(U1-~{SRCLR})*%
X144750000Y-78880000D03*
%TO.P,U1,11,SRCLK*%
%TO.N,Net-(U1-SRCLK)*%
X142210000Y-78880000D03*
%TO.P,U1,12,RCLK*%
%TO.N,Net-(U1-RCLK)*%
X139670000Y-78880000D03*
%TO.P,U1,13,~{OE}*%
%TO.N,+5V*%
X137130000Y-78880000D03*
%TO.P,U1,14,SER*%
%TO.N,Net-(SW1-B)*%
X134590000Y-78880000D03*
%TO.P,U1,15,QA*%
%TO.N,/OUT1*%
X132050000Y-78880000D03*
%TO.P,U1,16,VCC*%
%TO.N,+5V*%
X129510000Y-78880000D03*
%TD*%
D13*
%TO.P,R6,1*%
%TO.N,/OUT6*%
X143350000Y-94710000D03*
%TO.P,R6,2*%
%TO.N,Net-(D6-A)*%
X143350000Y-99790000D03*
%TD*%
D10*
%TO.P,D2,1,K*%
%TO.N,GND*%
X135219427Y-112954061D03*
D11*
%TO.P,D2,2,A*%
%TO.N,Net-(D2-A)*%
X135219427Y-110414061D03*
%TD*%
D13*
%TO.P,R12,1*%
%TO.N,Net-(U1-RCLK)*%
X152500000Y-78210000D03*
%TO.P,R12,2*%
%TO.N,GND*%
X152500000Y-83290000D03*
%TD*%
D23*
%TO.P,J1,1,Pin_1*%
%TO.N,/OUT1*%
X129800000Y-90500000D03*
D24*
%TO.P,J1,2,Pin_2*%
%TO.N,/OUT2*%
X132340000Y-90500000D03*
%TO.P,J1,3,Pin_3*%
%TO.N,/OUT3*%
X134880000Y-90500000D03*
%TO.P,J1,4,Pin_4*%
%TO.N,/OUT4*%
X137420000Y-90500000D03*
%TO.P,J1,5,Pin_5*%
%TO.N,/OUT5*%
X139960000Y-90500000D03*
%TO.P,J1,6,Pin_6*%
%TO.N,/OUT6*%
X142500000Y-90500000D03*
%TO.P,J1,7,Pin_7*%
%TO.N,/OUT7*%
X145040000Y-90500000D03*
%TO.P,J1,8,Pin_8*%
%TO.N,/OUT8*%
X147580000Y-90500000D03*
%TD*%
D13*
%TO.P,R3,1*%
%TO.N,/OUT3*%
X133900000Y-94710000D03*
%TO.P,R3,2*%
%TO.N,Net-(D3-A)*%
X133900000Y-99790000D03*
%TD*%
%TO.P,R9,1*%
%TO.N,Net-(SW1-B)*%
X160750000Y-94500000D03*
%TO.P,R9,2*%
%TO.N,Net-(D9-A)*%
X155670000Y-94500000D03*
%TD*%
%TO.P,R2,1*%
%TO.N,/OUT2*%
X130750000Y-94710000D03*
%TO.P,R2,2*%
%TO.N,Net-(D2-A)*%
X130750000Y-99790000D03*
%TD*%
%TO.P,R4,1*%
%TO.N,/OUT4*%
X137050000Y-94710000D03*
%TO.P,R4,2*%
%TO.N,Net-(D4-A)*%
X137050000Y-99790000D03*
%TD*%
D25*
%TO.P,SW4,1,1*%
%TO.N,+5V*%
X160000000Y-78500000D03*
X160000000Y-85000000D03*
%TO.P,SW4,2,2*%
%TO.N,Net-(U1-RCLK)*%
X155500000Y-78500000D03*
X155500000Y-85000000D03*
%TD*%
D10*
%TO.P,D3,1,K*%
%TO.N,GND*%
X143255142Y-112954061D03*
D11*
%TO.P,D3,2,A*%
%TO.N,Net-(D3-A)*%
X143255142Y-110414061D03*
%TD*%
D25*
%TO.P,SW2,1,1*%
%TO.N,+5V*%
X178000000Y-78500000D03*
X178000000Y-85000000D03*
%TO.P,SW2,2,2*%
%TO.N,Net-(U1-SRCLK)*%
X173500000Y-78500000D03*
X173500000Y-85000000D03*
%TD*%
D10*
%TO.P,D7,1,K*%
%TO.N,GND*%
X175397999Y-112954061D03*
D11*
%TO.P,D7,2,A*%
%TO.N,Net-(D7-A)*%
X175397999Y-110414061D03*
%TD*%
D25*
%TO.P,SW3,1,1*%
%TO.N,GND*%
X169250000Y-78500000D03*
X169250000Y-85000000D03*
%TO.P,SW3,2,2*%
%TO.N,Net-(U1-~{SRCLR})*%
X164750000Y-78500000D03*
X164750000Y-85000000D03*
%TD*%
D13*
%TO.P,R11,1*%
%TO.N,+5V*%
X169000000Y-93790000D03*
%TO.P,R11,2*%
%TO.N,Net-(U1-~{SRCLR})*%
X169000000Y-88710000D03*
%TD*%
D26*
%TO.N,Net-(D8-A)*%
X180639652Y-107620000D02*
X183433713Y-110414061D01*
X150450000Y-103050000D02*
X155020000Y-107620000D01*
X150450000Y-99580000D02*
X150450000Y-103050000D01*
X155020000Y-107620000D02*
X180639652Y-107620000D01*
%TO.N,Net-(U1-SRCLK)*%
X171250000Y-76250000D02*
X173500000Y-78500000D01*
X144840000Y-76250000D02*
X171250000Y-76250000D01*
X142210000Y-78880000D02*
X144840000Y-76250000D01*
%TO.N,Net-(U1-~{SRCLR})*%
X162000000Y-81250000D02*
X145750000Y-81250000D01*
X145750000Y-81250000D02*
X144750000Y-80250000D01*
X164750000Y-78500000D02*
X162000000Y-81250000D01*
X144750000Y-80250000D02*
X144750000Y-78880000D01*
%TO.N,/OUT1*%
X130790000Y-80140000D02*
X132050000Y-78880000D01*
X130790000Y-89510000D02*
X130790000Y-80140000D01*
X129800000Y-90500000D02*
X130790000Y-89510000D01*
%TD*%
%TA.AperFunction,Conductor*%
%TO.N,GND*%
G36*
X187192539Y-75270185D02*
G01*
X187238294Y-75322989D01*
X187249500Y-75374500D01*
X187249500Y-115875500D01*
X187229815Y-115942539D01*
X187177011Y-115988294D01*
X187125500Y-115999500D01*
X123124500Y-115999500D01*
X123057461Y-115979815D01*
X123011706Y-115927011D01*
X123000500Y-115875500D01*
X123000500Y-110303839D01*
X125783213Y-110303839D01*
X125783213Y-110524282D01*
X125817698Y-110742013D01*
X125885816Y-110951664D01*
X125885817Y-110951667D01*
X125985900Y-111148086D01*
X126115465Y-111326419D01*
X126115469Y-111326424D01*
X126166029Y-111376984D01*
X126199514Y-111438307D01*
X126194530Y-111507999D01*
X126152658Y-111563932D01*
X126121682Y-111580846D01*
X126041631Y-111610704D01*
X126041619Y-111610710D01*
X125926525Y-111696870D01*
X125926522Y-111696873D01*
X125840362Y-111811967D01*
X125840358Y-111811974D01*
X125790116Y-111946681D01*
X125790114Y-111946688D01*
X125783713Y-112006216D01*
X125783713Y-112704061D01*
X126808435Y-112704061D01*
X126764380Y-112780367D01*
X126733713Y-112894817D01*
X126733713Y-113013305D01*
X126764380Y-113127755D01*
X126808435Y-113204061D01*
X125783713Y-113204061D01*
X125783713Y-113901905D01*
X125790114Y-113961433D01*
X125790116Y-113961440D01*
X125840358Y-114096147D01*
X125840362Y-114096154D01*
X125926522Y-114211248D01*
X125926525Y-114211251D01*
X126041619Y-114297411D01*
X126041626Y-114297415D01*
X126176333Y-114347657D01*
X126176340Y-114347659D01*
X126235868Y-114354060D01*
X126235885Y-114354061D01*
X126933713Y-114354061D01*
X126933713Y-113329338D01*
X127010019Y-113373394D01*
X127124469Y-113404061D01*
X127242957Y-113404061D01*
X127357407Y-113373394D01*
X127433713Y-113329338D01*
X127433713Y-114354061D01*
X128131541Y-114354061D01*
X128131557Y-114354060D01*
X128191085Y-114347659D01*
X128191092Y-114347657D01*
X128325799Y-114297415D01*
X128325806Y-114297411D01*
X128440900Y-114211251D01*
X128440903Y-114211248D01*
X128527063Y-114096154D01*
X128527067Y-114096147D01*
X128577309Y-113961440D01*
X128577311Y-113961433D01*
X128583712Y-113901905D01*
X128583713Y-113901888D01*
X128583713Y-113204061D01*
X127558991Y-113204061D01*
X127603046Y-113127755D01*
X127633713Y-113013305D01*
X127633713Y-112894817D01*
X127603046Y-112780367D01*
X127558991Y-112704061D01*
X128583713Y-112704061D01*
X128583713Y-112006233D01*
X128583712Y-112006216D01*
X128577311Y-111946688D01*
X128577309Y-111946681D01*
X128527067Y-111811974D01*
X128527063Y-111811967D01*
X128440903Y-111696873D01*
X128440900Y-111696870D01*
X128325806Y-111610710D01*
X128325800Y-111610707D01*
X128245743Y-111580847D01*
X128189810Y-111538975D01*
X128165393Y-111473511D01*
X128180245Y-111405238D01*
X128201394Y-111376986D01*
X128251955Y-111326426D01*
X128381528Y-111148083D01*
X128481608Y-110951667D01*
X128549728Y-110742012D01*
X128584213Y-110524283D01*
X128584213Y-110303839D01*
X133818927Y-110303839D01*
X133818927Y-110524282D01*
X133853412Y-110742013D01*
X133921530Y-110951664D01*
X133921531Y-110951667D01*
X134021614Y-111148086D01*
X134151179Y-111326419D01*
X134151183Y-111326424D01*
X134201743Y-111376984D01*
X134235228Y-111438307D01*
X134230244Y-111507999D01*
X134188372Y-111563932D01*
X134157396Y-111580846D01*
X134077345Y-111610704D01*
X134077333Y-111610710D01*
X133962239Y-111696870D01*
X133962236Y-111696873D01*
X133876076Y-111811967D01*
X133876072Y-111811974D01*
X133825830Y-111946681D01*
X133825828Y-111946688D01*
X133819427Y-112006216D01*
X133819427Y-112704061D01*
X134844149Y-112704061D01*
X134800094Y-112780367D01*
X134769427Y-112894817D01*
X134769427Y-113013305D01*
X134800094Y-113127755D01*
X134844149Y-113204061D01*
X133819427Y-113204061D01*
X133819427Y-113901905D01*
X133825828Y-113961433D01*
X133825830Y-113961440D01*
X133876072Y-114096147D01*
X133876076Y-114096154D01*
X133962236Y-114211248D01*
X133962239Y-114211251D01*
X134077333Y-114297411D01*
X134077340Y-114297415D01*
X134212047Y-114347657D01*
X134212054Y-114347659D01*
X134271582Y-114354060D01*
X134271599Y-114354061D01*
X134969427Y-114354061D01*
X134969427Y-113329338D01*
X135045733Y-113373394D01*
X135160183Y-113404061D01*
X135278671Y-113404061D01*
X135393121Y-113373394D01*
X135469427Y-113329338D01*
X135469427Y-114354061D01*
X136167255Y-114354061D01*
X136167271Y-114354060D01*
X136226799Y-114347659D01*
X136226806Y-114347657D01*
X136361513Y-114297415D01*
X136361520Y-114297411D01*
X136476614Y-114211251D01*
X136476617Y-114211248D01*
X136562777Y-114096154D01*
X136562781Y-114096147D01*
X136613023Y-113961440D01*
X136613025Y-113961433D01*
X136619426Y-113901905D01*
X136619427Y-113901888D01*
X136619427Y-113204061D01*
X135594705Y-113204061D01*
X135638760Y-113127755D01*
X135669427Y-113013305D01*
X135669427Y-112894817D01*
X135638760Y-112780367D01*
X135594705Y-112704061D01*
X136619427Y-112704061D01*
X136619427Y-112006233D01*
X136619426Y-112006216D01*
X136613025Y-111946688D01*
X136613023Y-111946681D01*
X136562781Y-111811974D01*
X136562777Y-111811967D01*
X136476617Y-111696873D01*
X136476614Y-111696870D01*
X136361520Y-111610710D01*
X136361514Y-111610707D01*
X136281457Y-111580847D01*
X136225524Y-111538975D01*
X136201107Y-111473511D01*
X136215959Y-111405238D01*
X136237108Y-111376986D01*
X136287669Y-111326426D01*
X136417242Y-111148083D01*
X136517322Y-110951667D01*
X136585442Y-110742012D01*
X136619927Y-110524283D01*
X136619927Y-110303839D01*
X141854642Y-110303839D01*
X141854642Y-110524282D01*
X141889127Y-110742013D01*
X141957245Y-110951664D01*
X141957246Y-110951667D01*
X142057329Y-111148086D01*
X142186894Y-111326419D01*
X142186898Y-111326424D01*
X142237458Y-111376984D01*
X142270943Y-111438307D01*
X142265959Y-111507999D01*
X142224087Y-111563932D01*
X142193111Y-111580846D01*
X142113060Y-111610704D01*
X142113048Y-111610710D01*
X141997954Y-111696870D01*
X141997951Y-111696873D01*
X141911791Y-111811967D01*
X141911787Y-111811974D01*
X141861545Y-111946681D01*
X141861543Y-111946688D01*
X141855142Y-112006216D01*
X141855142Y-112704061D01*
X142879864Y-112704061D01*
X142835809Y-112780367D01*
X142805142Y-112894817D01*
X142805142Y-113013305D01*
X142835809Y-113127755D01*
X142879864Y-113204061D01*
X141855142Y-113204061D01*
X141855142Y-113901905D01*
X141861543Y-113961433D01*
X141861545Y-113961440D01*
X141911787Y-114096147D01*
X141911791Y-114096154D01*
X141997951Y-114211248D01*
X141997954Y-114211251D01*
X142113048Y-114297411D01*
X142113055Y-114297415D01*
X142247762Y-114347657D01*
X142247769Y-114347659D01*
X142307297Y-114354060D01*
X142307314Y-114354061D01*
X143005142Y-114354061D01*
X143005142Y-113329338D01*
X143081448Y-113373394D01*
X143195898Y-113404061D01*
X143314386Y-113404061D01*
X143428836Y-113373394D01*
X143505142Y-113329338D01*
X143505142Y-114354061D01*
X144202970Y-114354061D01*
X144202986Y-114354060D01*
X144262514Y-114347659D01*
X144262521Y-114347657D01*
X144397228Y-114297415D01*
X144397235Y-114297411D01*
X144512329Y-114211251D01*
X144512332Y-114211248D01*
X144598492Y-114096154D01*
X144598496Y-114096147D01*
X144648738Y-113961440D01*
X144648740Y-113961433D01*
X144655141Y-113901905D01*
X144655142Y-113901888D01*
X144655142Y-113204061D01*
X143630420Y-113204061D01*
X143674475Y-113127755D01*
X143705142Y-113013305D01*
X143705142Y-112894817D01*
X143674475Y-112780367D01*
X143630420Y-112704061D01*
X144655142Y-112704061D01*
X144655142Y-112006233D01*
X144655141Y-112006216D01*
X144648740Y-111946688D01*
X144648738Y-111946681D01*
X144598496Y-111811974D01*
X144598492Y-111811967D01*
X144512332Y-111696873D01*
X144512329Y-111696870D01*
X144397235Y-111610710D01*
X144397229Y-111610707D01*
X144317172Y-111580847D01*
X144261239Y-111538975D01*
X144236822Y-111473511D01*
X144251674Y-111405238D01*
X144272823Y-111376986D01*
X144323384Y-111326426D01*
X144452957Y-111148083D01*
X144553037Y-110951667D01*
X144621157Y-110742012D01*
X144655642Y-110524283D01*
X144655642Y-110303839D01*
X149890356Y-110303839D01*
X149890356Y-110524282D01*
X149924841Y-110742013D01*
X149992959Y-110951664D01*
X149992960Y-110951667D01*
X150093043Y-111148086D01*
X150222608Y-111326419D01*
X150222612Y-111326424D01*
X150273172Y-111376984D01*
X150306657Y-111438307D01*
X150301673Y-111507999D01*
X150259801Y-111563932D01*
X150228825Y-111580846D01*
X150148774Y-111610704D01*
X150148762Y-111610710D01*
X150033668Y-111696870D01*
X150033665Y-111696873D01*
X149947505Y-111811967D01*
X149947501Y-111811974D01*
X149897259Y-111946681D01*
X149897257Y-111946688D01*
X149890856Y-112006216D01*
X149890856Y-112704061D01*
X150915578Y-112704061D01*
X150871523Y-112780367D01*
X150840856Y-112894817D01*
X150840856Y-113013305D01*
X150871523Y-113127755D01*
X150915578Y-113204061D01*
X149890856Y-113204061D01*
X149890856Y-113901905D01*
X149897257Y-113961433D01*
X149897259Y-113961440D01*
X149947501Y-114096147D01*
X149947505Y-114096154D01*
X150033665Y-114211248D01*
X150033668Y-114211251D01*
X150148762Y-114297411D01*
X150148769Y-114297415D01*
X150283476Y-114347657D01*
X150283483Y-114347659D01*
X150343011Y-114354060D01*
X150343028Y-114354061D01*
X151040856Y-114354061D01*
X151040856Y-113329338D01*
X151117162Y-113373394D01*
X151231612Y-113404061D01*
X151350100Y-113404061D01*
X151464550Y-113373394D01*
X151540856Y-113329338D01*
X151540856Y-114354061D01*
X152238684Y-114354061D01*
X152238700Y-114354060D01*
X152298228Y-114347659D01*
X152298235Y-114347657D01*
X152432942Y-114297415D01*
X152432949Y-114297411D01*
X152548043Y-114211251D01*
X152548046Y-114211248D01*
X152634206Y-114096154D01*
X152634210Y-114096147D01*
X152684452Y-113961440D01*
X152684454Y-113961433D01*
X152690855Y-113901905D01*
X152690856Y-113901888D01*
X152690856Y-113204061D01*
X151666134Y-113204061D01*
X151710189Y-113127755D01*
X151740856Y-113013305D01*
X151740856Y-112894817D01*
X151710189Y-112780367D01*
X151666134Y-112704061D01*
X152690856Y-112704061D01*
X152690856Y-112006233D01*
X152690855Y-112006216D01*
X152684454Y-111946688D01*
X152684452Y-111946681D01*
X152634210Y-111811974D01*
X152634206Y-111811967D01*
X152548046Y-111696873D01*
X152548043Y-111696870D01*
X152432949Y-111610710D01*
X152432943Y-111610707D01*
X152352886Y-111580847D01*
X152296953Y-111538975D01*
X152272536Y-111473511D01*
X152287388Y-111405238D01*
X152308537Y-111376986D01*
X152359098Y-111326426D01*
X152488671Y-111148083D01*
X152588751Y-110951667D01*
X152656871Y-110742012D01*
X152691356Y-110524283D01*
X152691356Y-110303839D01*
X157926070Y-110303839D01*
X157926070Y-110524282D01*
X157960555Y-110742013D01*
X158028673Y-110951664D01*
X158028674Y-110951667D01*
X158128757Y-111148086D01*
X158258322Y-111326419D01*
X158258326Y-111326424D01*
X158308886Y-111376984D01*
X158342371Y-111438307D01*
X158337387Y-111507999D01*
X158295515Y-111563932D01*
X158264539Y-111580846D01*
X158184488Y-111610704D01*
X158184476Y-111610710D01*
X158069382Y-111696870D01*
X158069379Y-111696873D01*
X157983219Y-111811967D01*
X157983215Y-111811974D01*
X157932973Y-111946681D01*
X157932971Y-111946688D01*
X157926570Y-112006216D01*
X157926570Y-112704061D01*
X158951292Y-112704061D01*
X158907237Y-112780367D01*
X158876570Y-112894817D01*
X158876570Y-113013305D01*
X158907237Y-113127755D01*
X158951292Y-113204061D01*
X157926570Y-113204061D01*
X157926570Y-113901905D01*
X157932971Y-113961433D01*
X157932973Y-113961440D01*
X157983215Y-114096147D01*
X157983219Y-114096154D01*
X158069379Y-114211248D01*
X158069382Y-114211251D01*
X158184476Y-114297411D01*
X158184483Y-114297415D01*
X158319190Y-114347657D01*
X158319197Y-114347659D01*
X158378725Y-114354060D01*
X158378742Y-114354061D01*
X159076570Y-114354061D01*
X159076570Y-113329338D01*
X159152876Y-113373394D01*
X159267326Y-113404061D01*
X159385814Y-113404061D01*
X159500264Y-113373394D01*
X159576570Y-113329338D01*
X159576570Y-114354061D01*
X160274398Y-114354061D01*
X160274414Y-114354060D01*
X160333942Y-114347659D01*
X160333949Y-114347657D01*
X160468656Y-114297415D01*
X160468663Y-114297411D01*
X160583757Y-114211251D01*
X160583760Y-114211248D01*
X160669920Y-114096154D01*
X160669924Y-114096147D01*
X160720166Y-113961440D01*
X160720168Y-113961433D01*
X160726569Y-113901905D01*
X160726570Y-113901888D01*
X160726570Y-113204061D01*
X159701848Y-113204061D01*
X159745903Y-113127755D01*
X159776570Y-113013305D01*
X159776570Y-112894817D01*
X159745903Y-112780367D01*
X159701848Y-112704061D01*
X160726570Y-112704061D01*
X160726570Y-112006233D01*
X160726569Y-112006216D01*
X160720168Y-111946688D01*
X160720166Y-111946681D01*
X160669924Y-111811974D01*
X160669920Y-111811967D01*
X160583760Y-111696873D01*
X160583757Y-111696870D01*
X160468663Y-111610710D01*
X160468657Y-111610707D01*
X160388600Y-111580847D01*
X160332667Y-111538975D01*
X160308250Y-111473511D01*
X160323102Y-111405238D01*
X160344251Y-111376986D01*
X160394812Y-111326426D01*
X160524385Y-111148083D01*
X160624465Y-110951667D01*
X160692585Y-110742012D01*
X160727070Y-110524283D01*
X160727070Y-110303839D01*
X165961784Y-110303839D01*
X165961784Y-110524282D01*
X165996269Y-110742013D01*
X166064387Y-110951664D01*
X166064388Y-110951667D01*
X166164471Y-111148086D01*
X166294036Y-111326419D01*
X166294040Y-111326424D01*
X166344600Y-111376984D01*
X166378085Y-111438307D01*
X166373101Y-111507999D01*
X166331229Y-111563932D01*
X166300253Y-111580846D01*
X166220202Y-111610704D01*
X166220190Y-111610710D01*
X166105096Y-111696870D01*
X166105093Y-111696873D01*
X166018933Y-111811967D01*
X166018929Y-111811974D01*
X165968687Y-111946681D01*
X165968685Y-111946688D01*
X165962284Y-112006216D01*
X165962284Y-112704061D01*
X166987006Y-112704061D01*
X166942951Y-112780367D01*
X166912284Y-112894817D01*
X166912284Y-113013305D01*
X166942951Y-113127755D01*
X166987006Y-113204061D01*
X165962284Y-113204061D01*
X165962284Y-113901905D01*
X165968685Y-113961433D01*
X165968687Y-113961440D01*
X166018929Y-114096147D01*
X166018933Y-114096154D01*
X166105093Y-114211248D01*
X166105096Y-114211251D01*
X166220190Y-114297411D01*
X166220197Y-114297415D01*
X166354904Y-114347657D01*
X166354911Y-114347659D01*
X166414439Y-114354060D01*
X166414456Y-114354061D01*
X167112284Y-114354061D01*
X167112284Y-113329338D01*
X167188590Y-113373394D01*
X167303040Y-113404061D01*
X167421528Y-113404061D01*
X167535978Y-113373394D01*
X167612284Y-113329338D01*
X167612284Y-114354061D01*
X168310112Y-114354061D01*
X168310128Y-114354060D01*
X168369656Y-114347659D01*
X168369663Y-114347657D01*
X168504370Y-114297415D01*
X168504377Y-114297411D01*
X168619471Y-114211251D01*
X168619474Y-114211248D01*
X168705634Y-114096154D01*
X168705638Y-114096147D01*
X168755880Y-113961440D01*
X168755882Y-113961433D01*
X168762283Y-113901905D01*
X168762284Y-113901888D01*
X168762284Y-113204061D01*
X167737562Y-113204061D01*
X167781617Y-113127755D01*
X167812284Y-113013305D01*
X167812284Y-112894817D01*
X167781617Y-112780367D01*
X167737562Y-112704061D01*
X168762284Y-112704061D01*
X168762284Y-112006233D01*
X168762283Y-112006216D01*
X168755882Y-111946688D01*
X168755880Y-111946681D01*
X168705638Y-111811974D01*
X168705634Y-111811967D01*
X168619474Y-111696873D01*
X168619471Y-111696870D01*
X168504377Y-111610710D01*
X168504371Y-111610707D01*
X168424314Y-111580847D01*
X168368381Y-111538975D01*
X168343964Y-111473511D01*
X168358816Y-111405238D01*
X168379965Y-111376986D01*
X168430526Y-111326426D01*
X168560099Y-111148083D01*
X168660179Y-110951667D01*
X168728299Y-110742012D01*
X168762784Y-110524283D01*
X168762784Y-110303839D01*
X173997499Y-110303839D01*
X173997499Y-110524282D01*
X174031984Y-110742013D01*
X174100102Y-110951664D01*
X174100103Y-110951667D01*
X174200186Y-111148086D01*
X174329751Y-111326419D01*
X174329755Y-111326424D01*
X174380315Y-111376984D01*
X174413800Y-111438307D01*
X174408816Y-111507999D01*
X174366944Y-111563932D01*
X174335968Y-111580846D01*
X174255917Y-111610704D01*
X174255905Y-111610710D01*
X174140811Y-111696870D01*
X174140808Y-111696873D01*
X174054648Y-111811967D01*
X174054644Y-111811974D01*
X174004402Y-111946681D01*
X174004400Y-111946688D01*
X173997999Y-112006216D01*
X173997999Y-112704061D01*
X175022721Y-112704061D01*
X174978666Y-112780367D01*
X174947999Y-112894817D01*
X174947999Y-113013305D01*
X174978666Y-113127755D01*
X175022721Y-113204061D01*
X173997999Y-113204061D01*
X173997999Y-113901905D01*
X174004400Y-113961433D01*
X174004402Y-113961440D01*
X174054644Y-114096147D01*
X174054648Y-114096154D01*
X174140808Y-114211248D01*
X174140811Y-114211251D01*
X174255905Y-114297411D01*
X174255912Y-114297415D01*
X174390619Y-114347657D01*
X174390626Y-114347659D01*
X174450154Y-114354060D01*
X174450171Y-114354061D01*
X175147999Y-114354061D01*
X175147999Y-113329338D01*
X175224305Y-113373394D01*
X175338755Y-113404061D01*
X175457243Y-113404061D01*
X175571693Y-113373394D01*
X175647999Y-113329338D01*
X175647999Y-114354061D01*
X176345827Y-114354061D01*
X176345843Y-114354060D01*
X176405371Y-114347659D01*
X176405378Y-114347657D01*
X176540085Y-114297415D01*
X176540092Y-114297411D01*
X176655186Y-114211251D01*
X176655189Y-114211248D01*
X176741349Y-114096154D01*
X176741353Y-114096147D01*
X176791595Y-113961440D01*
X176791597Y-113961433D01*
X176797998Y-113901905D01*
X176797999Y-113901888D01*
X176797999Y-113204061D01*
X175773277Y-113204061D01*
X175817332Y-113127755D01*
X175847999Y-113013305D01*
X175847999Y-112894817D01*
X175817332Y-112780367D01*
X175773277Y-112704061D01*
X176797999Y-112704061D01*
X176797999Y-112006233D01*
X176797998Y-112006216D01*
X176791597Y-111946688D01*
X176791595Y-111946681D01*
X176741353Y-111811974D01*
X176741349Y-111811967D01*
X176655189Y-111696873D01*
X176655186Y-111696870D01*
X176540092Y-111610710D01*
X176540086Y-111610707D01*
X176460029Y-111580847D01*
X176404096Y-111538975D01*
X176379679Y-111473511D01*
X176394531Y-111405238D01*
X176415680Y-111376986D01*
X176466241Y-111326426D01*
X176595814Y-111148083D01*
X176695894Y-110951667D01*
X176764014Y-110742012D01*
X176798499Y-110524283D01*
X176798499Y-110303839D01*
X176764014Y-110086110D01*
X176695894Y-109876455D01*
X176695894Y-109876454D01*
X176661236Y-109808436D01*
X176595814Y-109680039D01*
X176579259Y-109657253D01*
X176466246Y-109501702D01*
X176466242Y-109501697D01*
X176310362Y-109345817D01*
X176310357Y-109345813D01*
X176132024Y-109216248D01*
X176132023Y-109216247D01*
X176132021Y-109216246D01*
X176069095Y-109184183D01*
X175935605Y-109116165D01*
X175935602Y-109116164D01*
X175725951Y-109048046D01*
X175617085Y-109030803D01*
X175508221Y-109013561D01*
X175287777Y-109013561D01*
X175215200Y-109025056D01*
X175070046Y-109048046D01*
X174860395Y-109116164D01*
X174860392Y-109116165D01*
X174663973Y-109216248D01*
X174485640Y-109345813D01*
X174485635Y-109345817D01*
X174329755Y-109501697D01*
X174329751Y-109501702D01*
X174200186Y-109680035D01*
X174100103Y-109876454D01*
X174100102Y-109876457D01*
X174031984Y-110086108D01*
X173997499Y-110303839D01*
X168762784Y-110303839D01*
X168728299Y-110086110D01*
X168660179Y-109876455D01*
X168660179Y-109876454D01*
X168625521Y-109808436D01*
X168560099Y-109680039D01*
X168543544Y-109657253D01*
X168430531Y-109501702D01*
X168430527Y-109501697D01*
X168274647Y-109345817D01*
X168274642Y-109345813D01*
X168096309Y-109216248D01*
X168096308Y-109216247D01*
X168096306Y-109216246D01*
X168033380Y-109184183D01*
X167899890Y-109116165D01*
X167899887Y-109116164D01*
X167690236Y-109048046D01*
X167581370Y-109030803D01*
X167472506Y-109013561D01*
X167252062Y-109013561D01*
X167179485Y-109025056D01*
X167034331Y-109048046D01*
X166824680Y-109116164D01*
X166824677Y-109116165D01*
X166628258Y-109216248D01*
X166449925Y-109345813D01*
X166449920Y-109345817D01*
X166294040Y-109501697D01*
X166294036Y-109501702D01*
X166164471Y-109680035D01*
X166064388Y-109876454D01*
X166064387Y-109876457D01*
X165996269Y-110086108D01*
X165961784Y-110303839D01*
X160727070Y-110303839D01*
X160692585Y-110086110D01*
X160624465Y-109876455D01*
X160624465Y-109876454D01*
X160589807Y-109808436D01*
X160524385Y-109680039D01*
X160507830Y-109657253D01*
X160394817Y-109501702D01*
X160394813Y-109501697D01*
X160238933Y-109345817D01*
X160238928Y-109345813D01*
X160060595Y-109216248D01*
X160060594Y-109216247D01*
X160060592Y-109216246D01*
X159997666Y-109184183D01*
X159864176Y-109116165D01*
X159864173Y-109116164D01*
X159654522Y-109048046D01*
X159545656Y-109030803D01*
X159436792Y-109013561D01*
X159216348Y-109013561D01*
X159143771Y-109025056D01*
X158998617Y-109048046D01*
X158788966Y-109116164D01*
X158788963Y-109116165D01*
X158592544Y-109216248D01*
X158414211Y-109345813D01*
X158414206Y-109345817D01*
X158258326Y-109501697D01*
X158258322Y-109501702D01*
X158128757Y-109680035D01*
X158028674Y-109876454D01*
X158028673Y-109876457D01*
X157960555Y-110086108D01*
X157926070Y-110303839D01*
X152691356Y-110303839D01*
X152656871Y-110086110D01*
X152588751Y-109876455D01*
X152588751Y-109876454D01*
X152554093Y-109808436D01*
X152488671Y-109680039D01*
X152472116Y-109657253D01*
X152359103Y-109501702D01*
X152359099Y-109501697D01*
X152203219Y-109345817D01*
X152203214Y-109345813D01*
X152024881Y-109216248D01*
X152024880Y-109216247D01*
X152024878Y-109216246D01*
X151961952Y-109184183D01*
X151828462Y-109116165D01*
X151828459Y-109116164D01*
X151618808Y-109048046D01*
X151509942Y-109030803D01*
X151401078Y-109013561D01*
X151180634Y-109013561D01*
X151108057Y-109025056D01*
X150962903Y-109048046D01*
X150753252Y-109116164D01*
X150753249Y-109116165D01*
X150556830Y-109216248D01*
X150378497Y-109345813D01*
X150378492Y-109345817D01*
X150222612Y-109501697D01*
X150222608Y-109501702D01*
X150093043Y-109680035D01*
X149992960Y-109876454D01*
X149992959Y-109876457D01*
X149924841Y-110086108D01*
X149890356Y-110303839D01*
X144655642Y-110303839D01*
X144621157Y-110086110D01*
X144553037Y-109876455D01*
X144553037Y-109876454D01*
X144518379Y-109808436D01*
X144452957Y-109680039D01*
X144436402Y-109657253D01*
X144323389Y-109501702D01*
X144323385Y-109501697D01*
X144167505Y-109345817D01*
X144167500Y-109345813D01*
X143989167Y-109216248D01*
X143989166Y-109216247D01*
X143989164Y-109216246D01*
X143926238Y-109184183D01*
X143792748Y-109116165D01*
X143792745Y-109116164D01*
X143583094Y-109048046D01*
X143474228Y-109030803D01*
X143365364Y-109013561D01*
X143144920Y-109013561D01*
X143072343Y-109025056D01*
X142927189Y-109048046D01*
X142717538Y-109116164D01*
X142717535Y-109116165D01*
X142521116Y-109216248D01*
X142342783Y-109345813D01*
X142342778Y-109345817D01*
X142186898Y-109501697D01*
X142186894Y-109501702D01*
X142057329Y-109680035D01*
X141957246Y-109876454D01*
X141957245Y-109876457D01*
X141889127Y-110086108D01*
X141854642Y-110303839D01*
X136619927Y-110303839D01*
X136585442Y-110086110D01*
X136517322Y-109876455D01*
X136517322Y-109876454D01*
X136482664Y-109808436D01*
X136417242Y-109680039D01*
X136400687Y-109657253D01*
X136287674Y-109501702D01*
X136287670Y-109501697D01*
X136131790Y-109345817D01*
X136131785Y-109345813D01*
X135953452Y-109216248D01*
X135953451Y-109216247D01*
X135953449Y-109216246D01*
X135890523Y-109184183D01*
X135757033Y-109116165D01*
X135757030Y-109116164D01*
X135547379Y-109048046D01*
X135438513Y-109030803D01*
X135329649Y-109013561D01*
X135109205Y-109013561D01*
X135036628Y-109025056D01*
X134891474Y-109048046D01*
X134681823Y-109116164D01*
X134681820Y-109116165D01*
X134485401Y-109216248D01*
X134307068Y-109345813D01*
X134307063Y-109345817D01*
X134151183Y-109501697D01*
X134151179Y-109501702D01*
X134021614Y-109680035D01*
X133921531Y-109876454D01*
X133921530Y-109876457D01*
X133853412Y-110086108D01*
X133818927Y-110303839D01*
X128584213Y-110303839D01*
X128549728Y-110086110D01*
X128481608Y-109876455D01*
X128481608Y-109876454D01*
X128446950Y-109808436D01*
X128381528Y-109680039D01*
X128364973Y-109657253D01*
X128251960Y-109501702D01*
X128251956Y-109501697D01*
X128096076Y-109345817D01*
X128096071Y-109345813D01*
X127917738Y-109216248D01*
X127917737Y-109216247D01*
X127917735Y-109216246D01*
X127854809Y-109184183D01*
X127721319Y-109116165D01*
X127721316Y-109116164D01*
X127511665Y-109048046D01*
X127402799Y-109030803D01*
X127293935Y-109013561D01*
X127073491Y-109013561D01*
X127000914Y-109025056D01*
X126855760Y-109048046D01*
X126646109Y-109116164D01*
X126646106Y-109116165D01*
X126449687Y-109216248D01*
X126271354Y-109345813D01*
X126271349Y-109345817D01*
X126115469Y-109501697D01*
X126115465Y-109501702D01*
X125985900Y-109680035D01*
X125885817Y-109876454D01*
X125885816Y-109876457D01*
X125817698Y-110086108D01*
X125783213Y-110303839D01*
X123000500Y-110303839D01*
X123000500Y-99695513D01*
X126399500Y-99695513D01*
X126399500Y-99884486D01*
X126429059Y-100071118D01*
X126487454Y-100250836D01*
X126561647Y-100396446D01*
X126573240Y-100419199D01*
X126684310Y-100572073D01*
X126817927Y-100705690D01*
X126970801Y-100816760D01*
X127050347Y-100857290D01*
X127139163Y-100902545D01*
X127139165Y-100902545D01*
X127139168Y-100902547D01*
X127235497Y-100933846D01*
X127318881Y-100960940D01*
X127505514Y-100990500D01*
X127505519Y-100990500D01*
X127694486Y-100990500D01*
X127881118Y-100960940D01*
X128060832Y-100902547D01*
X128229199Y-100816760D01*
X128382073Y-100705690D01*
X128515690Y-100572073D01*
X128626760Y-100419199D01*
X128712547Y-100250832D01*
X128770940Y-100071118D01*
X128779029Y-100020044D01*
X128800500Y-99884486D01*
X128800500Y-99695513D01*
X129549500Y-99695513D01*
X129549500Y-99884486D01*
X129579059Y-100071118D01*
X129637454Y-100250836D01*
X129711647Y-100396446D01*
X129723240Y-100419199D01*
X129834310Y-100572073D01*
X129967927Y-100705690D01*
X130120801Y-100816760D01*
X130200347Y-100857290D01*
X130289163Y-100902545D01*
X130289165Y-100902545D01*
X130289168Y-100902547D01*
X130385497Y-100933846D01*
X130468881Y-100960940D01*
X130655514Y-100990500D01*
X130655519Y-100990500D01*
X130844486Y-100990500D01*
X131031118Y-100960940D01*
X131210832Y-100902547D01*
X131379199Y-100816760D01*
X131532073Y-100705690D01*
X131665690Y-100572073D01*
X131776760Y-100419199D01*
X131862547Y-100250832D01*
X131920940Y-100071118D01*
X131929029Y-100020044D01*
X131950500Y-99884486D01*
X131950500Y-99695513D01*
X132699500Y-99695513D01*
X132699500Y-99884486D01*
X132729059Y-100071118D01*
X132787454Y-100250836D01*
X132861647Y-100396446D01*
X132873240Y-100419199D01*
X132984310Y-100572073D01*
X133117927Y-100705690D01*
X133270801Y-100816760D01*
X133350347Y-100857290D01*
X133439163Y-100902545D01*
X133439165Y-100902545D01*
X133439168Y-100902547D01*
X133535497Y-100933846D01*
X133618881Y-100960940D01*
X133805514Y-100990500D01*
X133805519Y-100990500D01*
X133994486Y-100990500D01*
X134181118Y-100960940D01*
X134360832Y-100902547D01*
X134529199Y-100816760D01*
X134682073Y-100705690D01*
X134815690Y-100572073D01*
X134926760Y-100419199D01*
X135012547Y-100250832D01*
X135070940Y-100071118D01*
X135079029Y-100020044D01*
X135100500Y-99884486D01*
X135100500Y-99695513D01*
X135849500Y-99695513D01*
X135849500Y-99884486D01*
X135879059Y-100071118D01*
X135937454Y-100250836D01*
X136011647Y-100396446D01*
X136023240Y-100419199D01*
X136134310Y-100572073D01*
X136267927Y-100705690D01*
X136420801Y-100816760D01*
X136500347Y-100857290D01*
X136589163Y-100902545D01*
X136589165Y-100902545D01*
X136589168Y-100902547D01*
X136685497Y-100933846D01*
X136768881Y-100960940D01*
X136955514Y-100990500D01*
X136955519Y-100990500D01*
X137144486Y-100990500D01*
X137331118Y-100960940D01*
X137510832Y-100902547D01*
X137679199Y-100816760D01*
X137832073Y-100705690D01*
X137965690Y-100572073D01*
X138076760Y-100419199D01*
X138162547Y-100250832D01*
X138220940Y-100071118D01*
X138229029Y-100020044D01*
X138250500Y-99884486D01*
X138250500Y-99695513D01*
X138999500Y-99695513D01*
X138999500Y-99884486D01*
X139029059Y-100071118D01*
X139087454Y-100250836D01*
X139161647Y-100396446D01*
X139173240Y-100419199D01*
X139284310Y-100572073D01*
X139417927Y-100705690D01*
X139570801Y-100816760D01*
X139650347Y-100857290D01*
X139739163Y-100902545D01*
X139739165Y-100902545D01*
X139739168Y-100902547D01*
X139835497Y-100933846D01*
X139918881Y-100960940D01*
X140105514Y-100990500D01*
X140105519Y-100990500D01*
X140294486Y-100990500D01*
X140481118Y-100960940D01*
X140660832Y-100902547D01*
X140829199Y-100816760D01*
X140982073Y-100705690D01*
X141115690Y-100572073D01*
X141226760Y-100419199D01*
X141312547Y-100250832D01*
X141370940Y-100071118D01*
X141379029Y-100020044D01*
X141400500Y-99884486D01*
X141400500Y-99695513D01*
X142149500Y-99695513D01*
X142149500Y-99884486D01*
X142179059Y-100071118D01*
X142237454Y-100250836D01*
X142311647Y-100396446D01*
X142323240Y-100419199D01*
X142434310Y-100572073D01*
X142567927Y-100705690D01*
X142720801Y-100816760D01*
X142800347Y-100857290D01*
X142889163Y-100902545D01*
X142889165Y-100902545D01*
X142889168Y-100902547D01*
X142985497Y-100933846D01*
X143068881Y-100960940D01*
X143255514Y-100990500D01*
X143255519Y-100990500D01*
X143444486Y-100990500D01*
X143631118Y-100960940D01*
X143810832Y-100902547D01*
X143979199Y-100816760D01*
X144132073Y-100705690D01*
X144265690Y-100572073D01*
X144376760Y-100419199D01*
X144462547Y-100250832D01*
X144520940Y-100071118D01*
X144529029Y-100020044D01*
X144550500Y-99884486D01*
X144550500Y-99695513D01*
X145299500Y-99695513D01*
X145299500Y-99884486D01*
X145329059Y-100071118D01*
X145387454Y-100250836D01*
X145461647Y-100396446D01*
X145473240Y-100419199D01*
X145584310Y-100572073D01*
X145717927Y-100705690D01*
X145870801Y-100816760D01*
X145950347Y-100857290D01*
X146039163Y-100902545D01*
X146039165Y-100902545D01*
X146039168Y-100902547D01*
X146135497Y-100933846D01*
X146218881Y-100960940D01*
X146405514Y-100990500D01*
X146405519Y-100990500D01*
X146594486Y-100990500D01*
X146781118Y-100960940D01*
X146960832Y-100902547D01*
X147129199Y-100816760D01*
X147282073Y-100705690D01*
X147415690Y-100572073D01*
X147526760Y-100419199D01*
X147612547Y-100250832D01*
X147670940Y-100071118D01*
X147679029Y-100020044D01*
X147700500Y-99884486D01*
X147700500Y-99695513D01*
X147670940Y-99508881D01*
X147663347Y-99485513D01*
X149249500Y-99485513D01*
X149249500Y-99674486D01*
X149279059Y-99861118D01*
X149337454Y-100040836D01*
X149405040Y-100173480D01*
X149423240Y-100209199D01*
X149534310Y-100362073D01*
X149667927Y-100495690D01*
X149798386Y-100590474D01*
X149841051Y-100645803D01*
X149849500Y-100690791D01*
X149849500Y-102963330D01*
X149849499Y-102963348D01*
X149849499Y-103129054D01*
X149849498Y-103129054D01*
X149849499Y-103129057D01*
X149890423Y-103281785D01*
X149890424Y-103281787D01*
X149890423Y-103281787D01*
X149896553Y-103292403D01*
X149896554Y-103292404D01*
X149969477Y-103418712D01*
X149969481Y-103418717D01*
X150088349Y-103537585D01*
X150088355Y-103537590D01*
X154535139Y-107984374D01*
X154535149Y-107984385D01*
X154539479Y-107988715D01*
X154539480Y-107988716D01*
X154651284Y-108100520D01*
X154738095Y-108150639D01*
X154738097Y-108150641D01*
X154776151Y-108172611D01*
X154788215Y-108179577D01*
X154940943Y-108220501D01*
X154940946Y-108220501D01*
X155106653Y-108220501D01*
X155106669Y-108220500D01*
X180339555Y-108220500D01*
X180406594Y-108240185D01*
X180427236Y-108256819D01*
X182060274Y-109889857D01*
X182093759Y-109951180D01*
X182090524Y-110015855D01*
X182067698Y-110086106D01*
X182033213Y-110303839D01*
X182033213Y-110524282D01*
X182067698Y-110742013D01*
X182135816Y-110951664D01*
X182135817Y-110951667D01*
X182235900Y-111148086D01*
X182365465Y-111326419D01*
X182365469Y-111326424D01*
X182416029Y-111376984D01*
X182449514Y-111438307D01*
X182444530Y-111507999D01*
X182402658Y-111563932D01*
X182371682Y-111580846D01*
X182291631Y-111610704D01*
X182291619Y-111610710D01*
X182176525Y-111696870D01*
X182176522Y-111696873D01*
X182090362Y-111811967D01*
X182090358Y-111811974D01*
X182040116Y-111946681D01*
X182040114Y-111946688D01*
X182033713Y-112006216D01*
X182033713Y-112704061D01*
X183058435Y-112704061D01*
X183014380Y-112780367D01*
X182983713Y-112894817D01*
X182983713Y-113013305D01*
X183014380Y-113127755D01*
X183058435Y-113204061D01*
X182033713Y-113204061D01*
X182033713Y-113901905D01*
X182040114Y-113961433D01*
X182040116Y-113961440D01*
X182090358Y-114096147D01*
X182090362Y-114096154D01*
X182176522Y-114211248D01*
X182176525Y-114211251D01*
X182291619Y-114297411D01*
X182291626Y-114297415D01*
X182426333Y-114347657D01*
X182426340Y-114347659D01*
X182485868Y-114354060D01*
X182485885Y-114354061D01*
X183183713Y-114354061D01*
X183183713Y-113329338D01*
X183260019Y-113373394D01*
X183374469Y-113404061D01*
X183492957Y-113404061D01*
X183607407Y-113373394D01*
X183683713Y-113329338D01*
X183683713Y-114354061D01*
X184381541Y-114354061D01*
X184381557Y-114354060D01*
X184441085Y-114347659D01*
X184441092Y-114347657D01*
X184575799Y-114297415D01*
X184575806Y-114297411D01*
X184690900Y-114211251D01*
X184690903Y-114211248D01*
X184777063Y-114096154D01*
X184777067Y-114096147D01*
X184827309Y-113961440D01*
X184827311Y-113961433D01*
X184833712Y-113901905D01*
X184833713Y-113901888D01*
X184833713Y-113204061D01*
X183808991Y-113204061D01*
X183853046Y-113127755D01*
X183883713Y-113013305D01*
X183883713Y-112894817D01*
X183853046Y-112780367D01*
X183808991Y-112704061D01*
X184833713Y-112704061D01*
X184833713Y-112006233D01*
X184833712Y-112006216D01*
X184827311Y-111946688D01*
X184827309Y-111946681D01*
X184777067Y-111811974D01*
X184777063Y-111811967D01*
X184690903Y-111696873D01*
X184690900Y-111696870D01*
X184575806Y-111610710D01*
X184575800Y-111610707D01*
X184495743Y-111580847D01*
X184439810Y-111538975D01*
X184415393Y-111473511D01*
X184430245Y-111405238D01*
X184451394Y-111376986D01*
X184501955Y-111326426D01*
X184631528Y-111148083D01*
X184731608Y-110951667D01*
X184799728Y-110742012D01*
X184834213Y-110524283D01*
X184834213Y-110303839D01*
X184799728Y-110086110D01*
X184731608Y-109876455D01*
X184731608Y-109876454D01*
X184696950Y-109808436D01*
X184631528Y-109680039D01*
X184614973Y-109657253D01*
X184501960Y-109501702D01*
X184501956Y-109501697D01*
X184346076Y-109345817D01*
X184346071Y-109345813D01*
X184167738Y-109216248D01*
X184167737Y-109216247D01*
X184167735Y-109216246D01*
X184104809Y-109184183D01*
X183971319Y-109116165D01*
X183971316Y-109116164D01*
X183761665Y-109048046D01*
X183652799Y-109030803D01*
X183543935Y-109013561D01*
X183323491Y-109013561D01*
X183279945Y-109020458D01*
X183105758Y-109048046D01*
X183035507Y-109070872D01*
X182965666Y-109072867D01*
X182909509Y-109040622D01*
X181127242Y-107258355D01*
X181127240Y-107258352D01*
X181008369Y-107139481D01*
X181008368Y-107139480D01*
X180921556Y-107089360D01*
X180921556Y-107089359D01*
X180921552Y-107089358D01*
X180871437Y-107060423D01*
X180718709Y-107019499D01*
X180560595Y-107019499D01*
X180552999Y-107019499D01*
X180552983Y-107019500D01*
X155320097Y-107019500D01*
X155253058Y-106999815D01*
X155232416Y-106983181D01*
X151086819Y-102837584D01*
X151053334Y-102776261D01*
X151050500Y-102749903D01*
X151050500Y-101639778D01*
X156099500Y-101639778D01*
X156099500Y-101860221D01*
X156133985Y-102077952D01*
X156202103Y-102287603D01*
X156202104Y-102287606D01*
X156269243Y-102419371D01*
X156281513Y-102443452D01*
X156302187Y-102484025D01*
X156431752Y-102662358D01*
X156431756Y-102662363D01*
X156587636Y-102818243D01*
X156587641Y-102818247D01*
X156743192Y-102931260D01*
X156765978Y-102947815D01*
X156894375Y-103013237D01*
X156962393Y-103047895D01*
X156962396Y-103047896D01*
X157067221Y-103081955D01*
X157172049Y-103116015D01*
X157389778Y-103150500D01*
X157389779Y-103150500D01*
X157610221Y-103150500D01*
X157610222Y-103150500D01*
X157827951Y-103116015D01*
X158037606Y-103047895D01*
X158234022Y-102947815D01*
X158412365Y-102818242D01*
X158568242Y-102662365D01*
X158697815Y-102484022D01*
X158797895Y-102287606D01*
X158866015Y-102077951D01*
X158900500Y-101860222D01*
X158900500Y-101686289D01*
X164917261Y-101686289D01*
X164917262Y-101686290D01*
X164923471Y-101690801D01*
X165077742Y-101769408D01*
X165242415Y-101822914D01*
X165413429Y-101850000D01*
X165586571Y-101850000D01*
X165757584Y-101822914D01*
X165922257Y-101769408D01*
X166076525Y-101690803D01*
X166082736Y-101686289D01*
X166082737Y-101686289D01*
X165500001Y-101103553D01*
X165500000Y-101103553D01*
X164917261Y-101686289D01*
X158900500Y-101686289D01*
X158900500Y-101639778D01*
X158866015Y-101422049D01*
X158797895Y-101212394D01*
X158797895Y-101212393D01*
X158715150Y-101050000D01*
X158697815Y-101015978D01*
X158622483Y-100912292D01*
X158568247Y-100837641D01*
X158568243Y-100837636D01*
X158517683Y-100787076D01*
X158501552Y-100757535D01*
X158484782Y-100728310D01*
X158484850Y-100726947D01*
X158484198Y-100725753D01*
X158486600Y-100692163D01*
X158488046Y-100663428D01*
X164400000Y-100663428D01*
X164400000Y-100836571D01*
X164427085Y-101007584D01*
X164480592Y-101172259D01*
X164559196Y-101326525D01*
X164563709Y-101332736D01*
X164563709Y-101332737D01*
X165146446Y-100750001D01*
X165146446Y-100749999D01*
X165106951Y-100710504D01*
X165200000Y-100710504D01*
X165200000Y-100789496D01*
X165220444Y-100865796D01*
X165259940Y-100934205D01*
X165315795Y-100990060D01*
X165384204Y-101029556D01*
X165460504Y-101050000D01*
X165539496Y-101050000D01*
X165615796Y-101029556D01*
X165684205Y-100990060D01*
X165740060Y-100934205D01*
X165779556Y-100865796D01*
X165800000Y-100789496D01*
X165800000Y-100749999D01*
X165853553Y-100749999D01*
X165853553Y-100750000D01*
X166436289Y-101332736D01*
X166487007Y-101328747D01*
X166555384Y-101343113D01*
X166597049Y-101379479D01*
X166656852Y-101461789D01*
X166660586Y-101466928D01*
X166783072Y-101589414D01*
X166923212Y-101691232D01*
X167077555Y-101769873D01*
X167242299Y-101823402D01*
X167413389Y-101850500D01*
X167413390Y-101850500D01*
X167586610Y-101850500D01*
X167586611Y-101850500D01*
X167757701Y-101823402D01*
X167922445Y-101769873D01*
X168076788Y-101691232D01*
X168216928Y-101589414D01*
X168339414Y-101466928D01*
X168441232Y-101326788D01*
X168519873Y-101172445D01*
X168573402Y-101007701D01*
X168600500Y-100836611D01*
X168600500Y-100663389D01*
X168573402Y-100492299D01*
X168519873Y-100327555D01*
X168441232Y-100173212D01*
X168339414Y-100033072D01*
X168216928Y-99910586D01*
X168076788Y-99808768D01*
X167922447Y-99730128D01*
X167922446Y-99730127D01*
X167922445Y-99730127D01*
X167757701Y-99676598D01*
X167757699Y-99676597D01*
X167757698Y-99676597D01*
X167626271Y-99655781D01*
X167586611Y-99649500D01*
X167413389Y-99649500D01*
X167373728Y-99655781D01*
X167242302Y-99676597D01*
X167077552Y-99730128D01*
X166923211Y-99808768D01*
X166851159Y-99861118D01*
X166783072Y-99910586D01*
X166783070Y-99910588D01*
X166783069Y-99910588D01*
X166660588Y-100033069D01*
X166660581Y-100033078D01*
X166597049Y-100120521D01*
X166541719Y-100163187D01*
X166487003Y-100171253D01*
X166436289Y-100167261D01*
X165853553Y-100749999D01*
X165800000Y-100749999D01*
X165800000Y-100710504D01*
X165779556Y-100634204D01*
X165740060Y-100565795D01*
X165684205Y-100509940D01*
X165615796Y-100470444D01*
X165539496Y-100450000D01*
X165460504Y-100450000D01*
X165384204Y-100470444D01*
X165315795Y-100509940D01*
X165259940Y-100565795D01*
X165220444Y-100634204D01*
X165200000Y-100710504D01*
X165106951Y-100710504D01*
X164563709Y-100167261D01*
X164563708Y-100167261D01*
X164559203Y-100173463D01*
X164559193Y-100173480D01*
X164480592Y-100327740D01*
X164427085Y-100492415D01*
X164400000Y-100663428D01*
X158488046Y-100663428D01*
X158488292Y-100658528D01*
X158489084Y-100657420D01*
X158489182Y-100656061D01*
X158509370Y-100629092D01*
X158528971Y-100601722D01*
X158530502Y-100600864D01*
X158531054Y-100600128D01*
X158559583Y-100584156D01*
X158647710Y-100549145D01*
X158757187Y-100467190D01*
X158757190Y-100467187D01*
X158843350Y-100352093D01*
X158843354Y-100352086D01*
X158893596Y-100217379D01*
X158893598Y-100217372D01*
X158899999Y-100157844D01*
X158900000Y-100157827D01*
X158900000Y-99813708D01*
X164917261Y-99813708D01*
X164917261Y-99813709D01*
X165500000Y-100396446D01*
X165500001Y-100396446D01*
X166082737Y-99813709D01*
X166076525Y-99809196D01*
X165922259Y-99730592D01*
X165757584Y-99677085D01*
X165586571Y-99650000D01*
X165413429Y-99650000D01*
X165242415Y-99677085D01*
X165077740Y-99730592D01*
X164923480Y-99809193D01*
X164923463Y-99809203D01*
X164917261Y-99813708D01*
X158900000Y-99813708D01*
X158900000Y-99460000D01*
X157875278Y-99460000D01*
X157919333Y-99383694D01*
X157950000Y-99269244D01*
X157950000Y-99150756D01*
X157919333Y-99036306D01*
X157875278Y-98960000D01*
X158900000Y-98960000D01*
X158900000Y-98262172D01*
X158899999Y-98262155D01*
X158893598Y-98202627D01*
X158893596Y-98202620D01*
X158843354Y-98067913D01*
X158843350Y-98067906D01*
X158757190Y-97952812D01*
X158757187Y-97952809D01*
X158642093Y-97866649D01*
X158642086Y-97866645D01*
X158523694Y-97822488D01*
X158507379Y-97816403D01*
X158507372Y-97816401D01*
X158447844Y-97810000D01*
X157750000Y-97810000D01*
X157750000Y-98834722D01*
X157673694Y-98790667D01*
X157559244Y-98760000D01*
X157440756Y-98760000D01*
X157326306Y-98790667D01*
X157250000Y-98834722D01*
X157250000Y-97810000D01*
X156552155Y-97810000D01*
X156492627Y-97816401D01*
X156492620Y-97816403D01*
X156357913Y-97866645D01*
X156357906Y-97866649D01*
X156242812Y-97952809D01*
X156242809Y-97952812D01*
X156156649Y-98067906D01*
X156156645Y-98067913D01*
X156106403Y-98202620D01*
X156106401Y-98202627D01*
X156100000Y-98262155D01*
X156100000Y-98960000D01*
X157124722Y-98960000D01*
X157080667Y-99036306D01*
X157050000Y-99150756D01*
X157050000Y-99269244D01*
X157080667Y-99383694D01*
X157124722Y-99460000D01*
X156100000Y-99460000D01*
X156100000Y-100157844D01*
X156106401Y-100217372D01*
X156106403Y-100217379D01*
X156156645Y-100352086D01*
X156156649Y-100352093D01*
X156242809Y-100467187D01*
X156242812Y-100467190D01*
X156357906Y-100553350D01*
X156357913Y-100553354D01*
X156437968Y-100583213D01*
X156493902Y-100625084D01*
X156518319Y-100690549D01*
X156503467Y-100758822D01*
X156482317Y-100787075D01*
X156431756Y-100837636D01*
X156431752Y-100837641D01*
X156302187Y-101015974D01*
X156202104Y-101212393D01*
X156202103Y-101212396D01*
X156133985Y-101422047D01*
X156099500Y-101639778D01*
X151050500Y-101639778D01*
X151050500Y-100690791D01*
X151070185Y-100623752D01*
X151101612Y-100590475D01*
X151232073Y-100495690D01*
X151365690Y-100362073D01*
X151476760Y-100209199D01*
X151562547Y-100040832D01*
X151620940Y-99861118D01*
X151628449Y-99813708D01*
X151650500Y-99674486D01*
X151650500Y-99485513D01*
X151620940Y-99298881D01*
X151593846Y-99215497D01*
X151562547Y-99119168D01*
X151562545Y-99119165D01*
X151562545Y-99119163D01*
X151505866Y-99007925D01*
X151476760Y-98950801D01*
X151365690Y-98797927D01*
X151232073Y-98664310D01*
X151079199Y-98553240D01*
X150910836Y-98467454D01*
X150731118Y-98409059D01*
X150556003Y-98381324D01*
X150556002Y-98381323D01*
X150544487Y-98379500D01*
X150544481Y-98379500D01*
X150355519Y-98379500D01*
X150355514Y-98379500D01*
X150168881Y-98409059D01*
X149989163Y-98467454D01*
X149820800Y-98553240D01*
X149733579Y-98616610D01*
X149667927Y-98664310D01*
X149667925Y-98664312D01*
X149667924Y-98664312D01*
X149534312Y-98797924D01*
X149534312Y-98797925D01*
X149534310Y-98797927D01*
X149500091Y-98845025D01*
X149423240Y-98950800D01*
X149337454Y-99119163D01*
X149279059Y-99298881D01*
X149249500Y-99485513D01*
X147663347Y-99485513D01*
X147612545Y-99329163D01*
X147526759Y-99160800D01*
X147415690Y-99007927D01*
X147282073Y-98874310D01*
X147129199Y-98763240D01*
X147122840Y-98760000D01*
X146960836Y-98677454D01*
X146781118Y-98619059D01*
X146594486Y-98589500D01*
X146594481Y-98589500D01*
X146405519Y-98589500D01*
X146405514Y-98589500D01*
X146218881Y-98619059D01*
X146039163Y-98677454D01*
X145870800Y-98763240D01*
X145783579Y-98826610D01*
X145717927Y-98874310D01*
X145717925Y-98874312D01*
X145717924Y-98874312D01*
X145584312Y-99007924D01*
X145584312Y-99007925D01*
X145584310Y-99007927D01*
X145554105Y-99049501D01*
X145473240Y-99160800D01*
X145387454Y-99329163D01*
X145329059Y-99508881D01*
X145299500Y-99695513D01*
X144550500Y-99695513D01*
X144520940Y-99508881D01*
X144462545Y-99329163D01*
X144376759Y-99160800D01*
X144265690Y-99007927D01*
X144132073Y-98874310D01*
X143979199Y-98763240D01*
X143972840Y-98760000D01*
X143810836Y-98677454D01*
X143631118Y-98619059D01*
X143444486Y-98589500D01*
X143444481Y-98589500D01*
X143255519Y-98589500D01*
X143255514Y-98589500D01*
X143068881Y-98619059D01*
X142889163Y-98677454D01*
X142720800Y-98763240D01*
X142633579Y-98826610D01*
X142567927Y-98874310D01*
X142567925Y-98874312D01*
X142567924Y-98874312D01*
X142434312Y-99007924D01*
X142434312Y-99007925D01*
X142434310Y-99007927D01*
X142404105Y-99049501D01*
X142323240Y-99160800D01*
X142237454Y-99329163D01*
X142179059Y-99508881D01*
X142149500Y-99695513D01*
X141400500Y-99695513D01*
X141370940Y-99508881D01*
X141312545Y-99329163D01*
X141226759Y-99160800D01*
X141115690Y-99007927D01*
X140982073Y-98874310D01*
X140829199Y-98763240D01*
X140822840Y-98760000D01*
X140660836Y-98677454D01*
X140481118Y-98619059D01*
X140294486Y-98589500D01*
X140294481Y-98589500D01*
X140105519Y-98589500D01*
X140105514Y-98589500D01*
X139918881Y-98619059D01*
X139739163Y-98677454D01*
X139570800Y-98763240D01*
X139483579Y-98826610D01*
X139417927Y-98874310D01*
X139417925Y-98874312D01*
X139417924Y-98874312D01*
X139284312Y-99007924D01*
X139284312Y-99007925D01*
X139284310Y-99007927D01*
X139254105Y-99049501D01*
X139173240Y-99160800D01*
X139087454Y-99329163D01*
X139029059Y-99508881D01*
X138999500Y-99695513D01*
X138250500Y-99695513D01*
X138220940Y-99508881D01*
X138162545Y-99329163D01*
X138076759Y-99160800D01*
X137965690Y-99007927D01*
X137832073Y-98874310D01*
X137679199Y-98763240D01*
X137672840Y-98760000D01*
X137510836Y-98677454D01*
X137331118Y-98619059D01*
X137144486Y-98589500D01*
X137144481Y-98589500D01*
X136955519Y-98589500D01*
X136955514Y-98589500D01*
X136768881Y-98619059D01*
X136589163Y-98677454D01*
X136420800Y-98763240D01*
X136333579Y-98826610D01*
X136267927Y-98874310D01*
X136267925Y-98874312D01*
X136267924Y-98874312D01*
X136134312Y-99007924D01*
X136134312Y-99007925D01*
X136134310Y-99007927D01*
X136104105Y-99049501D01*
X136023240Y-99160800D01*
X135937454Y-99329163D01*
X135879059Y-99508881D01*
X135849500Y-99695513D01*
X135100500Y-99695513D01*
X135070940Y-99508881D01*
X135012545Y-99329163D01*
X134926759Y-99160800D01*
X134815690Y-99007927D01*
X134682073Y-98874310D01*
X134529199Y-98763240D01*
X134522840Y-98760000D01*
X134360836Y-98677454D01*
X134181118Y-98619059D01*
X133994486Y-98589500D01*
X133994481Y-98589500D01*
X133805519Y-98589500D01*
X133805514Y-98589500D01*
X133618881Y-98619059D01*
X133439163Y-98677454D01*
X133270800Y-98763240D01*
X133183579Y-98826610D01*
X133117927Y-98874310D01*
X133117925Y-98874312D01*
X133117924Y-98874312D01*
X132984312Y-99007924D01*
X132984312Y-99007925D01*
X132984310Y-99007927D01*
X132954105Y-99049501D01*
X132873240Y-99160800D01*
X132787454Y-99329163D01*
X132729059Y-99508881D01*
X132699500Y-99695513D01*
X131950500Y-99695513D01*
X131920940Y-99508881D01*
X131862545Y-99329163D01*
X131776759Y-99160800D01*
X131665690Y-99007927D01*
X131532073Y-98874310D01*
X131379199Y-98763240D01*
X131372840Y-98760000D01*
X131210836Y-98677454D01*
X131031118Y-98619059D01*
X130844486Y-98589500D01*
X130844481Y-98589500D01*
X130655519Y-98589500D01*
X130655514Y-98589500D01*
X130468881Y-98619059D01*
X130289163Y-98677454D01*
X130120800Y-98763240D01*
X130033579Y-98826610D01*
X129967927Y-98874310D01*
X129967925Y-98874312D01*
X129967924Y-98874312D01*
X129834312Y-99007924D01*
X129834312Y-99007925D01*
X129834310Y-99007927D01*
X129804105Y-99049501D01*
X129723240Y-99160800D01*
X129637454Y-99329163D01*
X129579059Y-99508881D01*
X129549500Y-99695513D01*
X128800500Y-99695513D01*
X128770940Y-99508881D01*
X128712545Y-99329163D01*
X128626759Y-99160800D01*
X128515690Y-99007927D01*
X128382073Y-98874310D01*
X128229199Y-98763240D01*
X128222840Y-98760000D01*
X128060836Y-98677454D01*
X127881118Y-98619059D01*
X127694486Y-98589500D01*
X127694481Y-98589500D01*
X127505519Y-98589500D01*
X127505514Y-98589500D01*
X127318881Y-98619059D01*
X127139163Y-98677454D01*
X126970800Y-98763240D01*
X126883579Y-98826610D01*
X126817927Y-98874310D01*
X126817925Y-98874312D01*
X126817924Y-98874312D01*
X126684312Y-99007924D01*
X126684312Y-99007925D01*
X126684310Y-99007927D01*
X126654105Y-99049501D01*
X126573240Y-99160800D01*
X126487454Y-99329163D01*
X126429059Y-99508881D01*
X126399500Y-99695513D01*
X123000500Y-99695513D01*
X123000500Y-97709635D01*
X170799500Y-97709635D01*
X170799500Y-99710370D01*
X170799501Y-99710376D01*
X170805908Y-99769983D01*
X170856202Y-99904828D01*
X170856206Y-99904835D01*
X170942452Y-100020044D01*
X170942455Y-100020047D01*
X171057664Y-100106293D01*
X171057667Y-100106295D01*
X171057668Y-100106295D01*
X171057669Y-100106296D01*
X171086025Y-100116872D01*
X171141958Y-100158742D01*
X171166376Y-100224206D01*
X171151525Y-100292479D01*
X171143010Y-100305939D01*
X171010213Y-100488719D01*
X170906417Y-100692429D01*
X170835765Y-100909871D01*
X170821491Y-101000000D01*
X171809252Y-101000000D01*
X171787482Y-101037708D01*
X171750000Y-101177591D01*
X171750000Y-101322409D01*
X171787482Y-101462292D01*
X171809252Y-101500000D01*
X170821491Y-101500000D01*
X170835765Y-101590128D01*
X170906417Y-101807570D01*
X171010211Y-102011276D01*
X171144597Y-102196242D01*
X171306257Y-102357902D01*
X171306263Y-102357907D01*
X171390863Y-102419372D01*
X171433529Y-102474701D01*
X171439508Y-102544315D01*
X171406903Y-102606110D01*
X171390864Y-102620007D01*
X171305940Y-102681709D01*
X171305931Y-102681716D01*
X171144216Y-102843431D01*
X171144216Y-102843432D01*
X171144214Y-102843434D01*
X171086480Y-102922896D01*
X171009783Y-103028461D01*
X170905950Y-103232244D01*
X170835278Y-103449750D01*
X170835278Y-103449753D01*
X170799500Y-103675646D01*
X170799500Y-103904353D01*
X170835278Y-104130246D01*
X170835278Y-104130249D01*
X170905950Y-104347755D01*
X171004762Y-104541683D01*
X171009783Y-104551538D01*
X171144214Y-104736566D01*
X171305934Y-104898286D01*
X171490962Y-105032717D01*
X171596527Y-105086505D01*
X171694744Y-105136549D01*
X171912251Y-105207221D01*
X171912252Y-105207221D01*
X171912255Y-105207222D01*
X172138146Y-105243000D01*
X172138147Y-105243000D01*
X172461853Y-105243000D01*
X172461854Y-105243000D01*
X172687745Y-105207222D01*
X172687748Y-105207221D01*
X172687749Y-105207221D01*
X172905255Y-105136549D01*
X172905255Y-105136548D01*
X172905258Y-105136548D01*
X173109038Y-105032717D01*
X173294066Y-104898286D01*
X173455786Y-104736566D01*
X173590217Y-104551538D01*
X173694048Y-104347758D01*
X173764722Y-104130245D01*
X173800500Y-103904354D01*
X173800500Y-103675646D01*
X173764722Y-103449755D01*
X173764721Y-103449751D01*
X173764721Y-103449750D01*
X173723594Y-103323172D01*
X173712459Y-103288905D01*
X181720000Y-103288905D01*
X181720000Y-103551094D01*
X181754220Y-103811009D01*
X181754222Y-103811020D01*
X181822075Y-104064255D01*
X181922404Y-104306471D01*
X181922409Y-104306482D01*
X182053488Y-104533516D01*
X182053494Y-104533524D01*
X182140080Y-104646365D01*
X182747912Y-104038532D01*
X182842829Y-104169175D01*
X182970825Y-104297171D01*
X183101465Y-104392086D01*
X182493633Y-104999917D01*
X182493633Y-104999918D01*
X182606475Y-105086505D01*
X182606483Y-105086511D01*
X182833517Y-105217590D01*
X182833528Y-105217595D01*
X183075744Y-105317924D01*
X183328979Y-105385777D01*
X183328990Y-105385779D01*
X183588905Y-105419999D01*
X183588920Y-105420000D01*
X183851080Y-105420000D01*
X183851094Y-105419999D01*
X184111009Y-105385779D01*
X184111020Y-105385777D01*
X184364255Y-105317924D01*
X184606471Y-105217595D01*
X184606482Y-105217590D01*
X184833516Y-105086511D01*
X184833534Y-105086499D01*
X184946365Y-104999919D01*
X184946365Y-104999917D01*
X184338534Y-104392086D01*
X184469175Y-104297171D01*
X184597171Y-104169175D01*
X184692086Y-104038534D01*
X185299917Y-104646365D01*
X185299919Y-104646365D01*
X185386499Y-104533534D01*
X185386511Y-104533516D01*
X185517590Y-104306482D01*
X185517595Y-104306471D01*
X185617924Y-104064255D01*
X185685777Y-103811020D01*
X185685779Y-103811009D01*
X185719999Y-103551094D01*
X185720000Y-103551080D01*
X185720000Y-103288919D01*
X185719999Y-103288905D01*
X185685779Y-103028990D01*
X185685777Y-103028979D01*
X185617924Y-102775744D01*
X185517595Y-102533528D01*
X185517590Y-102533517D01*
X185386511Y-102306483D01*
X185386505Y-102306475D01*
X185299918Y-102193633D01*
X185299917Y-102193633D01*
X184692085Y-102801464D01*
X184597171Y-102670825D01*
X184469175Y-102542829D01*
X184338532Y-102447912D01*
X184946365Y-101840080D01*
X184833524Y-101753494D01*
X184833516Y-101753488D01*
X184606482Y-101622409D01*
X184606471Y-101622404D01*
X184364255Y-101522075D01*
X184111020Y-101454222D01*
X184111009Y-101454220D01*
X183851094Y-101420000D01*
X183588905Y-101420000D01*
X183328990Y-101454220D01*
X183328979Y-101454222D01*
X183075744Y-101522075D01*
X182833528Y-101622404D01*
X182833517Y-101622409D01*
X182606471Y-101753496D01*
X182493633Y-101840079D01*
X182493633Y-101840080D01*
X183101466Y-102447913D01*
X182970825Y-102542829D01*
X182842829Y-102670825D01*
X182747913Y-102801466D01*
X182140080Y-102193633D01*
X182140079Y-102193633D01*
X182053496Y-102306471D01*
X181922409Y-102533517D01*
X181922404Y-102533528D01*
X181822075Y-102775744D01*
X181754222Y-103028979D01*
X181754220Y-103028990D01*
X181720000Y-103288905D01*
X173712459Y-103288905D01*
X173700513Y-103252141D01*
X173694048Y-103232242D01*
X173590217Y-103028462D01*
X173455786Y-102843434D01*
X173294066Y-102681714D01*
X173209134Y-102620007D01*
X173166470Y-102564678D01*
X173160491Y-102495064D01*
X173193097Y-102433269D01*
X173209137Y-102419371D01*
X173293739Y-102357905D01*
X173455402Y-102196242D01*
X173589788Y-102011276D01*
X173681268Y-101831738D01*
X173693581Y-101807570D01*
X173764234Y-101590128D01*
X173778509Y-101500000D01*
X172790748Y-101500000D01*
X172812518Y-101462292D01*
X172850000Y-101322409D01*
X172850000Y-101177591D01*
X172812518Y-101037708D01*
X172790748Y-101000000D01*
X173778509Y-101000000D01*
X173764234Y-100909871D01*
X173693582Y-100692429D01*
X173589788Y-100488723D01*
X173456988Y-100305940D01*
X173433508Y-100240133D01*
X173449333Y-100172079D01*
X173499439Y-100123384D01*
X173513966Y-100116875D01*
X173542331Y-100106296D01*
X173657546Y-100020046D01*
X173743796Y-99904831D01*
X173794091Y-99769983D01*
X173800500Y-99710373D01*
X173800499Y-97709628D01*
X173794091Y-97650017D01*
X173743796Y-97515169D01*
X173743795Y-97515168D01*
X173743793Y-97515164D01*
X173657547Y-97399955D01*
X173657544Y-97399952D01*
X173542335Y-97313706D01*
X173542328Y-97313702D01*
X173407482Y-97263408D01*
X173407483Y-97263408D01*
X173347883Y-97257001D01*
X173347881Y-97257000D01*
X173347873Y-97257000D01*
X173347864Y-97257000D01*
X171252129Y-97257000D01*
X171252123Y-97257001D01*
X171192516Y-97263408D01*
X171057671Y-97313702D01*
X171057664Y-97313706D01*
X170942455Y-97399952D01*
X170942452Y-97399955D01*
X170856206Y-97515164D01*
X170856202Y-97515171D01*
X170805908Y-97650017D01*
X170799501Y-97709616D01*
X170799501Y-97709623D01*
X170799500Y-97709635D01*
X123000500Y-97709635D01*
X123000500Y-94615513D01*
X126399500Y-94615513D01*
X126399500Y-94804486D01*
X126429059Y-94991118D01*
X126487454Y-95170836D01*
X126544133Y-95282073D01*
X126573240Y-95339199D01*
X126684310Y-95492073D01*
X126817927Y-95625690D01*
X126970801Y-95736760D01*
X127050347Y-95777290D01*
X127139163Y-95822545D01*
X127139165Y-95822545D01*
X127139168Y-95822547D01*
X127235497Y-95853846D01*
X127318881Y-95880940D01*
X127505514Y-95910500D01*
X127505519Y-95910500D01*
X127694486Y-95910500D01*
X127881118Y-95880940D01*
X128060832Y-95822547D01*
X128229199Y-95736760D01*
X128382073Y-95625690D01*
X128515690Y-95492073D01*
X128626760Y-95339199D01*
X128712547Y-95170832D01*
X128770940Y-94991118D01*
X128784968Y-94902547D01*
X128800500Y-94804486D01*
X128800500Y-94615513D01*
X129549500Y-94615513D01*
X129549500Y-94804486D01*
X129579059Y-94991118D01*
X129637454Y-95170836D01*
X129694133Y-95282073D01*
X129723240Y-95339199D01*
X129834310Y-95492073D01*
X129967927Y-95625690D01*
X130120801Y-95736760D01*
X130200347Y-95777290D01*
X130289163Y-95822545D01*
X130289165Y-95822545D01*
X130289168Y-95822547D01*
X130385497Y-95853846D01*
X130468881Y-95880940D01*
X130655514Y-95910500D01*
X130655519Y-95910500D01*
X130844486Y-95910500D01*
X131031118Y-95880940D01*
X131210832Y-95822547D01*
X131379199Y-95736760D01*
X131532073Y-95625690D01*
X131665690Y-95492073D01*
X131776760Y-95339199D01*
X131862547Y-95170832D01*
X131920940Y-94991118D01*
X131934968Y-94902547D01*
X131950500Y-94804486D01*
X131950500Y-94615513D01*
X132699500Y-94615513D01*
X132699500Y-94804486D01*
X132729059Y-94991118D01*
X132787454Y-95170836D01*
X132844133Y-95282073D01*
X132873240Y-95339199D01*
X132984310Y-95492073D01*
X133117927Y-95625690D01*
X133270801Y-95736760D01*
X133350347Y-95777290D01*
X133439163Y-95822545D01*
X133439165Y-95822545D01*
X133439168Y-95822547D01*
X133535497Y-95853846D01*
X133618881Y-95880940D01*
X133805514Y-95910500D01*
X133805519Y-95910500D01*
X133994486Y-95910500D01*
X134181118Y-95880940D01*
X134360832Y-95822547D01*
X134529199Y-95736760D01*
X134682073Y-95625690D01*
X134815690Y-95492073D01*
X134926760Y-95339199D01*
X135012547Y-95170832D01*
X135070940Y-94991118D01*
X135084968Y-94902547D01*
X135100500Y-94804486D01*
X135100500Y-94615513D01*
X135849500Y-94615513D01*
X135849500Y-94804486D01*
X135879059Y-94991118D01*
X135937454Y-95170836D01*
X135994133Y-95282073D01*
X136023240Y-95339199D01*
X136134310Y-95492073D01*
X136267927Y-95625690D01*
X136420801Y-95736760D01*
X136500347Y-95777290D01*
X136589163Y-95822545D01*
X136589165Y-95822545D01*
X136589168Y-95822547D01*
X136685497Y-95853846D01*
X136768881Y-95880940D01*
X136955514Y-95910500D01*
X136955519Y-95910500D01*
X137144486Y-95910500D01*
X137331118Y-95880940D01*
X137510832Y-95822547D01*
X137679199Y-95736760D01*
X137832073Y-95625690D01*
X137965690Y-95492073D01*
X138076760Y-95339199D01*
X138162547Y-95170832D01*
X138220940Y-94991118D01*
X138234968Y-94902547D01*
X138250500Y-94804486D01*
X138250500Y-94615513D01*
X138999500Y-94615513D01*
X138999500Y-94804486D01*
X139029059Y-94991118D01*
X139087454Y-95170836D01*
X139144133Y-95282073D01*
X139173240Y-95339199D01*
X139284310Y-95492073D01*
X139417927Y-95625690D01*
X139570801Y-95736760D01*
X139650347Y-95777290D01*
X139739163Y-95822545D01*
X139739165Y-95822545D01*
X139739168Y-95822547D01*
X139835497Y-95853846D01*
X139918881Y-95880940D01*
X140105514Y-95910500D01*
X140105519Y-95910500D01*
X140294486Y-95910500D01*
X140481118Y-95880940D01*
X140660832Y-95822547D01*
X140829199Y-95736760D01*
X140982073Y-95625690D01*
X141115690Y-95492073D01*
X141226760Y-95339199D01*
X141312547Y-95170832D01*
X141370940Y-94991118D01*
X141384968Y-94902547D01*
X141400500Y-94804486D01*
X141400500Y-94615513D01*
X142149500Y-94615513D01*
X142149500Y-94804486D01*
X142179059Y-94991118D01*
X142237454Y-95170836D01*
X142294133Y-95282073D01*
X142323240Y-95339199D01*
X142434310Y-95492073D01*
X142567927Y-95625690D01*
X142720801Y-95736760D01*
X142800347Y-95777290D01*
X142889163Y-95822545D01*
X142889165Y-95822545D01*
X142889168Y-95822547D01*
X142985497Y-95853846D01*
X143068881Y-95880940D01*
X143255514Y-95910500D01*
X143255519Y-95910500D01*
X143444486Y-95910500D01*
X143631118Y-95880940D01*
X143810832Y-95822547D01*
X143979199Y-95736760D01*
X144132073Y-95625690D01*
X144265690Y-95492073D01*
X144376760Y-95339199D01*
X144462547Y-95170832D01*
X144520940Y-94991118D01*
X144534968Y-94902547D01*
X144550500Y-94804486D01*
X144550500Y-94615513D01*
X145299500Y-94615513D01*
X145299500Y-94804486D01*
X145329059Y-94991118D01*
X145387454Y-95170836D01*
X145444133Y-95282073D01*
X145473240Y-95339199D01*
X145584310Y-95492073D01*
X145717927Y-95625690D01*
X145870801Y-95736760D01*
X145950347Y-95777290D01*
X146039163Y-95822545D01*
X146039165Y-95822545D01*
X146039168Y-95822547D01*
X146135497Y-95853846D01*
X146218881Y-95880940D01*
X146405514Y-95910500D01*
X146405519Y-95910500D01*
X146594486Y-95910500D01*
X146781118Y-95880940D01*
X146960832Y-95822547D01*
X147107830Y-95747648D01*
X179709500Y-95747648D01*
X179709500Y-95952351D01*
X179741522Y-96154534D01*
X179804781Y-96349223D01*
X179897715Y-96531613D01*
X180018028Y-96697213D01*
X180083134Y-96762319D01*
X180116619Y-96823642D01*
X180111635Y-96893334D01*
X180083134Y-96937681D01*
X180018032Y-97002782D01*
X180018028Y-97002786D01*
X179897715Y-97168386D01*
X179804781Y-97350776D01*
X179741522Y-97545465D01*
X179715521Y-97709635D01*
X179709500Y-97747648D01*
X179709500Y-97952352D01*
X179709573Y-97952812D01*
X179741522Y-98154534D01*
X179804781Y-98349223D01*
X179897715Y-98531613D01*
X180018028Y-98697213D01*
X180162784Y-98841969D01*
X180166996Y-98845029D01*
X180209663Y-98900359D01*
X180215643Y-98969972D01*
X180183037Y-99031767D01*
X180137445Y-99061530D01*
X180017671Y-99106202D01*
X180017664Y-99106206D01*
X179902455Y-99192452D01*
X179902452Y-99192455D01*
X179816206Y-99307664D01*
X179816202Y-99307671D01*
X179765908Y-99442517D01*
X179761201Y-99486306D01*
X179759501Y-99502123D01*
X179759500Y-99502135D01*
X179759500Y-101197870D01*
X179759501Y-101197876D01*
X179765908Y-101257483D01*
X179816202Y-101392328D01*
X179816206Y-101392335D01*
X179902452Y-101507544D01*
X179902455Y-101507547D01*
X180017664Y-101593793D01*
X180017671Y-101593797D01*
X180152517Y-101644091D01*
X180152516Y-101644091D01*
X180159444Y-101644835D01*
X180212127Y-101650500D01*
X181807872Y-101650499D01*
X181867483Y-101644091D01*
X182002331Y-101593796D01*
X182117546Y-101507546D01*
X182203796Y-101392331D01*
X182254091Y-101257483D01*
X182260500Y-101197873D01*
X182260499Y-99502128D01*
X182254091Y-99442517D01*
X182232151Y-99383694D01*
X182203797Y-99307671D01*
X182203793Y-99307664D01*
X182117547Y-99192455D01*
X182117544Y-99192452D01*
X182002335Y-99106206D01*
X182002328Y-99106202D01*
X181882554Y-99061530D01*
X181826620Y-99019659D01*
X181802203Y-98954195D01*
X181817054Y-98885922D01*
X181853009Y-98845025D01*
X181857215Y-98841969D01*
X181857215Y-98841968D01*
X181857219Y-98841966D01*
X182001966Y-98697219D01*
X182001968Y-98697215D01*
X182001971Y-98697213D01*
X182058752Y-98619059D01*
X182122287Y-98531610D01*
X182215220Y-98349219D01*
X182278477Y-98154534D01*
X182310500Y-97952352D01*
X182310500Y-97747648D01*
X182278477Y-97545466D01*
X182215220Y-97350781D01*
X182215218Y-97350778D01*
X182215218Y-97350776D01*
X182181503Y-97284607D01*
X182122287Y-97168390D01*
X182114556Y-97157749D01*
X182001971Y-97002786D01*
X181936866Y-96937681D01*
X181903381Y-96876358D01*
X181908365Y-96806666D01*
X181936866Y-96762319D01*
X182001966Y-96697219D01*
X182001968Y-96697215D01*
X182001971Y-96697213D01*
X182054732Y-96624590D01*
X182122287Y-96531610D01*
X182215220Y-96349219D01*
X182278477Y-96154534D01*
X182310500Y-95952352D01*
X182310500Y-95747648D01*
X182303032Y-95700500D01*
X182278477Y-95545465D01*
X182215218Y-95350776D01*
X182180211Y-95282073D01*
X182122287Y-95168390D01*
X182114556Y-95157749D01*
X182001971Y-95002786D01*
X181857213Y-94858028D01*
X181691611Y-94737713D01*
X181637621Y-94710203D01*
X181586825Y-94662228D01*
X181570031Y-94594407D01*
X181592569Y-94528272D01*
X181637624Y-94489233D01*
X181691349Y-94461859D01*
X181735922Y-94429474D01*
X181118997Y-93812550D01*
X181193343Y-93792630D01*
X181301657Y-93730095D01*
X181390095Y-93641657D01*
X181452630Y-93533343D01*
X181472550Y-93458998D01*
X182089474Y-94075922D01*
X182089474Y-94075921D01*
X182121859Y-94031349D01*
X182214755Y-93849031D01*
X182277990Y-93654417D01*
X182310000Y-93452317D01*
X182310000Y-93247682D01*
X182277990Y-93045582D01*
X182214755Y-92850968D01*
X182121859Y-92668650D01*
X182089474Y-92624077D01*
X182089474Y-92624076D01*
X181472550Y-93241001D01*
X181452630Y-93166657D01*
X181390095Y-93058343D01*
X181301657Y-92969905D01*
X181193343Y-92907370D01*
X181118996Y-92887449D01*
X181735922Y-92270524D01*
X181735921Y-92270523D01*
X181691359Y-92238147D01*
X181691350Y-92238141D01*
X181509031Y-92145244D01*
X181314417Y-92082009D01*
X181112317Y-92050000D01*
X180907683Y-92050000D01*
X180705582Y-92082009D01*
X180510968Y-92145244D01*
X180328644Y-92238143D01*
X180284077Y-92270523D01*
X180284077Y-92270524D01*
X180901003Y-92887449D01*
X180826657Y-92907370D01*
X180718343Y-92969905D01*
X180629905Y-93058343D01*
X180567370Y-93166657D01*
X180547449Y-93241002D01*
X179930524Y-92624077D01*
X179930523Y-92624077D01*
X179898143Y-92668644D01*
X179805244Y-92850968D01*
X179742009Y-93045582D01*
X179710000Y-93247682D01*
X179710000Y-93452317D01*
X179742009Y-93654417D01*
X179805244Y-93849031D01*
X179898141Y-94031350D01*
X179898147Y-94031359D01*
X179930523Y-94075921D01*
X179930524Y-94075922D01*
X180547449Y-93458997D01*
X180567370Y-93533343D01*
X180629905Y-93641657D01*
X180718343Y-93730095D01*
X180826657Y-93792630D01*
X180901002Y-93812550D01*
X180284076Y-94429474D01*
X180328652Y-94461861D01*
X180382376Y-94489234D01*
X180433172Y-94537208D01*
X180449968Y-94605028D01*
X180427431Y-94671164D01*
X180382379Y-94710203D01*
X180328386Y-94737714D01*
X180162786Y-94858028D01*
X180018028Y-95002786D01*
X179897715Y-95168386D01*
X179804781Y-95350776D01*
X179741522Y-95545465D01*
X179709500Y-95747648D01*
X147107830Y-95747648D01*
X147129199Y-95736760D01*
X147282073Y-95625690D01*
X147415690Y-95492073D01*
X147526760Y-95339199D01*
X147612547Y-95170832D01*
X147670940Y-94991118D01*
X147684968Y-94902547D01*
X147700500Y-94804486D01*
X147700500Y-94615513D01*
X147670940Y-94428881D01*
X147663347Y-94405513D01*
X149249500Y-94405513D01*
X149249500Y-94594486D01*
X149279059Y-94781118D01*
X149337454Y-94960836D01*
X149423240Y-95129199D01*
X149534310Y-95282073D01*
X149667927Y-95415690D01*
X149820801Y-95526760D01*
X149857512Y-95545465D01*
X149989163Y-95612545D01*
X149989165Y-95612545D01*
X149989168Y-95612547D01*
X150029618Y-95625690D01*
X150168881Y-95670940D01*
X150355514Y-95700500D01*
X150355519Y-95700500D01*
X150544486Y-95700500D01*
X150731118Y-95670940D01*
X150910832Y-95612547D01*
X151079199Y-95526760D01*
X151232073Y-95415690D01*
X151365690Y-95282073D01*
X151476760Y-95129199D01*
X151562547Y-94960832D01*
X151620940Y-94781118D01*
X151650500Y-94594486D01*
X151650500Y-94405513D01*
X154469500Y-94405513D01*
X154469500Y-94594486D01*
X154499059Y-94781118D01*
X154557454Y-94960836D01*
X154643240Y-95129199D01*
X154754310Y-95282073D01*
X154887927Y-95415690D01*
X155040801Y-95526760D01*
X155077512Y-95545465D01*
X155209163Y-95612545D01*
X155209165Y-95612545D01*
X155209168Y-95612547D01*
X155249618Y-95625690D01*
X155388881Y-95670940D01*
X155575514Y-95700500D01*
X155575519Y-95700500D01*
X155764486Y-95700500D01*
X155951118Y-95670940D01*
X156130832Y-95612547D01*
X156299199Y-95526760D01*
X156452073Y-95415690D01*
X156585690Y-95282073D01*
X156696760Y-95129199D01*
X156782547Y-94960832D01*
X156840940Y-94781118D01*
X156870500Y-94594486D01*
X156870500Y-94405513D01*
X159549500Y-94405513D01*
X159549500Y-94594486D01*
X159579059Y-94781118D01*
X159637454Y-94960836D01*
X159723240Y-95129199D01*
X159834310Y-95282073D01*
X159967927Y-95415690D01*
X160120801Y-95526760D01*
X160157512Y-95545465D01*
X160289163Y-95612545D01*
X160289165Y-95612545D01*
X160289168Y-95612547D01*
X160329618Y-95625690D01*
X160468881Y-95670940D01*
X160655514Y-95700500D01*
X160655519Y-95700500D01*
X160844486Y-95700500D01*
X161031118Y-95670940D01*
X161210832Y-95612547D01*
X161379199Y-95526760D01*
X161532073Y-95415690D01*
X161665690Y-95282073D01*
X161776760Y-95129199D01*
X161862547Y-94960832D01*
X161920940Y-94781118D01*
X161950500Y-94594486D01*
X161950500Y-94405513D01*
X161920940Y-94218881D01*
X161872928Y-94071118D01*
X161862547Y-94039168D01*
X161862545Y-94039165D01*
X161862545Y-94039163D01*
X161805866Y-93927925D01*
X161776760Y-93870801D01*
X161665690Y-93717927D01*
X161643276Y-93695513D01*
X167799500Y-93695513D01*
X167799500Y-93884486D01*
X167829059Y-94071118D01*
X167887454Y-94250836D01*
X167966267Y-94405513D01*
X167973240Y-94419199D01*
X168084310Y-94572073D01*
X168217927Y-94705690D01*
X168370801Y-94816760D01*
X168450347Y-94857290D01*
X168539163Y-94902545D01*
X168539165Y-94902545D01*
X168539168Y-94902547D01*
X168635497Y-94933846D01*
X168718881Y-94960940D01*
X168905514Y-94990500D01*
X168905519Y-94990500D01*
X169094486Y-94990500D01*
X169281118Y-94960940D01*
X169282623Y-94960451D01*
X169460832Y-94902547D01*
X169629199Y-94816760D01*
X169655182Y-94797882D01*
X172845669Y-94797882D01*
X172845670Y-94797883D01*
X172871059Y-94816329D01*
X173039362Y-94902085D01*
X173218997Y-94960451D01*
X173405553Y-94990000D01*
X173594447Y-94990000D01*
X173781002Y-94960451D01*
X173960637Y-94902085D01*
X174128937Y-94816331D01*
X174154328Y-94797883D01*
X174154328Y-94797882D01*
X173500001Y-94143554D01*
X173500000Y-94143554D01*
X172845669Y-94797882D01*
X169655182Y-94797882D01*
X169782073Y-94705690D01*
X169915690Y-94572073D01*
X170026760Y-94419199D01*
X170112547Y-94250832D01*
X170170940Y-94071118D01*
X170181427Y-94004905D01*
X170200500Y-93884486D01*
X170200500Y-93695552D01*
X172300000Y-93695552D01*
X172300000Y-93884447D01*
X172329548Y-94071002D01*
X172387914Y-94250637D01*
X172473666Y-94418933D01*
X172492116Y-94444328D01*
X173146446Y-93790000D01*
X173146446Y-93789999D01*
X173100369Y-93743922D01*
X173150000Y-93743922D01*
X173150000Y-93836078D01*
X173173852Y-93925095D01*
X173219930Y-94004905D01*
X173285095Y-94070070D01*
X173364905Y-94116148D01*
X173453922Y-94140000D01*
X173546078Y-94140000D01*
X173635095Y-94116148D01*
X173714905Y-94070070D01*
X173780070Y-94004905D01*
X173826148Y-93925095D01*
X173850000Y-93836078D01*
X173850000Y-93789999D01*
X173853554Y-93789999D01*
X173853554Y-93790000D01*
X174507882Y-94444328D01*
X174507883Y-94444328D01*
X174526331Y-94418937D01*
X174612085Y-94250637D01*
X174670451Y-94071002D01*
X174700000Y-93884447D01*
X174700000Y-93695552D01*
X174670451Y-93508997D01*
X174612084Y-93329360D01*
X174596672Y-93299112D01*
X174596671Y-93299111D01*
X174526329Y-93161058D01*
X174507883Y-93135670D01*
X174507882Y-93135669D01*
X173853554Y-93789999D01*
X173850000Y-93789999D01*
X173850000Y-93743922D01*
X173826148Y-93654905D01*
X173780070Y-93575095D01*
X173714905Y-93509930D01*
X173635095Y-93463852D01*
X173546078Y-93440000D01*
X173453922Y-93440000D01*
X173364905Y-93463852D01*
X173285095Y-93509930D01*
X173219930Y-93575095D01*
X173173852Y-93654905D01*
X173150000Y-93743922D01*
X173100369Y-93743922D01*
X172492116Y-93135669D01*
X172492116Y-93135670D01*
X172473669Y-93161060D01*
X172387914Y-93329362D01*
X172329548Y-93508997D01*
X172300000Y-93695552D01*
X170200500Y-93695552D01*
X170200500Y-93695513D01*
X170170940Y-93508881D01*
X170112545Y-93329163D01*
X170067290Y-93240347D01*
X170026760Y-93160801D01*
X169915690Y-93007927D01*
X169782073Y-92874310D01*
X169655179Y-92782116D01*
X172845669Y-92782116D01*
X173500000Y-93436446D01*
X173500001Y-93436446D01*
X174154328Y-92782116D01*
X174128933Y-92763666D01*
X173960637Y-92677914D01*
X173781002Y-92619548D01*
X173594447Y-92590000D01*
X173405553Y-92590000D01*
X173218997Y-92619548D01*
X173039362Y-92677914D01*
X172871060Y-92763669D01*
X172845670Y-92782116D01*
X172845669Y-92782116D01*
X169655179Y-92782116D01*
X169629199Y-92763240D01*
X169460836Y-92677454D01*
X169281118Y-92619059D01*
X169094486Y-92589500D01*
X169094481Y-92589500D01*
X168905519Y-92589500D01*
X168905514Y-92589500D01*
X168718881Y-92619059D01*
X168539163Y-92677454D01*
X168370800Y-92763240D01*
X168283579Y-92826610D01*
X168217927Y-92874310D01*
X168217925Y-92874312D01*
X168217924Y-92874312D01*
X168084312Y-93007924D01*
X168084312Y-93007925D01*
X168084310Y-93007927D01*
X168036610Y-93073579D01*
X167973240Y-93160800D01*
X167887454Y-93329163D01*
X167829059Y-93508881D01*
X167799500Y-93695513D01*
X161643276Y-93695513D01*
X161532073Y-93584310D01*
X161379199Y-93473240D01*
X161360774Y-93463852D01*
X161210836Y-93387454D01*
X161031118Y-93329059D01*
X160844486Y-93299500D01*
X160844481Y-93299500D01*
X160655519Y-93299500D01*
X160655514Y-93299500D01*
X160468881Y-93329059D01*
X160289163Y-93387454D01*
X160120800Y-93473240D01*
X160038077Y-93533343D01*
X159967927Y-93584310D01*
X159967925Y-93584312D01*
X159967924Y-93584312D01*
X159834312Y-93717924D01*
X159834312Y-93717925D01*
X159834310Y-93717927D01*
X159801177Y-93763531D01*
X159723240Y-93870800D01*
X159637454Y-94039163D01*
X159579059Y-94218881D01*
X159549500Y-94405513D01*
X156870500Y-94405513D01*
X156840940Y-94218881D01*
X156792928Y-94071118D01*
X156782547Y-94039168D01*
X156782545Y-94039165D01*
X156782545Y-94039163D01*
X156725866Y-93927925D01*
X156696760Y-93870801D01*
X156585690Y-93717927D01*
X156452073Y-93584310D01*
X156299199Y-93473240D01*
X156280774Y-93463852D01*
X156130836Y-93387454D01*
X155951118Y-93329059D01*
X155764486Y-93299500D01*
X155764481Y-93299500D01*
X155575519Y-93299500D01*
X155575514Y-93299500D01*
X155388881Y-93329059D01*
X155209163Y-93387454D01*
X155040800Y-93473240D01*
X154958077Y-93533343D01*
X154887927Y-93584310D01*
X154887925Y-93584312D01*
X154887924Y-93584312D01*
X154754312Y-93717924D01*
X154754312Y-93717925D01*
X154754310Y-93717927D01*
X154721177Y-93763531D01*
X154643240Y-93870800D01*
X154557454Y-94039163D01*
X154499059Y-94218881D01*
X154469500Y-94405513D01*
X151650500Y-94405513D01*
X151620940Y-94218881D01*
X151572928Y-94071118D01*
X151562547Y-94039168D01*
X151562545Y-94039165D01*
X151562545Y-94039163D01*
X151505866Y-93927925D01*
X151476760Y-93870801D01*
X151365690Y-93717927D01*
X151232073Y-93584310D01*
X151079199Y-93473240D01*
X151060774Y-93463852D01*
X150910836Y-93387454D01*
X150731118Y-93329059D01*
X150544486Y-93299500D01*
X150544481Y-93299500D01*
X150355519Y-93299500D01*
X150355514Y-93299500D01*
X150168881Y-93329059D01*
X149989163Y-93387454D01*
X149820800Y-93473240D01*
X149738077Y-93533343D01*
X149667927Y-93584310D01*
X149667925Y-93584312D01*
X149667924Y-93584312D01*
X149534312Y-93717924D01*
X149534312Y-93717925D01*
X149534310Y-93717927D01*
X149501177Y-93763531D01*
X149423240Y-93870800D01*
X149337454Y-94039163D01*
X149279059Y-94218881D01*
X149249500Y-94405513D01*
X147663347Y-94405513D01*
X147613089Y-94250836D01*
X147612547Y-94249168D01*
X147612545Y-94249165D01*
X147612545Y-94249163D01*
X147526759Y-94080800D01*
X147519725Y-94071118D01*
X147415690Y-93927927D01*
X147282073Y-93794310D01*
X147129199Y-93683240D01*
X146960836Y-93597454D01*
X146781118Y-93539059D01*
X146594486Y-93509500D01*
X146594481Y-93509500D01*
X146405519Y-93509500D01*
X146405514Y-93509500D01*
X146218881Y-93539059D01*
X146039163Y-93597454D01*
X145870800Y-93683240D01*
X145806311Y-93730095D01*
X145717927Y-93794310D01*
X145717925Y-93794312D01*
X145717924Y-93794312D01*
X145584312Y-93927924D01*
X145584312Y-93927925D01*
X145584310Y-93927927D01*
X145536610Y-93993579D01*
X145473240Y-94080800D01*
X145387454Y-94249163D01*
X145329059Y-94428881D01*
X145299500Y-94615513D01*
X144550500Y-94615513D01*
X144520940Y-94428881D01*
X144463089Y-94250836D01*
X144462547Y-94249168D01*
X144462545Y-94249165D01*
X144462545Y-94249163D01*
X144376759Y-94080800D01*
X144369725Y-94071118D01*
X144265690Y-93927927D01*
X144132073Y-93794310D01*
X143979199Y-93683240D01*
X143810836Y-93597454D01*
X143631118Y-93539059D01*
X143444486Y-93509500D01*
X143444481Y-93509500D01*
X143255519Y-93509500D01*
X143255514Y-93509500D01*
X143068881Y-93539059D01*
X142889163Y-93597454D01*
X142720800Y-93683240D01*
X142656311Y-93730095D01*
X142567927Y-93794310D01*
X142567925Y-93794312D01*
X142567924Y-93794312D01*
X142434312Y-93927924D01*
X142434312Y-93927925D01*
X142434310Y-93927927D01*
X142386610Y-93993579D01*
X142323240Y-94080800D01*
X142237454Y-94249163D01*
X142179059Y-94428881D01*
X142149500Y-94615513D01*
X141400500Y-94615513D01*
X141370940Y-94428881D01*
X141313089Y-94250836D01*
X141312547Y-94249168D01*
X141312545Y-94249165D01*
X141312545Y-94249163D01*
X141226759Y-94080800D01*
X141219725Y-94071118D01*
X141115690Y-93927927D01*
X140982073Y-93794310D01*
X140829199Y-93683240D01*
X140660836Y-93597454D01*
X140481118Y-93539059D01*
X140294486Y-93509500D01*
X140294481Y-93509500D01*
X140105519Y-93509500D01*
X140105514Y-93509500D01*
X139918881Y-93539059D01*
X139739163Y-93597454D01*
X139570800Y-93683240D01*
X139506311Y-93730095D01*
X139417927Y-93794310D01*
X139417925Y-93794312D01*
X139417924Y-93794312D01*
X139284312Y-93927924D01*
X139284312Y-93927925D01*
X139284310Y-93927927D01*
X139236610Y-93993579D01*
X139173240Y-94080800D01*
X139087454Y-94249163D01*
X139029059Y-94428881D01*
X138999500Y-94615513D01*
X138250500Y-94615513D01*
X138220940Y-94428881D01*
X138163089Y-94250836D01*
X138162547Y-94249168D01*
X138162545Y-94249165D01*
X138162545Y-94249163D01*
X138076759Y-94080800D01*
X138069725Y-94071118D01*
X137965690Y-93927927D01*
X137832073Y-93794310D01*
X137679199Y-93683240D01*
X137510836Y-93597454D01*
X137331118Y-93539059D01*
X137144486Y-93509500D01*
X137144481Y-93509500D01*
X136955519Y-93509500D01*
X136955514Y-93509500D01*
X136768881Y-93539059D01*
X136589163Y-93597454D01*
X136420800Y-93683240D01*
X136356311Y-93730095D01*
X136267927Y-93794310D01*
X136267925Y-93794312D01*
X136267924Y-93794312D01*
X136134312Y-93927924D01*
X136134312Y-93927925D01*
X136134310Y-93927927D01*
X136086610Y-93993579D01*
X136023240Y-94080800D01*
X135937454Y-94249163D01*
X135879059Y-94428881D01*
X135849500Y-94615513D01*
X135100500Y-94615513D01*
X135070940Y-94428881D01*
X135013089Y-94250836D01*
X135012547Y-94249168D01*
X135012545Y-94249165D01*
X135012545Y-94249163D01*
X134926759Y-94080800D01*
X134919725Y-94071118D01*
X134815690Y-93927927D01*
X134682073Y-93794310D01*
X134529199Y-93683240D01*
X134360836Y-93597454D01*
X134181118Y-93539059D01*
X133994486Y-93509500D01*
X133994481Y-93509500D01*
X133805519Y-93509500D01*
X133805514Y-93509500D01*
X133618881Y-93539059D01*
X133439163Y-93597454D01*
X133270800Y-93683240D01*
X133206311Y-93730095D01*
X133117927Y-93794310D01*
X133117925Y-93794312D01*
X133117924Y-93794312D01*
X132984312Y-93927924D01*
X132984312Y-93927925D01*
X132984310Y-93927927D01*
X132936610Y-93993579D01*
X132873240Y-94080800D01*
X132787454Y-94249163D01*
X132729059Y-94428881D01*
X132699500Y-94615513D01*
X131950500Y-94615513D01*
X131920940Y-94428881D01*
X131863089Y-94250836D01*
X131862547Y-94249168D01*
X131862545Y-94249165D01*
X131862545Y-94249163D01*
X131776759Y-94080800D01*
X131769725Y-94071118D01*
X131665690Y-93927927D01*
X131532073Y-93794310D01*
X131379199Y-93683240D01*
X131210836Y-93597454D01*
X131031118Y-93539059D01*
X130844486Y-93509500D01*
X130844481Y-93509500D01*
X130655519Y-93509500D01*
X130655514Y-93509500D01*
X130468881Y-93539059D01*
X130289163Y-93597454D01*
X130120800Y-93683240D01*
X130056311Y-93730095D01*
X129967927Y-93794310D01*
X129967925Y-93794312D01*
X129967924Y-93794312D01*
X129834312Y-93927924D01*
X129834312Y-93927925D01*
X129834310Y-93927927D01*
X129786610Y-93993579D01*
X129723240Y-94080800D01*
X129637454Y-94249163D01*
X129579059Y-94428881D01*
X129549500Y-94615513D01*
X128800500Y-94615513D01*
X128770940Y-94428881D01*
X128713089Y-94250836D01*
X128712547Y-94249168D01*
X128712545Y-94249165D01*
X128712545Y-94249163D01*
X128626759Y-94080800D01*
X128619725Y-94071118D01*
X128515690Y-93927927D01*
X128382073Y-93794310D01*
X128229199Y-93683240D01*
X128060836Y-93597454D01*
X127881118Y-93539059D01*
X127694486Y-93509500D01*
X127694481Y-93509500D01*
X127505519Y-93509500D01*
X127505514Y-93509500D01*
X127318881Y-93539059D01*
X127139163Y-93597454D01*
X126970800Y-93683240D01*
X126906311Y-93730095D01*
X126817927Y-93794310D01*
X126817925Y-93794312D01*
X126817924Y-93794312D01*
X126684312Y-93927924D01*
X126684312Y-93927925D01*
X126684310Y-93927927D01*
X126636610Y-93993579D01*
X126573240Y-94080800D01*
X126487454Y-94249163D01*
X126429059Y-94428881D01*
X126399500Y-94615513D01*
X123000500Y-94615513D01*
X123000500Y-78777648D01*
X128209500Y-78777648D01*
X128209500Y-78982351D01*
X128241522Y-79184534D01*
X128304781Y-79379223D01*
X128397715Y-79561613D01*
X128518028Y-79727213D01*
X128662786Y-79871971D01*
X128808167Y-79977594D01*
X128828390Y-79992287D01*
X128909499Y-80033614D01*
X129010776Y-80085218D01*
X129010778Y-80085218D01*
X129010781Y-80085220D01*
X129085818Y-80109601D01*
X129205465Y-80148477D01*
X129283105Y-80160774D01*
X129407648Y-80180500D01*
X129407649Y-80180500D01*
X129612351Y-80180500D01*
X129612352Y-80180500D01*
X129814534Y-80148477D01*
X130009219Y-80085220D01*
X130009229Y-80085215D01*
X130013259Y-80083547D01*
X130013984Y-80082919D01*
X130046024Y-80078311D01*
X130077855Y-80072329D01*
X130080412Y-80073366D01*
X130083142Y-80072974D01*
X130112583Y-80086418D01*
X130142600Y-80098596D01*
X130144190Y-80100851D01*
X130146699Y-80101997D01*
X130164201Y-80129229D01*
X130182865Y-80155697D01*
X130183439Y-80159163D01*
X130184475Y-80160774D01*
X130189494Y-80195681D01*
X130189499Y-80195708D01*
X130189499Y-80219057D01*
X130189499Y-80219059D01*
X130189500Y-80229053D01*
X130189500Y-85075500D01*
X130169815Y-85142539D01*
X130117011Y-85188294D01*
X130065500Y-85199500D01*
X128909998Y-85199500D01*
X128909981Y-85199501D01*
X128807203Y-85210000D01*
X128807200Y-85210001D01*
X128640668Y-85265185D01*
X128640663Y-85265187D01*
X128491342Y-85357289D01*
X128367289Y-85481342D01*
X128275187Y-85630663D01*
X128275186Y-85630666D01*
X128220001Y-85797203D01*
X128220001Y-85797204D01*
X128220000Y-85797204D01*
X128209500Y-85899983D01*
X128209500Y-87100001D01*
X128209501Y-87100018D01*
X128220000Y-87202796D01*
X128220001Y-87202799D01*
X128267856Y-87347213D01*
X128275186Y-87369334D01*
X128367288Y-87518656D01*
X128491344Y-87642712D01*
X128640666Y-87734814D01*
X128807203Y-87789999D01*
X128909991Y-87800500D01*
X130065500Y-87800499D01*
X130132539Y-87820184D01*
X130178294Y-87872987D01*
X130189500Y-87924499D01*
X130189500Y-89025500D01*
X130169815Y-89092539D01*
X130117011Y-89138294D01*
X130065500Y-89149500D01*
X128902129Y-89149500D01*
X128902123Y-89149501D01*
X128842516Y-89155908D01*
X128707671Y-89206202D01*
X128707664Y-89206206D01*
X128592455Y-89292452D01*
X128592452Y-89292455D01*
X128506206Y-89407664D01*
X128506202Y-89407671D01*
X128455908Y-89542517D01*
X128449501Y-89602116D01*
X128449500Y-89602135D01*
X128449500Y-91397870D01*
X128449501Y-91397876D01*
X128455908Y-91457483D01*
X128506202Y-91592328D01*
X128506206Y-91592335D01*
X128592452Y-91707544D01*
X128592455Y-91707547D01*
X128707664Y-91793793D01*
X128707671Y-91793797D01*
X128842517Y-91844091D01*
X128842516Y-91844091D01*
X128849444Y-91844835D01*
X128902127Y-91850500D01*
X130697872Y-91850499D01*
X130757483Y-91844091D01*
X130892331Y-91793796D01*
X131007546Y-91707546D01*
X131093796Y-91592331D01*
X131142810Y-91460916D01*
X131184681Y-91404984D01*
X131250145Y-91380566D01*
X131318418Y-91395417D01*
X131346673Y-91416569D01*
X131460213Y-91530109D01*
X131632179Y-91655048D01*
X131632181Y-91655049D01*
X131632184Y-91655051D01*
X131821588Y-91751557D01*
X132023757Y-91817246D01*
X132233713Y-91850500D01*
X132233714Y-91850500D01*
X132446286Y-91850500D01*
X132446287Y-91850500D01*
X132656243Y-91817246D01*
X132858412Y-91751557D01*
X133047816Y-91655051D01*
X133107922Y-91611382D01*
X133219786Y-91530109D01*
X133219788Y-91530106D01*
X133219792Y-91530104D01*
X133370104Y-91379792D01*
X133370106Y-91379788D01*
X133370109Y-91379786D01*
X133495048Y-91207820D01*
X133495047Y-91207820D01*
X133495051Y-91207816D01*
X133499514Y-91199054D01*
X133547488Y-91148259D01*
X133615308Y-91131463D01*
X133681444Y-91153999D01*
X133720486Y-91199056D01*
X133724951Y-91207820D01*
X133849890Y-91379786D01*
X134000213Y-91530109D01*
X134172179Y-91655048D01*
X134172181Y-91655049D01*
X134172184Y-91655051D01*
X134361588Y-91751557D01*
X134563757Y-91817246D01*
X134773713Y-91850500D01*
X134773714Y-91850500D01*
X134986286Y-91850500D01*
X134986287Y-91850500D01*
X135196243Y-91817246D01*
X135398412Y-91751557D01*
X135587816Y-91655051D01*
X135647922Y-91611382D01*
X135759786Y-91530109D01*
X135759788Y-91530106D01*
X135759792Y-91530104D01*
X135910104Y-91379792D01*
X135910106Y-91379788D01*
X135910109Y-91379786D01*
X136035048Y-91207820D01*
X136035047Y-91207820D01*
X136035051Y-91207816D01*
X136039514Y-91199054D01*
X136087488Y-91148259D01*
X136155308Y-91131463D01*
X136221444Y-91153999D01*
X136260486Y-91199056D01*
X136264951Y-91207820D01*
X136389890Y-91379786D01*
X136540213Y-91530109D01*
X136712179Y-91655048D01*
X136712181Y-91655049D01*
X136712184Y-91655051D01*
X136901588Y-91751557D01*
X137103757Y-91817246D01*
X137313713Y-91850500D01*
X137313714Y-91850500D01*
X137526286Y-91850500D01*
X137526287Y-91850500D01*
X137736243Y-91817246D01*
X137938412Y-91751557D01*
X138127816Y-91655051D01*
X138187922Y-91611382D01*
X138299786Y-91530109D01*
X138299788Y-91530106D01*
X138299792Y-91530104D01*
X138450104Y-91379792D01*
X138450106Y-91379788D01*
X138450109Y-91379786D01*
X138575048Y-91207820D01*
X138575047Y-91207820D01*
X138575051Y-91207816D01*
X138579514Y-91199054D01*
X138627488Y-91148259D01*
X138695308Y-91131463D01*
X138761444Y-91153999D01*
X138800486Y-91199056D01*
X138804951Y-91207820D01*
X138929890Y-91379786D01*
X139080213Y-91530109D01*
X139252179Y-91655048D01*
X139252181Y-91655049D01*
X139252184Y-91655051D01*
X139441588Y-91751557D01*
X139643757Y-91817246D01*
X139853713Y-91850500D01*
X139853714Y-91850500D01*
X140066286Y-91850500D01*
X140066287Y-91850500D01*
X140276243Y-91817246D01*
X140478412Y-91751557D01*
X140667816Y-91655051D01*
X140727922Y-91611382D01*
X140839786Y-91530109D01*
X140839788Y-91530106D01*
X140839792Y-91530104D01*
X140990104Y-91379792D01*
X140990106Y-91379788D01*
X140990109Y-91379786D01*
X141115048Y-91207820D01*
X141115047Y-91207820D01*
X141115051Y-91207816D01*
X141119514Y-91199054D01*
X141167488Y-91148259D01*
X141235308Y-91131463D01*
X141301444Y-91153999D01*
X141340486Y-91199056D01*
X141344951Y-91207820D01*
X141469890Y-91379786D01*
X141620213Y-91530109D01*
X141792179Y-91655048D01*
X141792181Y-91655049D01*
X141792184Y-91655051D01*
X141981588Y-91751557D01*
X142183757Y-91817246D01*
X142393713Y-91850500D01*
X142393714Y-91850500D01*
X142606286Y-91850500D01*
X142606287Y-91850500D01*
X142816243Y-91817246D01*
X143018412Y-91751557D01*
X143207816Y-91655051D01*
X143267922Y-91611382D01*
X143379786Y-91530109D01*
X143379788Y-91530106D01*
X143379792Y-91530104D01*
X143530104Y-91379792D01*
X143530106Y-91379788D01*
X143530109Y-91379786D01*
X143655048Y-91207820D01*
X143655047Y-91207820D01*
X143655051Y-91207816D01*
X143659514Y-91199054D01*
X143707488Y-91148259D01*
X143775308Y-91131463D01*
X143841444Y-91153999D01*
X143880486Y-91199056D01*
X143884951Y-91207820D01*
X144009890Y-91379786D01*
X144160213Y-91530109D01*
X144332179Y-91655048D01*
X144332181Y-91655049D01*
X144332184Y-91655051D01*
X144521588Y-91751557D01*
X144723757Y-91817246D01*
X144933713Y-91850500D01*
X144933714Y-91850500D01*
X145146286Y-91850500D01*
X145146287Y-91850500D01*
X145356243Y-91817246D01*
X145558412Y-91751557D01*
X145747816Y-91655051D01*
X145807922Y-91611382D01*
X145919786Y-91530109D01*
X145919788Y-91530106D01*
X145919792Y-91530104D01*
X146070104Y-91379792D01*
X146070106Y-91379788D01*
X146070109Y-91379786D01*
X146195048Y-91207820D01*
X146195047Y-91207820D01*
X146195051Y-91207816D01*
X146199514Y-91199054D01*
X146247488Y-91148259D01*
X146315308Y-91131463D01*
X146381444Y-91153999D01*
X146420486Y-91199056D01*
X146424951Y-91207820D01*
X146549890Y-91379786D01*
X146700213Y-91530109D01*
X146872179Y-91655048D01*
X146872181Y-91655049D01*
X146872184Y-91655051D01*
X147061588Y-91751557D01*
X147263757Y-91817246D01*
X147473713Y-91850500D01*
X147473714Y-91850500D01*
X147686286Y-91850500D01*
X147686287Y-91850500D01*
X147896243Y-91817246D01*
X148098412Y-91751557D01*
X148287816Y-91655051D01*
X148347922Y-91611382D01*
X148459786Y-91530109D01*
X148459788Y-91530106D01*
X148459792Y-91530104D01*
X148610104Y-91379792D01*
X148610106Y-91379788D01*
X148610109Y-91379786D01*
X148735048Y-91207820D01*
X148735047Y-91207820D01*
X148735051Y-91207816D01*
X148831557Y-91018412D01*
X148897246Y-90816243D01*
X148930500Y-90606287D01*
X148930500Y-90393713D01*
X148897246Y-90183757D01*
X148831557Y-89981588D01*
X148735051Y-89792184D01*
X148735049Y-89792181D01*
X148735048Y-89792179D01*
X148610109Y-89620213D01*
X148459786Y-89469890D01*
X148287819Y-89344951D01*
X148287818Y-89344950D01*
X148287816Y-89344949D01*
X148098412Y-89248443D01*
X147896243Y-89182754D01*
X147896241Y-89182753D01*
X147896240Y-89182753D01*
X147857000Y-89176538D01*
X154549500Y-89176538D01*
X154549500Y-90728461D01*
X154588910Y-90977285D01*
X154666760Y-91216883D01*
X154732420Y-91345747D01*
X154775349Y-91430000D01*
X154781132Y-91441348D01*
X154929201Y-91645149D01*
X154929205Y-91645154D01*
X155107345Y-91823294D01*
X155107350Y-91823298D01*
X155157755Y-91859919D01*
X155311155Y-91971370D01*
X155454184Y-92044247D01*
X155535616Y-92085739D01*
X155535618Y-92085739D01*
X155535621Y-92085741D01*
X155775215Y-92163590D01*
X156024038Y-92203000D01*
X156024039Y-92203000D01*
X156275961Y-92203000D01*
X156275962Y-92203000D01*
X156524785Y-92163590D01*
X156764379Y-92085741D01*
X156988845Y-91971370D01*
X157192656Y-91823293D01*
X157370793Y-91645156D01*
X157434598Y-91557335D01*
X157489924Y-91514672D01*
X157559537Y-91508691D01*
X157591209Y-91519737D01*
X157770162Y-91610918D01*
X157957283Y-91671718D01*
X158000000Y-91678484D01*
X158000000Y-90268186D01*
X158004394Y-90272580D01*
X158095606Y-90325241D01*
X158197339Y-90352500D01*
X158302661Y-90352500D01*
X158404394Y-90325241D01*
X158495606Y-90272580D01*
X158500000Y-90268186D01*
X158500000Y-91678483D01*
X158542716Y-91671718D01*
X158729837Y-91610918D01*
X158905143Y-91521595D01*
X159064321Y-91405944D01*
X159064322Y-91405943D01*
X159161965Y-91308301D01*
X159223288Y-91274816D01*
X159292980Y-91279800D01*
X159337327Y-91308301D01*
X159435354Y-91406328D01*
X159594595Y-91522024D01*
X159663903Y-91557338D01*
X159769970Y-91611382D01*
X159769972Y-91611382D01*
X159769975Y-91611384D01*
X159870317Y-91643987D01*
X159957173Y-91672209D01*
X160151578Y-91703000D01*
X160151583Y-91703000D01*
X160348422Y-91703000D01*
X160542826Y-91672209D01*
X160544337Y-91671718D01*
X160730025Y-91611384D01*
X160905405Y-91522024D01*
X160941614Y-91495715D01*
X161007417Y-91472236D01*
X161075471Y-91488060D01*
X161113763Y-91521720D01*
X161142454Y-91560046D01*
X161142455Y-91560046D01*
X161142456Y-91560048D01*
X161257664Y-91646293D01*
X161257671Y-91646297D01*
X161392517Y-91696591D01*
X161392516Y-91696591D01*
X161399444Y-91697335D01*
X161452127Y-91703000D01*
X163047872Y-91702999D01*
X163107483Y-91696591D01*
X163107486Y-91696589D01*
X163114554Y-91695830D01*
X163183314Y-91708236D01*
X163215490Y-91731439D01*
X163307345Y-91823294D01*
X163307350Y-91823298D01*
X163357755Y-91859919D01*
X163511155Y-91971370D01*
X163654184Y-92044247D01*
X163735616Y-92085739D01*
X163735618Y-92085739D01*
X163735621Y-92085741D01*
X163975215Y-92163590D01*
X164224038Y-92203000D01*
X164224039Y-92203000D01*
X164475961Y-92203000D01*
X164475962Y-92203000D01*
X164724785Y-92163590D01*
X164964379Y-92085741D01*
X165188845Y-91971370D01*
X165392656Y-91823293D01*
X165570793Y-91645156D01*
X165718870Y-91441345D01*
X165833241Y-91216879D01*
X165911090Y-90977285D01*
X165950500Y-90728462D01*
X165950500Y-90148905D01*
X181720000Y-90148905D01*
X181720000Y-90411094D01*
X181754220Y-90671009D01*
X181754222Y-90671020D01*
X181822075Y-90924255D01*
X181922404Y-91166471D01*
X181922409Y-91166482D01*
X182053488Y-91393516D01*
X182053494Y-91393524D01*
X182140080Y-91506365D01*
X182747912Y-90898532D01*
X182842829Y-91029175D01*
X182970825Y-91157171D01*
X183101465Y-91252086D01*
X182493633Y-91859917D01*
X182493633Y-91859918D01*
X182606475Y-91946505D01*
X182606483Y-91946511D01*
X182833517Y-92077590D01*
X182833528Y-92077595D01*
X183075744Y-92177924D01*
X183328979Y-92245777D01*
X183328990Y-92245779D01*
X183588905Y-92279999D01*
X183588920Y-92280000D01*
X183851080Y-92280000D01*
X183851094Y-92279999D01*
X184111009Y-92245779D01*
X184111020Y-92245777D01*
X184364255Y-92177924D01*
X184606471Y-92077595D01*
X184606482Y-92077590D01*
X184833516Y-91946511D01*
X184833534Y-91946499D01*
X184946365Y-91859919D01*
X184946365Y-91859917D01*
X184338534Y-91252086D01*
X184469175Y-91157171D01*
X184597171Y-91029175D01*
X184692086Y-90898534D01*
X185299917Y-91506365D01*
X185299919Y-91506365D01*
X185386499Y-91393534D01*
X185386511Y-91393516D01*
X185517590Y-91166482D01*
X185517595Y-91166471D01*
X185617924Y-90924255D01*
X185685777Y-90671020D01*
X185685779Y-90671009D01*
X185719999Y-90411094D01*
X185720000Y-90411080D01*
X185720000Y-90148919D01*
X185719999Y-90148905D01*
X185685779Y-89888990D01*
X185685777Y-89888979D01*
X185617924Y-89635744D01*
X185517595Y-89393528D01*
X185517590Y-89393517D01*
X185386511Y-89166483D01*
X185386505Y-89166475D01*
X185299918Y-89053633D01*
X185299917Y-89053633D01*
X184692085Y-89661464D01*
X184597171Y-89530825D01*
X184469175Y-89402829D01*
X184338532Y-89307912D01*
X184946365Y-88700080D01*
X184833524Y-88613494D01*
X184833516Y-88613488D01*
X184606482Y-88482409D01*
X184606471Y-88482404D01*
X184364255Y-88382075D01*
X184111020Y-88314222D01*
X184111009Y-88314220D01*
X183851094Y-88280000D01*
X183588905Y-88280000D01*
X183328990Y-88314220D01*
X183328979Y-88314222D01*
X183075744Y-88382075D01*
X182833528Y-88482404D01*
X182833517Y-88482409D01*
X182606471Y-88613496D01*
X182493633Y-88700079D01*
X182493633Y-88700080D01*
X183101466Y-89307913D01*
X182970825Y-89402829D01*
X182842829Y-89530825D01*
X182747913Y-89661466D01*
X182140080Y-89053633D01*
X182140079Y-89053633D01*
X182053496Y-89166471D01*
X181922409Y-89393517D01*
X181922404Y-89393528D01*
X181822075Y-89635744D01*
X181754222Y-89888979D01*
X181754220Y-89888990D01*
X181720000Y-90148905D01*
X165950500Y-90148905D01*
X165950500Y-89176538D01*
X165911090Y-88927715D01*
X165833241Y-88688121D01*
X165796245Y-88615513D01*
X167799500Y-88615513D01*
X167799500Y-88804486D01*
X167829059Y-88991118D01*
X167887454Y-89170836D01*
X167949421Y-89292452D01*
X167973240Y-89339199D01*
X168084310Y-89492073D01*
X168217927Y-89625690D01*
X168370801Y-89736760D01*
X168450347Y-89777290D01*
X168539163Y-89822545D01*
X168539165Y-89822545D01*
X168539168Y-89822547D01*
X168629020Y-89851742D01*
X168718881Y-89880940D01*
X168905514Y-89910500D01*
X168905519Y-89910500D01*
X169094486Y-89910500D01*
X169281118Y-89880940D01*
X169319293Y-89868536D01*
X169460832Y-89822547D01*
X169629199Y-89736760D01*
X169782073Y-89625690D01*
X169915690Y-89492073D01*
X170026760Y-89339199D01*
X170112547Y-89170832D01*
X170170940Y-88991118D01*
X170180982Y-88927714D01*
X170200500Y-88804486D01*
X170200500Y-88615513D01*
X172299500Y-88615513D01*
X172299500Y-88804486D01*
X172329059Y-88991118D01*
X172387454Y-89170836D01*
X172449421Y-89292452D01*
X172473240Y-89339199D01*
X172584310Y-89492073D01*
X172717927Y-89625690D01*
X172870801Y-89736760D01*
X172950347Y-89777290D01*
X173039163Y-89822545D01*
X173039165Y-89822545D01*
X173039168Y-89822547D01*
X173129020Y-89851742D01*
X173218881Y-89880940D01*
X173405514Y-89910500D01*
X173405519Y-89910500D01*
X173594486Y-89910500D01*
X173781118Y-89880940D01*
X173819293Y-89868536D01*
X173960832Y-89822547D01*
X174129199Y-89736760D01*
X174282073Y-89625690D01*
X174415690Y-89492073D01*
X174526760Y-89339199D01*
X174612547Y-89170832D01*
X174670940Y-88991118D01*
X174680982Y-88927714D01*
X174700500Y-88804486D01*
X174700500Y-88615513D01*
X174670940Y-88428881D01*
X174633684Y-88314220D01*
X174612547Y-88249168D01*
X174612545Y-88249165D01*
X174612545Y-88249163D01*
X174567290Y-88160347D01*
X174526760Y-88080801D01*
X174415690Y-87927927D01*
X174282073Y-87794310D01*
X174129199Y-87683240D01*
X173960836Y-87597454D01*
X173781118Y-87539059D01*
X173594486Y-87509500D01*
X173594481Y-87509500D01*
X173405519Y-87509500D01*
X173405514Y-87509500D01*
X173218881Y-87539059D01*
X173039163Y-87597454D01*
X172870800Y-87683240D01*
X172799816Y-87734814D01*
X172717927Y-87794310D01*
X172717925Y-87794312D01*
X172717924Y-87794312D01*
X172584312Y-87927924D01*
X172584312Y-87927925D01*
X172584310Y-87927927D01*
X172536610Y-87993579D01*
X172473240Y-88080800D01*
X172387454Y-88249163D01*
X172329059Y-88428881D01*
X172299500Y-88615513D01*
X170200500Y-88615513D01*
X170170940Y-88428881D01*
X170133684Y-88314220D01*
X170112547Y-88249168D01*
X170112545Y-88249165D01*
X170112545Y-88249163D01*
X170067290Y-88160347D01*
X170026760Y-88080801D01*
X169915690Y-87927927D01*
X169782073Y-87794310D01*
X169629199Y-87683240D01*
X169460836Y-87597454D01*
X169281118Y-87539059D01*
X169094486Y-87509500D01*
X169094481Y-87509500D01*
X168905519Y-87509500D01*
X168905514Y-87509500D01*
X168718881Y-87539059D01*
X168539163Y-87597454D01*
X168370800Y-87683240D01*
X168299816Y-87734814D01*
X168217927Y-87794310D01*
X168217925Y-87794312D01*
X168217924Y-87794312D01*
X168084312Y-87927924D01*
X168084312Y-87927925D01*
X168084310Y-87927927D01*
X168036610Y-87993579D01*
X167973240Y-88080800D01*
X167887454Y-88249163D01*
X167829059Y-88428881D01*
X167799500Y-88615513D01*
X165796245Y-88615513D01*
X165718870Y-88463655D01*
X165661914Y-88385262D01*
X165570798Y-88259850D01*
X165570794Y-88259845D01*
X165392654Y-88081705D01*
X165392649Y-88081701D01*
X165188848Y-87933632D01*
X165188847Y-87933631D01*
X165188845Y-87933630D01*
X165118747Y-87897913D01*
X164964383Y-87819260D01*
X164724785Y-87741410D01*
X164683127Y-87734812D01*
X164475962Y-87702000D01*
X164224038Y-87702000D01*
X164099626Y-87721705D01*
X163975214Y-87741410D01*
X163735616Y-87819260D01*
X163511151Y-87933632D01*
X163307350Y-88081700D01*
X163215487Y-88173562D01*
X163154163Y-88207046D01*
X163114553Y-88209169D01*
X163105522Y-88208198D01*
X163047873Y-88202000D01*
X163047865Y-88202000D01*
X161452129Y-88202000D01*
X161452123Y-88202001D01*
X161392516Y-88208408D01*
X161257671Y-88258702D01*
X161257664Y-88258706D01*
X161142455Y-88344952D01*
X161113765Y-88383277D01*
X161057830Y-88425148D01*
X160988139Y-88430131D01*
X160941613Y-88409283D01*
X160905405Y-88382976D01*
X160730029Y-88293617D01*
X160542826Y-88232790D01*
X160348422Y-88202000D01*
X160348417Y-88202000D01*
X160151583Y-88202000D01*
X160151578Y-88202000D01*
X159957173Y-88232790D01*
X159769970Y-88293617D01*
X159594594Y-88382976D01*
X159531411Y-88428882D01*
X159435354Y-88498672D01*
X159435352Y-88498674D01*
X159435350Y-88498675D01*
X159337325Y-88596699D01*
X159276002Y-88630183D01*
X159206310Y-88625198D01*
X159161964Y-88596698D01*
X159064321Y-88499055D01*
X158905143Y-88383404D01*
X158729835Y-88294081D01*
X158542705Y-88233278D01*
X158500000Y-88226514D01*
X158500000Y-89636814D01*
X158495606Y-89632420D01*
X158404394Y-89579759D01*
X158302661Y-89552500D01*
X158197339Y-89552500D01*
X158095606Y-89579759D01*
X158004394Y-89632420D01*
X158000000Y-89636814D01*
X158000000Y-88226514D01*
X157999999Y-88226514D01*
X157957294Y-88233278D01*
X157770161Y-88294082D01*
X157591209Y-88385262D01*
X157522540Y-88398158D01*
X157457800Y-88371881D01*
X157434597Y-88347662D01*
X157370798Y-88259850D01*
X157370794Y-88259845D01*
X157192654Y-88081705D01*
X157192649Y-88081701D01*
X156988848Y-87933632D01*
X156988847Y-87933631D01*
X156988845Y-87933630D01*
X156918747Y-87897913D01*
X156764383Y-87819260D01*
X156524785Y-87741410D01*
X156483127Y-87734812D01*
X156275962Y-87702000D01*
X156024038Y-87702000D01*
X155899626Y-87721705D01*
X155775214Y-87741410D01*
X155535616Y-87819260D01*
X155311151Y-87933632D01*
X155107350Y-88081701D01*
X155107345Y-88081705D01*
X154929205Y-88259845D01*
X154929201Y-88259850D01*
X154781132Y-88463651D01*
X154666760Y-88688116D01*
X154588910Y-88927714D01*
X154549500Y-89176538D01*
X147857000Y-89176538D01*
X147734957Y-89157208D01*
X147686287Y-89149500D01*
X147473713Y-89149500D01*
X147425042Y-89157208D01*
X147263760Y-89182753D01*
X147061585Y-89248444D01*
X146872179Y-89344951D01*
X146700213Y-89469890D01*
X146549890Y-89620213D01*
X146424949Y-89792182D01*
X146420484Y-89800946D01*
X146372509Y-89851742D01*
X146304688Y-89868536D01*
X146238553Y-89845998D01*
X146199516Y-89800946D01*
X146195050Y-89792182D01*
X146070109Y-89620213D01*
X145919786Y-89469890D01*
X145747820Y-89344951D01*
X145558414Y-89248444D01*
X145558413Y-89248443D01*
X145558412Y-89248443D01*
X145356243Y-89182754D01*
X145356241Y-89182753D01*
X145356240Y-89182753D01*
X145194957Y-89157208D01*
X145146287Y-89149500D01*
X144933713Y-89149500D01*
X144885042Y-89157208D01*
X144723760Y-89182753D01*
X144521585Y-89248444D01*
X144332179Y-89344951D01*
X144160213Y-89469890D01*
X144009890Y-89620213D01*
X143884949Y-89792182D01*
X143880484Y-89800946D01*
X143832509Y-89851742D01*
X143764688Y-89868536D01*
X143698553Y-89845998D01*
X143659516Y-89800946D01*
X143655050Y-89792182D01*
X143530109Y-89620213D01*
X143379786Y-89469890D01*
X143207820Y-89344951D01*
X143018414Y-89248444D01*
X143018413Y-89248443D01*
X143018412Y-89248443D01*
X142816243Y-89182754D01*
X142816241Y-89182753D01*
X142816240Y-89182753D01*
X142654957Y-89157208D01*
X142606287Y-89149500D01*
X142393713Y-89149500D01*
X142345042Y-89157208D01*
X142183760Y-89182753D01*
X141981585Y-89248444D01*
X141792179Y-89344951D01*
X141620213Y-89469890D01*
X141469890Y-89620213D01*
X141344949Y-89792182D01*
X141340484Y-89800946D01*
X141292509Y-89851742D01*
X141224688Y-89868536D01*
X141158553Y-89845998D01*
X141119516Y-89800946D01*
X141115050Y-89792182D01*
X140990109Y-89620213D01*
X140839786Y-89469890D01*
X140667820Y-89344951D01*
X140478414Y-89248444D01*
X140478413Y-89248443D01*
X140478412Y-89248443D01*
X140276243Y-89182754D01*
X140276241Y-89182753D01*
X140276240Y-89182753D01*
X140114957Y-89157208D01*
X140066287Y-89149500D01*
X139853713Y-89149500D01*
X139805042Y-89157208D01*
X139643760Y-89182753D01*
X139441585Y-89248444D01*
X139252179Y-89344951D01*
X139080213Y-89469890D01*
X138929890Y-89620213D01*
X138804949Y-89792182D01*
X138800484Y-89800946D01*
X138752509Y-89851742D01*
X138684688Y-89868536D01*
X138618553Y-89845998D01*
X138579516Y-89800946D01*
X138575050Y-89792182D01*
X138450109Y-89620213D01*
X138299786Y-89469890D01*
X138127820Y-89344951D01*
X137938414Y-89248444D01*
X137938413Y-89248443D01*
X137938412Y-89248443D01*
X137736243Y-89182754D01*
X137736241Y-89182753D01*
X137736240Y-89182753D01*
X137574957Y-89157208D01*
X137526287Y-89149500D01*
X137313713Y-89149500D01*
X137265042Y-89157208D01*
X137103760Y-89182753D01*
X136901585Y-89248444D01*
X136712179Y-89344951D01*
X136540213Y-89469890D01*
X136389890Y-89620213D01*
X136264949Y-89792182D01*
X136260484Y-89800946D01*
X136212509Y-89851742D01*
X136144688Y-89868536D01*
X136078553Y-89845998D01*
X136039516Y-89800946D01*
X136035050Y-89792182D01*
X135910109Y-89620213D01*
X135759786Y-89469890D01*
X135587820Y-89344951D01*
X135398414Y-89248444D01*
X135398413Y-89248443D01*
X135398412Y-89248443D01*
X135196243Y-89182754D01*
X135196241Y-89182753D01*
X135196240Y-89182753D01*
X135034957Y-89157208D01*
X134986287Y-89149500D01*
X134773713Y-89149500D01*
X134725042Y-89157208D01*
X134563760Y-89182753D01*
X134361585Y-89248444D01*
X134172179Y-89344951D01*
X134000213Y-89469890D01*
X133849890Y-89620213D01*
X133724949Y-89792182D01*
X133720484Y-89800946D01*
X133672509Y-89851742D01*
X133604688Y-89868536D01*
X133538553Y-89845998D01*
X133499516Y-89800946D01*
X133495050Y-89792182D01*
X133370109Y-89620213D01*
X133219786Y-89469890D01*
X133047820Y-89344951D01*
X132858414Y-89248444D01*
X132858413Y-89248443D01*
X132858412Y-89248443D01*
X132656243Y-89182754D01*
X132656241Y-89182753D01*
X132656240Y-89182753D01*
X132494957Y-89157208D01*
X132446287Y-89149500D01*
X132233713Y-89149500D01*
X132185042Y-89157208D01*
X132023760Y-89182753D01*
X131821585Y-89248444D01*
X131632181Y-89344950D01*
X131587384Y-89377497D01*
X131521578Y-89400976D01*
X131453524Y-89385150D01*
X131404830Y-89335044D01*
X131390500Y-89277178D01*
X131390500Y-87823812D01*
X131410185Y-87756773D01*
X131462989Y-87711018D01*
X131532147Y-87701074D01*
X131552806Y-87705878D01*
X131704048Y-87755019D01*
X131745465Y-87768477D01*
X131846557Y-87784488D01*
X131947648Y-87800500D01*
X131947649Y-87800500D01*
X132152351Y-87800500D01*
X132152352Y-87800500D01*
X132354534Y-87768477D01*
X132549219Y-87705220D01*
X132731610Y-87612287D01*
X132860482Y-87518657D01*
X132897213Y-87491971D01*
X132897215Y-87491968D01*
X132897219Y-87491966D01*
X133041966Y-87347219D01*
X133041968Y-87347215D01*
X133041971Y-87347213D01*
X133162284Y-87181614D01*
X133162286Y-87181611D01*
X133162287Y-87181610D01*
X133209516Y-87088917D01*
X133257489Y-87038123D01*
X133325310Y-87021328D01*
X133391445Y-87043865D01*
X133430483Y-87088917D01*
X133436135Y-87100008D01*
X133477715Y-87181614D01*
X133598028Y-87347213D01*
X133742786Y-87491971D01*
X133887974Y-87597454D01*
X133908390Y-87612287D01*
X134024607Y-87671503D01*
X134090776Y-87705218D01*
X134090778Y-87705218D01*
X134090781Y-87705220D01*
X134181856Y-87734812D01*
X134285465Y-87768477D01*
X134386557Y-87784488D01*
X134487648Y-87800500D01*
X134487649Y-87800500D01*
X134692351Y-87800500D01*
X134692352Y-87800500D01*
X134894534Y-87768477D01*
X135089219Y-87705220D01*
X135271610Y-87612287D01*
X135400482Y-87518657D01*
X135437213Y-87491971D01*
X135437215Y-87491968D01*
X135437219Y-87491966D01*
X135581966Y-87347219D01*
X135581968Y-87347215D01*
X135581971Y-87347213D01*
X135702284Y-87181614D01*
X135702286Y-87181611D01*
X135702287Y-87181610D01*
X135749516Y-87088917D01*
X135797489Y-87038123D01*
X135865310Y-87021328D01*
X135931445Y-87043865D01*
X135970483Y-87088917D01*
X135976135Y-87100008D01*
X136017715Y-87181614D01*
X136138028Y-87347213D01*
X136282786Y-87491971D01*
X136427974Y-87597454D01*
X136448390Y-87612287D01*
X136564607Y-87671503D01*
X136630776Y-87705218D01*
X136630778Y-87705218D01*
X136630781Y-87705220D01*
X136721856Y-87734812D01*
X136825465Y-87768477D01*
X136926557Y-87784488D01*
X137027648Y-87800500D01*
X137027649Y-87800500D01*
X137232351Y-87800500D01*
X137232352Y-87800500D01*
X137434534Y-87768477D01*
X137629219Y-87705220D01*
X137811610Y-87612287D01*
X137940482Y-87518657D01*
X137977213Y-87491971D01*
X137977215Y-87491968D01*
X137977219Y-87491966D01*
X138121966Y-87347219D01*
X138121968Y-87347215D01*
X138121971Y-87347213D01*
X138242284Y-87181614D01*
X138242286Y-87181611D01*
X138242287Y-87181610D01*
X138289516Y-87088917D01*
X138337489Y-87038123D01*
X138405310Y-87021328D01*
X138471445Y-87043865D01*
X138510483Y-87088917D01*
X138516135Y-87100008D01*
X138557715Y-87181614D01*
X138678028Y-87347213D01*
X138822786Y-87491971D01*
X138967974Y-87597454D01*
X138988390Y-87612287D01*
X139104607Y-87671503D01*
X139170776Y-87705218D01*
X139170778Y-87705218D01*
X139170781Y-87705220D01*
X139261856Y-87734812D01*
X139365465Y-87768477D01*
X139466557Y-87784488D01*
X139567648Y-87800500D01*
X139567649Y-87800500D01*
X139772351Y-87800500D01*
X139772352Y-87800500D01*
X139974534Y-87768477D01*
X140169219Y-87705220D01*
X140351610Y-87612287D01*
X140480482Y-87518657D01*
X140517213Y-87491971D01*
X140517215Y-87491968D01*
X140517219Y-87491966D01*
X140661966Y-87347219D01*
X140661968Y-87347215D01*
X140661971Y-87347213D01*
X140782284Y-87181614D01*
X140782286Y-87181611D01*
X140782287Y-87181610D01*
X140829516Y-87088917D01*
X140877489Y-87038123D01*
X140945310Y-87021328D01*
X141011445Y-87043865D01*
X141050483Y-87088917D01*
X141056135Y-87100008D01*
X141097715Y-87181614D01*
X141218028Y-87347213D01*
X141362786Y-87491971D01*
X141507974Y-87597454D01*
X141528390Y-87612287D01*
X141644607Y-87671503D01*
X141710776Y-87705218D01*
X141710778Y-87705218D01*
X141710781Y-87705220D01*
X141801856Y-87734812D01*
X141905465Y-87768477D01*
X142006557Y-87784488D01*
X142107648Y-87800500D01*
X142107649Y-87800500D01*
X142312351Y-87800500D01*
X142312352Y-87800500D01*
X142514534Y-87768477D01*
X142709219Y-87705220D01*
X142891610Y-87612287D01*
X143020482Y-87518657D01*
X143057213Y-87491971D01*
X143057215Y-87491968D01*
X143057219Y-87491966D01*
X143201966Y-87347219D01*
X143201968Y-87347215D01*
X143201971Y-87347213D01*
X143322284Y-87181614D01*
X143322286Y-87181611D01*
X143322287Y-87181610D01*
X143369516Y-87088917D01*
X143417489Y-87038123D01*
X143485310Y-87021328D01*
X143551445Y-87043865D01*
X143590483Y-87088917D01*
X143596135Y-87100008D01*
X143637715Y-87181614D01*
X143758028Y-87347213D01*
X143902786Y-87491971D01*
X144047974Y-87597454D01*
X144068390Y-87612287D01*
X144184607Y-87671503D01*
X144250776Y-87705218D01*
X144250778Y-87705218D01*
X144250781Y-87705220D01*
X144341856Y-87734812D01*
X144445465Y-87768477D01*
X144546557Y-87784488D01*
X144647648Y-87800500D01*
X144647649Y-87800500D01*
X144852351Y-87800500D01*
X144852352Y-87800500D01*
X145054534Y-87768477D01*
X145249219Y-87705220D01*
X145431610Y-87612287D01*
X145560482Y-87518657D01*
X145597213Y-87491971D01*
X145597215Y-87491968D01*
X145597219Y-87491966D01*
X145741966Y-87347219D01*
X145741968Y-87347215D01*
X145741971Y-87347213D01*
X145846894Y-87202797D01*
X145862287Y-87181610D01*
X145909795Y-87088369D01*
X145957769Y-87037573D01*
X146025590Y-87020778D01*
X146091725Y-87043315D01*
X146130765Y-87088369D01*
X146178141Y-87181350D01*
X146178147Y-87181359D01*
X146210523Y-87225921D01*
X146210524Y-87225922D01*
X146890000Y-86546446D01*
X146890000Y-86552661D01*
X146917259Y-86654394D01*
X146969920Y-86745606D01*
X147044394Y-86820080D01*
X147135606Y-86872741D01*
X147237339Y-86900000D01*
X147243553Y-86900000D01*
X146564076Y-87579474D01*
X146608650Y-87611859D01*
X146790968Y-87704755D01*
X146985582Y-87767990D01*
X147187683Y-87800000D01*
X147392317Y-87800000D01*
X147594417Y-87767990D01*
X147789031Y-87704755D01*
X147971349Y-87611859D01*
X148015921Y-87579474D01*
X147336447Y-86900000D01*
X147342661Y-86900000D01*
X147444394Y-86872741D01*
X147535606Y-86820080D01*
X147610080Y-86745606D01*
X147662741Y-86654394D01*
X147690000Y-86552661D01*
X147690000Y-86546447D01*
X148369474Y-87225921D01*
X148401859Y-87181349D01*
X148494755Y-86999031D01*
X148557990Y-86804417D01*
X148590000Y-86602317D01*
X148590000Y-86397682D01*
X148557990Y-86195582D01*
X148494755Y-86000968D01*
X148401859Y-85818650D01*
X148369474Y-85774077D01*
X148369474Y-85774076D01*
X147690000Y-86453551D01*
X147690000Y-86447339D01*
X147662741Y-86345606D01*
X147610080Y-86254394D01*
X147535606Y-86179920D01*
X147444394Y-86127259D01*
X147342661Y-86100000D01*
X147336446Y-86100000D01*
X148015922Y-85420524D01*
X148015921Y-85420523D01*
X147971359Y-85388147D01*
X147971350Y-85388141D01*
X147789031Y-85295244D01*
X147594417Y-85232009D01*
X147392317Y-85200000D01*
X147187683Y-85200000D01*
X146985582Y-85232009D01*
X146790968Y-85295244D01*
X146608644Y-85388143D01*
X146564077Y-85420523D01*
X146564077Y-85420524D01*
X147243554Y-86100000D01*
X147237339Y-86100000D01*
X147135606Y-86127259D01*
X147044394Y-86179920D01*
X146969920Y-86254394D01*
X146917259Y-86345606D01*
X146890000Y-86447339D01*
X146890000Y-86453553D01*
X146210524Y-85774077D01*
X146210523Y-85774077D01*
X146178143Y-85818644D01*
X146130765Y-85911630D01*
X146082790Y-85962426D01*
X146014969Y-85979221D01*
X145948834Y-85956683D01*
X145909795Y-85911630D01*
X145903861Y-85899983D01*
X145862287Y-85818390D01*
X145862285Y-85818387D01*
X145862284Y-85818385D01*
X145741971Y-85652786D01*
X145597213Y-85508028D01*
X145431613Y-85387715D01*
X145431612Y-85387714D01*
X145431610Y-85387713D01*
X145333470Y-85337708D01*
X145249223Y-85294781D01*
X145054534Y-85231522D01*
X144879995Y-85203878D01*
X144852352Y-85199500D01*
X144647648Y-85199500D01*
X144623329Y-85203351D01*
X144445465Y-85231522D01*
X144250776Y-85294781D01*
X144068386Y-85387715D01*
X143902786Y-85508028D01*
X143758028Y-85652786D01*
X143637715Y-85818386D01*
X143590485Y-85911080D01*
X143542510Y-85961876D01*
X143474689Y-85978671D01*
X143408554Y-85956134D01*
X143369515Y-85911080D01*
X143363861Y-85899983D01*
X143322287Y-85818390D01*
X143290092Y-85774077D01*
X143201971Y-85652786D01*
X143057213Y-85508028D01*
X142891613Y-85387715D01*
X142891612Y-85387714D01*
X142891610Y-85387713D01*
X142793470Y-85337708D01*
X142709223Y-85294781D01*
X142514534Y-85231522D01*
X142339995Y-85203878D01*
X142312352Y-85199500D01*
X142107648Y-85199500D01*
X142083329Y-85203351D01*
X141905465Y-85231522D01*
X141710776Y-85294781D01*
X141528386Y-85387715D01*
X141362786Y-85508028D01*
X141218028Y-85652786D01*
X141097715Y-85818386D01*
X141050485Y-85911080D01*
X141002510Y-85961876D01*
X140934689Y-85978671D01*
X140868554Y-85956134D01*
X140829515Y-85911080D01*
X140823861Y-85899983D01*
X140782287Y-85818390D01*
X140750092Y-85774077D01*
X140661971Y-85652786D01*
X140517213Y-85508028D01*
X140351613Y-85387715D01*
X140351612Y-85387714D01*
X140351610Y-85387713D01*
X140253470Y-85337708D01*
X140169223Y-85294781D01*
X139974534Y-85231522D01*
X139799995Y-85203878D01*
X139772352Y-85199500D01*
X139567648Y-85199500D01*
X139543329Y-85203351D01*
X139365465Y-85231522D01*
X139170776Y-85294781D01*
X138988386Y-85387715D01*
X138822786Y-85508028D01*
X138678028Y-85652786D01*
X138557715Y-85818386D01*
X138510485Y-85911080D01*
X138462510Y-85961876D01*
X138394689Y-85978671D01*
X138328554Y-85956134D01*
X138289515Y-85911080D01*
X138283861Y-85899983D01*
X138242287Y-85818390D01*
X138210092Y-85774077D01*
X138121971Y-85652786D01*
X137977213Y-85508028D01*
X137811613Y-85387715D01*
X137811612Y-85387714D01*
X137811610Y-85387713D01*
X137713470Y-85337708D01*
X137629223Y-85294781D01*
X137434534Y-85231522D01*
X137259995Y-85203878D01*
X137232352Y-85199500D01*
X137027648Y-85199500D01*
X137003329Y-85203351D01*
X136825465Y-85231522D01*
X136630776Y-85294781D01*
X136448386Y-85387715D01*
X136282786Y-85508028D01*
X136138028Y-85652786D01*
X136017715Y-85818386D01*
X135970485Y-85911080D01*
X135922510Y-85961876D01*
X135854689Y-85978671D01*
X135788554Y-85956134D01*
X135749515Y-85911080D01*
X135743861Y-85899983D01*
X135702287Y-85818390D01*
X135670092Y-85774077D01*
X135581971Y-85652786D01*
X135437213Y-85508028D01*
X135271613Y-85387715D01*
X135271612Y-85387714D01*
X135271610Y-85387713D01*
X135173470Y-85337708D01*
X135089223Y-85294781D01*
X134894534Y-85231522D01*
X134719995Y-85203878D01*
X134692352Y-85199500D01*
X134487648Y-85199500D01*
X134463329Y-85203351D01*
X134285465Y-85231522D01*
X134090776Y-85294781D01*
X133908386Y-85387715D01*
X133742786Y-85508028D01*
X133598028Y-85652786D01*
X133477715Y-85818386D01*
X133430485Y-85911080D01*
X133382510Y-85961876D01*
X133314689Y-85978671D01*
X133248554Y-85956134D01*
X133209515Y-85911080D01*
X133203861Y-85899983D01*
X133162287Y-85818390D01*
X133130092Y-85774077D01*
X133041971Y-85652786D01*
X132897213Y-85508028D01*
X132731613Y-85387715D01*
X132731612Y-85387714D01*
X132731610Y-85387713D01*
X132633470Y-85337708D01*
X132549223Y-85294781D01*
X132354534Y-85231522D01*
X132179995Y-85203878D01*
X132152352Y-85199500D01*
X131947648Y-85199500D01*
X131896381Y-85207620D01*
X131745464Y-85231523D01*
X131745461Y-85231523D01*
X131552818Y-85294118D01*
X131482977Y-85296113D01*
X131423144Y-85260033D01*
X131392316Y-85197332D01*
X131390500Y-85176187D01*
X131390500Y-84881902D01*
X153999500Y-84881902D01*
X153999500Y-85118097D01*
X154036446Y-85351368D01*
X154109433Y-85575996D01*
X154148560Y-85652786D01*
X154216657Y-85786433D01*
X154355483Y-85977510D01*
X154522490Y-86144517D01*
X154713567Y-86283343D01*
X154812991Y-86334002D01*
X154924003Y-86390566D01*
X154924005Y-86390566D01*
X154924008Y-86390568D01*
X155044412Y-86429689D01*
X155148631Y-86463553D01*
X155381903Y-86500500D01*
X155381908Y-86500500D01*
X155618097Y-86500500D01*
X155851368Y-86463553D01*
X155901269Y-86447339D01*
X156075992Y-86390568D01*
X156286433Y-86283343D01*
X156477510Y-86144517D01*
X156644517Y-85977510D01*
X156783343Y-85786433D01*
X156890568Y-85575992D01*
X156963553Y-85351368D01*
X156965717Y-85337708D01*
X157000500Y-85118097D01*
X157000500Y-84881902D01*
X158499500Y-84881902D01*
X158499500Y-85118097D01*
X158536446Y-85351368D01*
X158609433Y-85575996D01*
X158648560Y-85652786D01*
X158716657Y-85786433D01*
X158855483Y-85977510D01*
X159022490Y-86144517D01*
X159213567Y-86283343D01*
X159312991Y-86334002D01*
X159424003Y-86390566D01*
X159424005Y-86390566D01*
X159424008Y-86390568D01*
X159544412Y-86429689D01*
X159648631Y-86463553D01*
X159881903Y-86500500D01*
X159881908Y-86500500D01*
X160118097Y-86500500D01*
X160351368Y-86463553D01*
X160401269Y-86447339D01*
X160575992Y-86390568D01*
X160786433Y-86283343D01*
X160977510Y-86144517D01*
X161144517Y-85977510D01*
X161283343Y-85786433D01*
X161390568Y-85575992D01*
X161463553Y-85351368D01*
X161465717Y-85337708D01*
X161500500Y-85118097D01*
X161500500Y-84881902D01*
X163249500Y-84881902D01*
X163249500Y-85118097D01*
X163286446Y-85351368D01*
X163359433Y-85575996D01*
X163398560Y-85652786D01*
X163466657Y-85786433D01*
X163605483Y-85977510D01*
X163772490Y-86144517D01*
X163963567Y-86283343D01*
X164062991Y-86334002D01*
X164174003Y-86390566D01*
X164174005Y-86390566D01*
X164174008Y-86390568D01*
X164294412Y-86429689D01*
X164398631Y-86463553D01*
X164631903Y-86500500D01*
X164631908Y-86500500D01*
X164868097Y-86500500D01*
X165101368Y-86463553D01*
X165151269Y-86447339D01*
X165325992Y-86390568D01*
X165536433Y-86283343D01*
X165727510Y-86144517D01*
X165894517Y-85977510D01*
X166033343Y-85786433D01*
X166140568Y-85575992D01*
X166213553Y-85351368D01*
X166215717Y-85337708D01*
X166250500Y-85118097D01*
X166250500Y-84881947D01*
X167750000Y-84881947D01*
X167750000Y-85118052D01*
X167786934Y-85351247D01*
X167859897Y-85575802D01*
X167967087Y-85786174D01*
X168027338Y-85869104D01*
X168027340Y-85869105D01*
X168726212Y-85170233D01*
X168737482Y-85212292D01*
X168809890Y-85337708D01*
X168912292Y-85440110D01*
X169037708Y-85512518D01*
X169079765Y-85523787D01*
X168380893Y-86222658D01*
X168463828Y-86282914D01*
X168674197Y-86390102D01*
X168898752Y-86463065D01*
X168898751Y-86463065D01*
X169131948Y-86500000D01*
X169368052Y-86500000D01*
X169601247Y-86463065D01*
X169825802Y-86390102D01*
X170036163Y-86282918D01*
X170036169Y-86282914D01*
X170119104Y-86222658D01*
X170119105Y-86222658D01*
X169420233Y-85523787D01*
X169462292Y-85512518D01*
X169587708Y-85440110D01*
X169690110Y-85337708D01*
X169762518Y-85212292D01*
X169773787Y-85170233D01*
X170472658Y-85869105D01*
X170472658Y-85869104D01*
X170532914Y-85786169D01*
X170532918Y-85786163D01*
X170640102Y-85575802D01*
X170713065Y-85351247D01*
X170750000Y-85118052D01*
X170750000Y-84881947D01*
X170749993Y-84881902D01*
X171999500Y-84881902D01*
X171999500Y-85118097D01*
X172036446Y-85351368D01*
X172109433Y-85575996D01*
X172148560Y-85652786D01*
X172216657Y-85786433D01*
X172355483Y-85977510D01*
X172522490Y-86144517D01*
X172713567Y-86283343D01*
X172812991Y-86334002D01*
X172924003Y-86390566D01*
X172924005Y-86390566D01*
X172924008Y-86390568D01*
X173044412Y-86429689D01*
X173148631Y-86463553D01*
X173381903Y-86500500D01*
X173381908Y-86500500D01*
X173618097Y-86500500D01*
X173851368Y-86463553D01*
X173901269Y-86447339D01*
X174075992Y-86390568D01*
X174286433Y-86283343D01*
X174477510Y-86144517D01*
X174644517Y-85977510D01*
X174783343Y-85786433D01*
X174890568Y-85575992D01*
X174963553Y-85351368D01*
X174965717Y-85337708D01*
X175000500Y-85118097D01*
X175000500Y-84881902D01*
X176499500Y-84881902D01*
X176499500Y-85118097D01*
X176536446Y-85351368D01*
X176609433Y-85575996D01*
X176648560Y-85652786D01*
X176716657Y-85786433D01*
X176855483Y-85977510D01*
X177022490Y-86144517D01*
X177213567Y-86283343D01*
X177312991Y-86334002D01*
X177424003Y-86390566D01*
X177424005Y-86390566D01*
X177424008Y-86390568D01*
X177544412Y-86429689D01*
X177648631Y-86463553D01*
X177881903Y-86500500D01*
X177881908Y-86500500D01*
X178118097Y-86500500D01*
X178351368Y-86463553D01*
X178401269Y-86447339D01*
X178575992Y-86390568D01*
X178786433Y-86283343D01*
X178977510Y-86144517D01*
X179144517Y-85977510D01*
X179283343Y-85786433D01*
X179390568Y-85575992D01*
X179463553Y-85351368D01*
X179465717Y-85337708D01*
X179500500Y-85118097D01*
X179500500Y-84881902D01*
X179463553Y-84648631D01*
X179390566Y-84424003D01*
X179283477Y-84213830D01*
X179283343Y-84213567D01*
X179144517Y-84022490D01*
X178977510Y-83855483D01*
X178786433Y-83716657D01*
X178575996Y-83609433D01*
X178351368Y-83536446D01*
X178118097Y-83499500D01*
X178118092Y-83499500D01*
X177881908Y-83499500D01*
X177881903Y-83499500D01*
X177648631Y-83536446D01*
X177424003Y-83609433D01*
X177213566Y-83716657D01*
X177130047Y-83777338D01*
X177022490Y-83855483D01*
X177022488Y-83855485D01*
X177022487Y-83855485D01*
X176855485Y-84022487D01*
X176855485Y-84022488D01*
X176855483Y-84022490D01*
X176795862Y-84104550D01*
X176716657Y-84213566D01*
X176609433Y-84424003D01*
X176536446Y-84648631D01*
X176499500Y-84881902D01*
X175000500Y-84881902D01*
X174963553Y-84648631D01*
X174890566Y-84424003D01*
X174783477Y-84213830D01*
X174783343Y-84213567D01*
X174644517Y-84022490D01*
X174477510Y-83855483D01*
X174286433Y-83716657D01*
X174075996Y-83609433D01*
X173851368Y-83536446D01*
X173618097Y-83499500D01*
X173618092Y-83499500D01*
X173381908Y-83499500D01*
X173381903Y-83499500D01*
X173148631Y-83536446D01*
X172924003Y-83609433D01*
X172713566Y-83716657D01*
X172630047Y-83777338D01*
X172522490Y-83855483D01*
X172522488Y-83855485D01*
X172522487Y-83855485D01*
X172355485Y-84022487D01*
X172355485Y-84022488D01*
X172355483Y-84022490D01*
X172295862Y-84104550D01*
X172216657Y-84213566D01*
X172109433Y-84424003D01*
X172036446Y-84648631D01*
X171999500Y-84881902D01*
X170749993Y-84881902D01*
X170713065Y-84648752D01*
X170640102Y-84424197D01*
X170532914Y-84213828D01*
X170472658Y-84130894D01*
X170472658Y-84130893D01*
X169773787Y-84829765D01*
X169762518Y-84787708D01*
X169690110Y-84662292D01*
X169587708Y-84559890D01*
X169462292Y-84487482D01*
X169420234Y-84476212D01*
X170119105Y-83777340D01*
X170119104Y-83777338D01*
X170036174Y-83717087D01*
X169825802Y-83609897D01*
X169601247Y-83536934D01*
X169601248Y-83536934D01*
X169368052Y-83500000D01*
X169131948Y-83500000D01*
X168898752Y-83536934D01*
X168674197Y-83609897D01*
X168463830Y-83717084D01*
X168380894Y-83777340D01*
X169079766Y-84476212D01*
X169037708Y-84487482D01*
X168912292Y-84559890D01*
X168809890Y-84662292D01*
X168737482Y-84787708D01*
X168726212Y-84829766D01*
X168027340Y-84130894D01*
X167967084Y-84213830D01*
X167859897Y-84424197D01*
X167786934Y-84648752D01*
X167750000Y-84881947D01*
X166250500Y-84881947D01*
X166250500Y-84881902D01*
X166213553Y-84648631D01*
X166140566Y-84424003D01*
X166033477Y-84213830D01*
X166033343Y-84213567D01*
X165894517Y-84022490D01*
X165727510Y-83855483D01*
X165536433Y-83716657D01*
X165325996Y-83609433D01*
X165101368Y-83536446D01*
X164868097Y-83499500D01*
X164868092Y-83499500D01*
X164631908Y-83499500D01*
X164631903Y-83499500D01*
X164398631Y-83536446D01*
X164174003Y-83609433D01*
X163963566Y-83716657D01*
X163880047Y-83777338D01*
X163772490Y-83855483D01*
X163772488Y-83855485D01*
X163772487Y-83855485D01*
X163605485Y-84022487D01*
X163605485Y-84022488D01*
X163605483Y-84022490D01*
X163545862Y-84104550D01*
X163466657Y-84213566D01*
X163359433Y-84424003D01*
X163286446Y-84648631D01*
X163249500Y-84881902D01*
X161500500Y-84881902D01*
X161463553Y-84648631D01*
X161390566Y-84424003D01*
X161283477Y-84213830D01*
X161283343Y-84213567D01*
X161144517Y-84022490D01*
X160977510Y-83855483D01*
X160786433Y-83716657D01*
X160575996Y-83609433D01*
X160351368Y-83536446D01*
X160118097Y-83499500D01*
X160118092Y-83499500D01*
X159881908Y-83499500D01*
X159881903Y-83499500D01*
X159648631Y-83536446D01*
X159424003Y-83609433D01*
X159213566Y-83716657D01*
X159130047Y-83777338D01*
X159022490Y-83855483D01*
X159022488Y-83855485D01*
X159022487Y-83855485D01*
X158855485Y-84022487D01*
X158855485Y-84022488D01*
X158855483Y-84022490D01*
X158795862Y-84104550D01*
X158716657Y-84213566D01*
X158609433Y-84424003D01*
X158536446Y-84648631D01*
X158499500Y-84881902D01*
X157000500Y-84881902D01*
X156963553Y-84648631D01*
X156890566Y-84424003D01*
X156783477Y-84213830D01*
X156783343Y-84213567D01*
X156644517Y-84022490D01*
X156477510Y-83855483D01*
X156286433Y-83716657D01*
X156075996Y-83609433D01*
X155851368Y-83536446D01*
X155618097Y-83499500D01*
X155618092Y-83499500D01*
X155381908Y-83499500D01*
X155381903Y-83499500D01*
X155148631Y-83536446D01*
X154924003Y-83609433D01*
X154713566Y-83716657D01*
X154630047Y-83777338D01*
X154522490Y-83855483D01*
X154522488Y-83855485D01*
X154522487Y-83855485D01*
X154355485Y-84022487D01*
X154355485Y-84022488D01*
X154355483Y-84022490D01*
X154295862Y-84104550D01*
X154216657Y-84213566D01*
X154109433Y-84424003D01*
X154036446Y-84648631D01*
X153999500Y-84881902D01*
X131390500Y-84881902D01*
X131390500Y-84297882D01*
X151845669Y-84297882D01*
X151845670Y-84297883D01*
X151871059Y-84316329D01*
X152039362Y-84402085D01*
X152218997Y-84460451D01*
X152405553Y-84490000D01*
X152594447Y-84490000D01*
X152781002Y-84460451D01*
X152960637Y-84402085D01*
X153128937Y-84316331D01*
X153154328Y-84297883D01*
X153154328Y-84297882D01*
X152500001Y-83643554D01*
X152500000Y-83643554D01*
X151845669Y-84297882D01*
X131390500Y-84297882D01*
X131390500Y-83195552D01*
X151300000Y-83195552D01*
X151300000Y-83384447D01*
X151329548Y-83571002D01*
X151387914Y-83750637D01*
X151473666Y-83918933D01*
X151492116Y-83944328D01*
X152146446Y-83290000D01*
X152146446Y-83289999D01*
X152100369Y-83243922D01*
X152150000Y-83243922D01*
X152150000Y-83336078D01*
X152173852Y-83425095D01*
X152219930Y-83504905D01*
X152285095Y-83570070D01*
X152364905Y-83616148D01*
X152453922Y-83640000D01*
X152546078Y-83640000D01*
X152635095Y-83616148D01*
X152714905Y-83570070D01*
X152780070Y-83504905D01*
X152826148Y-83425095D01*
X152850000Y-83336078D01*
X152850000Y-83289999D01*
X152853554Y-83289999D01*
X152853554Y-83290000D01*
X153507882Y-83944328D01*
X153507883Y-83944328D01*
X153526331Y-83918937D01*
X153612085Y-83750637D01*
X153670451Y-83571002D01*
X153700000Y-83384447D01*
X153700000Y-83195552D01*
X153670451Y-83008997D01*
X153612085Y-82829362D01*
X153526329Y-82661059D01*
X153507883Y-82635670D01*
X153507882Y-82635669D01*
X152853554Y-83289999D01*
X152850000Y-83289999D01*
X152850000Y-83243922D01*
X152826148Y-83154905D01*
X152780070Y-83075095D01*
X152714905Y-83009930D01*
X152635095Y-82963852D01*
X152546078Y-82940000D01*
X152453922Y-82940000D01*
X152364905Y-82963852D01*
X152285095Y-83009930D01*
X152219930Y-83075095D01*
X152173852Y-83154905D01*
X152150000Y-83243922D01*
X152100369Y-83243922D01*
X151492116Y-82635669D01*
X151492116Y-82635670D01*
X151473669Y-82661060D01*
X151387914Y-82829362D01*
X151329548Y-83008997D01*
X151300000Y-83195552D01*
X131390500Y-83195552D01*
X131390500Y-80440096D01*
X131410185Y-80373057D01*
X131426815Y-80352419D01*
X131605157Y-80174076D01*
X131666480Y-80140592D01*
X131731154Y-80143826D01*
X131745466Y-80148477D01*
X131947648Y-80180500D01*
X131947649Y-80180500D01*
X132152351Y-80180500D01*
X132152352Y-80180500D01*
X132354534Y-80148477D01*
X132549219Y-80085220D01*
X132731610Y-79992287D01*
X132832051Y-79919313D01*
X132897213Y-79871971D01*
X132897215Y-79871968D01*
X132897219Y-79871966D01*
X133041966Y-79727219D01*
X133041968Y-79727215D01*
X133041971Y-79727213D01*
X133162284Y-79561614D01*
X133162285Y-79561613D01*
X133162287Y-79561610D01*
X133209516Y-79468917D01*
X133257489Y-79418123D01*
X133325310Y-79401328D01*
X133391445Y-79423865D01*
X133430483Y-79468917D01*
X133434863Y-79477512D01*
X133477715Y-79561614D01*
X133598028Y-79727213D01*
X133742786Y-79871971D01*
X133888167Y-79977594D01*
X133908390Y-79992287D01*
X133989499Y-80033614D01*
X134090776Y-80085218D01*
X134090778Y-80085218D01*
X134090781Y-80085220D01*
X134165818Y-80109601D01*
X134285465Y-80148477D01*
X134363105Y-80160774D01*
X134487648Y-80180500D01*
X134487649Y-80180500D01*
X134692351Y-80180500D01*
X134692352Y-80180500D01*
X134894534Y-80148477D01*
X135089219Y-80085220D01*
X135271610Y-79992287D01*
X135372051Y-79919313D01*
X135437213Y-79871971D01*
X135437215Y-79871968D01*
X135437219Y-79871966D01*
X135581966Y-79727219D01*
X135581968Y-79727215D01*
X135581971Y-79727213D01*
X135702284Y-79561614D01*
X135702285Y-79561613D01*
X135702287Y-79561610D01*
X135749516Y-79468917D01*
X135797489Y-79418123D01*
X135865310Y-79401328D01*
X135931445Y-79423865D01*
X135970483Y-79468917D01*
X135974863Y-79477512D01*
X136017715Y-79561614D01*
X136138028Y-79727213D01*
X136282786Y-79871971D01*
X136428167Y-79977594D01*
X136448390Y-79992287D01*
X136529499Y-80033614D01*
X136630776Y-80085218D01*
X136630778Y-80085218D01*
X136630781Y-80085220D01*
X136705818Y-80109601D01*
X136825465Y-80148477D01*
X136903105Y-80160774D01*
X137027648Y-80180500D01*
X137027649Y-80180500D01*
X137232351Y-80180500D01*
X137232352Y-80180500D01*
X137434534Y-80148477D01*
X137629219Y-80085220D01*
X137811610Y-79992287D01*
X137912051Y-79919313D01*
X137977213Y-79871971D01*
X137977215Y-79871968D01*
X137977219Y-79871966D01*
X138121966Y-79727219D01*
X138121968Y-79727215D01*
X138121971Y-79727213D01*
X138242284Y-79561614D01*
X138242285Y-79561613D01*
X138242287Y-79561610D01*
X138289516Y-79468917D01*
X138337489Y-79418123D01*
X138405310Y-79401328D01*
X138471445Y-79423865D01*
X138510483Y-79468917D01*
X138514863Y-79477512D01*
X138557715Y-79561614D01*
X138678028Y-79727213D01*
X138822786Y-79871971D01*
X138968167Y-79977594D01*
X138988390Y-79992287D01*
X139069499Y-80033614D01*
X139170776Y-80085218D01*
X139170778Y-80085218D01*
X139170781Y-80085220D01*
X139245818Y-80109601D01*
X139365465Y-80148477D01*
X139443105Y-80160774D01*
X139567648Y-80180500D01*
X139567649Y-80180500D01*
X139772351Y-80180500D01*
X139772352Y-80180500D01*
X139974534Y-80148477D01*
X140169219Y-80085220D01*
X140351610Y-79992287D01*
X140452051Y-79919313D01*
X140517213Y-79871971D01*
X140517215Y-79871968D01*
X140517219Y-79871966D01*
X140661966Y-79727219D01*
X140661968Y-79727215D01*
X140661971Y-79727213D01*
X140782284Y-79561614D01*
X140782285Y-79561613D01*
X140782287Y-79561610D01*
X140829516Y-79468917D01*
X140877489Y-79418123D01*
X140945310Y-79401328D01*
X141011445Y-79423865D01*
X141050483Y-79468917D01*
X141054863Y-79477512D01*
X141097715Y-79561614D01*
X141218028Y-79727213D01*
X141362786Y-79871971D01*
X141508167Y-79977594D01*
X141528390Y-79992287D01*
X141609499Y-80033614D01*
X141710776Y-80085218D01*
X141710778Y-80085218D01*
X141710781Y-80085220D01*
X141785818Y-80109601D01*
X141905465Y-80148477D01*
X141983105Y-80160774D01*
X142107648Y-80180500D01*
X142107649Y-80180500D01*
X142312351Y-80180500D01*
X142312352Y-80180500D01*
X142514534Y-80148477D01*
X142709219Y-80085220D01*
X142891610Y-79992287D01*
X142992051Y-79919313D01*
X143057213Y-79871971D01*
X143057215Y-79871968D01*
X143057219Y-79871966D01*
X143201966Y-79727219D01*
X143201968Y-79727215D01*
X143201971Y-79727213D01*
X143322284Y-79561614D01*
X143322285Y-79561613D01*
X143322287Y-79561610D01*
X143369516Y-79468917D01*
X143417489Y-79418123D01*
X143485310Y-79401328D01*
X143551445Y-79423865D01*
X143590483Y-79468917D01*
X143594863Y-79477512D01*
X143637715Y-79561614D01*
X143758028Y-79727213D01*
X143758034Y-79727219D01*
X143902781Y-79871966D01*
X144068390Y-79992287D01*
X144081793Y-79999116D01*
X144092856Y-80009564D01*
X144106703Y-80015888D01*
X144117744Y-80033068D01*
X144132589Y-80047088D01*
X144136830Y-80062768D01*
X144144477Y-80074666D01*
X144149500Y-80109601D01*
X144149500Y-80163330D01*
X144149499Y-80163348D01*
X144149499Y-80329054D01*
X144149498Y-80329054D01*
X144149499Y-80329057D01*
X144190423Y-80481785D01*
X144190424Y-80481786D01*
X144205971Y-80508714D01*
X144205971Y-80508717D01*
X144205973Y-80508717D01*
X144269479Y-80618714D01*
X144269481Y-80618717D01*
X144388349Y-80737585D01*
X144388354Y-80737589D01*
X145381284Y-81730520D01*
X145381286Y-81730521D01*
X145381290Y-81730524D01*
X145518209Y-81809573D01*
X145518216Y-81809577D01*
X145670943Y-81850501D01*
X145670945Y-81850501D01*
X145836654Y-81850501D01*
X145836670Y-81850500D01*
X152342130Y-81850500D01*
X152409169Y-81870185D01*
X152454924Y-81922989D01*
X152464868Y-81992147D01*
X152435843Y-82055703D01*
X152377065Y-82093477D01*
X152361528Y-82096973D01*
X152218997Y-82119548D01*
X152039362Y-82177914D01*
X151871060Y-82263669D01*
X151845670Y-82282116D01*
X151845669Y-82282116D01*
X152500000Y-82936446D01*
X152500001Y-82936446D01*
X153154328Y-82282116D01*
X153128933Y-82263666D01*
X152960637Y-82177914D01*
X152781002Y-82119548D01*
X152638472Y-82096973D01*
X152575337Y-82067044D01*
X152538406Y-82007732D01*
X152539404Y-81937869D01*
X152578014Y-81879637D01*
X152641978Y-81851523D01*
X152657870Y-81850500D01*
X161913331Y-81850500D01*
X161913347Y-81850501D01*
X161920943Y-81850501D01*
X162079054Y-81850501D01*
X162079057Y-81850501D01*
X162231785Y-81809577D01*
X162281904Y-81780639D01*
X162368716Y-81730520D01*
X162480520Y-81618716D01*
X162480520Y-81618714D01*
X162490728Y-81608507D01*
X162490730Y-81608504D01*
X164146437Y-79952796D01*
X164207758Y-79919313D01*
X164272433Y-79922547D01*
X164398632Y-79963553D01*
X164486110Y-79977408D01*
X164631903Y-80000500D01*
X164631908Y-80000500D01*
X164868097Y-80000500D01*
X165101368Y-79963553D01*
X165158905Y-79944858D01*
X165325992Y-79890568D01*
X165536433Y-79783343D01*
X165727510Y-79644517D01*
X165894517Y-79477510D01*
X166033343Y-79286433D01*
X166140568Y-79075992D01*
X166213553Y-78851368D01*
X166225229Y-78777648D01*
X166250500Y-78618097D01*
X166250500Y-78381902D01*
X166213553Y-78148631D01*
X166151534Y-77957758D01*
X166140568Y-77924008D01*
X166140566Y-77924005D01*
X166140566Y-77924003D01*
X166060932Y-77767713D01*
X166033343Y-77713567D01*
X165894517Y-77522490D01*
X165727510Y-77355483D01*
X165536433Y-77216657D01*
X165325996Y-77109433D01*
X165299832Y-77100932D01*
X165273665Y-77092430D01*
X165215992Y-77052993D01*
X165188794Y-76988634D01*
X165200709Y-76919788D01*
X165247953Y-76868312D01*
X165311986Y-76850500D01*
X168689634Y-76850500D01*
X168756673Y-76870185D01*
X168802428Y-76922989D01*
X168812372Y-76992147D01*
X168783347Y-77055703D01*
X168727953Y-77092431D01*
X168674195Y-77109897D01*
X168463830Y-77217084D01*
X168380894Y-77277340D01*
X169079766Y-77976212D01*
X169037708Y-77987482D01*
X168912292Y-78059890D01*
X168809890Y-78162292D01*
X168737482Y-78287708D01*
X168726212Y-78329766D01*
X168027340Y-77630894D01*
X167967084Y-77713830D01*
X167859897Y-77924197D01*
X167786934Y-78148752D01*
X167750000Y-78381947D01*
X167750000Y-78618052D01*
X167786934Y-78851247D01*
X167859897Y-79075802D01*
X167967087Y-79286174D01*
X168027338Y-79369104D01*
X168027340Y-79369105D01*
X168726212Y-78670233D01*
X168737482Y-78712292D01*
X168809890Y-78837708D01*
X168912292Y-78940110D01*
X169037708Y-79012518D01*
X169079765Y-79023787D01*
X168380893Y-79722658D01*
X168463828Y-79782914D01*
X168674197Y-79890102D01*
X168898752Y-79963065D01*
X168898751Y-79963065D01*
X169131948Y-80000000D01*
X169368052Y-80000000D01*
X169601247Y-79963065D01*
X169825802Y-79890102D01*
X170036163Y-79782918D01*
X170036169Y-79782914D01*
X170119104Y-79722658D01*
X170119105Y-79722658D01*
X169420233Y-79023787D01*
X169462292Y-79012518D01*
X169587708Y-78940110D01*
X169690110Y-78837708D01*
X169762518Y-78712292D01*
X169773787Y-78670233D01*
X170472658Y-79369105D01*
X170472658Y-79369104D01*
X170532914Y-79286169D01*
X170532918Y-79286163D01*
X170640102Y-79075802D01*
X170713065Y-78851247D01*
X170750000Y-78618052D01*
X170750000Y-78381947D01*
X170713065Y-78148752D01*
X170640102Y-77924197D01*
X170532914Y-77713828D01*
X170472658Y-77630894D01*
X170472658Y-77630893D01*
X169773787Y-78329765D01*
X169762518Y-78287708D01*
X169690110Y-78162292D01*
X169587708Y-78059890D01*
X169462292Y-77987482D01*
X169420234Y-77976212D01*
X170119105Y-77277340D01*
X170119104Y-77277338D01*
X170036174Y-77217087D01*
X169825804Y-77109898D01*
X169772047Y-77092431D01*
X169714372Y-77052993D01*
X169687174Y-76988634D01*
X169699089Y-76919788D01*
X169746333Y-76868312D01*
X169810366Y-76850500D01*
X170949903Y-76850500D01*
X171016942Y-76870185D01*
X171037584Y-76886819D01*
X172047200Y-77896435D01*
X172080685Y-77957758D01*
X172077450Y-78022433D01*
X172036447Y-78148628D01*
X171999500Y-78381902D01*
X171999500Y-78618097D01*
X172036446Y-78851368D01*
X172109433Y-79075996D01*
X172191347Y-79236759D01*
X172216657Y-79286433D01*
X172355483Y-79477510D01*
X172522490Y-79644517D01*
X172713567Y-79783343D01*
X172812991Y-79834002D01*
X172924003Y-79890566D01*
X172924005Y-79890566D01*
X172924008Y-79890568D01*
X173012476Y-79919313D01*
X173148631Y-79963553D01*
X173381903Y-80000500D01*
X173381908Y-80000500D01*
X173618097Y-80000500D01*
X173851368Y-79963553D01*
X173908905Y-79944858D01*
X174075992Y-79890568D01*
X174286433Y-79783343D01*
X174477510Y-79644517D01*
X174644517Y-79477510D01*
X174783343Y-79286433D01*
X174890568Y-79075992D01*
X174963553Y-78851368D01*
X174975229Y-78777648D01*
X175000500Y-78618097D01*
X175000500Y-78381902D01*
X176499500Y-78381902D01*
X176499500Y-78618097D01*
X176536446Y-78851368D01*
X176609433Y-79075996D01*
X176691347Y-79236759D01*
X176716657Y-79286433D01*
X176855483Y-79477510D01*
X177022490Y-79644517D01*
X177213567Y-79783343D01*
X177312991Y-79834002D01*
X177424003Y-79890566D01*
X177424005Y-79890566D01*
X177424008Y-79890568D01*
X177512476Y-79919313D01*
X177648631Y-79963553D01*
X177881903Y-80000500D01*
X177881908Y-80000500D01*
X178118097Y-80000500D01*
X178351368Y-79963553D01*
X178408905Y-79944858D01*
X178575992Y-79890568D01*
X178786433Y-79783343D01*
X178977510Y-79644517D01*
X179144517Y-79477510D01*
X179283343Y-79286433D01*
X179390568Y-79075992D01*
X179463553Y-78851368D01*
X179475229Y-78777648D01*
X179500500Y-78618097D01*
X179500500Y-78381902D01*
X179463553Y-78148631D01*
X179401534Y-77957758D01*
X179390568Y-77924008D01*
X179390566Y-77924005D01*
X179390566Y-77924003D01*
X179310932Y-77767713D01*
X179283343Y-77713567D01*
X179144517Y-77522490D01*
X178977510Y-77355483D01*
X178786433Y-77216657D01*
X178575996Y-77109433D01*
X178351368Y-77036446D01*
X178118097Y-76999500D01*
X178118092Y-76999500D01*
X177881908Y-76999500D01*
X177881903Y-76999500D01*
X177648631Y-77036446D01*
X177424003Y-77109433D01*
X177213566Y-77216657D01*
X177130047Y-77277338D01*
X177022490Y-77355483D01*
X177022488Y-77355485D01*
X177022487Y-77355485D01*
X176855485Y-77522487D01*
X176855485Y-77522488D01*
X176855483Y-77522490D01*
X176809398Y-77585921D01*
X176716657Y-77713566D01*
X176609433Y-77924003D01*
X176536446Y-78148631D01*
X176499500Y-78381902D01*
X175000500Y-78381902D01*
X174963553Y-78148631D01*
X174901534Y-77957758D01*
X174890568Y-77924008D01*
X174890566Y-77924005D01*
X174890566Y-77924003D01*
X174810932Y-77767713D01*
X174783343Y-77713567D01*
X174644517Y-77522490D01*
X174477510Y-77355483D01*
X174286433Y-77216657D01*
X174075996Y-77109433D01*
X173851368Y-77036446D01*
X173618097Y-76999500D01*
X173618092Y-76999500D01*
X173381908Y-76999500D01*
X173381903Y-76999500D01*
X173148628Y-77036447D01*
X173022433Y-77077450D01*
X172952592Y-77079445D01*
X172896435Y-77047200D01*
X171737590Y-75888355D01*
X171737588Y-75888352D01*
X171618717Y-75769481D01*
X171618716Y-75769480D01*
X171531904Y-75719360D01*
X171531904Y-75719359D01*
X171531900Y-75719358D01*
X171481785Y-75690423D01*
X171329057Y-75649499D01*
X171170943Y-75649499D01*
X171163347Y-75649499D01*
X171163331Y-75649500D01*
X144926670Y-75649500D01*
X144926654Y-75649499D01*
X144919058Y-75649499D01*
X144760943Y-75649499D01*
X144684579Y-75669961D01*
X144608214Y-75690423D01*
X144608209Y-75690426D01*
X144471290Y-75769475D01*
X144471282Y-75769481D01*
X142654842Y-77585921D01*
X142593519Y-77619406D01*
X142528848Y-77616173D01*
X142514534Y-77611522D01*
X142339995Y-77583878D01*
X142312352Y-77579500D01*
X142107648Y-77579500D01*
X142083329Y-77583351D01*
X141905465Y-77611522D01*
X141710776Y-77674781D01*
X141528386Y-77767715D01*
X141362786Y-77888028D01*
X141218028Y-78032786D01*
X141097715Y-78198386D01*
X141050485Y-78291080D01*
X141002510Y-78341876D01*
X140934689Y-78358671D01*
X140868554Y-78336134D01*
X140829515Y-78291080D01*
X140827797Y-78287708D01*
X140782287Y-78198390D01*
X140774556Y-78187749D01*
X140661971Y-78032786D01*
X140517213Y-77888028D01*
X140351613Y-77767715D01*
X140351612Y-77767714D01*
X140351610Y-77767713D01*
X140294653Y-77738691D01*
X140169223Y-77674781D01*
X139974534Y-77611522D01*
X139799995Y-77583878D01*
X139772352Y-77579500D01*
X139567648Y-77579500D01*
X139543329Y-77583351D01*
X139365465Y-77611522D01*
X139170776Y-77674781D01*
X138988386Y-77767715D01*
X138822786Y-77888028D01*
X138678028Y-78032786D01*
X138557715Y-78198386D01*
X138510485Y-78291080D01*
X138462510Y-78341876D01*
X138394689Y-78358671D01*
X138328554Y-78336134D01*
X138289515Y-78291080D01*
X138287797Y-78287708D01*
X138242287Y-78198390D01*
X138234556Y-78187749D01*
X138121971Y-78032786D01*
X137977213Y-77888028D01*
X137811613Y-77767715D01*
X137811612Y-77767714D01*
X137811610Y-77767713D01*
X137754653Y-77738691D01*
X137629223Y-77674781D01*
X137434534Y-77611522D01*
X137259995Y-77583878D01*
X137232352Y-77579500D01*
X137027648Y-77579500D01*
X137003329Y-77583351D01*
X136825465Y-77611522D01*
X136630776Y-77674781D01*
X136448386Y-77767715D01*
X136282786Y-77888028D01*
X136138028Y-78032786D01*
X136017715Y-78198386D01*
X135970485Y-78291080D01*
X135922510Y-78341876D01*
X135854689Y-78358671D01*
X135788554Y-78336134D01*
X135749515Y-78291080D01*
X135747797Y-78287708D01*
X135702287Y-78198390D01*
X135694556Y-78187749D01*
X135581971Y-78032786D01*
X135437213Y-77888028D01*
X135271613Y-77767715D01*
X135271612Y-77767714D01*
X135271610Y-77767713D01*
X135214653Y-77738691D01*
X135089223Y-77674781D01*
X134894534Y-77611522D01*
X134719995Y-77583878D01*
X134692352Y-77579500D01*
X134487648Y-77579500D01*
X134463329Y-77583351D01*
X134285465Y-77611522D01*
X134090776Y-77674781D01*
X133908386Y-77767715D01*
X133742786Y-77888028D01*
X133598028Y-78032786D01*
X133477715Y-78198386D01*
X133430485Y-78291080D01*
X133382510Y-78341876D01*
X133314689Y-78358671D01*
X133248554Y-78336134D01*
X133209515Y-78291080D01*
X133207797Y-78287708D01*
X133162287Y-78198390D01*
X133154556Y-78187749D01*
X133041971Y-78032786D01*
X132897213Y-77888028D01*
X132731613Y-77767715D01*
X132731612Y-77767714D01*
X132731610Y-77767713D01*
X132674653Y-77738691D01*
X132549223Y-77674781D01*
X132354534Y-77611522D01*
X132179995Y-77583878D01*
X132152352Y-77579500D01*
X131947648Y-77579500D01*
X131923329Y-77583351D01*
X131745465Y-77611522D01*
X131550776Y-77674781D01*
X131368386Y-77767715D01*
X131202786Y-77888028D01*
X131058028Y-78032786D01*
X130937715Y-78198386D01*
X130890485Y-78291080D01*
X130842510Y-78341876D01*
X130774689Y-78358671D01*
X130708554Y-78336134D01*
X130669515Y-78291080D01*
X130667797Y-78287708D01*
X130622287Y-78198390D01*
X130614556Y-78187749D01*
X130501971Y-78032786D01*
X130357213Y-77888028D01*
X130191613Y-77767715D01*
X130191612Y-77767714D01*
X130191610Y-77767713D01*
X130134653Y-77738691D01*
X130009223Y-77674781D01*
X129814534Y-77611522D01*
X129639995Y-77583878D01*
X129612352Y-77579500D01*
X129407648Y-77579500D01*
X129383329Y-77583351D01*
X129205465Y-77611522D01*
X129010776Y-77674781D01*
X128828386Y-77767715D01*
X128662786Y-77888028D01*
X128518028Y-78032786D01*
X128397715Y-78198386D01*
X128304781Y-78380776D01*
X128241522Y-78575465D01*
X128209500Y-78777648D01*
X123000500Y-78777648D01*
X123000500Y-75374500D01*
X123020185Y-75307461D01*
X123072989Y-75261706D01*
X123124500Y-75250500D01*
X187125500Y-75250500D01*
X187192539Y-75270185D01*
G37*
%TD.AperFunction*%
%TD*%
M02*
