%TF.GenerationSoftware,KiCad,Pcbnew,9.0.9-9.0.9~ubuntu24.04.1*%
%TF.CreationDate,2026-09-20T21:50:12-04:00*%
%TF.ProjectId,shift-register-control-panel,73686966-742d-4726-9567-69737465722d,rev?*%
%TF.SameCoordinates,Original*%
%TF.FileFunction,Soldermask,Top*%
%TF.FilePolarity,Negative*%
%FSLAX46Y46*%
G04 Gerber Fmt 4.6, Leading zero omitted, Abs format (unit mm)*
G04 Created by KiCad (PCBNEW 9.0.9-9.0.9~ubuntu24.04.1) date 2026-09-20 21:50:12*
%MOMM*%
%LPD*%
G01*
G04 APERTURE LIST*
G04 Aperture macros list*
%AMRoundRect*
0 Rectangle with rounded corners*
0 $1 Rounding radius*
0 $2 $3 $4 $5 $6 $7 $8 $9 X,Y pos of 4 corners*
0 Add a 4 corners polygon primitive as box body*
4,1,4,$2,$3,$4,$5,$6,$7,$8,$9,$2,$3,0*
0 Add four circle primitives for the rounded corners*
1,1,$1+$1,$2,$3*
1,1,$1+$1,$4,$5*
1,1,$1+$1,$6,$7*
1,1,$1+$1,$8,$9*
0 Add four rect primitives between the rounded corners*
20,1,$1+$1,$2,$3,$4,$5,0*
20,1,$1+$1,$4,$5,$6,$7,0*
20,1,$1+$1,$6,$7,$8,$9,0*
20,1,$1+$1,$8,$9,$2,$3,0*%
G04 Aperture macros list end*
%ADD10R,1.800000X1.800000*%
%ADD11C,1.800000*%
%ADD12C,1.200000*%
%ADD13C,1.400000*%
%ADD14R,2.000000X1.905000*%
%ADD15O,2.000000X1.905000*%
%ADD16O,2.200000X3.500000*%
%ADD17R,1.500000X2.500000*%
%ADD18O,1.500000X2.500000*%
%ADD19R,1.500000X1.600000*%
%ADD20C,1.600000*%
%ADD21C,3.000000*%
%ADD22RoundRect,0.250000X0.550000X-0.550000X0.550000X0.550000X-0.550000X0.550000X-0.550000X-0.550000X0*%
%ADD23R,1.700000X1.700000*%
%ADD24C,1.700000*%
%ADD25C,2.000000*%
G04 APERTURE END LIST*
D10*
%TO.C,D5*%
X159326570Y-112954061D03*
D11*
X159326570Y-110414061D03*
%TD*%
D12*
%TO.C,C1*%
X165500000Y-100750000D03*
X167500000Y-100750000D03*
%TD*%
D13*
%TO.C,R1*%
X127600000Y-94710000D03*
X127600000Y-99790000D03*
%TD*%
D10*
%TO.C,D4*%
X151290856Y-112954061D03*
D11*
X151290856Y-110414061D03*
%TD*%
D14*
%TO.C,U2*%
X172300000Y-98710000D03*
D15*
X172300000Y-101250000D03*
X172300000Y-103790000D03*
%TD*%
D13*
%TO.C,R5*%
X140200000Y-94710000D03*
X140200000Y-99790000D03*
%TD*%
D10*
%TO.C,D6*%
X167362284Y-112954061D03*
D11*
X167362284Y-110414061D03*
%TD*%
D10*
%TO.C,D1*%
X127183713Y-112954061D03*
D11*
X127183713Y-110414061D03*
%TD*%
D13*
%TO.C,R10*%
X173500000Y-88710000D03*
X173500000Y-93790000D03*
%TD*%
D16*
%TO.C,SW1*%
X164350000Y-89952500D03*
X156150000Y-89952500D03*
D17*
X162250000Y-89952500D03*
D18*
X160250000Y-89952500D03*
X158250000Y-89952500D03*
%TD*%
D10*
%TO.C,D9*%
X157500000Y-99210000D03*
D11*
X157500000Y-101750000D03*
%TD*%
D10*
%TO.C,D8*%
X183433713Y-112954061D03*
D11*
X183433713Y-110414061D03*
%TD*%
D13*
%TO.C,R8*%
X150450000Y-94500000D03*
X150450000Y-99580000D03*
%TD*%
%TO.C,R7*%
X146500000Y-94710000D03*
X146500000Y-99790000D03*
%TD*%
D19*
%TO.C,J2*%
X181010000Y-100350000D03*
D20*
X181010000Y-97850000D03*
X181010000Y-95850000D03*
X181010000Y-93350000D03*
D21*
X183720000Y-103420000D03*
X183720000Y-90280000D03*
%TD*%
D22*
%TO.C,U1*%
X129510000Y-86500000D03*
D20*
X132050000Y-86500000D03*
X134590000Y-86500000D03*
X137130000Y-86500000D03*
X139670000Y-86500000D03*
X142210000Y-86500000D03*
X144750000Y-86500000D03*
X147290000Y-86500000D03*
X147290000Y-78880000D03*
X144750000Y-78880000D03*
X142210000Y-78880000D03*
X139670000Y-78880000D03*
X137130000Y-78880000D03*
X134590000Y-78880000D03*
X132050000Y-78880000D03*
X129510000Y-78880000D03*
%TD*%
D13*
%TO.C,R6*%
X143350000Y-94710000D03*
X143350000Y-99790000D03*
%TD*%
D10*
%TO.C,D2*%
X135219427Y-112954061D03*
D11*
X135219427Y-110414061D03*
%TD*%
D13*
%TO.C,R12*%
X152500000Y-78210000D03*
X152500000Y-83290000D03*
%TD*%
D23*
%TO.C,J1*%
X129800000Y-90500000D03*
D24*
X132340000Y-90500000D03*
X134880000Y-90500000D03*
X137420000Y-90500000D03*
X139960000Y-90500000D03*
X142500000Y-90500000D03*
X145040000Y-90500000D03*
X147580000Y-90500000D03*
%TD*%
D13*
%TO.C,R3*%
X133900000Y-94710000D03*
X133900000Y-99790000D03*
%TD*%
%TO.C,R9*%
X160750000Y-94500000D03*
X155670000Y-94500000D03*
%TD*%
%TO.C,R2*%
X130750000Y-94710000D03*
X130750000Y-99790000D03*
%TD*%
%TO.C,R4*%
X137050000Y-94710000D03*
X137050000Y-99790000D03*
%TD*%
D25*
%TO.C,SW4*%
X160000000Y-78500000D03*
X160000000Y-85000000D03*
X155500000Y-78500000D03*
X155500000Y-85000000D03*
%TD*%
D10*
%TO.C,D3*%
X143255142Y-112954061D03*
D11*
X143255142Y-110414061D03*
%TD*%
D25*
%TO.C,SW2*%
X178000000Y-78500000D03*
X178000000Y-85000000D03*
X173500000Y-78500000D03*
X173500000Y-85000000D03*
%TD*%
D10*
%TO.C,D7*%
X175397999Y-112954061D03*
D11*
X175397999Y-110414061D03*
%TD*%
D25*
%TO.C,SW3*%
X169250000Y-78500000D03*
X169250000Y-85000000D03*
X164750000Y-78500000D03*
X164750000Y-85000000D03*
%TD*%
D13*
%TO.C,R11*%
X169000000Y-93790000D03*
X169000000Y-88710000D03*
%TD*%
M02*
